<svg xmlns="http://www.w3.org/2000/svg" width="17" height="17" viewBox="0 0 17 17"><g transform="translate(-392.398 -921.698)"><g transform="translate(-402.395 560.255)"><path d="M804.627,370.089l2.593-2.592a.872.872,0,0,0-1.233-1.234h0l-2.594,2.593-2.593-2.593a.872.872,0,0,0-1.233,1.234l2.594,2.592-2.594,2.593a.872.872,0,0,0,1.233,1.234l2.593-2.593,2.594,2.593a.872.872,0,0,0,1.232-1.234Z" transform="translate(-0.1 -0.101)"/><path d="M803.293,378.443a8.5,8.5,0,1,1,8.5-8.5h0A8.508,8.508,0,0,1,803.293,378.443Zm0-15.45a6.953,6.953,0,1,0,6.952,6.954v0A6.96,6.96,0,0,0,803.293,362.993Z"/></g></g></svg>