<svg xmlns="http://www.w3.org/2000/svg" width="22.325" height="18" viewBox="0 0 22.325 18"><defs><style>.a,.b,.c{fill:#2c5c9f;}.b{opacity:0.66;}.c{opacity:0.5;}</style></defs><g transform="translate(-90 -662)"><g transform="translate(101.774 669.505)"><path class="a" d="M927.544,286.371a5.248,5.248,0,1,0,5.275,5.248A5.268,5.268,0,0,0,927.544,286.371Zm2.934,7.253a.666.666,0,0,1-.473,1.136.67.67,0,0,1-.473-.2l-1.988-1.978-1.989,1.978a.668.668,0,1,1-.947-.941l1.989-1.979-1.989-1.978a.663.663,0,0,1,0-.941.672.672,0,0,1,.947,0l1.989,1.978,1.988-1.978a.671.671,0,0,1,.946,0,.662.662,0,0,1,0,.941l-1.988,1.978Z" transform="translate(-922.268 -286.371)"/></g><path class="a" d="M920.793,292.481h-.916l-.231,1.3a1.412,1.412,0,0,1-2.782,0l-.231-1.3h-3.908c.078-.1.16-.209.243-.316a6.84,6.84,0,0,0,1.739-4.674,9.3,9.3,0,0,1,.56-3.542c.02-.057.043-.112.066-.168.016-.036.03-.083.047-.118h.012a3.088,3.088,0,0,1,5.582-.279l.008,0a8.147,8.147,0,0,1,.821,4.11c0,.224.016.427.031.632a6.894,6.894,0,0,1,1.488-1.667c-.2-3.179-1.335-5.159-3.4-5.872a1.68,1.68,0,0,0-3.33,0c-2.285.79-3.443,3.111-3.443,6.908a5.284,5.284,0,0,1-1.408,3.7,9.683,9.683,0,0,0-.755,1.069,1.183,1.183,0,0,0-.009,1.191,1.166,1.166,0,0,0,1.025.6h3.329a2.965,2.965,0,0,0,5.835.063A6.846,6.846,0,0,1,920.793,292.481Z" transform="translate(-820.819 382.872)"/><g transform="translate(91.906 664.582)"><path class="b" d="M922.382,287.273c.079-.093.159-.187.244-.276C922.541,287.086,922.462,287.179,922.382,287.273Z" transform="translate(-912.725 -281.601)"/><path class="c" d="M920.767,291.819a6.887,6.887,0,0,1,1.139-3.8c-.022.033-.05.061-.072.095-.015-.205-.031-.409-.031-.635a8.218,8.218,0,0,0-.821-4.13l-.008,0a3.082,3.082,0,0,0-5.582.281h-.012c-.017.035-.031.083-.047.118-.023.056-.046.111-.066.168a9.386,9.386,0,0,0-.56,3.559,6.891,6.891,0,0,1-1.739,4.7c-.083.107-.165.213-.243.317h3.908l.231,1.3a1.41,1.41,0,0,0,2.782,0l.231-1.3h.916c.015.163.05.32.078.479A6.757,6.757,0,0,1,920.767,291.819Z" transform="translate(-912.725 -281.71)"/><path class="b" d="M921.164,293.893c0,.013-.008.024-.011.037l.026-.02a6.814,6.814,0,0,1-.3-1.079A6.969,6.969,0,0,0,921.164,293.893Z" transform="translate(-912.725 -281.448)"/></g></g></svg>