<svg xmlns="http://www.w3.org/2000/svg" width="19.417" height="20" viewBox="0 0 19.417 20"><g transform="translate(-91 -816.388)"><g transform="translate(-423.309 -150.384)"><path d="M523.382,981.919a6.6,6.6,0,0,1-.721.039,6.848,6.848,0,1,1,6.706-5.53H530.9a8.347,8.347,0,1,0-8.241,7.049c.243,0,.483-.016.721-.037Z"/><path d="M532.3,978.854a.215.215,0,0,1,.215.215v6.275a.216.216,0,0,1-.215.215h-6.275a.215.215,0,0,1-.215-.215v-6.275a.215.215,0,0,1,.215-.215H532.3m0-1.213h-6.275a1.428,1.428,0,0,0-1.428,1.428v6.275a1.428,1.428,0,0,0,1.428,1.428H532.3a1.429,1.429,0,0,0,1.428-1.428v-6.275a1.428,1.428,0,0,0-1.428-1.428Z"/><path d="M525.165,976.473l-1.3-1.306,2.519-2.519a.847.847,0,1,0-1.2-1.2l-2.519,2.519-2.518-2.519a.847.847,0,0,0-1.2,1.2l2.519,2.519-2.519,2.519a.847.847,0,1,0,1.2,1.2l2.518-2.519,1.081,1.081A2.228,2.228,0,0,1,525.165,976.473Z"/></g><path d="M528.336,982.91l-1.063-1.046-.754.742,1.817,1.788,3.451-3.4-.754-.742Z" transform="translate(-423.309 -150.384)"/></g></svg>