<svg xmlns="http://www.w3.org/2000/svg" width="22.325" height="18" viewBox="0 0 22.325 18"><defs><style>.a,.b,.c{fill:#adaeb0;}.b{opacity:0.66;}.c{opacity:0.5;}</style></defs><g transform="translate(-957.652 -388.863)"><g transform="translate(969.426 396.368)"><path class="a" d="M926.6,375.711a5.248,5.248,0,1,0,5.275,5.247A5.268,5.268,0,0,0,926.6,375.711Zm2.934,7.253a.667.667,0,0,1-.945.941l-1.989-1.979-1.989,1.979a.671.671,0,0,1-.946,0,.662.662,0,0,1,0-.941l1.988-1.979-1.988-1.978a.662.662,0,0,1,0-.941.671.671,0,0,1,.946,0l1.989,1.978,1.989-1.978a.67.67,0,0,1,.945,0,.661.661,0,0,1,0,.941l-1.988,1.978Z" transform="translate(-921.329 -375.711)"/></g><path class="a" d="M919.854,381.821h-.916l-.231,1.294a1.412,1.412,0,0,1-2.782,0l-.231-1.294h-3.908c.079-.1.16-.209.243-.317a6.835,6.835,0,0,0,1.739-4.673,9.3,9.3,0,0,1,.56-3.542c.021-.057.043-.112.066-.168.017-.037.03-.083.047-.118h.012a3.192,3.192,0,0,1,2.862-1.914,3.159,3.159,0,0,1,2.72,1.636l.009-.005a8.159,8.159,0,0,1,.821,4.111c0,.224.015.426.031.631a6.871,6.871,0,0,1,1.487-1.667c-.2-3.178-1.335-5.158-3.4-5.871a1.68,1.68,0,0,0-3.33,0c-2.285.789-3.443,3.111-3.443,6.908a5.281,5.281,0,0,1-1.408,3.7,10.016,10.016,0,0,0-.755,1.069,1.187,1.187,0,0,0-.009,1.192,1.166,1.166,0,0,0,1.025.6h3.329a2.966,2.966,0,0,0,5.835.063A6.858,6.858,0,0,1,919.854,381.821Z" transform="translate(47.772 20.395)"/><g transform="translate(959.558 391.445)"><path class="b" d="M921.443,376.613c.08-.094.159-.187.244-.277C921.6,376.426,921.523,376.519,921.443,376.613Z" transform="translate(-911.786 -370.941)"/><path class="c" d="M919.829,381.158a6.889,6.889,0,0,1,1.138-3.8c-.022.034-.05.061-.071.095-.016-.205-.031-.408-.031-.634a8.233,8.233,0,0,0-.821-4.131l-.009.005a3.157,3.157,0,0,0-2.72-1.643,3.192,3.192,0,0,0-2.862,1.923h-.012c-.017.035-.03.082-.047.118-.023.056-.045.111-.066.168a9.38,9.38,0,0,0-.56,3.559,6.886,6.886,0,0,1-1.739,4.7c-.083.108-.164.213-.243.318h3.908l.231,1.3a1.41,1.41,0,0,0,2.782,0l.231-1.3h.916c.016.163.05.32.078.479A6.753,6.753,0,0,1,919.829,381.158Z" transform="translate(-911.786 -371.05)"/><path class="b" d="M920.225,383.233c0,.012-.008.024-.011.037l.026-.02a6.984,6.984,0,0,1-.294-1.079A6.878,6.878,0,0,0,920.225,383.233Z" transform="translate(-911.786 -370.788)"/></g></g></svg>