<svg xmlns="http://www.w3.org/2000/svg" width="20" height="21.095" viewBox="0 0 20 21.095"><g transform="translate(-91.505 -768)"><g transform="translate(-423.309 -163.384)"><path d="M516.762,944.042a9.6,9.6,0,0,1,.272-2.232,6.2,6.2,0,0,1,9.558-7.371,9.6,9.6,0,0,1,2.608.413,7.861,7.861,0,1,0-12.418,9.586C516.777,944.306,516.762,944.176,516.762,944.042Z"/></g><g transform="translate(-423.309 -163.384)"><path d="M526.377,952.479a8.437,8.437,0,1,1,8.437-8.437A8.447,8.447,0,0,1,526.377,952.479Zm0-15.34a6.9,6.9,0,1,0,6.9,6.9A6.911,6.911,0,0,0,526.377,937.139Z"/></g><path d="M527.587,944.085l2.545-2.544a.856.856,0,0,0-1.211-1.21l-2.544,2.544-2.544-2.544a.856.856,0,0,0-1.211,1.21l2.545,2.544-2.545,2.545a.856.856,0,1,0,1.211,1.21l2.544-2.544,2.544,2.544a.856.856,0,0,0,1.211-1.21Z" transform="translate(-423.309 -163.384)"/></g></svg>