<svg xmlns="http://www.w3.org/2000/svg" width="15.007" height="17.39" viewBox="0 0 15.007 17.39"><defs><style>.a{fill:#bfbfbf;}.b{fill:gray;}</style></defs><g transform="translate(-674 -662)"><path class="a" d="M-1964.5-51.185a1.423,1.423,0,0,1-1.4-1.171l-.234-1.3h-3.943c.053-.07.107-.139.162-.21l.083-.106a6.8,6.8,0,0,0,1.755-4.673,9.312,9.312,0,0,1,.565-3.542c.02-.053.042-.11.068-.167.007-.016.015-.036.021-.055s.016-.044.025-.063h.012a3.213,3.213,0,0,1,2.887-1.914,3.186,3.186,0,0,1,2.746,1.635l.008,0a8.275,8.275,0,0,1,.829,4.109,6.7,6.7,0,0,0,1.758,4.689c.078.1.156.194.238.3h-3.939l-.234,1.3A1.424,1.424,0,0,1-1964.5-51.185Z" transform="translate(2646 729)"/><path class="b" d="M598.6,405.514a9.261,9.261,0,0,0-.773-1.072,5.132,5.132,0,0,1-1.409-3.7c0-3.8-1.169-6.117-3.475-6.906a1.7,1.7,0,0,0-3.36,0c-2.306.789-3.474,3.111-3.474,6.906a5.253,5.253,0,0,1-1.421,3.7,9.985,9.985,0,0,0-.762,1.069,1.188,1.188,0,0,0,1.026,1.79h3.359a3,3,0,0,0,5.9,0h3.359a1.187,1.187,0,0,0,1.025-1.79Zm-4.384.217H592.9l-.234,1.295a1.426,1.426,0,0,1-2.806,0l-.234-1.295h-3.944c.08-.1.161-.208.245-.316a6.8,6.8,0,0,0,1.755-4.673,9.234,9.234,0,0,1,.565-3.541c.021-.057.044-.112.067-.168.016-.036.03-.083.047-.119h.012a3.129,3.129,0,0,1,5.633-.279l.008,0a8.1,8.1,0,0,1,.829,4.109,6.69,6.69,0,0,0,1.76,4.692q.121.15.235.3Z" transform="translate(90.242 269.619)"/></g></svg>