<svg id="Layer_1" data-name="Layer 1" xmlns="http://www.w3.org/2000/svg" viewBox="0 0 28 32"><defs><style>.cls-1{fill:#241e20;}</style></defs><title>generic-alarm-icon</title><path id="Path_4827" data-name="Path 4827" class="cls-1" d="M27.45,24.18a17.19,17.19,0,0,0-1.41-2,9.48,9.48,0,0,1-2.59-6.82c0-7-2.13-11.26-6.36-12.72a3.11,3.11,0,0,0-6.15,0C6.72,4.13,4.57,8.4,4.57,15.39A9.7,9.7,0,0,1,2,22.22a17.82,17.82,0,0,0-1.39,2,2.19,2.19,0,0,0,.77,3,2.21,2.21,0,0,0,1.1.3H8.6a5.49,5.49,0,0,0,10.81,0h6.14a2.2,2.2,0,0,0,2.18-2.21,2.35,2.35,0,0,0-.3-1.09Zm-8,.4H17L16.59,27a2.61,2.61,0,0,1-5.14,0L11,24.58H3.8c.15-.18.3-.37.45-.58a12.58,12.58,0,0,0,3.22-8.61,16.86,16.86,0,0,1,1-6.52l.12-.31.09-.22h0A5.71,5.71,0,0,1,19,7.83h0a15,15,0,0,1,1.51,7.57A12.4,12.4,0,0,0,23.79,24c.15.19.3.37.43.55Z"/></svg>