<svg id="Layer_1" data-name="Layer 1" xmlns="http://www.w3.org/2000/svg" viewBox="0 0 20 22"><defs><style>.cls-1{fill:#a0a1a4;}</style></defs><g id="Group_3473" data-name="Group 3473"><g id="Group_295" data-name="Group 295"><path id="Rectangle_131" data-name="Rectangle 131" class="cls-1" d="M14.54,5H15.8a.67.67,0,0,1,.66.68V20.2a.67.67,0,0,1-.66.67H14.54a.66.66,0,0,1-.65-.67V5.72A.66.66,0,0,1,14.54,5Z"/><g id="Group_294" data-name="Group 294"><path id="Path_200" data-name="Path 200" class="cls-1" d="M10.51,16.29l.14-.13a.51.51,0,0,1,.74,0L14.79,20a.51.51,0,0,0,.74,0l0,0L19,16.19a.5.5,0,0,1,.73,0l.14.13a.55.55,0,0,1,0,.76l-4.31,4.78a.5.5,0,0,1-.73,0l0,0-4.31-4.78A.56.56,0,0,1,10.51,16.29Z"/></g></g><g id="Group_297" data-name="Group 297"><path id="Rectangle_132" data-name="Rectangle 132" class="cls-1" d="M4.16,1.12H5.42a.66.66,0,0,1,.65.67V16.28a.67.67,0,0,1-.65.68H4.16a.67.67,0,0,1-.66-.68V1.79A.66.66,0,0,1,4.16,1.12Z"/><g id="Group_296" data-name="Group 296"><path id="Path_201" data-name="Path 201" class="cls-1" d="M9.38,5.77h0a.61.61,0,0,1-.87,0L5.17,2a.51.51,0,0,0-.74,0l0,0L1.07,5.73a.61.61,0,0,1-.87,0h0a.64.64,0,0,1,0-.9L4.41.17a.51.51,0,0,1,.74,0l0,0,4.24,4.7A.65.65,0,0,1,9.38,5.77Z"/></g></g></g></svg>