<svg xmlns="http://www.w3.org/2000/svg" width="56" height="48" viewBox="0 0 56 48"><defs><style>.a,.c{fill:#ebeded;}.a,.b,.c{stroke:#000;stroke-miterlimit:10;}.a{stroke-width:1.456px;}.b,.e{fill:none;}.b,.c{stroke-width:1.822px;}.d{stroke:none;}</style></defs><g transform="translate(-111.97 -699.04)"><g class="a" transform="translate(132.433 717.02)"><rect class="d" width="24.919" height="18.275"/><rect class="e" x="0.728" y="0.728" width="23.462" height="16.819"/></g><g class="b" transform="translate(115.619 702.864)"><rect class="d" width="48.498" height="40.36"/><rect class="e" x="0.911" y="0.911" width="46.676" height="38.539"/></g><g class="c" transform="translate(111.97 699.04)"><rect class="d" width="9.378" height="9.173"/><rect class="e" x="0.911" y="0.911" width="7.556" height="7.351"/></g><g class="c" transform="translate(111.97 737.867)"><rect class="d" width="9.378" height="9.173"/><rect class="e" x="0.911" y="0.911" width="7.556" height="7.351"/></g><g class="c" transform="translate(158.592 699.04)"><rect class="d" width="9.378" height="9.173"/><rect class="e" x="0.911" y="0.911" width="7.556" height="7.351"/></g><g class="c" transform="translate(158.592 737.867)"><rect class="d" width="9.378" height="9.173"/><rect class="e" x="0.911" y="0.911" width="7.556" height="7.351"/></g><g class="a" transform="translate(121.849 710.862)"><rect class="d" width="24.919" height="18.275"/><rect class="e" x="0.728" y="0.728" width="23.462" height="16.819"/></g></g></svg>