<svg xmlns="http://www.w3.org/2000/svg" width="20" height="20" viewBox="0 0 20 20"><defs><style>.a{fill:#f46c10;}.b{fill:#fff;}</style></defs><g transform="translate(-386.212 -296.242)"><circle class="a" cx="10" cy="10" r="10" transform="translate(386.212 296.242)"/><path class="b" d="M395.143,301.414a1.431,1.431,0,0,1,1.1-.5,1.6,1.6,0,0,1,1.1.5,1.5,1.5,0,0,1,.4,1.1c0,.4-.6,3.3-.8,5.4h-1.4c-.2-2.1-.8-5-.8-5.4a2.106,2.106,0,0,1,.4-1.1m2.2,10a1.711,1.711,0,0,1-2.2,0,1.361,1.361,0,0,1-.4-1.1,1.5,1.5,0,1,1,2.6,1.1"/></g></svg>