<svg width="28" height="42" viewBox="0 0 28 42" fill="none" xmlns="http://www.w3.org/2000/svg">
<path d="M13.983 41.629C21.5571 41.629 27.697 40.0938 27.697 38.2C27.697 36.3062 21.5571 34.771 13.983 34.771C6.40901 34.771 0.269043 36.3062 0.269043 38.2C0.269043 40.0938 6.40901 41.629 13.983 41.629Z" fill="black" fill-opacity="0.25"/>
<path d="M13.7031 37.8288C13.08 37.8288 12.5081 37.4883 12.2106 36.9404C11.4371 35.5194 10.0907 33.1457 8.66504 30.6327C6.7395 27.2382 4.74841 23.7281 3.79712 21.9141C3.60205 21.5421 3.39429 21.1619 3.19336 20.7943C2.02368 18.6539 0.813965 16.4405 0.813965 13.703C0.813965 10.2603 2.15479 7.0235 4.58948 4.58899C7.02393 2.1546 10.2605 0.813965 13.703 0.813965C17.1459 0.813965 20.3827 2.1546 22.817 4.58899C25.2515 7.02338 26.5922 10.2601 26.5922 13.703C26.5922 16.6964 25.2179 19.1 23.8888 21.4244C23.7909 21.5958 23.693 21.7668 23.5961 21.9378C21.6566 25.3554 16.9337 33.7488 15.196 36.9412C14.8978 37.4888 14.3258 37.8288 13.7031 37.8288Z" fill="#29ABE2"/>
<path d="M13.7031 37.0148C14.0081 37.0148 14.3131 36.8605 14.4811 36.5521C16.2931 33.2231 21.097 24.6921 22.8881 21.5361C24.2571 19.1241 25.7781 16.6931 25.7781 13.7031C25.7781 7.03406 20.3721 1.62805 13.703 1.62805C7.03503 1.62805 1.62805 7.03406 1.62805 13.7031C1.62805 16.6931 3.22998 19.0801 4.51807 21.5361C6.17297 24.6921 11.114 33.2231 12.926 36.5521C13.0935 36.8605 13.3982 37.0148 13.7031 37.0148ZM13.7031 38.6429C12.7812 38.6429 11.9352 38.1393 11.4952 37.3288C10.7256 35.9149 9.38074 33.5443 7.95703 31.0344C6.0282 27.6342 4.03369 24.1181 3.07617 22.2921C2.8844 21.9264 2.6875 21.5662 2.47913 21.1848C1.31702 19.0585 0 16.6485 0 13.7031C0 10.0428 1.42542 6.60168 4.01379 4.01343C6.60205 1.42529 10.0431 0 13.703 0C17.3633 0 20.8046 1.42535 23.3927 4.01349C25.9808 6.60156 27.4061 10.0428 27.4061 13.7031C27.4061 16.9127 25.913 19.5244 24.5956 21.8285C24.4979 21.9991 24.4006 22.1695 24.304 22.3397C22.3657 25.7551 17.6465 34.1421 15.911 37.3304C15.4701 38.1401 14.6241 38.6429 13.7031 38.6429Z" fill="black"/>
<path d="M22.8879 21.5361C24.2569 19.1241 25.778 16.6931 25.778 13.7031C25.778 10.5006 24.5057 7.4293 22.2412 5.16479C19.9767 2.90029 16.9054 1.62805 13.7029 1.62805C10.5004 1.62805 7.42905 2.90029 5.16455 5.16479C2.90005 7.4293 1.62793 10.5006 1.62793 13.7031C1.62793 16.6931 3.22794 19.0801 4.51794 21.5361C6.17294 24.6921 11.1179 33.2231 12.9259 36.5521C13.0019 36.6919 13.1143 36.8087 13.2511 36.89C13.3879 36.9714 13.5442 37.0143 13.7034 37.0143C13.8626 37.0143 14.0188 36.9714 14.1556 36.89C14.2925 36.8087 14.4049 36.6919 14.481 36.5521C16.293 33.2231 21.0969 24.6941 22.8879 21.5361Z" fill="#41A2E1" stroke="white" stroke-width="0.814" stroke-miterlimit="10"/>
<path d="M13.9831 18.3291C16.9787 18.3291 19.4071 15.9007 19.4071 12.9051C19.4071 9.90949 16.9787 7.48108 13.9831 7.48108C10.9875 7.48108 8.55908 9.90949 8.55908 12.9051C8.55908 15.9007 10.9875 18.3291 13.9831 18.3291Z" fill="white"/>
<path d="M13.9831 17.7481C16.6579 17.7481 18.8261 15.5798 18.8261 12.9051C18.8261 10.2304 16.6579 8.06213 13.9831 8.06213C11.3084 8.06213 9.14014 10.2304 9.14014 12.9051C9.14014 15.5798 11.3084 17.7481 13.9831 17.7481Z" stroke="black" stroke-width="1.162" stroke-miterlimit="10"/>
</svg>
