<svg xmlns="http://www.w3.org/2000/svg" width="33" height="33" viewBox="0 0 33 33"><defs><style>.a{fill:#d2e1ef;stroke:#95b1d6;}.b{fill:#335ca5;}</style></defs><g transform="translate(-1619.455 -314.319)"><g transform="translate(1619.955 314.819)"><circle class="a" cx="16" cy="16" r="16" transform="translate(0)"/></g><g transform="translate(1195.965 57.659)"><g transform="translate(431.035 265.013)"><path class="b" d="M436.336,281.494a4.831,4.831,0,0,1-3.431-1.65c-2.716-2.717-2.463-6.086.694-9.243,1.611-1.609,4.821-4.533,4.957-4.657a.721.721,0,1,1,.971,1.067c-.033.029-3.321,3.025-4.907,4.61-2.619,2.619-2.852,5.043-.694,7.2,1.886,1.887,3.533,1.648,6.073-.892l6.536-6.537a3.724,3.724,0,0,0,1.374-2.331c-.009-.636-.542-1.136-1.058-1.62-.11-.1-.218-.206-.317-.3-1.165-1.166-2.2-.883-4.257,1.172l-5.949,5.949c-.375.375-1.154,1.341-.293,2.2a1.514,1.514,0,0,0,2.148-.231l6.591-6.6a.721.721,0,0,1,1.02,1.02l-6.536,6.536a2.864,2.864,0,0,1-1.917,1.039,2.919,2.919,0,0,1-2.174-.616l-.1-.08c-1.235-1.232-1.117-2.938.239-4.293l5.949-5.949c1.213-1.211,3.74-3.733,6.3-1.172.088.089.185.18.285.273a3.783,3.783,0,0,1,1.512,2.65,4.916,4.916,0,0,1-1.8,3.373l-6.536,6.537C439.8,280.171,438.178,281.494,436.336,281.494Z" transform="translate(-431.035 -265.013)"/></g></g></g></svg>