<svg xmlns="http://www.w3.org/2000/svg" width="33" height="33" viewBox="0 0 33 33"><defs><style>.a{fill:#d2e1ef;stroke:#95b1d6;}.b{fill:#335ca5;}</style></defs><g transform="translate(-726.5 -342.319)"><g transform="translate(-892.955 -29)"><g transform="translate(1619.955 371.819)"><circle class="a" cx="16" cy="16" r="16" transform="translate(0)"/></g><g transform="translate(421.062 -248)"><g transform="translate(1204.938 626.509)"><path class="b" d="M4330.421,475.656c-.59.175-1.093-.231-1.571-.6a.918.918,0,0,0-1.366.011c-.621.6-1.187.508-1.866.01-.76-.557-.533-.582-1.247.082a1.791,1.791,0,0,1-1.577.49,1.12,1.12,0,0,0-1.257.665,4.786,4.786,0,0,1-5.464,2.024,4.869,4.869,0,0,1,1.466-9.53,4.672,4.672,0,0,1,4.179,2.507.7.7,0,0,0,.71.4c2.829-.012,5.661,0,8.492-.015a.8.8,0,0,1,.726.355c.354.474.728.933,1.106,1.387a.291.291,0,0,1,.006.446q-.623.749-1.215,1.524a.551.551,0,0,1-.533.246C4330.848,475.644,4330.685,475.656,4330.421,475.656Zm-14.558-3.493a1.511,1.511,0,0,0-1.516,1.5,1.522,1.522,0,1,0,3.045.017A1.5,1.5,0,0,0,4315.863,472.163Z" transform="translate(-4312.657 -464.333)"/></g></g></g></g></svg>