<svg xmlns="http://www.w3.org/2000/svg" width="33" height="33" viewBox="0 0 33 33"><defs><style>.a{fill:#d2e1ef;stroke:#95b1d6;}.b{fill:#335ca5;}</style></defs><g transform="translate(-1618.455 -536.319)"><g transform="translate(1618.955 536.819)"><circle class="a" cx="16" cy="16" r="16" transform="translate(0)"/></g><path class="b" d="M40.034,32,30,50.813H50.067Zm.878,15.928a1.242,1.242,0,1,1-1.756-1.756,1.317,1.317,0,0,1,1.756,0,1.212,1.212,0,0,1,0,1.756Zm-.878-3.386a1.254,1.254,0,0,1-1.254-1.254V39.525a1.254,1.254,0,0,1,2.508,0v3.763A1.254,1.254,0,0,1,40.034,44.542Z" transform="translate(1595 509.187)"/></g></svg>