<svg xmlns="http://www.w3.org/2000/svg" width="26" height="24" viewBox="0 0 26 24"><defs><style>.a{fill:gray;}.b{fill:none;stroke:gray;stroke-linecap:round;stroke-linejoin:round;stroke-width:2px;}</style></defs><g transform="translate(-5232.326 -2505.352)"><path class="a" d="M5243.353,2505.836l-5.717,6.494h-4.31a1,1,0,0,0-1,1v8.035a1,1,0,0,0,1,1h4.316l5.68,6.453c1,1,2,.487,2-.883v-21.375C5245.326,2505.3,5244.217,2504.968,5243.353,2505.836Z"/><path class="b" d="M5249.355,2512.254a5.772,5.772,0,0,1-.032,10.111" transform="translate(0 0.053)"/><path class="b" d="M5251.825,2508.365a10.09,10.09,0,0,1,0,17.973" transform="translate(0 0)"/></g></svg>