<svg xmlns="http://www.w3.org/2000/svg" width="22" height="28.599" viewBox="0 0 22 28.599"><defs><style>.a{fill:gray;}.b{fill:#fff;}</style></defs><g transform="translate(-554 -554)"><g transform="translate(-4876.052 -1950.299)"><path class="a" d="M5449.043,2508.926c-.268-.264-.543-.533-.814-.8s-.541-.545-.8-.815c-1.883-1.92-3-3.007-4.172-3.007h-8.8a4.405,4.405,0,0,0-4.4,4.4v19.8a4.406,4.406,0,0,0,4.4,4.4h13.2a4.406,4.406,0,0,0,4.4-4.4v-15.4C5452.051,2511.929,5450.964,2510.808,5449.043,2508.926Z" transform="translate(0 0)"/><path class="b" d="M5449.975,2528.6a2.228,2.228,0,0,1-2.231,2.222H5434.36a2.228,2.228,0,0,1-2.231-2.222v-20a2.228,2.228,0,0,1,2.231-2.222l8.13,0c.8.2.793,1.19.793,2.175v3.385a1.114,1.114,0,0,0,1.114,1.11h3.347c1.113,0,2.231.006,2.231,1.112Z"/><path class="a" d="M5447.283,2519.566h-2.441l-.63-4.661-.63,3.625-.394-.518-.866.518-.788-2.589-.787,2.589-.945-4.661-1.26,4.661-.866-2.589-.709,2.589-.394-1.036-.538,2.072h-1.982v1.036h1.907l.534,2.072.315-1.036.867,2.589.866-2.589,1.26,4.661.945-4.661.787,2.589.788-2.589.866,1.036.315-1.036.629,3.625.709-4.661h2.441Z" transform="translate(0 1.05)"/></g></g></svg>