<svg xmlns="http://www.w3.org/2000/svg" width="20.001" height="14" viewBox="0 0 20.001 14"><defs><style>.a{fill:#fff;}</style></defs><g transform="translate(-1438.091 -805.996)"><g transform="translate(-279.824 523.326)"><path class="a" d="M1728.08,290.839l.963-2.882a3.29,3.29,0,0,0-2.158-4.168,3.391,3.391,0,0,0-4.257,2.113l-.963,2.882c-.145.434-3.52,1.678-3.723,2.284-.29.867,1.811,2.318,5.356,3.454s6.116,1.181,6.405.313C1729.906,294.229,1727.935,291.273,1728.08,290.839Z"/><path class="a" d="M1727.894,283.872a.928.928,0,0,0-.652-1.15.958.958,0,0,0-1.221.55l-.284.851-.284.851a.928.928,0,0,0,.652,1.15.956.956,0,0,0,1.22-.551l.284-.85Z"/><path class="a" d="M1723.1,295.1c-.314-.1-.613-.205-.9-.31a.888.888,0,0,0-.32.432,1.1,1.1,0,0,0,.719,1.389,1.13,1.13,0,0,0,1.419-.7.859.859,0,0,0,0-.533C1723.722,295.294,1723.418,295.2,1723.1,295.1Z"/></g><path class="a" d="M1736.878,290.39h-5.226a.921.921,0,1,1,0-1.827h5.226a.921.921,0,1,1,0,1.827Z" transform="translate(-279.824 523.326)"/><path class="a" d="M1736.878,295.476h-4.123a.921.921,0,1,1,0-1.828h4.123a.921.921,0,1,1,0,1.828Z" transform="translate(-279.824 523.326)"/><path class="a" d="M1736.878,285.3h-5.359a.921.921,0,1,1,0-1.828h5.359a.921.921,0,1,1,0,1.828Z" transform="translate(-279.824 523.326)"/></g></svg>