<svg xmlns="http://www.w3.org/2000/svg" width="150.088" height="91.25" viewBox="0 0 150.088 91.25"><defs><style>.a{fill:#e6e6e6;}.b{fill:#4972b5;}.c{fill:#fff;}.d{fill:#bebebe;}.e{fill:none;stroke:#202020;stroke-width:2px;}.e,.f{stroke-linecap:round;stroke-linejoin:round;}.f{fill:#c9c9c9;stroke:gray;stroke-width:2.5px;}</style></defs><g transform="translate(-631.581 -543.243)"><g transform="translate(631.581 543.243)"><rect class="a" width="126.96" height="30.23" transform="translate(7.51 41.608)"/><rect class="a" width="134.47" height="32.752"/><path class="b" d="M299.491,33.442H428.8V6.085H299.491Z" transform="translate(-296.535 -3.648)"/><path class="c" d="M299.491,119.315H419.923v-23.7H299.491Z" transform="translate(-288.717 -50.637)"/><ellipse class="c" cx="10.423" cy="10.423" rx="10.423" ry="10.423" transform="translate(7.347 5.467)"/><rect class="c" width="62.287" height="2.266" transform="translate(38.418 11.811)"/><rect class="c" width="62.287" height="2.266" transform="translate(38.418 17.702)"/><ellipse class="d" cx="9.03" cy="9.03" rx="9.03" ry="9.03" transform="translate(14.577 47.889)"/><rect class="d" width="62.967" height="1.963" transform="translate(41.455 53.239)"/><rect class="d" width="62.967" height="1.963" transform="translate(41.455 58.342)"/><g transform="translate(95.717 36.879)"><circle class="e" cx="9.085" cy="9.085" r="9.085" transform="translate(17.43 17.521)"/><path class="f" d="M54.236,24.134h-5.8a20.237,20.237,0,0,0-2.692-6.495l4.1-4.1a.886.886,0,0,0,0-1.252L44.838,7.275a.886.886,0,0,0-1.252,0l-4.1,4.1a20.229,20.229,0,0,0-6.5-2.691v-5.8A.886.886,0,0,0,32.1,2H25.019a.886.886,0,0,0-.885.885v5.8a20.238,20.238,0,0,0-6.495,2.692l-4.1-4.1a.886.886,0,0,0-1.252,0L7.275,12.283a.886.886,0,0,0,0,1.252l4.1,4.1a20.229,20.229,0,0,0-2.691,6.5h-5.8A.886.886,0,0,0,2,25.019V32.1a.886.886,0,0,0,.885.885h5.8a20.237,20.237,0,0,0,2.692,6.495l-4.1,4.1a.886.886,0,0,0,0,1.252l5.008,5.008a.886.886,0,0,0,1.252,0l4.1-4.1a20.242,20.242,0,0,0,6.5,2.692v5.8a.886.886,0,0,0,.885.885H32.1a.886.886,0,0,0,.885-.885v-5.8a20.237,20.237,0,0,0,6.495-2.692l4.1,4.1a.886.886,0,0,0,1.252,0l5.008-5.008a.886.886,0,0,0,0-1.252l-4.1-4.1a20.244,20.244,0,0,0,2.693-6.5h5.8a.886.886,0,0,0,.885-.885V25.019A.886.886,0,0,0,54.236,24.134ZM28.56,37.414a8.853,8.853,0,1,1,8.853-8.853A8.853,8.853,0,0,1,28.56,37.414Z" transform="translate(-2 -2)"/></g></g></g></svg>