<svg xmlns="http://www.w3.org/2000/svg" width="106.9" height="101.723" viewBox="0 0 106.9 101.723"><defs><style>.a{fill:#c9c9c9;}.b{fill:gray;}</style></defs><g transform="translate(-746 -3939)"><path class="a" d="M2438,1204.183a25.125,25.125,0,0,1,11.124-20.879c-1.3-1.41-2.136-2.527-2.142-3.145l-.173-18.982a20.552,20.552,0,0,0-15.076-19.494l-.017-2.306a5.8,5.8,0,0,0-6.1-5.472h-.085a5.985,5.985,0,0,0-6.094,5.734l.018,2.306a21.19,21.19,0,0,0-14.712,20.135l.173,18.982c.026,2.858-17.38,17.068-17.346,21.066.05,5.711,15.416,10.007,38.662,9.509,4.551-.1,8.791-.369,12.675-.781A25.149,25.149,0,0,1,2438,1204.183Z" transform="translate(-1639.467 2807.201)"/><g transform="translate(777.943 3991.519)"><g transform="translate(0 24.793)"><path class="a" d="M2424.8,1208.752c-2.06.044-4.039.036-5.974.007a5.542,5.542,0,0,0-1.011,3.2,6.855,6.855,0,0,0,6.959,6.745h.1a7.059,7.059,0,0,0,6.948-7.047,5.373,5.373,0,0,0-1.067-3.155C2428.844,1208.611,2426.87,1208.706,2424.8,1208.752Z" transform="translate(-2415.722 -1206.351)"/><path class="b" d="M2424.737,1220.9a8.958,8.958,0,0,1-8.918-8.81,7.642,7.642,0,0,1,1.394-4.442l.638-.907,1.107.017c2.244.033,4.118.03,5.9-.007,2.137-.047,4.179-.15,5.893-.243l1.122-.062.671.9a7.408,7.408,0,0,1,1.483,4.385,9.2,9.2,0,0,1-9.011,9.165h-.275Zm-4.553-9.934a3.478,3.478,0,0,0-.174,1.09,4.76,4.76,0,0,0,4.758,4.652h.211a4.979,4.979,0,0,0,4.851-4.955,3.132,3.132,0,0,0-.171-.988c-1.441.073-3.044.143-4.713.179h0C2423.466,1210.979,2421.93,1210.985,2420.184,1210.969Z" transform="translate(-2415.818 -1206.45)"/></g><g transform="translate(22.813)"><g transform="translate(2.997)"><path class="b" d="M2452.014,1219.961a20.018,20.018,0,1,1,26.746-26.276l-3.144,1.388a16.624,16.624,0,1,0-22.166,21.775Z" transform="translate(-2440.446 -1181.793)"/></g><g transform="translate(0 9.201)"><path d="M2468.963,1230.576a20.177,20.177,0,1,1,.071,0Zm.252-36.577a16.491,16.491,0,1,0,.061,0Z" transform="translate(-2437.029 -1190.573)"/><g transform="translate(0 18.517)"><path d="M2443.9,1208.241a12.536,12.536,0,0,0-4.311,4.6,7.321,7.321,0,0,0-.55,5.858,6.173,6.173,0,0,0,1.524,2.451,6.933,6.933,0,0,0,2.372,1.617,10.54,10.54,0,0,0,5.748.653c3.95-.549,7.627-2.608,10.879-5.067a53.818,53.818,0,0,0,8.834-8.68l3.81,3.465a58.227,58.227,0,0,1-10.462,8.4c-3.834,2.329-8.15,4.253-12.852,4.445a12.758,12.758,0,0,1-6.831-1.5,8.67,8.67,0,0,1-2.714-2.283,7.616,7.616,0,0,1-1.548-3.149,8.306,8.306,0,0,1,1.232-6.534A12.87,12.87,0,0,1,2443.9,1208.241Z" transform="translate(-2437.585 -1208.241)"/><g transform="translate(21.762 0.899)"><path d="M2471.439,1222.062l-2.168.022-.094-10.645-10.651.872-.175-2.154,12.971-1.058Z" transform="translate(-2458.35 -1209.099)"/></g></g></g></g></g><path class="b" d="M2438.524,1208.89c-3.836.4-7.952.655-12.248.747-19.935.42-32.314-2.719-35.722-6.026a2.219,2.219,0,0,1-.8-1.33c.288-1.667,5.838-7.286,9.155-10.644,6.086-6.159,8.214-8.494,8.2-10.5l-.173-18.959a19.042,19.042,0,0,1,13.258-18.144l1.467-.472-.03-3.788a3.916,3.916,0,0,1,3.886-3.681h.178l.134,0a3.7,3.7,0,0,1,2.67.939,3.622,3.622,0,0,1,1.222,2.456l.031,3.888,1.526.421a18.552,18.552,0,0,1,13.538,17.493l.173,18.982h0c.012,1.162.744,2.405,2.546,4.377a25.186,25.186,0,0,1,3.517-2.367,12.989,12.989,0,0,1-1.873-2.273L2449,1161.24a22.787,22.787,0,0,0-15.09-21l-.006-.879a7.894,7.894,0,0,0-8.243-7.454h-.151a8.133,8.133,0,0,0-8.077,7.743l0,.052.007.87a23.228,23.228,0,0,0-14.7,21.625l.171,18.765c-.582,1.25-4.27,4.983-6.984,7.73-7.06,7.148-10.383,10.814-10.36,13.552a6.113,6.113,0,0,0,2.071,4.377c4.677,4.538,17.965,7.248,35.124,7.247q1.778,0,3.608-.039c4.713-.1,9.162-.384,13.281-.833A25.122,25.122,0,0,1,2438.524,1208.89Z" transform="translate(-1639.563 2807.105)"/></g></svg>