<svg xmlns="http://www.w3.org/2000/svg" xmlns:xlink="http://www.w3.org/1999/xlink" width="393.997" height="220" viewBox="0 0 393.997 220"><defs><style>.a,.e{fill:#80acec;}.a,.b{stroke:#707070;}.b,.k{fill:#fff;}.c{fill:#b7cef4;}.d{clip-path:url(#a);}.e{opacity:0.318;}.f{opacity:0.45;clip-path:url(#b);}.g{fill:#a3a3a3;}.h{clip-path:url(#c);}.i{fill:#f4f4f4;}.j{fill:#4972b5;}.l{fill:#bebebe;}.m{fill:#759ad6;}.n{fill:none;stroke:#bbb;stroke-miterlimit:10;stroke-width:3px;}.o{fill:#88b4f4;opacity:0.64;}.p{fill:#bbb;}.q{fill:#a1beed;}.r{fill:#698ecb;}.s{fill:#3c619f;}.t{fill:#3f3d56;}</style><clipPath id="a"><rect class="a" width="360.895" height="218.613"/></clipPath><clipPath id="b"><rect class="b" width="119.707" height="22.845"/></clipPath><clipPath id="c"><path class="c" d="M125.556,111.375l-122.768.109A2.781,2.781,0,0,1,0,108.7C.01,97.26,6.007,77.347,22.358,68.02l.023-26.2a41.853,41.853,0,0,1,83.706-.074l-.023,26.189c16.334,9.226,22.3,29.161,22.285,40.649A2.793,2.793,0,0,1,125.556,111.375Z" transform="matrix(0.914, 0.407, -0.407, 0.914, 45.345, 0)"/></clipPath></defs><g transform="translate(-723.775 -406)"><g transform="translate(723.775 406)"><g class="d" transform="translate(33.102)"><ellipse class="e" cx="165.935" cy="165.433" rx="165.935" ry="165.433" transform="translate(22.046 2.05)"/></g><g class="f" transform="translate(51.378 196.024)"><path class="g" d="M55.625,0c30.721,0,55.625,9.975,55.625,22.279s-24.9,22.279-55.625,22.279S0,34.583,0,22.279,24.9,0,55.625,0Z" transform="translate(0.794 2.084)"/></g><g transform="translate(196.085 57.345)"><rect class="i" width="135.094" height="33.559" transform="translate(0 107.52)"/><rect class="i" width="152.2" height="36.239" transform="translate(14.254 58.407)"/><rect class="i" width="177.948" height="43.342"/><path class="j" d="M299.491,42.288H470.614V6.085H299.491Z" transform="translate(-295.579 -2.859)"/><path class="k" d="M299.491,124.027H443.866V95.614H299.491Z" transform="translate(-281.324 -33.167)"/><path class="k" d="M299.491,209.335H425.9V184.456H299.491Z" transform="translate(-295.151 -72.596)"/><ellipse class="k" cx="13.793" cy="13.793" rx="13.793" ry="13.793" transform="translate(9.723 7.235)"/><rect class="k" width="82.427" height="2.998" transform="translate(50.84 15.631)"/><rect class="k" width="82.427" height="2.998" transform="translate(50.84 23.426)"/><circle class="l" cx="10.825" cy="10.825" r="10.825" transform="translate(22.726 65.937)"/><ellipse class="l" cx="9.478" cy="9.478" rx="9.478" ry="9.478" transform="translate(8.33 115.027)"/><rect class="l" width="75.486" height="2.353" transform="translate(54.948 72.351)"/><rect class="l" width="75.486" height="2.353" transform="translate(54.948 78.469)"/><rect class="l" width="62.39" height="2.06" transform="translate(36.586 120.465)"/><rect class="l" width="62.39" height="2.06" transform="translate(36.586 125.822)"/></g><g transform="translate(311.453 19.19)"><rect class="m" width="3.655" height="24.672" rx="1.828" transform="translate(10.509)"/><rect class="m" width="3.655" height="24.672" rx="1.828" transform="translate(24.672 10.509) rotate(90)"/></g><circle class="n" cx="8.192" cy="8.192" r="8.192" transform="translate(37.151 49.776)"/><rect class="o" width="21.664" height="21.664" rx="2" transform="translate(0 123.696) rotate(-45)"/><circle class="p" cx="6.062" cy="6.062" r="6.062" transform="translate(281.777 31.714)"/><g transform="translate(55.033 66.138)"><rect class="p" width="2.741" height="17.362" rx="1.371" transform="translate(7.31)"/><rect class="p" width="2.741" height="17.362" rx="1.371" transform="translate(17.362 7.31) rotate(90)"/></g><path class="q" d="M-125.717,330.636l-133.291-59.3a3.309,3.309,0,0,1-1.684-4.365l0,0c5.532-12.412,21.65-31.121,43.9-33.331l12.667-28.419a49.733,49.733,0,0,1,65.762-24.944,49.734,49.734,0,0,1,25.117,65.375l-12.664,28.412c13.275,17.918,10.125,42.439,4.568,54.905A3.314,3.314,0,0,1-125.717,330.636Z" transform="translate(296.733 -117.278)"/><path class="r" d="M-200.505,328.143c-34.661-15.421-66.516-38.273-60.343-52.124s44.486-5.484,79.145,9.935,66.516,38.273,60.346,52.119S-165.846,343.563-200.505,328.143Z" transform="translate(296.794 -126.215)"/><path class="s" d="M-193.838,279.731l-.034.011a19.827,19.827,0,0,0,10.349,25.5,19.86,19.86,0,0,0,25.895-9.376l0-.026c-5.723-3.079-11.718-6.021-17.809-8.731S-187.723,281.92-193.838,279.731Z" transform="translate(290.417 -127.343)"/><path class="q" d="M1759.226,299.033c2.136-6.4-1.839-13.412-8.879-15.659s-14.487,1.1-16.624,7.489l-3.867,11.587-3.867,11.587c-2.138,6.386,1.837,13.412,8.876,15.658s14.474-1.1,16.612-7.5l3.867-11.574Z" transform="translate(-1588.402 -231.04)"/></g><path class="t" d="M.045,1.735H337.211v.985H.045Z" transform="translate(776.074 623.279)"/></g></svg>