<svg xmlns="http://www.w3.org/2000/svg" width="123" height="87" viewBox="0 0 123 87"><defs><style>.a{fill:#fff;}.b{fill:#70b070;}.c{fill:#7a7a7a;}</style></defs><g transform="translate(-1140.994 -506.335)"><path class="a" d="M1213.363,570.107a27.3,27.3,0,0,1,27.238-27.021l-.04-36.23-98.759.1.071,63.589,71.5-.075C1213.37,570.351,1213.363,570.23,1213.363,570.107Z"/><path class="a" d="M1242.575,583.5a1.945,1.945,0,0,1-3.89-.024l.164-26.429a1.945,1.945,0,0,1,3.89.024"/><ellipse class="b" cx="23.338" cy="23.207" rx="23.338" ry="23.207" transform="translate(1217.318 546.921)"/><path class="a" d="M1240.656,585.276a1.939,1.939,0,0,1-1.945-1.933v-26.43a1.945,1.945,0,0,1,3.89,0v26.43A1.939,1.939,0,0,1,1240.656,585.276Z"/><path class="a" d="M1253.945,572.061h-26.578a1.933,1.933,0,1,1,0-3.866h26.578a1.933,1.933,0,1,1,0,3.866Z"/><path class="c" d="M1213.363,570.107c0-.037,0-.073,0-.11l-71.3.075L1142,507.436l98.369-.1.039,35.757c.159,0,.316-.01.475-.009.177,0,.352.012.528.017l-.04-36.763-100.375.105.072,64.63,72.315-.076C1213.373,570.7,1213.362,570.4,1213.363,570.107Z"/></g></svg>