<svg xmlns="http://www.w3.org/2000/svg" width="38.129" height="32" viewBox="0 0 38.129 32"><defs><style>.a{fill:#6799c5;}.b,.d{fill:none;}.c,.f{fill:#fff;}.d,.f{stroke:gray;}.d{stroke-width:2px;}.e{fill:gray;}.g{stroke:none;}</style></defs><g transform="translate(3026.64 1940.374)"><g transform="translate(-3018.908 -1940.374)"><rect class="a" width="30.397" height="9.588"/><rect class="b" width="29.564" height="8.754" transform="translate(0.417 0.417)"/></g><circle class="c" cx="2.917" cy="2.917" r="2.917" transform="translate(-3017.55 -1938.498)"/><g transform="translate(-3026.51 -1935.109)"><path class="d" d="M-3017.667-1913.486s-7.226-8.715,1.392-19.33" transform="translate(3021.386 1932.816)"/><path class="e" d="M5.861,6.478,0,3.7,6.166,0Z" transform="matrix(0.978, -0.208, 0.208, 0.978, 0, 17.76)"/></g><g class="f" transform="translate(-3015.51 -1928.575)"><rect class="g" width="27" height="9"/><rect class="b" x="0.5" y="0.5" width="26" height="8"/></g><path class="e" d="M2.5,0A2.5,2.5,0,1,1,0,2.5,2.5,2.5,0,0,1,2.5,0Z" transform="translate(-3012.487 -1926.45)"/><g class="f" transform="translate(-3015.511 -1917.374)"><rect class="g" width="27" height="9"/><rect class="b" x="0.5" y="0.5" width="26" height="8"/></g><path class="e" d="M2.5,0A2.5,2.5,0,1,1,0,2.5,2.5,2.5,0,0,1,2.5,0Z" transform="translate(-3012.487 -1915.25)"/></g></svg>