<svg xmlns="http://www.w3.org/2000/svg" width="20.696" height="19.28" viewBox="0 0 20.696 19.28"><defs><style>.a{fill:#737373;}</style></defs><g transform="translate(-31.671 -123.032)"><path class="a" d="M45.007,128.529c0,.715-1.537.877-2.979.877s-3-.162-3-.877v-.2c0-.525,1.062-1.056,1.968-1.347a.565.565,0,0,0,.2-.717,2.444,2.444,0,0,1-.8-1.719,1.456,1.456,0,0,1,1.437-1.511,1.734,1.734,0,0,1,.176-.006,1.536,1.536,0,0,1,1.656,1.375,1.123,1.123,0,0,1,0,.142,2.481,2.481,0,0,1-.828,1.715h0a.571.571,0,0,0,.147.721c.95.28,2.017.806,2.017,1.347Z"/><path class="a" d="M37.646,141.436c0,.714-1.536.876-2.979.876s-3-.162-3-.876v-.2c0-.524,1.062-1.056,1.967-1.346a.564.564,0,0,0,.2-.718,2.445,2.445,0,0,1-.8-1.718,1.456,1.456,0,0,1,1.437-1.512c.058,0,.117-.006.176-.005a1.536,1.536,0,0,1,1.656,1.374,1.366,1.366,0,0,1,0,.143,2.483,2.483,0,0,1-.828,1.714h0a.571.571,0,0,0,.147.722c.95.28,2.017.8,2.017,1.346Z"/><path class="a" d="M45.007,141.436c0,.714-1.537.876-2.979.876s-3-.162-3-.876v-.2c0-.524,1.062-1.056,1.968-1.346a.566.566,0,0,0,.2-.718,2.442,2.442,0,0,1-.8-1.718,1.457,1.457,0,0,1,1.437-1.512c.059,0,.118-.006.176-.005a1.536,1.536,0,0,1,1.656,1.374,1.139,1.139,0,0,1,0,.143,2.479,2.479,0,0,1-.828,1.714h0a.573.573,0,0,0,.147.722c.95.28,2.017.8,2.017,1.346Z"/><path class="a" d="M52.367,141.436c0,.714-1.536.876-2.979.876s-3-.162-3-.876v-.2c0-.524,1.062-1.056,1.968-1.346a.565.565,0,0,0,.2-.718,2.445,2.445,0,0,1-.8-1.718,1.456,1.456,0,0,1,1.437-1.512c.058,0,.117-.006.176-.005a1.536,1.536,0,0,1,1.656,1.374,1.366,1.366,0,0,1,0,.143,2.483,2.483,0,0,1-.828,1.714h0a.571.571,0,0,0,.147.722c.95.28,2.017.8,2.017,1.346Z"/><path class="a" d="M34.66,135.108a.762.762,0,0,1-.762-.705,2.782,2.782,0,0,1,.665-1.969,2.463,2.463,0,0,1,1.879-.738h.018c1.932.01,4.992,0,4.993,0l.005,1.532s-3.069.01-5.005,0a1.061,1.061,0,0,0-.766.246,1.242,1.242,0,0,0-.261.824.77.77,0,0,1-.716.809Z"/><path class="a" d="M49.379,135.112h-.057a.766.766,0,0,1-.708-.814,1.25,1.25,0,0,0-.261-.823,1,1,0,0,0-.767-.246c-1.936.009-5,0-5,0H41.335a.766.766,0,1,1,0-1.532h1.249s3.064.011,4.994,0H47.6a2.465,2.465,0,0,1,1.881.738,2.782,2.782,0,0,1,.665,1.969A.766.766,0,0,1,49.379,135.112Z"/><path class="a" d="M42.019,135.006a.766.766,0,0,1-.766-.766v-3.371a.766.766,0,0,1,1.532,0v3.371A.766.766,0,0,1,42.019,135.006Z"/></g></svg>