<svg xmlns="http://www.w3.org/2000/svg" width="23" height="23" viewBox="0 0 23 23"><defs><style>.a{fill:#70b270;}</style></defs><g transform="translate(-33.012 -156.338)"><path class="a" d="M44.512,179.338a11.5,11.5,0,1,1,11.5-11.5A11.513,11.513,0,0,1,44.512,179.338Zm0-21.03a9.53,9.53,0,1,0,9.53,9.53A9.541,9.541,0,0,0,44.512,158.308Z"/><path class="a" d="M44.685,174.005a.987.987,0,0,1-1-.973V162.644a1,1,0,0,1,2,0v10.389A.986.986,0,0,1,44.685,174.005Z" transform="translate(-0.173 0)"/><path class="a" d="M49.706,169.011H39.318a1,1,0,0,1,0-2H49.706a1,1,0,0,1,0,2Z" transform="translate(0 -0.173)"/></g></svg>