<svg xmlns="http://www.w3.org/2000/svg" width="121.771" height="114.184" viewBox="0 0 121.771 114.184">
  <g id="Clone-Graphic" transform="translate(-371 -248.816)">
    <g id="Group_1141" data-name="Group 1141" transform="translate(381.589 251.816)" opacity="0.7">
      <path id="Path_816" data-name="Path 816" d="M389.676,334.053a43.275,43.275,0,1,1,57.26-57.235" transform="translate(-364.216 -251.339)" fill="none" stroke="#666" stroke-miterlimit="10" stroke-width="6"/>
    </g>
    <g id="Group_1144" data-name="Group 1144" transform="translate(371 273.466)">
      <ellipse id="Ellipse_391" data-name="Ellipse 391" cx="43.267" cy="43.267" rx="43.267" ry="43.267" transform="translate(32.237 0)" fill="none" stroke="#666" stroke-miterlimit="10" stroke-width="6"/>
      <g id="Group_1143" data-name="Group 1143" transform="translate(0 40.169)">
        <path id="Path_817" data-name="Path 817" d="M376.813,263.965a29.62,29.62,0,0,0-10.086,10.948,17.39,17.39,0,0,0-1.2,13.866,16.206,16.206,0,0,0,9.249,9.562,24.731,24.731,0,0,0,13.562,1.454c9.3-1.366,17.934-6.292,25.557-12.167a126.541,126.541,0,0,0,20.686-20.676l9.033,8.137a137.143,137.143,0,0,1-24.524,20.04c-9,5.572-19.139,10.194-30.224,10.723a30.005,30.005,0,0,1-16.123-3.427A20.031,20.031,0,0,1,362.6,289.64a19.687,19.687,0,0,1,2.8-15.477A30.408,30.408,0,0,1,376.813,263.965Z" transform="translate(-362.053 -263.965)" fill="#666"/>
        <g id="Group_1142" data-name="Group 1142" transform="translate(46.358 2.354)">
          <path id="Path_818" data-name="Path 818" d="M407,299.5l-5.843.1-.449-28.78-28.674,2.553-.514-5.82,34.923-3.1Z" transform="translate(-371.522 -264.446)" fill="#666"/>
        </g>
      </g>
    </g>
  </g>
</svg>
