<svg xmlns="http://www.w3.org/2000/svg" xmlns:xlink="http://www.w3.org/1999/xlink" width="330" height="322" viewBox="0 0 330 322"><defs><style>.a{fill:none;}.ae,.af,.ag,.ah,.b{opacity:0.5;}.c{fill:url(#a);}.d{fill:#f2f2f2;}.e{fill:#e0e0e0;}.ad,.ag,.f,.k{fill:#4273b2;}.f,.q{opacity:0.7;}.aa,.ac,.ad,.ae,.af,.ag,.ah,.f,.q,.x,.z{isolation:isolate;}.g{fill:url(#b);}.h{fill:#f5f5f5;}.i{fill:url(#c);}.j,.x{fill:#fff;}.l{fill:url(#d);}.m{fill:url(#e);}.n{clip-path:url(#f);}.o{fill:#e5e5e5;}.p{fill:url(#g);}.q{fill:#62d562;}.r{fill:url(#i);}.af,.s{fill:#90e190;}.t{fill:#2f7ff4;}.u{fill:#ededed;}.aa,.v{fill:#b2b2b2;}.w{fill:#3178e0;}.x{opacity:0.097;}.y{fill:#2a4c77;}.z{fill:url(#j);}.aa{opacity:0.213;}.ab{fill:#bcbcbc;}.ac{fill:#47a3f5;}.ac,.ad{opacity:0.64;}.ae{fill:#4d8af0;}.ah{fill:#93accb;}.ai{opacity:0.105;fill:url(#k);}</style><linearGradient id="a" x1="-0.851" y1="1.124" x2="-0.851" y2="1.123" gradientUnits="objectBoundingBox"><stop offset="0" stop-color="gray" stop-opacity="0.251"/><stop offset="0.54" stop-color="gray" stop-opacity="0.122"/><stop offset="1" stop-color="gray" stop-opacity="0.102"/></linearGradient><linearGradient id="b" x1="-2.66" y1="3.467" x2="-2.66" y2="3.461" xlink:href="#a"/><linearGradient id="c" x1="-2.943" y1="5.428" x2="-2.943" y2="5.419" xlink:href="#a"/><linearGradient id="d" x1="-2.66" y1="2.199" x2="-2.66" y2="2.193" xlink:href="#a"/><linearGradient id="e" x1="-2.943" y1="3.409" x2="-2.943" y2="3.4" xlink:href="#a"/><clipPath id="f"><rect class="a" width="63.529" height="42.825"/></clipPath><linearGradient id="g" x1="-0.705" y1="1.321" x2="-0.705" y2="1.318" xlink:href="#a"/><linearGradient id="i" x1="-4.07" y1="1.829" x2="-4.07" y2="1.827" xlink:href="#a"/><linearGradient id="j" x1="-4.867" y1="1.149" x2="-4.87" y2="1.149" gradientUnits="objectBoundingBox"><stop offset="0" stop-color="#fff" stop-opacity="0"/><stop offset="1" stop-color="#fff8f8"/></linearGradient><linearGradient id="k" x1="0.687" y1="1.01" x2="0.305" y2="1" xlink:href="#j"/></defs><g transform="translate(-549.012 -356.685)"><g transform="translate(549.012 356.685)"><g transform="translate(0 0)"><g transform="translate(38.227 12.915)"><g class="b" transform="translate(0 13.307)"><rect class="c" width="198.135" height="266.716" transform="translate(0 0)"/></g><rect class="d" width="191.942" height="257.427" transform="translate(2.582 16.918)"/><rect class="e" width="66.043" height="2.063" transform="translate(17.544 27.755)"/><rect class="f" width="66.043" height="2.063" transform="translate(17.544 37.04)"/><rect class="e" width="66.043" height="2.063" transform="translate(92.721 27.755)"/><rect class="e" width="66.043" height="2.063" transform="translate(102.966 86.711)"/><rect class="e" width="66.043" height="2.063" transform="translate(104.503 92.394)"/><rect class="e" width="66.043" height="2.063" transform="translate(107.577 98.076)"/><rect class="e" width="66.043" height="2.063" transform="translate(105.478 167.615)"/><rect class="e" width="66.043" height="2.063" transform="translate(107.015 173.301)"/><rect class="e" width="66.043" height="2.063" transform="translate(110.09 178.984)"/><g class="b" transform="translate(18.059 65.552)"><rect class="g" width="70.173" height="71.203"/></g><rect class="h" width="69.064" height="68.106" transform="translate(18.502 67.102)"/><g class="b" transform="translate(20.936 71.223)"><rect class="i" width="64.415" height="44.373"/></g><path class="j" d="M227.838,196.933h63.529v42.825H227.838Z" transform="translate(-206.459 -125.195)"/><path class="k" d="M241.219,242.151v7.222h42.992V235.732L271.4,225.014l-15.915,14.42-5.168-5.261Z" transform="translate(-214.195 -141.419)"/><g class="b" transform="translate(18.059 157.06)"><rect class="l" width="70.173" height="71.203"/></g><rect class="h" width="69.064" height="68.106" transform="translate(18.502 158.607)"/><g class="b" transform="translate(20.936 162.716)"><rect class="m" width="64.415" height="44.373"/></g><rect class="j" width="63.529" height="42.825" transform="translate(21.379 163.23)"/><g transform="translate(21.379 163.23)"><g class="n"><g transform="translate(5.645 6.186)"><path class="o" d="M241.219,461.15v7.222h42.992V454.731L271.4,444.013l-15.915,14.42-5.168-5.261Z" transform="translate(-241.219 -437.299)"/><path class="o" d="M246.694,428.1h0a5.357,5.357,0,0,1,5.357,5.357h0a5.361,5.361,0,0,1-5.357,5.357h0a5.357,5.357,0,0,1-5.357-5.357h0a5.357,5.357,0,0,1,5.357-5.357Z" transform="translate(-241.287 -428.098)"/></g></g></g><g class="b" transform="translate(28.688 0)"><path class="p" d="M.267.358l266.72-.5-.375,197.134-266.72.5Z" transform="matrix(0.195, -0.981, 0.981, 0.195, 0, 261.892)"/><path class="p" d="M.267.358l266.72-.5-.375,197.134-266.72.5Z" transform="matrix(0.195, -0.981, 0.981, 0.195, 0, 261.892)"/></g><path class="j" d="M.268.356,257.7-.145l-.376,190.939-257.429.5Z" transform="matrix(0.195, -0.981, 0.981, 0.195, 32.322, 256.828)"/><rect class="e" width="3.326" height="124.258" transform="matrix(0.195, -0.981, 0.981, 0.195, 95.804, 28.561)"/><path class="e" d="M334.128,467.364l.541-2.723,86.932,17.28-.541,2.723Z" transform="translate(-268.441 -279.797)"/><rect class="e" width="2.777" height="64.465" transform="matrix(0.195, -0.981, 0.981, 0.195, 62.656, 203.254)"/><rect class="f" width="2.777" height="39.703" transform="matrix(0.195, -0.981, 0.981, 0.195, 59.613, 218.935)"/><rect class="f" width="3.326" height="81.534" transform="matrix(0.195, -0.981, 0.981, 0.195, 92.314, 47.332)"/><rect class="e" width="3.326" height="109.382" transform="matrix(0.195, -0.981, 0.981, 0.195, 88.502, 66.195)"/><rect class="q" width="3.326" height="48.247" transform="matrix(0.195, -0.981, 0.981, 0.195, 85.012, 84.985)"/><g class="b" transform="translate(84.651 103.944)"><rect class="r" width="70.187" height="122.307" transform="matrix(0.195, -0.981, 0.981, 0.195, 0, 68.84)"/></g><rect class="j" width="66.107" height="118.653" transform="matrix(0.195, -0.981, 0.981, 0.195, 86.713, 170.848)"/><rect class="s" width="50.057" height="14.966" transform="matrix(0.195, -0.981, 0.981, 0.195, 100.148, 165.262)"/><rect class="t" width="33.543" height="14.966" transform="matrix(0.195, -0.981, 0.981, 0.195, 126.316, 170.52)"/><rect class="k" width="18.063" height="14.966" transform="matrix(0.195, -0.981, 0.981, 0.195, 152.486, 175.768)"/><rect class="t" width="36.64" height="14.966" transform="matrix(0.195, -0.981, 0.981, 0.195, 178.633, 180.994)"/><g transform="translate(153.864 192.318)"><g transform="translate(13.513)"><path class="u" d="M640.218,528.022H627v-9.873c0-8.16-2.292-21.862-17.638-21.862-15.912,0-17.633,15.293-17.633,21.862v9.871H578.495v-9.871c0-21.378,12.116-35.2,30.858-35.2s30.858,13.817,30.858,35.2Z" transform="translate(-578.073 -482.531)"/><path class="v" d="M640.061,527.865H626v-10.3c0-8.007-2.237-21.44-17.217-21.44-15.534,0-17.211,14.993-17.211,21.44v10.293H577.495V517.57c0-21.637,12.278-35.617,31.28-35.617s31.28,13.981,31.28,35.617Zm-13.222-.844h12.378l-.006-9.451c0-21.124-11.947-34.774-30.436-34.774s-30.436,13.65-30.436,34.774v9.449h12.385V517.57c0-3.662.5-8.992,2.9-13.589,3.005-5.769,8.1-8.694,15.157-8.694,6.908,0,11.935,2.72,14.942,8.086,2.577,4.6,3.118,10.259,3.118,14.2Z" transform="translate(-577.495 -481.953)"/></g><path class="e" d="M10.8,0H77.933C89.4,0,88.56,9.3,88.56,20.762V50.937C88.56,62.4,89.4,71.7,77.933,71.7H11.647C.18,71.7-.676,64.972-.676,53.505l.6-32.743C-.08,9.3-.667,0,10.8,0Z" transform="translate(0.676 44.646)"/><rect class="w" width="88.64" height="47.229" transform="translate(0.596 56.881)"/><path class="v" d="M625.01,659.331H556.224a10.361,10.361,0,0,1-10.349-10.349V597.137a10.361,10.361,0,0,1,10.349-10.349H625.01a10.361,10.361,0,0,1,10.349,10.349v51.845A10.361,10.361,0,0,1,625.01,659.331Zm-68.785-71.7a9.516,9.516,0,0,0-9.505,9.505v51.845a9.516,9.516,0,0,0,9.505,9.505H625.01a9.516,9.516,0,0,0,9.505-9.505V597.137a9.516,9.516,0,0,0-9.505-9.505Z" transform="translate(-545.701 -542.564)"/><path class="x" d="M724.207,593.062H723.2V657.3h1.006c5.12,0,9.271-4.845,9.271-10.822v-42.6C733.478,597.907,729.327,593.062,724.207,593.062Z" transform="translate(-648.223 -546.192)"/><path class="y" d="M635.7,662.889a4.266,4.266,0,1,0,8.531-.074v-9.773a8.533,8.533,0,0,0,0-14.78h0a8.533,8.533,0,0,0-8.531,14.781v9.772Q635.694,662.851,635.7,662.889Z" transform="translate(-595.163 -571.662)"/><path class="z" d="M623.021,593.062h-56.6A10.822,10.822,0,0,0,555.6,603.884v42.6A10.822,10.822,0,0,0,566.418,657.3h56.6Z" transform="translate(-551.321 -546.192)"/><rect class="aa" width="12.655" height="3.375" transform="translate(14.257 41.228)"/><rect class="aa" width="12.655" height="3.375" transform="translate(62.768 41.228)"/></g><path class="k" d="M246.694,209.1h0a5.357,5.357,0,0,1,5.357,5.357h0a5.361,5.361,0,0,1-5.357,5.357h0a5.357,5.357,0,0,1-5.357-5.357h0a5.357,5.357,0,0,1,5.357-5.357Z" transform="translate(-214.264 -132.234)"/></g><g transform="translate(15.449 66.686)"><g transform="translate(0)"><circle class="ab" cx="4.877" cy="4.877" r="4.877" transform="translate(276.456 132.669)"/><rect class="ac" width="9.891" height="10.488" transform="translate(0 82.895) rotate(-45)"/><rect class="ad" width="12" height="12.175" transform="translate(295.721 22.427) rotate(-45)"/><path class="ab" d="M142.823,162.715a4.244,4.244,0,1,1,4.244-4.244A4.249,4.249,0,0,1,142.823,162.715Zm0-7.223a2.979,2.979,0,1,0,2.979,2.979A2.982,2.982,0,0,0,142.823,155.493Z" transform="translate(-132.075 -154.227)"/></g></g><path class="ae" d="M684.9,58.314a1.972,1.972,0,0,1-1.1-2.386.978.978,0,0,0,.042-.22h0a.988.988,0,0,0-1.757-.654h0a.95.95,0,0,0-.11.193,1.973,1.973,0,0,1-2.385,1.1.93.93,0,0,0-.22-.042h0a.988.988,0,0,0-.655,1.757h0a.959.959,0,0,0,.193.11,1.973,1.973,0,0,1,1.1,2.386.952.952,0,0,0-.042.22h0a.988.988,0,0,0,1.757.655h0a.97.97,0,0,0,.11-.193,1.972,1.972,0,0,1,2.385-1.1.928.928,0,0,0,.22.042h0a.988.988,0,0,0,.655-1.757h0A.952.952,0,0,0,684.9,58.314Z" transform="translate(-429.853 -30.167)"/><path class="af" d="M134.645,470.13a1.972,1.972,0,0,1-1.1-2.386.952.952,0,0,0,.042-.22h0a.988.988,0,0,0-1.757-.655h0a.931.931,0,0,0-.11.193,1.973,1.973,0,0,1-2.386,1.1.93.93,0,0,0-.22-.042h0a.988.988,0,0,0-.655,1.757h0a.958.958,0,0,0,.193.11,1.973,1.973,0,0,1,1.1,2.386.931.931,0,0,0-.042.22h0a.988.988,0,0,0,1.757.655h0a.971.971,0,0,0,.11-.193,1.972,1.972,0,0,1,2.385-1.1.972.972,0,0,0,.22.042h0a.988.988,0,0,0,.655-1.757h0A.949.949,0,0,0,134.645,470.13Z" transform="translate(-110.565 -267.962)"/><circle class="af" cx="3.225" cy="3.225" r="3.225" transform="translate(94.843 6.416)"/><circle class="ag" cx="3.225" cy="3.225" r="3.225" transform="translate(0 116.113)"/><circle class="ae" cx="3.225" cy="3.225" r="3.225" transform="translate(305.708 143.956)"/><path class="ah" d="M858.742,407.06a3.646,3.646,0,1,1,3.647-3.646A3.651,3.651,0,0,1,858.742,407.06Zm0-6.449a2.8,2.8,0,1,0,2.8,2.8A2.806,2.806,0,0,0,858.742,400.611Z" transform="translate(-532.389 -229.421)"/><circle class="ag" cx="4.912" cy="4.912" r="4.912" transform="translate(171.614)"/></g></g><path class="ai" d="M-219.03-18.168h-62.546A11.959,11.959,0,0,0-293.535-6.21V40.861A11.959,11.959,0,0,0-281.576,52.82h62.546Z" transform="translate(1040.186 622.091)"/></g></svg>