<svg xmlns="http://www.w3.org/2000/svg" width="38.021" height="38.021" viewBox="0 0 38.021 38.021"><defs><style>.a{fill:#2e7ff0;}.b{fill:#fff;}</style></defs><g transform="translate(0 -0.004)"><g transform="translate(0 0.004)"><circle class="a" cx="19.011" cy="19.011" r="19.011"/></g><g transform="translate(7.595 8.418)"><path class="b" d="M27.977,10.768a.952.952,0,0,1,.951.951V27.891H9.9V11.719a.952.952,0,0,1,.951-.951H27.977m0-1.9H10.854A2.853,2.853,0,0,0,8,11.719V29.794H30.831V11.719a2.853,2.853,0,0,0-2.854-2.854Z" transform="translate(-8 -8.865)"/><rect class="b" width="3.805" height="6.659" transform="translate(9.513 13.318)"/><rect class="b" width="3.805" height="2.854" transform="translate(9.513 8.561)"/><rect class="b" width="3.805" height="2.854" transform="translate(15.221 8.561)"/><rect class="b" width="3.805" height="2.854" transform="translate(3.805 8.561)"/><rect class="b" width="3.805" height="2.854" transform="translate(9.513 3.805)"/><rect class="b" width="3.805" height="2.854" transform="translate(15.221 3.805)"/><rect class="b" width="3.805" height="2.854" transform="translate(3.805 3.805)"/><rect class="b" width="3.805" height="2.854" transform="translate(15.221 13.318)"/><rect class="b" width="3.805" height="2.854" transform="translate(3.805 13.318)"/></g></g></svg>