<svg xmlns="http://www.w3.org/2000/svg" width="37.642" height="30.073" viewBox="0 0 37.642 30.073">
  <g id="Filter-All-icon" transform="translate(-6586.408 -3545.297)" fill="#335ca5">
    <path d="M 6605.26220703125 3574.3701171875 L 6605.22802734375 3574.3701171875 L 6605.19580078125 3574.3701171875 C 6605.1220703125 3574.3701171875 6605.04833984375 3574.36962890625 6604.974609375 3574.368896484375 C 6604.9248046875 3574.368408203125 6604.87548828125 3574.3681640625 6604.82568359375 3574.367919921875 C 6604.82470703125 3574.367919921875 6604.82421875 3574.367919921875 6604.82373046875 3574.367919921875 C 6604.79931640625 3574.367919921875 6604.771484375 3574.36767578125 6604.744140625 3574.3671875 C 6601.943359375 3574.34375 6599.29345703125 3574.09814453125 6596.86767578125 3573.636962890625 L 6596.86767578125 3573.6318359375 C 6594.19287109375 3573.122802734375 6591.88134765625 3572.368896484375 6590.181640625 3571.450927734375 C 6588.36767578125 3570.470947265625 6587.40869140625 3569.374755859375 6587.40869140625 3568.2802734375 L 6587.40869140625 3566.5791015625 L 6587.408203125 3564.872802734375 C 6587.408203125 3563.9423828125 6587.96630859375 3563.0458984375 6589.06640625 3562.208251953125 C 6590.05224609375 3561.45751953125 6591.2470703125 3560.91796875 6592.0771484375 3560.59716796875 C 6592.22705078125 3560.537841796875 6592.361328125 3560.486572265625 6592.48779296875 3560.44091796875 C 6592.4853515625 3560.39453125 6592.47705078125 3560.33056640625 6592.4580078125 3560.246826171875 C 6591.283203125 3558.903076171875 6590.56201171875 3557.00732421875 6590.56201171875 3555.230712890625 C 6590.56201171875 3553.72216796875 6591.04443359375 3552.44287109375 6591.95703125 3551.531494140625 C 6592.8037109375 3550.685791015625 6593.97412109375 3550.219970703125 6595.25244140625 3550.219970703125 L 6595.25927734375 3550.219970703125 L 6595.26611328125 3550.219970703125 C 6596.544921875 3550.219970703125 6597.71484375 3550.68603515625 6598.56005859375 3551.532470703125 C 6599.46923828125 3552.443359375 6599.94970703125 3553.72216796875 6599.94970703125 3555.230712890625 C 6599.94970703125 3557.0302734375 6599.220703125 3558.942138671875 6598.03466796875 3560.28271484375 C 6598.01708984375 3560.370361328125 6598.02587890625 3560.409423828125 6598.0263671875 3560.409912109375 L 6598.1337890625 3560.734130859375 C 6598.72119140625 3560.329833984375 6599.33447265625 3559.992919921875 6599.861328125 3559.7333984375 C 6600.52392578125 3559.394287109375 6601.25048828125 3559.074951171875 6601.9658203125 3558.808349609375 C 6601.986328125 3558.79541015625 6602.02294921875 3558.7666015625 6602.0458984375 3558.716064453125 C 6602.04736328125 3558.623779296875 6602.03466796875 3558.492431640625 6601.9892578125 3558.3115234375 C 6600.5546875 3556.694091796875 6599.671875 3554.3935546875 6599.671875 3552.2392578125 C 6599.671875 3550.44287109375 6600.2431640625 3548.92333984375 6601.3232421875 3547.8447265625 C 6602.3232421875 3546.8466796875 6603.70751953125 3546.296875 6605.22119140625 3546.296875 L 6605.23876953125 3546.296875 L 6605.23876953125 3546.296875 C 6606.75146484375 3546.29736328125 6608.13525390625 3546.846923828125 6609.13427734375 3547.8447265625 C 6610.21435546875 3548.92333984375 6610.78515625 3550.44287109375 6610.78515625 3552.2392578125 C 6610.78515625 3554.395263671875 6609.90283203125 3556.695556640625 6608.46826171875 3558.311279296875 C 6608.421875 3558.49853515625 6608.4111328125 3558.630615234375 6608.412109375 3558.71630859375 C 6608.43505859375 3558.766845703125 6608.4716796875 3558.79541015625 6608.4921875 3558.80859375 C 6609.20263671875 3559.0732421875 6609.92919921875 3559.392333984375 6610.5966796875 3559.73291015625 C 6611.123046875 3559.992431640625 6611.7353515625 3560.329345703125 6612.32275390625 3560.733154296875 L 6612.43310546875 3560.4052734375 C 6612.43603515625 3560.392822265625 6612.43701171875 3560.35205078125 6612.4228515625 3560.28271484375 C 6611.23681640625 3558.941162109375 6610.5078125 3557.029296875 6610.5078125 3555.230712890625 C 6610.5078125 3553.721923828125 6610.98828125 3552.443115234375 6611.8974609375 3551.532470703125 C 6612.74267578125 3550.68603515625 6613.91259765625 3550.219970703125 6615.19189453125 3550.219970703125 L 6615.1982421875 3550.219970703125 L 6615.2041015625 3550.219970703125 C 6616.48291015625 3550.219970703125 6617.65380859375 3550.685791015625 6618.5009765625 3551.53125 C 6619.4140625 3552.44287109375 6619.896484375 3553.72216796875 6619.896484375 3555.230712890625 C 6619.896484375 3557.0068359375 6619.1748046875 3558.903564453125 6617.9990234375 3560.248291015625 C 6617.97998046875 3560.33154296875 6617.97216796875 3560.394775390625 6617.9697265625 3560.44091796875 C 6618.1005859375 3560.488525390625 6618.236328125 3560.539794921875 6618.3798828125 3560.5966796875 C 6619.21044921875 3560.91748046875 6620.4052734375 3561.457275390625 6621.3916015625 3562.208251953125 C 6622.4921875 3563.0458984375 6623.0498046875 3563.9423828125 6623.0498046875 3564.872802734375 C 6623.0498046875 3565.06005859375 6623.04931640625 3565.81982421875 6623.04931640625 3566.5791015625 C 6623.048828125 3567.3369140625 6623.048828125 3568.093994140625 6623.048828125 3568.2802734375 C 6623.048828125 3569.37451171875 6622.08984375 3570.470947265625 6620.27587890625 3571.450927734375 C 6618.576171875 3572.368896484375 6616.2646484375 3573.122802734375 6613.59033203125 3573.6318359375 L 6613.59033203125 3573.636962890625 C 6611.166015625 3574.09814453125 6608.51611328125 3574.34375 6605.71435546875 3574.3671875 C 6605.6845703125 3574.367919921875 6605.65576171875 3574.367919921875 6605.62744140625 3574.367919921875 C 6605.58251953125 3574.3681640625 6605.53369140625 3574.368408203125 6605.48486328125 3574.368896484375 C 6605.41064453125 3574.36962890625 6605.3369140625 3574.3701171875 6605.26220703125 3574.3701171875 Z" stroke="none"/>
    <path d="M 6605.26220703125 3573.3701171875 C 6605.384765625 3573.3701171875 6605.50634765625 3573.368408203125 6605.62744140625 3573.367919921875 C 6605.64990234375 3573.367919921875 6605.6728515625 3573.367919921875 6605.6962890625 3573.3671875 C 6608.62841796875 3573.34326171875 6611.20849609375 3573.072021484375 6613.4033203125 3572.654541015625 C 6613.39794921875 3572.653564453125 6613.39208984375 3572.65283203125 6613.38671875 3572.652587890625 C 6618.94091796875 3571.598388671875 6622.048828125 3569.61328125 6622.048828125 3568.2802734375 C 6622.048828125 3567.907470703125 6622.0498046875 3565.246826171875 6622.0498046875 3564.872802734375 C 6622.0498046875 3563.572998046875 6620.02392578125 3562.303466796875 6618.01611328125 3561.528076171875 C 6617.8203125 3561.45068359375 6617.62451171875 3561.37744140625 6617.43115234375 3561.3115234375 C 6617.3330078125 3561.278564453125 6616.70263671875 3560.990234375 6617.09716796875 3559.76123046875 L 6617.09033203125 3559.76123046875 C 6618.11376953125 3558.682861328125 6618.896484375 3556.94384765625 6618.896484375 3555.230712890625 C 6618.896484375 3552.6005859375 6617.18798828125 3551.219970703125 6615.2041015625 3551.219970703125 L 6615.1982421875 3551.219970703125 L 6615.19189453125 3551.219970703125 C 6613.20654296875 3551.219970703125 6611.5078125 3552.6005859375 6611.5078125 3555.230712890625 C 6611.5078125 3556.94921875 6612.28759765625 3558.6982421875 6613.31298828125 3559.77392578125 C 6613.4638671875 3560.180908203125 6613.45849609375 3560.492431640625 6613.380859375 3560.7236328125 C 6614.44482421875 3561.6435546875 6615.98193359375 3563.548583984375 6615.45556640625 3567.17529296875 C 6614.94580078125 3565.5498046875 6614.19140625 3564.072021484375 6613.25 3562.94873046875 C 6613.2529296875 3562.9482421875 6613.255859375 3562.9482421875 6613.25830078125 3562.947509765625 C 6613.24609375 3562.93212890625 6613.23486328125 3562.915771484375 6613.2216796875 3562.900390625 C 6612.60888671875 3562.05712890625 6611.44921875 3561.267822265625 6610.1484375 3560.626953125 C 6609.47998046875 3560.285400390625 6608.78076171875 3559.981689453125 6608.109375 3559.733154296875 C 6607.98583984375 3559.685791015625 6607.54736328125 3559.4462890625 6607.42138671875 3558.892578125 C 6607.392578125 3558.6240234375 6607.42431640625 3558.276123046875 6607.568359375 3557.822265625 L 6607.56005859375 3557.822265625 C 6608.82373046875 3556.4931640625 6609.78515625 3554.349853515625 6609.78515625 3552.2392578125 C 6609.78515625 3548.99755859375 6607.68115234375 3547.296875 6605.23681640625 3547.296875 L 6605.22802734375 3547.297119140625 L 6605.22119140625 3547.296875 C 6602.77685546875 3547.296875 6600.671875 3548.99755859375 6600.671875 3552.2392578125 C 6600.671875 3554.349853515625 6601.63525390625 3556.4931640625 6602.8974609375 3557.822265625 L 6602.888671875 3557.822265625 C 6603.0341796875 3558.276123046875 6603.06494140625 3558.6240234375 6603.0361328125 3558.892578125 C 6602.91064453125 3559.4462890625 6602.4716796875 3559.685791015625 6602.34765625 3559.733154296875 C 6601.67724609375 3559.981689453125 6600.97705078125 3560.285400390625 6600.31005859375 3560.626953125 C 6599.0078125 3561.267822265625 6597.8486328125 3562.05712890625 6597.23681640625 3562.900390625 C 6597.22314453125 3562.915771484375 6597.21142578125 3562.93212890625 6597.1982421875 3562.947509765625 C 6597.20166015625 3562.9482421875 6597.20458984375 3562.9482421875 6597.2080078125 3562.94873046875 C 6596.26611328125 3564.072021484375 6595.51220703125 3565.5498046875 6595.00146484375 3567.17529296875 C 6594.47607421875 3563.548583984375 6596.01123046875 3561.6435546875 6597.07666015625 3560.7236328125 C 6597 3560.492431640625 6596.99365234375 3560.180908203125 6597.14453125 3559.77392578125 C 6598.1708984375 3558.6982421875 6598.94970703125 3556.94921875 6598.94970703125 3555.230712890625 C 6598.94970703125 3552.6005859375 6597.2509765625 3551.219970703125 6595.26611328125 3551.219970703125 L 6595.25927734375 3551.219970703125 L 6595.25244140625 3551.219970703125 C 6593.26953125 3551.219970703125 6591.56201171875 3552.6005859375 6591.56201171875 3555.230712890625 C 6591.56201171875 3556.94384765625 6592.34375 3558.682861328125 6593.3681640625 3559.76123046875 L 6593.3603515625 3559.76123046875 C 6593.75439453125 3560.990234375 6593.12548828125 3561.278564453125 6593.02685546875 3561.3115234375 C 6592.83154296875 3561.37744140625 6592.6376953125 3561.45068359375 6592.4423828125 3561.528076171875 C 6590.43408203125 3562.303466796875 6588.408203125 3563.572998046875 6588.408203125 3564.872802734375 C 6588.408203125 3565.246826171875 6588.40869140625 3567.907470703125 6588.40869140625 3568.2802734375 C 6588.40869140625 3569.61328125 6591.5166015625 3571.598388671875 6597.0712890625 3572.652587890625 C 6597.0654296875 3572.65283203125 6597.0595703125 3572.653564453125 6597.05419921875 3572.654541015625 C 6599.25048828125 3573.072021484375 6601.8291015625 3573.34326171875 6604.76220703125 3573.3671875 C 6604.7841796875 3573.367919921875 6604.8076171875 3573.367919921875 6604.82958984375 3573.367919921875 C 6604.9521484375 3573.368408203125 6605.07373046875 3573.3701171875 6605.19580078125 3573.3701171875 C 6605.20703125 3573.3701171875 6605.21728515625 3573.3701171875 6605.22802734375 3573.3701171875 C 6605.23974609375 3573.3701171875 6605.25048828125 3573.3701171875 6605.26220703125 3573.3701171875 M 6605.26220703125 3575.3701171875 L 6605.22802734375 3575.3701171875 L 6605.19580078125 3575.3701171875 C 6605.119140625 3575.3701171875 6605.04296875 3575.36962890625 6604.96630859375 3575.368896484375 C 6604.91943359375 3575.368408203125 6604.87255859375 3575.3681640625 6604.82568359375 3575.367919921875 C 6604.7939453125 3575.367919921875 6604.7607421875 3575.36767578125 6604.728515625 3575.366943359375 C 6601.87060546875 3575.3427734375 6599.1630859375 3575.09130859375 6596.6806640625 3574.619384765625 L 6596.6806640625 3574.6142578125 C 6593.90673828125 3574.086181640625 6591.4951171875 3573.296875 6589.70654296875 3572.330810546875 C 6587.51806640625 3571.148681640625 6586.40869140625 3569.7861328125 6586.40869140625 3568.2802734375 L 6586.40869140625 3566.5791015625 L 6586.408203125 3564.872802734375 C 6586.408203125 3563.61376953125 6587.0986328125 3562.449462890625 6588.46044921875 3561.41259765625 C 6589.2744140625 3560.79296875 6590.2060546875 3560.3095703125 6590.99658203125 3559.96142578125 C 6590.09326171875 3558.5625 6589.56201171875 3556.8525390625 6589.56201171875 3555.230712890625 C 6589.56201171875 3553.450927734375 6590.14599609375 3551.927001953125 6591.25048828125 3550.823974609375 C 6592.2861328125 3549.78955078125 6593.70703125 3549.219970703125 6595.25244140625 3549.219970703125 L 6595.25927734375 3549.219970703125 L 6595.26611328125 3549.219970703125 C 6596.61572265625 3549.219970703125 6597.86962890625 3549.654296875 6598.85400390625 3550.453125 C 6599.13330078125 3549.150390625 6599.72900390625 3548.0234375 6600.61669921875 3547.136962890625 C 6601.802734375 3545.953125 6603.43310546875 3545.2998046875 6605.208984375 3545.296875 L 6605.20947265625 3545.296875 L 6605.22119140625 3545.296875 L 6605.25634765625 3545.296875 L 6605.25732421875 3545.296875 C 6607.02978515625 3545.3017578125 6608.65673828125 3545.954833984375 6609.8408203125 3547.13720703125 C 6610.728515625 3548.023681640625 6611.32421875 3549.150634765625 6611.60302734375 3550.453369140625 C 6612.587890625 3549.654296875 6613.84228515625 3549.219970703125 6615.19189453125 3549.219970703125 L 6615.1982421875 3549.219970703125 L 6615.2041015625 3549.219970703125 C 6616.74951171875 3549.219970703125 6618.17138671875 3549.78955078125 6619.20703125 3550.823486328125 C 6620.3125 3551.9267578125 6620.896484375 3553.45068359375 6620.896484375 3555.230712890625 C 6620.896484375 3556.851806640625 6620.365234375 3558.561767578125 6619.46142578125 3559.961181640625 C 6621.4375 3560.82958984375 6624.0498046875 3562.438232421875 6624.0498046875 3564.872802734375 C 6624.0498046875 3565.06005859375 6624.04931640625 3565.820068359375 6624.04931640625 3566.57958984375 C 6624.048828125 3567.337158203125 6624.048828125 3568.093994140625 6624.048828125 3568.2802734375 C 6624.048828125 3569.785888671875 6622.939453125 3571.148681640625 6620.7509765625 3572.330810546875 C 6618.96240234375 3573.296875 6616.55126953125 3574.086181640625 6613.77685546875 3574.6142578125 L 6613.77685546875 3574.619384765625 C 6611.29638671875 3575.09130859375 6608.5888671875 3575.3427734375 6605.72998046875 3575.366943359375 C 6605.6962890625 3575.36767578125 6605.66357421875 3575.367919921875 6605.63134765625 3575.367919921875 C 6605.58544921875 3575.3681640625 6605.5390625 3575.368408203125 6605.4931640625 3575.368896484375 C 6605.41650390625 3575.369384765625 6605.33935546875 3575.3701171875 6605.26220703125 3575.3701171875 Z M 6609.79443359375 3558.253662109375 C 6609.90869140625 3558.302734375 6610.0224609375 3558.3525390625 6610.13525390625 3558.403564453125 C 6610.08056640625 3558.265380859375 6610.029296875 3558.12646484375 6609.9814453125 3557.986083984375 C 6609.92041015625 3558.076416015625 6609.85791015625 3558.165771484375 6609.79443359375 3558.253662109375 Z M 6600.47607421875 3557.98583984375 C 6600.42822265625 3558.126220703125 6600.376953125 3558.265380859375 6600.322265625 3558.4033203125 C 6600.435546875 3558.3525390625 6600.54931640625 3558.302490234375 6600.66357421875 3558.25341796875 C 6600.599609375 3558.16552734375 6600.53759765625 3558.076171875 6600.47607421875 3557.98583984375 Z" stroke="none" fill="#fff"/>
  </g>
</svg>
