<svg xmlns="http://www.w3.org/2000/svg" width="96" height="96" viewBox="0 0 96 96">
  <g id="External-Sharing-Graphic" transform="translate(-2706.684 -2740.684)">
    <g id="Group_10173" data-name="Group 10173" transform="translate(2707 2741)">
      <circle id="Ellipse_683" data-name="Ellipse 683" cx="48" cy="48" r="48" transform="translate(-0.316 -0.316)" fill="#cadff2" opacity="0.3"/>
      <circle id="Ellipse_684" data-name="Ellipse 684" cx="41" cy="41" r="41" transform="translate(6.684 6.684)" fill="#cadff2" opacity="0.6"/>
      <ellipse id="Ellipse_682" data-name="Ellipse 682" cx="33.5" cy="34" rx="33.5" ry="34" transform="translate(14.684 12.684)" fill="#cadff2"/>
    </g>
    <g id="Group_10172" data-name="Group 10172" transform="translate(2725.082 2760.589)">
      <circle id="Ellipse_1240" data-name="Ellipse 1240" cx="29.5" cy="29.5" r="29.5" transform="translate(-0.398 0.095)" fill="#fff"/>
      <g id="Group_10171" data-name="Group 10171" transform="translate(1.507 0.753)">
        <circle id="layer1" cx="28" cy="28" r="28" transform="translate(0.095 0.342)" fill="none"/>
        <circle id="stroke" cx="28" cy="28" r="28" transform="translate(0.095 0.342)" fill="none" stroke="#335ca5" stroke-linecap="round" stroke-linejoin="round" stroke-width="2"/>
        <ellipse id="stroke-2" data-name="stroke" cx="14.647" cy="27.402" rx="14.647" ry="27.402" transform="translate(14.056 2.036)" fill="none" stroke="#335ca5" stroke-linecap="round" stroke-linejoin="round" stroke-width="2"/>
        <path id="stroke-3" data-name="stroke" d="M5.374,40.9H54.518M4.5,18.672H54.518M29.919,2V56.768" transform="translate(-1.216 0.036)" fill="none" stroke="#335ca5" stroke-linecap="round" stroke-linejoin="round" stroke-width="2"/>
      </g>
    </g>
    <g id="Group_10179" data-name="Group 10179" transform="translate(2768.78 2802.78)">
      <rect id="Rectangle_3416" data-name="Rectangle 3416" width="29" height="27" transform="translate(-0.096 -0.096)" fill="#2f7ff4"/>
      <path id="layer1-2" data-name="layer1" d="M19.18,15.664A3.441,3.441,0,0,0,16.7,16.731l-.138-.069-7.6-3.819-.138-.069a3.2,3.2,0,0,0,0-1.135l.138-.069,7.6-3.751L16.7,7.75a3.51,3.51,0,1,0-.895-1.824L15.67,6,8.031,9.746l-.138.069a3.441,3.441,0,1,0,0,4.748l.138.069,7.6,3.854.138.069a3.441,3.441,0,1,0,3.406-2.89Z" transform="translate(2.367 1.456)" fill="#fff"/>
    </g>
  </g>
</svg>
