<svg xmlns="http://www.w3.org/2000/svg" xmlns:xlink="http://www.w3.org/1999/xlink" width="142" height="142" viewBox="0 0 142 142"><defs><style>.a,.b,.c,.h{fill:#cadff2;}.a{opacity:0.3;}.b{opacity:0.6;}.d{fill:#2f7ff4;}.e{opacity:0.2;}.f,.i{fill:none;stroke-width:2px;}.f,.k{stroke:#fff;}.f,.i,.k,.l,.m{stroke-linecap:round;stroke-linejoin:round;}.g,.k,.m{fill:#fff;}.h{opacity:0.8;}.i,.l,.m{stroke:#335ca5;}.j,.l{fill:#335ca5;}.k,.l,.m{stroke-miterlimit:10;}.k{stroke-width:8px;}.l,.m{stroke-width:3px;}.n{filter:url(#a);}</style><filter id="a" x="19" y="24" width="100" height="100" filterUnits="userSpaceOnUse"><feOffset dx="-2" dy="3" input="SourceAlpha"/><feGaussianBlur stdDeviation="2" result="b"/><feFlood flood-opacity="0.302"/><feComposite operator="in" in2="b"/><feComposite in="SourceGraphic"/></filter></defs><g transform="translate(495 -4621)"><g transform="translate(500 20)"><circle class="a" cx="71" cy="71" r="71" transform="translate(-995 4601)"/><circle class="b" cx="61" cy="61" r="61" transform="translate(-985 4611)"/><circle class="c" cx="51" cy="51" r="51" transform="translate(-975 4621)"/></g><g transform="translate(-398 4631)"><path class="d" d="M2,2H34.283V34.283H2Z" transform="translate(-2 -2)"/><path class="e" d="M25.533,26.375v1.614h3.228v-5.38H27.147v3.766Zm9.147,8.609V36.6h3.228v-5.38H36.293v3.766ZM18,17.766V19.38h3.228V14H19.614v3.766Z" transform="translate(-9.391 -7.543)"/><path class="f" d="M12,30.908H31.293M23.375,22.3h9.609M12,22.3H22.147m-6.3-8.609H32.984M12,13.69h2.614m7.533,5.918h1.228v5.38H22.147Zm9.147,8.609h1.228V33.6H31.293ZM14.614,11h1.228v5.38H14.614Z" transform="translate(-6.62 -6.158)"/></g><g class="n" transform="matrix(1, 0, 0, 1, -495, 4621)"><circle class="g" cx="44" cy="44" r="44" transform="translate(27 27)"/></g><g transform="translate(-466.702 4649.298)"><circle class="g" cx="43" cy="43" r="43" transform="translate(-0.298 -0.298)"/><path class="h" d="M21.838,44.816C21.838,21.125,32.114,2,44.816,2a42.816,42.816,0,0,0,0,85.633C32.114,87.633,21.838,68.508,21.838,44.816Z" transform="translate(-1.52 -1.422)"/><circle class="i" cx="43" cy="43" r="43" transform="translate(-0.298 -0.298)"/><ellipse class="i" cx="22.978" cy="42.816" rx="22.978" ry="42.816" transform="translate(20.318 0.578)"/><path class="i" d="M4.5,61.943H83M4.5,27.69H83M43.748,2V87.633" transform="translate(-0.452 -1.422)"/></g><g transform="translate(0 -3)"><g transform="translate(-481 4710.011)"><path class="j" d="M38.092,6.09C37.731,3.8,29.791,2,20.046,2S2.361,3.8,2,6.09v5.534A3.2,3.2,0,0,0,3.2,13.73c.662.6,11.369,10.226,12.151,11.068a3.007,3.007,0,0,1,1.083,2.226v9.444c0,1.083.662,2.105,2.406,1.323s4.812-3.248,4.812-4.692V27.084A3.284,3.284,0,0,1,24.2,24.8L36.889,13.429a2.948,2.948,0,0,0,1.2-2.105Z"/><path class="j" d="M20.046,2C10.061,2,2,3.865,2,6.211v5.534A3.2,3.2,0,0,0,3.2,13.85c.662.6,11.369,10.226,12.151,11.068A3.123,3.123,0,0,1,16.437,27.2v9.444c0,1.083.662,2.105,2.406,1.323l1.2-.662V26.182L10.422,14.753V9.76a67.192,67.192,0,0,0,9.625.662c9.986,0,18.046-1.865,18.046-4.211S30.032,2,20.046,2Z"/><path class="k" d="M2,8.8v5.534A3.2,3.2,0,0,0,3.2,16.44c.662.6,11.369,10.226,12.151,11.068a3.007,3.007,0,0,1,1.083,2.226v9.444c0,1.083.662,2.105,2.406,1.323s4.812-3.248,4.812-4.692V29.794a3.284,3.284,0,0,1,.541-2.286L36.889,16.139a2.948,2.948,0,0,0,1.2-2.105V8.8" transform="translate(0 -2.71)"/><ellipse class="k" cx="18" cy="4" rx="18" ry="4" transform="translate(2 1.99)"/></g><g transform="translate(-481 4710.011)"><path class="j" d="M38.092,6.09C37.731,3.8,29.791,2,20.046,2S2.361,3.8,2,6.09v5.534A3.2,3.2,0,0,0,3.2,13.73c.662.6,11.369,10.226,12.151,11.068a3.007,3.007,0,0,1,1.083,2.226v9.444c0,1.083.662,2.105,2.406,1.323s4.812-3.248,4.812-4.692V27.084A3.284,3.284,0,0,1,24.2,24.8L36.889,13.429a2.948,2.948,0,0,0,1.2-2.105Z"/><path class="j" d="M20.046,2C10.061,2,2,3.865,2,6.211v5.534A3.2,3.2,0,0,0,3.2,13.85c.662.6,11.369,10.226,12.151,11.068A3.123,3.123,0,0,1,16.437,27.2v9.444c0,1.083.662,2.105,2.406,1.323l1.2-.662V26.182L10.422,14.753V9.76a67.192,67.192,0,0,0,9.625.662c9.986,0,18.046-1.865,18.046-4.211S30.032,2,20.046,2Z"/><path class="l" d="M2,8.8v5.534A3.2,3.2,0,0,0,3.2,16.44c.662.6,11.369,10.226,12.151,11.068a3.007,3.007,0,0,1,1.083,2.226v9.444c0,1.083.662,2.105,2.406,1.323s4.812-3.248,4.812-4.692V29.794a3.284,3.284,0,0,1,.541-2.286L36.889,16.139a2.948,2.948,0,0,0,1.2-2.105V8.8" transform="translate(0 -2.71)"/><ellipse class="m" cx="18" cy="4" rx="18" ry="4" transform="translate(2 1.99)"/></g></g></g></svg>