<svg xmlns="http://www.w3.org/2000/svg" width="29.168" height="26.158" viewBox="0 0 29.168 26.158"><defs><style>.a{fill:#666667;}</style></defs><g transform="translate(158.219 -1876.902)"><path d="M-141.261,1877.787v-.275a.611.611,0,0,0-.611-.61.61.61,0,0,0-.61.61v18.316a.61.61,0,0,0,.61.611.611.611,0,0,0,.611-.611v-7.6l12.21-5.22Z"/><path class="a" d="M-136.24,1888.256l-1.25.534a9.889,9.889,0,0,1,.45,2.318h-2.221v1.351h2.221a9.855,9.855,0,0,1-1.834,5.11c-.119-.068-.236-.136-.353-.2-.136-.079-.268-.15-.4-.226a2.61,2.61,0,0,1-1,.97c.3.16.6.325.887.507a9.956,9.956,0,0,1-4.524,2.732,16.892,16.892,0,0,0,1.969-2.951,2.579,2.579,0,0,1-1.229-.564,15.978,15.978,0,0,1-2.749,3.747v-5.035a13.312,13.312,0,0,1,1.985.265,2.6,2.6,0,0,1-.194-.981v-.434a15.064,15.064,0,0,0-1.789-.193v-2.742h1.789v-1.353h-1.789v-2.415a14.938,14.938,0,0,0,1.789-.2v-1.363a13.741,13.741,0,0,1-1.789.218v-5.329a15.951,15.951,0,0,1,1.789,2.154v-3.384a10.945,10.945,0,0,0-3.091-.255,10.967,10.967,0,0,0-6.445,2.484,11.168,11.168,0,0,0-3.842,5.965,10.781,10.781,0,0,0-.344,2.354.653.653,0,0,1-.008.076l-.007.068v.619l.034.47A10.988,10.988,0,0,0-155.6,1899a11.056,11.056,0,0,0,5.372,3.57,10.907,10.907,0,0,0,2.885.48c.03,0,.059.007.111.014h.575l.48-.037a10.693,10.693,0,0,0,4.305-1.179,11.117,11.117,0,0,0,5.873-7.381,10.633,10.633,0,0,0,.287-3.588A11.047,11.047,0,0,0-136.24,1888.256Zm-13.235-6.079a16.845,16.845,0,0,0-2.559,4.192,13.419,13.419,0,0,1-2.309-1.216A9.923,9.923,0,0,1-149.475,1882.177Zm-5.695,4.037a14.97,14.97,0,0,0,2.675,1.415,13.989,13.989,0,0,0-.626,3.479h-3.734A9.893,9.893,0,0,1-155.17,1886.214Zm.474,11.164c-.107.062-.214.125-.322.186a9.9,9.9,0,0,1-1.832-5.1h3.729a13.971,13.971,0,0,0,.723,3.748l-.34.155c-.331.151-.672.306-1,.475S-154.385,1897.2-154.7,1897.378Zm.546,1.245a12.693,12.693,0,0,1,2.244-1.148,17.279,17.279,0,0,0,2.438,3.913A9.82,9.82,0,0,1-154.15,1898.623Zm6.52,2.812a16.144,16.144,0,0,1-3.008-4.4,13.427,13.427,0,0,1,3.008-.5Zm0-6.234a14.939,14.939,0,0,0-3.5.588,12.516,12.516,0,0,1-.653-3.33h4.155Zm0-4.094h-4.156a12.476,12.476,0,0,1,.55-3.034,14.966,14.966,0,0,0,3.606.618Zm0-3.753a13.389,13.389,0,0,1-3.146-.536,15.953,15.953,0,0,1,3.146-4.714Z"/></g></svg>