<svg xmlns="http://www.w3.org/2000/svg" xmlns:xlink="http://www.w3.org/1999/xlink" width="319.094" height="324" viewBox="0 0 319.094 324"><defs><style>.a,.b,.c{fill:#cadff2;}.a{opacity:0.3;}.b{opacity:0.6;}.d,.i,.k,.s,.u{fill:#fff;}.e,.g,.o,.p,.r{fill:none;}.e,.j,.k,.r{stroke:#335ca5;}.e,.i,.j,.k,.o,.p{stroke-linecap:round;stroke-linejoin:round;}.e,.i,.j,.k{stroke-miterlimit:10;}.e,.j,.k,.o,.r{stroke-width:3px;}.f{fill:#62d562;}.g,.i,.o,.p{stroke:#fff;}.g{stroke-width:12px;}.h,.j,.l{fill:#335ca5;}.i{stroke-width:10px;}.m{fill:#2f7ff4;}.n{opacity:0.15;}.p{stroke-width:5px;}.q{fill:#9a9a9a;}.t,.u{stroke:none;}.v{filter:url(#e);}.w{filter:url(#c);}.x{filter:url(#a);}</style><filter id="a" x="103" y="105.959" width="92.137" height="91.669" filterUnits="userSpaceOnUse"><feOffset dx="-2" dy="3" input="SourceAlpha"/><feGaussianBlur stdDeviation="2" result="b"/><feFlood flood-opacity="0.302"/><feComposite operator="in" in2="b"/><feComposite in="SourceGraphic"/></filter><filter id="c" x="90" y="201" width="123" height="123" filterUnits="userSpaceOnUse"><feOffset dy="6" input="SourceAlpha"/><feGaussianBlur stdDeviation="6" result="d"/><feFlood flood-opacity="0.302"/><feComposite operator="in" in2="d"/><feComposite in="SourceGraphic"/></filter><filter id="e" x="0" y="59" width="99" height="71" filterUnits="userSpaceOnUse"><feOffset dx="2" dy="3" input="SourceAlpha"/><feGaussianBlur stdDeviation="3" result="f"/><feFlood flood-opacity="0.451"/><feComposite operator="in" in2="f"/><feComposite in="SourceGraphic"/></filter></defs><g transform="translate(-313 -138)"><g transform="translate(-5091 -2132)"><circle class="a" cx="118" cy="118" r="118" transform="translate(5437 2301)"/><circle class="b" cx="102" cy="102" r="102" transform="translate(5453 2317)"/><circle class="c" cx="84.5" cy="84.5" r="84.5" transform="translate(5470 2335)"/></g><g transform="translate(422.038 245.11)"><g class="x" transform="matrix(1, 0, 0, 1, -109.04, -107.11)"><path class="d" d="M68.236,55.028A13.245,13.245,0,0,0,58.7,59.134l-.53-.265L28.9,44.167l-.53-.265a12.318,12.318,0,0,0,0-4.371l.53-.265L58.17,24.83l.53-.265a13.51,13.51,0,1,0-3.444-7.02l-.53.265-29.4,14.437-.53.265a13.245,13.245,0,1,0,0,18.278l.53.265L54.594,65.889l.53.265A13.245,13.245,0,1,0,68.236,55.028Z" transform="translate(109.04 107.11)"/></g><path class="c" d="M5.979,34.268a13.245,13.245,0,0,1,.4-3.179A13.245,13.245,0,1,0,28.1,44.069a13.245,13.245,0,0,1-22.119-9.8Zm62.25-6.622A13.245,13.245,0,0,0,81.077,17.58,13.245,13.245,0,0,1,59.355,4.6a13.245,13.245,0,0,0,8.874,23.046ZM58.958,60.758a13.245,13.245,0,0,1,.4-3.179,13.245,13.245,0,1,0,21.721,12.98,13.245,13.245,0,0,1-22.119-9.8Z" transform="translate(0.007 0.893)"/><path class="c" d="M52.544,20.985l.53-.265A13.245,13.245,0,0,1,49.63,13.7l-.53.265-8.742,4.371a13.112,13.112,0,0,0,3.179,7.285Zm-29.8,19.072a13.245,13.245,0,0,1-3.444,7.02l.53.265,5.563,2.781a13.112,13.112,0,0,0,2.781-7.417l-4.9-2.384ZM46.319,51.845a13.245,13.245,0,0,0-5.3,6.225l7.947,3.973.53.265a13.245,13.245,0,0,1,3.444-7.02l-.53-.265Z" transform="translate(5.626 3.846)"/><path class="e" d="M68.236,55.028A13.245,13.245,0,0,0,58.7,59.134l-.53-.265L28.9,44.167l-.53-.265a12.318,12.318,0,0,0,0-4.371l.53-.265L58.17,24.83l.53-.265a13.51,13.51,0,1,0-3.444-7.02l-.53.265-29.4,14.437-.53.265a13.245,13.245,0,1,0,0,18.278l.53.265L54.594,65.889l.53.265A13.245,13.245,0,1,0,68.236,55.028Z" transform="translate(0 0)"/></g><g transform="translate(-5235 -1652)"><g class="w" transform="matrix(1, 0, 0, 1, 5548, 1790)"><circle class="f" cx="43.5" cy="43.5" r="43.5" transform="translate(108 213)"/></g><path class="g" d="M561.623,425.638l17.785,17.785,28.5-38.735" transform="translate(5113.04 1620.509)"/></g><g transform="translate(917.12 -4568.805)"><g transform="translate(-479.398 4711.512)"><path class="h" d="M53.954,7.888C53.435,4.6,42,2,27.977,2S2.52,4.6,2,7.888v7.966a4.6,4.6,0,0,0,1.732,3.031c.952.866,16.366,14.72,17.491,15.933s1.559,1.992,1.559,3.2V51.616c0,1.559.952,3.031,3.464,1.9s6.927-4.676,6.927-6.754V38.108c0-1.559.173-2.684.779-3.29L52.222,18.452a4.243,4.243,0,0,0,1.732-3.031Z" transform="translate(-1.583 -1.474)"/><path class="h" d="M27.977,2C13.6,2,2,4.684,2,8.061v7.966a4.6,4.6,0,0,0,1.732,3.031c.952.866,16.366,14.72,17.491,15.933a4.5,4.5,0,0,1,1.559,3.29V51.876c0,1.559.952,3.031,3.464,1.9l1.732-.952V36.809L14.123,20.357V13.17a96.721,96.721,0,0,0,13.854.952c14.374,0,25.977-2.684,25.977-6.061S42.351,2,27.977,2Z" transform="translate(-1.583 -1.474)"/><path class="i" d="M2,8.8v7.966A4.6,4.6,0,0,0,3.732,19.8c.952.866,16.366,14.72,17.491,15.933s1.559,1.992,1.559,3.2V52.528c0,1.559.952,3.031,3.464,1.9s6.927-4.676,6.927-6.754V39.02c0-1.559.173-2.684.779-3.29L52.222,19.364a4.243,4.243,0,0,0,1.732-3.031V8.8" transform="translate(-1.583 -2.386)"/><ellipse class="i" cx="26" cy="5.5" rx="26" ry="5.5" transform="translate(0.279 0.293)"/></g><g transform="translate(-479.398 4711.512)"><path class="h" d="M53.954,7.888C53.435,4.6,42,2,27.977,2S2.52,4.6,2,7.888v7.966a4.6,4.6,0,0,0,1.732,3.031c.952.866,16.366,14.72,17.491,15.933s1.559,1.992,1.559,3.2V51.616c0,1.559.952,3.031,3.464,1.9s6.927-4.676,6.927-6.754V38.108c0-1.559.173-2.684.779-3.29L52.222,18.452a4.243,4.243,0,0,0,1.732-3.031Z" transform="translate(-1.583 -1.474)"/><path class="h" d="M27.977,2C13.6,2,2,4.684,2,8.061v7.966a4.6,4.6,0,0,0,1.732,3.031c.952.866,16.366,14.72,17.491,15.933a4.5,4.5,0,0,1,1.559,3.29V51.876c0,1.559.952,3.031,3.464,1.9l1.732-.952V36.809L14.123,20.357V13.17a96.721,96.721,0,0,0,13.854.952c14.374,0,25.977-2.684,25.977-6.061S42.351,2,27.977,2Z" transform="translate(-1.583 -1.474)"/><path class="j" d="M2,8.8v7.966A4.6,4.6,0,0,0,3.732,19.8c.952.866,16.366,14.72,17.491,15.933s1.559,1.992,1.559,3.2V52.528c0,1.559.952,3.031,3.464,1.9s6.927-4.676,6.927-6.754V39.02c0-1.559.173-2.684.779-3.29L52.222,19.364a4.243,4.243,0,0,0,1.732-3.031V8.8" transform="translate(-1.583 -2.386)"/><ellipse class="k" cx="26" cy="5.5" rx="26" ry="5.5" transform="translate(0.279 0.293)"/></g></g><g class="l" transform="translate(-6268.349 -3238.837)"><path class="t" d="M 6624.33203125 3605.37158203125 L 6624.2607421875 3605.37158203125 L 6624.1904296875 3605.37158203125 C 6624.033203125 3605.37158203125 6623.876953125 3605.370361328125 6623.72119140625 3605.368896484375 C 6623.6162109375 3605.367919921875 6623.51171875 3605.3671875 6623.4072265625 3605.36669921875 C 6623.34814453125 3605.36669921875 6623.28955078125 3605.366455078125 6623.232421875 3605.365478515625 C 6617.23974609375 3605.315673828125 6611.56689453125 3604.789794921875 6606.3701171875 3603.802734375 L 6606.3701171875 3603.79052734375 C 6599.123046875 3602.411865234375 6594.5634765625 3600.481689453125 6592.01416015625 3599.1044921875 C 6590.2490234375 3598.151123046875 6588.84326171875 3597.140625 6587.8359375 3596.101318359375 C 6586.55859375 3594.783935546875 6585.9111328125 3593.411376953125 6585.9111328125 3592.0224609375 C 6585.9111328125 3591.625732421875 6585.91015625 3590.01220703125 6585.9091796875 3588.397216796875 C 6585.908203125 3586.778564453125 6585.9072265625 3585.15869140625 6585.9072265625 3584.759765625 C 6585.9072265625 3582.65576171875 6587.14501953125 3580.646484375 6589.5869140625 3578.787109375 C 6591.7236328125 3577.16015625 6594.3046875 3575.994140625 6596.0966796875 3575.301513671875 C 6596.306640625 3575.218505859375 6596.5068359375 3575.141357421875 6596.69873046875 3575.069580078125 C 6594.17626953125 3572.14599609375 6592.630859375 3568.049560546875 6592.630859375 3564.20751953125 C 6592.630859375 3560.89208984375 6593.6962890625 3558.07568359375 6595.71240234375 3556.0625 C 6597.5869140625 3554.190673828125 6600.17431640625 3553.15966796875 6602.998046875 3553.15966796875 L 6603.0126953125 3553.15966796875 L 6603.0244140625 3553.15966796875 C 6605.85009765625 3553.15966796875 6608.43603515625 3554.19140625 6610.30712890625 3556.065185546875 C 6611.00830078125 3556.767822265625 6611.5947265625 3557.568359375 6612.06005859375 3558.454345703125 C 6612.052734375 3558.245849609375 6612.048828125 3558.038330078125 6612.048828125 3557.83154296875 C 6612.048828125 3553.90283203125 6613.30322265625 3550.573486328125 6615.67626953125 3548.203857421875 C 6617.86962890625 3546.013427734375 6620.900390625 3544.803955078125 6624.212890625 3544.79638671875 L 6624.21337890625 3544.79638671875 L 6624.244140625 3544.79638671875 L 6624.31787109375 3544.79638671875 L 6624.31884765625 3544.79638671875 C 6627.626953125 3544.805908203125 6630.654296875 3546.01513671875 6632.84619140625 3548.203857421875 C 6635.21923828125 3550.57373046875 6636.4736328125 3553.90283203125 6636.4736328125 3557.83154296875 C 6636.4736328125 3558.0380859375 6636.4697265625 3558.245849609375 6636.46240234375 3558.454345703125 C 6636.927734375 3557.568359375 6637.513671875 3556.767822265625 6638.21533203125 3556.065185546875 C 6640.0859375 3554.191650390625 6642.671875 3553.15966796875 6645.4970703125 3553.15966796875 L 6645.5107421875 3553.15966796875 L 6645.525390625 3553.15966796875 C 6648.3486328125 3553.15966796875 6650.93603515625 3554.190673828125 6652.810546875 3556.062744140625 C 6654.826171875 3558.07568359375 6655.8916015625 3560.892333984375 6655.8916015625 3564.20751953125 C 6655.8916015625 3568.049072265625 6654.345703125 3572.14501953125 6651.822265625 3575.06884765625 C 6651.822265625 3575.06884765625 6651.822265625 3575.069091796875 6651.822265625 3575.069091796875 C 6652.0166015625 3575.141845703125 6652.2177734375 3575.218994140625 6652.427734375 3575.302001953125 C 6654.21923828125 3575.99462890625 6656.798828125 3577.16064453125 6658.9345703125 3578.787353515625 C 6661.37548828125 3580.646728515625 6662.61328125 3582.656005859375 6662.61328125 3584.759765625 C 6662.61328125 3585.158447265625 6662.61328125 3586.778076171875 6662.61279296875 3588.396240234375 C 6662.61279296875 3590.011474609375 6662.6123046875 3591.62548828125 6662.6123046875 3592.0224609375 C 6662.6123046875 3593.41162109375 6661.96484375 3594.783935546875 6660.68701171875 3596.1015625 C 6659.6796875 3597.140869140625 6658.2734375 3598.151123046875 6656.50830078125 3599.1044921875 C 6653.95849609375 3600.48193359375 6649.3994140625 3602.41162109375 6642.15234375 3603.790283203125 L 6642.15234375 3603.802734375 C 6636.95556640625 3604.789794921875 6631.28271484375 3605.315673828125 6625.29052734375 3605.365478515625 C 6625.23193359375 3605.366455078125 6625.1728515625 3605.36669921875 6625.1162109375 3605.36669921875 C 6625.01123046875 3605.3671875 6624.90625 3605.367919921875 6624.80126953125 3605.368896484375 C 6624.6455078125 3605.370361328125 6624.48974609375 3605.37158203125 6624.33203125 3605.37158203125 Z M 6635.86767578125 3573.4755859375 C 6636.88232421875 3573.97607421875 6638.04541015625 3574.60986328125 6639.1875 3575.3623046875 L 6639.25048828125 3575.17236328125 C 6639.25 3575.1640625 6639.24951171875 3575.152587890625 6639.248046875 3575.137939453125 C 6638.1142578125 3573.833740234375 6637.1484375 3572.24755859375 6636.4365234375 3570.512939453125 C 6635.66796875 3568.641357421875 6635.22900390625 3566.66748046875 6635.15625 3564.768798828125 C 6635.08154296875 3564.966552734375 6635.00341796875 3565.1640625 6634.92236328125 3565.360107421875 C 6634.05810546875 3567.455322265625 6632.88330078125 3569.373291015625 6631.50390625 3570.947265625 C 6631.447265625 3571.190185546875 6631.42333984375 3571.376220703125 6631.41650390625 3571.514404296875 C 6632.9228515625 3572.079345703125 6634.4580078125 3572.755615234375 6635.86767578125 3573.4755859375 Z M 6609.27197265625 3575.16796875 L 6609.33642578125 3575.3603515625 C 6610.47705078125 3574.60888671875 6611.6396484375 3573.975830078125 6612.654296875 3573.475830078125 C 6614.05712890625 3572.758544921875 6615.5927734375 3572.081787109375 6617.1064453125 3571.513916015625 C 6617.099609375 3571.3759765625 6617.07666015625 3571.19091796875 6617.0205078125 3570.951171875 C 6615.64111328125 3569.3759765625 6614.46533203125 3567.45654296875 6613.6005859375 3565.360107421875 C 6613.51904296875 3565.163330078125 6613.44140625 3564.966064453125 6613.3662109375 3564.767578125 C 6613.29345703125 3566.667236328125 6612.8544921875 3568.6416015625 6612.0859375 3570.51318359375 C 6611.3740234375 3572.247314453125 6610.408203125 3573.833251953125 6609.27392578125 3575.13671875 C 6609.27294921875 3575.14990234375 6609.27197265625 3575.16015625 6609.27197265625 3575.16796875 Z"/><path class="u" d="M 6624.33203125 3602.87158203125 C 6624.5947265625 3602.87158203125 6624.8525390625 3602.86767578125 6625.1123046875 3602.86669921875 C 6625.1591796875 3602.86669921875 6625.2080078125 3602.86669921875 6625.2568359375 3602.86572265625 C 6631.5078125 3602.814453125 6637.0048828125 3602.23583984375 6641.685546875 3601.3466796875 C 6641.6728515625 3601.34423828125 6641.662109375 3601.3427734375 6641.6484375 3601.34130859375 C 6653.48828125 3599.0947265625 6660.1123046875 3594.86376953125 6660.1123046875 3592.0224609375 C 6660.1123046875 3591.22802734375 6660.11328125 3585.556640625 6660.11328125 3584.759765625 C 6660.11328125 3581.98974609375 6655.7958984375 3579.283203125 6651.517578125 3577.63037109375 C 6651.1005859375 3577.4658203125 6650.68359375 3577.3095703125 6650.271484375 3577.1689453125 C 6650.060546875 3577.09912109375 6648.7177734375 3576.48388671875 6649.55859375 3573.86376953125 L 6649.5419921875 3573.86376953125 C 6651.7255859375 3571.56640625 6653.3916015625 3567.85986328125 6653.3916015625 3564.20751953125 C 6653.3916015625 3558.60205078125 6649.7529296875 3555.65966796875 6645.525390625 3555.65966796875 L 6645.5107421875 3555.65966796875 L 6645.4970703125 3555.65966796875 C 6641.265625 3555.65966796875 6637.6455078125 3558.60205078125 6637.6455078125 3564.20751953125 C 6637.6455078125 3567.86962890625 6639.3056640625 3571.599609375 6641.4931640625 3573.8916015625 C 6641.814453125 3574.7587890625 6641.80078125 3575.4228515625 6641.6376953125 3575.91552734375 C 6643.904296875 3577.8759765625 6647.1806640625 3581.93701171875 6646.060546875 3589.6669921875 C 6644.97265625 3586.2021484375 6643.365234375 3583.05322265625 6641.357421875 3580.658203125 C 6641.3642578125 3580.65771484375 6641.3701171875 3580.6572265625 6641.376953125 3580.65576171875 C 6641.3486328125 3580.62255859375 6641.326171875 3580.5888671875 6641.2978515625 3580.5556640625 C 6639.9912109375 3578.7578125 6637.5185546875 3577.07568359375 6634.74609375 3575.7099609375 C 6633.322265625 3574.98193359375 6631.83203125 3574.33447265625 6630.4013671875 3573.80419921875 C 6630.13671875 3573.703125 6629.203125 3573.1923828125 6628.9345703125 3572.01220703125 C 6628.873046875 3571.43994140625 6628.9404296875 3570.69873046875 6629.2490234375 3569.7314453125 L 6629.2294921875 3569.7314453125 C 6631.9228515625 3566.8994140625 6633.9736328125 3562.33056640625 6633.9736328125 3557.83154296875 C 6633.9736328125 3550.921875 6629.4873046875 3547.29638671875 6624.279296875 3547.29638671875 L 6624.2607421875 3547.29736328125 L 6624.244140625 3547.29638671875 C 6619.0341796875 3547.29638671875 6614.548828125 3550.921875 6614.548828125 3557.83154296875 C 6614.548828125 3562.33056640625 6616.6015625 3566.8994140625 6619.291015625 3569.7314453125 L 6619.2734375 3569.7314453125 C 6619.5849609375 3570.69873046875 6619.6494140625 3571.43994140625 6619.587890625 3572.01220703125 C 6619.318359375 3573.1923828125 6618.3857421875 3573.703125 6618.1201171875 3573.80419921875 C 6616.6904296875 3574.33447265625 6615.1982421875 3574.98193359375 6613.7763671875 3575.7099609375 C 6611.0009765625 3577.07568359375 6608.529296875 3578.7578125 6607.2255859375 3580.5556640625 C 6607.197265625 3580.5888671875 6607.1708984375 3580.62255859375 6607.14453125 3580.65576171875 C 6607.1513671875 3580.6572265625 6607.15625 3580.65771484375 6607.1650390625 3580.658203125 C 6605.158203125 3583.05322265625 6603.548828125 3586.2021484375 6602.4619140625 3589.6669921875 C 6601.3408203125 3581.93701171875 6604.615234375 3577.8759765625 6606.8857421875 3575.91552734375 C 6606.720703125 3575.4228515625 6606.7080078125 3574.7587890625 6607.02734375 3573.8916015625 C 6609.2177734375 3571.599609375 6610.876953125 3567.86962890625 6610.876953125 3564.20751953125 C 6610.876953125 3558.60205078125 6607.2568359375 3555.65966796875 6603.0244140625 3555.65966796875 L 6603.0126953125 3555.65966796875 L 6602.998046875 3555.65966796875 C 6598.76953125 3555.65966796875 6595.130859375 3558.60205078125 6595.130859375 3564.20751953125 C 6595.130859375 3567.85986328125 6596.7958984375 3571.56640625 6598.978515625 3573.86376953125 L 6598.9638671875 3573.86376953125 C 6599.8037109375 3576.48388671875 6598.462890625 3577.09912109375 6598.251953125 3577.1689453125 C 6597.8369140625 3577.3095703125 6597.421875 3577.4658203125 6597.005859375 3577.63037109375 C 6592.7255859375 3579.283203125 6588.4072265625 3581.98974609375 6588.4072265625 3584.759765625 C 6588.4072265625 3585.556640625 6588.4111328125 3591.22802734375 6588.4111328125 3592.0224609375 C 6588.4111328125 3594.86376953125 6595.033203125 3599.0947265625 6606.873046875 3601.34130859375 C 6606.8623046875 3601.3427734375 6606.84765625 3601.34423828125 6606.8369140625 3601.3466796875 C 6611.517578125 3602.23583984375 6617.013671875 3602.814453125 6623.2666015625 3602.86572265625 C 6623.3134765625 3602.86669921875 6623.3623046875 3602.86669921875 6623.4111328125 3602.86669921875 C 6623.669921875 3602.86767578125 6623.9287109375 3602.87158203125 6624.1904296875 3602.87158203125 C 6624.21484375 3602.87158203125 6624.2373046875 3602.87158203125 6624.2607421875 3602.87158203125 C 6624.2841796875 3602.87158203125 6624.306640625 3602.87158203125 6624.33203125 3602.87158203125 M 6624.33203125 3607.87158203125 L 6624.2607421875 3607.87158203125 L 6624.1904296875 3607.87158203125 C 6624.0263671875 3607.87158203125 6623.86279296875 3607.870361328125 6623.7001953125 3607.868896484375 C 6623.599609375 3607.867919921875 6623.4990234375 3607.8671875 6623.39892578125 3607.86669921875 C 6623.33203125 3607.86669921875 6623.26611328125 3607.866455078125 6623.201171875 3607.865234375 C 6617.0634765625 3607.813720703125 6611.24365234375 3607.273193359375 6605.90380859375 3606.2587890625 L 6605.9033203125 3606.24658203125 C 6599.91650390625 3605.107666015625 6594.70361328125 3603.398681640625 6590.82568359375 3601.30419921875 C 6588.8359375 3600.229248046875 6587.22607421875 3599.064208984375 6586.04052734375 3597.84130859375 C 6583.8671875 3595.59912109375 6583.4111328125 3593.439453125 6583.4111328125 3592.0224609375 C 6583.4111328125 3591.6259765625 6583.41015625 3590.012939453125 6583.4091796875 3588.398681640625 C 6583.408203125 3586.779541015625 6583.4072265625 3585.158935546875 6583.4072265625 3584.759765625 C 6583.4072265625 3583.04541015625 6583.9638671875 3581.38623046875 6585.0625 3579.82861328125 C 6585.80810546875 3578.7705078125 6586.82080078125 3577.7509765625 6588.072265625 3576.798095703125 C 6589.60205078125 3575.633056640625 6591.3154296875 3574.689697265625 6592.86083984375 3573.96533203125 C 6591.1328125 3571.010009765625 6590.130859375 3567.5263671875 6590.130859375 3564.20751953125 C 6590.130859375 3562.239501953125 6590.45556640625 3560.393310546875 6591.095703125 3558.72021484375 C 6591.7451171875 3557.022705078125 6592.7041015625 3555.533447265625 6593.94580078125 3554.293701171875 C 6596.2919921875 3551.9501953125 6599.50732421875 3550.65966796875 6602.998046875 3550.65966796875 L 6603.0126953125 3550.65966796875 L 6603.0244140625 3550.65966796875 C 6605.671875 3550.65966796875 6608.1591796875 3551.401611328125 6610.22802734375 3552.7822265625 C 6610.35498046875 3552.33984375 6610.49951171875 3551.906494140625 6610.6611328125 3551.4833984375 C 6611.40283203125 3549.545166015625 6612.49609375 3547.846435546875 6613.90966796875 3546.434814453125 C 6616.55908203125 3543.789306640625 6620.18896484375 3542.322021484375 6624.14013671875 3542.296630859375 L 6624.146484375 3542.29638671875 L 6624.244140625 3542.29638671875 L 6624.392578125 3542.29638671875 L 6624.39990234375 3542.296875 C 6628.34423828125 3542.326171875 6631.966796875 3543.79296875 6634.6123046875 3546.434814453125 C 6636.0263671875 3547.846435546875 6637.119140625 3549.545166015625 6637.86083984375 3551.483154296875 C 6638.02294921875 3551.906494140625 6638.16748046875 3552.339599609375 6638.29443359375 3552.7822265625 C 6640.36328125 3551.401611328125 6642.85009765625 3550.65966796875 6645.4970703125 3550.65966796875 L 6645.5107421875 3550.65966796875 L 6645.525390625 3550.65966796875 C 6649.01611328125 3550.65966796875 6652.23046875 3551.9501953125 6654.5771484375 3554.293701171875 C 6655.818359375 3555.53369140625 6656.77734375 3557.02294921875 6657.4267578125 3558.72021484375 C 6658.06689453125 3560.393310546875 6658.3916015625 3562.239501953125 6658.3916015625 3564.20751953125 C 6658.3916015625 3567.52587890625 6657.38916015625 3571.009765625 6655.66064453125 3573.96484375 C 6657.2060546875 3574.689453125 6658.91943359375 3575.633056640625 6660.44970703125 3576.798583984375 C 6661.70068359375 3577.75146484375 6662.712890625 3578.771240234375 6663.45849609375 3579.8291015625 C 6664.556640625 3581.38671875 6665.11328125 3583.045654296875 6665.11328125 3584.759765625 C 6665.11328125 3585.15869140625 6665.11328125 3586.778076171875 6665.11279296875 3588.396484375 C 6665.11279296875 3590.01171875 6665.1123046875 3591.625732421875 6665.1123046875 3592.0224609375 C 6665.1123046875 3593.439697265625 6664.65576171875 3595.599609375 6662.48193359375 3597.841796875 C 6661.29638671875 3599.064453125 6659.6865234375 3600.2294921875 6657.6962890625 3601.30419921875 C 6653.818359375 3603.398681640625 6648.60498046875 3605.107421875 6642.61865234375 3606.246337890625 L 6642.61865234375 3606.2587890625 C 6637.27880859375 3607.273193359375 6631.458984375 3607.813720703125 6625.32177734375 3607.865478515625 C 6625.2548828125 3607.866455078125 6625.18896484375 3607.86669921875 6625.125 3607.86669921875 C 6625.02392578125 3607.8671875 6624.92333984375 3607.867919921875 6624.822265625 3607.868896484375 C 6624.65966796875 3607.870361328125 6624.49658203125 3607.87158203125 6624.33203125 3607.87158203125 Z"/></g><g transform="translate(529.615 198.523)"><path class="m" d="M6,2H61.969V25.748A45.179,45.179,0,0,1,33.978,66.579,45.173,45.173,0,0,1,6,25.748Z" transform="translate(0 0)"/><path class="n" d="M6,2V25.748A45.173,45.173,0,0,0,33.978,66.579l.006,0V2Z" transform="translate(0 0)"/><path class="o" d="M6,2H61.969V25.748A45.177,45.177,0,0,1,33.978,66.579,45.173,45.173,0,0,1,6,25.748Z" transform="translate(0 0)"/><path class="p" d="M22,27.534l9.687,9.687L47.832,20" transform="translate(1.221 1.374)"/></g><g transform="translate(748 -4459)"><g class="v" transform="matrix(1, 0, 0, 1, -435, 4597)"><rect class="d" width="81" height="53" transform="translate(7 65)"/></g><rect class="q" width="44" height="3" transform="translate(-402 4674)"/><rect class="q" width="44" height="3" transform="translate(-402 4688)"/><rect class="q" width="44" height="3" transform="translate(-402 4702)"/><path class="r" d="M561.623,408.288l3.066,3.056,4.912-6.657" transform="translate(-980.699 4265.655)"/><path class="r" d="M561.623,408.288l3.066,3.056,4.912-6.657" transform="translate(-980.699 4279.655)"/><path class="r" d="M561.623,408.288l3.066,3.056,4.912-6.657" transform="translate(-980.699 4293.655)"/></g><g transform="translate(-4899 -2272)"><g transform="translate(5427 2604)"><g transform="translate(0 0)"><g transform="translate(0 0)"><g class="s" transform="translate(-0.002 -0.003)"><path class="t" d="M 46.86630630493164 40.5035285949707 C 42.80039215087891 40.5035285949707 39.96687698364258 38.83087158203125 37.46692276000977 37.35512924194336 C 36.91939163208008 37.03192901611328 36.40223693847656 36.72664260864258 35.88390731811523 36.44531631469727 C 31.95879554748535 34.31603622436523 5.867762088775635 18.03931427001953 3.163623332977295 16.23343086242676 C -0.3009400963783264 13.94219779968262 -2.0799880027771 11.78734588623047 -2.435050487518311 9.452186584472656 C -2.605321884155273 8.332414627075195 -2.504264831542969 6.625357627868652 -1.055864810943604 4.851972103118896 C -0.3713648021221161 4.015172004699707 0.4655351936817169 3.351429224014282 1.432778000831604 2.877729177474976 C 2.552249431610107 2.329472064971924 3.819921016693115 2.051486492156982 5.200606822967529 2.051486492156982 C 6.816955089569092 2.051486492156982 8.60427188873291 2.439031839370728 10.54010391235352 3.207144975662231 C 10.66707515716553 2.991044521331787 10.8099193572998 2.782254934310913 10.96853542327881 2.581629276275635 C 12.21106338500977 1.009986400604248 14.26990699768066 0.1086006760597229 16.61716461181641 0.1086006760597229 C 19.23807716369629 0.1086006760597229 21.59925651550293 0.7321937680244446 23.5685920715332 1.930028676986694 C 25.09086418151855 0.6757637858390808 26.75924873352051 0.06134353578090668 28.62119293212891 0.06134353578090668 C 31.00420570373535 0.06134353578090668 33.5926513671875 1.008186340332031 37.55546188354492 3.329472064971924 C 39.85819244384766 4.677329540252686 41.90099334716797 5.83385181427002 43.46329879760742 6.674181461334229 C 43.63625717163086 6.765246391296387 43.80068588256836 6.847664356231689 43.95977783203125 6.927414894104004 C 44.15289306640625 7.024229049682617 44.35257720947266 7.124314785003662 44.55423355102539 7.233458042144775 L 48.55959701538086 9.401037216186523 C 51.03669357299805 8.584402084350586 52.89445877075195 7.638996124267578 53.33054733276367 7.409667491912842 C 54.25252532958984 6.777286052703857 60.06854248046875 2.796112298965454 62.04354858398438 1.639500737190247 C 62.26437759399414 1.509700655937195 62.48656463623047 1.378186345100403 62.70723342895508 1.247586369514465 C 65.81725311279297 -0.5931421518325806 69.03314971923828 -2.49654221534729 73.57077789306641 -2.49654221534729 C 75.92427825927734 -2.49654221534729 78.43460845947266 -1.989327907562256 81.24524688720703 -0.9459279179573059 C 86.57662200927734 1.032572150230408 97.87293243408203 5.970643520355225 98.35120391845703 6.179886341094971 L 100.7229232788086 7.217514991760254 L 99.60321807861328 9.551600456237793 L 88.85303497314453 31.96101570129395 L 87.65636444091797 34.45555877685547 L 85.29547882080078 33.01297378540039 L 79.8355712890625 29.67678642272949 C 78.43675231933594 28.8381175994873 77.63358306884766 28.52620124816895 76.87397766113281 28.52620124816895 C 76.08607482910156 28.52620124816895 75.07747650146484 28.84435844421387 73.60365295410156 29.55781555175781 C 72.85953521728516 29.91947174072266 71.80191802978516 30.4352855682373 70.56406402587891 31.03901481628418 C 65.39403533935547 33.56055068969727 57.58294296264648 37.37019729614258 55.21205902099609 38.44068908691406 C 52.16910934448242 39.82877349853516 49.43917846679688 40.5035285949707 46.86630630493164 40.5035285949707 Z"/><path class="u" d="M 73.57077789306641 0.00345611572265625 C 69.43207550048828 0.003658294677734375 66.59033966064453 1.866867065429688 63.30691909790039 3.796772003173828 C 61.25870132446289 4.996280670166016 54.63132095336914 9.549060821533203 54.63132095336914 9.549060821533203 C 54.63132095336914 9.549060821533203 48.01146697998047 13.18527984619141 41.46328353881836 13.18527984619141 C 31.43354034423828 13.18527984619141 29.66825103759766 13.72089767456055 29.66825103759766 16.73849868774414 C 29.66825103759766 20.04275321960449 36.20888519287109 20.28417015075684 36.23530197143555 20.28417015075684 L 52.33039474487305 20.28417015075684 C 57.7997932434082 20.28417015075684 65.47579193115234 17.32315254211426 65.47579193115234 17.32315254211426 C 65.47579193115234 17.32315254211426 58.97288513183594 23.83738899230957 52.33039474487305 23.83738899230957 L 36.21266555786133 23.83738899230957 C 32.63304901123047 23.76571655273438 25.89248657226562 22.2003345489502 25.90757751464844 16.76111602783203 C 25.90757751464844 9.654680252075195 32.78015899658203 9.654680252075195 41.47837448120117 9.654680252075195 C 42.11288452148438 9.643388748168945 42.74466705322266 9.568843841552734 43.36437606811523 9.432134628295898 C 43.04375839233398 9.258625030517578 42.70428466796875 9.10020637512207 42.28935623168945 8.881425857543945 C 40.73906707763672 8.047824859619141 38.65692138671875 6.870952606201172 36.29188537597656 5.486625671386719 C 33.05050659179688 3.587940216064453 30.63316345214844 2.561130523681641 28.62117767333984 2.561336517333984 C 26.78398132324219 2.5615234375 25.28466033935547 3.418033599853516 23.80657196044922 5.248989105224609 C 21.64899444580078 3.174407958984375 18.93692016601562 2.608608245849609 16.61715698242188 2.608608245849609 C 13.99561309814453 2.608608245849609 11.77391815185547 4.223007202148438 12.40006256103516 6.863407135009766 C 9.343276977539062 5.168239593505859 6.993881225585938 4.551490783691406 5.200607299804688 4.551490783691406 C 3.039520263671875 4.551490783691406 1.686416625976562 5.448040008544922 0.8803939819335938 6.433406829833984 C -1.069732666015625 8.821079254150391 0.2617950439453125 11.31813430786133 4.546775817871094 14.15089797973633 C 7.277702331542969 15.97655296325684 33.39121246337891 32.24893569946289 37.07646560668945 34.24808120727539 C 39.99000930786133 35.82943344116211 42.68203353881836 38.0035285949707 46.86631011962891 38.0035285949707 C 48.89005661010742 38.0035285949707 51.26323699951172 37.49472427368164 54.17868423461914 36.16426086425781 C 57.0869026184082 34.85160827636719 68.74235534667969 29.14080810546875 72.51435852050781 27.30762481689453 C 74.32784271240234 26.42973327636719 75.66273498535156 26.02619743347168 76.87397766113281 26.02619743347168 C 78.27528381347656 26.02619743347168 79.51100158691406 26.56657028198242 81.12957763671875 27.53771591186523 L 86.59897613525391 30.87969779968262 L 97.34915924072266 8.470279693603516 C 97.34915924072266 8.470279693603516 85.70123291015625 3.374317169189453 80.37517547607422 1.397789001464844 C 77.70790100097656 0.4075965881347656 75.49886322021484 0.003360748291015625 73.57077789306641 0.00345611572265625 M 73.57048034667969 -4.996540069580078 C 73.57054138183594 -4.996540069580078 73.57054138183594 -4.996540069580078 73.57054138183594 -4.996540069580078 C 76.22599792480469 -4.996685028076172 79.02104949951172 -4.438358306884766 82.11534118652344 -3.289630889892578 C 87.51254272460938 -1.286701202392578 98.87229919433594 3.679080963134766 99.35324859619141 3.889499664306641 L 104.0966644287109 5.964733123779297 L 101.8572692871094 10.63289833068848 L 91.10708618164062 33.04231643676758 L 88.71373748779297 38.03140640258789 L 83.99197387695312 35.14626312255859 L 78.54025268554688 31.81508255004883 C 77.35174560546875 31.10334968566895 76.97914886474609 31.02618789672852 76.87397766113281 31.02618789672852 C 76.7412109375 31.02618789672852 76.19157409667969 31.08257102966309 74.69295501708984 31.80804443359375 C 73.94568634033203 32.17123413085938 72.89031982421875 32.68595886230469 71.65577697753906 33.28806304931641 C 66.47607421875 35.81430053710938 58.65127563476562 39.63059997558594 56.24353408813477 40.71800231933594 C 52.87044143676758 42.255859375 49.80289077758789 43.00353240966797 46.86630249023438 43.00353240966797 C 42.11757659912109 43.00353240966797 38.83428573608398 41.06537246704102 36.19610214233398 39.50802612304688 C 35.66850280761719 39.19659042358398 35.17013931274414 38.90240859985352 34.69135665893555 38.64253616333008 C 30.73863220214844 36.498291015625 4.520606994628906 20.14462471008301 1.778846740722656 18.31486892700195 C -0.7995147705078125 16.60921096801758 -4.291213989257812 13.87551116943359 -4.906661987304688 9.82798957824707 C -5.153045654296875 8.207551956176758 -5.020896911621094 5.7545166015625 -2.992118835449219 3.270553588867188 C -1.029518127441406 0.8712615966796875 1.87921142578125 -0.4485015869140625 5.200614929199219 -0.4485015869140625 C 6.635391235351562 -0.4485015869140625 8.128166198730469 -0.2147216796875 9.700469970703125 0.2594146728515625 C 11.42595672607422 -1.436279296875 13.89040374755859 -2.391391754150391 16.61715698242188 -2.391391754150391 C 19.08180999755859 -2.391391754150391 21.36278533935547 -1.916244506835938 23.38072967529297 -0.99603271484375 C 23.46390533447266 -1.045711517333984 23.54762268066406 -1.094200134277344 23.63179016113281 -1.141448974609375 C 25.16493988037109 -2.002048492431641 26.84344482421875 -2.438484191894531 28.62068176269531 -2.438667297363281 C 30.23751831054688 -2.438827514648438 31.93801116943359 -2.08062744140625 33.81933975219727 -1.343593597412109 C 35.27086639404297 -0.7749557495117188 36.85957717895508 0.02449798583984375 38.81906509399414 1.172298431396484 C 41.05882263183594 2.483306884765625 43.12470626831055 3.653129577636719 44.63826370239258 4.467460632324219 C 44.78548431396484 4.544818878173828 44.92882537841797 4.616664886474609 45.08023071289062 4.692554473876953 C 45.29051971435547 4.797969818115234 45.50799179077148 4.906990051269531 45.74410247802734 5.034751892089844 L 48.77593612670898 6.675495147705078 C 50.39024353027344 6.080238342285156 51.60416030883789 5.485019683837891 52.04443740844727 5.260215759277344 C 53.39229965209961 4.336215972900391 58.78825378417969 0.6497726440429688 60.7743034362793 -0.5143623352050781 C 60.99583053588867 -0.6445808410644531 61.21532821655273 -0.7744979858398438 61.43331909179688 -0.9035186767578125 C 64.67462921142578 -2.821918487548828 68.34841156005859 -4.996284484863281 73.57054138183594 -4.996540069580078 L 73.57048034667969 -4.996540069580078 Z"/></g></g></g><g transform="translate(0 0)"><g transform="translate(0 0)"><path class="h" d="M.88,6.433c1.475-1.8,4.779-3.308,11.52.43-.626-2.64,1.6-4.255,4.217-4.255a10.108,10.108,0,0,1,7.189,2.64c3.1-3.836,6.284-3.395,12.485.238,2.365,1.384,4.447,2.561,6,3.395.415.219.754.377,1.075.551a9.543,9.543,0,0,1-1.886.223c-8.7,0-15.571,0-15.571,7.106-.015,5.439,6.725,7,10.305,7.076H52.33c6.642,0,13.145-6.514,13.145-6.514S57.8,20.284,52.33,20.284h-16.1c-.026,0-6.567-.241-6.567-3.546,0-3.018,1.765-3.553,11.8-3.553,6.548,0,13.168-3.636,13.168-3.636S61.259,5,63.307,3.8C68.12.968,71.982-1.718,80.375,1.4,85.7,3.374,97.349,8.47,97.349,8.47L86.6,30.88,81.13,27.538c-3.018-1.811-4.7-2.124-8.615-.23-3.772,1.833-15.427,7.544-18.336,8.857-8.943,4.081-12.78.43-17.1-1.916-3.685-2-29.8-18.272-32.53-20.1C.262,11.318-1.07,8.821.88,6.433Z" transform="translate(-0.002 -0.003)"/></g></g></g></g></g></svg>