<svg xmlns="http://www.w3.org/2000/svg" width="482" height="183" viewBox="0 0 482 183">
  <g id="Sharing-Presets-Graphic" transform="translate(-332 -165)">
    <g id="Group_10385" data-name="Group 10385" transform="translate(-15292 -5804)">
      <rect id="Rectangle_3519" data-name="Rectangle 3519" width="229" height="107" rx="5" transform="translate(15867 6045)" fill="#9a9a9a"/>
      <rect id="Rectangle_3518" data-name="Rectangle 3518" width="247" height="38" rx="5" transform="translate(15859 6016)" fill="#d6d6d6"/>
      <rect id="Rectangle_3520" data-name="Rectangle 3520" width="213" height="23" rx="5" transform="translate(15875 6059)" fill="#d6d6d6"/>
      <rect id="Rectangle_3521" data-name="Rectangle 3521" width="213" height="23" rx="5" transform="translate(15875 6088)" fill="#d6d6d6"/>
      <rect id="Rectangle_3522" data-name="Rectangle 3522" width="213" height="22" rx="5" transform="translate(15875 6118)" fill="#d6d6d6"/>
      <g id="Path_3376" data-name="Path 3376" transform="translate(9278.227 2477.881)" fill="#335ca5">
        <path d="M 6600.865234375 3568.067626953125 L 6600.83935546875 3568.067626953125 L 6600.8154296875 3568.067626953125 C 6600.7548828125 3568.067626953125 6600.69482421875 3568.067138671875 6600.63427734375 3568.066650390625 L 6600.53955078125 3568.06591796875 C 6600.5166015625 3568.06591796875 6600.49365234375 3568.065673828125 6600.4716796875 3568.065185546875 C 6598.357421875 3568.047607421875 6596.3544921875 3567.861572265625 6594.51806640625 3567.512451171875 L 6594.51806640625 3567.508544921875 C 6592.46533203125 3567.117919921875 6590.68115234375 3566.53369140625 6589.357421875 3565.818603515625 C 6587.732421875 3564.94091796875 6586.90869140625 3563.92724609375 6586.90869140625 3562.8056640625 L 6586.90869140625 3561.5478515625 L 6586.908203125 3560.287353515625 C 6586.908203125 3558.485107421875 6588.826171875 3557.293701171875 6590.2890625 3556.6474609375 C 6589.62744140625 3555.61376953125 6589.23876953125 3554.355224609375 6589.23876953125 3553.16064453125 C 6589.23876953125 3551.839111328125 6589.67236328125 3550.70751953125 6590.4931640625 3549.887939453125 C 6591.2626953125 3549.11962890625 6592.31884765625 3548.6962890625 6593.466796875 3548.6962890625 L 6593.4765625 3548.6962890625 C 6594.466796875 3548.6962890625 6595.3876953125 3549.010986328125 6596.115234375 3549.590576171875 C 6596.3251953125 3548.63818359375 6596.76513671875 3547.8134765625 6597.41650390625 3547.163330078125 C 6598.29443359375 3546.286376953125 6599.5009765625 3545.801513671875 6600.8154296875 3545.796630859375 L 6600.81591796875 3545.796630859375 L 6600.8349609375 3545.796630859375 L 6600.87744140625 3545.796630859375 L 6600.87939453125 3545.796630859375 C 6602.1884765625 3545.804931640625 6603.38916015625 3546.28955078125 6604.26416015625 3547.163330078125 C 6604.91552734375 3547.8134765625 6605.35546875 3548.637939453125 6605.5654296875 3549.59033203125 C 6606.29296875 3549.010986328125 6607.2138671875 3548.6962890625 6608.2041015625 3548.6962890625 L 6608.212890625 3548.6962890625 C 6609.361328125 3548.6962890625 6610.41748046875 3549.119384765625 6611.18701171875 3549.887939453125 C 6612.0078125 3550.707275390625 6612.44189453125 3551.839111328125 6612.44189453125 3553.16064453125 C 6612.44189453125 3554.3544921875 6612.05322265625 3555.61328125 6611.3916015625 3556.6474609375 C 6612.8544921875 3557.293701171875 6614.77294921875 3558.4853515625 6614.77294921875 3560.287353515625 C 6614.77294921875 3560.425537109375 6614.7724609375 3560.987060546875 6614.7724609375 3561.548095703125 C 6614.77197265625 3562.108154296875 6614.77197265625 3562.66796875 6614.77197265625 3562.8056640625 C 6614.77197265625 3563.92724609375 6613.9482421875 3564.94091796875 6612.3232421875 3565.818603515625 C 6610.99951171875 3566.53369140625 6609.21484375 3567.117919921875 6607.162109375 3567.5087890625 L 6607.162109375 3567.512451171875 C 6605.3271484375 3567.861572265625 6603.32470703125 3568.047607421875 6601.20947265625 3568.065185546875 C 6601.18603515625 3568.065673828125 6601.1630859375 3568.06591796875 6601.14111328125 3568.06591796875 L 6601.0478515625 3568.066650390625 C 6600.9873046875 3568.067138671875 6600.92626953125 3568.067626953125 6600.865234375 3568.067626953125 Z" stroke="none"/>
        <path d="M 6600.865234375 3566.567626953125 C 6600.95556640625 3566.567626953125 6601.0458984375 3566.56640625 6601.13525390625 3566.56591796875 C 6601.1513671875 3566.56591796875 6601.16845703125 3566.56591796875 6601.18603515625 3566.5654296875 C 6603.3525390625 3566.5478515625 6605.259765625 3566.347412109375 6606.8818359375 3566.038818359375 C 6606.87841796875 3566.0380859375 6606.8740234375 3566.03759765625 6606.8701171875 3566.037353515625 C 6610.97509765625 3565.258056640625 6613.27197265625 3563.791015625 6613.27197265625 3562.8056640625 C 6613.27197265625 3562.530029296875 6613.27294921875 3560.5634765625 6613.27294921875 3560.287353515625 C 6613.27294921875 3559.326416015625 6611.775390625 3558.38818359375 6610.29150390625 3557.815185546875 C 6610.14697265625 3557.7578125 6610.001953125 3557.703857421875 6609.859375 3557.655029296875 C 6609.7861328125 3557.630615234375 6609.3212890625 3557.417724609375 6609.6123046875 3556.509033203125 L 6609.607421875 3556.509033203125 C 6610.36328125 3555.712158203125 6610.94189453125 3554.427001953125 6610.94189453125 3553.16064453125 C 6610.94189453125 3551.216552734375 6609.6796875 3550.1962890625 6608.212890625 3550.1962890625 L 6608.208984375 3550.1962890625 L 6608.2041015625 3550.1962890625 C 6606.736328125 3550.1962890625 6605.48095703125 3551.216552734375 6605.48095703125 3553.16064453125 C 6605.48095703125 3554.4306640625 6606.05712890625 3555.7236328125 6606.8154296875 3556.5185546875 C 6606.9267578125 3556.8193359375 6606.9228515625 3557.049560546875 6606.8662109375 3557.220458984375 C 6607.65185546875 3557.900390625 6608.7880859375 3559.308349609375 6608.39892578125 3561.98876953125 C 6608.0224609375 3560.78759765625 6607.46484375 3559.6953125 6606.7685546875 3558.865234375 C 6606.77099609375 3558.86474609375 6606.7724609375 3558.86474609375 6606.775390625 3558.8642578125 C 6606.765625 3558.85302734375 6606.7578125 3558.8408203125 6606.748046875 3558.829345703125 C 6606.294921875 3558.2060546875 6605.4375 3557.622802734375 6604.4765625 3557.14892578125 C 6603.98193359375 3556.896484375 6603.46533203125 3556.672119140625 6602.96875 3556.48828125 C 6602.8779296875 3556.453369140625 6602.5537109375 3556.2763671875 6602.4609375 3555.866943359375 C 6602.439453125 3555.668701171875 6602.462890625 3555.411376953125 6602.5703125 3555.076171875 L 6602.5634765625 3555.076171875 C 6603.498046875 3554.09375 6604.2080078125 3552.509765625 6604.2080078125 3550.94970703125 C 6604.2080078125 3548.5537109375 6602.65283203125 3547.296630859375 6600.845703125 3547.296630859375 L 6600.83935546875 3547.296875 L 6600.8349609375 3547.296630859375 C 6599.02783203125 3547.296630859375 6597.47265625 3548.5537109375 6597.47265625 3550.94970703125 C 6597.47265625 3552.509765625 6598.18408203125 3554.09375 6599.1171875 3555.076171875 L 6599.11083984375 3555.076171875 C 6599.2177734375 3555.411376953125 6599.24072265625 3555.668701171875 6599.21923828125 3555.866943359375 C 6599.126953125 3556.2763671875 6598.80224609375 3556.453369140625 6598.7109375 3556.48828125 C 6598.2158203125 3556.672119140625 6597.697265625 3556.896484375 6597.20458984375 3557.14892578125 C 6596.2421875 3557.622802734375 6595.384765625 3558.2060546875 6594.93359375 3558.829345703125 C 6594.9228515625 3558.8408203125 6594.9140625 3558.85302734375 6594.9052734375 3558.8642578125 C 6594.9072265625 3558.86474609375 6594.90966796875 3558.86474609375 6594.912109375 3558.865234375 C 6594.2158203125 3559.6953125 6593.65869140625 3560.78759765625 6593.28125 3561.98876953125 C 6592.892578125 3559.308349609375 6594.02734375 3557.900390625 6594.8154296875 3557.220458984375 C 6594.7587890625 3557.049560546875 6594.75390625 3556.8193359375 6594.865234375 3556.5185546875 C 6595.62353515625 3555.7236328125 6596.19921875 3554.4306640625 6596.19921875 3553.16064453125 C 6596.19921875 3551.216552734375 6594.9443359375 3550.1962890625 6593.4765625 3550.1962890625 L 6593.4716796875 3550.1962890625 L 6593.466796875 3550.1962890625 C 6592.0009765625 3550.1962890625 6590.73876953125 3551.216552734375 6590.73876953125 3553.16064453125 C 6590.73876953125 3554.427001953125 6591.31689453125 3555.712158203125 6592.07421875 3556.509033203125 L 6592.068359375 3556.509033203125 C 6592.359375 3557.417724609375 6591.89453125 3557.630615234375 6591.8212890625 3557.655029296875 C 6591.67724609375 3557.703857421875 6591.5341796875 3557.7578125 6591.3896484375 3557.815185546875 C 6589.9052734375 3558.38818359375 6588.408203125 3559.326416015625 6588.408203125 3560.287353515625 C 6588.408203125 3560.5634765625 6588.40869140625 3562.530029296875 6588.40869140625 3562.8056640625 C 6588.40869140625 3563.791015625 6590.70556640625 3565.258056640625 6594.81103515625 3566.037353515625 C 6594.806640625 3566.03759765625 6594.80224609375 3566.0380859375 6594.79833984375 3566.038818359375 C 6596.42138671875 3566.347412109375 6598.3271484375 3566.5478515625 6600.4951171875 3566.5654296875 C 6600.5107421875 3566.56591796875 6600.5283203125 3566.56591796875 6600.54541015625 3566.56591796875 C 6600.6357421875 3566.56640625 6600.7255859375 3566.567626953125 6600.8154296875 3566.567626953125 C 6600.82421875 3566.567626953125 6600.83203125 3566.567626953125 6600.83935546875 3566.567626953125 C 6600.84814453125 3566.567626953125 6600.8564453125 3566.567626953125 6600.865234375 3566.567626953125 M 6600.865234375 3569.567626953125 L 6600.83935546875 3569.567626953125 L 6600.8154296875 3569.567626953125 C 6600.7509765625 3569.567626953125 6600.6865234375 3569.567138671875 6600.62158203125 3569.566650390625 L 6600.53271484375 3569.56591796875 C 6600.505859375 3569.56591796875 6600.47900390625 3569.565673828125 6600.45263671875 3569.565185546875 C 6598.2509765625 3569.54638671875 6596.16015625 3569.3515625 6594.23779296875 3568.986083984375 L 6594.23779296875 3568.982177734375 C 6592.0361328125 3568.56298828125 6590.10205078125 3567.925537109375 6588.64453125 3567.138427734375 C 6587.8408203125 3566.7041015625 6587.17919921875 3566.221923828125 6586.677734375 3565.704833984375 C 6585.62890625 3564.623046875 6585.40869140625 3563.531005859375 6585.40869140625 3562.8056640625 L 6585.40869140625 3561.548095703125 L 6585.408203125 3560.287353515625 C 6585.408203125 3559.303466796875 6585.775390625 3557.85107421875 6587.52490234375 3556.51904296875 C 6587.7705078125 3556.331787109375 6588.02685546875 3556.15966796875 6588.2841796875 3556.00244140625 C 6587.9306640625 3555.09228515625 6587.73876953125 3554.11962890625 6587.73876953125 3553.16064453125 C 6587.73876953125 3551.45703125 6588.34033203125 3549.917724609375 6589.43310546875 3548.82666015625 C 6590.486328125 3547.775390625 6591.91845703125 3547.1962890625 6593.466796875 3547.1962890625 L 6593.4765625 3547.1962890625 C 6594.115234375 3547.1962890625 6594.734375 3547.294677734375 6595.31494140625 3547.484375 C 6595.5947265625 3546.977783203125 6595.94287109375 3546.5146484375 6596.3564453125 3546.101806640625 C 6597.51025390625 3544.94970703125 6599.07958984375 3544.31005859375 6600.78125 3544.296875 L 6600.78662109375 3544.296630859375 L 6600.8349609375 3544.296630859375 L 6600.919921875 3544.296630859375 L 6600.9287109375 3544.297119140625 C 6602.619140625 3544.3173828125 6604.17724609375 3544.95654296875 6605.32421875 3546.101806640625 C 6605.73779296875 3546.5146484375 6606.0859375 3546.977783203125 6606.36572265625 3547.484375 C 6606.9462890625 3547.294677734375 6607.5654296875 3547.1962890625 6608.2041015625 3547.1962890625 L 6608.212890625 3547.1962890625 C 6609.76123046875 3547.1962890625 6611.1943359375 3547.775146484375 6612.2470703125 3548.826416015625 C 6613.33984375 3549.91748046875 6613.94189453125 3551.456787109375 6613.94189453125 3553.16064453125 C 6613.94189453125 3554.119384765625 6613.75 3555.092041015625 6613.396484375 3556.002197265625 C 6613.65380859375 3556.159423828125 6613.91015625 3556.331787109375 6614.15625 3556.51904296875 C 6615.90576171875 3557.85107421875 6616.27294921875 3559.303466796875 6616.27294921875 3560.287353515625 C 6616.27294921875 3560.425537109375 6616.2724609375 3560.9873046875 6616.2724609375 3561.548828125 C 6616.27197265625 3562.108642578125 6616.27197265625 3562.66796875 6616.27197265625 3562.8056640625 C 6616.27197265625 3563.531005859375 6616.0517578125 3564.623046875 6615.0029296875 3565.704833984375 C 6614.501953125 3566.221923828125 6613.83984375 3566.7041015625 6613.0361328125 3567.138427734375 C 6611.57861328125 3567.925537109375 6609.64453125 3568.563232421875 6607.4423828125 3568.982177734375 L 6607.4423828125 3568.98583984375 C 6605.521484375 3569.351318359375 6603.43115234375 3569.54638671875 6601.2294921875 3569.565185546875 C 6601.20068359375 3569.565673828125 6601.1728515625 3569.56591796875 6601.14599609375 3569.56591796875 L 6601.060546875 3569.566650390625 C 6600.99560546875 3569.567138671875 6600.9306640625 3569.567626953125 6600.865234375 3569.567626953125 Z" stroke="none" fill="#fff"/>
      </g>
      <g id="Group_10360" data-name="Group 10360" transform="translate(16069.415 6063.848)">
        <path id="Path_8128" data-name="Path 8128" d="M422.077,950.762h-1.5v-.542c0-.918-.26-2.459-2-2.459-1.805,0-2,1.719-2,2.459v.542h-1.5v-.542c0-2.405,1.374-3.959,3.5-3.959s3.5,1.554,3.5,3.959Z" transform="translate(-413.575 -946.261)" fill="#fff"/>
        <path id="Path_8129" data-name="Path 8129" d="M421.065,954.634h-7a1.5,1.5,0,0,0-1.5,1.5v5a1.5,1.5,0,0,0,1.5,1.5h7a1.5,1.5,0,0,0,1.5-1.5v-5A1.5,1.5,0,0,0,421.065,954.634Zm-3,4.363v1.139a.5.5,0,0,1-1,0V959a1,1,0,1,1,1,0Z" transform="translate(-412.563 -949.633)" fill="#fff"/>
      </g>
      <g id="Group_10383" data-name="Group 10383" transform="translate(16069.415 6122.377)">
        <path id="Path_8128-2" data-name="Path 8128" d="M422.077,950.762h-1.5v-.542c0-.918-.26-2.459-2-2.459-1.805,0-2,1.719-2,2.459v.542h-1.5v-.542c0-2.405,1.374-3.959,3.5-3.959s3.5,1.554,3.5,3.959Z" transform="translate(-413.575 -946.261)" fill="#fff"/>
        <path id="Path_8129-2" data-name="Path 8129" d="M421.065,954.634h-7a1.5,1.5,0,0,0-1.5,1.5v5a1.5,1.5,0,0,0,1.5,1.5h7a1.5,1.5,0,0,0,1.5-1.5v-5A1.5,1.5,0,0,0,421.065,954.634Zm-3,4.363v1.139a.5.5,0,0,1-1,0V959a1,1,0,1,1,1,0Z" transform="translate(-412.563 -949.633)" fill="#fff"/>
      </g>
      <g id="Group_10361" data-name="Group 10361" transform="translate(16069.796 6095.944)">
        <path id="Path_8149" data-name="Path 8149" d="M416.676,781.844l-2.283-2.282-.774.774,3.056,3.056,6.565-6.565-.774-.774Z" transform="translate(-413.62 -776.052)" fill="#fff" stroke="#fff" stroke-miterlimit="10" stroke-width="2"/>
      </g>
      <rect id="Rectangle_3524" data-name="Rectangle 3524" width="194" height="7" transform="translate(15900 6038)" fill="#fff"/>
      <rect id="Rectangle_3531" data-name="Rectangle 3531" width="83" height="7" transform="translate(15900 6025)" fill="#fff"/>
      <rect id="Rectangle_3525" data-name="Rectangle 3525" width="101" height="7" transform="translate(15900 6064)" fill="#f2f2f2"/>
      <rect id="Rectangle_3526" data-name="Rectangle 3526" width="140" height="7" transform="translate(15900 6093)" fill="#f2f2f2"/>
      <rect id="Rectangle_3527" data-name="Rectangle 3527" width="80" height="7" transform="translate(15900 6122)" fill="#f2f2f2"/>
      <path id="Rectangle_3528" data-name="Rectangle 3528" d="M5,0h5a0,0,0,0,1,0,0V23a0,0,0,0,1,0,0H5a5,5,0,0,1-5-5V5A5,5,0,0,1,5,0Z" transform="translate(15875 6059)" fill="#c1272d"/>
      <path id="Rectangle_3529" data-name="Rectangle 3529" d="M5,0h5a0,0,0,0,1,0,0V23a0,0,0,0,1,0,0H5a5,5,0,0,1-5-5V5A5,5,0,0,1,5,0Z" transform="translate(15875 6088)" fill="#8cc63f"/>
      <path id="Rectangle_3530" data-name="Rectangle 3530" d="M5,0h5a0,0,0,0,1,0,0V22a0,0,0,0,1,0,0H5a5,5,0,0,1-5-5V5A5,5,0,0,1,5,0Z" transform="translate(15875 6118)" fill="#ead630"/>
    </g>
    <g id="Group_10390" data-name="Group 10390" transform="translate(-4.924 -26.852)">
      <path id="Path_8280" data-name="Path 8280" d="M1360.446,278.387l-8.9-4.274V266.86l-8.812-8.5a2.216,2.216,0,0,1-.464-2.5,3.431,3.431,0,0,1,3.2-1.715h21.673a3.431,3.431,0,0,1,3.2,1.715,2.181,2.181,0,0,1-.4,2.427l-9.5,9.262Z" transform="translate(-830.065 55.465)" fill="#c1272d"/>
      <g id="Group_10379" data-name="Group 10379" transform="translate(207.488 53.429)">
        <path id="Path_8264" data-name="Path 8264" d="M3757.5,3117h23.726" transform="translate(-3422.226 -2848.94)" fill="none" stroke="#9a9a9a" stroke-linecap="round" stroke-width="2"/>
        <path id="Path_8265" data-name="Path 8265" d="M3803.663,3138.63l5.8-5.8-5.8-5.8" transform="translate(-3450.461 -2864.772)" fill="none" stroke="#9a9a9a" stroke-linecap="round" stroke-linejoin="round" stroke-width="2"/>
      </g>
    </g>
    <g id="Group_10389" data-name="Group 10389" transform="translate(5.076 -5.924)">
      <path id="Path_8352" data-name="Path 8352" d="M1360.446,278.387l-8.9-4.274V266.86l-8.812-8.5a2.216,2.216,0,0,1-.464-2.5,3.431,3.431,0,0,1,3.2-1.715h21.673a3.431,3.431,0,0,1,3.2,1.715,2.181,2.181,0,0,1-.4,2.427l-9.5,9.262Z" transform="translate(-850.146 0.3)" fill="#ead630"/>
      <g id="Group_10386" data-name="Group 10386" transform="translate(187.762 -1.492)">
        <path id="Path_8264-2" data-name="Path 8264" d="M3757.5,3117h23.726" transform="translate(-3422.226 -2848.94)" fill="none" stroke="#9a9a9a" stroke-linecap="round" stroke-width="2"/>
        <path id="Path_8265-2" data-name="Path 8265" d="M3803.663,3138.63l5.8-5.8-5.8-5.8" transform="translate(-3450.461 -2864.772)" fill="none" stroke="#9a9a9a" stroke-linecap="round" stroke-linejoin="round" stroke-width="2"/>
      </g>
    </g>
    <g id="Group_10388" data-name="Group 10388" transform="translate(15.404 17.585)">
      <path id="Path_8351" data-name="Path 8351" d="M1360.446,278.387l-8.9-4.274V266.86l-8.812-8.5a2.216,2.216,0,0,1-.464-2.5,3.431,3.431,0,0,1,3.2-1.715h21.673a3.431,3.431,0,0,1,3.2,1.715,2.181,2.181,0,0,1-.4,2.427l-9.5,9.262Z" transform="translate(-870.475 -57.447)" fill="#8cc63f"/>
      <g id="Group_10387" data-name="Group 10387" transform="translate(167.244 -56.657)">
        <path id="Path_8264-3" data-name="Path 8264" d="M3757.5,3117h23.726" transform="translate(-3422.226 -2848.94)" fill="none" stroke="#9a9a9a" stroke-linecap="round" stroke-width="2"/>
        <path id="Path_8265-3" data-name="Path 8265" d="M3803.663,3138.63l5.8-5.8-5.8-5.8" transform="translate(-3450.461 -2864.772)" fill="none" stroke="#9a9a9a" stroke-linecap="round" stroke-linejoin="round" stroke-width="2"/>
      </g>
    </g>
    <g id="Group_10410" data-name="Group 10410" transform="translate(0 -10)">
      <g id="Group_10403" data-name="Group 10403" transform="translate(-20.214 18.923)">
        <path id="Path_8365" data-name="Path 8365" d="M.067,0S-2.282,59.842,20.922,48.032s12.767-16.5,38.96,0" transform="translate(452.203 318.478) rotate(-90)" fill="none" stroke="#9a9a9a" stroke-miterlimit="10" stroke-width="2" stroke-dasharray="4"/>
        <path id="Path_8366" data-name="Path 8366" d="M69.826,0s.234,41.623-22.685,33.749S11.591,11.66,0,31.534" transform="translate(466.861 237.6) rotate(-90)" fill="none" stroke="#9a9a9a" stroke-miterlimit="10" stroke-width="2" stroke-dasharray="4"/>
        <path id="Path_8367" data-name="Path 8367" d="M15.438,0S2.618,17.771,3.773,30.931,1.251,51.814,1.251,51.814" transform="translate(449.921 246.509) rotate(-90)" fill="none" stroke="#9a9a9a" stroke-miterlimit="10" stroke-width="2" stroke-dasharray="4"/>
        <path id="Path_8368" data-name="Path 8368" d="M.151,0S-2.515,38.956,14.557,38.956,46.6,69.7,43.322,73.455" transform="translate(425.745 298.079) rotate(-90)" fill="none" stroke="#9a9a9a" stroke-miterlimit="10" stroke-width="2" stroke-dasharray="4"/>
        <path id="Path_8369" data-name="Path 8369" d="M16.531,0S-3.05,35.671,13.919,60.994,27.583,77.8,34.43,124.15" transform="translate(376.359 282.985) rotate(-90)" fill="none" stroke="#9a9a9a" stroke-miterlimit="10" stroke-width="2" stroke-dasharray="4"/>
        <path id="Path_8370" data-name="Path 8370" d="M40.949,0s9.6,15.562,2.883,30.393c-.557,7.108-4.215,9.476-13.9,18C22.405,56.019,4.648,57.536,4.648,74.785" transform="translate(413.106 239.968) rotate(-90)" fill="none" stroke="#9a9a9a" stroke-miterlimit="10" stroke-width="2" stroke-dasharray="4"/>
      </g>
      <g id="Group_10404" data-name="Group 10404" transform="translate(7 11)">
        <rect id="Rectangle_3532" data-name="Rectangle 3532" width="21" height="23" transform="translate(416 164)" fill="#d6d6d6"/>
        <rect id="Rectangle_3533" data-name="Rectangle 3533" width="15" height="2" transform="translate(419 168)" fill="#9a9a9a"/>
        <rect id="Rectangle_3534" data-name="Rectangle 3534" width="15" height="2" transform="translate(419 173)" fill="#9a9a9a"/>
        <rect id="Rectangle_3535" data-name="Rectangle 3535" width="10" height="2" transform="translate(419 178)" fill="#9a9a9a"/>
      </g>
      <g id="Group_10405" data-name="Group 10405" transform="translate(-47 43)">
        <rect id="Rectangle_3532-2" data-name="Rectangle 3532" width="21" height="23" transform="translate(416 164)" fill="#d6d6d6"/>
        <rect id="Rectangle_3533-2" data-name="Rectangle 3533" width="15" height="2" transform="translate(419 168)" fill="#9a9a9a"/>
        <rect id="Rectangle_3534-2" data-name="Rectangle 3534" width="15" height="2" transform="translate(419 173)" fill="#9a9a9a"/>
        <rect id="Rectangle_3535-2" data-name="Rectangle 3535" width="10" height="2" transform="translate(419 178)" fill="#9a9a9a"/>
      </g>
      <g id="Group_10406" data-name="Group 10406" transform="translate(-11 70)">
        <rect id="Rectangle_3532-3" data-name="Rectangle 3532" width="21" height="23" transform="translate(416 164)" fill="#d6d6d6"/>
        <rect id="Rectangle_3533-3" data-name="Rectangle 3533" width="15" height="2" transform="translate(419 168)" fill="#9a9a9a"/>
        <rect id="Rectangle_3534-3" data-name="Rectangle 3534" width="15" height="2" transform="translate(419 173)" fill="#9a9a9a"/>
        <rect id="Rectangle_3535-3" data-name="Rectangle 3535" width="10" height="2" transform="translate(419 178)" fill="#9a9a9a"/>
      </g>
      <g id="Group_10407" data-name="Group 10407" transform="translate(-84 109)">
        <rect id="Rectangle_3532-4" data-name="Rectangle 3532" width="21" height="23" transform="translate(416 164)" fill="#d6d6d6"/>
        <rect id="Rectangle_3533-4" data-name="Rectangle 3533" width="15" height="2" transform="translate(419 168)" fill="#9a9a9a"/>
        <rect id="Rectangle_3534-4" data-name="Rectangle 3534" width="15" height="2" transform="translate(419 173)" fill="#9a9a9a"/>
        <rect id="Rectangle_3535-4" data-name="Rectangle 3535" width="10" height="2" transform="translate(419 178)" fill="#9a9a9a"/>
      </g>
      <g id="Group_10408" data-name="Group 10408" transform="translate(-34 143)">
        <rect id="Rectangle_3532-5" data-name="Rectangle 3532" width="21" height="23" transform="translate(416 164)" fill="#d6d6d6"/>
        <rect id="Rectangle_3533-5" data-name="Rectangle 3533" width="15" height="2" transform="translate(419 168)" fill="#9a9a9a"/>
        <rect id="Rectangle_3534-5" data-name="Rectangle 3534" width="15" height="2" transform="translate(419 173)" fill="#9a9a9a"/>
        <rect id="Rectangle_3535-5" data-name="Rectangle 3535" width="10" height="2" transform="translate(419 178)" fill="#9a9a9a"/>
      </g>
      <g id="Group_10409" data-name="Group 10409" transform="translate(-8 161)">
        <rect id="Rectangle_3532-6" data-name="Rectangle 3532" width="21" height="23" transform="translate(416 164)" fill="#d6d6d6"/>
        <rect id="Rectangle_3533-6" data-name="Rectangle 3533" width="15" height="2" transform="translate(419 168)" fill="#9a9a9a"/>
        <rect id="Rectangle_3534-6" data-name="Rectangle 3534" width="15" height="2" transform="translate(419 173)" fill="#9a9a9a"/>
        <rect id="Rectangle_3535-6" data-name="Rectangle 3535" width="10" height="2" transform="translate(419 178)" fill="#9a9a9a"/>
      </g>
    </g>
  </g>
</svg>
