<svg xmlns="http://www.w3.org/2000/svg" width="35.82" height="24.3" viewBox="0 0 35.82 24.3">
  <g id="Share-Data-icon" transform="translate(446.911 -4696.1)">
    <g id="Group_3854" data-name="Group 3854" transform="translate(-446.911 4703.264)">
      <g id="Group_3848" data-name="Group 3848" transform="translate(-0.001 0)">
        <rect id="Rectangle_1994" data-name="Rectangle 1994" width="35.82" height="4.736" transform="translate(0 0)" fill="#9a9a9a"/>
        <rect id="Rectangle_1995" data-name="Rectangle 1995" width="21.997" height="1.592" rx="0.796" transform="translate(2.388 1.572)" fill="#d6d6d6"/>
      </g>
    </g>
    <g id="Group_10521" data-name="Group 10521" transform="translate(-446.911 4696.1)">
      <g id="Group_3848-2" data-name="Group 3848" transform="translate(-0.001 0)">
        <rect id="Rectangle_1994-2" data-name="Rectangle 1994" width="35.82" height="4.736" transform="translate(0 0)" fill="#9a9a9a"/>
        <rect id="Rectangle_1995-2" data-name="Rectangle 1995" width="21.997" height="1.592" rx="0.796" transform="translate(2.388 1.572)" fill="#d6d6d6"/>
      </g>
    </g>
    <g id="Group_3866" data-name="Group 3866" transform="translate(-9.321 -31)">
      <g id="Layer_2" data-name="Layer 2" transform="translate(-433 4739)">
        <g id="Wizard_Modal" data-name="Wizard/Modal" transform="translate(0 0)">
          <g id="Path_1996" data-name="Path 1996" transform="translate(-0.002 -0.003)" fill="#fff">
            <path d="M 12.82893466949463 11.40395545959473 C 11.62986469268799 11.40395545959473 10.77929401397705 10.90185546875 10.09584426879883 10.49841594696045 C 9.948504447937012 10.41143608093262 9.809334754943848 10.32928562164307 9.672464370727539 10.25499534606934 C 8.594326972961426 9.670135498046875 1.434822559356689 5.203989505767822 0.6923529505729675 4.708180904388428 C 0.0452132448554039 4.280117511749268 -0.8304145336151123 3.600118637084961 -0.9768655300140381 2.637015819549561 C -1.033075571060181 2.267295837402344 -1.001495480537415 1.705865740776062 -0.5317655205726624 1.130745768547058 C -0.06609551608562469 0.5614457726478577 0.6287244558334351 0.2482357621192932 1.425164461135864 0.2482357621192932 C 1.839691042900085 0.2482357621192932 2.288593292236328 0.3323408663272858 2.767386913299561 0.4991612136363983 C 3.168653249740601 0.001521904836408794 3.817141056060791 -0.2835242450237274 4.549834251403809 -0.2835242450237274 C 5.244222640991211 -0.2835242450237274 5.878841876983643 -0.1346146464347839 6.425693988800049 0.152662917971611 C 6.852096557617188 -0.1485503613948822 7.318563938140869 -0.2964642345905304 7.835304260253906 -0.2964642345905304 C 8.548384666442871 -0.2964642345905304 9.303074836730957 -0.02476423606276512 10.44018459320068 0.6413257718086243 C 11.0667085647583 1.0080406665802 11.62191581726074 1.322387218475342 12.04586410522461 1.550445914268494 C 12.09236812591553 1.574916839599609 12.13495922088623 1.596204161643982 12.17497444152832 1.616265773773193 C 12.23557472229004 1.646645784378052 12.2917947769165 1.675025820732117 12.3464241027832 1.704585790634155 L 13.32057094573975 2.231791973114014 C 13.88500022888184 2.03576135635376 14.30978679656982 1.824150562286377 14.43590545654297 1.758923530578613 C 14.73520374298096 1.553748488426208 16.28435897827148 0.4944027364253998 16.82333374023438 0.1787657588720322 C 16.88306427001953 0.1436557620763779 16.94359397888184 0.1078257635235786 17.00372505187988 0.07223576307296753 C 17.8914852142334 -0.4532042443752289 18.80948448181152 -0.9965442419052124 20.13786506652832 -0.9965442419052124 C 20.82017517089844 -0.9965442419052124 21.54319381713867 -0.8512642383575439 22.34824371337891 -0.5523942112922668 C 23.81573486328125 -0.007804236840456724 26.91552543640137 1.34721577167511 27.0467643737793 1.404635787010193 L 27.99544525146484 1.819685816764832 L 27.54756355285645 2.753315687179565 L 24.60526466369629 8.88670539855957 L 24.12659454345703 9.884525299072266 L 23.1822452545166 9.307496070861816 L 21.68902015686035 8.395088195800781 C 21.31618881225586 8.171650886535645 21.16061973571777 8.125805854797363 21.04194450378418 8.125805854797363 C 20.8808536529541 8.125805854797363 20.6330738067627 8.207836151123047 20.28444480895996 8.376605987548828 C 20.08132362365723 8.475325584411621 19.79201507568359 8.616425514221191 19.45339393615723 8.781585693359375 C 18.03573417663574 9.473005294799805 15.89334487915039 10.51789569854736 15.24171447753906 10.81201553344727 C 14.37011432647705 11.20977592468262 13.57966423034668 11.40395545959473 12.82893466949463 11.40395545959473 Z" stroke="none"/>
            <path d="M 20.13785743713379 0.003458023071289062 C 19.00510787963867 0.003511428833007812 18.22734832763672 0.513463020324707 17.32868576049805 1.041675567626953 C 16.76809310913086 1.369976043701172 14.95419406890869 2.616065979003906 14.95419406890869 2.616065979003906 C 14.95419406890869 2.616065979003906 13.14236450195312 3.611275672912598 11.3501443862915 3.611275672912598 C 8.605033874511719 3.611275672912598 8.121885299682617 3.757875919342041 8.121885299682617 4.583785533905029 C 8.121885299682617 5.488155841827393 9.91203498840332 5.554225921630859 9.91926383972168 5.554225921630859 L 14.32444477081299 5.554225921630859 C 15.82139492034912 5.554225921630859 17.92229461669922 4.743805885314941 17.92229461669922 4.743805885314941 C 17.92229461669922 4.743805885314941 16.14246368408203 6.526725769042969 14.32444477081299 6.526725769042969 L 9.913064956665039 6.526725769042969 C 8.933334350585938 6.507115840911865 7.088464736938477 6.078675746917725 7.092594146728516 4.589975833892822 C 7.092594146728516 2.644965648651123 8.973604202270508 2.644965648651123 11.35427474975586 2.644965648651123 C 11.52793407440186 2.641875743865967 11.70085430145264 2.621475696563721 11.87046432495117 2.58405590057373 C 11.78271484375 2.536565780639648 11.68980407714844 2.493206024169922 11.57624435424805 2.43332576751709 C 11.15193462371826 2.205175399780273 10.58205413818359 1.883075714111328 9.934743881225586 1.504185676574707 C 9.04759407043457 0.9845180511474609 8.385980606079102 0.7034826278686523 7.835306167602539 0.7035408020019531 C 7.332469940185547 0.7035932540893555 6.92210578918457 0.9380197525024414 6.517555236816406 1.439146041870117 C 5.927034378051758 0.8713359832763672 5.184755325317383 0.7164754867553711 4.549835205078125 0.7164754867553711 C 3.832334518432617 0.7164754867553711 3.224254608154297 1.15833568572998 3.395633697509766 1.88100528717041 C 2.559001922607422 1.417043685913086 1.915977478027344 1.24824047088623 1.425165176391602 1.24824047088623 C 0.83367919921875 1.24824047088623 0.4633388519287109 1.493624687194824 0.2427349090576172 1.76331615447998 C -0.291015625 2.416815757751465 0.07342529296875 3.100245952606201 1.246204376220703 3.875565528869629 C 1.993654251098633 4.375245571136475 9.140844345092773 8.828946113586426 10.14948463439941 9.376106262207031 C 10.94691371917725 9.808915138244629 11.68371391296387 10.40395641326904 12.82893848419189 10.40395641326904 C 13.38283252716064 10.40395641326904 14.0323657989502 10.26469802856445 14.83031463623047 9.900555610656738 C 15.6262845993042 9.541285514831543 18.81634521484375 7.978265762329102 19.84872436523438 7.476525783538818 C 20.34506988525391 7.23624849319458 20.71043014526367 7.125801563262939 21.04194450378418 7.125801563262939 C 21.42547988891602 7.125801563262939 21.76369094848633 7.273699760437012 22.20668411254883 7.539495468139648 L 23.70364379882812 8.454185485839844 L 26.64593505859375 2.320796012878418 C 26.64593505859375 2.320796012878418 23.45793533325195 0.9260454177856445 22.00021362304688 0.3850860595703125 C 21.27018547058105 0.1140727996826172 20.66556930541992 0.0034332275390625 20.13785743713379 0.003458023071289062 M 20.13774490356445 -1.996543884277344 L 20.13777542114258 -1.996543884277344 C 20.94091415405273 -1.996574401855469 21.77780532836914 -1.830843925476074 22.69626426696777 -1.489884376525879 C 24.19010543823242 -0.9355239868164062 27.31526374816895 0.4305953979492188 27.44757461547852 0.4884853363037109 L 29.34493446350098 1.318575859069824 L 28.44918441772461 3.185845851898193 L 25.50689506530762 9.319235801696777 L 24.5495548248291 11.314866065979 L 22.66084480285645 10.16080570220947 L 21.17202949523926 9.251092910766602 C 21.09781837463379 9.206671714782715 21.04215240478516 9.175512313842773 21.00113677978516 9.153775215148926 C 20.94028854370117 9.17641544342041 20.84918785095215 9.214228630065918 20.72017478942871 9.27668571472168 C 20.51874542236328 9.37458610534668 20.2298641204834 9.515476226806641 19.89175415039062 9.680376052856445 C 18.4726734161377 10.37249946594238 16.3300952911377 11.4174690246582 15.65859222412109 11.72098731994629 C 14.65093994140625 12.18055057525635 13.72533226013184 12.40395545959473 12.82893466949463 12.40395545959473 C 11.35673427581787 12.40395545959473 10.33415412902832 11.80032539367676 9.587493896484375 11.35956573486328 C 9.448135375976562 11.27729606628418 9.316493988037109 11.19958591461182 9.1954345703125 11.13388538360596 C 8.107780456542969 10.54385948181152 0.9143390655517578 6.057562351226807 0.1412715911865234 5.542640686035156 C -0.6649284362792969 5.009436130523682 -1.759220123291016 4.144018650054932 -1.965505599975586 2.787325859069824 C -2.088014602661133 1.981625556945801 -1.853885650634766 1.168655395507812 -1.306264877319336 0.4981660842895508 C -0.6466255187988281 -0.3082637786865234 0.3230838775634766 -0.7517642974853516 1.425165176391602 -0.7517642974853516 C 1.773550033569336 -0.7517642974853516 2.130157470703125 -0.70904541015625 2.498069763183594 -0.6226797103881836 C 3.057754516601562 -1.048325538635254 3.774332046508789 -1.283524513244629 4.549835205078125 -1.283524513244629 C 5.19935417175293 -1.283524513244629 5.809633255004883 -1.176684379577637 6.365760803222656 -0.9686975479125977 C 6.821134567260742 -1.186678886413574 7.311811447143555 -1.296402931213379 7.835063934326172 -1.296463966369629 C 8.95588493347168 -1.296564102172852 9.992433547973633 -0.7798938751220703 10.94562435150146 -0.2215337753295898 C 11.55043888092041 0.1324806213378906 12.10752487182617 0.4479885101318359 12.51510238647461 0.6673650741577148 C 12.55391407012939 0.6877231597900391 12.58957862854004 0.7054901123046875 12.62311458587646 0.7223052978515625 C 12.68214416503906 0.7518959045410156 12.74905490875244 0.785435676574707 12.82239437103271 0.8251256942749023 L 13.39641761779785 1.135785102844238 C 13.61213684082031 1.048421859741211 13.7929573059082 0.9646139144897461 13.92000770568848 0.9001712799072266 C 14.33805751800537 0.6138038635253906 15.77230548858643 -0.3645839691162109 16.31798553466797 -0.6841545104980469 C 16.37541580200195 -0.7179145812988281 16.43503570556641 -0.753204345703125 16.49425506591797 -0.7882537841796875 C 17.40373420715332 -1.326543807983398 18.53561401367188 -1.996463775634766 20.13774490356445 -1.996543884277344 Z" stroke="none" fill="#fff"/>
          </g>
        </g>
      </g>
      <g id="Layer_2-2" data-name="Layer 2" transform="translate(-433 4739)">
        <g id="Wizard_Modal-2" data-name="Wizard/Modal" transform="translate(0 0)">
          <path id="Path_1996-2" data-name="Path 1996" d="M.243,1.763c.4-.493,1.308-.905,3.153.118C3.224,1.158,3.832.716,4.55.716a2.767,2.767,0,0,1,1.968.723C7.365.389,8.238.51,9.935,1.5c.647.379,1.217.7,1.641.929.114.06.206.1.294.151a2.612,2.612,0,0,1-.516.061c-2.381,0-4.262,0-4.262,1.945,0,1.489,1.841,1.917,2.82,1.937h4.411c1.818,0,3.6-1.783,3.6-1.783a12.641,12.641,0,0,1-3.6.81H9.919c-.007,0-1.8-.066-1.8-.97,0-.826.483-.973,3.228-.973a8.709,8.709,0,0,0,3.6-1s1.814-1.246,2.374-1.574C18.646.267,19.7-.468,22,.385c1.458.541,4.646,1.936,4.646,1.936L23.7,8.454l-1.5-.915a2,2,0,0,0-2.358-.063c-1.032.5-4.222,2.065-5.018,2.424-2.448,1.117-3.5.118-4.681-.524-1.009-.547-8.156-5-8.9-5.5C.073,3.1-.291,2.417.243,1.763Z" transform="translate(-0.002 -0.003)" fill="#335ca4"/>
        </g>
      </g>
    </g>
  </g>
</svg>
