<svg xmlns="http://www.w3.org/2000/svg" xmlns:xlink="http://www.w3.org/1999/xlink" width="142" height="142" viewBox="0 0 142 142"><defs><style>.a,.b,.c{fill:#cadff2;}.a{opacity:0.3;}.b{opacity:0.6;}.d{fill:#2f7ff4;}.e{opacity:0.15;}.f,.g,.j{fill:none;stroke-linecap:round;stroke-linejoin:round;}.f,.g{stroke:#fff;}.f,.j{stroke-width:2px;}.g{stroke-width:3px;}.h{fill:#335ca5;}.i,.l{fill:#fff;}.j{stroke:#335ca5;stroke-miterlimit:10;}.k,.l{stroke:none;}.m{filter:url(#a);}</style><filter id="a" x="69" y="69" width="71.941" height="71.591" filterUnits="userSpaceOnUse"><feOffset dx="-2" dy="3" input="SourceAlpha"/><feGaussianBlur stdDeviation="2" result="b"/><feFlood flood-opacity="0.302"/><feComposite operator="in" in2="b"/><feComposite in="SourceGraphic"/></filter></defs><g transform="translate(460 -4624)"><g transform="translate(535 23)"><circle class="a" cx="71" cy="71" r="71" transform="translate(-995 4601)"/><circle class="b" cx="61" cy="61" r="61" transform="translate(-985 4611)"/><circle class="c" cx="51" cy="51" r="51" transform="translate(-975 4621)"/></g><g transform="translate(-451.385 4637.755)"><path class="d" d="M6,2H44.345V18.27A30.953,30.953,0,0,1,25.168,46.245,30.949,30.949,0,0,1,6,18.27Z" transform="translate(0 0)"/><path class="e" d="M6,2V18.27A30.949,30.949,0,0,0,25.168,46.245h0V2Z" transform="translate(0 0)"/><path class="f" d="M6,2H44.345V18.27A30.952,30.952,0,0,1,25.168,46.245,30.949,30.949,0,0,1,6,18.27Z" transform="translate(0 0)"/><path class="g" d="M22,25.162,28.637,31.8,39.7,20" transform="translate(-4.201 -4.727)"/></g><g class="h" transform="translate(-7014.408 1118.703)"><path class="k" d="M 6625.361328125 3606.462646484375 L 6625.287109375 3606.462646484375 L 6625.21533203125 3606.462646484375 C 6625.05224609375 3606.462646484375 6624.890625 3606.46142578125 6624.7294921875 3606.460205078125 C 6624.62255859375 3606.45947265625 6624.515625 3606.458740234375 6624.40869140625 3606.458251953125 C 6624.3505859375 3606.458251953125 6624.291015625 3606.4580078125 6624.23388671875 3606.456787109375 C 6618.1025390625 3606.405517578125 6612.30126953125 3605.867919921875 6606.9912109375 3604.859130859375 L 6606.99169921875 3604.846923828125 C 6599.60888671875 3603.4423828125 6594.9765625 3601.48291015625 6592.38916015625 3600.08544921875 C 6590.625 3599.132568359375 6589.2255859375 3598.12841796875 6588.22998046875 3597.10107421875 C 6587.02294921875 3595.856201171875 6586.4111328125 3594.578369140625 6586.4111328125 3593.30322265625 C 6586.4111328125 3592.89501953125 6586.41015625 3591.23486328125 6586.40966796875 3589.573486328125 C 6586.4091796875 3587.908935546875 6586.408203125 3586.242919921875 6586.408203125 3585.832763671875 C 6586.408203125 3583.8564453125 6587.60595703125 3581.9423828125 6589.9677734375 3580.1435546875 C 6592.11328125 3578.509521484375 6594.716796875 3577.334716796875 6596.525390625 3576.63623046875 C 6596.90673828125 3576.486083984375 6597.2392578125 3576.3603515625 6597.5478515625 3576.25048828125 C 6597.55224609375 3576.118408203125 6597.53662109375 3575.9033203125 6597.4638671875 3575.5986328125 C 6596.31298828125 3574.288818359375 6595.33251953125 3572.6904296875 6594.61181640625 3570.94384765625 C 6593.7685546875 3568.901123046875 6593.3232421875 3566.739501953125 6593.3232421875 3564.692138671875 C 6593.3232421875 3561.436767578125 6594.361328125 3558.679443359375 6596.3251953125 3556.71826171875 C 6598.1455078125 3554.900390625 6600.66357421875 3553.8994140625 6603.416015625 3553.8994140625 L 6603.43017578125 3553.8994140625 L 6603.44384765625 3553.8994140625 C 6606.197265625 3553.8994140625 6608.7138671875 3554.9013671875 6610.52978515625 3556.720458984375 C 6612.48583984375 3558.679931640625 6613.52001953125 3561.4365234375 6613.52001953125 3564.692138671875 C 6613.52001953125 3566.74658203125 6613.07568359375 3568.914306640625 6612.2353515625 3570.961181640625 C 6611.5048828125 3572.74072265625 6610.5078125 3574.361083984375 6609.33740234375 3575.6767578125 C 6609.28515625 3575.9052734375 6609.29345703125 3576.04833984375 6609.3125 3576.106689453125 L 6609.62939453125 3577.0634765625 C 6610.9716796875 3576.1181640625 6612.39306640625 3575.333740234375 6613.60498046875 3574.736572265625 C 6615.05908203125 3573.992919921875 6616.65283203125 3573.29248046875 6618.21875 3572.70947265625 C 6618.27685546875 3572.676025390625 6618.423828125 3572.574951171875 6618.5009765625 3572.3740234375 C 6618.5078125 3572.147705078125 6618.48095703125 3571.81689453125 6618.361328125 3571.35595703125 C 6616.943359375 3569.76318359375 6615.73486328125 3567.804931640625 6614.849609375 3565.65966796875 C 6613.833984375 3563.19775390625 6613.296875 3560.595458984375 6613.296875 3558.134033203125 C 6613.296875 3554.24755859375 6614.529296875 3550.962646484375 6616.861328125 3548.634521484375 C 6619.0126953125 3546.48681640625 6621.9912109375 3545.302001953125 6625.2509765625 3545.296875 L 6625.2509765625 3545.296875 L 6625.271484375 3545.296875 L 6625.333984375 3545.296875 L 6625.33447265625 3545.296875 C 6628.59033203125 3545.303955078125 6631.5654296875 3546.48876953125 6633.71484375 3548.634521484375 C 6636.04638671875 3550.962646484375 6637.27880859375 3554.24755859375 6637.27880859375 3558.134033203125 C 6637.27880859375 3560.59619140625 6636.7421875 3563.198486328125 6635.7265625 3565.65966796875 C 6634.84130859375 3567.804443359375 6633.63330078125 3569.76171875 6632.2158203125 3571.353515625 C 6632.09423828125 3571.82080078125 6632.0673828125 3572.150390625 6632.07470703125 3572.372314453125 C 6632.1513671875 3572.574462890625 6632.298828125 3572.676025390625 6632.35693359375 3572.70947265625 C 6633.91455078125 3573.289306640625 6635.50830078125 3573.9892578125 6636.97119140625 3574.736083984375 C 6638.18212890625 3575.333251953125 6639.603515625 3576.1181640625 6640.94580078125 3577.063232421875 L 6641.26416015625 3576.10498046875 C 6641.283203125 3576.047607421875 6641.29052734375 3575.905517578125 6641.23828125 3575.677734375 C 6640.06787109375 3574.361328125 6639.0712890625 3572.74072265625 6638.34033203125 3570.96142578125 C 6637.4990234375 3568.913818359375 6637.0546875 3566.74609375 6637.0546875 3564.692138671875 C 6637.0546875 3561.4365234375 6638.0888671875 3558.679931640625 6640.04541015625 3556.72021484375 C 6641.86181640625 3554.901123046875 6644.37841796875 3553.8994140625 6647.1318359375 3553.8994140625 L 6647.14599609375 3553.8994140625 L 6647.15966796875 3553.8994140625 C 6649.912109375 3553.8994140625 6652.43017578125 3554.900390625 6654.25048828125 3556.718017578125 C 6656.21533203125 3558.67919921875 6657.25341796875 3561.436767578125 6657.25341796875 3564.692138671875 C 6657.25341796875 3566.739013671875 6656.8076171875 3568.90087890625 6655.9638671875 3570.944091796875 C 6655.2431640625 3572.6904296875 6654.2626953125 3574.288330078125 6653.11181640625 3575.598388671875 C 6653.0390625 3575.903564453125 6653.0234375 3576.118408203125 6653.0283203125 3576.25048828125 C 6653.341796875 3576.362548828125 6653.67919921875 3576.489501953125 6654.05029296875 3576.635498046875 C 6655.8583984375 3577.333984375 6658.46240234375 3578.509033203125 6660.60888671875 3580.143798828125 C 6662.97021484375 3581.9423828125 6664.16748046875 3583.8564453125 6664.16748046875 3585.832763671875 C 6664.16748046875 3586.242919921875 6664.1669921875 3587.90869140625 6664.16650390625 3589.573486328125 C 6664.16552734375 3591.23486328125 6664.1650390625 3592.89501953125 6664.1650390625 3593.30322265625 C 6664.1650390625 3594.578369140625 6663.55322265625 3595.856201171875 6662.34619140625 3597.101318359375 C 6661.3505859375 3598.12841796875 6659.951171875 3599.132568359375 6658.1865234375 3600.08544921875 C 6655.59912109375 3601.48291015625 6650.96728515625 3603.4423828125 6643.58447265625 3604.846923828125 L 6643.58447265625 3604.859130859375 C 6638.2763671875 3605.867919921875 6632.47509765625 3606.405517578125 6626.3427734375 3606.456787109375 C 6626.2841796875 3606.4580078125 6626.224609375 3606.458251953125 6626.16796875 3606.458251953125 C 6626.060546875 3606.458740234375 6625.953125 3606.45947265625 6625.84619140625 3606.460205078125 C 6625.68505859375 3606.46142578125 6625.52392578125 3606.462646484375 6625.361328125 3606.462646484375 Z"/><path class="l" d="M 6625.361328125 3604.462646484375 C 6625.630859375 3604.462646484375 6625.896484375 3604.459228515625 6626.1630859375 3604.458251953125 C 6626.21142578125 3604.458251953125 6626.26220703125 3604.458251953125 6626.31201171875 3604.45703125 C 6632.74169921875 3604.404052734375 6638.39794921875 3603.80908203125 6643.2109375 3602.894287109375 C 6643.19873046875 3602.89208984375 6643.1865234375 3602.890380859375 6643.17333984375 3602.88916015625 C 6655.35205078125 3600.578369140625 6662.1650390625 3596.22607421875 6662.1650390625 3593.30322265625 C 6662.1650390625 3592.486083984375 6662.16748046875 3586.65234375 6662.16748046875 3585.832763671875 C 6662.16748046875 3582.9833984375 6657.7265625 3580.19873046875 6653.32470703125 3578.499267578125 C 6652.89599609375 3578.33056640625 6652.466796875 3578.169189453125 6652.04248046875 3578.02490234375 C 6651.82568359375 3577.952392578125 6650.44482421875 3577.320068359375 6651.3095703125 3574.624755859375 L 6651.29296875 3574.624755859375 C 6653.53857421875 3572.26123046875 6655.25341796875 3568.44873046875 6655.25341796875 3564.692138671875 C 6655.25341796875 3558.92578125 6651.50927734375 3555.8994140625 6647.15966796875 3555.8994140625 L 6647.14599609375 3555.8994140625 L 6647.1318359375 3555.8994140625 C 6642.77880859375 3555.8994140625 6639.0546875 3558.92578125 6639.0546875 3564.692138671875 C 6639.0546875 3568.459716796875 6640.76318359375 3572.295654296875 6643.01318359375 3574.653076171875 C 6643.34375 3575.54541015625 6643.33056640625 3576.228515625 6643.162109375 3576.735595703125 C 6645.494140625 3578.751953125 6648.8642578125 3582.92919921875 6647.71044921875 3590.88037109375 C 6646.59228515625 3587.31689453125 6644.93896484375 3584.0771484375 6642.8740234375 3581.614013671875 C 6642.88134765625 3581.613037109375 6642.88720703125 3581.61279296875 6642.8935546875 3581.611328125 C 6642.86572265625 3581.577392578125 6642.8408203125 3581.5419921875 6642.81298828125 3581.508544921875 C 6641.46923828125 3579.6591796875 6638.92626953125 3577.9287109375 6636.07470703125 3576.52392578125 C 6634.6083984375 3575.774658203125 6633.07568359375 3575.108642578125 6631.6044921875 3574.5634765625 C 6631.33203125 3574.45947265625 6630.37158203125 3573.934326171875 6630.09619140625 3572.720703125 C 6630.03076171875 3572.1318359375 6630.1005859375 3571.369384765625 6630.41796875 3570.37451171875 L 6630.39892578125 3570.37451171875 C 6633.1689453125 3567.460693359375 6635.27880859375 3562.761474609375 6635.27880859375 3558.134033203125 C 6635.27880859375 3551.02587890625 6630.6640625 3547.296875 6625.30517578125 3547.296875 L 6625.287109375 3547.2978515625 L 6625.271484375 3547.296875 C 6619.912109375 3547.296875 6615.296875 3551.02587890625 6615.296875 3558.134033203125 C 6615.296875 3562.761474609375 6617.40869140625 3567.460693359375 6620.17529296875 3570.37451171875 L 6620.15771484375 3570.37451171875 C 6620.47705078125 3571.369384765625 6620.54345703125 3572.1318359375 6620.48046875 3572.720703125 C 6620.2041015625 3573.934326171875 6619.24365234375 3574.45947265625 6618.97119140625 3574.5634765625 C 6617.50048828125 3575.108642578125 6615.9658203125 3575.774658203125 6614.5029296875 3576.52392578125 C 6611.6484375 3577.9287109375 6609.10595703125 3579.6591796875 6607.7646484375 3581.508544921875 C 6607.73583984375 3581.5419921875 6607.70849609375 3581.577392578125 6607.68212890625 3581.611328125 C 6607.6884765625 3581.61279296875 6607.6943359375 3581.613037109375 6607.7021484375 3581.614013671875 C 6605.6376953125 3584.0771484375 6603.9833984375 3587.31689453125 6602.8642578125 3590.88037109375 C 6601.7119140625 3582.92919921875 6605.080078125 3578.751953125 6607.4140625 3576.735595703125 C 6607.24609375 3576.228515625 6607.23193359375 3575.54541015625 6607.5615234375 3574.653076171875 C 6609.8134765625 3572.295654296875 6611.52001953125 3568.459716796875 6611.52001953125 3564.692138671875 C 6611.52001953125 3558.92578125 6607.796875 3555.8994140625 6603.44384765625 3555.8994140625 L 6603.43017578125 3555.8994140625 L 6603.416015625 3555.8994140625 C 6599.06640625 3555.8994140625 6595.3232421875 3558.92578125 6595.3232421875 3564.692138671875 C 6595.3232421875 3568.44873046875 6597.0361328125 3572.26123046875 6599.28271484375 3574.624755859375 L 6599.26611328125 3574.624755859375 C 6600.130859375 3577.320068359375 6598.7509765625 3577.952392578125 6598.5341796875 3578.02490234375 C 6598.107421875 3578.169189453125 6597.6806640625 3578.33056640625 6597.2529296875 3578.499267578125 C 6592.849609375 3580.19873046875 6588.408203125 3582.9833984375 6588.408203125 3585.832763671875 C 6588.408203125 3586.65234375 6588.4111328125 3592.486083984375 6588.4111328125 3593.30322265625 C 6588.4111328125 3596.22607421875 6595.2236328125 3600.578369140625 6607.40234375 3602.88916015625 C 6607.39013671875 3602.890380859375 6607.376953125 3602.89208984375 6607.36474609375 3602.894287109375 C 6612.17919921875 3603.80908203125 6617.83349609375 3604.404052734375 6624.2646484375 3604.45703125 C 6624.31298828125 3604.458251953125 6624.36376953125 3604.458251953125 6624.41357421875 3604.458251953125 C 6624.67919921875 3604.459228515625 6624.94580078125 3604.462646484375 6625.21533203125 3604.462646484375 C 6625.23974609375 3604.462646484375 6625.26318359375 3604.462646484375 6625.287109375 3604.462646484375 C 6625.3125 3604.462646484375 6625.3349609375 3604.462646484375 6625.361328125 3604.462646484375 M 6625.361328125 3608.462646484375 L 6625.287109375 3608.462646484375 L 6625.21533203125 3608.462646484375 C 6625.04736328125 3608.462646484375 6624.880859375 3608.46142578125 6624.71484375 3608.460205078125 C 6624.611328125 3608.45947265625 6624.5078125 3608.458740234375 6624.40478515625 3608.458251953125 C 6624.3388671875 3608.458251953125 6624.271484375 3608.4580078125 6624.20654296875 3608.456787109375 C 6617.95947265625 3608.40380859375 6612.0419921875 3607.8544921875 6606.6181640625 3606.823974609375 L 6606.6181640625 3606.811767578125 C 6600.57421875 3605.661865234375 6595.32568359375 3603.944580078125 6591.4384765625 3601.84521484375 C 6589.49462890625 3600.794921875 6587.931640625 3599.667236328125 6586.7939453125 3598.4931640625 C 6585.212890625 3596.8623046875 6584.4111328125 3595.115966796875 6584.4111328125 3593.30322265625 C 6584.4111328125 3592.895263671875 6584.41064453125 3591.2353515625 6584.40966796875 3589.574462890625 C 6584.4091796875 3587.909423828125 6584.408203125 3586.2431640625 6584.408203125 3585.832763671875 C 6584.408203125 3580.53271484375 6590.37890625 3577.0498046875 6594.65771484375 3575.23486328125 C 6592.56396484375 3572.163818359375 6591.3232421875 3568.325927734375 6591.3232421875 3564.692138671875 C 6591.3232421875 3560.894287109375 6592.564453125 3557.6474609375 6594.912109375 3555.302978515625 C 6597.10986328125 3553.108154296875 6600.1298828125 3551.8994140625 6603.416015625 3551.8994140625 L 6603.43017578125 3551.8994140625 L 6603.44384765625 3551.8994140625 C 6606.54541015625 3551.8994140625 6609.4072265625 3552.976318359375 6611.5634765625 3554.9423828125 C 6612.09423828125 3551.884765625 6613.4111328125 3549.253173828125 6615.4482421875 3547.21923828125 C 6617.96435546875 3544.70703125 6621.4228515625 3543.31591796875 6625.19384765625 3543.297119140625 L 6625.19775390625 3543.296875 L 6625.271484375 3543.296875 L 6625.39599609375 3543.296875 L 6625.40087890625 3543.297119140625 C 6629.16455078125 3543.3203125 6632.61572265625 3544.7109375 6635.1279296875 3547.21923828125 C 6637.16455078125 3549.253173828125 6638.4814453125 3551.884765625 6639.01220703125 3554.942138671875 C 6641.16845703125 3552.97607421875 6644.03076171875 3551.8994140625 6647.1318359375 3551.8994140625 L 6647.14599609375 3551.8994140625 L 6647.15966796875 3551.8994140625 C 6650.4453125 3551.8994140625 6653.4658203125 3553.108154296875 6655.6640625 3555.302734375 C 6658.01220703125 3557.647216796875 6659.25341796875 3560.89404296875 6659.25341796875 3564.692138671875 C 6659.25341796875 3568.32470703125 6658.0126953125 3572.162353515625 6655.91796875 3575.234375 C 6660.1962890625 3577.049072265625 6666.16748046875 3580.53271484375 6666.16748046875 3585.832763671875 C 6666.16748046875 3586.242919921875 6666.1669921875 3587.9091796875 6666.166015625 3589.573974609375 C 6666.16552734375 3591.235107421875 6666.1650390625 3592.89501953125 6666.1650390625 3593.30322265625 C 6666.1650390625 3595.1162109375 6665.36328125 3596.8623046875 6663.7822265625 3598.493408203125 C 6662.64404296875 3599.667236328125 6661.08154296875 3600.794921875 6659.13720703125 3601.84521484375 C 6655.25 3603.944580078125 6650.001953125 3605.661865234375 6643.9580078125 3606.811767578125 L 6643.9580078125 3606.823974609375 C 6638.53564453125 3607.8544921875 6632.6181640625 3608.40380859375 6626.3701171875 3608.456787109375 C 6626.30322265625 3608.4580078125 6626.236328125 3608.458251953125 6626.17138671875 3608.458251953125 C 6626.06787109375 3608.458740234375 6625.96435546875 3608.45947265625 6625.86083984375 3608.460205078125 C 6625.69482421875 3608.46142578125 6625.52880859375 3608.462646484375 6625.361328125 3608.462646484375 Z M 6614.748046875 3569.843017578125 C 6614.48779296875 3570.720947265625 6614.16552734375 3571.58349609375 6613.78662109375 3572.4169921875 C 6614.46923828125 3572.091796875 6615.1708984375 3571.77880859375 6615.8779296875 3571.48388671875 C 6615.47900390625 3570.95849609375 6615.1015625 3570.41015625 6614.748046875 3569.843017578125 Z M 6634.697265625 3571.483642578125 C 6635.40283203125 3571.778076171875 6636.1044921875 3572.091064453125 6636.78857421875 3572.41650390625 C 6636.40966796875 3571.58349609375 6636.08740234375 3570.72119140625 6635.8271484375 3569.84375 C 6635.4736328125 3570.410888671875 6635.0966796875 3570.95849609375 6634.697265625 3571.483642578125 Z"/></g><g transform="translate(-384.962 4694.152)"><g class="m" transform="matrix(1, 0, 0, 1, -75.04, -70.15)"><path class="i" d="M51.534,41.626A9.907,9.907,0,0,0,44.4,44.7l-.4-.2L22.11,33.5l-.4-.2a9.213,9.213,0,0,0,0-3.269l.4-.2L44,19.038l.4-.2a10.1,10.1,0,1,0-2.576-5.251l-.4.2-21.993,10.8-.4.2a9.907,9.907,0,1,0,0,13.671l.4.2,21.894,11.1.4.2a9.907,9.907,0,1,0,9.808-8.322Z" transform="translate(75.04 70.15)"/></g><path class="c" d="M4.972,26.791a9.907,9.907,0,0,1,.3-2.378,9.907,9.907,0,1,0,16.247,9.709A9.907,9.907,0,0,1,4.972,26.791Zm46.562-4.953a9.907,9.907,0,0,0,9.61-7.529A9.907,9.907,0,0,1,44.9,4.6a9.907,9.907,0,0,0,6.638,17.238ZM44.6,46.6a9.907,9.907,0,0,1,.3-2.378,9.907,9.907,0,1,0,16.247,9.709A9.907,9.907,0,0,1,44.6,46.6Z" transform="translate(0 -0.026)"/><path class="c" d="M44.166,19.149l.4-.2A9.907,9.907,0,0,1,41.987,13.7l-.4.2-6.538,3.269a9.808,9.808,0,0,0,2.378,5.449ZM21.876,33.414A9.907,9.907,0,0,1,19.3,38.665l.4.2,4.161,2.08a9.808,9.808,0,0,0,2.08-5.548l-3.666-1.783ZM39.51,42.232a9.907,9.907,0,0,0-3.963,4.656l5.944,2.972.4.2a9.907,9.907,0,0,1,2.576-5.251l-.4-.2Z" transform="translate(-0.162 -0.11)"/><path class="j" d="M51.534,41.626A9.907,9.907,0,0,0,44.4,44.7l-.4-.2L22.11,33.5l-.4-.2a9.213,9.213,0,0,0,0-3.269l.4-.2L44,19.038l.4-.2a10.1,10.1,0,1,0-2.576-5.251l-.4.2-21.993,10.8-.4.2a9.907,9.907,0,1,0,0,13.671l.4.2,21.894,11.1.4.2a9.907,9.907,0,1,0,9.808-8.322Z" transform="translate(0)"/></g></g></svg>