<svg xmlns="http://www.w3.org/2000/svg" width="23.659" height="20.619" viewBox="0 0 23.659 20.619">
  <g id="Filter_Menu-Icon" data-name="Filter Menu-Icon" transform="translate(0 0)">
    <path id="Path_346" data-name="Path 346" d="M1005.653,213.909l-7.39-3.636V204.1l-7.32-7.23a1.919,1.919,0,0,1-.385-2.125,2.834,2.834,0,0,1,2.656-1.458h18a2.837,2.837,0,0,1,2.657,1.458,1.889,1.889,0,0,1-.331,2.065l-7.891,7.88Zm-5.239-4.974,3.088,1.519V203.8l8.268-8.25a1.271,1.271,0,0,0-.552-.11h-18a1.272,1.272,0,0,0-.553.11l7.753,7.654Z" transform="translate(-990.388 -193.29)" fill="#666"/>
  </g>
</svg>
