<svg xmlns="http://www.w3.org/2000/svg" viewBox="0 0 64 62.46"><defs><style>.cls-1{fill:#010101;}.cls-2{fill:#be202e;}</style></defs><title>icon 6.1</title><g id="Layer_2" data-name="Layer 2"><g id="Layer_1-2" data-name="Layer 1"><path class="cls-1" d="M29.94,50c-1.55-1.71-2.49-3.5-1.1-5.23-.74.29-2,.09-3.15-1.45s-1.58-2.91-.92-4.13c-.66.92-1.63,1-2.9.72a10.17,10.17,0,0,1-5.82,10.94c-1.76.84-3.46-1.65-1.68-2.5,3.54-1.7,6.79-7.79,2.79-11-1.41-1-2.05-1.29-4.05-2.65-3.94-2,9.88-4.08,2.24-8.57-2.68-1.58-6.25-1.39-8.23,1.07S3.46,32,1.52,34.77C-.94,38.28,3,48.2,0,51.45l11.72,11c6-5.06,9.25-2.39,20.68-11.08A4.9,4.9,0,0,1,29.94,50Z"/><path class="cls-1" d="M42.36,43.44,35.5,49a3,3,0,0,1-4.09-.25,2.72,2.72,0,0,1,.27-3.94l6.86-5.53a3,3,0,0,1,4.08.26A2.7,2.7,0,0,1,42.36,43.44Zm-10-1.89L39.22,36a2.71,2.71,0,0,0,.27-3.93,3,3,0,0,0-4.09-.25l-6.86,5.53a2.71,2.71,0,0,0-.26,3.93A3,3,0,0,0,32.36,41.55ZM35,29.29a3.09,3.09,0,0,0,.3-4.48,3.39,3.39,0,0,0-4.66-.29L25,29.15c.45.53,1,.91,2.24,2.23a3.37,3.37,0,0,1,0,4.23Zm-7.68-9.55A3.84,3.84,0,0,0,22,19.4L16.64,24c1.06.76,5.51,3.49,6.31,4.07l4-3.21A3.5,3.5,0,0,0,27.32,19.74Z"/><path class="cls-1" d="M12,31l9.43,5.59a3,3,0,0,0,3.9-1.19,2.74,2.74,0,0,0-1.24-3.76l-8.34-5.35c-1.43-.71-4.25-.41-5,1A2.74,2.74,0,0,0,12,31Z"/><polygon class="cls-2" points="8.2 14.28 12.47 19.02 11.86 16.03 11.21 12.85 13.88 14.81 18.38 18.11 19.05 12.71 19.46 9.5 21.37 12.16 24.59 16.63 26.97 11.69 28.38 8.76 29.35 11.86 30.97 17.07 34.82 13.08 37.1 10.71 37.03 13.94 36.9 19.38 41.84 16.73 44.78 15.16 43.66 18.21 41.8 23.35 47.34 22.3 50.64 21.67 48.61 24.25 45.18 28.57 50.79 29.22 54.13 29.61 51.37 31.45 46.72 34.55 51.85 36.84 54.9 38.2 51.68 39.13 46.26 40.69 50.41 44.39 52.87 46.59 49.51 46.52 43.86 46.4 46.61 51.15 48.25 53.98 45.08 52.91 42.09 51.9 46.36 56.64 55.23 59.63 49.44 49.63 61.33 49.89 52.61 42.11 64 38.82 53.21 34.01 62.99 27.5 51.18 26.13 58.39 17.03 46.72 19.24 50.65 8.44 40.26 14.01 40.53 2.57 32.45 10.96 29.03 0 24.03 10.38 17.26 0.97 15.84 12.34 6.38 5.4 8.2 14.28"/></g></g></svg>