<?xml version="1.0" encoding="utf-8"?>
<!-- Generator: Adobe Illustrator 23.0.3, SVG Export Plug-In . SVG Version: 6.00 Build 0)  -->
<svg version="1.1" id="Layer_1" xmlns="http://www.w3.org/2000/svg" xmlns:xlink="http://www.w3.org/1999/xlink" x="0px" y="0px"
	 viewBox="0 0 70 70" style="enable-background:new 0 0 70 70;" xml:space="preserve">
<style type="text/css">
	.st0{fill:#FFFFFF;}
	.st1{fill:#70B371;}
</style>
<rect x="14.2" y="15" class="st0" width="42.2" height="42.2"/>
<title>icon1.1</title>
<g>
	<g id="Layer_1-2">
		<g>
			<path class="st1" d="M35,68.5c-8.9,0-17.4-3.5-23.7-9.8c-13-13-13.1-34.2-0.1-47.3l0.1-0.1C17.6,5,26,1.5,35,1.5
				c8.9,0,17.4,3.5,23.7,9.8c13.1,13.1,13.1,34.3,0,47.4C52.3,65,43.9,68.5,35,68.5C35,68.5,35,68.5,35,68.5z M32.4,37.6v13.8
				c0,0.1,0.1,0.1,0.1,0.1h4.9c0.1,0,0.1-0.1,0.1-0.1l0-13.8h13.8c0.1,0,0.1-0.1,0.1-0.1v-4.9c0-0.1-0.1-0.1-0.1-0.1H37.6V18.6
				c0-0.1-0.1-0.1-0.1-0.1h-4.9c-0.1,0-0.1,0.1-0.1,0.1l0,13.8H18.6c-0.1,0-0.1,0.1-0.1,0.1v4.9c0,0.1,0.1,0.1,0.1,0.1h0H32.4z"/>
			<path class="st0" d="M35,3c8.2,0,16.4,3.1,22.6,9.4c12.5,12.5,12.5,32.8,0,45.2C51.4,63.9,43.2,67,35,67
				c-8.2,0-16.4-3.1-22.6-9.4c-12.5-12.5-12.5-32.8,0-45.3c0,0,0,0,0,0C18.6,6.1,26.8,3,35,3 M18.6,30.9
				C18.6,30.9,18.6,30.9,18.6,30.9C18.6,30.9,18.6,30.9,18.6,30.9c-0.9,0-1.6,0.7-1.6,1.6v4.9c0,0,0,0,0,0c0,0.9,0.7,1.6,1.6,1.6
				c0,0,0,0,0,0h12.2v12.3c0,0.9,0.7,1.6,1.6,1.6h4.9c0,0,0,0,0,0c0.9,0,1.6-0.8,1.6-1.7V39.1h12.3c0.9,0,1.6-0.7,1.6-1.6v-4.9
				c0,0,0,0,0,0c0-0.9-0.7-1.6-1.6-1.6c0,0,0,0,0,0H39.1V18.6c0-0.9-0.7-1.6-1.6-1.6h-4.9c0,0,0,0,0,0c0,0,0,0-0.1,0
				c-0.9,0-1.6,0.8-1.6,1.7v12.2H18.6 M35,0c-9.3,0-18.1,3.6-24.7,10.2c-13.7,13.7-13.6,35.9,0,49.5C16.8,66.4,25.6,70,35,70
				c9.4,0,18.1-3.6,24.8-10.3c13.6-13.6,13.6-35.8,0-49.5C53.1,3.6,44.3,0,35,0L35,0z M20,33.9h10.9h3v-3V20l2.2,0l0,10.9v3h3H50
				l0,2.2H39.1h-3v3V50l-2.2,0l0-10.9v-3h-3H20L20,33.9L20,33.9z"/>
		</g>
	</g>
</g>
</svg>
