<svg xmlns="http://www.w3.org/2000/svg" viewBox="0 0 64 64"><defs><style>.cls-1{fill:#70b371;}</style></defs><title>icon1.1</title><g id="Layer_2" data-name="Layer 2"><g id="Layer_1-2" data-name="Layer 1"><path class="cls-1" d="M9.37,9.37a32,32,0,1,0,45.26,0A32,32,0,0,0,9.37,9.37ZM50,29.55v4.9a1.64,1.64,0,0,1-1.64,1.63H36.09V48.33A1.64,1.64,0,0,1,34.45,50h-4.9a1.65,1.65,0,0,1-1.63-1.64V36.09H15.67A1.65,1.65,0,0,1,14,34.45v-4.9a1.62,1.62,0,0,1,1.63-1.63H27.92V15.67A1.62,1.62,0,0,1,29.55,14h4.9a1.65,1.65,0,0,1,1.64,1.63V27.92H48.33A1.65,1.65,0,0,1,50,29.55Z"/></g></g></svg>