<?xml version="1.0" encoding="utf-8"?>
<!-- Generator: Adobe Illustrator 23.0.3, SVG Export Plug-In . SVG Version: 6.00 Build 0)  -->
<svg version="1.1" id="Layer_1" xmlns="http://www.w3.org/2000/svg" xmlns:xlink="http://www.w3.org/1999/xlink" x="0px" y="0px"
	 viewBox="0 0 70 70" style="enable-background:new 0 0 70 70;" xml:space="preserve">
<style type="text/css">
	.st0{fill:#FFFFFF;}
	.st1{fill:#010101;}
</style>
<title>icon 3.1</title>
<g>
	<rect x="15.5" y="26.5" class="st0" width="44.5" height="18"/>
	<g>
		<g id="Layer_1-2">
			<g>
				<path class="st1" d="M35,68.5c-18.5,0-33.5-15-33.5-33.5c0-18.5,15-33.5,33.5-33.5s33.5,15,33.5,33.5
					C68.5,53.5,53.5,68.5,35,68.5z M50.6,38.1v-6.3H19.4v6.3H50.6z"/>
				<path class="st0" d="M35,3c17.7,0,32,14.3,32,32S52.7,67,35,67S3,52.7,3,35S17.3,3,35,3 M17.9,39.7h34.1v-9.3H17.9V39.7 M35,0
					C15.7,0,0,15.7,0,35s15.7,35,35,35s35-15.7,35-35S54.3,0,35,0L35,0z M20.9,33.3h28.1v3.3H20.9V33.3L20.9,33.3z"/>
			</g>
		</g>
	</g>
</g>
</svg>
