<svg xmlns="http://www.w3.org/2000/svg" viewBox="0 0 63.83 34.45"><title>icon 8.2</title><g id="Layer_2" data-name="Layer 2"><g id="Layer_1-2" data-name="Layer 1"><path d="M53.46,25a4.75,4.75,0,1,0,4.75,4.75A4.75,4.75,0,0,0,53.46,25Z"/><path d="M16.72,25a4.75,4.75,0,1,0,4.75,4.75A4.75,4.75,0,0,0,16.72,25Z"/><path d="M63.28,17.7a64.21,64.21,0,0,0-10.35-1.95,28,28,0,0,0-7-9.16,3.39,3.39,0,0,0-2.59-1H30a2.2,2.2,0,0,0-2.22,2.22v8.09c-.61,1.36-1.22,5.23-1.82,5.23H5.32a1.91,1.91,0,0,0-1.9,1.9v3.8a1.91,1.91,0,0,0,1.9,1.9h4.73a6.73,6.73,0,0,1,13.33,0H46.79a6.73,6.73,0,0,1,13.33,0H62a1.78,1.78,0,0,0,1.82-1.83S63.9,18.21,63.28,17.7Zm-27.8-2.25H31.73V9.81h3.75Zm3.73,0V9.81h4.11a22.48,22.48,0,0,1,5.07,5.64Z"/><path d="M4.88,13a3,3,0,0,0,.19-4.34.54.54,0,0,1-.16-.42V4.91l8.73,9.65a6.92,6.92,0,0,0-2.89,5.54H26.08A7.17,7.17,0,0,0,21,13.4L3.87,0,2.14,1.85,2.3,2a1.57,1.57,0,0,0-.1.44q0,3.08,0,6.15A1.37,1.37,0,0,0,3.2,10a.78.78,0,1,1-.61,1.42.81.81,0,0,1-.41-.61.76.76,0,0,0-.84-.7H1a.87.87,0,0,0-1,.6v.41a3.6,3.6,0,0,0,.56,1.36A3,3,0,0,0,4.88,13Z"/></g></g></svg>