<?xml version="1.0" encoding="utf-8"?>
<!-- Generator: Adobe Illustrator 23.0.3, SVG Export Plug-In . SVG Version: 6.00 Build 0)  -->
<svg version="1.1" id="Layer_1" xmlns="http://www.w3.org/2000/svg" xmlns:xlink="http://www.w3.org/1999/xlink" x="0px" y="0px"
	 viewBox="0 0 67.3 68" style="enable-background:new 0 0 67.3 68;" xml:space="preserve">
<style type="text/css">
	.st0{fill:#010101;stroke:#FFFFFF;stroke-width:3;stroke-miterlimit:10;}
	.st1{fill:#818285;}
	.st2{fill:#010101;}
</style>
<g>
	<path class="st0" d="M17.7,53.1c-3,0-5.4,2.5-5.3,5.4c0,3,2.5,5.4,5.4,5.3c1.4,0,2.7-0.6,3.7-1.6c2.1-2.1,2.1-5.5,0-7.6
		C20.5,53.6,19.1,53.1,17.7,53.1z"/>
	<path class="st0" d="M49.4,14.8c3.7,0,6.7-3,6.7-6.7c0,0,0,0,0,0c0-3.7-3-6.7-6.7-6.7c-3.7,0-6.7,3-6.7,6.7
		C42.7,11.9,45.7,14.8,49.4,14.8z"/>
	<path class="st0" d="M34,50.9c-0.5,0.8-5.2,7.4-6.5,9.4c-1.6,2.4-1.6,4.2,0.1,5.5c0.5,0.4,1.1,0.7,1.8,0.7l0,0
		c1.5,0,2.7-1.2,3.5-2.2l0.1-0.2c0.6-0.7,2.2-2.8,3.7-4.8c1-1.4,2-2.7,2.4-3.2c0.6-0.8,1.1-1.7,1.5-2.6c0.2-0.5,1-2.8,1.5-4.1
		l0.1-0.2l-5.6-7.7L34,50.9z"/>
	<path class="st0" d="M65.7,36c-0.3-0.9-0.9-1.6-1.7-2c-1.1-0.5-7.9-3.9-9-4.4c-0.5-1-2.9-6.1-4.2-9.1c-1.4-3.2-2.5-4.2-4.8-4.2h-3
		c-1,0-2,0.3-2.9,0.9l-0.6,0.4l-5.7,4.8c0-1.9-0.4-3.8-1.2-5.5c-0.8-1.7-1.9-3.2-3.3-4.5c-1.4-1.2-3.1-2.2-4.9-2.8c-1.9-0.6-4-1-6-1
		c-4.1-0.1-8.1,1.2-11.2,3.8c-3.1,2.6-5.1,6.4-5.5,10.4l-0.1,0.5l8.6,0.8l0.1-0.5c0.2-2.1,1.1-4.1,2.6-5.7c1.5-1.4,3.5-2.2,5.5-2.1
		c1,0,2,0.2,2.9,0.6c0.9,0.4,1.6,0.9,2.3,1.5c1.4,1.4,2.1,3.3,2.1,5.2c0,1-0.2,2-0.6,2.9c-0.4,0.9-0.9,1.7-1.5,2.5
		c-0.7,0.8-1.4,1.6-2.1,2.3c-0.8,0.8-1.6,1.5-2.4,2.2c-1,0.9-1.8,1.8-2.5,2.4c-1.3,1.3-2.2,2.9-2.6,4.7c-0.2,1.1-0.3,2.3-0.3,3.4v5
		l8.1,0V45c0-0.8,0.1-1.7,0.2-2.5c0.1-0.6,0.2-1.2,0.5-1.7c0.3-0.6,0.6-1.1,1-1.5c0.5-0.5,1.1-1.1,1.8-1.9l0.8-0.7l2.5-2.6l-0.6,4.2
		c0,0.1,0,0.2-0.1,0.3c-0.2,1.5,0.8,2.9,2.3,3.2c0.2,0,0.3,0,0.5,0c1.2,0,2.3-0.8,2.6-2c0.2-1,1.6-9.1,1.8-10.5l4.1-3.1
		c-0.8,3.5-1.5,7.1-1.8,8.7c-0.5,2.8,0.9,4.9,1.9,6.5c0.2,0.4,1.2,1.9,2.5,4c4,6.3,10.8,16.9,12,18.5c1,1.3,2.2,2.6,3.9,2.6
		c0.7,0,1.4-0.2,2-0.5c0.7-0.4,1.3-1.1,1.5-1.9c0.3-1.4,0-2.8-0.8-4c-0.9-1.6-11.8-19.3-13-21.3l1.7-7.5c0.5,0.7,1.1,1.6,1.5,2.2
		c0.5,0.6,1.1,1.1,1.8,1.4c1.2,0.7,6.9,3.2,8.2,3.8c0.8,0.4,1.6,0.6,2.4,0.6c0.9,0.1,1.8-0.4,2.2-1.2C65.8,37.5,65.9,36.7,65.7,36z"
		/>
</g>
<title>icon 9.2</title>
<g>
	<g id="Layer_1-2">
		<path class="st1" d="M17.8,63.9c-3,0-5.4-2.4-5.4-5.3s2.4-5.4,5.3-5.4c1.5,0,2.9,0.6,3.9,1.6c2.1,2.1,2.1,5.5,0,7.6
			C20.5,63.3,19.2,63.8,17.8,63.9z M13.8,48.8v-5c0-1.2,0.1-2.3,0.3-3.4c0.4-1.8,1.3-3.4,2.6-4.7c0.7-0.7,1.5-1.5,2.5-2.4
			c0.8-0.7,1.6-1.5,2.4-2.2c0.8-0.7,1.5-1.5,2.1-2.3c0.6-0.8,1.1-1.6,1.5-2.5c0.4-0.9,0.6-1.9,0.6-2.9c0-2-0.8-3.8-2.1-5.2
			c-0.7-0.7-1.4-1.2-2.3-1.5c-0.9-0.4-1.9-0.6-2.9-0.6c-2.1-0.1-4.1,0.6-5.5,2.1c-1.5,1.6-2.4,3.6-2.6,5.7l-0.1,0.5l-8.6-0.8
			l0.1-0.5c0.5-4,2.4-7.8,5.5-10.4c3.2-2.6,7.2-3.9,11.2-3.8c2,0,4.1,0.3,6,0.9c1.8,0.6,3.4,1.5,4.9,2.8c1.4,1.2,2.5,2.8,3.3,4.5
			c0.8,1.9,1.2,3.9,1.2,6c0,1.8-0.3,3.5-0.9,5.2c-0.6,1.5-1.4,2.9-2.4,4.1l-4.5,4.6l-0.8,0.7c-0.8,0.7-1.4,1.3-1.9,1.8
			c-0.4,0.5-0.7,1-1,1.5c-0.3,0.5-0.4,1.1-0.5,1.7c-0.1,0.8-0.2,1.7-0.2,2.5v3.8L13.8,48.8z"/>
		<path class="st2" d="M49.4,14.8c-3.7,0-6.7-3-6.7-6.7s3-6.7,6.7-6.7s6.7,3,6.7,6.7c0,0,0,0,0,0C56,11.8,53.1,14.8,49.4,14.8z"/>
		<path class="st2" d="M29.4,66.5c-0.7,0-1.3-0.3-1.8-0.7c-1.7-1.3-1.7-3.1-0.1-5.5c1.4-2,6-8.7,6.5-9.4l2.7-9.6l5.5,7.7l-0.1,0.2
			c-0.5,1.3-1.3,3.6-1.5,4.2c-0.4,0.9-0.9,1.8-1.5,2.6c-0.5,0.6-1.4,1.9-2.4,3.2c-1.5,2.1-3.1,4.2-3.7,4.9l-0.1,0.2
			C32.1,65.2,30.9,66.5,29.4,66.5L29.4,66.5z"/>
		<path class="st2" d="M57.9,66.4c-1.6,0-2.9-1.3-3.8-2.6c-1.2-1.5-8-12.2-12-18.5c-1.3-2.1-2.3-3.6-2.5-4c-1-1.5-2.4-3.7-1.9-6.5
			c0.3-1.6,1-5.2,1.8-8.7l-4.1,3.1c-0.2,1.4-1.6,9.5-1.8,10.5c-0.3,1.2-1.4,2-2.6,2c-0.2,0-0.3,0-0.5,0c-1.5-0.2-2.5-1.7-2.3-3.2
			c0-0.1,0-0.2,0.1-0.3l1.7-11.7c0.2-0.9,0.9-1.8,1.7-2.2l8.1-6.9l0.6-0.4c0.8-0.6,1.8-0.9,2.9-0.9h3c2.2,0,3.3,1,4.8,4.2
			c1.3,3,3.7,8.2,4.2,9.1c1.1,0.6,7.9,3.9,9,4.4c0.8,0.4,1.4,1.1,1.7,2c0.2,0.7,0.2,1.5-0.2,2.1c-0.5,0.8-1.3,1.3-2.3,1.2l0,0
			c-0.8,0-1.6-0.2-2.4-0.6c-1.3-0.6-7-3.2-8.2-3.8c-0.7-0.3-1.4-0.8-1.8-1.4c-0.4-0.6-1-1.5-1.5-2.2l-1.7,7.5
			c1.2,2,12.1,19.7,13,21.3c0.8,1.2,1,2.6,0.8,4c-0.2,0.8-0.7,1.5-1.5,1.9C59.2,66.2,58.6,66.4,57.9,66.4z"/>
	</g>
</g>
</svg>
