<svg xmlns="http://www.w3.org/2000/svg" viewBox="0 0 63.01 64"><defs><style>.cls-1{fill:#818285;}.cls-2{fill:#010101;}</style></defs><title>icon 9.1</title><g id="Layer_2" data-name="Layer 2"><g id="Layer_1-2" data-name="Layer 1"><path class="cls-1" d="M12,46.25V41.73a15.52,15.52,0,0,1,.3-3.33A9,9,0,0,1,13.18,36a9.25,9.25,0,0,1,1.59-2.07c.67-.66,1.49-1.47,2.48-2.41.79-.73,1.58-1.49,2.37-2.25a24.76,24.76,0,0,0,2.15-2.37,13,13,0,0,0,1.59-2.6A7.23,7.23,0,0,0,24,21.22a7.76,7.76,0,0,0-.63-3.14,7.89,7.89,0,0,0-1.67-2.49A7.31,7.31,0,0,0,19.21,14a7.93,7.93,0,0,0-3.07-.6,7.91,7.91,0,0,0-5.89,2.3,10,10,0,0,0-2.7,6L0,20.93A15.57,15.57,0,0,1,5.37,10.82,16.49,16.49,0,0,1,16.29,7.16a17.73,17.73,0,0,1,5.81.92,14,14,0,0,1,4.7,2.67A12.26,12.26,0,0,1,30,15a14.11,14.11,0,0,1,1.15,5.81,13.73,13.73,0,0,1-.82,4.93,15.21,15.21,0,0,1-2.29,4l-4.44,4.59L22.8,35q-1.18,1.11-1.89,1.89a6.88,6.88,0,0,0-1.1,1.63,6.3,6.3,0,0,0-.56,1.89A18.62,18.62,0,0,0,19.1,43v3.26Zm-1.4,10.22a4.93,4.93,0,0,1,4.88-4.89A4.89,4.89,0,1,1,12,59.91,4.7,4.7,0,0,1,10.59,56.47Z"/><path class="cls-2" d="M53.24,6.16A6.17,6.17,0,1,1,47.07,0,6.17,6.17,0,0,1,53.24,6.16Z"/><path class="cls-2" d="M34.64,40.45,32.18,49.1l-6.55,9.49c-1.07,1.56-1.87,3.46,0,4.85,2.06,1.55,3.7-.47,4.76-1.67s4.94-6.65,6.07-8.06a9.67,9.67,0,0,0,1.48-2.53c.21-.53,1-2.73,1.53-4.14Z"/><path class="cls-2" d="M61.46,32.48c-1.2-.54-9.15-4.49-9.15-4.49S49.49,22,48,18.7c-1.37-3.1-2.36-3.91-4.32-3.91h-3a5.2,5.2,0,0,0-3.12,1.12l-8.14,6.92A3.15,3.15,0,0,0,28,24.72L26.27,36.44a2.28,2.28,0,0,0,1.85,2.89,2.15,2.15,0,0,0,2.54-1.58c.23-1.08,1.87-10.66,1.87-10.66L37.84,23c-.88,4.07-1.77,8.53-2.06,10-.51,2.58.79,4.56,1.8,6.09S50.52,59.47,52.11,61.53s3,3.08,5.24,1.85c1.85-1,1.54-3.39.51-5.13S44.71,36.78,44.71,36.78l2-8.79s1.41,2,2.13,3.14c.35.54.71.74,1.66,1.27,1.12.61,6.55,3.08,8.2,3.82,1.46.65,3.28.9,4-.39A2.53,2.53,0,0,0,61.46,32.48Z"/></g></g></svg>