<svg xmlns="http://www.w3.org/2000/svg" width="30" height="25.286" viewBox="0 0 30 25.286"><defs><style>.a,.e{fill:none;}.a{stroke:#fff;stroke-miterlimit:10;stroke-width:1.822px;}.b,.c{fill:#fff;}.c{opacity:0.263;}.d{stroke:none;}</style></defs><g transform="translate(-506.96 -581.3)"><g transform="translate(506.96 581.3)"><g class="a"><rect class="d" width="18.522" height="18.574" rx="2.3"/><rect class="e" x="0.911" y="0.911" width="16.701" height="16.753" rx="1.389"/></g></g><g transform="translate(507.508 600.586)"><rect class="b" width="22.885" height="1.894" transform="translate(0 2.284)"/><rect class="c" width="6.885" height="1.894" transform="translate(22.456 2.284)"/><circle class="b" cx="3" cy="3" r="3" transform="translate(17.574)"/></g><rect class="b" width="9.82" height="1.738" transform="translate(527.141 583.627)"/><rect class="b" width="7.706" height="1.738" transform="translate(527.141 588.298)"/><rect class="b" width="9.048" height="1.738" transform="translate(527.141 593.005)"/><g transform="translate(1035.55 1014.721)"><path class="b" d="M-520.046-423.154v2.031a.338.338,0,0,0,.335.338h1.339a.337.337,0,0,0,.334-.338v-2.031a.335.335,0,0,0-.334-.338h-1.339A.337.337,0,0,0-520.046-423.154Z"/><path class="b" d="M-519.029-430.421a6.227,6.227,0,0,0-6.2,6.257,6.227,6.227,0,0,0,6.2,6.257,6.227,6.227,0,0,0,6.2-6.257A6.227,6.227,0,0,0-519.029-430.421Zm3.665,9.3a1.01,1.01,0,0,1-1,1.014h-5.357a1.011,1.011,0,0,1-1-1.014v-1.86l3.683-3.718,3.674,3.718Zm.508-2.458a.332.332,0,0,1-.24.1.335.335,0,0,1-.237-.1l-3.7-3.742-3.7,3.732a.334.334,0,0,1-.472,0h0a.343.343,0,0,1,0-.479l3.931-3.969a.335.335,0,0,1,.473,0v0l1.768,1.785v-1.626a.337.337,0,0,1,.334-.338h.335a.336.336,0,0,1,.335.338v2.64l1.169,1.18A.341.341,0,0,1-514.856-423.581Z"/></g></g></svg>