<svg id="Layer_1" data-name="Layer 1" xmlns="http://www.w3.org/2000/svg" xmlns:xlink="http://www.w3.org/1999/xlink" viewBox="0 0 807.48 200"><defs><style>.cls-1{fill:#22374e;}.cls-2{fill:url(#linear-gradient);}.cls-3{fill:url(#linear-gradient-2);}.cls-4{fill:#00b593;}</style><linearGradient id="linear-gradient" x1="490.37" y1="58.95" x2="538.32" y2="58.95" gradientUnits="userSpaceOnUse"><stop offset="0" stop-color="#ee75ac"/><stop offset="0.5" stop-color="#e90e8b"/></linearGradient><linearGradient id="linear-gradient-2" x1="355.81" y1="49.72" x2="456.93" y2="49.72" gradientUnits="userSpaceOnUse"><stop offset="0" stop-color="#614392"/><stop offset="1" stop-color="#935594"/></linearGradient></defs><title>venminder-logo</title><path class="cls-1" d="M440.07,118.11h0a22.42,22.42,0,0,1-9.18-2,20.8,20.8,0,0,1-2.1-1.08v82.83h23.72V114.35A22.57,22.57,0,0,1,440.07,118.11Z"/><path class="cls-1" d="M51,200H43.23L0,110.9H25.13l21.79,49.21L69.06,110.9H94Z"/><path class="cls-1" d="M136.37,109a42.76,42.76,0,0,1,16.69,3.16A39,39,0,0,1,166,120.74a37.85,37.85,0,0,1,8.26,12.83,42.92,42.92,0,0,1,2.9,15.82,48.61,48.61,0,0,1-.53,7.2q-.53,3.53-1.05,5.8H114.4a21.63,21.63,0,0,0,8.79,12.83q6.5,4.4,16,4.39a34.3,34.3,0,0,0,12.92-2.37,51.13,51.13,0,0,0,11.33-6.41L173.1,187a58.75,58.75,0,0,1-16,9.57A49.81,49.81,0,0,1,138.48,200a51.18,51.18,0,0,1-19.16-3.51,45.92,45.92,0,0,1-15.11-9.67,44.84,44.84,0,0,1-9.93-14.41,44.38,44.38,0,0,1-3.6-17.93,44.84,44.84,0,0,1,27.68-42A46,46,0,0,1,136.37,109Zm-.88,19.15a20.31,20.31,0,0,0-13.36,4.66,23.89,23.89,0,0,0-7.73,12.92h39.89q-.34-8.44-5.8-13A19.6,19.6,0,0,0,135.49,128.12Z"/><path class="cls-1" d="M233.9,109a35.55,35.55,0,0,1,13.71,2.55A28.91,28.91,0,0,1,258,118.64a31.49,31.49,0,0,1,6.51,11,42.55,42.55,0,0,1,2.28,14.32v53.95H243.21V147.1q0-7.54-4.39-12.21t-11.77-4.66a16,16,0,0,0-12,4.66q-4.57,4.67-4.57,12.21v50.79H186.8v-87h21.79V119a34.59,34.59,0,0,1,10.9-7.3A36.23,36.23,0,0,1,233.9,109Z"/><path class="cls-1" d="M382,109a35.92,35.92,0,0,1,13.88,2.55,29,29,0,0,1,10.37,7.12,30.57,30.57,0,0,1,6.42,11,44.15,44.15,0,0,1,2.19,14.32v53.95H391.18V147.28q0-7.91-4.22-12.39t-11.25-4.48q-7.2,0-11.59,4.48t-4.4,11.86v51.14H336V147.28q0-7.91-4.22-12.39t-11.42-4.48q-7.22,0-11.51,4.48t-4.31,12.39v50.61H280.82v-87h21.79v7.74a30.73,30.73,0,0,1,10.54-7.12A36.46,36.46,0,0,1,327.21,109a33.34,33.34,0,0,1,15.2,3.25,27.45,27.45,0,0,1,10.46,9.23,38.31,38.31,0,0,1,12.48-9A39.09,39.09,0,0,1,382,109Z"/><path class="cls-1" d="M514.37,109a35.46,35.46,0,0,1,13.7,2.55,29,29,0,0,1,10.37,7.12,31.47,31.47,0,0,1,6.5,11,42.55,42.55,0,0,1,2.29,14.32v53.95H523.68V147.1q0-7.54-4.39-12.21t-11.78-4.66a16,16,0,0,0-11.95,4.66Q491,139.56,491,147.1v50.79H467.27v-87h21.79V119a34.59,34.59,0,0,1,10.9-7.3A36.2,36.2,0,0,1,514.37,109Z"/><path class="cls-1" d="M648.27,197.89H626.48V187.35a29.71,29.71,0,0,1-11.68,9.4A38.73,38.73,0,0,1,598.54,200a41.55,41.55,0,0,1-17-3.43,39.15,39.15,0,0,1-13.26-9.49,44.45,44.45,0,0,1-8.7-14.41,53.91,53.91,0,0,1,0-36.37,43.46,43.46,0,0,1,8.79-14.41,39.9,39.9,0,0,1,13.35-9.49A41.07,41.07,0,0,1,598.54,109a38.25,38.25,0,0,1,14.94,2.81,31.15,31.15,0,0,1,11.25,7.91V66.09h23.54Zm-45.51-67.48a22.35,22.35,0,0,0-8.61,1.67,21.27,21.27,0,0,0-11.95,12.3,29.15,29.15,0,0,0,0,20,23.63,23.63,0,0,0,4.74,7.55,19.91,19.91,0,0,0,7.12,4.83,22.84,22.84,0,0,0,8.7,1.68,23.61,23.61,0,0,0,8-1.41,20.65,20.65,0,0,0,7.12-4.31,21.22,21.22,0,0,0,5.1-7.38,31,31,0,0,0,0-21.53,22.74,22.74,0,0,0-5-7.55,19.13,19.13,0,0,0-7-4.39A24.17,24.17,0,0,0,602.76,130.41Z"/><path class="cls-1" d="M703.8,109a42.84,42.84,0,0,1,16.7,3.16,39.11,39.11,0,0,1,12.92,8.61,37.82,37.82,0,0,1,8.25,12.83,42.72,42.72,0,0,1,2.9,15.82,48.62,48.62,0,0,1-.52,7.2c-.35,2.35-.71,4.28-1.06,5.8H681.84a21.63,21.63,0,0,0,8.79,12.83q6.5,4.4,16,4.39a34.25,34.25,0,0,0,12.91-2.37,51.19,51.19,0,0,0,11.34-6.41L740.53,187a58.75,58.75,0,0,1-16,9.57A49.81,49.81,0,0,1,705.91,200a51.16,51.16,0,0,1-19.15-3.51,45.82,45.82,0,0,1-15.11-9.67,44.84,44.84,0,0,1-9.93-14.41,44.22,44.22,0,0,1-3.61-17.93,44.84,44.84,0,0,1,27.68-42A46,46,0,0,1,703.8,109Zm-.87,19.15a20.31,20.31,0,0,0-13.36,4.66,23.83,23.83,0,0,0-7.73,12.92h39.89q-.36-8.44-5.8-13A19.61,19.61,0,0,0,702.93,128.12Z"/><path class="cls-1" d="M799.93,109.85a24,24,0,0,1,7.55,1.05v20.92h-6.32q-10.2,0-16.7,5.44T778,154.48v43.41H754.24v-87H776v10.37a28.86,28.86,0,0,1,10.54-8.52A31,31,0,0,1,799.93,109.85Z"/><path class="cls-2" d="M536,71a89.47,89.47,0,0,0-6.73-19A90.83,90.83,0,0,0,518.44,34.8,93.22,93.22,0,0,0,503.8,20.26h0a8.34,8.34,0,0,0-6-1.75,8.49,8.49,0,0,0-3,.91,8.28,8.28,0,0,0-2.53,2.06,8.12,8.12,0,0,0-1.8,6,8.07,8.07,0,0,0,3,5.48,76.16,76.16,0,0,1,12,12,73.85,73.85,0,0,1,16.32,46.36,8.14,8.14,0,0,0,2.43,5.78,8.27,8.27,0,0,0,5.83,2.37,8.34,8.34,0,0,0,5.81-2.37,8.21,8.21,0,0,0,1.78-2.59,8.12,8.12,0,0,0,.65-3.19A90.12,90.12,0,0,0,536,71Z"/><path class="cls-3" d="M456.28,5a8.21,8.21,0,0,0-4.4-4.32A8.11,8.11,0,0,0,448.69,0a93.45,93.45,0,0,0-65.63,26.75,91.16,91.16,0,0,0-19.93,29,89.11,89.11,0,0,0-7.32,35.52,8,8,0,0,0,.66,3.19,8.29,8.29,0,0,0,15.19,0,8.12,8.12,0,0,0,.65-3.19,73,73,0,0,1,6-29.14,74.69,74.69,0,0,1,16.37-23.84,76.83,76.83,0,0,1,54-22,8.11,8.11,0,0,0,3.19-.64,8.09,8.09,0,0,0,5.05-7.51A8.09,8.09,0,0,0,456.28,5Z"/><path class="cls-4" d="M478.72,5.83a8.48,8.48,0,0,0-11.31,3.95l-4.23,6.69L453,32.51l-12.24,19.4q-5.27,8.36-10.53,16.73c-3.05,4.88-6.53,9.39-6.67,15.37a18.82,18.82,0,0,0,36,8.14c1.68-3.75,7.59-22.28,10.1-30.79l7.92-26.93c1.59-5.43,3.1-10.88,4.77-16.28.76-2.44,1.55-4.65.76-7.19A8.5,8.5,0,0,0,478.72,5.83Z"/></svg>