<svg xmlns="http://www.w3.org/2000/svg" xmlns:xlink="http://www.w3.org/1999/xlink" width="215.246" height="215.247" viewBox="0 0 215.246 215.247"><defs><style>.a{fill:#70b270;stroke:#f4f4f4;stroke-width:4px;}.a,.b,.e,.i,.j,.k{stroke-miterlimit:10;}.b,.c,.h,.m{fill:none;}.b{stroke:#70b270;stroke-dasharray:12;}.b,.j{stroke-width:2px;}.c,.h,.i,.j{stroke:#335ca5;}.c{stroke-linecap:round;stroke-linejoin:round;stroke-width:4.405px;}.d{fill:#335ca5;}.e,.i,.j,.k{fill:#f4f4f4;}.f{fill:#fff;}.g{fill:#9a9a9a;}.i{stroke-width:3px;}.k{stroke:rgba(0,0,0,0);}.l,.n{stroke:none;}.n{fill:#335ca5;}.o{filter:url(#a);}</style><filter id="a" x="19.792" y="101.624" width="71.603" height="53.073" filterUnits="userSpaceOnUse"><feOffset dx="2" dy="3" input="SourceAlpha"/><feGaussianBlur stdDeviation="3" result="b"/><feFlood flood-opacity="0.451"/><feComposite operator="in" in2="b"/><feComposite in="SourceGraphic"/></filter></defs><g transform="translate(31.5 -209.328)"><g class="a" transform="translate(32.02 272.848)"><circle class="l" cx="44.104" cy="44.104" r="44.104"/><circle class="m" cx="44.104" cy="44.104" r="46.104"/></g><g transform="translate(-31.5 209.328)"><g class="b" transform="translate(36.322 36.323)"><circle class="l" cx="71.301" cy="71.301" r="71.301"/><circle class="m" cx="71.301" cy="71.301" r="72.301"/></g><g transform="translate(0 0)"><path class="c" d="M1422.609,611.662c1.732-.068,35.349-5.447,35.349-5.447l-2.173,32.759" transform="translate(-1265.26 -435.175)"/><path class="c" d="M1251.863,397.494c-1.733,0-35.536,4.045-35.536,4.045l3.467-32.647" transform="translate(-1195.487 -354.903)"/><path class="d" d="M1378.739,379.275a107.623,107.623,0,0,0-152.2,0,108.85,108.85,0,0,0-11.608,13.7c.89.555,1.871,1.169,2.829,1.772a104.327,104.327,0,0,1,178.31,107.072,1.319,1.319,0,0,0,.5,1.727l.592.352a1.326,1.326,0,0,0,1.862-.541,107.787,107.787,0,0,0-20.286-124.085Z" transform="translate(-1195.015 -347.753)"/><path class="d" d="M1375.422,550.089c-23.814,31.2-64.812,48.587-108.885,37.969a102.5,102.5,0,0,1-76.07-78.848,105.249,105.249,0,0,1,7.285-66.121,1.319,1.319,0,0,0-.52-1.693l-.6-.355a1.325,1.325,0,0,0-1.879.575,107.652,107.652,0,0,0,173.806,121.353,108.842,108.842,0,0,0,8.815-9.973C1376.726,552.026,1376.059,551.033,1375.422,550.089Z" transform="translate(-1184.836 -379.243)"/></g></g><g transform="translate(32.02 250.284)"><g transform="translate(0 0)"><g class="e" transform="translate(-1327.128 -384.475)"><path class="l" d="M 1356.32958984375 428.1038208007812 L 1332.514038085938 428.1038208007812 C 1330.371337890625 428.1038208007812 1328.628051757812 426.3605346679688 1328.628051757812 424.2177734375 L 1328.628051757812 389.861083984375 C 1328.628051757812 387.7182922363281 1330.371337890625 385.9750061035156 1332.514038085938 385.9750061035156 L 1348.424072265625 385.9750061035156 C 1348.52294921875 385.9750061035156 1348.92138671875 385.9943237304688 1349.900268554688 386.2431335449219 C 1350.571044921875 386.412841796875 1351.19580078125 386.7584533691406 1351.708618164062 387.2428894042969 L 1356.196044921875 391.4933776855469 C 1356.698608398438 391.9678344726562 1359.404296875 395.0068359375 1359.732666015625 395.4940185546875 L 1359.8046875 395.6009216308594 C 1360.07421875 396.0008850097656 1360.11865234375 396.0774536132812 1360.14453125 396.1859436035156 C 1360.203735351562 396.4339294433594 1360.215576171875 396.9745483398438 1360.215576171875 397.7664794921875 L 1360.215576171875 424.2177734375 C 1360.215576171875 426.3605346679688 1358.472290039062 428.1038208007812 1356.32958984375 428.1038208007812 Z"/><path class="n" d="M 1356.32958984375 426.6038208007812 C 1357.645263671875 426.6038208007812 1358.715576171875 425.533447265625 1358.715576171875 424.2177734375 L 1358.715576171875 397.7664794921875 C 1358.715576171875 397.220458984375 1358.708251953125 396.8423461914062 1358.693603515625 396.6376953125 C 1358.653198242188 396.5764465332031 1358.604125976562 396.5036315917969 1358.560791015625 396.4393005371094 L 1358.499267578125 396.3478393554688 C 1358.0966796875 395.7967834472656 1355.63525390625 393.0333251953125 1355.16455078125 392.5823974609375 L 1350.678466796875 388.3331909179688 C 1350.351318359375 388.0241394042969 1349.95556640625 387.8043823242188 1349.530883789062 387.6969299316406 C 1348.764892578125 387.5022583007812 1348.450073242188 387.4774169921875 1348.411987304688 387.4750061035156 L 1332.514038085938 387.4750061035156 C 1331.198364257812 387.4750061035156 1330.128051757812 388.5453796386719 1330.128051757812 389.861083984375 L 1330.128051757812 424.2177734375 C 1330.128051757812 425.533447265625 1331.198364257812 426.6038208007812 1332.514038085938 426.6038208007812 L 1356.32958984375 426.6038208007812 M 1356.32958984375 429.6038208007812 L 1332.514038085938 429.6038208007812 C 1329.539428710938 429.6038208007812 1327.128051757812 427.1923828125 1327.128051757812 424.2177734375 L 1327.128051757812 389.861083984375 C 1327.128051757812 386.886474609375 1329.539428710938 384.4750061035156 1332.514038085938 384.4750061035156 L 1348.424072265625 384.4750061035156 C 1348.89990234375 384.4750061035156 1349.621337890625 384.6245422363281 1350.269775390625 384.7893371582031 C 1351.195556640625 385.0235900878906 1352.0439453125 385.49609375 1352.73876953125 386.152587890625 L 1357.2275390625 390.4043579101562 C 1357.771484375 390.9179077148438 1360.560791015625 394.0368041992188 1360.977783203125 394.6575317382812 C 1361.633544921875 395.6336059570312 1361.715576171875 395.6746215820312 1361.715576171875 397.7664794921875 L 1361.715576171875 424.2177734375 C 1361.715576171875 427.1923828125 1359.30419921875 429.6038208007812 1356.32958984375 429.6038208007812 Z"/></g><rect class="d" width="20.151" height="2.647" transform="translate(5.213 17.996)"/><rect class="d" width="15.612" height="2.647" transform="translate(5.213 24.913)"/><rect class="d" width="15.612" height="2.647" transform="translate(5.213 31.831)"/></g><path class="d" d="M1359.332,385.5l.4,8.463a2.717,2.717,0,0,0,2.717,2.7l9.37.173-2.02-3.961-3.953-4.117-3.541-2.718Z" transform="translate(-1338.021 -384.82)"/></g><g transform="translate(-4.708 316.952)"><g class="o" transform="matrix(1, 0, 0, 1, -26.79, -107.62)"><rect class="f" width="53.603" height="35.073" transform="translate(26.79 107.62)"/></g><rect class="g" width="29.118" height="1.985" transform="translate(17.206 7.941)"/><rect class="g" width="29.118" height="1.985" transform="translate(17.206 17.206)"/><rect class="g" width="29.118" height="1.985" transform="translate(17.206 26.47)"/><path class="h" d="M561.623,407.07l2.029,2.023,3.251-4.405" transform="translate(-555.717 -399.167)"/><path class="h" d="M561.623,407.07l2.029,2.023,3.251-4.405" transform="translate(-555.717 -389.902)"/><path class="h" d="M561.623,407.07l2.029,2.023,3.251-4.405" transform="translate(-555.717 -380.637)"/></g><g transform="translate(99.884 315.927)"><g transform="translate(0 0)"><g transform="translate(1.183 0)"><g class="i" transform="translate(30.734 39.899)"><rect class="l" width="6.159" height="12.617"/><rect class="m" x="-1.5" y="-1.5" width="9.159" height="15.617"/></g><g class="i" transform="translate(0 0)"><rect class="l" width="67.626" height="41.67" rx="6.667"/><rect class="m" x="-1.5" y="-1.5" width="70.626" height="44.67" rx="8.167"/></g><g class="e" transform="translate(-1353.665 -543.857)"><path class="l" d="M 1403.106811523438 601.1774291992188 L 1401.606811523438 601.1774291992188 L 1373.350952148438 601.1774291992188 L 1371.850952148438 601.1774291992188 L 1371.850952148438 599.6774291992188 L 1371.850952148438 599.4053955078125 C 1371.850952148438 596.3531494140625 1374.333862304688 593.8699951171875 1377.3857421875 593.8699951171875 L 1397.571411132812 593.8699951171875 C 1400.623657226562 593.8699951171875 1403.106811523438 596.3531494140625 1403.106811523438 599.4053955078125 L 1403.106811523438 599.6774291992188 L 1403.106811523438 601.1774291992188 Z"/><path class="n" d="M 1401.606811523438 599.6774291992188 L 1401.606811523438 599.4053955078125 C 1401.606811523438 597.1765747070312 1399.800170898438 595.3699951171875 1397.571411132812 595.3699951171875 L 1377.3857421875 595.3699951171875 C 1375.156860351562 595.3699951171875 1373.350952148438 597.1765747070312 1373.350952148438 599.4053955078125 L 1373.350952148438 599.6774291992188 L 1401.606811523438 599.6774291992188 M 1404.606811523438 602.6774291992188 L 1370.350952148438 602.6774291992188 L 1370.350952148438 599.4053955078125 C 1370.350952148438 595.5260620117188 1373.506713867188 592.3699951171875 1377.3857421875 592.3699951171875 L 1397.571411132812 592.3699951171875 C 1401.450805664062 592.3699951171875 1404.606811523438 595.5260620117188 1404.606811523438 599.4053955078125 L 1404.606811523438 602.6774291992188 Z"/></g></g><line class="j" x2="69.993" transform="translate(0 37.524)"/></g><g transform="translate(21.128 2.432)"><path class="d" d="M5.582,87.063a11.2,11.2,0,0,1,2.073-5.422L4.993,78.88A14.908,14.908,0,0,0,1.85,87Z" transform="translate(-1.85 -70.881)"/><path class="d" d="M8.769,196.274a11.21,11.21,0,0,1-1.553-3.728L3.45,192.48a14.919,14.919,0,0,0,2.669,6.359Z" transform="translate(-3.285 -172.775)"/><path class="d" d="M60.536,257.347a11.183,11.183,0,0,1-4.914-2.267L53,257.611a14.886,14.886,0,0,0,7.47,3.368Z" transform="translate(-47.729 -228.924)"/><path class="d" d="M121.826,3.749l.047-2.5-2.94,2.138L116,5.52l2.857,2.237,2.859,2.236.04-2.332a11.262,11.262,0,0,1-1.133,22.117l-.063,3.621a14.981,14.981,0,0,0,1.265-29.651Z" transform="translate(-104.238 -1.25)"/><path class="d" d="M3.436,9.478a3.557,3.557,0,0,1,0-7.11,4.525,4.525,0,0,1,8.388,1.145A3.071,3.071,0,1,1,12.2,9.634Zm.11-6.326a2.77,2.77,0,1,0-.1,5.54l8.749.152a2.227,2.227,0,0,0,.541-.072,2.282,2.282,0,1,0-1.134-4.422.394.394,0,0,1-.487-.328A3.737,3.737,0,0,0,4.034,2.93a.393.393,0,0,1-.363.226Z" transform="matrix(1, -0.017, 0.017, 1, 7.218, 13.141)"/></g></g><path class="k" d="M9.215,24.742A9.215,9.215,0,0,1,8.889,6.317,11.737,11.737,0,0,1,30.691,8.9a7.955,7.955,0,1,1,1.244,15.838Z" transform="translate(56.277 301.571)"/></g></svg>