<svg xmlns="http://www.w3.org/2000/svg" width="20.164" height="17.98" viewBox="0 0 20.164 17.98"><defs><style>.a{fill:#f7a02e;}</style></defs><path class="a" d="M291.1,52l-7.9-13.7c-1-1.7-2.5-1.7-3.5,0L271.8,52c-1,1.7-.2,3,1.8,3h15.8c1.9.1,2.7-1.3,1.7-3m-10.8-9.8a1.433,1.433,0,0,1,1.1-.5,1.606,1.606,0,0,1,1.1.5,1.5,1.5,0,0,1,.4,1.1c0,.4-.6,3.3-.8,5.4h-1.4c-.2-2.1-.8-5-.8-5.4a2.1,2.1,0,0,1,.4-1.1m2.2,10a1.713,1.713,0,0,1-2.2,0,1.366,1.366,0,0,1-.4-1.1,1.5,1.5,0,1,1,2.6,1.1" transform="translate(-271.37 -37.025)"/></svg>