<svg xmlns="http://www.w3.org/2000/svg" width="16.055" height="16.057" viewBox="0 0 16.055 16.057"><g transform="translate(-429.142 -921.5)"><g transform="translate(429.142 921.5)"><g transform="translate(4.326)"><path d="M436.6,938.878a.354.354,0,0,1-.339-.453l.653-2.226a.354.354,0,1,1,.679.2l-.471,1.6,1.6-.471a.354.354,0,1,1,.2.679l-2.226.653A.353.353,0,0,1,436.6,938.878Z" transform="translate(-436.244 -927.146)"/><path d="M437.038,938.431l-.244.831a.2.2,0,0,0,.249.249l.831-.244Z" transform="translate(-436.456 -928.118)"/><path d="M446.286,925.111l0,0-.511-.512,0,0-.684-.684-7.537,7.509.574.574.736.06.041.716.6.6,7.537-7.509Z" transform="translate(-436.756 -922.444)"/><path d="M452.345,925.09l-1.955-1.955.447-.419,1.955,1.955Z" transform="translate(-441.773 -921.976)"/><path d="M453.512,923.855l-1.874-1.874.288-.291a.658.658,0,0,1,.931,0l.937.937a.658.658,0,0,1,.005.931Z" transform="translate(-442.261 -921.5)"/></g><path d="M436.677,938.191a7.535,7.535,0,1,1,2.218-14.737.829.829,0,0,1-.487,1.584,5.87,5.87,0,1,0,3.83,3.709.828.828,0,0,1,1.567-.537,7.538,7.538,0,0,1-7.128,9.982Z" transform="translate(-429.142 -922.134)"/></g></g></svg>