<svg xmlns="http://www.w3.org/2000/svg" width="74" height="74" viewBox="0 0 74 74"><defs><style>.a{fill:#fff;}</style></defs><path class="a" d="M-42.589,22.588a37,37,0,0,0-37,37,37,37,0,0,0,37,37,37,37,0,0,0,37-37A37,37,0,0,0-42.589,22.588ZM-21,79.411h-5.753L-45.346,60.731a12.954,12.954,0,0,1-17.421-5.665A12.952,12.952,0,0,1-60.386,40.03a12.953,12.953,0,0,1,18.319,0,12.954,12.954,0,0,1,2.346,15.114l5.768,5.705v2.735h4.317V67.9h4.317v4.319h2.88L-21,73.657Z" transform="translate(79.589 -22.588)"/><ellipse class="a" cx="4.175" cy="3.795" rx="4.175" ry="3.795" transform="translate(21.865 18.76)"/></svg>