<svg xmlns="http://www.w3.org/2000/svg" width="19" height="17.076" viewBox="0 0 19 17.076"><defs><style>.a{stroke:rgba(0,0,0,0);stroke-miterlimit:10;}</style></defs><g transform="translate(-1283.5 -737.525)"><g transform="translate(1284 738.025)"><path class="a" d="M16,13H2a2,2,0,0,1-2-2V2A2,2,0,0,1,2,0H16a2,2,0,0,1,2,2v9A2,2,0,0,1,16,13ZM3,2A1,1,0,0,0,2,3v7a1,1,0,0,0,1,1H15a1,1,0,0,0,1-1V3a1,1,0,0,0-1-1Z" transform="translate(0 0)"/><path d="M112,184h2.41v3.615H112Z" transform="translate(-104.169 -172.179)"/><path d="M63.145,229.442H52.3c-.166,0-.3-.323-.3-.721s.135-.721.3-.721H63.145c.166,0,.3.323.3.721S63.311,229.442,63.145,229.442Z" transform="translate(-48.687 -212.866)"/></g></g></svg>