<svg xmlns="http://www.w3.org/2000/svg" width="18.815" height="14.582" viewBox="0 0 18.815 14.582"><defs><style>.a{fill:#335ca5;}</style></defs><path class="a" d="M51.442,97.7c0-.208,0-1.7,0-1.906,0-.726-1.133-1.437-2.256-1.87-.11-.043-.219-.084-.327-.121-.055-.019-.408-.18-.187-.867h0a3.86,3.86,0,0,0,1.01-2.534,2.041,2.041,0,0,0-2.065-2.243h-.007a2.038,2.038,0,0,0-2.06,2.243,3.863,3.863,0,0,0,1.01,2.541.8.8,0,0,1,.038.531,3.731,3.731,0,0,1,1.16,3.608,6.943,6.943,0,0,0-1.234-2.364h.005l-.021-.027a4.786,4.786,0,0,0-1.718-1.271,10.69,10.69,0,0,0-1.141-.5.682.682,0,0,1-.385-.47,1.475,1.475,0,0,1,.083-.6h-.005a4.748,4.748,0,0,0,1.244-3.122,2.515,2.515,0,0,0-2.543-2.764h-.009a2.515,2.515,0,0,0-2.544,2.764,4.753,4.753,0,0,0,1.244,3.122h0a1.458,1.458,0,0,1,.083.6.679.679,0,0,1-.385.47,10.676,10.676,0,0,0-1.14.5,4.791,4.791,0,0,0-1.719,1.271l-.021.027h.005a6.961,6.961,0,0,0-1.234,2.364,3.729,3.729,0,0,1,1.161-3.608.789.789,0,0,1,.038-.531A3.862,3.862,0,0,0,38.523,90.4a2.038,2.038,0,0,0-2.06-2.243h-.007A2.041,2.041,0,0,0,34.392,90.4a3.86,3.86,0,0,0,1.01,2.534H35.4c.221.687-.131.848-.186.867-.109.037-.218.078-.327.121-1.123.433-2.256,1.144-2.256,1.87V97.7c0,.746,1.738,1.856,4.845,2.446h-.01a24.261,24.261,0,0,0,4.311.4H42.3a24.231,24.231,0,0,0,4.31-.4H46.6C49.7,99.559,51.442,98.449,51.442,97.7Z" transform="translate(-32.628 -85.968)"/></svg>