<svg xmlns="http://www.w3.org/2000/svg" xmlns:xlink="http://www.w3.org/1999/xlink" width="156.184" height="128.153" viewBox="0 0 156.184 128.153"><defs><style>.a,.b,.c{fill:#cadff2;}.a{opacity:0.3;}.b{opacity:0.6;}.d,.k,.m,.n{fill:#fff;}.e,.i,.j{fill:#335ca5;}.f{fill:#ff7baa;opacity:0;}.g{fill:#2f7ff4;}.h{fill:#76abf8;}.i{stroke-miterlimit:10;}.k{stroke:#fff;stroke-width:4px;}.l{fill:#70b270;}.m{stroke:#70b270;}.m,.n{stroke-width:2px;}.n{stroke:#adafb2;}.o{fill:#adafb2;}.p,.q{stroke:none;}.q{fill:#fff;}.r{fill:none;}.s{filter:url(#a);}</style><filter id="a" x="0" y="12" width="107.491" height="73.203" filterUnits="userSpaceOnUse"><feOffset dy="3" input="SourceAlpha"/><feGaussianBlur stdDeviation="3" result="b"/><feFlood flood-opacity="0.349"/><feComposite operator="in" in2="b"/><feComposite in="SourceGraphic"/></filter></defs><g transform="translate(-484 -267.001)"><g transform="translate(975.49 -4341.509)"><g transform="translate(-475.49 4608.51)"><circle class="a" cx="64.077" cy="64.077" r="64.077"/><circle class="b" cx="55.339" cy="55.339" r="55.339" transform="translate(8.738 8.738)"/><circle class="c" cx="45.873" cy="45.873" r="45.873" transform="translate(17.475 17.475)"/></g></g><g transform="translate(-411.096 -250.988)"><rect class="d" width="88.283" height="53.818" transform="translate(904.574 536.875)"/><g class="s" transform="matrix(1, 0, 0, 1, 895.1, 517.99)"><rect class="d" width="89.491" height="55.203" transform="translate(9 18)"/></g><path class="e" d="M992.259,537.318v52.545H905.425V537.318h86.834m1.328-1.329H904.1v55.2h89.491v-55.2Z"/><rect class="f" width="78.437" height="44.638" transform="translate(909.624 541.272)"/><rect class="g" width="26.427" height="14.081" transform="translate(960.633 570.584)"/><rect class="h" width="25.015" height="14.081" transform="translate(932.453 570.584)"/><rect class="h" width="54.607" height="24.902" transform="translate(932.453 542.516)"/><rect class="g" width="18.676" height="42.149" transform="translate(910.624 542.516)"/></g><g transform="translate(551.371 309.189)"><g transform="translate(0 0)"><g class="i" transform="translate(7.818 24.872)"><path class="p" d="M 54.46142959594727 19.612060546875 C 54.38623046875 19.612060546875 54.29262924194336 19.612060546875 54.18930053710938 19.60828971862793 L 54.14926910400391 19.60683059692383 L 54.10932159423828 19.6037712097168 C 52.8673210144043 19.5085506439209 51.73366928100586 18.93921089172363 50.91719818115234 18.00065040588379 C 50.10445404052734 17.06635856628418 49.6990966796875 15.87358570098877 49.77423858642578 14.63948535919189 C 49.78915405273438 14.24832725524902 49.63972091674805 13.47659015655518 49.40496063232422 13.22981071472168 C 49.26714706420898 13.08444309234619 48.80989456176758 12.99690532684326 48.14668273925781 12.98663902282715 C 46.14311218261719 12.99602031707764 43.60123825073242 13.00078010559082 40.59146118164062 13.00078010559082 C 37.78987884521484 13.00078010559082 35.13185882568359 12.99668788909912 33.27099990844727 12.99289798736572 L 33.27099990844727 14.54639053344727 C 33.27099990844727 17.13458061218262 31.16534996032715 19.24023056030273 28.57715034484863 19.24023056030273 C 25.98814964294434 19.24023056030273 23.88183975219727 17.13458061218262 23.88183975219727 14.54639053344727 L 23.88183975219727 12.99348926544189 C 22.0205020904541 12.99756145477295 19.36465072631836 13.00195980072021 16.57637023925781 13.00195980072021 C 13.55956363677979 13.00195980072021 11.01284122467041 12.99679851531982 9.006514549255371 12.98662281036377 C 8.191738128662109 12.99659061431885 7.819358825683594 13.17169094085693 7.752919673919678 13.23262023925781 C 7.513489723205566 13.48323059082031 7.364749908447266 14.26187992095947 7.384929656982422 14.64477062225342 C 7.52161979675293 17.20709991455078 5.553989887237549 19.42670059204102 2.998699903488159 19.5913200378418 C 2.874079942703247 19.5993709564209 2.769909858703613 19.5993709564209 2.693849802017212 19.5993709564209 C 1.5135098695755 19.5993709564209 0.3852598369121552 19.15979957580566 -0.4830601513385773 18.36164093017578 C -1.35981011390686 17.55570983886719 -1.891540169715881 16.45713043212891 -1.980290174484253 15.26827049255371 L -1.980810165405273 15.26135063171387 L -1.981280207633972 15.25442981719971 C -2.037680149078369 14.42107009887695 -2.164230108261108 10.09823036193848 0.8917198181152344 6.827860355377197 C 2.270959854125977 5.354100227355957 4.789629936218262 3.59863018989563 8.961910247802734 3.59863018989563 L 9.024899482727051 3.59863018989563 L 9.030030250549316 3.59863018989563 L 9.03516960144043 3.598660230636597 C 11.03481006622314 3.608920335769653 13.5767297744751 3.614120244979858 16.59033012390137 3.614120244979858 C 19.37745094299316 3.614120244979858 22.02698135375977 3.609688758850098 23.88183975219727 3.605589866638184 L 23.88183975219727 2.689940214157104 C 23.88183975219727 0.1039002761244774 25.98814964294434 -1.999999761581421 28.57715034484863 -1.999999761581421 C 31.16534996032715 -1.999999761581421 33.27099990844727 0.1039002761244774 33.27099990844727 2.689940214157104 L 33.27099990844727 3.606475353240967 C 35.21188735961914 3.61114764213562 37.83072280883789 3.61581015586853 40.55229949951172 3.61581015586853 C 43.5725212097168 3.61581015586853 46.11750030517578 3.610040187835693 48.11655044555664 3.598660230636597 L 48.12223815917969 3.59863018989563 L 48.1279296875 3.59863018989563 L 48.19091796875 3.59863018989563 C 52.36774826049805 3.59863018989563 54.8879280090332 5.353920459747314 56.26660919189453 6.826430320739746 C 59.32860946655273 10.10389041900635 59.19762802124023 14.42399024963379 59.14030075073242 15.25675010681152 L 59.13990020751953 15.26251029968262 L 59.13946914672852 15.26827049255371 C 59.05080795288086 16.45586967468262 58.52001953125 17.55538940429688 57.64485931396484 18.36427116394043 C 56.7742805480957 19.16892051696777 55.64371871948242 19.612060546875 54.46142959594727 19.612060546875 Z"/><path class="q" d="M 54.46142196655273 17.61206436157227 C 55.85790634155273 17.61206436157227 57.03955841064453 16.53223037719727 57.14502334594727 15.11937999725342 C 57.17382431030273 14.70093059539795 57.37060546875 10.93774700164795 54.806640625 8.193363189697266 C 53.69823837280273 7.009513378143311 51.65575790405273 5.598630428314209 48.19092178344727 5.598630428314209 L 48.12792205810547 5.598630428314209 C 45.86237335205078 5.611522197723389 43.1546745300293 5.615808486938477 40.55083465576172 5.615808486938477 C 36.54666519165039 5.615808486938477 32.78914260864258 5.60566520690918 31.2709903717041 5.601080417633057 L 31.2709903717041 2.689946889877319 C 31.2709903717041 1.206046938896179 30.06493949890137 -3.059895789192524e-06 28.57715606689453 -3.059895789192524e-06 C 27.08935737609863 -3.059895789192524e-06 25.88183975219727 1.206046938896179 25.88183975219727 2.689946889877319 L 25.88183975219727 5.600580215454102 C 24.36509323120117 5.604879379272461 20.60070991516113 5.614125728607178 16.58843612670898 5.614125728607178 C 13.98998165130615 5.614125728607178 11.28714752197266 5.610245227813721 9.024906158447266 5.598630428314209 L 8.961923599243164 5.598630428314209 C 5.504889965057373 5.598630428314209 3.460939884185791 7.009513378143311 2.353023290634155 8.193363189697266 C -0.2114268243312836 10.93774700164795 -0.01416015625 14.70093059539795 0.01415651012212038 15.11937999725342 C 0.119623176753521 16.53223037719727 1.298823118209839 17.59936332702637 2.693856477737427 17.59936332702637 C 2.754389762878418 17.59936332702637 2.809573173522949 17.59936332702637 2.870123147964478 17.59546279907227 C 4.344239711761475 17.50048065185547 5.466306686401367 16.22363090515137 5.38769006729126 14.74999713897705 C 5.36083984375 14.24023056030273 5.472656726837158 12.72387981414795 6.306639671325684 11.85131359100342 C 6.869139671325684 11.26049709320068 7.839839935302734 10.998046875 9.000490188598633 10.98657989501953 C 11.26601791381836 10.99810981750488 13.97190093994141 11.00196075439453 16.57562255859375 11.00195980072021 C 20.58473014831543 11.0019588470459 24.35019874572754 10.99282455444336 25.88183975219727 10.98853015899658 L 25.88183975219727 14.54638004302979 C 25.88183975219727 16.0344295501709 27.08935737609863 17.24023056030273 28.57715606689453 17.24023056030273 C 30.06493949890137 17.24023056030273 31.2709903717041 16.0344295501709 31.2709903717041 14.54638004302979 L 31.2709903717041 10.98828029632568 C 32.80212783813477 10.99228763580322 36.57494735717773 11.0007905960083 40.59212875366211 11.00078964233398 C 43.19176864624023 11.00078964233398 45.89410781860352 10.99722766876221 48.15625762939453 10.98657989501953 C 49.48583984375 11.00439739227295 50.29394149780273 11.26049709320068 50.85400772094727 11.85131359100342 C 51.68408966064453 12.72387981414795 51.79590606689453 14.23243045806885 51.77148818969727 14.74609661102295 C 51.67382431030273 16.21973037719727 52.78467178344727 17.49633026123047 54.26220703125 17.6096134185791 C 54.32910537719727 17.61206436157227 54.39598846435547 17.61206436157227 54.46142196655273 17.61206436157227 M 54.46142196655273 21.61206436157227 C 54.37469100952148 21.61206436157227 54.25588989257812 21.61206436157227 54.11582183837891 21.60692977905273 L 54.0360221862793 21.60401344299316 L 53.95642471313477 21.59791374206543 C 52.18708801269531 21.46224784851074 50.57185745239258 20.6508960723877 49.40825653076172 19.31331443786621 C 48.35243606567383 18.09961318969727 47.77859878540039 16.58001899719238 47.76550674438477 14.98836326599121 C 45.82249069213867 14.99661636352539 43.41222381591797 15.00079727172852 40.59212493896484 15.00079727172852 C 38.67840194702148 15.00079727172852 36.82966232299805 14.99888038635254 35.25602340698242 14.99645519256592 C 35.02386093139648 18.4785099029541 32.11699295043945 21.24023056030273 28.57715606689453 21.24023056030273 C 25.0369873046875 21.24023056030273 22.12973213195801 18.47874641418457 21.89686584472656 14.99731731414795 C 20.32688140869141 14.99991416931152 18.48338317871094 15.00196361541748 16.57562255859375 15.00196361541748 C 13.75005531311035 15.00196361541748 11.33617305755615 14.9974365234375 9.39130687713623 14.98851680755615 C 9.371036529541016 16.591552734375 8.782614707946777 18.1219539642334 7.70970630645752 19.3371467590332 C 6.529606342315674 20.67374610900879 4.902223110198975 21.47281455993652 3.127323150634766 21.58718109130859 C 2.938256502151489 21.59936332702637 2.78527307510376 21.59936332702637 2.693856477737427 21.59936332702637 C 1.010806560516357 21.59936332702637 -0.5981268286705017 20.97244644165039 -1.836543440818787 19.83407974243164 C -3.088676929473877 18.68311309814453 -3.848043441772461 17.11448097229004 -3.974743604660034 15.41714668273926 L -3.97577691078186 15.40329647064209 L -3.976710081100464 15.38944721221924 C -4.011993408203125 14.86819648742676 -4.056676864624023 13.46941375732422 -3.710760116577148 11.74281406402588 C -3.22376012802124 9.31209659576416 -2.137560129165649 7.140347003936768 -0.5695934891700745 5.462363719940186 C 0.4646065235137939 4.357280254364014 1.697256565093994 3.469730377197266 3.096173286437988 2.82213020324707 C 4.849923133850098 2.01028037071228 6.823456287384033 1.598630309104919 8.961923599243164 1.598630309104919 L 9.024906158447266 1.598630309104919 L 9.035173416137695 1.598630309104919 L 9.045439720153809 1.598680257797241 C 11.04154014587402 1.608930230140686 13.57937335968018 1.614130258560181 16.58843994140625 1.614130258560181 C 18.52082824707031 1.614130258560181 20.38778686523438 1.611994862556458 21.9691276550293 1.609316945075989 C 22.48773574829102 -1.567424654960632 25.25353050231934 -4.000002861022949 28.57715606689453 -4.000002861022949 C 31.90049743652344 -4.000002861022949 34.66596984863281 -1.566823244094849 35.18392562866211 1.610550999641418 C 36.7913932800293 1.613526701927185 38.64641571044922 1.615813612937927 40.55083847045898 1.615813612937927 C 43.56858825683594 1.615813612937927 46.1102409362793 1.610046982765198 48.10514068603516 1.598696947097778 L 48.11653900146484 1.598630309104919 L 48.12792205810547 1.598630309104919 L 48.19092178344727 1.598630309104919 C 50.33238983154297 1.598630309104919 52.30768966674805 2.010146856307983 54.06197357177734 2.821730375289917 C 55.46077346801758 3.468880176544189 56.69374084472656 4.356363773345947 57.72658920288086 5.459513664245605 C 59.29719161987305 7.14063024520874 60.38322448730469 9.312280654907227 60.87017440795898 11.74281406402588 C 61.21728897094727 13.4753303527832 61.17142486572266 14.87338066101074 61.13558959960938 15.39403057098389 L 61.13478851318359 15.40559673309326 L 61.1339225769043 15.41714668273926 C 61.00747299194336 17.11117935180664 60.25045776367188 18.67943000793457 59.00235748291016 19.8330135345459 C 57.76112365722656 20.98024749755859 56.14844131469727 21.61206436157227 54.46142196655273 21.61206436157227 Z"/></g><g transform="translate(25.886 0)"><g transform="translate(0)"><g class="j" transform="translate(-39.031 -123.032)"><path class="p" d="M 49.57173919677734 147.4486846923828 C 46.40507125854492 147.4486846923828 43.84223937988281 147.2302093505859 41.95444107055664 146.79931640625 C 40.63162994384766 146.4973907470703 39.61014938354492 146.0903930664062 38.83161163330078 145.5550537109375 C 37.67047119140625 144.7566528320312 37.03100204467773 143.6234588623047 37.03100204467773 142.3642272949219 L 37.03100204467773 141.6748046875 C 37.03100204467773 140.0913238525391 38.11175918579102 138.6185913085938 40.24325942993164 137.2975006103516 C 41.75844192504883 136.3583831787109 43.49655532836914 135.6668853759766 44.68437957763672 135.2530670166016 C 42.93678283691406 133.3472290039062 41.94319152832031 130.9793853759766 41.86273956298828 128.4945068359375 C 41.70910263061523 126.796272277832 42.24392700195312 125.1191101074219 43.37340927124023 123.7631072998047 C 44.6620979309082 122.2159652709961 46.62215423583984 121.2316436767578 48.75148391723633 121.0620269775391 C 48.9773063659668 121.0430450439453 49.20565795898438 121.0334320068359 49.43028259277344 121.0334320068359 C 49.46244049072266 121.0334320068359 49.49453353881836 121.0336303710938 49.52656555175781 121.0340118408203 C 49.58068084716797 121.0329895019531 49.63470840454102 121.0324783325195 49.68856048583984 121.0324783325195 C 51.64583206176758 121.0324783325195 53.50938034057617 121.7011871337891 54.93593215942383 122.9154281616211 C 56.43621444702148 124.1924285888672 57.29539108276367 125.9260177612305 57.35606384277344 127.7978973388672 C 57.36485290527344 128.017578125 57.35943603515625 128.2470092773438 57.33951950073242 128.4975738525391 C 57.21989822387695 131.0054168701172 56.17630004882812 133.3872528076172 54.37817764282227 135.2889862060547 C 56.04777145385742 135.8403472900391 57.58890914916992 136.5252075195312 58.78628921508789 137.2524108886719 C 60.9410400390625 138.56103515625 62.03638458251953 140.0445098876953 62.04211807250977 141.6619567871094 L 62.0490608215332 142.3438720703125 L 62.04916000366211 142.3540496826172 L 62.04916000366211 142.3642272949219 C 62.04916000366211 143.6198272705078 61.41596221923828 144.7511138916016 60.26620101928711 145.5496978759766 C 59.49208068847656 146.0873870849609 58.47628021240234 146.4958953857422 57.16073989868164 146.7985534667969 C 55.28565216064453 147.2299499511719 52.73234176635742 147.4486846923828 49.57173919677734 147.4486846923828 Z"/><path class="q" d="M 49.57173919677734 145.4486846923828 C 54.64339065551758 145.4486846923828 60.04916000366211 144.8789215087891 60.04916000366211 142.3642272949219 L 60.04214096069336 141.6748046875 C 60.04214096069336 139.7721099853516 56.28937911987305 137.9220886230469 52.94813919067383 136.9373321533203 C 52.17086029052734 136.2761077880859 51.96335983276367 135.2561645507812 52.4311408996582 134.4015197753906 C 54.20727157592773 132.7695770263672 55.24481201171875 130.6241912841797 55.34328079223633 128.3697357177734 C 55.35734939575195 128.2044219970703 55.3643913269043 128.0355987548828 55.35734939575195 127.8702926635742 C 55.27434158325195 125.169059753418 52.7492790222168 123.0324859619141 49.68855667114258 123.0324859619141 C 49.63688659667969 123.0324859619141 49.58500671386719 123.0330963134766 49.53304290771484 123.0343170166016 C 49.49887847900391 123.0337295532227 49.46463012695312 123.0334320068359 49.4302864074707 123.0334320068359 C 49.25956344604492 123.0334320068359 49.08679580688477 123.0407562255859 48.91403961181641 123.0554122924805 C 45.84360122680664 123.2981033325195 43.58213043212891 125.6791534423828 43.85997009277344 128.3697357177734 C 43.91624069213867 130.6206512451172 44.91510009765625 132.7695770263672 46.66662216186523 134.4155731201172 C 47.0992317199707 135.3019104003906 46.80730056762695 136.3323974609375 45.95265197753906 136.9373321533203 C 42.76616287231445 137.9608001708984 39.03100204467773 139.828369140625 39.03100204467773 141.6748046875 L 39.03100204467773 142.3642272949219 C 39.03100204467773 144.8789215087891 44.50008010864258 145.4486846923828 49.57173919677734 145.4486846923828 M 49.57173919677734 149.4486846923828 C 46.20883178710938 149.4486846923828 43.57162094116211 149.2198791503906 41.50939178466797 148.7491760253906 C 39.93564224243164 148.3899688720703 38.68906021118164 147.8842315673828 37.69843292236328 147.2030639648438 C 35.97830963134766 146.0202941894531 35.03100204467773 144.3018341064453 35.03100204467773 142.3642272949219 L 35.03100204467773 141.6748046875 C 35.03100204467773 140.68017578125 35.31578063964844 139.173583984375 36.67250061035156 137.6446380615234 C 37.31866073608398 136.9164581298828 38.14202117919922 136.2468414306641 39.18963241577148 135.5975341796875 C 39.95551300048828 135.1228485107422 40.76753616333008 134.7075042724609 41.54586791992188 134.3538665771484 C 40.52102661132812 132.599609375 39.9408073425293 130.6431121826172 39.86575698852539 128.6159820556641 C 39.68125152587891 126.4064178466797 40.37783813476562 124.2344970703125 41.836669921875 122.4830932617188 C 43.46628189086914 120.5266494750977 45.92525100708008 119.2827682495117 48.5850830078125 119.0689468383789 C 48.86606979370117 119.0453872680664 49.15038681030273 119.0334320068359 49.43028259277344 119.0334320068359 C 49.46006011962891 119.0334320068359 49.48979949951172 119.033561706543 49.51948928833008 119.0338287353516 C 49.57596206665039 119.0329284667969 49.63233947753906 119.0324783325195 49.68856048583984 119.0324783325195 C 52.12039947509766 119.0324783325195 54.44433975219727 119.8705902099609 56.23226165771484 121.3924331665039 C 57.155029296875 122.1778717041016 57.89429092407227 123.1076202392578 58.42950057983398 124.1558532714844 C 59.00180053710938 125.276725769043 59.31302642822266 126.4771118164062 59.35471343994141 127.7241668701172 C 59.36599349975586 128.0122833251953 59.35977935791016 128.3076324462891 59.33574295043945 128.6236724853516 C 59.23345947265625 130.660888671875 58.62384414672852 132.6233062744141 57.57041168212891 134.3773803710938 C 58.39425277709961 134.7439727783203 59.1556510925293 135.1367797851562 59.82447052001953 135.54296875 C 60.89606094360352 136.1937713623047 61.73805999755859 136.8728332519531 62.39859008789062 137.6189727783203 C 63.74497985839844 139.1398620605469 64.03701019287109 140.6446685791016 64.04207611083984 141.6480712890625 L 64.0489501953125 142.3235015869141 L 64.04916381835938 142.3438720703125 L 64.04916381835938 142.3642272949219 C 64.04916381835938 144.2943267822266 63.11087036132812 146.0089721679688 61.40713119506836 147.1923370361328 C 60.41990280151367 147.8780517578125 59.17757034301758 148.3867950439453 57.60917282104492 148.7476348876953 C 55.55873107910156 149.2193756103516 52.92967224121094 149.4486846923828 49.57173919677734 149.4486846923828 Z"/></g></g></g><g class="j" transform="translate(-31.671 -90.544)"><path class="p" d="M 42.20822525024414 160.3522491455078 C 39.04243469238281 160.3522491455078 36.48026657104492 160.1339416503906 34.5929069519043 159.703369140625 C 33.27074432373047 159.4017486572266 32.2497444152832 158.9951934814453 31.47156524658203 158.4604644775391 C 30.31044578552246 157.66259765625 29.67099571228027 156.5299987792969 29.67099571228027 155.2713165283203 L 29.67099571228027 154.5784149169922 C 29.67099571228027 152.996337890625 30.75152587890625 151.5242309570312 32.88257598876953 150.2030029296875 C 34.40033340454102 149.2619934082031 36.1369743347168 148.5716094970703 37.32309341430664 148.1590576171875 C 35.57685470581055 146.2552947998047 34.58370590209961 143.8880310058594 34.5027961730957 141.4028930664062 C 34.34767532348633 139.7065887451172 34.87989807128906 138.0307464599609 36.00620651245117 136.6753997802734 C 37.29513549804688 135.1243591308594 39.25898742675781 134.1366271972656 41.39420700073242 133.9654388427734 L 41.40501403808594 133.9645690917969 L 41.41583633422852 133.9638214111328 C 41.63911437988281 133.9483642578125 41.85778427124023 133.9405212402344 42.0657958984375 133.9405212402344 C 42.09892272949219 133.9405212402344 42.13204574584961 133.9407196044922 42.16518020629883 133.9411010742188 C 42.22209167480469 133.9399719238281 42.27896499633789 133.9394073486328 42.33553695678711 133.9394073486328 C 44.29089736938477 133.9394073486328 46.15274429321289 134.6086120605469 47.57811737060547 135.82373046875 C 49.07749557495117 137.1019439697266 49.93629455566406 138.8371887207031 49.9963264465332 140.7098083496094 L 49.99668502807617 140.7210083007812 L 49.99692535400391 140.7322082519531 C 50.00182723999023 140.9676208496094 49.99615097045898 141.1876220703125 49.97954940795898 141.4033355712891 C 49.85707092285156 143.9131774902344 48.8122444152832 146.2955169677734 47.01558303833008 148.1952209472656 C 48.68666458129883 148.7466735839844 50.22848510742188 149.4310913085938 51.42546463012695 150.1572570800781 C 53.58418273925781 151.4668884277344 54.67985153198242 152.9526824951172 54.68212127685547 154.5733795166016 L 54.68562698364258 155.2611236572266 L 54.6856575012207 155.2662200927734 L 54.6856575012207 155.2713165283203 C 54.6856575012207 156.5264129638672 54.05242538452148 157.6571197509766 52.90260696411133 158.4551544189453 C 52.12876510620117 158.9922485351562 51.11331558227539 159.4002990722656 49.79823684692383 159.7026214599609 C 47.92322540283203 160.1336822509766 45.36957550048828 160.3522491455078 42.20822525024414 160.3522491455078 Z"/><path class="q" d="M 42.20822525024414 158.3522491455078 C 47.28339385986328 158.3522491455078 52.6856575012207 157.7824859619141 52.6856575012207 155.2713165283203 L 52.68212509155273 154.5784149169922 C 52.68212509155273 152.6756744384766 48.92938613891602 150.8292388916016 45.588134765625 149.844482421875 C 44.81087493896484 149.1832427978516 44.59984588623047 148.1597747802734 45.07113647460938 147.3051147460938 C 46.84727478027344 145.6731872558594 47.88129425048828 143.5312805175781 47.98328399658203 141.2768402099609 C 47.99735641479492 141.1079864501953 48.00087738037109 140.9427032470703 47.99735641479492 140.7738952636719 C 47.91093826293945 138.0780944824219 45.39305877685547 135.9394073486328 42.33554077148438 135.9394073486328 C 42.2816047668457 135.9394073486328 42.22731399536133 135.9400787353516 42.17305755615234 135.9414215087891 C 42.13728713989258 135.9408111572266 42.10154342651367 135.9405212402344 42.06579208374023 135.9405212402344 C 41.89413833618164 135.9405212402344 41.72287368774414 135.9473571777344 41.55403518676758 135.9590454101562 C 38.48361587524414 136.2052001953125 36.21860504150391 138.5827178955078 36.49997711181641 141.2768402099609 C 36.55625534057617 143.5242156982422 37.55510711669922 145.6766815185547 39.30309677124023 147.3191680908203 C 39.73921585083008 148.2054748535156 39.44729614257812 149.2360076904297 38.58912658691406 149.844482421875 C 35.40615463256836 150.8644104003906 31.67099571228027 152.7354583740234 31.67099571228027 154.5784149169922 L 31.67099571228027 155.2713165283203 C 31.67099571228027 157.7824859619141 37.13655471801758 158.3522491455078 42.20822525024414 158.3522491455078 M 42.20822525024414 162.3522491455078 C 38.84628677368164 162.3522491455078 36.20978546142578 162.1236114501953 34.14807510375977 161.6532897949219 C 32.57509613037109 161.29443359375 31.32910537719727 160.7892303466797 30.33889579772949 160.1088104248047 C 28.61847496032715 158.9266204833984 27.67099571228027 157.2086181640625 27.67099571228027 155.2713165283203 L 27.67099571228027 154.5784149169922 C 27.67099571228027 153.5841369628906 27.95584487915039 152.0780334472656 29.31289482116699 150.5492553710938 C 29.9588565826416 149.8215484619141 30.78178596496582 149.1522674560547 31.82870483398438 148.5031890869141 C 32.59519577026367 148.0279693603516 33.40673446655273 147.6127166748047 34.18434524536133 147.2593688964844 C 33.16088104248047 145.5066986083984 32.58123397827148 143.5516052246094 32.50584411621094 141.5252532958984 C 32.3195915222168 139.3180541992188 33.01304626464844 137.1479797363281 34.46801376342773 135.3971405029297 C 36.09916687011719 133.4342803955078 38.56541442871094 132.1858215332031 41.234375 131.9718322753906 L 41.25605392456055 131.9701080322266 L 41.27774429321289 131.9685974121094 C 41.54689407348633 131.9499664306641 41.81202697753906 131.9405212402344 42.0657958984375 131.9405212402344 C 42.09630584716797 131.9405212402344 42.12680816650391 131.9406433105469 42.15732192993164 131.94091796875 C 42.21686553955078 131.9399108886719 42.27632904052734 131.9394073486328 42.33553695678711 131.9394073486328 C 44.76602554321289 131.9394073486328 47.08866500854492 132.7783660888672 48.87560653686523 134.3017272949219 C 50.80906677246094 135.9499816894531 51.91699600219727 138.2030029296875 51.99530410766602 140.6457366943359 L 51.99601745605469 140.6681213378906 L 51.99648666381836 140.6905059814453 C 52.00255584716797 140.9816436767578 51.99577713012695 141.2567291259766 51.97577285766602 141.5286560058594 C 51.87171936035156 143.5668334960938 51.26131439208984 145.5294647216797 50.20840835571289 147.2829132080078 C 51.03261947631836 147.6492614746094 51.79418182373047 148.0416870117188 52.46282577514648 148.4473419189453 C 53.53470611572266 149.0976104736328 54.37693405151367 149.7762603759766 55.03762435913086 150.5220489501953 C 56.3902702331543 152.0488891601562 56.67934799194336 153.5601959228516 56.68210601806641 154.5639343261719 L 56.68560409545898 155.2509307861328 L 56.6856575012207 155.2611236572266 L 56.6856575012207 155.2713165283203 C 56.6856575012207 157.2011871337891 55.74713516235352 158.9154205322266 54.04296493530273 160.0981903076172 C 53.05606460571289 160.7831573486328 51.81417465209961 161.2913360595703 50.24634552001953 161.6517791748047 C 48.19609451293945 162.1231231689453 45.56680679321289 162.3522491455078 42.20822525024414 162.3522491455078 Z"/></g><g class="j" transform="translate(-13.145 -90.544)"><path class="p" d="M 49.57173919677734 160.3522491455078 C 46.40560913085938 160.3522491455078 43.84292221069336 160.1339569091797 41.95484924316406 159.7034301757812 C 40.63228988647461 159.4018402099609 39.61096954345703 158.995361328125 38.83255004882812 158.4607543945312 C 37.67079925537109 157.6629028320312 37.03100204467773 156.5301971435547 37.03100204467773 155.2713165283203 L 37.03100204467773 154.5784149169922 C 37.03100204467773 152.9960784912109 38.11175918579102 151.5239410400391 40.24327087402344 150.2028503417969 C 41.76161575317383 149.2617950439453 43.49886322021484 148.5716094970703 44.68574905395508 148.1591491699219 C 42.93745422363281 146.2559356689453 41.94334411621094 143.8884582519531 41.86275100708008 141.4017028808594 C 41.70923614501953 139.7035217285156 42.24328231811523 138.0265960693359 43.37120056152344 136.6710968017578 C 44.65974044799805 135.1225738525391 46.62178039550781 134.1363983154297 48.75421142578125 133.9654388427734 L 48.76618194580078 133.9644775390625 L 48.77817153930664 133.9636688232422 C 49.00373077392578 133.9483032226562 49.22212219238281 133.9405212402344 49.42728042602539 133.9405212402344 C 49.46006393432617 133.9405212402344 49.49277496337891 133.9407043457031 49.52542114257812 133.9411010742188 C 49.58224868774414 133.9399719238281 49.63904571533203 133.9394073486328 49.69552993774414 133.9394073486328 C 51.65117263793945 133.9394073486328 53.51338958740234 134.6085205078125 54.93914031982422 135.8234710693359 C 56.43745040893555 137.1002502441406 57.29550552368164 138.8322601318359 57.35606384277344 140.70166015625 C 57.36484909057617 140.9236450195312 57.35961151123047 141.1478576660156 57.33959197998047 141.403076171875 C 57.22048187255859 143.9105834960938 56.17571258544922 146.2927856445312 54.37568283081055 148.1952514648438 C 56.0467529296875 148.7467041015625 57.5884895324707 149.4310913085938 58.78547286987305 150.1572570800781 C 60.94076919555664 151.4648132324219 62.03638076782227 152.9480438232422 62.04211807250977 154.5657501220703 L 62.0490608215332 155.2510528564453 L 62.04916000366211 155.2611846923828 L 62.04916000366211 155.2713165283203 C 62.04916000366211 156.5265655517578 61.41563034057617 157.6573638916016 60.26526260375977 158.4553985595703 C 59.49125289916992 158.9923553466797 58.47562026977539 159.4003295898438 57.16033172607422 159.70263671875 C 55.28496932983398 160.1336975097656 52.7318000793457 160.3522491455078 49.57173919677734 160.3522491455078 Z"/><path class="q" d="M 49.57173919677734 158.3522491455078 C 54.64339065551758 158.3522491455078 60.04916000366211 157.7824859619141 60.04916000366211 155.2713165283203 L 60.04214096069336 154.5784149169922 C 60.04214096069336 152.6756744384766 56.28937911987305 150.8292388916016 52.94813919067383 149.844482421875 C 52.17086029052734 149.1832427978516 51.96335983276367 148.1597747802734 52.4311408996582 147.3051147460938 C 54.20727157592773 145.6731872558594 55.24481201171875 143.5312805175781 55.34328079223633 141.2768402099609 C 55.35734939575195 141.1079864501953 55.3643913269043 140.9427032470703 55.35734939575195 140.7738952636719 C 55.2744026184082 138.0780944824219 52.753173828125 135.9394073486328 49.69552993774414 135.9394073486328 C 49.64159393310547 135.9394073486328 49.58729934692383 135.9400787353516 49.53304290771484 135.9414215087891 C 49.49787902832031 135.9408111572266 49.4626350402832 135.9405212402344 49.42728424072266 135.9405212402344 C 49.25754165649414 135.9405212402344 49.08578491210938 135.9473571777344 48.91403961181641 135.9590454101562 C 45.84360122680664 136.2052001953125 43.58213043212891 138.5827178955078 43.85997009277344 141.2768402099609 C 43.91624069213867 143.5242156982422 44.91510009765625 145.6766815185547 46.66662216186523 147.3191680908203 C 47.0992317199707 148.2054748535156 46.80730056762695 149.2360076904297 45.95265197753906 149.844482421875 C 42.76616287231445 150.8644104003906 39.03100204467773 152.7354583740234 39.03100204467773 154.5784149169922 L 39.03100204467773 155.2713165283203 C 39.03100204467773 157.7824859619141 44.50008010864258 158.3522491455078 49.57173919677734 158.3522491455078 M 49.57173919677734 162.3522491455078 C 46.20952224731445 162.3522491455078 43.57257080078125 162.1236419677734 41.51021194458008 161.6533660888672 C 39.93693161010742 161.2946166992188 38.69070053100586 160.7895812988281 37.70030212402344 160.1093902587891 C 35.97898101806641 158.92724609375 35.03100204467773 157.2090454101562 35.03100204467773 155.2713165283203 L 35.03100204467773 154.5784149169922 C 35.03100204467773 153.5840606689453 35.31590270996094 152.0778350830078 36.67314147949219 150.5490570068359 C 37.31928253173828 149.8212280273438 38.14244079589844 149.1519317626953 39.18965148925781 148.5028839111328 C 39.95618438720703 148.0278015136719 40.76760864257812 147.6127471923828 41.54529571533203 147.2595367431641 C 40.52084350585938 145.5067138671875 39.94089508056641 143.5505676269531 39.86575317382812 141.5229339599609 C 39.68143081665039 139.3138275146484 40.37702560424805 137.142578125 41.83383178710938 135.391845703125 C 43.46456146240234 133.4320983886719 45.92869186401367 132.185546875 48.59437942504883 131.9718322753906 L 48.61838150024414 131.9699096679688 L 48.64240264892578 131.9682769775391 C 48.91305160522461 131.9498596191406 49.17713165283203 131.9405212402344 49.42728042602539 131.9405212402344 C 49.45742416381836 131.9405212402344 49.48750686645508 131.9406433105469 49.51755142211914 131.94091796875 C 49.57701110839844 131.9399108886719 49.63640213012695 131.9394073486328 49.69552993774414 131.9394073486328 C 52.12615966796875 131.9394073486328 54.44906234741211 132.7781677246094 56.23633193969727 134.3012084960938 C 57.15774917602539 135.0863800048828 57.89596939086914 136.0155487060547 58.43049240112305 137.0628814697266 C 59.00248718261719 138.1836242675781 59.31341552734375 139.3836059570312 59.35478973388672 140.6299285888672 C 59.36580276489258 140.9163818359375 59.35961532592773 141.211181640625 59.33588790893555 141.5278930664062 C 59.23408508300781 143.5653839111328 58.6239013671875 145.5285186767578 57.56935119628906 147.2833251953125 C 58.39316177368164 147.6495513916016 59.15446853637695 148.0418548583984 59.82283020019531 148.4473419189453 C 60.89471054077148 149.0976104736328 61.73694229125977 149.7762603759766 62.39764022827148 150.5220489501953 C 63.74505233764648 152.0429992675781 64.03711700439453 153.5484466552734 64.04207611083984 154.5522155761719 L 64.0489501953125 155.2307891845703 L 64.04916381835938 155.2510528564453 L 64.04916381835938 155.2713165283203 C 64.04916381835938 157.2015228271484 63.11020278930664 158.9159240722656 61.4052619934082 160.0986938476562 C 60.41825103759766 160.7834014892578 59.17626953125 161.2914428710938 57.60834121704102 161.6518249511719 C 55.55778121948242 162.1231384277344 52.92898178100586 162.3522491455078 49.57173919677734 162.3522491455078 Z"/></g><g class="j" transform="translate(5.383 -90.544)"><path class="p" d="M 56.92922210693359 160.3522491455078 C 53.76343536376953 160.3522491455078 51.20127487182617 160.1339416503906 49.31391525268555 159.703369140625 C 47.99174499511719 159.4017486572266 46.97074508666992 158.9951934814453 46.19256210327148 158.4604644775391 C 45.03145217895508 157.66259765625 44.39199447631836 156.5299987792969 44.39199447631836 155.2713165283203 L 44.39199447631836 154.5784149169922 C 44.39199447631836 152.9960784912109 45.47276306152344 151.5239410400391 47.60427474975586 150.2028503417969 C 49.1218376159668 149.2622833251953 50.85796356201172 148.5723571777344 52.04480743408203 148.1598205566406 C 50.29809951782227 146.2559204101562 49.30470657348633 143.8883361816406 49.22379302978516 141.4028625488281 C 49.06868362426758 139.70654296875 49.60092544555664 138.0307159423828 50.72723388671875 136.6753692626953 C 52.01616287231445 135.1243591308594 53.98000335693359 134.1366271972656 56.11521530151367 133.9654388427734 L 56.12602233886719 133.9645690917969 L 56.13683319091797 133.9638214111328 C 56.36010360717773 133.9483642578125 56.57878494262695 133.9405212402344 56.78679275512695 133.9405212402344 C 56.81992340087891 133.9405212402344 56.85304641723633 133.9407196044922 56.88617706298828 133.9411010742188 C 56.94308853149414 133.9399719238281 56.99996185302734 133.9394073486328 57.05653381347656 133.9394073486328 C 59.01189422607422 133.9394073486328 60.87375259399414 134.6085968017578 62.29911422729492 135.82373046875 C 63.79850387573242 137.1019439697266 64.65731048583984 138.8371887207031 64.71733093261719 140.7098236083984 L 64.71769714355469 140.7210693359375 L 64.71793365478516 140.7323150634766 C 64.72282409667969 140.9677581787109 64.71714019775391 141.1877136230469 64.7005615234375 141.4032745361328 C 64.57806396484375 143.9131164550781 63.53324508666992 146.2955322265625 61.7365837097168 148.1952209472656 C 63.40765380859375 148.7466735839844 64.94949340820312 149.4310913085938 66.14647674560547 150.1572570800781 C 68.30519104003906 151.4668884277344 69.40085601806641 152.9526062011719 69.40312957763672 154.5733184814453 L 69.40664672851562 155.2610931396484 L 69.40667724609375 155.2662048339844 L 69.40667724609375 155.2713165283203 C 69.40667724609375 156.5264129638672 68.77344512939453 157.6571197509766 67.62362670898438 158.4551544189453 C 66.84978485107422 158.9922485351562 65.83433532714844 159.4002990722656 64.51924133300781 159.7026214599609 C 62.64423370361328 160.1336822509766 60.09058380126953 160.3522491455078 56.92922210693359 160.3522491455078 Z"/><path class="q" d="M 56.92922210693359 158.3522491455078 C 62.00440216064453 158.3522491455078 67.40667724609375 157.7824859619141 67.40667724609375 155.2713165283203 L 67.40313720703125 154.5784149169922 C 67.40313720703125 152.6756744384766 63.65039443969727 150.8292388916016 60.30915451049805 149.844482421875 C 59.53187561035156 149.1832427978516 59.32086563110352 148.1597747802734 59.79213333129883 147.3051147460938 C 61.56827545166016 145.6731872558594 62.602294921875 143.5312805175781 62.70429229736328 141.2768402099609 C 62.71836471557617 141.1079864501953 62.72187423706055 140.9427032470703 62.71836471557617 140.7738952636719 C 62.6319580078125 138.0780944824219 60.11405563354492 135.9394073486328 57.05653762817383 135.9394073486328 C 57.00260543823242 135.9394073486328 56.94831466674805 135.9400787353516 56.8940544128418 135.9414215087891 C 56.8582878112793 135.9408111572266 56.82254028320312 135.9405212402344 56.78679275512695 135.9405212402344 C 56.61513519287109 135.9405212402344 56.44387435913086 135.9473571777344 56.27504348754883 135.9590454101562 C 53.20461273193359 136.2052001953125 50.93962478637695 138.5827178955078 51.22097396850586 141.2768402099609 C 51.27724456787109 143.5242156982422 52.27610397338867 145.6766815185547 54.02411270141602 147.3191680908203 C 54.46023559570312 148.2054748535156 54.16830444335938 149.2360076904297 53.31365585327148 149.844482421875 C 50.12716293334961 150.8644104003906 46.39199447631836 152.7354583740234 46.39199447631836 154.5784149169922 L 46.39199447631836 155.2713165283203 C 46.39199447631836 157.7824859619141 51.85757446289062 158.3522491455078 56.92922210693359 158.3522491455078 M 56.92922210693359 162.3522491455078 C 53.56728363037109 162.3522491455078 50.93079376220703 162.1236114501953 48.86908340454102 161.6532897949219 C 47.29610443115234 161.29443359375 46.05010223388672 160.7892303466797 45.05989456176758 160.1088104248047 C 43.33947372436523 158.9266204833984 42.39199447631836 157.2086181640625 42.39199447631836 155.2713165283203 L 42.39199447631836 154.5784149169922 C 42.39199447631836 153.5840606689453 42.67689514160156 152.0778350830078 44.03413391113281 150.5490417480469 C 44.68027496337891 149.8212280273438 45.50343322753906 149.1519317626953 46.55065536499023 148.5028686523438 C 47.31693649291992 148.0279388427734 48.12815856933594 147.6129760742188 48.90562057495117 147.2598419189453 C 47.88205718994141 145.5072021484375 47.30233001708984 143.5517272949219 47.22684478759766 141.5253753662109 C 47.04062271118164 139.3181610107422 47.73406600952148 137.14794921875 49.18904495239258 135.3971099853516 C 50.82019424438477 133.4342803955078 53.28643417358398 132.1858215332031 55.95538330078125 131.9718322753906 L 55.97705459594727 131.9701080322266 L 55.99874496459961 131.9685974121094 C 56.26787567138672 131.9499664306641 56.53301239013672 131.9405212402344 56.78679275512695 131.9405212402344 C 56.81730651855469 131.9405212402344 56.84780883789062 131.9406433105469 56.87831878662109 131.94091796875 C 56.93786239624023 131.9399108886719 56.99732971191406 131.9394073486328 57.05653381347656 131.9394073486328 C 59.48702239990234 131.9394073486328 61.80966567993164 132.7783660888672 63.59661483764648 134.3017272949219 C 65.53008270263672 135.9499816894531 66.63801574707031 138.2030029296875 66.71631622314453 140.6457366943359 L 66.71703338623047 140.6682434082031 L 66.71750640869141 140.6907501220703 C 66.72355651855469 140.9819030761719 66.71677398681641 141.2568817138672 66.69678497314453 141.5286712646484 C 66.59271240234375 143.5668487548828 65.98231506347656 145.5294647216797 64.92941284179688 147.2828979492188 C 65.75362396240234 147.6492614746094 66.51519012451172 148.0416870117188 67.18383026123047 148.4473419189453 C 68.25571441650391 149.0976104736328 69.09794616699219 149.7762603759766 69.75863647460938 150.5220489501953 C 71.11128234863281 152.0488891601562 71.40036010742188 153.5600433349609 71.40311431884766 154.5637817382812 L 71.40662384033203 155.2508697509766 L 71.40667724609375 155.2610931396484 L 71.40667724609375 155.2713165283203 C 71.40667724609375 157.2011871337891 70.46814727783203 158.9154205322266 68.76398468017578 160.0981903076172 C 67.77708435058594 160.7831573486328 66.53519439697266 161.2913360595703 64.96735382080078 161.6517791748047 C 62.9171028137207 162.1231231689453 60.28781509399414 162.3522491455078 56.92922210693359 162.3522491455078 Z"/></g></g></g><g transform="translate(603.292 310.558)"><g transform="translate(0 0)"><g class="k" transform="translate(0 0)"><rect class="p" width="32.892" height="18.591" rx="9.296"/><rect class="r" x="-2" y="-2" width="36.892" height="22.591" rx="11.296"/></g><circle class="l" cx="7.437" cy="7.437" r="7.437" transform="translate(16.113 1.859)"/></g><g transform="translate(0 0)"><g class="m" transform="translate(0 0)"><rect class="p" width="32.892" height="18.591" rx="9.296"/><rect class="r" x="-1" y="-1" width="34.892" height="20.591" rx="10.296"/></g><circle class="l" cx="7.437" cy="7.437" r="7.437" transform="translate(16.113 1.859)"/></g></g><g transform="translate(593.292 285.001)"><g transform="translate(0 0)"><g class="k" transform="translate(0 0)"><rect class="p" width="32.892" height="18.591" rx="9.296"/><rect class="r" x="-2" y="-2" width="36.892" height="22.591" rx="11.296"/></g><circle class="l" cx="7.437" cy="7.437" r="7.437" transform="translate(16.113 1.859)"/></g><g transform="translate(0 0)"><g class="n" transform="translate(0 0)"><rect class="p" width="32.892" height="18.591" rx="9.296"/><rect class="r" x="-1" y="-1" width="34.892" height="20.591" rx="10.296"/></g><circle class="o" cx="7.437" cy="7.437" r="7.437" transform="translate(2.113 1.859)"/></g></g></g></svg>