<svg id="Layer_1" data-name="Layer 1" xmlns="http://www.w3.org/2000/svg" viewBox="0 0 294 314"><defs><style>.cls-1{fill:#fff;}</style></defs><path class="cls-1" d="M39.69,159.78a107.86,107.86,0,0,1,19.06-52.59L32.64,81a143.8,143.8,0,0,0-28.9,78.75Z"/><path class="cls-1" d="M57.79,230a108,108,0,0,1-15.6-35.67H5.91a143.76,143.76,0,0,0,26.77,60.83Z"/><path class="cls-1" d="M129.14,276.2a107.75,107.75,0,0,1-47.71-21L56.63,280a143.33,143.33,0,0,0,72.51,31.19Z"/><path class="cls-1" d="M170.83,25.6V1.51L142.92,22.58,115,43.65l27.91,21.07,27.91,21.07V63.31a108.53,108.53,0,0,1-7.2,213.3v34.9a144.37,144.37,0,0,0,7.2-285.91Z"/><path id="Path_12872" data-name="Path 12872" class="cls-1" d="M110.33,218.87a34.28,34.28,0,0,1-1.21-68.53,43.56,43.56,0,0,1,81,9.62,29.59,29.59,0,1,1,4.63,58.91Zm0-61a26.7,26.7,0,0,0,0,53.4h84.28a22,22,0,1,0-6.48-43.21,3.78,3.78,0,0,1-4.75-3.08A36,36,0,0,0,115,155.68a3.78,3.78,0,0,1-3.45,2.23Z"/></svg>