<svg id="Layer_1" data-name="Layer 1" xmlns="http://www.w3.org/2000/svg" viewBox="0 0 294 314"><defs><style>.cls-1{fill:#202020;}</style></defs><path class="cls-1" d="M38.07,158.29a108.66,108.66,0,0,1,20.12-52.62L32.35,78.88a144.68,144.68,0,0,0-30.5,78.78Z"/><path class="cls-1" d="M55.07,229.3A108.79,108.79,0,0,1,40,193.12l-36.55-.64a144.78,144.78,0,0,0,25.9,61.71Z"/><path class="cls-1" d="M126.13,277.08a108.53,108.53,0,0,1-47.69-22L53,279.64a144.46,144.46,0,0,0,72.49,32.69Z"/><path class="cls-1" d="M172.54,25.5,173,1.25,144.47,22,116,42.69,143.73,64.4l27.75,21.7.39-22.63a109.29,109.29,0,0,1-11,214.64l-.61,35.14A145.38,145.38,0,0,0,172.54,25.5Z"/><path id="Path_12872" data-name="Path 12872" class="cls-1" d="M106.05,219.46a34.52,34.52,0,0,1,0-69,43.91,43.91,0,0,1,81.4,11.11,29.8,29.8,0,1,1,3.62,59.4Zm1.07-61.39a26.88,26.88,0,0,0-.94,53.76l84.91,1.48a21.62,21.62,0,0,0,5.25-.7,22.15,22.15,0,0,0-11-42.91,3.82,3.82,0,0,1-4.73-3.18,36.27,36.27,0,0,0-68.76-10.61,3.81,3.81,0,0,1-3.52,2.19Z"/></svg>