<svg xmlns="http://www.w3.org/2000/svg" width="33" height="33" viewBox="0 0 33 33">
  <g id="device-created" transform="translate(-769.5 -559.319)">
    <g id="Group_6520" data-name="Group 6520" transform="translate(-850 73)">
      <g id="Group_6509" data-name="Group 6509">
        <g id="Group_6511" data-name="Group 6511">
          <g id="Group_1221" data-name="Group 1221" transform="translate(1620 486.819)">
            <circle id="Ellipse_39" data-name="Ellipse 39" cx="16" cy="16" r="16" transform="translate(0)" fill="#d2e1ef" stroke="#95b1d6" stroke-width="1"/>
          </g>
        </g>
      </g>
    </g>
    <g id="Group_8589" data-name="Group 8589" transform="translate(397.146 -229.92)">
      <path id="Path_4842" data-name="Path 4842" d="M398.869,823.009c0-.509,0-1.017,0-1.525,0-.692.264-.953.95-.963.227,0,.455,0,.709,0V812.8a2.5,2.5,0,0,1,.067-4.728,2.547,2.547,0,0,1,3.113,1.335,2.447,2.447,0,0,1-1.089,3.209.6.6,0,0,0-.386.631c.013,2.264.007,4.527.009,6.79,0,.143.016.286.028.483.27,0,.514,0,.758,0,.62.014.893.287.9.913.007.525,0,1.05,0,1.574Z" transform="translate(-12.658 -7.371)" fill="#2c5c9f"/>
      <path id="Path_4843" data-name="Path 4843" d="M426.819,802.856a9.969,9.969,0,0,1-2.441,6.808c-.233.267-.525.659-.886.34s-.022-.643.228-.918a9.04,9.04,0,0,0,.093-11.887c-.108-.124-.28-.233-.312-.373a2.59,2.59,0,0,1,.02-.659c.2.045.468.022.583.143a9.679,9.679,0,0,1,2.578,5.156c.091.547.11,1.106.137,1.39" transform="translate(-27.964)" fill="#2c5c9f"/>
      <path id="Path_4844" data-name="Path 4844" d="M378.634,803.185a9.76,9.76,0,0,1,2.428-6.524c.1-.112.181-.27.3-.315a2.292,2.292,0,0,1,.581-.065,2.105,2.105,0,0,1,.029.574c-.027.126-.182.225-.281.335a9.06,9.06,0,0,0,0,11.934c.232.258.642.544.258.9-.416.386-.641-.107-.855-.349a9.627,9.627,0,0,1-2.461-6.489" transform="translate(0 -0.071)" fill="#2c5c9f"/>
      <path id="Path_4845" data-name="Path 4845" d="M385.329,806.141A7.947,7.947,0,0,1,387,801.232c.194-.249.421-.564.757-.328.352.247.166.57-.05.85a6.666,6.666,0,0,0-1.471,5.047,6.379,6.379,0,0,0,1.319,3.18c.08.1.222.195.239.306.035.233.1.551-.018.7-.214.263-.462.079-.652-.144a7.184,7.184,0,0,1-1.687-3.7c-.055-.388-.082-.78-.1-1" transform="translate(-4.188 -2.912)" fill="#2c5c9f"/>
      <path id="Path_4846" data-name="Path 4846" d="M421.518,806.075a7.475,7.475,0,0,1-1.644,4.68,1.2,1.2,0,0,1-.339.351.553.553,0,0,1-.464.032.589.589,0,0,1-.14-.461c.011-.128.142-.25.231-.365a6.653,6.653,0,0,0,0-8.445,1.311,1.311,0,0,1-.266-.407c-.039-.15-.014-.452.037-.464a.818.818,0,0,1,.573.04,2.162,2.162,0,0,1,.479.556,7.636,7.636,0,0,1,1.53,4.484" transform="translate(-25.176 -3.001)" fill="#2c5c9f"/>
      <path id="Path_4847" data-name="Path 4847" d="M392.174,809.413a4.884,4.884,0,0,1,.927-3.091c.172-.235.367-.415.654-.218s.195.451.04.691a4.191,4.191,0,0,0,.016,4.968.65.65,0,0,1-.077.625c-.214.209-.439.046-.607-.182a4.98,4.98,0,0,1-.952-2.793" transform="translate(-8.47 -6.164)" fill="#2c5c9f"/>
      <path id="Path_4848" data-name="Path 4848" d="M416.12,809.218a4.941,4.941,0,0,1-.878,2.867c-.174.272-.377.5-.718.271-.313-.205-.144-.465-.006-.683a4.194,4.194,0,0,0-.023-4.932.656.656,0,0,1,.049-.631c.254-.246.475-.008.643.208a5.011,5.011,0,0,1,.933,2.9" transform="translate(-22.34 -6.156)" fill="#2c5c9f"/>
    </g>
  </g>
</svg>
