<svg xmlns="http://www.w3.org/2000/svg" width="33" height="33" viewBox="0 0 33 33"><defs><style>.a{fill:#d2e1ef;stroke:#95b1d6;}.b{fill:#335ca5;}</style></defs><g transform="translate(-511.5 -808.319)"><g transform="translate(-1107.955 494)"><g transform="translate(1619.955 314.819)"><circle class="a" cx="16" cy="16" r="16" transform="translate(0)"/></g></g><g transform="translate(513.363 813.916)"><path class="b" d="M23.079,29.582h-.717V18H19.493V29.582H17.342V23.515H14.474v6.067H12.322V21.309H9.454v8.273H7.3V26.825H4.434v2.758H3.717a.571.571,0,1,0,0,1.1H23.079a.571.571,0,1,0,0-1.1Z" transform="translate(0 -11.601)"/><path class="b" d="M6.732,11.5a.717.717,0,0,0,.466-.179l6.1-5.414,3.872,1.936A.717.717,0,0,0,17.99,7.7L23.943,1.14a.609.609,0,0,0-.1-.846.713.713,0,0,0-1,.125L17.345,6.341,13.508,4.4a.717.717,0,0,0-.789.108L6.266,10.249A.717.717,0,0,0,6.732,11.5Z" transform="translate(-1.939 1)"/></g></g></svg>