<svg id="Layer_1" data-name="Layer 1" xmlns="http://www.w3.org/2000/svg" viewBox="0 0 20 20"><defs><style>.cls-1{fill:#2e7ff2;}.cls-2{fill:#fff;}</style></defs><g id="Path_83" data-name="Path 83"><path class="cls-1" d="M10,0A10,10,0,1,1,0,10,10,10,0,0,1,10,0Z"/></g><path class="cls-2" d="M9.78,17.27a2.53,2.53,0,0,1-1.73-.56,1.89,1.89,0,0,1-.66-1.48,4.26,4.26,0,0,1,0-.61,6.7,6.7,0,0,1,.13-.68h0l.64-2.27c.06-.23.1-.42.14-.6a2.48,2.48,0,0,0,.05-.45.65.65,0,0,0-.05-.3,1,1,0,0,0-.4-.05,1.32,1.32,0,0,0-.39.06l-.42.14-.75.28L6.58,10l.17-.7L6.8,9,7,9c.44-.18.86-.33,1.25-.45A3.87,3.87,0,0,1,9.47,8.3a2.5,2.5,0,0,1,1.71.56,1.89,1.89,0,0,1,.64,1.48c0,.11,0,.3,0,.56a4.26,4.26,0,0,1-.15.76L11,13.93c0,.16-.09.35-.13.58a3.35,3.35,0,0,0,0,.46.66.66,0,0,0,0,.29h0a.82.82,0,0,0,.44.07,1.85,1.85,0,0,0,.41-.07,2.12,2.12,0,0,0,.37-.12l.79-.37-.21.85-.17.7-.05.22-.2.08c-.51.2-.93.36-1.25.47A3.76,3.76,0,0,1,9.78,17.27Z"/><path class="cls-2" d="M10.89,7.13A2,2,0,0,1,9.52,6.6,1.77,1.77,0,0,1,9.52,4a2,2,0,0,1,2.74,0,1.79,1.79,0,0,1,0,2.64A2,2,0,0,1,10.89,7.13Z"/></svg>