<svg id="Layer_1" data-name="Layer 1" xmlns="http://www.w3.org/2000/svg" viewBox="0 0 20 20"><defs><style>.cls-1{fill:#d61e1d;}.cls-2{fill:#fff;}</style></defs><g id="Group_1547" data-name="Group 1547"><g id="Path_391" data-name="Path 391"><path class="cls-1" d="M10,20A10,10,0,1,1,20,10,10,10,0,0,1,10,20Z"/></g><path id="Rectangle_704" data-name="Rectangle 704" class="cls-2" d="M5,13.28,13.28,5A1.18,1.18,0,0,1,15,5h0a1.18,1.18,0,0,1,0,1.67L6.62,15A1.18,1.18,0,0,1,5,15H5A1.18,1.18,0,0,1,5,13.28Z"/><path id="Rectangle_705" data-name="Rectangle 705" class="cls-2" d="M13.28,15,5,6.62A1.18,1.18,0,0,1,5,5H5A1.18,1.18,0,0,1,6.62,5L15,13.28A1.18,1.18,0,0,1,15,15h0A1.18,1.18,0,0,1,13.28,15Z"/></g></svg>