<svg id="Layer_1" data-name="Layer 1" xmlns="http://www.w3.org/2000/svg" viewBox="0 0 20 20"><defs><style>.cls-1{fill:#fd8400;}.cls-2{fill:#fff;}</style></defs><g id="Group_2700" data-name="Group 2700"><circle id="Ellipse_270" data-name="Ellipse 270" class="cls-1" cx="10" cy="10" r="10"/><path id="Error_Icon" data-name="Error Icon" class="cls-2" d="M8.93,5.18a1.39,1.39,0,0,1,1.1-.5,1.55,1.55,0,0,1,1.1.5,1.47,1.47,0,0,1,.4,1.1c0,.4-.6,3.3-.8,5.4H9.33c-.2-2.1-.8-5-.8-5.4a2.16,2.16,0,0,1,.4-1.1m2.2,10a1.72,1.72,0,0,1-2.2,0,1.38,1.38,0,0,1-.4-1.1,1.5,1.5,0,1,1,2.6,1.1"/></g></svg>