<?xml version="1.0" encoding="utf-8"?>
<!-- Generator: Adobe Illustrator 26.0.3, SVG Export Plug-In . SVG Version: 6.00 Build 0)  -->
<svg version="1.1" id="Layer_1" xmlns="http://www.w3.org/2000/svg" xmlns:xlink="http://www.w3.org/1999/xlink" x="0px" y="0px"
	 viewBox="0 0 1000 359" style="enable-background:new 0 0 1000 359;" xml:space="preserve">
<style type="text/css">
	.st0{fill:#DDC5BC;stroke:#DDC5BC;stroke-width:3.8787;stroke-miterlimit:10;}
	.st1{fill:#14326F;}
</style>
<g>
	<g>
		<path class="st0" d="M835.19,198.07c2.72-5.8,5.74-10.15,7.99-16.19c1.88-5.06,5.31-10.2,6.89-15.34c0.25,0-1.43-4.53-1.18-4.53
			c-0.07-0.73-0.15-1.47-0.27-2.72c-0.32,0.79-0.4,1-0.49,1.21c-3.09,1.17-6.41,1.21-9.46,0.64c-5.71-1.08-11.47-2.23-16.68-5.14
			c-2.12-1.18-4.59-1.65-6.69-2.94c-1.39-0.85-2.85-1.6-4.28-2.4c-2.27-1.26-4.54-2.52-6.81-3.79c-0.19-0.25-0.36-0.53-0.58-0.75
			c-0.29-0.28-0.62-0.51-0.94-0.76c-1.77-1.01-3.53-2.02-5.3-3.03c-3.71-2.72-7.42-5.44-11.36-8.33c-0.27,0-0.89,0-1.51,0
			c0-0.37,0-0.74,0-0.96c-2.57-1.99-5.07-3.92-7.57-5.85c-1.26-1.26-2.52-2.52-3.79-3.79c-0.25-0.78-0.71-1.56-0.7-2.33
			c0.01-0.89,0.44-1.77,0.71-2.73c-1.16-0.42-2.26-0.81-3.5-1.26c-0.42,0.83-0.65,1.53-1.08,2.07c-0.39,0.49-0.98,0.82-1.49,1.22
			c-0.5-0.57-0.99-1.15-1.52-1.69c-0.47-0.48-1-0.89-1.51-1.34c-1.02-1.85-2.62-3.01-4.54-3.79c-0.47-0.5-0.87-1.09-1.42-1.5
			c-1.89-1.41-3.78-2.82-5.4-4.56c0.08-0.21,0.12-0.57,0.25-0.6c1.43-0.34-1.02,1.97,0.42,1.67c-1.01-1.01-0.63-2.14-1.75-3
			c-2.06-1.59-5.6-2.29-7.65-3.89c-3.26-2.54-2.16-2.89-5.77-4.91c-0.14,1.59-2.5-2.47-2.92-1.41c0,0.61,0,1.23,0,1.86
			c-0.76-0.25-1.51-3.09-2.27-3.34c-0.39-1.59-2.04-1.48-3.03-2.27c-0.57-0.45-1.11-0.95-1.72-1.33c-6.5-4.01-13-8.04-19.8-11.54
			c-7.88-4.07-15.75-8.16-23.85-11.81c-4.57-2.06-9.32-3.68-13.79-6c-1.31-0.68-2.81-1.39-4.45-1.12c-0.25-0.25-0.5-0.5-0.76-0.76
			c-0.5,0-1.01,0-1.51,0c-1.4-1.96-4.21-1.26-5.72-3.03c-8.67-2.08-16.77-6.12-25.63-7.57c-4.58-2.01-9.47-2.83-14.33-3.79
			c-1.15-1.31-3.11-0.31-4.29-1.51c0.19-0.25-2.08,0.02-1.83-0.15c1.47-0.97-1.37,1.18,0,0c-1.26-0.25-3.35,5.58-1.94,1.94
			c-0.5,0-1.19,3.64,0.65,0.65c0.13-0.22,0.25-2.59,0-2.59c-0.96,0.36,0.36,1.57-0.65,1.94c-0.12,0.36,2.07-2.34,1.94-1.94
			c-0.47,0-3.1-1.37-3.47-1.37c-3.81,0.26-7.44-0.99-11.04-1.76c-4.89-1.05-9.85-1.65-14.74-2.66c-1.49-0.31-3-0.88-4.58-0.89
			c-1.57-0.01-3.09-0.37-4.63-0.63c-4.17-0.7-8.42-0.82-12.61-1.58c-2.13-0.39-4.32-0.25-6.51-0.69c-2.84-0.57-5.82-0.25-8.77-0.77
			c-3.48-0.61-7.09-0.36-10.66-0.72c-7.16-0.73-14.41,0.12-21.64-0.77c-3.96-0.49-8.08-0.31-12.19,0.48
			c-3.65,0.7-7.55,0.32-11.33,0.1c-3.87-0.23-7.61,0.63-11.42,0.81c-4.94,0.24-9.89,0.5-14.83,0.75c-0.13,0.01-0.28-0.05-0.37,0.01
			c-2.74,1.72-5.94,0.24-8.89,1.36c-2.03,0.78-4.54,0.11-6.85,0.82c-1.56,0.48-3.3,0.19-4.99,0.74c-1.66,0.54-3.55,0.08-5.36,0.77
			c-1.27,0.49-2.78,0.16-4.24,0.74c-1.37,0.54-3.16-0.22-4.56,0.87c-3.57-0.34-6.83,1.43-10.35,1.57c-1.62,0.06-3.2,0.81-4.82,1.1
			c-2.8,0.51-5.55,1.23-8.32,1.86c-1.73,0.4-3.68,0.38-5.16,1.22c-1.06,0.6-2.64-0.68-3.14,1.06c-0.96,0-1.93-0.06-2.88,0.03
			c-0.32,0.03-0.61,0.47-0.91,0.72c-2.95,0.31-5.75,1.22-8.56,2.11c-2.67,0.85-5.38,1.71-8.08,2.32c-4.94,1.11-9.54,3.22-14.45,4.38
			c-3.62,0.86-7.05,2.39-10.55,3.66c-2.19,0.8-4.57,1.17-6.64,2.19c-5.54,2.74-11.49,4.45-17.13,6.98
			c-4.22,1.9-8.56,3.65-12.81,5.52c-5.54,2.43-11.13,4.77-16.45,7.68c-3.69,2.02-7.61,3.58-11.16,5.93
			c-2.06,1.36-4.38,2.71-6.98,3.14c-1.63-0.61-2.36,4.74-4.08,4.63c-0.09-0.01-1.86-1.09-1.94-1.29c-2.52,1.38-3.98,5.04-6.46,6.46
			c-0.36,0.21-0.15,1.49-0.65-1.94c0,0.46,4.37,4.02,3.23-0.65c0.93,0.16-1.3-1.4-0.65-1.29c0,0.54-0.81,0.52-0.81,0.89
			c-0.25,0.25-0.5,0.5-0.76,0.76c-0.37,0-0.86-0.15-1.1,0.02c-1.68,1.21-3.31,2.5-4.95,3.76c-0.25,0-0.57-0.1-0.75,0.01
			c-3.29,2.12-6.57,4.25-9.82,6.42c-0.36,0.24-0.55,0.76-0.79,1.17c-0.7,1.17-1.35,2.39-3.03,2.24c-0.48,0.09-0.95,0.18-1.52,0.28
			c0.35,0.47,0.53,0.7,0.7,0.92c-0.38,0.38-0.64,0.64-1.07,1.07c-1.64,0.09-3.69-0.45-4.92,1.52c-0.65,0.61-1.3,1.22-1.95,1.83
			c-1.84,1.13-3.78,2.12-5.54,3.66c-2.31,2.02-5.05,3.55-7.53,5.4c-2.51,1.88-4.92,3.9-7.39,5.83c-0.55,0.43-1.21,0.72-1.81,1.07
			c0,0.5,0,1.01,0,1.52c-0.88,0.88-1.77,1.76-2.66,2.65c-0.63,0-1.26,0-1.88,0c0-1.23,0-2.46,0-3.77c-1.34,0.32-2.43,0.57-3.17,0.75
			c-0.86-1.23-1.5-2.13-2.13-3.04c-0.08,0.21-0.17,0.42-0.43,1.09c-0.15-0.88-0.24-1.36-0.32-1.85c-0.25-0.25-0.5-0.5-0.76-0.76
			c-0.24,0-0.49,0-0.81,0c-1.47-1.74-2.98-3.52-4.49-5.3c-1.26-2.17-2.52-4.34-3.78-6.5c0.59-0.5,1.03-0.88,1.7-1.45
			c0.53,1.06,0.93,1.86,1.32,2.65c1.68,2.83,3.09,5.83,5.3,8.33c0.35-0.73,0.71-1.46,1.05-2.18c1.1,0,2.19,0,3.26,0
			c0.65,1.9,1.93,3.03,4.2,4.1c-0.45-1.97-0.77-3.39-1.05-4.65c-1.85-0.45-3.55-0.87-5.16-1.27c0-0.72,0-1.22,0-1.72
			c1.12-0.37,2.22-0.74,3.27-1.09c1.97,1.63,4.37,0.17,6.43,0.99c-0.18,0.36-0.35,0.7-0.46,0.91c0.76,0.49,1.45,0.93,2.16,1.39
			c-0.33,0.36-0.57,0.63-0.93,1.03c2.06,0.7,2.01-1.2,2.85-2.16c0.73,0,1.58,0,2.39,0c0.15-0.81,0.28-1.5,0.4-2.16
			c0.78,0,1.4,0,2.03,0c-0.18-0.3-0.29-0.68-0.54-0.9c-3.05-2.59-5.22-5.95-7.79-8.95c-0.86,1.04-1.73,2.07-2.63,3.16
			c-1.1-0.18-2.13-0.35-3.38-0.56c-0.32,0.16-0.94,0.48-0.98,0.5c-0.88,1.61-1.48,2.72-2.09,3.84c0.22,0.37,0.44,0.74,0.75,1.26
			c-1.21,0-2.32,0-2.61,0c-1.23-0.86-2.04-1.43-2.77-1.94c0.63-1.5,1.16-2.79,1.55-3.72c2.56-0.46,4.68-0.84,6.87-1.23
			c-0.33-2.08,1.08-3.15,2.27-4.34c1.25-0.62,2.51-1.24,3.43-1.7c0.44-1.12,0.79-1.99,1.14-2.88c1.35,0,2.45,0,3.8,0
			c0.37-1.02,0.72-2,1.07-2.97c1-0.33,2.01-0.65,3-0.98c1.14-1.06,2.33-2.16,3.5-3.25c0-0.57,0-1.06,0-1.28
			c1.16-0.93,2.16-1.74,3.15-2.54c-0.54-1.94-1-3.62-1.49-5.38c0.69-0.56,0.7-2.06,2.14-2.07c-0.91-3.59-3.67-5.04-7.31-6.69
			c-0.41-0.13-1.94,0.86-2.98-0.56c-2.27,0.4-4.51-0.27-6.92,0.58c-2.15,0.76-4.8,0.15-7.18,0.92c-3.23,1.04-6.62,1.53-9.82,2.71
			c-1.42,0.52-2.82,1.36-4.46,1.09c-0.82,1.12-2.21,0.98-3.3,1.5c-1.15,0.55-2.3,1.13-3.52,1.5c-4.46,1.36-8.59,3.52-12.87,5.32
			c-2.54,1.15-5.15,2.19-7.61,3.48c-6.54,3.43-13.07,6.83-19.33,10.8c-3.94,2.5-7.96,4.85-11.67,7.68
			c-2.15,1.34-4.77,2.05-6.06,4.54c-1.28-0.13-2.23,0.65-3.16,1.31c-3.27,2.29-6.48,4.68-9.71,7.02c-1.17,1.01-2.22,2.27-3.55,2.96
			c-1.45,0.75-2.44,1.78-3.26,3.1c-0.47,0.09-1.1,0.01-1.37,0.29c-2.36,2.39-4.65,4.85-6.96,7.28c-1.03-0.27-1.65,0.37-2.19,1.07
			c-0.66,0.85-1.19,1.8-1.89,2.6c-1.36,1.56-2.79,3.04-4.05,4.72c-3.91,5.2-5.86,9.42-7.87,16.02c-1,3.29-0.81,6.06,0.86,8.9
			c0.4,0.23,0.8,0.46,1.31,0.76c0.22,0,0.59,0,0.96,0c2.12,1.24,5.52,1.88,7.35,1.35c0.56-0.16,1.09-0.56,1.63-0.56
			c2.42,0,4.66-0.64,6.9-1.51c1.19-0.46,2.53-0.54,3.8-0.79c0.06-1.13,0.94-0.64,1.51-0.76c0.77,0.53,1.54,1.06,2.25,1.55
			c2.21-0.73,2.25-0.78,3.05-3.82c0.25-0.25,0.5-0.5,0.76-0.76c1.08-0.65,2.35-0.96,3.21-2.01c0.22-0.27,0.88-0.18,1.33-0.26
			c0.45,0,0.9,0,1.51,0c0,1.15,0,2.09,0,3.03c0.45,0,0.9,0,1.73,0c-0.37-1.71-0.67-3.12-0.97-4.54c0.57-0.11,1.45,0.38,1.51-0.76
			c0.55-0.17,1.18-0.22,1.63-0.53c1.36-0.93,2.85-1.11,4.43-0.98c0.57-0.11,1.45,0.38,1.51-0.76c1.26,0,2.52,0,3.79,0
			c0.06,1.13,0.94,0.64,1.51,0.76c2.25-0.38,3.63,1.3,5.3,2.27c0.91,0.79,2.23,1.4,2.64,2.4c0.62,1.47,2.62,2.39,1.9,4.41
			c-1.48,0-2.96,0-4.76,0c0.66,1.72,1.19,3.1,1.82,4.73c1.32-0.62,2.74,0.58,3.7-0.95c0.25,0,0.5,0,0.76,0
			c0.25,0.25,0.5,0.5,0.76,0.76c0.35,0.48,0.74,0.93,1.05,1.44c3.61,5.89,7.97,11.24,12.1,16.76c1.24,1.66,2.94,3.12,3.51,5.27
			c0,0.94,0,1.89,0,3.03c0.88,0,1.57,0,2.27,0c0.25,0.25,0.5,0.5,0.76,0.76c0.68,0.82,1.35,1.64,2.05,2.48
			c3.81-2.63,7.38-5.12,11.67-6.28c1.04-0.28,1.6-1.09,1.43-2.25c0.2-0.25,0.47-0.75,0.58-0.72c0.55,0.16,1.04,0.54,1.59,0.68
			c0.25,0.07,0.6-0.22,1.16-0.45c-0.54-0.71-0.97-1.27-1.36-1.79c-1.22,0-2.36,0-3.49,0c-1.33-1.3-1.84-3.15-3.01-4.56
			c-0.12-0.15-0.02-0.49-0.02-0.74c0.1-0.52,0.19-1.05,0.37-2.01c1.09,0.91,1.81,1.51,2.45,2.04c1.44-0.29,2.71-0.54,3.99-0.79
			c0.76,1,1.64,1.93,2.25,3.01c2.58,4.6,5.01,9.28,7.61,13.87c3.82,6.74,7.8,13.37,12.9,19.29c0.9,1.05,2.37,2.16,2.22,3.96
			c-1.51,0.09,0.83-3.44-0.92-2.95c0.8,0.39,3.88-2.57,4.4-2.34c1.07,0.46-4.32,7.26-3.48,6.05c0.62,0,1.24,0,1.34,0
			c3.09,2.35,5.81,4.5,8.63,6.51c0.81,0.58,1.92,0.72,2.9,1.07c0.25,0.25,0.5,0.5,0.76,0.76c0.25,0,0.5,0,0.76,0
			c0.06,1.13,0.94,0.64,1.51,0.76c0.76,0,1.51,0,2.27,0c0.06,1.13,0.94,0.64,1.51,0.76c1.51,0,3.03,0,4.54,0
			c0.57-0.11,1.45,0.38,1.51-0.76c1.01,0,2.02,0,3.03,0c0.57-0.11,1.45,0.38,1.51-0.76c1.49-0.35,3.04-0.53,4.44-1.08
			c6.29-2.46,12.29-5.58,18.07-9.03c4.87-2.91,9.43-6.31,14.13-9.5c1.49,0.19,1.83-2.13,3.48-1.59c1.17-0.12,1.97-2.27,2.27-1.07
			c0.47-0.09,1.66-1.35,2.04-1.58c1.42-0.87,2.17-1.13,3.51-2.1c5.49-3.94,11.24-8.1,17-11.62c5.03-3.07,10.3-4.38,15.34-7.39
			c4.62-2.75,9.71-5.22,14.56-7.5c1.27-0.6,2.4-0.91,3.72-1.34c5.56-1.81,10.77-5.1,16.19-7.24c5.64-2.23,12.04-4.14,17.64-6.46
			c5.28-2.18,10.86-4.28,16.31-6.03c5.48-1.76,10.31-2.19,15.97-3.42c3.98-0.86,6.29-1.61,8.52-2.25c2.84-0.81,5.79-1.67,8.59-2.7
			c1.77-0.65,4.02-0.13,5.65-0.95c1.81-0.91,3.95,0.1,5.49-1.39c2.14,0.55,4.05-0.04,6.12-0.14c2.17-0.11,4.33-0.48,6.5-0.72
			c0.5-0.05,1.24,0.21,1.47-0.04c1.27-1.39,2.86-0.44,4.27-0.72c1.4-0.28,2.81-1.24,4.23-1.39c2.17-0.23,4.31,0.01,6.53-0.65
			c2.09-0.61,4.51-0.03,6.77-0.16c2.17-0.12,4.33-0.67,6.5-0.69c7.31-0.09,14.63-0.15,21.94,0c7.34,0.15,14.7-0.64,22.02,0.67
			c3.12,0.56,6.43-0.57,9.51,0.81c3.98-0.58,2.65-0.14,6.62-0.54c-0.14-1.59,3.31,2.48,2.9,1.41c0-0.86,0,0.2,0-0.67
			c1.26,0,2.52,0,3.79,0c0.36,1.46,1.53,0.47,2.27,0.76c3.61-0.54,7.16,0.42,10.64,0.94c3.34,0.49,6.79,0.89,10.09,2.01
			c2.02,0.69,4.41,0.27,6.45,0.92c2.18,0.7,4.46,0.71,6.59,1.43c2.49,0.85,5.15,0.94,7.63,1.7c4.5,1.39,9.14,2.24,13.65,3.58
			c4.16,1.24,8.37,2.33,12.51,3.61c5.7,1.76,11.37,3.6,17.03,5.49c6.2,2.07,12.33,4.34,18.38,6.8c1.51,0.53,2.74,1.87,4.54,1.51
			c1.68,1.42,3.84,2.15,5.77,2.87c2.63,0.97,5.12,2.26,7.74,3.24c2.72,1.01,5.33,2.35,7.95,3.63c10.38,5.1,20.9,9.91,30.92,15.74
			c2.93,1.7,6,3.17,8.96,4.83c2.26,1.27,4.45,2.66,6.66,4c3.63,2.19,7.28,4.36,10.88,6.59c3.72,2.31,7.35,4.74,11.09,7.02
			c4.21,2.57,8.3,5.37,12.77,7.5c3.37,1.6,6.68,3.34,10.12,4.77c3.8,1.57,7.76,2.93,11.83,3.32c4.02,0.39,8.17,0.51,12.15-0.68
			c2.23-0.66,5.43,0.28,7.2-1.06c4.08-3.09,7.88-4.37,11.19-8.6c2.99-3.81,6.08-7.55,8.96-11.46c3.71-5.03,7.54-9.97,11.19-15.04
			C831.68,203.32,833.74,201.15,835.19,198.07z M489.24,108.26c0.38,0,0.76,0,1.13,0c0.7,1.61,1.07,3.26,1.16,4.97
			c-0.09-1.72-0.47-3.36-1.16-4.97C490,108.26,489.62,108.26,489.24,108.26z M556.63,71.15c-0.2-0.67-0.58-1.35-1.08-2.01
			C556.04,69.81,556.42,70.48,556.63,71.15L556.63,71.15z M571.28,109.77c-0.89,0-1.89,0-2.9,0c-0.09-0.09-0.26-0.17-0.26-0.26
			c0,0.09,0.17,0.17,0.26,0.26C569.38,109.77,570.39,109.77,571.28,109.77z M649.76,106.74c-0.13,0.38-0.25,0.76-0.38,1.14
			C649.5,107.5,649.63,107.12,649.76,106.74c0.09-0.15,0.19-0.3,0.29-0.45C649.95,106.44,649.85,106.59,649.76,106.74z
			 M770.57,121.88c-0.76,0-1.35,0-1.9,0.03c0,0,0,0-0.01-0.01c0-0.01,0-0.02,0-0.03C769.24,121.88,769.82,121.88,770.57,121.88z
			 M673.16,74.31c-1.41,0-2.81,0-4.62,0c-0.04-0.02-0.08-0.04-0.11-0.06c-0.11-0.06-0.67,0.1-0.84-0.09
			c0.14,0.15,0.51,0.08,0.85,0.04c0,0.02,0,0.03-0.01,0.05C670.16,74.31,671.64,74.31,673.16,74.31z M659.74,84.53
			c-3.58-1.17-7.16-2.35-10.74-3.53c-0.25-0.25-0.5-0.5-0.76-0.76c0.25,0.25,0.5,0.5,0.76,0.76
			C652.58,82.18,656.16,83.37,659.74,84.53z M360.96,72.72c0.63,0.57,1.2,1.17,1.66,1.83C362.16,73.89,361.58,73.3,360.96,72.72
			c-0.3-0.01-0.58-0.01-0.86-0.01C360.37,72.72,360.66,72.72,360.96,72.72z M218.96,173.37c1.36-0.84,2.72-0.98,4.12-0.7
			C221.67,172.4,220.31,172.53,218.96,173.37c-1.25-0.17-1.35-1.11-1.53-2C217.61,172.26,217.7,173.2,218.96,173.37z M177.29,123.4
			c0.38,0,0.75,0,0.99,0c1.57,2.29,3.08,4.54,4.64,6.75c1.37,1.94,2.86,3.8,4.17,5.79c0.29,0.43,0.04,1.22,0.08,1.81
			c0.24,0.14,0.45,0.31,0.65,0.49c-0.08,0.08-0.16,0.16-0.24,0.24c-0.18-0.21-0.35-0.41-0.53-0.62c0.05-0.05,0.1-0.1,0.11-0.11
			c-1.46-0.8-2.62-1.85-3.23-3.48c-0.17-0.45-0.88-0.69-1.34-1.03c-2.3-3.14-4.6-6.28-7.21-9.84
			C176.36,123.4,176.83,123.4,177.29,123.4z M189.33,128.19c0.58,1.16,1.59,2.1,2.32,3.19c0.17,0.26,0.03,0.73,0.03,1.11
			c1.2,0.3,1.64,1.1,1.51,2.27c1.8,0.72,1.9,2.74,3.04,3.96c0.45,0.49,1,0.89,1.51,1.34c0,0.76,0,1.51,0,2.27c-0.37,0-0.75,0-0.94,0
			c-1.15-1.86-2.31-3.61-3.31-5.45c-0.32-0.59-0.2-1.41-0.29-2.12c-0.45,0-0.89,0-1.51,0c0-0.89,0-1.58,0-2.27
			c-0.38,0-0.75,0-0.87,0c-2.37-3.31-4.66-6.49-6.91-9.7c-0.32-0.46-0.37-1.1-0.55-1.65c0.39-0.23,0.79-0.45,1.21-0.69
			c0.57,0.69,1.19,1.45,1.82,2.21C186.73,124.82,188.4,126.31,189.33,128.19z M178.81,137.78c0.58,1.46,1.55,2.62,2.59,3.79
			c1.8,2.03,3.39,4.24,5.29,6.65c-1.18,0-2,0-2.64,0c-1-0.96-1.98-1.91-2.97-2.86c0-0.25,0-0.5,0-0.76c-0.25-0.25-0.5-0.5-0.76-0.76
			c-1.68-2.56-3.38-5.11-5.02-7.7c-0.24-0.37-0.19-0.92-0.28-1.38C176.28,135.77,177.55,136.77,178.81,137.78z M174.23,134.04
			c-0.24-0.14-0.45-0.31-0.65-0.49c0.08-0.08,0.16-0.16,0.24-0.24c0.18,0.21,0.35,0.41,0.53,0.62
			C174.29,133.98,174.24,134.03,174.23,134.04z M172.75,131.98c0.25,0,0.5,0,0.76,0c0,0.08,0,0.17,0,0.25c-0.25,0-0.5,0-0.76,0
			C172.75,132.15,172.75,132.06,172.75,131.98z M196.98,126.43c1.96,2.34,3.93,4.67,5.88,7.02c0.84,1.02,1.64,2.08,2.46,3.13
			c-0.54,0.43-1.03,0.82-1.52,1.21c-0.63,0-1.25,0-2.14,0c-2.51-3.94-5-8.09-7.75-12.05c-1.37-1.98-1.99-4.4-3.74-6.12
			c0.15-0.27,0.3-0.55,0.66-1.21C192.99,121.24,194.99,123.83,196.98,126.43z M156.44,130.7c-0.11,0.09-0.23,0.18-0.35,0.27
			c-1.23,1.36-2.51,2.68-3.68,4.09c1.17-1.41,2.45-2.73,3.68-4.09C156.21,130.88,156.32,130.8,156.44,130.7z"/>
		<path class="st0" d="M966.57,237.72c0.23-4.55-1.14-8.77-3.1-12.72c-2.42-4.87-8.27-9.04-12.76-12.44
			c-6.14-4.65-8.53-5.42-15.37-7.75c-1.26-0.43-2.67,0.17-3.54-0.52c-1.43-1.15-2.89-0.37-4.31-0.63c-1.41-0.26-2.69-0.94-4.23-0.8
			c-5.05,0.44-10.13-0.45-15.22,0.69c-3.18,0.71-6.61-0.23-9.9,0.79c-1.38,0.43-3.01-0.03-4.52,0.1c-1.42,0.12-2.81,0.61-4.23,0.7
			c-2.14,0.12-4.29-0.07-6.43,0.05c-3.99,0.24-7.39-1.48-10.86-3.05c-1.3-2.05-4.47-2.18-5.08-4.95c-2.16-1.65-2.98-4.21-4.34-6.77
			c-0.8,0.72-1.52,1.2-2.02,1.85c-3.16,4.11-6.1,8.39-9.42,12.35c-4.11,4.9-7.68,10.21-11.31,15.43
			c-3.54,5.08-6.97,10.33-9.55,16.06c-1.97,4.38-4.6,8.48-5.04,13.43c-1.31,1.25-0.05,3.06-0.75,4.22
			c-1.86,3.09-0.15,6.01,0.45,8.75c0.81,3.7,3.49,6.72,6.57,8.93c3,2.15,6.63,2.92,10.3,3.43c2.29,0.32,4.29-0.81,6.5-0.85
			c2.3-0.04,4.78,0.02,6.83-0.82c3.55-1.44,7.36-1.58,10.92-2.86c1.66-0.6,3.55-0.6,5.34-0.81c1.8-0.21,3.66,0.41,5.4-0.71
			c0.47-0.3,1.6-0.14,2.09,0.24c0.83,0.66,1.67,0.47,2.48,0.43c2.12-0.11,3.93,0.72,5.82,1.51c6.02,2.52,10.22,6.79,13.18,12.56
			c2.15,4.2,3.52,8.58,3.62,13.24c0.09,4.05,0.63,8.18-0.66,12.18c-0.06,0.17,1.64,3.08,2,3.56c2.07-1.98,3.12-3.36,4.87-5.4
			c2.68-3.13,5.36-7.26,7.22-10.83c2.52-4.86,5.23-11.26,7.7-16.15c0.77-1.52,1.49-2.95,1.35-4.54
			c11.95-7.36,22.58-11.22,35.18-7.75c0.34-1.75,0.73-3.49,1.02-5.25c0.64-3.87,2.22-7.56,2.28-11.55c1.39-1.35,0.12-3.3,0.85-4.55
			c1.01-1.71,0.46-3.38,0.64-5.04C966.66,240.26,966.51,238.98,966.57,237.72z"/>
		<path class="st0" d="M184.22,246.7c-0.11-0.57,0.38-1.45-0.76-1.51c0-0.76,0-1.51,0-2.27c-0.25-0.25-0.5-0.5-0.76-0.76
			c-0.25-1.26-0.5-2.52-0.76-3.79c0-0.46,0-0.93,0-1.37c1.18-0.13-4.84,0.08-3.38-0.07c-3.15-1.5,3.48-4.54,1.94-6.46
			c-1.07,0-1.48-0.42-2.35-0.42c-0.38-1.31-1.64-2.27-1.51-3.79c0-1.19-1.29-0.45-1.29-1.85c-0.87,0-0.28-1.94-0.98-1.94
			c-0.65-0.77-1.61-1.45-1.88-2.34c-0.59-1.93-2.54-3.11-2.66-5.23c-1.2-0.3-1.64-1.1-1.51-2.27c-0.3-0.18-0.71-0.28-0.9-0.54
			c-1.96-2.71-3.83-5.48-5.78-8.2c-3.42-4.76-7.08-9.34-10.5-14.1c-1.23-1.71-2.5-3.39-3.71-5.04c-0.35,0.93-0.71,1.91-1.08,2.89
			c-0.25,0.25-0.5,0.5-0.76,0.76c-2.14,0.05-2.78,1.85-4.13,3.23c1.06,0.53,1.84,0.92,2.62,1.31c-1.7,1.38-3.48,2.68-4.43,4.77
			c-0.12,0.26-0.57,0.36-0.87,0.53c-0.94,0-1.88,0-3.03,0c0,0.61,0,1.06,0,1.51c-0.89,1.44-2.29,1.59-3.79,1.51
			c-0.66-0.28-1.31-0.55-2.27-0.95c0,0.82,0,1.27,0,1.71c-2.27,0-4.54,0-6.81,0c0-0.25,0-0.5,0-0.76c0.33-0.49,0.66-0.98,0.86-1.28
			c3.31-0.4,6.41-0.78,9.74-1.18c0-1.16,0-2.38,0-3.59c-0.53-1.4-1.43-0.66-2.22-0.47c0.25,0.44,0.48,0.83,0.71,1.23
			c-1.04,0.82-2.07,1.64-3.35,2.65c-0.96-0.68-1.83-1.29-2.7-1.9c-0.25-0.25-0.5-0.5-0.76-0.76c-0.06-1.13-0.94-0.64-1.51-0.76
			c-0.11-0.57,0.38-1.45-0.76-1.51c-0.25-0.76-0.5-1.51-0.76-2.27c0.43-2.28-1.9-3.75-1.6-5.95c-0.91,0.04-1.9-0.77-2.19,0.65
			c-1.07-0.53-1.89-1.23-2.32-2.44c-0.2-0.55-0.96-0.9-1.46-1.34c-0.09,1.1,0.04,2.14,0.76,3.03c-0.25,0.31-0.49,0.62-0.91,1.14
			c-1.29-2.76-3.04-4.32-5.91-4.17c0.85,2.4,2.83,4.02,4.21,6.06c1,1.48,2.26,2.78,3.34,4.21c0.18,0.24,0.03,0.72,0.06,1.06
			c0.24,0.14,0.45,0.31,0.65,0.49c-0.08,0.08-0.16,0.16-0.24,0.24c-0.18-0.21-0.35-0.41-0.53-0.62c0.05-0.05,0.1-0.1,0.11-0.11
			c-0.41,0.04-0.79,0.04-1.15,0.04c-2.83-2.7-5.22-5.77-7.5-8.94c-0.69-0.96-1.81-1.62-2.74-2.42c-2.76,2.5-6.15,2.44-9.43,2.21
			c-1.36,1.36-2.59,2.61-3.82,3.84c-0.38,0-0.76,0-1.14,0c0.25,0.76,6.53,1.87,6.78,2.63c-1.92,0.05-4.02,3.5-5.82,4.53
			c-4.61-0.24-7.79,0.82-12.28,1.29c-1.52,1.27-6.38-0.94-7.76,0.65c0.25,1.51-3.89,1.51-3.64,3.02c-3.48,1.01-6.67,2.69-9.94,4.2
			c-3.41,1.57-6.29,3.85-9.08,6.21c-2.86,2.41-4.77,5.66-6.77,8.83c-1.96,3.11-3.31,6.48-4.32,9.89c-1.05,3.52-1.16,7.32-1.68,11
			c0,2.27,0,4.54,0,6.81c0,0.5,0,1.01,0,1.51c0.25,0.52,0.7,1.04,0.72,1.57c0.1,2.18,0.42,4.33,0.66,6.49
			c0.52,4.5,2.03,8.74,2.62,13.29c0.84-0.21,1.45-0.27,1.99-0.5c2.65-1.11,5.46-1.74,8.26-1.86c5.23-0.21,10.52-0.46,15.61,1.41
			c1.32,0.48,2.8,0.54,4.2,0.79c0.19,0.25,0.34,0.57,0.58,0.75c0.97,0.7,2.45,0.36,3.21,1.53c1.51,0.53,2.74,1.87,4.54,1.51
			c0.47,0.66,0.95,1.32,1.45,2.02c-0.45,0.17-0.88,0.33-1.19,0.45c0.73,0.7,1.51,1.44,1.67,1.59c0.47,3.17,0.3,5.69,1.26,7.66
			c1.89,3.9,3.55,8.04,6.6,11.26c3.59,3.78,7.35,7.4,11.49,11.54c-0.34-5.39,0.67-10.01,1.35-14.68c0.49-3.35,1.71-6.35,2.9-9.41
			c1.56-4.02,4.22-7.2,7.18-10.29c3.97-4.15,8.8-6.42,14.24-7.71c2.2,0.09,4.2-1.06,6.48-0.81c2.36,0.26,4.77,0.06,7.15,0.06
			c0.9,0.25,1.79,0.6,2.7,0.74c2.15,0.31,4.4,0.23,6.44,0.86c2.17,0.66,4.36,1.05,6.56,1.39c2.38,0.37,4.73,1.22,7.21,0.82
			c0.34-0.05,0.85-0.06,1.05,0.15c1.18,1.2,2.82,0.85,3.87,0.47c1.69-0.6,3.32-0.56,5-0.65c0.45-0.02,0.87-0.3,1.32-0.44
			c1.23-0.36,2.47-0.71,3.7-1.06c1.97-1.41,4.13-2.48,5.39-4.84c0.61-1.15,0.42-2.56,1.43-3.48c0.71,0-5.67-1.31-4.25-1.31
			c-1.05-0.77,5.51,0.17,5-0.2C184.22,254.28,184.22,250.49,184.22,246.7z M72.54,225.51c-0.5,0-1,0-1.44,0
			C71.54,225.51,72.04,225.51,72.54,225.51c0.62,0.62,1.24,1.24,1.88,1.88C73.78,226.75,73.16,226.13,72.54,225.51z M97.9,196.73
			c0-0.38,0-0.75,0-1.38c1.26-0.09,2.54-0.18,4.11-0.3c-1.28-2.47-3.38-3.72-4.86-5.56c0-0.44,0-0.94,0-1.66
			c1.64-0.39,3.35-0.07,4.96-0.21c1.44,3.01,1.05,6.09,1.1,9.11C101.44,196.73,99.67,196.73,97.9,196.73z"/>
		<path class="st0" d="M136.76,195.18c0.66,0,1.25,0,1.88,0c0-0.89,0-1.64,0-2.63c0.75-0.61,1.62-1.32,2.16-1.75
			c0-1.04,0-1.63,0-2.51c-0.87,0.41-1.47,0.7-2.07,0.99c-1.53-0.33-2.64-2.22-4.58-1.24c0.84,0.93,1.64,1.81,2.37,2.62
			C135.54,192.68,135.54,192.68,136.76,195.18z"/>
		<path class="st0" d="M123.39,182.63c2.28,2.28,3.26,5.34,6.12,7.13c0.04,0.34,0.1,0.93,0.18,1.67c0.84,0.5,1.73,1.03,2.6,1.55
			c0.37-0.36,0.73-0.7,1.37-1.32c-2.85,0.18-2.41-2.64-4.16-3.55c0.88-0.46,2.17-0.3,1.35-1.78c-0.87-0.06-1.81-0.13-2.65-0.19
			C126.94,184.42,126.48,181.95,123.39,182.63z"/>
		<path class="st0" d="M133.67,163.49c-1.17,2.28,1.51,2.82,1.42,4.38c1.14,0.32,2.24,0.63,3.73,1.05c-0.38-1.64-0.69-2.98-1.05-4.5
			C136.24,164.07,134.9,163.76,133.67,163.49z"/>
		<path class="st0" d="M122.56,178.47c-0.21,0.19-0.65,0.14-1.13,0.23c-0.11-0.77-0.22-1.46-0.3-2.04c-0.72-0.33-1.31-0.6-1.9-0.87
			c-0.33,1.1-0.66,2.2-1.06,3.52c1.01,0.07,1.95,0.14,2.5,0.18c0.99,0.7,1.66,1.17,2.59,1.83c0.16-1.02,0.28-1.7,0.45-2.77
			c0.8,0,1.39,0,2.02,0c0-0.47,0-0.81,0-1.11C124.22,176.58,123.45,177.65,122.56,178.47z"/>
		<path class="st0" d="M134.15,182.13c1.93,1.13,3.53-0.44,5.28-0.43c-0.76-1.01-1.51-2.02-2.27-3.03
			C136.45,180.06,134,180,134.15,182.13z"/>
		<path class="st0" d="M148.56,179.31c-1.35-1.45-2.12-2.27-2.78-2.98c-0.79,0.07-1.24,0.11-2,0.18c0.48,1.14,0.87,2.04,1.19,2.8
			C145.96,179.31,146.79,179.31,148.56,179.31z"/>
		<path class="st0" d="M138.76,177.61c0.48,0.6,0.96,1.21,1.44,1.81c0-1.2,0-2.4,0-3.79c-1.12,0-2.07,0-3.03,0
			C137.69,176.3,138.23,176.95,138.76,177.61z"/>
		<path class="st0" d="M112.93,177.54c-0.72-0.44-0.86-1.12-0.76-1.89c-0.52,0.09-1.04,0.18-1.83,0.31c0.88,1.35,1.56,2.4,2.26,3.47
			c0.35,0,0.72,0,1.08,0C113.79,178.66,113.66,177.98,112.93,177.54z"/>
		<ellipse class="st0" cx="192.06" cy="202.9" rx="1.49" ry="0.91"/>
		<path class="st0" d="M113.69,179.43c0.06,0.77,0.13,1.53,0.19,2.27c0.61,0,0.97,0,1.32,0
			C115.33,180.52,114.89,179.72,113.69,179.43z"/>
		<path class="st0" d="M191.49,198.3c-0.53,0.11-0.95,0.2-1.33,0.28c0,0.43,0,0.67,0,1.1c0.5,0,1.01,0,1.61,0
			C191.66,199.13,191.59,198.79,191.49,198.3z"/>
		<path class="st0" d="M131.53,177.86c-0.39,0.08-0.73,0.14-1.11,0.21c0,0.43,0,0.76,0,1.35
			C132.1,179.49,132.12,178.86,131.53,177.86z"/>
		<path class="st0" d="M114.26,173.33c-0.66,0.1-1.32,0.19-1.98,0.29c0.01,0.13,0.03,0.26,0.04,0.38c0.67,0,1.34,0,2.01,0
			C114.31,173.77,114.29,173.55,114.26,173.33z"/>
		<path class="st0" d="M141.71,183.97c0.07,0.49,0.15,0.98,0.22,1.47c0.39-0.83,1.19-1.76-0.22-2.23
			C141.71,183.47,141.71,183.72,141.71,183.97z"/>
		<ellipse class="st0" cx="139.81" cy="184.35" rx="0.54" ry="0.18"/>
		<ellipse class="st0" cx="142.09" cy="179.81" rx="0.54" ry="0.18"/>
		<path class="st0" d="M223.41,125.48c0-0.41,0-0.74,0-1.2c-0.98,0-1.9,0-2.93,0C221.15,125.71,222.12,125.93,223.41,125.48z"/>
		<path class="st0" d="M223.6,122.55c0.66,0,1.26,0,2.32,0C224.73,121.13,224.73,121.13,223.6,122.55z"/>
		<path class="st0" d="M779.19,97.96c1.67,2.99,4.27,5.13,6.86,7.27c0.25,0.25,0.5,0.5,0.76,0.76c-0.11,0.82,0.16,1.62-0.48,2.46
			c-0.84,1.09-0.13,2.07,1,2.94c0.92,0,2.02,0,3.31,0c-0.1,0.59-0.17,1.02-0.26,1.55c-0.41-0.38-0.68-0.62-0.84-0.77
			c-0.69,0.35-1.31,0.67-1.94,0.99c0,1.21-0.4,2.54,1.3,3.46c1.3,0,2.9,0,4.4,0c0.43,0.46,0.74,0.8,1.11,1.19
			c-3.07,0.41-6.04,0.8-9.58,1.27c0.99,0.64,1.59,1.02,1.85,1.19c0.15,1.81-0.21,3.48,0.46,4.43c1.22,1.73,1.11,3.61,1.21,5.07
			c1.2,1.62,2.41,1.31,3.58,1c0-2.72,0-5.41,0-8.23c-0.77,0-1.37,0-1.88,0c0.62-0.74,1.22-1.46,1.84-2.21c0.75,0,1.49,0,2.63,0
			c0.25-0.43,0.64-1.07,0.87-1.46c1.79,0,3.17,0,4.59,0c0.87,0.8,1.76,1.62,2.09,1.92c1.01-0.32,1.75-0.55,2.42-0.77
			c-1.63-2.25-0.79-4.42-1.02-6.45c1.11-0.11,2.06,0.46,3.07,0.69c5.9,1.34,11.48,3.66,17.24,5.41c2.08,0.64,3.98,1.87,6.19,2.22
			c0.19,0.25,0.36,0.53,0.58,0.75c0.29,0.28,0.62,0.51,0.94,0.76c0.79,0.16,1.64,0.19,2.36,0.51c1.77,0.77,3.48,1.67,5.21,2.52
			c0.25,0,0.5,0,0.76,0c0.31,0.25,0.65,0.48,0.94,0.76c0.22,0.22,0.39,0.5,0.58,0.75c0.45,0.08,0.99,0.02,1.35,0.25
			c1.35,0.88,2.64,1.84,3.95,2.78c3.4,1.83,5.85,4.76,8.54,7.41c1.56,1.54,2.13,3.56,2.89,5.54c0.79,2.05,0.78,3.75,0.01,5.8
			c-0.65,1.74-0.57,3.76-0.87,5.64c-0.04,0.23-0.48,0.4-0.73,0.59c-0.95,0-1.91,0-2.81,0c-0.62,2.66-1.72,4.76-4.01,6.06
			c0,0.37,0,0.73,0,0.81c1.18,1,2.21,1.87,3.21,2.72c-0.94,1.42-1.52,2.54-0.21,3.73c0.18,0.17,0.03,0.71,0.03,1.07
			c-0.11,0.82-0.22,1.62-0.43,2.45c-0.89,3.41-2.26,6.65-3.46,9.92c-1.4,3.81-3.39,7.44-5.49,10.93c-2.45,4.07-5.3,7.88-7.93,11.84
			c-0.24,0.36-0.09,0.97-0.14,1.58c1.42,1.05,2.26,2.86,4.22,3.56c0.2-0.57,1.54,0.21,1.81-0.13c2.91-3.71,5.24-7.38,8.14-11.1
			c2.16-2.78,4.49-6.1,6.61-8.89c3.65-4.81,7.07-9.17,10.25-14.34c2.67-4.35,6.19-7.96,11.41-8.1c2.02,0,4.04,0,6.06,0
			c0.19,0.25,0.33,0.63,0.59,0.74c2.94,1.29,5.93,2.47,8.82,3.86c0.65,0.31,1.16,0.82,1.95,0.7c0.06,1.13,0.94,0.64,1.51,0.76
			c0.47,0.5,0.85,1.17,1.43,1.48c1.01,0.54,2.16,0.84,3.23,1.29c3.52,1.5,7.14,2.51,11,2.53c1.5,0.01,4.93,0,6.43,0
			c4.49-1.26,6.01-5.15,7.87-9.16c0-0.7,0-1.82,0-2.95c0.25-0.2,0.75-0.48,0.72-0.57c-0.71-1.99-0.56-4.14-1.42-6.13
			c-1.26-2.9-4.66-5.63-6.46-8.23c-0.48-0.69-0.7-1.46-1.59-1.72c-0.98-1.36-1.8-2.86-2.96-4.04c-4.53-4.62-9-9.32-14.1-13.35
			c-0.23-0.18-0.74-0.02-1.11-0.02c-0.99-1.35-1.72-3.02-3.79-3.03c-0.44-0.56-0.77-1.27-1.33-1.67c-3.54-2.51-7.07-5.06-10.76-7.34
			c-0.93-0.58-1.5-2.14-3.05-1.59c-1.08-1.25-3.28-2.72-4.54-3.03c-0.19-0.25-0.36-0.53-0.58-0.75c-0.29-0.28-0.62-0.51-0.94-0.76
			c0.76-1.01,1.51,1.86,2.27,0.85c-1.17-2.06-3.35-2.34-5.3-3.03c0.06,1.29,0.16-1.27-1.51-0.85c-0.5,0-1.01,0-1.51,0
			c-0.27-0.39-0.44-0.94-0.81-1.15c-2.95-1.67-5.95-3.27-8.92-4.91c-1.03-0.57-1.99-1.27-3.05-1.77c-3.05-1.45-5.84-3.45-9.18-4.28
			c-1.79-1.87-4.28-2.85-6.52-3.61c-2.57-0.87-4.78-2.37-7.3-3.24c-2.51-0.87-4.92-1.99-7.38-3c-0.55-0.17-1.1-0.33-1.64-0.51
			c-1.21-0.39-2.27-1.3-3.66-1.01c-1.59-1.97-4.21-1.62-6.21-2.71c-0.78-0.43-1.91-0.23-2.88-0.32c-0.2-0.25-0.35-0.68-0.59-0.73
			c-2.75-0.61-5.51-1.23-8.25-1.86c-1.6-0.36-3.12-0.2-4.66-0.44c-1.64-0.25-3.19-1.16-4.93-0.76c-1.02,0.24-2.03,0.69-3.06,0.72
			c-2.9,0.08-5.52,0.98-8.04,2.31c-0.84,0.71-1.67,1.43-2.51,2.13c-2.02,1.68-2.42,3.99-1.95,6.3
			C777.37,94.88,778.34,96.44,779.19,97.96z"/>
		<path class="st0" d="M81.89,169.08c-0.25,0-0.5,0-0.76,0c0,0.08,0,0.17,0,0.25c0.25,0,0.5,0,0.76,0
			C81.89,169.25,81.89,169.16,81.89,169.08z"/>
		<path class="st0" d="M847.19,152.03c-0.5,0.17-0.93,0.32-1.4,0.48c0.1,0.43,0.19,0.77,0.23,0.96c1.99-0.26,3.85-0.5,5.82-0.76
			c0.71-1.06,1.48-2.19,2.05-3.04c-1.07-1.3-3.28-0.98-3.57-3.45c1.54,0,2.98,0,4.19,0c0.54-0.58,0.85-0.92,1.35-1.46
			c-1.07,0-1.91,0-2.93,0c-0.61-1.02-1.03-1.72-1.36-2.27c-0.67,0-1.26,0-1.93,0c0,1.26-0.09,2.38,0.02,3.49
			c0.14,1.34-0.58,2.44-1.31,3.18C847.47,150.04,847.49,151.08,847.19,152.03z"/>
		<circle class="st0" cx="103.58" cy="167.11" r="20.04"/>
		<circle class="st0" cx="132.02" cy="173.58" r="16.16"/>
		<circle class="st0" cx="114.57" cy="180.69" r="19.39"/>
		<circle class="st0" cx="212.83" cy="121.22" r="35.55"/>
		<ellipse class="st0" cx="835.37" cy="132.85" rx="35.55" ry="27.8"/>
		<ellipse class="st0" cx="887.73" cy="182.63" rx="30.38" ry="23.92"/>
		<ellipse class="st0" cx="785.27" cy="115.4" rx="10.02" ry="12.28"/>
	</g>
	<g>
		<g>
			<path class="st1" d="M350.3,123.54c10.79,20.97,2.2,39.41-20.1,50.8c-9.35,4.78-18.61,9.64-27.81,14.59
				c-0.25-0.46-0.51-0.93-0.76-1.39c2.22-1.2,4.45-2.39,6.69-3.57c-10.24-18.84-20.77-37.59-31.58-56.23
				c-3.46-0.18-6.93-0.34-10.4-0.5c10.16-5.51,20.41-10.92,30.74-16.23C320.23,99.13,339.92,103.42,350.3,123.54z M330.2,133.47
				c-10.23-19.2-22.5-26.14-34-20.22c-0.73,0.38-1.46,0.75-2.19,1.13c11.26,19.86,22.2,39.83,32.83,59.9
				c0.45-0.23,0.9-0.46,1.35-0.7C339.08,168.01,340.55,152.95,330.2,133.47z"/>
			<path class="st1" d="M366.94,125.38c-3.8-11.64-7.66-23.27-11.57-34.89c-3.39-0.79-6.79-1.57-10.19-2.34
				c12.67-3.96,25.42-7.78,38.23-11.45c-2.33,2.49-4.66,4.98-6.97,7.48c3.91,12.11,7.76,24.22,11.55,36.36
				c6.05,19.38,13.17,24.08,22.93,21.35c10.48-2.93,13.49-12,7.27-30.23c-4.07-11.93-8.21-23.84-12.42-35.74
				c-4.35-0.63-8.71-1.24-13.08-1.84c9.17-2.57,18.37-5.06,27.61-7.47c-2.4,2.44-4.79,4.88-7.17,7.32
				c3.33,13.23,6.61,26.47,9.82,39.72c4.86,20.14,0.1,27.99-16.47,32.66C384.76,152.52,373.55,145.54,366.94,125.38z"/>
			<path class="st1" d="M440.91,133.77c0.76-8.6,1.55-17.2,2.35-25.8c0.03,0,0.06-0.01,0.1-0.01c5.68,7.99,11.28,16,16.8,24.05
				c2.23,0.64,3.4,0.6,5.13,0.4c6.84-0.78,11.34-5.92,10.64-12.21c-0.53-4.71-3.52-8.48-9.56-10.89c-3.96-1.61-7.93-3.21-11.92-4.8
				c-9.75-3.92-16.09-9.87-17.46-19.76c-1.72-12.22,6.16-23.05,22.62-24.91c7.86-0.88,15.17-0.56,23.39,1.91
				c-1.18,7.43-2.34,14.87-3.48,22.3c-0.03,0-0.07,0.01-0.1,0.01c-5.25-7.32-10.56-14.61-15.94-21.87
				c-2.07-0.27-2.99-0.27-5.01-0.04c-5.14,0.58-9.08,4.73-8.37,10.13c0.56,4.32,3.56,7.83,11.45,11.31c4.66,2.1,9.3,4.21,13.92,6.34
				c8.88,4.04,14.25,9.6,15.18,18.54c1.38,13.58-8.83,24.44-24.87,26.26C457.58,135.66,449.07,135.4,440.91,133.77z"/>
			<path class="st1" d="M568.63,89.87c-0.03,0-0.07-0.01-0.1-0.01c-6.06-17.5-13.97-26.18-22.99-27.81
				c-1.54,22.58-3.04,45.16-4.48,67.74c2.91,0.18,5.82,0.36,8.73,0.55c-0.04,0.53-0.07,1.05-0.11,1.58
				c-12.91-0.85-25.84-1.54-38.78-2.08c0.02-0.53,0.05-1.05,0.07-1.58c2.91,0.12,5.83,0.25,8.74,0.39c1.15-22.6,2.34-45.2,3.58-67.8
				c-9.06,0.66-18,8.43-26.14,25.17c-0.03,0-0.07,0-0.1,0c0.36-9.28,0.72-18.57,1.09-27.85c24.31,0.78,48.57,2.09,72.78,3.92
				C570.15,71.35,569.38,80.61,568.63,89.87z"/>
			<path class="st1" d="M568.5,132.8c2.54,0.49,5.07,0.99,7.61,1.49c4.41-20.97,8.97-41.92,13.67-62.86
				c-2.54-2.32-5.08-4.64-7.64-6.95c13.15,2.55,26.25,5.25,39.29,8.11c-3.34,1.09-6.67,2.2-10,3.31
				c-4.97,20.87-9.79,41.76-14.47,62.67c2.52,0.54,5.04,1.08,7.56,1.62c-0.12,0.51-0.24,1.03-0.35,1.54
				c-11.95-2.6-23.94-5.06-35.98-7.39C568.29,133.83,568.39,133.32,568.5,132.8z"/>
			<path class="st1" d="M660.41,86.44c-3.95,9.83-7.85,19.68-11.68,29.54c5.92,1.81,14.27-0.72,20.52-6.44
				c0.03,0.01,0.06,0.02,0.09,0.03c-3.46,8.55-6.89,17.12-10.27,25.69c-0.03-0.01-0.06-0.02-0.09-0.03
				c-0.61-8.47-4.87-15.53-10.76-17.96c-4.24,10.91-8.41,21.83-12.51,32.78c10.75,3.64,21.78,1.62,36.72-11.13
				c0.03,0.01,0.06,0.02,0.09,0.03c-3.09,7.66-6.15,15.32-9.17,23c-18.27-6.95-36.76-13.59-55.45-19.9c0.18-0.5,0.35-1,0.53-1.49
				c2.44,0.82,4.87,1.65,7.3,2.48c7.3-20.18,14.82-40.32,22.58-60.4c-2.15-2.63-4.32-5.26-6.5-7.89
				c19.71,6.68,39.21,13.72,58.49,21.1c-3.22,7.63-6.4,15.26-9.56,22.9c-0.03-0.01-0.06-0.02-0.09-0.04
				C678.57,99.66,671.45,90.52,660.41,86.44z"/>
			<path class="st1" d="M704.73,121.51c-2.78-1.43-6.24-6.52-3.01-12.35c2.61-4.71,8.45-6.44,13.11-4.05
				c4.66,2.39,6.93,7.73,3.73,13.35c-4.04,7.1-13.3,11.89-25.06,9.5C699.32,126.45,702.33,124.42,704.73,121.51z"/>
			<path class="st1" d="M694.06,175.3c6.23-6.05,12.52-12.07,18.88-18.05c0.03,0.02,0.05,0.04,0.08,0.05
				c-1.17,9.59-2.34,19.17-3.51,28.76c1.24,1.88,2.12,2.59,3.54,3.53c5.57,3.7,12.23,2.6,15.84-2.61c2.7-3.91,3-8.63,0.16-14.23
				c-1.84-3.7-3.69-7.39-5.55-11.08c-4.54-9.06-5.19-17.52,0.57-25.78c7.11-10.22,20.43-13.3,33.62-4.42
				c6.3,4.25,11.35,9.03,15.58,15.98c-5.95,4.8-11.85,9.63-17.7,14.5c-0.03-0.02-0.05-0.04-0.08-0.05
				c1.13-8.75,2.25-17.51,3.37-26.26c-1.32-1.49-1.98-2.06-3.6-3.15c-4.12-2.77-9.87-2.16-13.07,2.31
				c-2.56,3.57-2.78,8.07,0.61,15.61c1.97,4.48,3.92,8.96,5.86,13.45c3.75,8.58,3.94,16.09-1.28,23.44
				c-7.94,11.14-22.42,13.07-35.5,4.39C705.22,187.24,699.06,181.68,694.06,175.3z"/>
		</g>
	</g>
	<g>
		<g>
			<path class="st1" d="M73.01,278.78c1.25,15.56,13.96,26.64,25.41,35.76c1.91,1.5,6.85,0.42,4.05-1.83
				c-10.42-8.4-22.7-18.64-23.8-32.95C78.5,277.45,72.82,276.25,73.01,278.78L73.01,278.78z"/>
			<path class="st1" d="M38.47,271.4c-6.22-22.06-10.34-54.94,22.35-68.79c16.08-6.73,35.16-7.86,49.74-3.48
				c6.95,2.06,16.13,5.79,24,1.4c12.87-7.18,18.12-28.39,6.32-35.99c-7.91-5.01-16.66-0.87-25.01,4.12
				c-10.22,5.97-35.01,13.7-32.01-2.99c4.04-22.45,37.1-44.01,57.24-56.87c11.33-8.89,85.3-47.66,91.66-23.49
				c2.34,9.07-13.38,20.92-22.79,24.1c-7.86,2.61-15.88,4.78-23.73,7.54c-11.82,4.08-31.4,10.68-37.19,21.88
				c-6.29,12.24,10.11,18.99,21.47,18.21c18.98-1.39,37.95-18.35,51.97-28.98c51.46-39.47,112.9-68.93,180.19-84.55
				c71.79-16.79,148.5-16.58,220.22,1.52c37.99,9.52,74.11,24.54,105.9,44.57c28.6,18.04,51.32,41.39,79.8,59.02
				c11.95,7.21,38.46,20.85,48.81,7.95c12.75-15.84-11.16-27.75-27.53-34.61c-15.27-6.65-42.14-10.03-49.68-25
				c-5.63-11.07,8.01-15.67,18.6-14.62c12.27,1.19,24.92,6.15,36.32,11.03c21.49,9.16,42.17,21.29,60.86,34.7
				c11.08,7.94,21.48,17.09,28.28,27.87c4.27,6.77,5.18,13.35,1.76,19.24c-5.51,9.4-18.41,5.28-27.98-0.02
				c-5.7-3.18-13.42-7.41-19.78-5.93c-8.98,2.08-13.83,10.64-13.26,18.81c0.37,5.21,4.3,11,9.2,14.33
				c7.3,4.97,14.75,3.66,22.77,3.02c21.06-1.76,47.62-6.37,63.99,15.17c13.19,17.61,3,35.83,1,52.29c-0.31,2.45,5.67,4.62,5.98,2.3
				c2.82-21.97,14.11-44.21-11.06-64.63c-7.94-6.37-19.77-10.11-29.26-10.67c-7.67-0.47-15.05-0.07-22.43,0.61
				c-6.46,0.56-19.53,4.18-25.98,0.61c-13.72-7.54-8.19-33.21,8.89-26.88c8.59,3.25,16.71,10.91,26.21,10.96
				c23.77,0.33,23.81-19.85,11.27-36.06c-14.77-19.1-39.61-33.22-61.41-45.53c-17-9.65-35.48-18.03-54.52-22.78
				c-13.02-3.32-33.31-4.91-36.36,7.79c-3.5,14.5,15.83,22.49,29.63,27.72c15.28,5.38,53.68,14.44,51.57,32.09
				c-2.48,20.27-33.48,2.88-44.32-3.54c-15.61-9.67-29.61-21.74-43.69-33.08C712.74,68.49,646.13,41.71,572.91,31.5
				c-70.07-9.88-142.89-1.87-208.95,18.97c-33.13,10.38-64.82,24.28-93.92,41.2c-23.02,13.38-43.53,29.28-64.46,44.63
				c-10.26,7.49-23.22,16.54-36.53,16.37c-8.5-0.13-19.86-7.82-13.24-16.11c9.61-12.03,34.89-17.51,49.4-21.85
				c15.1-4.64,28-13.74,33.36-26.95c8.14-19.7-28.29-13.31-40.08-9.48c-34.2,10.4-63.53,28.78-90.63,50.3
				C94.43,139.23,81.89,153.42,78,168.07c-4.39,16.95,21.13,13.83,32.76,7.57c8.13-4.48,18.9-12.67,26.65-5.62
				c4.08,3.72,4.15,10.39,3.5,15.58c-2.46,20.41-26.39,7.85-37.86,6.22c-20.36-3.4-54.44,5.81-66.59,25.82
				c-11.75,19.23-8.04,39.85-3.07,57.54C34.07,277.6,39.07,273.59,38.47,271.4L38.47,271.4z"/>
			<path class="st1" d="M39.37,273.52c10.18-6.93,25.42-1.57,33.05,4.1c1.27,0.93,5.31-1.39,6.05-0.84
				c-10.44-7.92-31.21-11.88-45.07-2.3C34.08,274.02,37.89,274.53,39.37,273.52L39.37,273.52z"/>
			<path class="st1" d="M104.77,312.87c-1.56-12.45-0.09-26.35,9.02-37.14c11.05-13,32.32-3.55,45.01-1.92
				c12.79,1.5,27.79-3.64,30.42-17.15c2.98-15.21-7.7-31.94-15.23-44c-7.94-12.86-18.03-24.4-26.3-37.05
				c-0.97-1.5-6.94,0.78-6.33,1.7c7.98,12,17.58,23.03,25.47,35.09c8.41,12.75,19.57,30.11,16.51,46.39
				c-2.59,14.12-19.34,13.02-30.59,10.73c-9.79-2.06-19.27-4.46-29.76-1.84c-21.71,5.51-26.05,30.6-23.71,47.29
				C99.44,316.25,104.98,314.56,104.77,312.87C104.77,312.87,104.77,312.87,104.77,312.87z"/>
			<path class="st1" d="M172.24,210.38c4.26-3.4,8.97-6.06,14.3-7.56c1.35-0.38,3.04-1.21,3.12-2.67c0.07-1.31-1.64-1.9-2.91-1.55
				c-7.05,1.97-13.09,5.22-18.74,9.74c-1.07,0.85-1.25,2.4-0.02,2.97C169.37,211.97,171.08,211.3,172.24,210.38L172.24,210.38z"/>
			<path class="st1" d="M149.47,148.71c18.27,21.64,31.59,45.67,46.23,69.37c7.88,12.75,20.8,29.43,39.18,26.38
				c23.06-3.79,43.4-21.55,62.48-33.91c27.94-18.23,59.84-31.17,92.34-41.72c69.31-22.7,146.96-20.95,216.69-1.14
				c33.82,9.51,65.75,23.6,96.01,39.69c23.06,12.17,46.56,32.46,72.06,38.68c21.68,5.32,36.16-3.86,48.41-19.53
				c7.42-9.53,15.03-19.55,21.32-29.77c8.45-13.7,12.84-29.57,16.16-45.28c0.4-1.92-6.13-2.96-6.57-0.79
				c-3.21,15.67-7.88,30.66-15.62,44.59c-5.81,10.44-13.98,20.25-21.09,29.93c-8.23,11.15-18.93,21.17-34.93,19.28
				c-16.58-1.94-32.39-13.66-46.16-22.21c-55.98-35.03-119.96-61.6-188.55-70.31c-69.41-8.86-138.83,3.12-201.56,29.81
				c-27.46,11.67-51.64,27.52-75.88,43.31c-11.47,7.44-25.36,16.36-39.56,15.14c-11.08-0.95-19.19-10.55-25-18.37
				c-7.35-9.88-12.69-21.11-18.82-31.69c-9.29-15.99-19.96-31.22-31.98-45.59C153.3,142.97,148.04,147.04,149.47,148.71
				C149.47,148.71,149.47,148.71,149.47,148.71z"/>
			<path class="st1" d="M836.2,212.01c1.81,0.82,3.72,2.04,4.59,3.76c0.22,0.43,1.44,2.41,2.15,1.56c0.72-0.84-0.03-2.62-0.49-3.53
				c-1.61-3.18-4.27-5.61-7.73-7.16c-1.18-0.53-0.74,1.9-0.65,2.23C834.37,209.95,835,211.46,836.2,212.01L836.2,212.01z"/>
			<path class="st1" d="M868.53,176.01c-15.83,25.63-46.4,50.68-45.45,83.3c0.3,14.67,12.41,22.51,26.81,21.85
				c10.69-0.5,20.71-4.59,31.69-4.68c22.11-0.04,23.34,25.06,19.6,38.98c-0.6,2.39,2.54,6.29,3.45,2.82
				c3.99-14.99,4.33-35.59-13.33-45.09c-18.49-9.82-48.21,14.93-61.82-4.67c-10.57-14.71,7.88-40.15,15.64-51.41
				c8.55-12.72,19.33-24.2,27.28-37.28C873.59,177.88,870.23,173.16,868.53,176.01L868.53,176.01z"/>
			<path class="st1" d="M928.53,276.11c-7.09,14.17-11.37,29.08-25.31,38.4c-1.33,0.9-0.3,6.18,0.88,5.38
				c14.26-9.47,18.65-24.33,25.99-38.83C930.73,279.82,929.35,274.49,928.53,276.11L928.53,276.11z"/>
			<path class="st1" d="M930.86,281.18c8.91-5.83,22.93-10.99,35.04-5.8c0.22,0.09-1.14-4.66-2.68-5.31
				c-12.38-5.22-26.44-0.06-35.47,5.92C926.86,276.59,930.35,281.52,930.86,281.18L930.86,281.18z"/>
			<path class="st1" d="M78.94,176.91c5.01,6.62,10.95,12.58,15.89,19.25c1.68,2.28,7.49-0.91,5.86-3.16
				c-4.88-6.71-10.78-12.72-15.74-19.37C83.25,171.34,77.25,174.68,78.94,176.91C78.94,176.91,78.94,176.91,78.94,176.91z"/>
			<path class="st1" d="M233.01,84.87c4.39,7.36,8.63,14.78,12.06,22.56c0.94,2.13,7.1-0.47,6.16-2.66
				c-3.37-7.81-7.56-15.25-11.9-22.65C238.12,80.03,231.79,82.82,233.01,84.87C233.01,84.87,233.01,84.87,233.01,84.87z"/>
			<path class="st1" d="M775.5,84.28c-4.1,8.75-8.68,17.29-12.71,26.07c-0.9,1.98,2.58,6.58,3.97,3.61
				c4.07-8.76,8.69-17.28,12.83-26C780.54,85.98,776.9,81.3,775.5,84.28L775.5,84.28z"/>
			<path class="st1" d="M928.49,173.79c-6.57,8.05-12.49,16.52-19.71,24.09c-1.1,1.16,1.18,6.33,2,5.47
				c7.24-7.54,13.2-15.99,19.8-24.01C931.61,178.1,929.17,172.96,928.49,173.79C928.49,173.79,928.49,173.79,928.49,173.79z"/>
			<path class="st1" d="M88.77,178.8c3.16,6.21,8.49,11.22,13.13,16.46c1,1.12,6.77,0.02,6.19-0.63
				c-4.6-5.27-9.89-10.32-13.01-16.55C94.49,176.86,88.25,177.77,88.77,178.8L88.77,178.8z"/>
			<path class="st1" d="M95.23,179.25c4.54,5.77,9.28,11.4,13.93,17.09c1.11,1.35,7.25,1.44,5.74-0.44
				c-4.61-5.72-9.32-11.37-13.81-17.18C100.02,177.33,93.72,177.33,95.23,179.25L95.23,179.25z"/>
			<path class="st1" d="M103.36,177.16c5.74,7.55,10.57,15.53,17.27,22.42c1.95,2,6.04,0.79,3.49-1.85
				c-6.33-6.56-10.8-14.33-16.21-21.53C106.58,174.41,101.19,174.3,103.36,177.16C103.36,177.16,103.36,177.16,103.36,177.16z"/>
			<path class="st1" d="M108.81,173.75c4.65,9.4,11.97,17.22,17.86,25.89c1.08,1.58,7.26,0.1,6.07-1.66
				c-5.83-8.71-13.09-16.58-17.67-26.02C114.27,170.28,107.83,171.75,108.81,173.75L108.81,173.75z"/>
			<path class="st1" d="M115.04,173.67c7.77,7.73,13.89,16.64,19.82,25.61c1.4,2.12,5.81-2.33,4.6-4.2
				c-5.88-9.01-11.93-17.95-19.65-25.74C117.92,167.43,113.46,172.1,115.04,173.67C115.04,173.67,115.04,173.67,115.04,173.67z"/>
			<path class="st1" d="M120.78,169.62c5.33,8.62,11.97,16.42,17.58,24.86c1.07,1.59,6.76-1.44,5.79-2.94
				c-5.55-8.48-12.13-16.33-17.39-25C125.77,164.93,119.81,168.07,120.78,169.62C120.78,169.62,120.78,169.62,120.78,169.62z"/>
			<path class="st1" d="M127.28,164.72c4.08,7.06,10.46,12.75,13.63,20.31c0.58,1.37,5.43,2.23,5.34,2.03
				c-3.14-7.6-9.47-13.29-13.52-20.38C131.98,165.34,127.24,164.65,127.28,164.72L127.28,164.72z"/>
			<path class="st1" d="M133.64,168c2.27,4.68,5.98,8.34,9.41,12.28c1.64,1.88,6.8-2.01,5.17-3.93c-3.17-3.69-6.76-7.11-8.83-11.48
				C138.22,162.4,132.62,165.91,133.64,168C133.64,168,133.64,168,133.64,168z"/>
			<path class="st1" d="M150.42,138.84c4.58,4.97,7.78,10.79,11.94,16.03c1.49,1.87,7.63,1.5,5.58-1.13
				c-4.38-5.6-7.79-11.77-12.63-17.09C153.46,134.63,147.94,136.17,150.42,138.84L150.42,138.84z"/>
			<path class="st1" d="M155.86,132.02c1.44,8.98,9.77,15.58,15.14,22.61c0.53,0.68,6.23-2.35,6.19-2.4
				c-5.32-7.06-13.59-13.73-14.97-22.72C162.2,129.33,155.74,131.25,155.86,132.02L155.86,132.02z"/>
			<path class="st1" d="M160.75,128.51c5.44,8.14,10.57,16.44,17.16,23.87c0.86,0.96,6.81-0.79,6.21-1.48
				c-6.44-7.37-11.41-15.59-16.71-23.66C166.57,125.98,160.51,128.15,160.75,128.51L160.75,128.51z"/>
			<path class="st1" d="M167.66,126.26c5.3,8.59,13.4,15.4,18.54,24.08c0.68,1.13,6.69-1.3,6.32-1.92
				c-5.08-8.72-13.11-15.59-18.35-24.22C173.48,123.06,167.27,125.63,167.66,126.26L167.66,126.26z"/>
			<path class="st1" d="M175.27,121.3c5.25,7.8,11.06,15.27,15.37,23.57c0.73,1.4,6.68,1.52,6.15,0.49
				c-4.25-8.33-10-15.84-15.2-23.67C180.69,120.34,174.69,120.44,175.27,121.3L175.27,121.3z"/>
			<path class="st1" d="M182.94,119.23c3.82,8.37,9.51,15.71,14.57,23.44c0.85,1.29,6.95,1.95,5.74,0.09
				c-4.86-7.54-10.4-14.68-14.06-22.83C188.48,118.35,182.34,117.92,182.94,119.23L182.94,119.23z"/>
			<path class="st1" d="M189.15,116.98c3.66,7.77,10.19,13.8,15.6,20.56c0.92,1.13,6.73,2.56,4.9,0.26
				c-5.16-6.54-11.43-12.35-14.91-19.86C194.13,116.6,188.26,115.09,189.15,116.98L189.15,116.98z"/>
			<path class="st1" d="M197,116.42c2.9,7.54,8.42,13.81,12.6,20.72c1.45,2.39,6.74-1.26,5.51-3.34
				c-4.13-6.95-9.61-13.25-12.46-20.81C201.69,110.45,196.12,114.16,197,116.42L197,116.42z"/>
			<path class="st1" d="M202.57,114.71c3.73,6.05,7.81,11.92,11.06,18.2c1.03,1.98,6.07-1.96,5.22-3.63
				c-3.21-6.31-7.25-12.2-10.94-18.28C206.72,109.05,201.59,113.12,202.57,114.71C202.57,114.71,202.57,114.71,202.57,114.71z"/>
			<path class="st1" d="M208.15,110.6c2.76,5.82,8.89,9.6,11.61,15.43c0.81,1.7,7.29,0.75,6.36-1.25
				c-2.69-5.85-8.77-9.67-11.5-15.52C213.85,107.54,207.21,108.59,208.15,110.6L208.15,110.6z"/>
			<path class="st1" d="M216.65,105.69c3.63,4.91,5.99,10.53,10.23,15.07c1.36,1.45,7.82,0.82,5.96-1.2
				c-4.21-4.57-6.53-10.21-10.13-15.14C221.55,102.81,214.99,103.44,216.65,105.69L216.65,105.69z"/>
			<path class="st1" d="M221.87,101.6c4.33,5.12,8.32,10.28,9.98,16.67c0.34,1.32,6.82-0.33,6.51-1.57
				c-1.65-6.56-5.79-11.88-10.19-17.16C227.29,98.48,220.91,100.47,221.87,101.6L221.87,101.6z"/>
			<path class="st1" d="M228.53,95.81c3.93,5.59,8.52,10.81,11.12,17.06c0.67,1.6,6.91,2.25,5.94-0.13
				c-2.55-6.26-7.1-11.51-11-17.13C233.58,94.15,227.09,93.77,228.53,95.81L228.53,95.81z"/>
			<path class="st1" d="M230.54,87.09c1.5,9.09,7.86,15.82,12.42,23.67c1.22,2.08,7.73,0.67,6.38-1.69
				c-4.31-7.53-10.62-14.09-12-22.78C236.95,83.75,230.13,84.65,230.54,87.09C230.54,87.09,230.54,87.09,230.54,87.09z"/>
			<path class="st1" d="M773.77,95.05c-3.62,6.38-6.23,13.17-9.28,19.78c-0.88,1.91,5.14,4.73,5.99,2.93
				c3.1-6.59,5.76-13.37,9.42-19.71C780.95,96.24,774.78,93.26,773.77,95.05L773.77,95.05z"/>
			<path class="st1" d="M776.71,101.91c-3.43,5.7-6.27,11.65-8.75,17.75c-0.56,1.38,5.69,1.25,6.32-0.25
				c2.52-6.08,5.41-12.01,8.87-17.69C783.85,100.59,777.57,100.47,776.71,101.91L776.71,101.91z"/>
			<path class="st1" d="M782.2,104.07c-2.75,5.51-4.74,11.32-7.51,16.81c-0.64,1.27,4.75,4.58,4.99,4.12
				c2.81-5.48,4.84-11.27,7.62-16.76C787.95,106.96,782.44,103.6,782.2,104.07C782.2,104.07,782.2,104.07,782.2,104.07z"/>
			<path class="st1" d="M787.27,109.39c-1.53,5.68-5.07,10.48-7.39,15.86c-0.78,1.84,3.63,6.23,4.46,4.33
				c2.47-5.64,6.16-10.68,7.81-16.65C792.66,111.1,787.97,106.8,787.27,109.39L787.27,109.39z"/>
			<path class="st1" d="M793.77,110.92c-3.29,5.78-5.56,12-8.94,17.74c-0.99,1.69,2.25,6.7,3.63,4.38
				c3.4-5.72,5.71-11.93,9.03-17.69C798.48,113.65,795.12,108.58,793.77,110.92L793.77,110.92z"/>
			<path class="st1" d="M796.8,115.03c-1.94,6.66-6.2,12.39-8.11,19.05c-0.33,1.14,5.87,1.07,6.25-0.19
				c1.96-6.66,6.26-12.36,8.24-19C803.51,113.74,797.16,113.75,796.8,115.03L796.8,115.03z"/>
			<path class="st1" d="M803.09,114.3c-3.76,6.8-5.48,14.4-9.21,21.22c-0.63,1.17,4.53,4.61,4.66,4.38
				c3.77-6.79,5.53-14.38,9.34-21.16C808.53,117.57,803.22,114.06,803.09,114.3L803.09,114.3z"/>
			<path class="st1" d="M808.82,117.13c-3.42,8.06-6.86,16.15-10.88,23.96c-0.59,1.15,5.61,3.11,6.44,1.53
				c4.06-7.78,7.57-15.84,11.05-23.88C815.99,117.46,809.5,115.51,808.82,117.13L808.82,117.13z"/>
			<path class="st1" d="M814.93,119.17c-4.79,7.63-7.78,16.1-11.55,24.19c-1.19,2.56,5.18,4.07,6.26,1.81
				c3.83-8.06,6.88-16.51,11.73-24.1C822.87,118.71,816.26,117.03,814.93,119.17C814.93,119.17,814.93,119.17,814.93,119.17z"/>
			<path class="st1" d="M820.82,122.34c-4.83,7.69-9.31,15.61-12.52,24.05c-1.09,2.86,5,5.39,6.11,2.55
				c3.28-8.42,7.8-16.29,12.7-23.96C828.76,122.4,822.45,119.73,820.82,122.34L820.82,122.34z"/>
			<path class="st1" d="M828.55,123.08c-6.05,7.97-9.04,17.49-15.07,25.43c-1.62,2.15,3.6,5.98,5.21,3.89
				c6.09-7.92,9.14-17.41,15.24-25.33C835.58,124.94,830.15,120.98,828.55,123.08L828.55,123.08z"/>
			<path class="st1" d="M834.92,126.39c-6.78,7.68-10.46,17.02-15.42,25.7c-0.67,1.17,5.32,3.92,6.1,2.58
				c5.02-8.64,8.77-17.96,15.6-25.59C841.99,128.21,836.06,125.09,834.92,126.39L834.92,126.39z"/>
			<path class="st1" d="M840.94,129.65c-5.11,8.48-10.94,16.55-16.4,24.83c-1.6,2.43,4.44,5.06,6.09,2.61
				c5.52-8.24,11.41-16.26,16.58-24.71C848.74,129.88,842.46,127.11,840.94,129.65C840.94,129.65,840.94,129.65,840.94,129.65z"/>
			<path class="st1" d="M846.94,133.04c-5.59,7.27-9.39,15.54-15.65,22.4c-0.55,0.59,4.93,4.14,5.74,3.26
				c6.31-6.81,10.17-15.05,15.81-22.28C853.43,135.67,847.61,132.17,846.94,133.04C846.94,133.04,846.94,133.04,846.94,133.04z"/>
			<path class="st1" d="M849.82,138.89c-3.13,7.33-7.42,13.97-12.36,20.33c-0.52,0.66,5.43,1.97,6.26,0.92
				c5.08-6.45,9.49-13.18,12.73-20.62C856.64,139.08,850.4,137.52,849.82,138.89C849.82,138.89,849.82,138.89,849.82,138.89z"/>
			<path class="st1" d="M854.3,144.08c-2.22,5.31-4.53,10.54-8.48,14.93c0.35-0.4,5.62,2.12,6.49,1.17
				c3.98-4.36,6.32-9.58,8.59-14.87C860.88,145.34,854.64,143.27,854.3,144.08L854.3,144.08z"/>
			<path class="st1" d="M880.5,172.56c-5.62,5.14-9.78,11.26-14.14,17.29c-0.01,0,5.6,2.88,6.18,2.1c4.4-6,8.62-12.08,14.27-17.18
				C886.61,174.96,881.4,171.73,880.5,172.56L880.5,172.56z"/>
			<path class="st1" d="M887.13,174.3c-7.32,6.32-11.99,14.43-17.68,21.91c-0.86,1.13,4.91,3.83,6.08,2.32
				c5.6-7.25,10.22-15.14,17.41-21.26C894.41,176.03,888.43,173.17,887.13,174.3C887.13,174.3,887.13,174.3,887.13,174.3z"/>
			<path class="st1" d="M894.25,176.61c-7.1,7.4-12.84,15.75-18.18,24.3c-1.56,2.5,4.36,5,5.78,2.77
				c5.41-8.52,11.22-16.82,18.37-24.17C902.26,177.42,896.1,174.67,894.25,176.61L894.25,176.61z"/>
			<path class="st1" d="M900.45,179.64c-5.28,7.05-11.2,13.65-16.83,20.46c-0.45,0.55,4.95,4.13,5.61,3.35
				c5.69-6.76,11.65-13.31,16.99-20.33C906.7,182.48,901.02,178.87,900.45,179.64C900.45,179.64,900.45,179.64,900.45,179.64z"/>
			<path class="st1" d="M908.89,180.23c-5.68,6.78-11,13.79-17.03,20.3c-1.68,1.82,3.47,5.78,5.18,3.96
				c6.07-6.47,11.46-13.44,17.18-20.18C915.84,182.4,910.48,178.33,908.89,180.23L908.89,180.23z"/>
			<path class="st1" d="M915.55,181.6c-5.31,5.96-10.24,12.17-15.16,18.4c0.36-0.45,5.42,1.46,6.36,0.3
				c4.97-6.19,9.95-12.38,15.31-18.29C921.62,182.47,916.58,180.44,915.55,181.6C915.55,181.6,915.55,181.6,915.55,181.6z"/>
		</g>
	</g>
</g>
</svg>
