<svg xmlns="http://www.w3.org/2000/svg" width="33" height="33" viewBox="0 0 33 33"><defs><style>.a{fill:#d2e1ef;stroke:#95b1d6;}.b{fill:#335ca5;}</style></defs><g transform="translate(-1619.5 -602.095)"><g transform="translate(1620 602.595)"><circle class="a" cx="16" cy="16" r="16"/></g><g transform="translate(1627 608.528)"><path class="b" d="M16.465,13.889c-.2.379-.394.764-.574,1.145a7.32,7.32,0,0,1,.381,1.68H15.28a3.528,3.528,0,0,0-.09.737v.76h1.084a7.4,7.4,0,0,1-.975,2.995H13.1a15.921,15.921,0,0,0,.334-2.258H11.948a14.036,14.036,0,0,1-.383,2.258H6.073a14.482,14.482,0,0,1-.433-2.995h5.792v-.76a3.641,3.641,0,0,0-.088-.737h-5.7a14.482,14.482,0,0,1,.433-2.995h4.015c-.262-.508-.513-1-.722-1.5H6.587C7.205,10.81,8.032,9.977,8.82,9.977a4.5,4.5,0,0,1,.256-1.485c-.087,0-.17-.013-.256-.013a9,9,0,1,0,7.947,4.813ZM5.733,10.651a9.247,9.247,0,0,0-.746,1.571h-1.5A7.493,7.493,0,0,1,5.733,10.651Zm-3.386,3.07H4.541a16.088,16.088,0,0,0-.4,2.995H1.371a7.424,7.424,0,0,1,.975-3Zm0,7.486a7.424,7.424,0,0,1-.975-3H4.144a16.088,16.088,0,0,0,.4,2.995Zm1.136,1.5h1.5a9.246,9.246,0,0,0,.746,1.571A7.493,7.493,0,0,1,3.483,22.7ZM8.82,24.948c-.786,0-1.615-.833-2.232-2.245h4.465C10.433,24.116,9.6,24.948,8.82,24.948Zm3.085-.674A9.114,9.114,0,0,0,12.66,22.7h1.5A7.468,7.468,0,0,1,11.9,24.274Z" transform="translate(0.2 -6.948)"/><path class="b" d="M61,0a3.016,3.016,0,0,0-3,3.032v0c0,2.023,2.61,4.8,2.61,7.586h.766c0-2.781,2.612-5.476,2.612-7.586A3.016,3.016,0,0,0,61,0Zm0,4.6a1.564,1.564,0,1,1,1.542-1.586c0,.007,0,.014,0,.021A1.552,1.552,0,0,1,61,4.6Z" transform="translate(-47.488)"/></g></g></svg>