<svg xmlns="http://www.w3.org/2000/svg" width="33" height="33" viewBox="0 0 33 33"><defs><style>.a,.c{fill:#d2e1ef;}.a{stroke:#95b1d6;}.b{fill:#345ea1;}</style></defs><g transform="translate(-1557.5 -907.5)"><circle class="a" cx="16" cy="16" r="16" transform="translate(1558 908)"/><g transform="translate(5 9.621)"><rect class="b" width="17.14" height="17.14" rx="2.5" transform="translate(1556.736 914.707) rotate(-45)"/><g transform="translate(1562.828 908.48)"><path class="c" d="M22.819,17.815c-.122.236-.244.474-.356.711a4.537,4.537,0,0,1,.234,1.042h-.613a2.192,2.192,0,0,0-.055.457V20.5H22.7a4.6,4.6,0,0,1-.605,1.858H20.73a9.831,9.831,0,0,0,.207-1.4h-.92a8.638,8.638,0,0,1-.238,1.4H16.371A8.974,8.974,0,0,1,16.1,20.5H19.7v-.472a2.231,2.231,0,0,0-.055-.457H16.1a8.969,8.969,0,0,1,.269-1.858h2.491c-.162-.315-.317-.623-.448-.929H16.689c.384-.877.9-1.394,1.386-1.394a2.768,2.768,0,0,1,.16-.921c-.054,0-.106-.008-.16-.008a5.586,5.586,0,1,0,4.934,2.988Q22.916,17.629,22.819,17.815ZM16.16,15.8a5.755,5.755,0,0,0-.463.976h-.934A4.664,4.664,0,0,1,16.16,15.8Zm-2.1,1.905H15.42a9.962,9.962,0,0,0-.247,1.858h-1.72A4.6,4.6,0,0,1,14.058,17.71Zm0,4.646a4.6,4.6,0,0,1-.605-1.858h1.72a9.965,9.965,0,0,0,.247,1.858Zm.705.929H15.7a5.744,5.744,0,0,0,.463.976A4.668,4.668,0,0,1,14.763,23.285Zm3.312,1.394c-.487,0-1-.517-1.386-1.394H19.46C19.077,24.161,18.562,24.679,18.075,24.679Zm1.915-.418a5.744,5.744,0,0,0,.463-.976h.934A4.668,4.668,0,0,1,19.99,24.261Z" transform="translate(-12.5 -13.529)"/><g transform="translate(6.504 0)"><g transform="translate(0 0)"><path class="c" d="M41.775,10.542A1.859,1.859,0,0,0,39.917,12.4c0,1.238,1.62,2.937,1.62,4.638h.475c0-1.7,1.621-3.351,1.621-4.638A1.859,1.859,0,0,0,41.775,10.542Zm0,2.815a.957.957,0,1,1,.957-.957A.956.956,0,0,1,41.775,13.357Z" transform="translate(-39.917 -10.542)"/></g></g></g></g></g></svg>