<svg xmlns="http://www.w3.org/2000/svg" width="41" height="41" viewBox="0 0 41 41">
  <g id="enter_drawing_mode" transform="translate(-50.623 1.764)">
    <g id="Group_162704" data-name="Group 162704">
      <g id="Group_10389" data-name="Group 10389">
        <rect id="Rectangle_4322" data-name="Rectangle 4322" width="40" height="40" rx="3" transform="translate(51.123 -1.264)" stroke="#a8a7a7" stroke-miterlimit="10" stroke-width="1"/>
      </g>
    </g>
    <g id="Group_162705" data-name="Group 162705">
      <path id="Path_40816" data-name="Path 40816" d="M80.457,11.322,68.72,5.217l-9.9,10,8.837,6.32" fill="none" stroke="#fff" stroke-miterlimit="3.999" stroke-width="2"/>
    </g>
    <g id="Union_28" data-name="Union 28">
      <path id="Path_40969" data-name="Path 40969" d="M76.112,36.735a8.867,8.867,0,0,1-3.936-.467l-.107.034-.481-.272-.1-.054-.017-.008c-.129-.063-.216-.113-.26-.139l-.073-.039-.065-.039h0a6.945,6.945,0,0,1-2.559-2.406l-1.128-1.952a2.95,2.95,0,0,1-.254-2.261,3.828,3.828,0,0,1,1.331-2.006l-2.507-4.334a2.8,2.8,0,0,1,1.023-3.841h.006a2.809,2.809,0,0,1,3.832,1.027L72.4,22.72l5.249-2.288.177-.076.064-.007a4,4,0,0,1,4.9,2.373l.008.02.006.02L85,29.07a2.1,2.1,0,0,1,.061.206v0a3.689,3.689,0,0,1-1.29,3.959,19.26,19.26,0,0,1-4.59,2.638A9.8,9.8,0,0,1,76.112,36.735Z" fill="#fff"/>
      <path id="Path_40970" data-name="Path 40970" d="M75.98,35.492a8.478,8.478,0,0,0,2.68-.754c3.885-1.785,5.8-2.994,5.2-5.136l-.01-.039a.577.577,0,0,0-.024-.077l-2.2-6.312a2.746,2.746,0,0,0-3.47-1.595h0l-6.272,2.733L69.73,20.6a1.558,1.558,0,0,0-2.7,1.564l4.675,8.084a.385.385,0,0,1-.14.53.391.391,0,0,1-.532-.141L69.48,27.944a2.25,2.25,0,0,0-1.013,2.824l1.125,1.95a5.852,5.852,0,0,0,2.138,1.971l-.006,0s.037.023.1.056c0,0,.071.043.2.108.058.029.12.06.179.093l.013,0a7.476,7.476,0,0,0,3.762.554m.263,2.487a10.164,10.164,0,0,1-4.072-.394l-.237.078-.955-.541-.056-.029-.015-.007c-.143-.07-.249-.129-.314-.166l-.073-.042c-.038-.02-.074-.042-.109-.065h0a7.988,7.988,0,0,1-2.984-2.841L66.3,32.019a4.179,4.179,0,0,1-.38-3.211,5.066,5.066,0,0,1,.974-1.887l-2.024-3.5a4.054,4.054,0,0,1,1.477-5.552l.011-.007A4.065,4.065,0,0,1,71.9,19.351l1.028,1.777,4.58-2,.142-.015a5.325,5.325,0,0,1,.865-.166,5.255,5.255,0,0,1,5.443,3.318l.031.083,2.193,6.3c.028.079.063.185.1.316a4.9,4.9,0,0,1-1.669,5.2,19.875,19.875,0,0,1-4.9,2.841A11.023,11.023,0,0,1,76.243,37.979Z"/>
    </g>
    <circle id="Ellipse_1931" data-name="Ellipse 1931" cx="2.5" cy="2.5" r="2.5" transform="translate(56.081 12.736)" fill="#fff"/>
    <circle id="Ellipse_1932" data-name="Ellipse 1932" cx="2.5" cy="2.5" r="2.5" transform="translate(66.081 2.736)" fill="#fff"/>
    <circle id="Ellipse_1933" data-name="Ellipse 1933" cx="2.5" cy="2.5" r="2.5" transform="translate(78.081 8.736)" fill="#fff"/>
  </g>
</svg>
