<svg xmlns="http://www.w3.org/2000/svg" width="24" height="24" viewBox="0 0 24 24">
  <g id="map_filtered_indicator" transform="translate(1 1)">
    <g id="Group_184" data-name="Group 184">
      <ellipse id="Ellipse_99" data-name="Ellipse 99" cx="11" cy="11" rx="11" ry="11" fill="none" stroke="#fff" stroke-width="2"/>
      <g id="Group_183" data-name="Group 183" transform="translate(9.402 4.642)">
        <path id="Path_146" data-name="Path 146" d="M1474.269,725.948a1.621,1.621,0,0,1-1.152-.423,1.353,1.353,0,0,1-.454-1.026,1.311,1.311,0,0,1,.458-1.03,1.685,1.685,0,0,1,1.148-.4,1.631,1.631,0,0,1,1.144.406,1.325,1.325,0,0,1,.445,1.025,1.357,1.357,0,0,1-.441,1.039A1.615,1.615,0,0,1,1474.269,725.948Zm1.432-12.717-.341,8.624h-2.234l-.323-8.624Z" transform="translate(-1472.663 -713.231)" fill="#fff"/>
      </g>
    </g>
  </g>
</svg>
