<svg id="Component_21_1" data-name="Component 21 – 1" xmlns="http://www.w3.org/2000/svg" width="81.036" height="80.906" viewBox="0 0 81.036 80.906">
  <path id="Path_41248" data-name="Path 41248" d="M86.636,51.991a3.235,3.235,0,0,0-2.516-2.157l-10.783-1.8,12.221-11.5a3.235,3.235,0,0,0-1.438-5.392l-10.783-1.8,12.581-11.5a3.235,3.235,0,0,0-1.438-5.392L44.221,5.622a3.235,3.235,0,0,0-2.516.719L6.839,32.94a3.235,3.235,0,0,0,1.078,5.392l12.221,3.235L6.839,51.631a3.235,3.235,0,0,0,1.078,5.392l12.221,3.235L6.839,70.322a3.235,3.235,0,0,0,1.078,5.392L49.973,86.5h.719l2.516-.359,32.71-30.912A3.235,3.235,0,0,0,86.636,51.991ZM27.687,43.364l22.286,5.751h.719l2.157-.719L67.585,34.737l9.346,1.438L49.973,61.336,15.825,52.71ZM49.973,80.387,15.825,71.4l11.862-9.346,22.286,6.111h.719l2.157-.719L67.586,53.788l9.346,1.438Z" transform="translate(-5.815 -5.591)" fill="#b4b4b4"/>
</svg>
