<svg id="start-over_disabled" xmlns="http://www.w3.org/2000/svg" width="16.981" height="15" viewBox="0 0 16.981 15">
  <path id="Path_4219" data-name="Path 4219" d="M8.29,12.394l-3.47,3.19L2,11.66l1.31-.878.943,1.163A7.64,7.64,0,0,1,11.623,6a7.547,7.547,0,0,1,7.358,7.641A7.3,7.3,0,0,1,11.741,21h-.119a7.62,7.62,0,0,1-5.364-2.185l1.2-1.2A5.934,5.934,0,0,0,11.623,19.3a5.6,5.6,0,0,0,5.66-5.539c0-.04,0-.081,0-.122A5.848,5.848,0,0,0,11.623,7.7a5.937,5.937,0,0,0-5.7,4.562L7.14,11.144Z" transform="translate(-2 -6)" fill="#fff" opacity="0.35"/>
  <path id="Path_4220" data-name="Path 4220" d="M36.024,22.914l-3.768-2.57-.043-.029-.043-.029,0,0a.974.974,0,0,1-.36-.99l.926-5.465a.063.063,0,0,1,.125,0l.944,5.678,2.3,3.321a.063.063,0,0,1-.088.087Z" transform="translate(-23.362 -11.571)" fill="#fff" opacity="0"/>
</svg>
