<svg xmlns="http://www.w3.org/2000/svg" width="25" height="24.076" viewBox="0 0 25 24.076"><defs><style>.a{fill:#345ea1;}</style></defs><g transform="translate(-555.68 -560.542)"><path class="a" d="M564.88,584.185c0-.618,0-1.234,0-1.851.006-.84.318-1.157,1.154-1.169.275,0,.552,0,.86,0v-9.374a3.037,3.037,0,0,1,.082-5.74,3.091,3.091,0,0,1,3.78,1.621,2.972,2.972,0,0,1-1.323,3.9.724.724,0,0,0-.468.767c.016,2.748.008,5.5.01,8.244,0,.173.02.347.034.586.328,0,.624-.006.92,0,.753.017,1.084.348,1.094,1.108.009.636,0,1.273,0,1.909Z" transform="translate(0.225 0.433)"/><path class="a" d="M580.23,568.666a12.106,12.106,0,0,1-2.964,8.266c-.283.324-.637.8-1.075.413s-.027-.78.276-1.115a10.977,10.977,0,0,0,.113-14.433c-.131-.15-.341-.282-.378-.454a3.16,3.16,0,0,1,.024-.8c.241.054.568.027.708.174a11.753,11.753,0,0,1,3.129,6.261c.111.664.134,1.343.167,1.687" transform="translate(0.45)"/><path class="a" d="M555.68,568.979a11.846,11.846,0,0,1,2.948-7.921c.117-.137.219-.328.369-.383a2.75,2.75,0,0,1,.706-.079,2.543,2.543,0,0,1,.035.7c-.033.152-.22.272-.341.406a11,11,0,0,0,0,14.489c.282.313.78.66.313,1.094-.505.469-.778-.13-1.037-.424a11.683,11.683,0,0,1-2.988-7.879"/><path class="a" d="M558.723,569.119a9.648,9.648,0,0,1,2.026-5.96c.235-.3.51-.684.919-.4.428.3.2.693-.061,1.033a8.09,8.09,0,0,0-1.786,6.127,7.749,7.749,0,0,0,1.6,3.861c.1.127.27.237.29.372.042.283.122.669-.022.847-.26.318-.562.1-.792-.175a8.72,8.72,0,0,1-2.049-4.5c-.067-.472-.1-.947-.126-1.211"/><path class="a" d="M577.179,568.931a9.072,9.072,0,0,1-2,5.682,1.445,1.445,0,0,1-.409.426.669.669,0,0,1-.563.04.715.715,0,0,1-.17-.56c.014-.156.172-.3.28-.444a8.076,8.076,0,0,0,.005-10.253,1.605,1.605,0,0,1-.323-.494c-.045-.182-.017-.55.046-.563a.987.987,0,0,1,.7.048,2.614,2.614,0,0,1,.582.675,9.272,9.272,0,0,1,1.857,5.443" transform="translate(0.45)"/><path class="a" d="M561.835,569.144a5.93,5.93,0,0,1,1.125-3.753c.21-.286.446-.5.794-.265s.237.545.048.838a5.089,5.089,0,0,0,.02,6.033.789.789,0,0,1-.093.758c-.26.254-.533.056-.738-.221a6.043,6.043,0,0,1-1.156-3.39" transform="translate(0.123 0.123)"/><path class="a" d="M574.069,568.916A6,6,0,0,1,573,572.4c-.211.33-.457.6-.872.329-.38-.249-.175-.565-.007-.829a5.094,5.094,0,0,0-.028-5.987.8.8,0,0,1,.059-.766c.308-.3.576-.01.781.252a6.077,6.077,0,0,1,1.133,3.519" transform="translate(0.326 0.122)"/></g></svg>