<svg id="Layer_1" data-name="Layer 1" xmlns="http://www.w3.org/2000/svg" viewBox="0 0 32 30"><defs><style>.cls-1{fill:#241e20;}.cls-2{fill:#808184;}</style></defs><title>generic-alarm-icon</title><g id="Group_4682" data-name="Group 4682"><path id="Path_4849" data-name="Path 4849" class="cls-1" d="M12.12,30V27.65c0-1.06.41-1.47,1.46-1.48.34,0,.69,0,1.08,0V14.27a3.86,3.86,0,1,1,4.87-5.22A3.78,3.78,0,0,1,17.86,14a.92.92,0,0,0-.59,1c0,3.49,0,7,0,10.46,0,.22,0,.44,0,.75.41,0,.78,0,1.16,0,.94,0,1.36.44,1.37,1.4,0,.81,0,1.62,0,2.43Z"/><path id="Path_4850" data-name="Path 4850" class="cls-2" d="M31.46,10.31a15.38,15.38,0,0,1-3.73,10.48c-.36.41-.8,1-1.36.53s0-1,.35-1.42a14,14,0,0,0,.14-18.31c-.16-.19-.42-.36-.47-.58a4.29,4.29,0,0,1,0-1c.3.07.71,0,.89.22a14.94,14.94,0,0,1,3.94,7.94c.14.85.18,1.71.21,2.15"/><path id="Path_4851" data-name="Path 4851" class="cls-2" d="M.53,10.71A15.13,15.13,0,0,1,4.25.65c.14-.17.27-.41.46-.48A3.33,3.33,0,0,1,5.6.07,3.26,3.26,0,0,1,5.65,1c-.05.2-.28.35-.43.52a14,14,0,0,0,0,18.38c.35.4,1,.84.39,1.39s-1-.17-1.3-.54a14.9,14.9,0,0,1-3.77-10"/><path id="Path_4852" data-name="Path 4852" class="cls-2" d="M4.37,10.88A12.25,12.25,0,0,1,6.92,3.32c.3-.38.64-.87,1.16-.5s.25.87-.08,1.31A10.3,10.3,0,0,0,5.75,11.9a9.8,9.8,0,0,0,2,4.9c.12.16.34.3.36.47.06.36.16.85,0,1.08-.32.4-.7.12-1-.23a11,11,0,0,1-2.58-5.7c-.09-.6-.13-1.2-.16-1.54"/><path id="Path_4853" data-name="Path 4853" class="cls-2" d="M27.62,10.65a11.58,11.58,0,0,1-2.52,7.21,1.87,1.87,0,0,1-.51.54.84.84,0,0,1-.71.05.89.89,0,0,1-.21-.71c0-.2.21-.39.35-.57a10.31,10.31,0,0,0,0-13,1.81,1.81,0,0,1-.41-.62c-.06-.23,0-.7.05-.72a1.33,1.33,0,0,1,.88.06,3.51,3.51,0,0,1,.73.86,11.81,11.81,0,0,1,2.34,6.91"/><path id="Path_4854" data-name="Path 4854" class="cls-2" d="M8.29,10.91A7.53,7.53,0,0,1,9.71,6.15c.26-.36.56-.64,1-.33s.29.69.06,1.06a6.48,6.48,0,0,0,0,7.65,1,1,0,0,1-.12,1c-.32.32-.67.07-.93-.28a7.85,7.85,0,0,1-1.46-4.31"/><path id="Path_4855" data-name="Path 4855" class="cls-2" d="M23.7,10.63A7.64,7.64,0,0,1,22.36,15c-.27.42-.58.77-1.1.42s-.22-.72,0-1.05a6.52,6.52,0,0,0,0-7.6,1,1,0,0,1,.07-1c.39-.38.73,0,1,.32a7.72,7.72,0,0,1,1.43,4.47"/></g></svg>