<svg id="Layer_1" data-name="Layer 1" xmlns="http://www.w3.org/2000/svg" viewBox="0 0 41.66 133.71"><defs><style>.cls-1{fill:#6d7075;}.cls-2{fill:#ec1c24;}.cls-3{fill:#f16528;}.cls-4{fill:#fbae22;}.cls-5{fill:#f7db1d;}.cls-6{fill:#b7d333;}.cls-7{fill:#72be44;}.cls-8{fill:#eaeaea;}</style></defs><title>Questionnaires_Scoring</title><path class="cls-1" d="M5.85,133.24H4.34v-3.08H1.51v3.08H0V126.1H1.51v2.8H4.34v-2.8H5.85Z"/><path class="cls-1" d="M7.65,133.24V126.1H9.17v7.14Z"/><path class="cls-1" d="M13.67,129.23H16.5v3.7a8.07,8.07,0,0,1-1.29.32,8.55,8.55,0,0,1-1.25.09,3.14,3.14,0,0,1-2.46-1,3.94,3.94,0,0,1-.86-2.73,3.58,3.58,0,0,1,1-2.69,3.75,3.75,0,0,1,2.75-1,5.32,5.32,0,0,1,2.11.44l-.5,1.21a3.58,3.58,0,0,0-1.62-.39,2,2,0,0,0-1.58.66,2.57,2.57,0,0,0-.59,1.77,2.84,2.84,0,0,0,.48,1.78,1.64,1.64,0,0,0,1.38.61,4.47,4.47,0,0,0,1-.1v-1.49H13.67Z"/><path class="cls-1" d="M24.05,133.24H22.54v-3.08H19.72v3.08H18.2V126.1h1.52v2.8h2.82v-2.8h1.51Z"/><path class="cls-1" d="M30,133.24H25.85V126.1H30v1.24h-2.6v1.57h2.42v1.24H27.37V132H30Z"/><path class="cls-1" d="M35.67,131.26a1.83,1.83,0,0,1-.7,1.52,3,3,0,0,1-1.93.56,4.48,4.48,0,0,1-2-.43V131.5a8.16,8.16,0,0,0,1.22.46,4,4,0,0,0,.91.13,1.29,1.29,0,0,0,.77-.19.65.65,0,0,0,.26-.57.6.6,0,0,0-.11-.37,1.23,1.23,0,0,0-.35-.32,9.15,9.15,0,0,0-.92-.48,4.11,4.11,0,0,1-1-.59,2.24,2.24,0,0,1-.53-.66,1.87,1.87,0,0,1-.19-.88,1.84,1.84,0,0,1,.64-1.49,2.68,2.68,0,0,1,1.78-.54,4.11,4.11,0,0,1,1.06.13,7,7,0,0,1,1.05.37l-.48,1.18a6.43,6.43,0,0,0-.95-.33,3.1,3.1,0,0,0-.73-.09,1,1,0,0,0-.66.2.67.67,0,0,0-.23.52.65.65,0,0,0,.09.35.93.93,0,0,0,.3.29,8.47,8.47,0,0,0,1,.5,3.92,3.92,0,0,1,1.37,1A1.85,1.85,0,0,1,35.67,131.26Z"/><path class="cls-1" d="M39.72,133.24H38.2v-5.88H36.26V126.1h5.4v1.26H39.72Z"/><path class="cls-1" d="M1.29,7.62V.48H2.8V6.37H5.7V7.62Z"/><path class="cls-1" d="M13.42,4a3.84,3.84,0,0,1-.88,2.72,3.25,3.25,0,0,1-2.52,1,3.25,3.25,0,0,1-2.52-1A3.85,3.85,0,0,1,6.62,4,3.85,3.85,0,0,1,7.5,1.31,3.29,3.29,0,0,1,10,.37a3.25,3.25,0,0,1,2.52.94A3.89,3.89,0,0,1,13.42,4ZM8.21,4a3,3,0,0,0,.45,1.8,1.6,1.6,0,0,0,1.36.6c1.21,0,1.81-.8,1.81-2.4s-.6-2.41-1.8-2.41a1.6,1.6,0,0,0-1.36.6A3,3,0,0,0,8.21,4Z"/><path class="cls-1" d="M21.85,7.62H20.13l-1-3.75c0-.14-.1-.41-.18-.83a7.69,7.69,0,0,1-.15-.84q0,.25-.15.84t-.18.84l-1,3.74H15.82L14,.48h1.49l.91,3.89c.16.72.28,1.35.35,1.87,0-.18.06-.47.13-.86s.14-.69.2-.9l1-4h1.43l1,4c.05.18.1.45.17.82s.12.68.16.94c0-.25.08-.57.15-1s.14-.68.2-.92L22.18.48h1.49Z"/><path class="cls-1" d="M28.68,7.62H24.57V.48h4.11V1.72h-2.6V3.29H28.5V4.53H26.08V6.37h2.6Z"/><path class="cls-1" d="M34.38,5.63a1.84,1.84,0,0,1-.7,1.53,3,3,0,0,1-1.93.55,4.48,4.48,0,0,1-2-.43V5.88A9.2,9.2,0,0,0,31,6.33a3.51,3.51,0,0,0,.92.13,1.28,1.28,0,0,0,.76-.19.63.63,0,0,0,.27-.56.64.64,0,0,0-.12-.38A1.21,1.21,0,0,0,32.43,5a9.15,9.15,0,0,0-.92-.48,4.44,4.44,0,0,1-1-.6A2.23,2.23,0,0,1,30,3.29a2.07,2.07,0,0,1-.19-.88A1.83,1.83,0,0,1,30.45.92,2.68,2.68,0,0,1,32.23.38a4.11,4.11,0,0,1,1.06.13,6.4,6.4,0,0,1,1.06.37l-.49,1.17a7.56,7.56,0,0,0-1-.32,3.13,3.13,0,0,0-.73-.1,1,1,0,0,0-.66.2.69.69,0,0,0-.23.53.68.68,0,0,0,.09.35.91.91,0,0,0,.3.28,7.93,7.93,0,0,0,1,.51,3.79,3.79,0,0,1,1.37,1A1.89,1.89,0,0,1,34.38,5.63Z"/><path class="cls-1" d="M38.43,7.62H36.91V1.74H35V.48h5.39V1.74H38.43Z"/><g id="_Group_" data-name="&lt;Group&gt;"><path id="_Path_" data-name="&lt;Path&gt;" class="cls-2" d="M26.63,109.25V99.78H15v9.47c0,3.79,2.61,6.87,5.81,6.87S26.63,113,26.63,109.25Z"/><rect id="_Path_2" data-name="&lt;Path&gt;" class="cls-3" x="15.02" y="83.44" width="11.61" height="16.34"/><rect id="_Path_3" data-name="&lt;Path&gt;" class="cls-4" x="15.02" y="67.1" width="11.61" height="16.34"/><rect id="_Path_4" data-name="&lt;Path&gt;" class="cls-5" x="15.02" y="50.76" width="11.61" height="16.34"/><rect id="_Path_5" data-name="&lt;Path&gt;" class="cls-6" x="15.02" y="34.42" width="11.61" height="16.34"/><path id="_Path_6" data-name="&lt;Path&gt;" class="cls-7" d="M15,25v9.47H26.63V25c0-3.79-2.6-6.87-5.8-6.87S15,21.16,15,25Z"/><rect id="_Rectangle_" data-name="&lt;Rectangle&gt;" class="cls-8" x="15.02" y="34.18" width="11.61" height="0.49"/><rect id="_Rectangle_2" data-name="&lt;Rectangle&gt;" class="cls-8" x="15.02" y="50.52" width="11.61" height="0.49"/><rect id="_Rectangle_3" data-name="&lt;Rectangle&gt;" class="cls-8" x="15.02" y="66.85" width="11.61" height="0.49"/><rect id="_Rectangle_4" data-name="&lt;Rectangle&gt;" class="cls-8" x="15.02" y="83.19" width="11.61" height="0.49"/><rect id="_Rectangle_5" data-name="&lt;Rectangle&gt;" class="cls-8" x="15.02" y="99.53" width="11.61" height="0.49"/></g></svg>