<svg xmlns="http://www.w3.org/2000/svg" width="57.042" height="44" viewBox="0 0 57.042 44"><defs><style>.a,.b,.e{fill:none;}.a,.b{stroke:#000;stroke-miterlimit:10;}.a{stroke-width:1.822px;}.c{fill:#fff;}.d{stroke:none;}</style></defs><g transform="translate(-506.918 -581.3)"><g class="a" transform="translate(506.96 581.3)"><rect class="d" width="32.412" height="32.503" rx="3.198"/><rect class="e" x="0.911" y="0.911" width="30.591" height="30.682" rx="2.287"/></g><ellipse cx="10.844" cy="10.949" rx="10.844" ry="10.949" transform="translate(512.323 586.164)"/><g class="b" transform="translate(507.918 620.569)"><rect class="d" width="55.042" height="1.562"/><rect class="e" x="-0.5" y="-0.5" width="56.042" height="2.562"/></g><rect width="40.046" height="1.562" transform="translate(507.918 620.554)"/><ellipse cx="3.897" cy="3.935" rx="3.897" ry="3.935" transform="translate(544.486 617.431)"/><path class="c" d="M529.381,597.633a.505.505,0,0,1-.359-.15l-5.615-5.671-5.6,5.655a.506.506,0,0,1-.718,0,.517.517,0,0,1,0-.725l5.959-6.017a.506.506,0,0,1,.718,0l5.974,6.033a.517.517,0,0,1,0,.725A.5.5,0,0,1,529.381,597.633Z"/><path class="c" d="M526.452,594.162v-3.2a.51.51,0,0,1,.507-.512h.508a.511.511,0,0,1,.507.512V595.7Z"/><path class="c" d="M523.407,592.753l-5.583,5.636v2.819a1.531,1.531,0,0,0,1.523,1.537h8.12a1.53,1.53,0,0,0,1.522-1.537v-2.819Zm1.522,8.455a.511.511,0,0,1-.507.512h-2.03a.511.511,0,0,1-.508-.512v-3.075a.511.511,0,0,1,.508-.512h2.03a.511.511,0,0,1,.507.512Z"/><rect width="17.183" height="3.041" transform="translate(543.024 585.371)"/><rect width="13.485" height="3.041" transform="translate(543.024 593.734)"/><rect width="15.832" height="3.041" transform="translate(543.024 602.097)"/></g></svg>