<svg id="Layer_1" data-name="Layer 1" xmlns="http://www.w3.org/2000/svg" xmlns:xlink="http://www.w3.org/1999/xlink" viewBox="0 0 553.11 377.11"><defs><style>.cls-1,.cls-4{fill:#fff;}.cls-1{stroke:#c7c7c7;stroke-width:1.11px;}.cls-1,.cls-18,.cls-4{stroke-miterlimit:10;}.cls-2{fill:url(#linear-gradient);}.cls-3{fill:url(#linear-gradient-2);}.cls-18,.cls-4{stroke:#83ccff;}.cls-4{stroke-width:4px;}.cls-5{fill:url(#linear-gradient-3);}.cls-6{fill:url(#linear-gradient-4);}.cls-7{fill:url(#linear-gradient-5);}.cls-8{fill:url(#linear-gradient-6);}.cls-9{fill:url(#linear-gradient-7);}.cls-10{fill:url(#linear-gradient-8);}.cls-11{fill:url(#linear-gradient-9);}.cls-12{fill:url(#linear-gradient-10);}.cls-13{fill:url(#linear-gradient-11);}.cls-14{fill:url(#linear-gradient-12);}.cls-15{fill:url(#linear-gradient-13);}.cls-16{fill:url(#linear-gradient-14);}.cls-17{fill:url(#linear-gradient-15);}.cls-18{fill:#83ccff;fill-opacity:0.44;stroke-width:1.5px;}.cls-19{fill:#4172b3;}.cls-20{fill:url(#linear-gradient-16);}.cls-21{fill:#aaa;}.cls-22{fill:#80bc82;}</style><linearGradient id="linear-gradient" x1="30.8" y1="41.9" x2="160.78" y2="41.9" gradientUnits="userSpaceOnUse"><stop offset="0" stop-color="#eaeaea"/><stop offset="1" stop-color="#d9d9d9"/></linearGradient><linearGradient id="linear-gradient-2" x1="2126.05" y1="216.65" x2="2256.03" y2="216.65" gradientTransform="translate(-4068.59 -2130.69) scale(2.03 10.61)" xlink:href="#linear-gradient"/><linearGradient id="linear-gradient-3" x1="269.26" y1="168.97" x2="393.86" y2="168.97" xlink:href="#linear-gradient"/><linearGradient id="linear-gradient-4" x1="30.69" y1="99.86" x2="81.82" y2="99.86" xlink:href="#linear-gradient"/><linearGradient id="linear-gradient-5" x1="94.85" y1="99.86" x2="145.98" y2="99.86" xlink:href="#linear-gradient"/><linearGradient id="linear-gradient-6" x1="162.42" y1="99.86" x2="210.48" y2="99.86" xlink:href="#linear-gradient"/><linearGradient id="linear-gradient-7" x1="30.69" y1="166.88" x2="81.82" y2="166.88" xlink:href="#linear-gradient"/><linearGradient id="linear-gradient-8" x1="90.82" y1="166.88" x2="151.01" y2="166.88" xlink:href="#linear-gradient"/><linearGradient id="linear-gradient-9" x1="162.42" y1="166.88" x2="210.48" y2="166.88" xlink:href="#linear-gradient"/><linearGradient id="linear-gradient-10" x1="30.69" y1="234.83" x2="81.82" y2="234.83" xlink:href="#linear-gradient"/><linearGradient id="linear-gradient-11" x1="94.85" y1="234.83" x2="145.98" y2="234.83" xlink:href="#linear-gradient"/><linearGradient id="linear-gradient-12" x1="162.42" y1="234.83" x2="210.48" y2="234.83" xlink:href="#linear-gradient"/><linearGradient id="linear-gradient-13" x1="30.69" y1="302.78" x2="81.82" y2="302.78" xlink:href="#linear-gradient"/><linearGradient id="linear-gradient-14" x1="94.85" y1="302.78" x2="145.98" y2="302.78" xlink:href="#linear-gradient"/><linearGradient id="linear-gradient-15" x1="162.42" y1="302.78" x2="210.48" y2="302.78" xlink:href="#linear-gradient"/><linearGradient id="linear-gradient-16" x1="2126.05" y1="228.32" x2="2256.03" y2="228.32" gradientTransform="translate(-4068.59 -2130.69) scale(2.03 10.61)" xlink:href="#linear-gradient"/></defs><title>Untitled-7</title><rect class="cls-1" x="0.56" y="0.56" width="552" height="376"/><rect class="cls-2" x="30.8" y="33.3" width="129.99" height="17.2"/><rect class="cls-3" x="245.37" y="76.46" width="263.75" height="182.46"/><rect class="cls-4" x="258.37" y="89.53" width="146.38" height="156.16" rx="3.2"/><ellipse class="cls-5" cx="331.56" cy="168.97" rx="62.3" ry="62.08"/><rect class="cls-6" x="30.69" y="76.65" width="51.13" height="46.41"/><rect class="cls-7" x="94.85" y="76.65" width="51.13" height="46.41"/><rect class="cls-8" x="162.42" y="76.65" width="48.05" height="46.41"/><rect class="cls-9" x="30.69" y="143.67" width="51.13" height="46.41"/><rect class="cls-10" x="90.82" y="137.19" width="60.19" height="59.38" rx="3.79"/><rect class="cls-11" x="162.42" y="143.67" width="48.05" height="46.41"/><rect class="cls-12" x="30.69" y="211.62" width="51.13" height="46.41"/><rect class="cls-13" x="94.85" y="211.62" width="51.13" height="46.41"/><rect class="cls-14" x="162.42" y="211.62" width="48.05" height="46.41"/><rect class="cls-15" x="30.69" y="279.58" width="51.13" height="46.41"/><rect class="cls-16" x="94.85" y="279.58" width="51.13" height="46.41"/><rect class="cls-17" x="162.42" y="279.58" width="48.05" height="46.41"/><rect class="cls-18" x="90.8" y="136.87" width="60.14" height="59.93" rx="4"/><rect class="cls-19" x="437.89" y="319.37" width="91.56" height="32.78"/><rect class="cls-20" x="245.37" y="287.85" width="263.75" height="7.39"/><rect class="cls-19" x="245.37" y="287.78" width="191.89" height="7.39"/><ellipse class="cls-19" cx="439.26" cy="291.61" rx="10.7" ry="10.66"/><path class="cls-21" d="M358.65,166.28a3.21,3.21,0,0,1-2.25-.92l-35.11-35-35,34.89a3.17,3.17,0,1,1-4.49-4.48l37.26-37.12a3.19,3.19,0,0,1,4.49,0l37.35,37.22a3.16,3.16,0,0,1-2.24,5.4Z"/><path class="cls-21" d="M340.33,144.87V125.15A3.17,3.17,0,0,1,343.5,122h3.18a3.18,3.18,0,0,1,3.17,3.16v29.2Z"/><polygon class="cls-21" points="336.77 195.39 335.52 196.65 336.7 197.83 339.22 197.83 336.77 195.39"/><path class="cls-21" d="M323.57,196.65a8.6,8.6,0,0,1,1.7-5.15H315a3.18,3.18,0,0,1-3.18-3.16v-19a3.18,3.18,0,0,1,3.18-3.16h12.69a3.17,3.17,0,0,1,3.17,3.16v16.48a8.74,8.74,0,0,1,12.1.16l7.19,7.17,6.1-9V171l-34.91-34.78L286.39,171v17.39a9.5,9.5,0,0,0,9.52,9.49h27.74A9.23,9.23,0,0,1,323.57,196.65Z"/><path class="cls-22" d="M386.51,166.45l-5.28-3.57a3.22,3.22,0,0,0-4.44.84l-25.87,38L339,189.89a3.23,3.23,0,0,0-4.52,0L330,194.4a3.17,3.17,0,0,0,0,4.5l18.28,18.22a6.25,6.25,0,0,0,4.08,1.81,4.9,4.9,0,0,0,3.85-2.28l31.16-45.78A3.19,3.19,0,0,0,386.51,166.45Z"/><path class="cls-22" d="M140.85,149.43l-3.9-2.64a2.39,2.39,0,0,0-3.28.62l-19.1,28.08-8.78-8.75a2.38,2.38,0,0,0-3.34,0l-3.33,3.32a2.35,2.35,0,0,0,0,3.33l13.5,13.45a4.61,4.61,0,0,0,3,1.34,3.61,3.61,0,0,0,2.84-1.68l23-33.81A2.36,2.36,0,0,0,140.85,149.43Z"/></svg>