<?xml version="1.0" encoding="utf-8"?>
<!-- Generator: Adobe Illustrator 25.2.1, SVG Export Plug-In . SVG Version: 6.00 Build 0)  -->
<svg version="1.1" id="Layer_1" xmlns="http://www.w3.org/2000/svg" xmlns:xlink="http://www.w3.org/1999/xlink" x="0px" y="0px"
	 viewBox="0 0 64 64" style="enable-background:new 0 0 64 64;" xml:space="preserve">
<style type="text/css">
	.st0{fill:#989898;}
</style>
<desc>A solid styled icon from Orion Icon Library.</desc>
<g>
	<g id="Group_1200_5_">
		<path id="Path_495_5_" class="st0" d="M49.8,10.5c-0.6-0.6-1.2-1.2-1.8-1.8s-1.2-1.2-1.8-1.8c-4.2-4.3-6.7-6.7-9.3-6.7H17.3
			c-5.4,0-9.8,4.4-9.8,9.8V54c0,5.4,4.4,9.8,9.8,9.8h29.4c5.4,0,9.8-4.4,9.8-9.8V19.7C56.5,17.2,54.1,14.7,49.8,10.5z M51.6,54
			c0,2.7-2.2,4.9-4.9,4.9H17.3c-2.7,0-4.9-2.2-4.9-4.9V10c0-2.7,2.2-4.9,4.9-4.9h17.9c1.8,0.5,1.7,2.6,1.7,4.8v7.5
			c0,1.4,1.1,2.4,2.4,2.4h7.3c2.4,0,4.9,0,4.9,2.4L51.6,54z"/>
	</g>
	<path class="st0" d="M31.6,21.1l-13.2,7.5v15.1L31.6,51l13.2-7.3V28.6L31.6,21.1z M31.6,24.5l8.6,4.8l-8.6,4.7l-8.6-4.7L31.6,24.5z
		 M33.2,46.8V36.7l8.8-4.9v10.1L33.2,46.8z M21.3,41.9V31.7l8.9,4.9v10.2L21.3,41.9z"/>
</g>
</svg>
