<?xml version="1.0" encoding="utf-8"?>
<!-- Generator: Adobe Illustrator 24.1.3, SVG Export Plug-In . SVG Version: 6.00 Build 0)  -->
<svg version="1.1" id="Layer_1" xmlns="http://www.w3.org/2000/svg" xmlns:xlink="http://www.w3.org/1999/xlink" x="0px" y="0px"
	 viewBox="0 0 217.1 13.8" style="enable-background:new 0 0 217.1 13.8;" xml:space="preserve">
<style type="text/css">
	.st0{fill:#FFFFFF;}
</style>
<g>
	<g>
		<path class="st0" d="M7.6,13.6V8H2.3v5.6H0V0.8h2.3v5h5.2v-5h2.3v12.8H7.6z"/>
		<path class="st0" d="M17.4,8.8l3.2,4.8h-2.5L16,10.4l-2.1,3.1h-2.5l3.3-4.8l-3.3-4.6H14l2.1,3l2-3h2.5L17.4,8.8z"/>
		<path class="st0" d="M30.4,13.6l-0.3-1.4c-0.4,0.7-1.6,1.6-3.2,1.6c-1.5,0-2.8-0.4-3.8-1.4c-1.3-1.4-1.7-3.1-1.7-5.2
			c0-2.1,0.3-3.7,1.7-5.1c1-1,2.4-1.5,3.8-1.5c1.6,0,2.9,0.6,3.8,1.5c0.6,0.6,1.1,1.5,1.2,2.6h-2.4c0-0.5-0.3-0.8-0.6-1.2
			c-0.5-0.5-1.2-0.8-2-0.8c-0.7,0-1.6,0.3-2.1,0.9c-0.9,0.9-1,2.5-1,3.7c0,1.2,0.1,2.8,1,3.7c0.5,0.5,1.3,0.8,2.1,0.8
			c0.8,0,1.5-0.3,1.9-0.7c0.7-0.7,0.8-1.5,0.8-2.5h-3V6.6h5.3v7H30.4z"/>
		<path class="st0" d="M42.3,13.6l-5.5-8.8v8.8h-2.3V0.8h2.5l5.5,8.6V0.8h2.3v12.8H42.3z"/>
		<path class="st0" d="M50.7,7.7c-2.2,0-3.8-1.7-3.8-3.9S48.5,0,50.7,0c2.2,0,3.8,1.7,3.8,3.9C54.5,6,52.8,7.7,50.7,7.7z M50.7,0.7
			c-1.9,0-3.1,1.4-3.1,3.2S48.8,7,50.7,7c1.9,0,3.1-1.4,3.1-3.2C53.8,2,52.5,0.7,50.7,0.7z M51.5,5.8l-0.7-1.5h-0.8v1.5h-0.7v-4h1.5
			c0.8,0,1.4,0.4,1.4,1.3c0,0.5-0.2,0.9-0.7,1.2l0.7,1.6H51.5z M50.8,2.4h-0.8v1.2h0.8c0.4,0,0.7-0.2,0.7-0.6
			C51.5,2.6,51.2,2.4,50.8,2.4z"/>
		<path class="st0" d="M68.4,12.5c-0.8,0.8-2,1.4-3.4,1.4c-1.3,0-2.5-0.5-3.5-1.4c-1.4-1.4-1.6-3.2-1.6-5.3c0-2,0.2-3.9,1.6-5.3
			c0.9-0.9,2.2-1.4,3.5-1.4c1.4,0,2.6,0.5,3.4,1.3c0.7,0.8,1.2,1.7,1.3,2.9H68c0-0.7-0.3-1.3-0.7-1.8c-0.5-0.6-1.3-0.9-2.3-0.9
			c-0.9,0-1.7,0.3-2.3,1c-1,1.1-1.1,2.8-1.1,4.1c0,1.3,0,3.1,1.1,4.1c0.6,0.6,1.5,1,2.3,1c1,0,1.8-0.4,2.3-1
			c0.4-0.5,0.7-1.1,0.7-1.8h1.7C69.6,10.7,69.1,11.7,68.4,12.5z"/>
		<path class="st0" d="M78.1,12.7c-0.7,0.6-1.6,1.1-2.8,1.1s-2.1-0.4-2.8-1.1c-1-1-1.3-2.3-1.3-3.7s0.3-2.8,1.3-3.7
			c0.7-0.6,1.6-1.1,2.8-1.1s2.1,0.4,2.8,1.1c1,1,1.3,2.3,1.3,3.7S79.1,11.8,78.1,12.7z M77,6.2c-0.4-0.4-0.9-0.6-1.6-0.6
			s-1.3,0.3-1.6,0.6C73.1,6.9,72.9,8,72.9,9c0,1.1,0.2,2.2,0.8,2.8c0.4,0.4,0.9,0.6,1.6,0.6s1.3-0.3,1.6-0.6
			c0.6-0.7,0.8-1.8,0.8-2.8C77.9,8,77.7,6.9,77,6.2z"/>
		<path class="st0" d="M87.9,13.6V7.8c0-1.4-0.6-2.2-2-2.2c-0.9,0-1.6,0.6-2,1.4c-0.3,0.7-0.3,1.6-0.3,2.3v4.2h-1.5V4.5h1.3l0.1,1.4
			c0.5-1,1.7-1.6,2.8-1.6c2.1,0,3.2,1.2,3.2,3.3v6H87.9z"/>
		<path class="st0" d="M98.4,13.6V7.8c0-1.4-0.6-2.2-2-2.2c-0.9,0-1.6,0.6-2,1.4c-0.3,0.7-0.3,1.6-0.3,2.3v4.2h-1.5V4.5h1.3l0.1,1.4
			c0.5-1,1.7-1.6,2.8-1.6c2.1,0,3.2,1.2,3.2,3.3v6H98.4z"/>
		<path class="st0" d="M110.5,9.5H104c0,0.8,0.3,1.7,0.9,2.3c0.4,0.4,1,0.6,1.7,0.6c0.7,0,1.3-0.2,1.7-0.6c0.3-0.3,0.4-0.5,0.5-1
			h1.5c-0.1,0.9-0.7,1.7-1.4,2.2c-0.6,0.4-1.5,0.7-2.3,0.7c-1.3,0-2.3-0.5-3-1.4c-0.8-0.9-1.1-2.1-1.1-3.4c0-1.1,0.2-2.1,0.7-2.9
			c0.6-1.1,1.9-1.9,3.4-1.9c1.2,0,2.1,0.5,2.8,1.2c0.7,0.8,1.2,2,1.2,3.2L110.5,9.5z M108.3,6.4c-0.4-0.5-1-0.8-1.8-0.8
			c-1.7,0-2.5,1.3-2.5,2.7h4.9C108.9,7.5,108.7,6.8,108.3,6.4z"/>
		<path class="st0" d="M119.1,12.8c-0.6,0.6-1.5,1-2.6,1c-1.6,0-2.7-0.8-3.3-1.7c-0.5-0.7-0.8-1.7-0.8-3.1c0-1.4,0.3-2.4,0.8-3.1
			c0.6-1,1.7-1.7,3.3-1.7c1.1,0,2,0.4,2.6,1c0.6,0.6,1,1.4,1.1,2.3h-1.5c-0.1-0.6-0.3-1.1-0.6-1.4c-0.4-0.3-0.9-0.6-1.5-0.6
			c-0.7,0-1.2,0.3-1.6,0.6c-0.7,0.6-0.9,1.7-0.9,2.9c0,1.1,0.2,2.2,0.9,2.9c0.4,0.3,0.9,0.6,1.6,0.6c0.6,0,1.2-0.2,1.5-0.6
			c0.3-0.3,0.5-0.8,0.6-1.4h1.5C120,11.5,119.7,12.2,119.1,12.8z"/>
		<path class="st0" d="M125.4,13.7c-2,0-2.5-1.2-2.5-2.5V5.8h-1.8V4.5h1.8V2.1l1.5-0.4v2.7h2.7v1.3h-2.7v5.3c0,0.9,0.4,1.2,1.2,1.2
			c0.6,0,1.6-0.2,1.6-0.2v1.3C126.8,13.6,126.3,13.7,125.4,13.7z"/>
		<path class="st0" d="M133.7,13.6V0.8h1.6v11.3h6.1v1.5H133.7z"/>
		<path class="st0" d="M143.2,2.4V0.6h1.8v1.8H143.2z M143.3,13.6V4.5h1.6v9.1H143.3z"/>
		<path class="st0" d="M151.8,13.6h-1.7l-3.4-9.1h1.6l2.6,7.3l2.5-7.3h1.5L151.8,13.6z"/>
		<path class="st0" d="M164.2,9.5h-6.4c0,0.8,0.3,1.7,0.9,2.3c0.4,0.4,1,0.6,1.7,0.6c0.7,0,1.3-0.2,1.7-0.6c0.3-0.3,0.4-0.5,0.5-1
			h1.5c-0.1,0.9-0.7,1.7-1.4,2.2c-0.6,0.4-1.5,0.7-2.3,0.7c-1.3,0-2.3-0.5-3-1.4c-0.8-0.9-1.1-2.1-1.1-3.4c0-1.1,0.2-2.1,0.7-2.9
			c0.6-1.1,1.9-1.9,3.4-1.9c1.2,0,2.1,0.5,2.8,1.2c0.7,0.8,1.2,2,1.2,3.2L164.2,9.5z M162.1,6.4c-0.4-0.5-1-0.8-1.8-0.8
			c-1.7,0-2.5,1.3-2.5,2.7h4.9C162.7,7.5,162.5,6.8,162.1,6.4z"/>
		<path class="st0" d="M178.7,12.5c-0.9,0.9-2.3,1.3-3.6,1.3c-1.5,0-2.8-0.4-3.7-1.2c-0.8-0.8-1.4-1.9-1.4-3.1h1.7
			c0,0.8,0.4,1.5,0.9,2c0.6,0.6,1.5,0.8,2.4,0.8c1,0,1.8-0.2,2.4-0.7c0.4-0.4,0.6-0.8,0.6-1.5c0-1-0.6-1.8-2.1-2.1l-2-0.3
			c-1.9-0.3-3.4-1.3-3.4-3.4c0-1,0.4-1.9,1.1-2.5c0.9-0.8,2-1.3,3.3-1.3c1.2,0,2.5,0.4,3.3,1.2c0.8,0.7,1.2,1.7,1.2,2.7h-1.7
			c0-0.6-0.3-1.2-0.6-1.6c-0.5-0.6-1.3-0.9-2.2-0.9c-0.9,0-1.7,0.3-2.3,0.9c-0.3,0.4-0.5,0.8-0.5,1.4c0,1.2,1,1.7,1.9,1.8
			c0.7,0.1,1.4,0.2,2.1,0.3c2.1,0.3,3.5,1.6,3.5,3.6C179.8,11.1,179.3,11.9,178.7,12.5z"/>
		<path class="st0" d="M188.2,13.6V7.8c0-1.4-0.6-2.2-2-2.2c-0.9,0-1.6,0.6-2,1.4c-0.3,0.7-0.3,1.6-0.3,2.3v4.2h-1.5v-13h1.5v5.1
			c0.5-0.9,1.6-1.4,2.7-1.4c2.1,0,3.2,1.2,3.2,3.3v6H188.2z"/>
		<path class="st0" d="M199.6,13.7c-0.8,0-1.3-0.6-1.3-1.4h0c-0.5,0.9-1.7,1.5-2.9,1.5c-2.1,0-3.1-1.4-3.1-2.8
			c0-1.2,0.8-2.7,3.2-2.8l2.8-0.2V7.3c0-0.5-0.1-1-0.5-1.4c-0.3-0.3-0.8-0.5-1.5-0.5c-0.8,0-1.4,0.2-1.7,0.5
			c-0.3,0.3-0.5,0.6-0.5,1.1h-1.5c0-0.8,0.3-1.4,0.8-1.9c0.6-0.6,1.7-1,2.8-1c1.8,0,2.8,0.8,3.2,1.7c0.2,0.4,0.3,0.9,0.3,1.4v4.4
			c0,0.5,0.2,0.6,0.5,0.6c0.2,0,0.4-0.1,0.4-0.1v1.1C200.2,13.6,199.9,13.7,199.6,13.7z M198.1,9.2l-2.4,0.1c-0.9,0.1-2,0.5-2,1.6
			c0,0.8,0.5,1.6,1.8,1.6c0.7,0,1.4-0.2,1.9-0.7c0.5-0.6,0.8-1.3,0.8-2.1V9.2z"/>
		<path class="st0" d="M207.1,5.9c-0.7,0-1.3,0.3-1.7,0.7c-0.7,0.7-0.8,2-0.8,2.9v4.1H203V4.5h1.3l0.1,1.6c0.5-1.1,1.6-1.7,2.7-1.7
			c0.2,0,0.5,0,0.7,0.1V6C207.6,5.9,207.3,5.9,207.1,5.9z"/>
		<path class="st0" d="M217,9.5h-6.4c0,0.8,0.3,1.7,0.9,2.3c0.4,0.4,1,0.6,1.7,0.6c0.7,0,1.3-0.2,1.7-0.6c0.3-0.3,0.4-0.5,0.5-1h1.5
			c-0.1,0.9-0.7,1.7-1.4,2.2c-0.6,0.4-1.5,0.7-2.3,0.7c-1.3,0-2.3-0.5-3-1.4c-0.8-0.9-1.1-2.1-1.1-3.4c0-1.1,0.2-2.1,0.7-2.9
			c0.6-1.1,1.9-1.9,3.4-1.9c1.2,0,2.1,0.5,2.8,1.2c0.7,0.8,1.2,2,1.2,3.2L217,9.5z M214.9,6.4c-0.4-0.5-1-0.8-1.8-0.8
			c-1.7,0-2.5,1.3-2.5,2.7h4.9C215.5,7.5,215.3,6.8,214.9,6.4z"/>
	</g>
</g>
</svg>
