<svg id="Layer_1" data-name="Layer 1" xmlns="http://www.w3.org/2000/svg" viewBox="0 0 19.69 20.22"><defs><style>.cls-1{fill:#fff;}</style></defs><path class="cls-1" d="M16.24,13.87V10A2.07,2.07,0,0,0,14.16,7.9h-4Z"/><path class="cls-1" d="M10.17,13.8l-.14.11v1.57a.71.71,0,0,1-.72.67.7.7,0,0,1-.66-.67V13.91A1.38,1.38,0,0,1,8.14,12l.09-.13-4-4a2.06,2.06,0,0,0-1.75,2v6.9a2.07,2.07,0,0,0,2.07,2.06h9.66a2,2,0,0,0,1-.25Z"/><path class="cls-1" d="M6.66,4.47a2.56,2.56,0,0,1,2.68-2.4c2.49,0,2.76,2.37,2.76,3.39v.75h2.06V5.46C14.16,2.14,12.27,0,9.34,0A4.46,4.46,0,0,0,5,2.85Z"/><path class="cls-1" d="M18.94,20.22a.74.74,0,0,1-.53-.22L.22,2.14a.75.75,0,0,1,0-1.06.77.77,0,0,1,1.07,0L19.46,18.93a.75.75,0,0,1,0,1.06A.74.74,0,0,1,18.94,20.22Z"/></svg>