<svg xmlns="http://www.w3.org/2000/svg" width="13.794" height="18.933" viewBox="0 0 13.794 18.933"><defs><style>.a{fill:#fff;}</style></defs><g transform="translate(-493 -710.034)"><g transform="translate(-807.328 183.021)"><path class="a" d="M1305.859,534.22h2.069v-.746c0-1.266.359-3.391,2.76-3.391,2.49,0,2.759,2.372,2.759,3.391v.746h2.069v-.746c0-3.317-1.894-5.461-4.827-5.461s-4.828,2.144-4.828,5.461Z" transform="translate(-3.462 -1)"/></g><path class="a" d="M1315.053,536.449H1305.4a2.069,2.069,0,0,0-2.069,2.069v6.9a2.07,2.07,0,0,0,2.069,2.069h9.656a2.07,2.07,0,0,0,2.069-2.069v-6.9A2.07,2.07,0,0,0,1315.053,536.449Zm-4.138,6.016v1.571a.69.69,0,0,1-1.379,0v-1.571a1.379,1.379,0,1,1,1.379,0Z" transform="translate(-810.328 181.482)"/></g></svg>