<svg xmlns="http://www.w3.org/2000/svg" width="18.711" height="18.711" viewBox="0 0 18.711 18.711"><defs><style>.a{fill:#afafaf;}</style></defs><path class="a" d="M374.649,286.664l-3.363-3.363a1.315,1.315,0,0,0-1.553-.219l-.649-.649a7.157,7.157,0,1,0-1.176,1.177l.649.648a1.314,1.314,0,0,0,.219,1.553l3.363,3.363a1.33,1.33,0,0,0,1.882,0l.628-.627A1.333,1.333,0,0,0,374.649,286.664Zm-17-8.661a5.828,5.828,0,1,1,5.828,5.828A5.827,5.827,0,0,1,357.65,278Z" transform="translate(-356.327 -270.853)"/></svg>