<svg xmlns="http://www.w3.org/2000/svg" width="40.811" height="42" viewBox="0 0 40.811 42"><g transform="translate(-121.628 -579.305)"><path d="M145.12,597.968c1.062,1.061,1.945,1.895.884,2.958l-19.581,19.583a2.718,2.718,0,0,1-3.843,0h0a2.718,2.718,0,0,1,0-3.843l19.583-19.582c1.061-1.061,1.9-.177,2.957.884Z"/><path d="M124.058,608.768c1.061-1.063,1.9-1.946,2.957-.885l4.028,4.024c1.057,1.061.6,2.326-.457,3.387l-1.116,1.018c-1.061,1.059-2.277,1.565-3.338.5l-4.025-4.025c-1.061-1.062-.178-1.9.885-2.957Z"/><path d="M151.662,603.631a13.348,13.348,0,0,1-9.274-4.274,13.9,13.9,0,0,1-4.222-8.215,10.366,10.366,0,0,1,3.211-8.575,10.5,10.5,0,0,1,7.511-3.262,13.349,13.349,0,0,1,9.277,4.273,13.878,13.878,0,0,1,4.218,8.214,10.345,10.345,0,0,1-3.209,8.573A10.509,10.509,0,0,1,151.662,603.631Zm-2.688-20.894a7.745,7.745,0,0,0-7.39,8.152,10.36,10.36,0,0,0,3.188,6.082,9.881,9.881,0,0,0,6.806,3.224,7.74,7.74,0,0,0,7.389-8.151,10.365,10.365,0,0,0-3.186-6.08A9.891,9.891,0,0,0,148.974,582.737Z"/></g></svg>