<svg xmlns="http://www.w3.org/2000/svg" xmlns:xlink="http://www.w3.org/1999/xlink" width="341.115" height="195.115" viewBox="0 0 341.115 195.115"><defs><style>.a,.g{fill:#fff;}.a{stroke:#bcbcbc;stroke-miterlimit:10;stroke-width:1.115px;}.b{fill:url(#a);}.c{fill:#fb8f3e;}.d{fill:#5588f2;}.e{fill:#4dcaab;}.f{fill:#295ca1;}</style><linearGradient id="a" y1="0.5" x2="1" y2="0.5" gradientUnits="objectBoundingBox"><stop offset="0" stop-color="#e6e6e6"/><stop offset="1" stop-color="#d1d1d1"/></linearGradient></defs><g transform="translate(-1105.443 -435.443)"><g transform="translate(1106 436)"><rect class="a" width="340" height="194"/><g transform="translate(18.189 23.453)"><g transform="translate(57.65 9.354)"><rect class="b" width="98.114" height="24.021" transform="translate(0.162)"/><rect class="b" width="59.847" height="24.021" transform="translate(112.162)"/><rect class="c" width="59.847" height="24.021" transform="translate(186.161)"/></g><g transform="translate(57.65 61.87)"><rect class="b" width="98.114" height="24.021" transform="translate(0.162)"/><rect class="b" width="59.847" height="24.021" transform="translate(112.162)"/><rect class="d" width="59.847" height="24.021" transform="translate(186.161)"/></g><g transform="translate(57.65 114.386)"><rect class="b" width="98.114" height="24.021" transform="translate(0.162)"/><rect class="b" width="59.847" height="24.021" transform="translate(112.162)"/><rect class="e" width="59.847" height="24.021" transform="translate(186.161)"/></g><circle class="f" cx="20.437" cy="20.437" r="20.437"/><path class="g" d="M1534.85,732.276l-10.609-10.166,3.069-3.2,7.558,7.243,16.413-15.548,3.051,3.22Z" transform="translate(-1518.915 -699.359)"/><g transform="translate(0 53.016)"><circle class="f" cx="20.437" cy="20.437" r="20.437"/><path class="g" d="M1534.85,785.276l-10.609-10.166,3.069-3.2,7.558,7.243,16.413-15.548,3.051,3.22Z" transform="translate(-1518.915 -752.359)"/></g><g transform="translate(0 105.532)"><circle class="f" cx="20.437" cy="20.437" r="20.437"/><path class="g" d="M1534.85,837.776l-10.609-10.166,3.069-3.2,7.558,7.243,16.413-15.548,3.051,3.22Z" transform="translate(-1518.915 -804.859)"/></g></g></g></g></svg>