<svg xmlns="http://www.w3.org/2000/svg" width="70" height="70" viewBox="0 0 70 70"><defs><style>.a{fill:#c1d9eb;}.b{fill:#295c9c;}</style></defs><g transform="translate(-51.032 -404.826)"><circle class="a" cx="35" cy="35" r="35" transform="translate(51.032 404.826)"/><g transform="translate(0 1)"><ellipse class="b" cx="10.183" cy="10.066" rx="10.183" ry="10.066" transform="translate(75.886 420.565)"/><path class="b" d="M103.014,457.18c.112-2.921-.237-6.92-3.362-9.48a4.172,4.172,0,0,0-.772-.616c-.376-.223-.775-.432-1.188-.631a20.651,20.651,0,0,0-7.722-1.963c-.151-.012-.3-.03-.45-.039-.217-.012-.438-.012-.657-.019-.289-.01-.575-.026-.868-.026H84.068c-.292,0-.578.016-.867.026-.219.007-.441.007-.657.019-.152.009-.3.027-.45.039a20.651,20.651,0,0,0-7.723,1.963c-.412.2-.811.408-1.187.631a4.14,4.14,0,0,0-.772.616c-3.125,2.56-3.474,6.559-3.362,9.48a10.892,10.892,0,0,0,.008,1.385H103A10.7,10.7,0,0,0,103.014,457.18Z"/></g></g></svg>