<svg xmlns="http://www.w3.org/2000/svg" width="19.97" height="20" viewBox="0 0 19.97 20">
  <g id="collapse_screen" transform="translate(-0.02)">
    <path id="Path_219" data-name="Path 219" d="M8.1,13.4a.52.52,0,0,1,.32.16.51.51,0,0,1,.15.31,22.82,22.82,0,0,1-.24,5.56.55.55,0,0,1-.37.41.52.52,0,0,1-.53-.14L6.11,18.38C5.14,19.07,3.17,21,2.94,21a1.92,1.92,0,0,1-1.31-.64A1.74,1.74,0,0,1,1,19.09c0-.23,1.87-2.25,2.56-3.22L2.27,14.55A.54.54,0,0,1,2.14,14a.55.55,0,0,1,.41-.37A23.3,23.3,0,0,1,8.1,13.4Z" transform="translate(-0.98 -1)" fill="#adadad"/>
    <path id="Path_220" data-name="Path 220" d="M8.57,8.13a.51.51,0,0,1-.15.31.55.55,0,0,1-.32.16,23.3,23.3,0,0,1-5.55-.24.54.54,0,0,1-.28-.91L3.59,6.13C2.9,5.16,1,3.2,1,3a1.94,1.94,0,0,1,.64-1.32A1.74,1.74,0,0,1,2.9,1.09c.24,0,2.26,1.87,3.22,2.56L7.43,2.3a.53.53,0,0,1,.9.27,22.82,22.82,0,0,1,.24,5.56Z" transform="translate(-0.98 -1)" fill="#adadad"/>
    <path id="Path_221" data-name="Path 221" d="M13.85,8.6a.52.52,0,0,1-.32-.16.51.51,0,0,1-.15-.31,22.82,22.82,0,0,1,.24-5.56A.55.55,0,0,1,14,2.16a.52.52,0,0,1,.53.14l1.33,1.32C16.81,2.93,18.78,1,19,1a1.92,1.92,0,0,1,1.31.64A1.74,1.74,0,0,1,20.9,2.9c0,.23-1.87,2.25-2.56,3.22l1.33,1.32a.54.54,0,0,1,.13.54.55.55,0,0,1-.41.37,23.3,23.3,0,0,1-5.54.25Z" transform="translate(-0.98 -1)" fill="#adadad"/>
    <path id="Path_222" data-name="Path 222" d="M13.38,13.87a.51.51,0,0,1,.15-.31.55.55,0,0,1,.32-.16,23.3,23.3,0,0,1,5.55.24.54.54,0,0,1,.28.91l-1.32,1.32c.69,1,2.57,2.93,2.61,3.16a1.94,1.94,0,0,1-.64,1.32,1.74,1.74,0,0,1-1.26.59c-.24,0-2.26-1.87-3.22-2.56L14.52,19.7a.53.53,0,0,1-.9-.27,22.82,22.82,0,0,1-.24-5.56Z" transform="translate(-0.98 -1)" fill="#adadad"/>
  </g>
</svg>
