<svg xmlns="http://www.w3.org/2000/svg" width="67" height="70" viewBox="0 0 67 70"><defs><style>.a{fill:#c1d9eb;}.b{fill:#295c9c;}</style></defs><g transform="translate(-275.877 -404.826)"><ellipse class="a" cx="33.5" cy="35" rx="33.5" ry="35" transform="translate(275.877 404.826)"/><g transform="translate(0 1)"><rect class="b" width="4.239" height="4.752" transform="translate(292.255 447.014)"/><rect class="b" width="4.239" height="4.752" transform="translate(292.255 440.892)"/><path class="b" d="M317.826,421.593H301.988a3.435,3.435,0,0,0-3.418,3.453v30.375c0,.057.014.108.016.164l22.64.008c0-.054.016-.107.016-.163V425.046A3.436,3.436,0,0,0,317.826,421.593Zm-12.072,30.965h-4.239v-4.91h4.239Zm0-6.823h-4.239v-4.909h4.239Zm0-6.824h-4.239V434h4.239Zm0-6.822h-4.239v-4.91h4.239Zm6.27,20.469h-4.239v-4.91h4.239Zm0-6.823h-4.239v-4.909h4.239Zm0-6.824h-4.239V434h4.239Zm0-6.822h-4.239v-4.91h4.239Zm6.273,20.469h-4.239v-4.91H318.3Zm0-6.823h-4.239v-4.909H318.3Zm0-6.824h-4.239V434H318.3Zm0-6.822h-4.239v-4.91H318.3Z"/><rect class="b" width="3.903" height="4.325" transform="translate(323.343 435.422)"/><rect class="b" width="3.903" height="4.325" transform="translate(323.343 441.431)"/><rect class="b" width="3.903" height="4.325" transform="translate(323.343 447.441)"/><path class="b" d="M332.553,432.68l-5.788-5.422h-3.438v6.4h6.431a.915.915,0,0,1,.064.318v19.364h-6.479v2.248h8.35V433.971a2.855,2.855,0,0,0-.032-.318h.89Z"/><path class="b" d="M295.289,434.022v-2.8h-2.647v2.8h-2.716a.828.828,0,0,0-.676.348l-2.54,3.564a.845.845,0,0,0,.187,1.172.819.819,0,0,0,.488.159H288.6a2.86,2.86,0,0,0-.092.682v15.644h7.98v-2.254h-6.107v-13.4a.941.941,0,0,1,.295-.682h5.81v-5.237Z"/></g></g></svg>