<?xml version="1.0" encoding="utf-8"?>
<!-- Generator: Adobe Illustrator 23.0.6, SVG Export Plug-In . SVG Version: 6.00 Build 0)  -->
<svg version="1.1" id="Layer_2" xmlns="http://www.w3.org/2000/svg" xmlns:xlink="http://www.w3.org/1999/xlink" x="0px" y="0px"
	 viewBox="0 0 1280 700" style="enable-background:new 0 0 1280 700;" xml:space="preserve">
<style type="text/css">
	.st0{opacity:0.75;}
	.st1{fill:#F4D4B5;}
	.st2{fill:#FFFFFF;}
	.st3{fill:#F1FFEC;}
	.st4{fill:#DFF1C9;}
	.st5{fill:#BEF18F;}
	.st6{fill-rule:evenodd;clip-rule:evenodd;fill:#BEF18F;}
	.st7{fill:#E1FFB6;}
	.st8{fill:#B4E77A;}
	.st9{fill:#59595C;}
	.st10{opacity:0;}
</style>
<g class="st0">
	<polygon class="st1" points="512.2,638 521.3,629 521.3,621.1 504.4,638 	"/>
	<rect class="st2" width="1280" height="700"/>
	<g>
		<polygon class="st3" points="157.8,624.3 157.8,458.1 180.3,458.1 180.3,448.2 202.5,448.2 202.5,458.2 219.9,458.2 219.9,409.1 
			291.9,409.1 291.9,443.2 325.7,443.2 325.7,381.6 354.8,381.6 377.3,359.1 411.5,359.1 411.5,418.2 463.1,418.2 463.1,397 
			565.6,397 565.6,412.4 598.9,412.4 598.9,359.1 683,359.1 683,414.9 705.5,414.9 705.5,389 727.2,389 727.2,399.9 762.1,399.9 
			762.1,362.4 813.6,362.4 813.6,386.5 881.2,386.5 881.2,368.2 893.7,368.2 893.7,339.9 958.7,339.9 958.7,382.4 992,382.4 
			992,404.9 1023.7,404.9 1023.7,394.9 1069.3,394.9 1069.3,448.2 1114.4,448.2 1114.4,624.8 		"/>
		<polygon class="st4" points="826,386.9 811.5,401.5 811.5,409.3 833.9,386.9 		"/>
		<polygon class="st4" points="811.5,386.9 811.5,392.6 817.2,386.9 		"/>
		<polygon class="st4" points="859.5,386.9 811.5,434.9 811.5,442.8 867.3,386.9 		"/>
		<polygon class="st4" points="905.1,624.3 906.6,624.3 906.6,622.7 		"/>
		<polygon class="st4" points="906.6,557.2 839.5,624.3 847.4,624.3 906.6,565 		"/>
		<polygon class="st4" points="906.6,540.4 822.8,624.3 830.6,624.3 906.6,548.3 		"/>
		<polygon class="st4" points="906.6,589.3 871.6,624.3 879.5,624.3 906.6,597.1 		"/>
		<polygon class="st4" points="906.6,606 888.4,624.3 896.2,624.3 906.6,613.9 		"/>
		<polygon class="st4" points="906.6,573.9 856.2,624.3 864.1,624.3 906.6,581.7 		"/>
		<polygon class="st4" points="876.2,386.9 811.5,451.6 811.5,459.5 884,386.9 		"/>
		<polygon class="st4" points="842.8,386.9 811.5,418.2 811.5,426 850.6,386.9 		"/>
		<polygon class="st4" points="892.9,386.9 811.5,468.4 811.5,476.2 900.8,386.9 		"/>
		<polygon class="st4" points="906.6,490.3 811.5,585.4 811.5,593.3 906.6,498.1 		"/>
		<polygon class="st4" points="906.6,473.5 811.5,568.7 811.5,576.5 906.6,481.4 		"/>
		<polygon class="st4" points="906.6,507 811.5,602.1 811.5,610 906.6,514.8 		"/>
		<polygon class="st4" points="813.9,624.3 906.6,531.6 906.6,523.7 811.5,618.9 811.5,624.3 		"/>
		<polygon class="st4" points="906.6,456.8 811.5,552 811.5,559.8 906.6,464.7 		"/>
		<polygon class="st4" points="906.6,406.6 811.5,501.8 811.5,509.7 906.6,414.5 		"/>
		<polygon class="st4" points="906.6,389.9 811.5,485.1 811.5,492.9 906.6,397.8 		"/>
		<polygon class="st4" points="906.6,440.1 811.5,535.3 811.5,543.1 906.6,447.9 		"/>
		<polygon class="st4" points="906.6,423.4 811.5,518.5 811.5,526.4 906.6,431.2 		"/>
		<polygon class="st4" points="586.6,615.5 577.8,624.3 585.7,624.3 586.6,623.4 		"/>
		<polygon class="st4" points="491.4,396.4 491.4,402.1 497.1,396.4 		"/>
		<polygon class="st4" points="522.7,396.4 491.4,427.7 491.4,435.5 530.6,396.4 		"/>
		<polygon class="st4" points="539.4,396.4 491.4,444.4 491.4,452.3 547.3,396.4 		"/>
		<polygon class="st4" points="506,396.4 491.4,411 491.4,418.8 513.8,396.4 		"/>
		<polygon class="st4" points="586.6,533.2 495.5,624.3 503.4,624.3 586.6,541.1 		"/>
		<polygon class="st4" points="586.6,549.9 512.2,624.3 520.1,624.3 586.6,557.8 		"/>
		<polygon class="st4" points="586.6,598.8 561.1,624.3 568.9,624.3 586.6,606.6 		"/>
		<polygon class="st4" points="586.6,583.4 545.7,624.3 553.5,624.3 586.6,591.2 		"/>
		<polygon class="st4" points="586.6,566.7 529,624.3 536.8,624.3 586.6,574.5 		"/>
		<polygon class="st4" points="586.6,516.5 491.4,611.6 491.4,619.5 586.6,524.3 		"/>
		<polygon class="st4" points="586.6,466.3 491.4,561.5 491.4,569.3 586.6,474.2 		"/>
		<polygon class="st4" points="586.6,483 491.4,578.2 491.4,586 586.6,490.9 		"/>
		<polygon class="st4" points="586.6,499.8 491.4,594.9 491.4,602.8 586.6,507.6 		"/>
		<polygon class="st4" points="586.6,449.6 491.4,544.7 491.4,552.6 586.6,457.4 		"/>
		<polygon class="st4" points="572.9,396.4 491.4,477.9 491.4,485.7 580.7,396.4 		"/>
		<polygon class="st4" points="586.6,432.9 491.4,528 491.4,535.9 586.6,440.7 		"/>
		<polygon class="st4" points="556.2,396.4 491.4,461.1 491.4,469 564,396.4 		"/>
		<polygon class="st4" points="586.6,399.4 491.4,494.6 491.4,502.4 586.6,407.3 		"/>
		<polygon class="st4" points="586.6,416.1 491.4,511.3 491.4,519.1 586.6,424 		"/>
		<polygon class="st4" points="223.2,408.3 223.2,414 228.9,408.3 		"/>
		<polygon class="st4" points="237.8,408.3 223.2,422.8 223.2,430.7 245.6,408.3 		"/>
		<polygon class="st4" points="254.5,408.3 223.2,439.6 223.2,447.4 262.3,408.3 		"/>
		<polygon class="st4" points="271.2,408.3 223.2,456.3 223.2,464.1 279.1,408.3 		"/>
		<polygon class="st4" points="318.4,610.7 304.7,624.3 312.6,624.3 318.4,618.5 		"/>
		<polygon class="st4" points="287.9,408.3 223.2,473 223.2,480.8 295.8,408.3 		"/>
		<polygon class="st4" points="318.4,595.2 289.3,624.3 297.2,624.3 318.4,603.1 		"/>
		<polygon class="st4" points="318.4,578.5 272.6,624.3 280.4,624.3 318.4,586.4 		"/>
		<polygon class="st4" points="318.4,545.1 239.1,624.3 247,624.3 318.4,552.9 		"/>
		<polygon class="st4" points="318.4,561.8 255.9,624.3 263.7,624.3 318.4,569.7 		"/>
		<polygon class="st4" points="318.4,511.6 223.2,606.8 223.2,614.6 318.4,519.5 		"/>
		<polygon class="st4" points="318.4,494.9 223.2,590.1 223.2,597.9 318.4,502.8 		"/>
		<polygon class="st4" points="318.4,478.2 223.2,573.3 223.2,581.2 318.4,486 		"/>
		<polygon class="st4" points="230.3,624.3 318.4,536.2 318.4,528.4 223.2,623.5 223.2,624.3 		"/>
		<polygon class="st4" points="318.4,461.5 223.2,556.6 223.2,564.5 318.4,469.3 		"/>
		<polygon class="st4" points="318.4,428 223.2,523.2 223.2,531 318.4,435.9 		"/>
		<polygon class="st4" points="318.4,411.3 223.2,506.4 223.2,514.3 318.4,419.1 		"/>
		<polygon class="st4" points="318.4,444.7 223.2,539.9 223.2,547.7 318.4,452.6 		"/>
		<polygon class="st4" points="304.7,408.3 223.2,489.7 223.2,497.6 312.5,408.3 		"/>
		<g>
			<rect x="868.2" y="172" class="st5" width="11.2" height="2.6"/>
		</g>
		<g>
			<rect x="771.4" y="172" class="st5" width="85.2" height="2.6"/>
		</g>
		<g>
			<rect x="828.6" y="155.7" class="st5" width="86" height="2.6"/>
		</g>
		<g>
			<path class="st5" d="M526.1,206.4H460v-1.3c0-8.2,6.7-14.9,14.9-14.9c4.8,0,9.2,2.3,12,6.1c3.4-7.2,10.6-11.9,18.7-11.9
				c11.4,0,20.6,9.3,20.6,20.6V206.4z M462.6,203.8h60.9c-0.7-9.4-8.5-16.8-18-16.8c-7.9,0-14.8,5.1-17.2,12.6l-1,3.1l-1.4-2.9
				c-2.1-4.3-6.3-7-11.1-7C468.5,192.8,463.2,197.7,462.6,203.8z"/>
		</g>
		<g>
			<path class="st5" d="M1076.3,255H888.9l-0.2-1.1c-0.3-1.5-0.4-3-0.4-4.5c0-13.9,11.3-25.2,25.2-25.2c0.7,0,1.5,0,2.2,0.1
				c2.5-15.2,15.8-26.6,31.4-26.6c13.6,0,25.8,8.8,30.2,21.6c1.8-0.4,3.6-0.5,5.5-0.5c9.8,0,18.8,5.1,23.8,13.4c2.9-1.3,6-2,9.1-2
				c5.5,0,10.7,2,14.7,5.6c4.6-7.3,12.6-11.7,21.3-11.7c13.9,0,25.2,11.3,25.2,25.2c0,1.5-0.1,3-0.4,4.5L1076.3,255z M891.1,252.5
				h183c0.1-1,0.2-2,0.2-3c0-12.5-10.1-22.6-22.6-22.6c-8.3,0-15.9,4.5-19.9,11.8l-0.8,1.5l-1.2-1.3c-3.7-3.9-8.7-6-14.1-6
				c-3.2,0-6.2,0.7-9,2.2l-1.1,0.6l-0.6-1.1c-4.4-8.1-13-13.2-22.2-13.2c-2,0-4.1,0.2-6,0.7l-1.2,0.3l-0.3-1.2
				c-3.7-12.3-15.2-20.9-28.1-20.9c-14.7,0-27.2,11-29,25.6l-0.2,1.3l-1.3-0.2c-1.1-0.1-2.1-0.2-3.1-0.2
				c-12.5,0-22.6,10.1-22.6,22.6C890.9,250.4,891,251.5,891.1,252.5z"/>
		</g>
		<g>
			<path class="st5" d="M321.7,243.3H196.8V242c0-13.3,10.8-24,24-24c5,0,10,1.6,14.1,4.6c5.2-7.2,13.4-11.5,22.3-11.5
				c10.2,0,19.6,5.7,24.3,14.7c4.5-4.9,10.8-7.7,17.6-7.7c13.2,0,24,10.8,24,24v1.3L321.7,243.3z M199.4,240.7h121
				c-0.6-11.2-10-20.2-21.4-20.2c-6.6,0-12.8,3-16.9,8.3l-1.3,1.7l-0.9-2c-4-9.1-12.9-14.9-22.8-14.9c-8.5,0-16.3,4.3-20.9,11.5
				l-0.8,1.2l-1.1-0.9c-3.8-3.1-8.6-4.8-13.5-4.8C209.4,220.6,200.1,229.5,199.4,240.7z"/>
		</g>
		<g>
			<path class="st5" d="M820,159.9h-77.3v-1.3c0-14.3,11.6-25.9,25.9-25.9c8.5,0,16.4,4.1,21.2,11.1c3.3-2.5,7.3-3.9,11.5-3.9
				c10.3,0,18.7,8.4,18.7,18.7V159.9z M745.3,157.3h72.1c-0.7-8.3-7.6-14.9-16.1-14.9c-4,0-7.9,1.5-10.9,4.2l-1.1,1l-0.8-1.3
				c-4.3-7-11.7-11.1-19.9-11.1C756.1,135.2,745.9,145,745.3,157.3z"/>
		</g>
		<g>
			<path class="st5" d="M955.7,174.4l-1.1-2.1c-0.1-0.1-0.1-0.2-0.2-0.4c-0.7-1.4-2.6-5.3-8.3-7.1l0.8-2.4c4.9,1.6,7.5,4.5,8.8,6.6
				c0.4-0.8,3-4.7,8.8-6.6l0.8,2.4c-5.2,1.7-7.3,5.3-7.4,5.4L955.7,174.4z"/>
		</g>
		<g>
			<path class="st5" d="M828.6,235.5l-1.1-2.1c0-0.1-0.1-0.2-0.2-0.3c-0.6-1.2-2.2-4.3-6.8-5.8l0.8-2.4c4,1.3,6.1,3.6,7.3,5.3
				c0.7-1,2.9-3.9,7.3-5.3l0.8,2.4c-4.3,1.4-6,4.4-6.1,4.5L828.6,235.5z"/>
		</g>
		<g>
			<path class="st5" d="M395.7,238.8l-1.1-2.1c0-0.1-0.1-0.2-0.2-0.3c-0.6-1.2-2.2-4.3-6.8-5.8l0.8-2.4c4,1.3,6.1,3.6,7.3,5.3
				c0.7-1,2.9-3.9,7.3-5.3l0.8,2.4c-4.3,1.4-6,4.4-6.1,4.5L395.7,238.8z"/>
		</g>
		<g>
			<path class="st5" d="M998.8,194.3l-1.1-2.1c0-0.1-0.1-0.2-0.1-0.3c-0.5-0.9-1.7-3.4-5.3-4.6l0.8-2.4c3,1,4.8,2.7,5.8,4.1
				c0.7-1,2.5-3,5.8-4.1l0.8,2.4c-3.4,1.1-4.7,3.4-4.7,3.5L998.8,194.3z"/>
		</g>
		<g>
			<path class="st5" d="M519.2,141l-1.1-2.1c0-0.1-0.1-0.2-0.2-0.3c-0.6-1.2-2.2-4.4-6.9-5.9l0.8-2.4c4,1.3,6.2,3.7,7.4,5.4
				c0.7-1,2.9-4,7.5-5.4l0.8,2.4c-4.4,1.4-6.2,4.5-6.2,4.5L519.2,141z"/>
		</g>
		<g>
			<path class="st5" d="M484,129l-1.1-1.7c-0.1-0.1-0.1-0.2-0.2-0.3c-0.6-1.1-1.6-2.7-4.8-3.6l0.7-2.5c3,0.8,4.5,2.2,5.5,3.4
				c1-1.2,2.5-2.6,5.4-3.4l0.7,2.5c-3.1,0.9-4.1,2.4-4.9,3.6L484,129z"/>
		</g>
		<path class="st6" d="M415,155.7L415,155.7c1.2-1.6,0.6-3.4-2.7-4.1h0l0,0c0,0,0,0,0,0c0,0,0,0,0,0l0,0c-0.1-0.1-0.1-0.2-0.2-0.3
			c0,0,0,0,0,0c-0.1-0.1-0.1-0.1-0.2-0.2c0,0-0.1-0.1-0.1-0.1c0,0,0,0,0,0c0,0,0,0,0,0c-0.1-0.1-0.1-0.1-0.2-0.2
			c0,0-0.1-0.1-0.1-0.1c-0.1-0.1-0.1-0.1-0.2-0.2c0,0-0.1-0.1-0.1-0.1c0,0,0,0,0,0h0c0,0,0,0,0,0c-0.1-0.1-0.1-0.1-0.2-0.2
			c0,0-0.1-0.1-0.1-0.1c-0.1-0.1-0.1-0.1-0.2-0.2c0,0-0.1-0.1-0.1-0.1c-0.1-0.1-0.1-0.1-0.2-0.2c-0.1,0-0.1-0.1-0.2-0.1
			c-0.1-0.1-0.1-0.1-0.2-0.1c-0.1,0-0.1-0.1-0.2-0.1c-0.1,0-0.2-0.1-0.2-0.1c-0.1,0-0.1-0.1-0.2-0.1c-0.1,0-0.2-0.1-0.2-0.1
			c-0.1,0-0.1-0.1-0.2-0.1c-0.1,0-0.2-0.1-0.3-0.1c-0.1,0-0.1-0.1-0.2-0.1c-0.1,0-0.2-0.1-0.3-0.1c-0.1,0-0.1,0-0.2-0.1
			c-0.1,0-0.2,0-0.3-0.1c-0.1,0-0.2,0-0.3-0.1c-0.1,0-0.2,0-0.3-0.1c-0.1,0-0.2,0-0.3,0c-0.1,0-0.3,0-0.4,0c-0.1,0-0.2,0-0.3,0
			c-0.2,0-0.5,0-0.7,0l-32.7,0l-2.8-3.4h-0.7h-0.9l1.4,3.4l-7.8,0l-7.4-3.7l-5.9-7.6l0,0h-2.5h-4.5l5.2,11.3h0.3h-0.3l0,0h0
			l-3.2,1.3l0,0l-2.7,0l1.1,0.7l-1.6,0.6v2.3c5.6,1.6,9.8,2.8,13.1,3.7c3,0.9,4.9,1.4,7,1.8c1.7,0.4,3,0.5,4.2,0.5h1.8
			c5.5,0.2,14.7,0,34.2,0c2.3,0,7.9,0.1,11.4-1.1c0.2-0.1,0.3-0.1,0.5-0.2c0,0,0.1,0,0.1-0.1c0.1-0.1,0.2-0.1,0.4-0.2
			c0,0,0.1,0,0.1-0.1c0.1-0.1,0.3-0.1,0.4-0.2c0,0,0,0,0.1,0c0.1-0.1,0.2-0.1,0.3-0.2c0,0,0.1,0,0.1-0.1c0.1-0.1,0.2-0.1,0.3-0.2
			c0,0,0,0,0.1,0c0.1-0.1,0.2-0.2,0.3-0.3c0,0,0,0,0.1-0.1c0.1-0.1,0.2-0.1,0.2-0.2c0,0,0,0,0.1-0.1
			C414.9,155.9,415,155.8,415,155.7C415,155.7,415,155.7,415,155.7z"/>
		<g>
			<rect x="310.7" y="160.7" class="st5" width="36.7" height="2.6"/>
		</g>
		<g>
			<rect x="296" y="160.7" class="st5" width="7.3" height="2.6"/>
		</g>
		<g>
			<rect x="251.6" y="151.9" class="st5" width="68.9" height="2.6"/>
		</g>
		<g>
			<rect x="236.9" y="151.9" class="st5" width="7.3" height="2.6"/>
		</g>
	</g>
	<g>
		<path class="st7" d="M1094.4,412c-3.2,1.5-4.5,5.4-3,8.6l11.5-5.6C1101.4,411.7,1097.6,410.4,1094.4,412z"/>
		<path class="st7" d="M156.6,416.6c-3.2,1.5-4.5,5.4-3,8.6l11.5-5.6C163.6,416.4,159.8,415.1,156.6,416.6z"/>
		<path class="st7" d="M1178.3,530.5c-3.3-1.2-7,0.6-8.1,4l12.1,4.2C1183.4,535.3,1181.7,531.6,1178.3,530.5z"/>
		<path class="st7" d="M107.9,547.2c-3.5,0.7-5.7,4.1-5,7.5l12.5-2.5C114.8,548.7,111.4,546.5,107.9,547.2z"/>
		<path class="st7" d="M1151.4,498.8c-4.1,1.6-6.1,6.2-4.5,10.3l14.8-5.8C1160.1,499.2,1155.5,497.2,1151.4,498.8z"/>
		<path class="st2" d="M760.6,578c-4.1,1.6-6.1,6.2-4.5,10.3l14.8-5.8C769.3,578.4,764.6,576.3,760.6,578z"/>
		<rect x="102.5" y="604.8" class="st5" width="8.8" height="19.3"/>
		<rect x="586.5" y="106.2" class="st2" width="23.5" height="147.6"/>
		<path class="st2" d="M601,623.4h-68.5c-12.3,0-22.2-9.9-22.2-22.2V291c0-31.2,25.3-56.4,56.4-56.4c31.2,0,56.4,25.3,56.4,56.4
			v310.2C623.1,613.5,613.2,623.4,601,623.4z"/>
		<path class="st2" d="M645.3,623.4H532.5V275.8c0-22.7,18.4-41.2,41.2-41.2h30.5c22.7,0,41.2,18.4,41.2,41.2V623.4z"/>
		<rect x="618.9" y="196.2" class="st2" width="84.6" height="427.3"/>
		<polygon class="st2" points="789.8,623.2 702.8,623.2 702.8,196.2 789.8,263.2 		"/>
		<path class="st2" d="M664.5,623.4H551.6V291c0-31.2,25.3-56.4,56.4-56.4c31.2,0,56.4,25.3,56.4,56.4V623.4z"/>
		<rect x="496.2" y="567.3" class="st2" width="168.2" height="56.1"/>
		<rect x="516.6" y="286.5" class="st7" width="136.4" height="18.9"/>
		<rect x="516.6" y="317.8" class="st7" width="136.4" height="18.9"/>
		<rect x="516.6" y="349.1" class="st7" width="136.4" height="18.9"/>
		<rect x="517.6" y="286.3" class="st5" width="34" height="19.1"/>
		<rect x="517.6" y="317.7" class="st5" width="34" height="19.1"/>
		<rect x="517.6" y="348.8" class="st5" width="34" height="19.1"/>
		<rect x="516.6" y="382.3" class="st7" width="136.4" height="18.9"/>
		<rect x="517.6" y="382.2" class="st5" width="34" height="19.1"/>
		<rect x="516.6" y="416.3" class="st7" width="136.4" height="18.9"/>
		<rect x="516.6" y="450.1" class="st7" width="136.4" height="18.9"/>
		<rect x="516.6" y="483.3" class="st7" width="136.4" height="18.9"/>
		<rect x="516.6" y="516.2" class="st7" width="136.4" height="18.9"/>
		<rect x="516.6" y="548.6" class="st7" width="136.4" height="18.9"/>
		<rect x="714.3" y="324.2" class="st7" width="12.9" height="14"/>
		<rect x="739.1" y="324.2" class="st7" width="12.9" height="14"/>
		<rect x="763.9" y="324.2" class="st7" width="12.9" height="14"/>
		<rect x="714.3" y="353.1" class="st7" width="12.9" height="14"/>
		<rect x="739.1" y="353.1" class="st7" width="12.9" height="14"/>
		<rect x="763.9" y="353.1" class="st7" width="12.9" height="14"/>
		<rect x="714.3" y="381.3" class="st7" width="12.9" height="14"/>
		<rect x="739.1" y="381.3" class="st7" width="12.9" height="14"/>
		<rect x="763.9" y="381.3" class="st7" width="12.9" height="14"/>
		<rect x="714.3" y="409.2" class="st7" width="12.9" height="14"/>
		<rect x="739.1" y="409.2" class="st7" width="12.9" height="14"/>
		<rect x="763.9" y="409.2" class="st7" width="12.9" height="14"/>
		<rect x="714.3" y="438.4" class="st7" width="12.9" height="14"/>
		<rect x="739.1" y="438.4" class="st7" width="12.9" height="14"/>
		<rect x="763.9" y="438.4" class="st7" width="12.9" height="14"/>
		<rect x="714.3" y="467" class="st7" width="12.9" height="14"/>
		<rect x="739.1" y="467" class="st7" width="12.9" height="14"/>
		<rect x="763.9" y="467" class="st7" width="12.9" height="14"/>
		<rect x="714.3" y="495.2" class="st7" width="12.9" height="14"/>
		<rect x="739.1" y="495.2" class="st7" width="12.9" height="14"/>
		<rect x="763.9" y="495.2" class="st7" width="12.9" height="14"/>
		<rect x="714.3" y="523.8" class="st7" width="12.9" height="14"/>
		<rect x="739.1" y="523.8" class="st7" width="12.9" height="14"/>
		<rect x="763.9" y="523.8" class="st7" width="12.9" height="14"/>
		<rect x="714.3" y="551.7" class="st7" width="12.9" height="14"/>
		<rect x="739.1" y="551.7" class="st7" width="12.9" height="14"/>
		<rect x="763.9" y="551.7" class="st7" width="12.9" height="14"/>
		<rect x="681" y="219.1" class="st7" width="9" height="118.8"/>
		<rect x="681" y="365.9" class="st7" width="9" height="112.7"/>
		<rect x="681" y="509.7" class="st7" width="9" height="114.4"/>
		<rect x="651.1" y="218.8" class="st7" width="12.7" height="12.7"/>
		<polygon class="st2" points="563.4,550.5 552.4,561.5 552.4,565.6 554.6,565.6 569.7,550.5 		"/>
		<polygon class="st2" points="604,550.5 588.9,565.6 595.2,565.6 610.3,550.5 		"/>
		<polygon class="st2" points="590.4,550.5 575.3,565.6 581.7,565.6 596.8,550.5 		"/>
		<polygon class="st2" points="595.8,518.9 584.8,529.9 584.8,534 587.1,534 602.2,518.9 		"/>
		<polygon class="st2" points="636.5,518.9 621.4,534 627.7,534 642.8,518.9 		"/>
		<polygon class="st2" points="622.9,518.9 607.8,534 614.2,534 629.3,518.9 		"/>
		<polygon class="st2" points="563,418.3 552,429.3 552,433.4 554.2,433.4 569.3,418.3 		"/>
		<polygon class="st2" points="603.6,418.3 588.5,433.4 594.9,433.4 610,418.3 		"/>
		<polygon class="st2" points="590.1,418.3 574.9,433.4 581.3,433.4 596.4,418.3 		"/>
		<polygon class="st2" points="563.5,383.1 552.5,394.1 552.5,398.2 554.7,398.2 569.9,383.1 		"/>
		<polygon class="st2" points="604.1,383.1 589,398.2 595.4,398.2 610.5,383.1 		"/>
		<polygon class="st2" points="590.6,383.1 575.5,398.2 581.8,398.2 597,383.1 		"/>
		<polygon class="st2" points="595.8,288.2 584.8,299.2 584.8,303.4 587,303.4 602.2,288.2 		"/>
		<polygon class="st2" points="639.5,288.2 636.4,288.2 621.3,303.4 627.7,303.4 639.5,291.5 		"/>
		<polygon class="st2" points="622.9,288.2 607.8,303.4 614.1,303.4 629.2,288.2 		"/>
		<rect x="619.7" y="142.8" class="st7" width="7.6" height="53.5"/>
		<rect x="635.7" y="150.6" class="st7" width="8.5" height="45.7"/>
		<rect x="650.8" y="160.6" class="st7" width="9" height="35.6"/>
		<rect x="668.6" y="170.7" class="st7" width="8.7" height="25.5"/>
		<rect x="680.8" y="218.4" class="st8" width="2" height="119.4"/>
		<rect x="680.1" y="219.1" class="st8" width="9.9" height="2"/>
		<rect x="652" y="219" class="st8" width="2" height="13.7"/>
		<rect x="651.3" y="219.7" class="st8" width="12.7" height="2"/>
		<rect x="774" y="382.3" class="st8" width="2" height="13.7"/>
		<rect x="763.2" y="382.2" class="st8" width="12.7" height="2"/>
		<rect x="774" y="410.9" class="st8" width="2" height="13.7"/>
		<rect x="763.2" y="410.8" class="st8" width="12.7" height="2"/>
		<rect x="749.1" y="382.3" class="st8" width="2" height="13.7"/>
		<rect x="738.3" y="382.2" class="st8" width="12.7" height="2"/>
		<rect x="749.1" y="410.9" class="st8" width="2" height="13.7"/>
		<rect x="738.3" y="410.8" class="st8" width="12.7" height="2"/>
		<rect x="724.2" y="382.3" class="st8" width="2" height="13.7"/>
		<rect x="713.5" y="382.2" class="st8" width="12.7" height="2"/>
		<rect x="724.2" y="410.9" class="st8" width="2" height="13.7"/>
		<rect x="713.5" y="410.8" class="st8" width="12.7" height="2"/>
		<rect x="774" y="325.2" class="st8" width="2" height="13.7"/>
		<rect x="763.2" y="325.1" class="st8" width="12.7" height="2"/>
		<rect x="774" y="353.8" class="st8" width="2" height="13.7"/>
		<rect x="763.2" y="353.7" class="st8" width="12.7" height="2"/>
		<rect x="749.1" y="325.2" class="st8" width="2" height="13.7"/>
		<rect x="738.3" y="325.1" class="st8" width="12.7" height="2"/>
		<rect x="749.1" y="353.8" class="st8" width="2" height="13.7"/>
		<rect x="738.3" y="353.7" class="st8" width="12.7" height="2"/>
		<rect x="724.2" y="325.2" class="st8" width="2" height="13.7"/>
		<rect x="713.5" y="325.1" class="st8" width="12.7" height="2"/>
		<rect x="724.2" y="353.8" class="st8" width="2" height="13.7"/>
		<rect x="713.5" y="353.7" class="st8" width="12.7" height="2"/>
		<rect x="714.3" y="244.6" class="st7" width="6.8" height="64.3"/>
		<rect x="729.8" y="252.4" class="st7" width="6.2" height="56.5"/>
		<rect x="743" y="262.5" class="st7" width="7.3" height="46.5"/>
		<rect x="757.4" y="272.6" class="st7" width="7.3" height="36.4"/>
		<rect x="772.8" y="282.1" class="st7" width="6.3" height="26.8"/>
		<rect x="774" y="439.4" class="st8" width="2" height="13.7"/>
		
			<rect x="768.5" y="434" transform="matrix(6.123234e-17 -1 1 6.123234e-17 329.1851 1209.8938)" class="st8" width="2" height="12.7"/>
		<rect x="774" y="468" class="st8" width="2" height="13.7"/>
		
			<rect x="768.5" y="462.6" transform="matrix(6.123234e-17 -1 1 6.123234e-17 300.5897 1238.4891)" class="st8" width="2" height="12.7"/>
		<rect x="749.1" y="439.4" class="st8" width="2" height="13.7"/>
		
			<rect x="743.7" y="434" transform="matrix(6.123234e-17 -1 1 6.123234e-17 304.3269 1185.0356)" class="st8" width="2" height="12.7"/>
		<rect x="749.1" y="468" class="st8" width="2" height="13.7"/>
		
			<rect x="743.7" y="462.6" transform="matrix(6.123234e-17 -1 1 6.123234e-17 275.7315 1213.631)" class="st8" width="2" height="12.7"/>
		<rect x="724.2" y="439.4" class="st8" width="2" height="13.7"/>
		
			<rect x="718.8" y="434" transform="matrix(6.123234e-17 -1 1 6.123234e-17 279.4686 1160.1774)" class="st8" width="2" height="12.7"/>
		<rect x="724.2" y="468" class="st8" width="2" height="13.7"/>
		
			<rect x="718.8" y="462.6" transform="matrix(6.123234e-17 -1 1 6.123234e-17 250.8733 1188.7727)" class="st8" width="2" height="12.7"/>
		<rect x="774" y="496.3" class="st8" width="2" height="13.7"/>
		
			<rect x="768.5" y="490.9" transform="matrix(6.123234e-17 -1 1 6.123234e-17 272.3471 1266.7318)" class="st8" width="2" height="12.7"/>
		<rect x="774" y="524.9" class="st8" width="2" height="13.7"/>
		
			<rect x="768.5" y="519.5" transform="matrix(6.123234e-17 -1 1 6.123234e-17 243.7517 1295.3271)" class="st8" width="2" height="12.7"/>
		<rect x="749.1" y="496.3" class="st8" width="2" height="13.7"/>
		
			<rect x="743.7" y="490.9" transform="matrix(6.123234e-17 -1 1 6.123234e-17 247.4889 1241.8737)" class="st8" width="2" height="12.7"/>
		<rect x="749.1" y="524.9" class="st8" width="2" height="13.7"/>
		
			<rect x="743.7" y="519.5" transform="matrix(6.123234e-17 -1 1 6.123234e-17 218.8935 1270.469)" class="st8" width="2" height="12.7"/>
		<rect x="724.2" y="496.3" class="st8" width="2" height="13.7"/>
		
			<rect x="718.8" y="490.9" transform="matrix(6.123234e-17 -1 1 6.123234e-17 222.6306 1217.0154)" class="st8" width="2" height="12.7"/>
		<rect x="724.2" y="524.9" class="st8" width="2" height="13.7"/>
		
			<rect x="718.8" y="519.5" transform="matrix(6.123234e-17 -1 1 6.123234e-17 194.0353 1245.6107)" class="st8" width="2" height="12.7"/>
		<rect x="774" y="552.7" class="st8" width="2" height="13.7"/>
		
			<rect x="768.5" y="547.3" transform="matrix(6.123234e-17 -1 1 6.123234e-17 215.9122 1323.1666)" class="st8" width="2" height="12.7"/>
		<rect x="749.1" y="552.7" class="st8" width="2" height="13.7"/>
		
			<rect x="743.7" y="547.3" transform="matrix(6.123234e-17 -1 1 6.123234e-17 191.054 1298.3085)" class="st8" width="2" height="12.7"/>
		<rect x="724.2" y="552.7" class="st8" width="2" height="13.7"/>
		
			<rect x="718.8" y="547.3" transform="matrix(6.123234e-17 -1 1 6.123234e-17 166.1958 1273.4502)" class="st8" width="2" height="12.7"/>
		<rect x="680.8" y="366.9" class="st8" width="2" height="112.5"/>
		<rect x="680.9" y="366.8" class="st8" width="9.9" height="2"/>
		<rect x="680.8" y="510.7" class="st8" width="2" height="112.5"/>
		<rect x="680.9" y="510.6" class="st8" width="9.9" height="2"/>
		<rect x="650.1" y="349" class="st8" width="2" height="18.9"/>
		<rect x="516.6" y="349.7" class="st8" width="136.1" height="2"/>
		<rect x="517.6" y="349" class="st8" width="2" height="18.9"/>
		<rect x="650.1" y="317.8" class="st8" width="2" height="18.9"/>
		<rect x="516.6" y="318.5" class="st8" width="136.1" height="2"/>
		<rect x="517.6" y="317.8" class="st8" width="2" height="18.9"/>
		<rect x="650.1" y="286.5" class="st8" width="2" height="18.9"/>
		<rect x="516.6" y="286.4" class="st8" width="136.1" height="2.8"/>
		<rect x="516.6" y="286.5" class="st8" width="3.7" height="18.9"/>
		<rect x="650.1" y="382.6" class="st8" width="2" height="18.9"/>
		<rect x="516.6" y="383.3" class="st8" width="136.1" height="2"/>
		<rect x="517.6" y="382.6" class="st8" width="2" height="18.9"/>
		<rect x="517.6" y="415.7" class="st5" width="34" height="19.1"/>
		<rect x="517.6" y="450" class="st5" width="34" height="19.1"/>
		<rect x="517.6" y="483.7" class="st5" width="34" height="19.1"/>
		<rect x="517.6" y="516.1" class="st5" width="34" height="19.1"/>
		<rect x="517.6" y="548.5" class="st5" width="34" height="19.1"/>
		<rect x="650.1" y="416.2" class="st8" width="2" height="18.9"/>
		<rect x="516.6" y="416.9" class="st8" width="136.1" height="2"/>
		<rect x="517.6" y="416.2" class="st8" width="2" height="18.9"/>
		<rect x="650.1" y="449.8" class="st8" width="2" height="18.9"/>
		<rect x="516.6" y="450.5" class="st8" width="136.1" height="2"/>
		<rect x="517.6" y="449.8" class="st8" width="2" height="18.9"/>
		<rect x="650.1" y="483.4" class="st8" width="2" height="18.9"/>
		<rect x="516.6" y="484.1" class="st8" width="136.1" height="2"/>
		<rect x="517.6" y="483.4" class="st8" width="2" height="18.9"/>
		<rect x="516.6" y="517.7" class="st8" width="136.1" height="2"/>
		<rect x="517.6" y="517" class="st8" width="2" height="18.9"/>
		<rect x="650.1" y="548.7" class="st8" width="2" height="18.9"/>
		<rect x="650.1" y="517.4" class="st8" width="2" height="18.9"/>
		<rect x="516.6" y="549.4" class="st8" width="136.1" height="2"/>
		<rect x="517.6" y="548.7" class="st8" width="2" height="18.9"/>
		<rect x="502.3" y="575.9" class="st5" width="156.4" height="47.9"/>
		<rect x="554.3" y="575.9" class="st5" width="104.4" height="47.9"/>
		<rect x="502.6" y="575.9" class="st8" width="155.4" height="5"/>
		<rect x="654.1" y="575.9" class="st8" width="4.5" height="47.5"/>
		<rect x="502.6" y="575.9" class="st8" width="4.5" height="47.5"/>
		<path class="st2" d="M602.5,234.6c0,0,0-129,0-129C602.5,105.6,602.5,234.6,602.5,234.6z"/>
		<rect x="603.7" y="105.6" class="st8" width="6.9" height="129"/>
		<rect x="619" y="196.3" class="st8" width="6.6" height="40.6"/>
		<polygon class="st8" points="554.8,619.2 597.3,576.7 589.4,576.7 554.8,611.3 		"/>
		<polygon class="st8" points="554.8,585.7 563.8,576.7 556,576.7 554.8,577.9 		"/>
		<polygon class="st8" points="554.8,602.4 580.5,576.7 572.7,576.7 554.8,594.6 		"/>
		<polygon class="st8" points="605.2,576.7 604.8,576.7 558.1,623.4 566,623.4 605.2,584.2 		"/>
		<polygon class="st8" points="632.9,623.4 659.2,597 659.2,589.2 625,623.4 		"/>
		<polygon class="st8" points="649.6,623.4 659.2,613.7 659.2,605.9 641.8,623.4 		"/>
		<polygon class="st8" points="612.7,610.1 646.1,576.7 638.3,576.7 612.7,602.3 		"/>
		<polygon class="st8" points="605.2,609.8 591.6,623.4 599.4,623.4 605.2,617.6 		"/>
		<polygon class="st8" points="655,576.7 612.7,618.5 612.7,623.4 616.2,623.4 659.2,580.3 659.2,576.7 		"/>
		<polygon class="st8" points="612.7,593.4 629.4,576.7 621.5,576.7 612.7,585.5 		"/>
		<polygon class="st8" points="605.2,593.1 574.9,623.4 582.7,623.4 605.2,600.9 		"/>
		<polygon class="st8" points="501.2,619.2 543.7,576.7 535.9,576.7 501.2,611.3 		"/>
		<polygon class="st8" points="501.2,585.7 510.3,576.7 502.4,576.7 501.2,577.9 		"/>
		<polygon class="st8" points="501.2,602.4 527,576.7 519.1,576.7 501.2,594.6 		"/>
		<polygon class="st8" points="548.8,579.1 504.6,623.4 512.4,623.4 548.8,587 		"/>
		<polygon class="st8" points="548.8,612.6 538,623.4 545.9,623.4 548.8,620.4 		"/>
		<polygon class="st8" points="548.8,595.8 521.3,623.4 529.2,623.4 548.8,603.7 		"/>
		<rect x="549.1" y="576.3" class="st2" width="5.1" height="47.5"/>
		<rect x="607.1" y="575.9" class="st2" width="3.7" height="46.7"/>
		<polygon class="st2" points="616.5,319.7 601.3,334.8 607.7,334.8 622.8,319.7 		"/>
		<polygon class="st2" points="599.7,319.7 584.6,334.8 591,334.8 606.1,319.7 		"/>
		<polygon class="st2" points="610.4,451.6 595.3,466.7 601.7,466.7 616.8,451.6 		"/>
		<polygon class="st2" points="584.8,485.7 569.6,500.8 576,500.8 591.1,485.7 		"/>
		<polygon class="st2" points="600.6,485.7 585.5,500.8 591.8,500.8 606.9,485.7 		"/>
		<polygon class="st2" points="618.2,485.7 603.1,500.8 609.5,500.8 624.6,485.7 		"/>
		<polygon class="st2" points="481.4,309.5 480.9,309.2 480.9,309.1 480.6,309.1 427.3,284.4 427,284.4 414.7,284.4 399,284.4 
			399,284.7 373.2,296.5 347.1,284.4 334.4,284.4 319.4,284.4 292.1,284.4 292.1,292.2 253.8,309.9 253.8,623.5 292.1,623.5 
			307.6,623.5 319.4,623.5 334.4,623.5 334.4,622.8 388.3,622.8 426.5,622.8 480.3,622.8 480.9,622.8 480.9,309.5 		"/>
		<rect x="405.9" y="334.9" class="st7" width="11.4" height="16.1"/>
		<rect x="405.9" y="364.5" class="st7" width="11.4" height="16.1"/>
		<rect x="405.9" y="394.1" class="st7" width="11.4" height="16.1"/>
		<rect x="405.9" y="423.8" class="st7" width="11.4" height="16.1"/>
		<rect x="405.9" y="454.7" class="st7" width="11.4" height="16.1"/>
		<rect x="405.9" y="484.8" class="st7" width="11.4" height="16.1"/>
		<rect x="405.9" y="514.9" class="st7" width="11.4" height="16.1"/>
		<rect x="405.9" y="545" class="st7" width="11.4" height="16.1"/>
		<rect x="405.9" y="575.1" class="st7" width="11.4" height="16.1"/>
		<rect x="429.9" y="334.9" class="st7" width="11.4" height="16.1"/>
		<rect x="429.9" y="364.5" class="st7" width="11.4" height="16.1"/>
		<rect x="429.9" y="394.1" class="st7" width="11.4" height="16.1"/>
		<rect x="429.9" y="423.8" class="st7" width="11.4" height="16.1"/>
		<rect x="429.9" y="454.7" class="st7" width="11.4" height="16.1"/>
		<rect x="429.9" y="484.8" class="st7" width="11.4" height="16.1"/>
		<rect x="429.9" y="514.9" class="st7" width="11.4" height="16.1"/>
		<rect x="429.9" y="545" class="st7" width="11.4" height="16.1"/>
		<rect x="429.9" y="575.1" class="st7" width="11.4" height="16.1"/>
		<rect x="453.9" y="334.9" class="st7" width="11.4" height="16.1"/>
		<rect x="453.9" y="364.5" class="st7" width="11.4" height="16.1"/>
		<rect x="453.9" y="394.1" class="st7" width="11.4" height="16.1"/>
		<rect x="453.9" y="423.8" class="st7" width="11.4" height="16.1"/>
		<rect x="453.9" y="454.7" class="st7" width="11.4" height="16.1"/>
		<rect x="453.9" y="484.8" class="st7" width="11.4" height="16.1"/>
		<rect x="453.9" y="514.9" class="st7" width="11.4" height="16.1"/>
		<rect x="453.9" y="545" class="st7" width="11.4" height="16.1"/>
		<rect x="453.9" y="575.1" class="st7" width="11.4" height="16.1"/>
		<rect x="405.9" y="334.2" class="st8" width="11.7" height="2.6"/>
		<rect x="415" y="334" class="st8" width="2.7" height="16.8"/>
		<rect x="300.8" y="302.6" class="st7" width="11.4" height="16.1"/>
		<rect x="300.4" y="301.9" class="st8" width="11.7" height="2.6"/>
		<rect x="300.3" y="301.7" class="st8" width="2.7" height="16.8"/>
		<rect x="300.8" y="332.7" class="st7" width="11.4" height="16.1"/>
		<rect x="300.4" y="332" class="st8" width="11.7" height="2.6"/>
		<rect x="300.3" y="331.9" class="st8" width="2.7" height="16.8"/>
		<rect x="300.8" y="362.8" class="st7" width="11.4" height="16.1"/>
		<rect x="300.4" y="362.1" class="st8" width="11.7" height="2.6"/>
		<rect x="300.3" y="362" class="st8" width="2.7" height="16.8"/>
		<rect x="300.8" y="393" class="st7" width="11.4" height="16.1"/>
		<rect x="300.4" y="392.3" class="st8" width="11.7" height="2.6"/>
		<rect x="300.3" y="392.1" class="st8" width="2.7" height="16.8"/>
		<rect x="300.8" y="423.1" class="st7" width="11.4" height="16.1"/>
		<rect x="300.4" y="422.4" class="st8" width="11.7" height="2.6"/>
		<rect x="300.3" y="422.2" class="st8" width="2.7" height="16.8"/>
		<rect x="300.8" y="453.2" class="st7" width="11.4" height="16.1"/>
		<rect x="300.4" y="452.5" class="st8" width="11.7" height="2.6"/>
		<rect x="300.3" y="452.4" class="st8" width="2.7" height="16.8"/>
		<rect x="300.8" y="483.3" class="st7" width="11.4" height="16.1"/>
		<rect x="300.4" y="482.6" class="st8" width="11.7" height="2.6"/>
		<rect x="300.3" y="482.5" class="st8" width="2.7" height="16.8"/>
		<rect x="300.8" y="513.5" class="st7" width="11.4" height="16.1"/>
		<rect x="300.4" y="512.8" class="st8" width="11.7" height="2.6"/>
		<rect x="300.3" y="512.6" class="st8" width="2.7" height="16.8"/>
		<rect x="300.8" y="543.6" class="st7" width="11.4" height="16.1"/>
		<rect x="300.4" y="542.9" class="st8" width="11.7" height="2.6"/>
		<rect x="300.3" y="542.8" class="st8" width="2.7" height="16.8"/>
		<rect x="300.8" y="573.7" class="st7" width="11.4" height="16.1"/>
		<rect x="300.4" y="572.4" class="st8" width="11.7" height="2.6"/>
		<rect x="300.3" y="572.9" class="st8" width="2.7" height="16.8"/>
		<rect x="405.9" y="364.3" class="st8" width="11.7" height="2.6"/>
		<rect x="415" y="364.2" class="st8" width="2.7" height="16.8"/>
		<rect x="405.9" y="394.5" class="st8" width="11.7" height="2.6"/>
		<rect x="415" y="394.3" class="st8" width="2.7" height="16.8"/>
		<rect x="405.9" y="424.6" class="st8" width="11.7" height="2.6"/>
		<rect x="415" y="424.5" class="st8" width="2.7" height="16.8"/>
		<rect x="405.9" y="454.7" class="st8" width="11.7" height="2.6"/>
		<rect x="415" y="454.6" class="st8" width="2.7" height="16.8"/>
		<rect x="405.9" y="484.9" class="st8" width="11.7" height="2.6"/>
		<rect x="415" y="484.8" class="st8" width="2.7" height="16.8"/>
		<rect x="405.9" y="515" class="st8" width="11.7" height="2.6"/>
		<rect x="415" y="514.9" class="st8" width="2.7" height="16.8"/>
		<rect x="405.9" y="545.2" class="st8" width="11.7" height="2.6"/>
		<rect x="415" y="545.1" class="st8" width="2.7" height="16.8"/>
		<rect x="405.9" y="575.3" class="st8" width="11.7" height="2.6"/>
		<rect x="415" y="575.2" class="st8" width="2.7" height="16.8"/>
		<rect x="429.7" y="575.3" class="st8" width="11.7" height="2.6"/>
		<rect x="438.7" y="575.2" class="st8" width="2.7" height="16.8"/>
		<rect x="453.4" y="575.3" class="st8" width="11.7" height="2.6"/>
		<rect x="462.5" y="575.2" class="st8" width="2.7" height="16.8"/>
		<rect x="453.4" y="544.8" class="st8" width="11.7" height="2.6"/>
		<rect x="462.5" y="544.7" class="st8" width="2.7" height="16.8"/>
		<rect x="453.4" y="515" class="st8" width="11.7" height="2.6"/>
		<rect x="462.5" y="514.9" class="st8" width="2.7" height="16.8"/>
		<rect x="453.4" y="484.9" class="st8" width="11.7" height="2.6"/>
		<rect x="462.5" y="484.8" class="st8" width="2.7" height="16.8"/>
		<rect x="453.4" y="454.6" class="st8" width="11.7" height="2.6"/>
		<rect x="462.5" y="454.4" class="st8" width="2.7" height="16.8"/>
		<rect x="453.4" y="424.5" class="st8" width="11.7" height="2.6"/>
		<rect x="462.5" y="424.3" class="st8" width="2.7" height="16.8"/>
		<rect x="453.4" y="394.4" class="st8" width="11.7" height="2.6"/>
		<rect x="462.5" y="394.2" class="st8" width="2.7" height="16.8"/>
		<rect x="453.4" y="364.3" class="st8" width="11.7" height="2.6"/>
		<rect x="462.5" y="364.2" class="st8" width="2.7" height="16.8"/>
		<rect x="453.4" y="334.2" class="st5" width="11.7" height="2.6"/>
		<rect x="462.5" y="334" class="st5" width="2.7" height="16.8"/>
		<rect x="429.7" y="544.8" class="st8" width="11.7" height="2.6"/>
		<rect x="438.7" y="544.7" class="st8" width="2.7" height="16.8"/>
		<rect x="429.7" y="514.9" class="st8" width="11.7" height="2.6"/>
		<rect x="438.7" y="514.1" class="st8" width="2.7" height="16.8"/>
		<rect x="429.7" y="484.9" class="st8" width="11.7" height="2.6"/>
		<rect x="438.7" y="483.6" class="st8" width="2.7" height="16.8"/>
		<rect x="429.7" y="455" class="st8" width="11.7" height="2.6"/>
		<rect x="438.7" y="454.8" class="st8" width="2.7" height="16.8"/>
		<rect x="429.7" y="425" class="st8" width="11.7" height="2.6"/>
		<rect x="438.7" y="424.9" class="st8" width="2.7" height="16.8"/>
		<rect x="429.7" y="394.5" class="st8" width="11.7" height="2.6"/>
		<rect x="438.7" y="394.3" class="st8" width="2.7" height="16.8"/>
		<rect x="429.7" y="363.9" class="st8" width="11.7" height="2.6"/>
		<rect x="438.7" y="363.8" class="st8" width="2.7" height="16.8"/>
		<rect x="429.7" y="334" class="st8" width="11.7" height="2.6"/>
		<rect x="438.7" y="333.8" class="st8" width="2.7" height="16.8"/>
		<rect x="347.4" y="333.7" class="st5" width="26.3" height="13.2"/>
		<rect x="348.6" y="333.8" class="st8" width="24.2" height="2.8"/>
		<rect x="347.9" y="333.7" class="st8" width="2.7" height="13.3"/>
		<rect x="347.4" y="363.7" class="st5" width="26.3" height="13.2"/>
		<rect x="348.6" y="363.9" class="st8" width="24.2" height="2.8"/>
		<rect x="347.9" y="363.7" class="st8" width="2.7" height="13.3"/>
		<rect x="347.4" y="393.8" class="st5" width="26.3" height="13.2"/>
		<rect x="348.6" y="393.9" class="st8" width="24.2" height="2.8"/>
		<rect x="347.9" y="393.8" class="st8" width="2.7" height="13.3"/>
		<rect x="347.4" y="423.8" class="st5" width="26.3" height="13.2"/>
		<rect x="348.6" y="424" class="st8" width="24.2" height="2.8"/>
		<rect x="347.9" y="423.8" class="st8" width="2.7" height="13.3"/>
		<rect x="347.4" y="453.8" class="st5" width="26.3" height="13.2"/>
		<rect x="348.6" y="454" class="st8" width="24.2" height="2.8"/>
		<rect x="347.9" y="453.8" class="st8" width="2.7" height="13.3"/>
		<rect x="347.4" y="483.9" class="st5" width="26.3" height="13.2"/>
		<rect x="348.6" y="484" class="st8" width="24.2" height="2.8"/>
		<rect x="347.9" y="483.9" class="st8" width="2.7" height="13.3"/>
		<rect x="347.4" y="513.9" class="st5" width="26.3" height="13.2"/>
		<rect x="348.6" y="514.1" class="st8" width="24.2" height="2.8"/>
		<rect x="347.9" y="513.9" class="st8" width="2.7" height="13.3"/>
		<rect x="347.4" y="544" class="st5" width="26.3" height="13.2"/>
		<rect x="348.6" y="544.1" class="st8" width="24.2" height="2.8"/>
		<rect x="347.9" y="544" class="st8" width="2.7" height="13.3"/>
		<rect x="347.4" y="574" class="st5" width="26.3" height="13.2"/>
		<rect x="348.6" y="574.2" class="st8" width="24.2" height="2.8"/>
		<rect x="347.9" y="574" class="st8" width="2.7" height="13.3"/>
		<rect x="272.2" y="574" class="st5" width="19.7" height="13.2"/>
		<rect x="273.1" y="574.7" class="st8" width="18.1" height="2.8"/>
		<rect x="273.2" y="574" class="st8" width="2" height="13.3"/>
		<rect x="272.2" y="544.2" class="st5" width="19.7" height="13.2"/>
		<rect x="273.1" y="545" class="st8" width="18.1" height="2.8"/>
		<rect x="273.2" y="544.2" class="st8" width="2" height="13.3"/>
		<rect x="272.2" y="514.5" class="st5" width="19.7" height="13.2"/>
		<rect x="273.1" y="514.6" class="st8" width="18.1" height="2.8"/>
		<rect x="273.2" y="514.5" class="st8" width="2" height="13.3"/>
		<rect x="272.2" y="484.7" class="st5" width="19.7" height="13.2"/>
		<rect x="273.1" y="484.2" class="st8" width="18.1" height="2.8"/>
		<rect x="273.2" y="484.7" class="st8" width="2" height="13.3"/>
		<rect x="272.2" y="454.9" class="st5" width="19.7" height="13.2"/>
		<rect x="273.1" y="454.5" class="st8" width="18.1" height="2.8"/>
		<rect x="273.2" y="454.9" class="st8" width="2" height="13.3"/>
		<rect x="272.2" y="425.1" class="st5" width="19.7" height="13.2"/>
		<rect x="273.1" y="424.1" class="st8" width="18.1" height="2.8"/>
		<rect x="273.2" y="425.1" class="st8" width="2" height="12.4"/>
		<rect x="272.8" y="393.6" class="st5" width="19.7" height="13.2"/>
		<rect x="273.7" y="393.7" class="st8" width="18.1" height="2.8"/>
		<rect x="273.2" y="393.6" class="st8" width="2" height="13.3"/>
		<rect x="272.8" y="363.8" class="st5" width="19.7" height="13.2"/>
		<rect x="273.7" y="364" class="st8" width="18.1" height="2.8"/>
		<rect x="273.2" y="363.8" class="st8" width="2" height="13.3"/>
		<rect x="272.2" y="332.9" class="st5" width="19.7" height="13.2"/>
		<rect x="273.1" y="333" class="st8" width="18.1" height="2.8"/>
		<rect x="272.6" y="332.9" class="st8" width="2" height="13.3"/>
		<polygon class="st8" points="292.1,623.5 259.9,622.8 265.5,613 292.1,613 		"/>
		<polygon class="st8" points="388.1,623.5 345.4,622.8 351.1,613 388.1,613 		"/>
		<rect x="292.6" y="612.6" class="st5" width="26.7" height="11.5"/>
		<polygon class="st5" points="453.9,612.6 480.6,612.6 480.6,624.1 449.3,624.1 		"/>
		<polygon class="st5" points="455.9,303.5 445.5,303.5 390.2,303.4 378.3,299 373.2,296.5 399,284.4 416.3,284.4 		"/>
		<polygon class="st2" points="464.2,457.3 452,469.5 457.2,469.5 469.4,457.3 		"/>
		<polygon class="st2" points="440.5,428 428.3,440.2 433.4,440.2 445.6,428 		"/>
		<polygon class="st2" points="440.5,487.7 428.3,500 433.4,500 445.6,487.7 		"/>
		<polygon class="st2" points="440.5,397.9 428.3,410.1 433.4,410.1 445.6,397.9 		"/>
		<polygon class="st2" points="974,285.1 972.9,285.1 856.9,285.1 856.9,292.7 860.2,292.7 860.2,399.1 808.1,436.7 808,436.7 
			809.9,439.7 812.5,439.7 812.5,615.2 831.8,615.2 860.2,615.2 811.9,615.2 811.9,622.2 860.2,622.2 860.2,624.1 971.6,624.1 
			971.6,624.1 1032.6,624.1 1032.6,292.7 1035.4,292.7 1035.4,285.1 		"/>
		<rect x="860.2" y="292.7" class="st8" width="171.8" height="4.4"/>
		<rect x="871.7" y="321.7" class="st5" width="14.6" height="14.2"/>
		<rect x="871.7" y="321.7" class="st8" width="2.9" height="14.2"/>
		<rect x="871.7" y="321.2" class="st8" width="14.6" height="3.2"/>
		<rect x="894.7" y="321.7" class="st5" width="14.6" height="14.2"/>
		<rect x="894.7" y="321.7" class="st8" width="2.9" height="14.2"/>
		<rect x="894.7" y="321.2" class="st8" width="14.6" height="3.2"/>
		<rect x="917.6" y="321.7" class="st5" width="14.6" height="14.2"/>
		<rect x="917.6" y="321.7" class="st8" width="2.9" height="14.2"/>
		<rect x="917.6" y="321.2" class="st8" width="14.6" height="3.2"/>
		<rect x="940.6" y="321.7" class="st5" width="14.6" height="14.2"/>
		<rect x="940.6" y="321.7" class="st8" width="2.9" height="14.2"/>
		<rect x="940.6" y="321.2" class="st8" width="14.6" height="3.2"/>
		<rect x="940.6" y="347.7" class="st5" width="14.6" height="14.2"/>
		<rect x="940.6" y="347.7" class="st8" width="2.9" height="14.2"/>
		<rect x="940.6" y="347.2" class="st8" width="14.6" height="3.2"/>
		<rect x="917.6" y="347.7" class="st5" width="14.6" height="14.2"/>
		<rect x="917.6" y="347.7" class="st8" width="2.9" height="14.2"/>
		<rect x="917.6" y="347.2" class="st8" width="14.6" height="3.2"/>
		<rect x="894.7" y="347.7" class="st5" width="14.6" height="14.2"/>
		<rect x="894.7" y="347.7" class="st8" width="2.9" height="14.2"/>
		<rect x="894.7" y="347.2" class="st8" width="14.6" height="3.2"/>
		<rect x="871.7" y="347.7" class="st5" width="14.6" height="14.2"/>
		<rect x="871.7" y="347.7" class="st8" width="2.9" height="14.2"/>
		<rect x="871.7" y="347.2" class="st8" width="14.6" height="3.2"/>
		<rect x="871.7" y="374.2" class="st5" width="14.6" height="14.2"/>
		<rect x="871.7" y="374.2" class="st8" width="2.9" height="14.2"/>
		<rect x="871.7" y="373.8" class="st8" width="14.6" height="3.2"/>
		<rect x="894.7" y="374.2" class="st5" width="14.6" height="14.2"/>
		<rect x="894.7" y="374.2" class="st8" width="2.9" height="14.2"/>
		<rect x="894.7" y="373.8" class="st8" width="14.6" height="3.2"/>
		<rect x="917.6" y="374.2" class="st5" width="14.6" height="14.2"/>
		<rect x="917.6" y="374.2" class="st8" width="2.9" height="14.2"/>
		<rect x="917.6" y="373.8" class="st8" width="14.6" height="3.2"/>
		<rect x="940.6" y="374.2" class="st5" width="14.6" height="14.2"/>
		<rect x="940.6" y="374.2" class="st8" width="2.9" height="14.2"/>
		<rect x="940.6" y="373.8" class="st8" width="14.6" height="3.2"/>
		<rect x="988.7" y="318.3" class="st7" width="34.6" height="15.9"/>
		<rect x="908.9" y="560" class="st7" width="34.6" height="14.8"/>
		<rect x="908.9" y="532.9" class="st7" width="34.6" height="14.8"/>
		<rect x="908.9" y="505.7" class="st7" width="34.6" height="14.8"/>
		<rect x="908.9" y="478.6" class="st7" width="34.6" height="14.8"/>
		<rect x="908.9" y="451.5" class="st7" width="34.6" height="14.8"/>
		<polygon class="st7" points="902,439.7 809.9,439.7 808,436.7 860.2,399.1 952.1,399.1 951.9,403 		"/>
		<rect x="829.1" y="454.2" class="st5" width="20.2" height="16.3"/>
		<rect x="830.1" y="454.5" class="st8" width="3" height="16"/>
		<rect x="830.1" y="454.2" class="st8" width="19.5" height="3.2"/>
		<polygon class="st8" points="845.7,615.2 901.7,615.2 901.7,622.9 837.5,622.9 		"/>
		<polygon class="st8" points="812.7,439.7 812.7,443.1 902.4,443.1 952.9,406.1 952.9,402.8 902.8,439.7 		"/>
		<rect x="980.3" y="334.1" class="st5" width="8.4" height="8.3"/>
		<rect x="909.3" y="560.6" class="st8" width="34.3" height="2.3"/>
		<rect x="940.9" y="560" class="st8" width="2.6" height="14.8"/>
		<rect x="909.3" y="533.5" class="st8" width="34.3" height="2.3"/>
		<rect x="940.9" y="532.8" class="st8" width="2.6" height="14.8"/>
		<rect x="909.3" y="506.3" class="st8" width="34.3" height="2.3"/>
		<rect x="940.9" y="505.7" class="st8" width="2.6" height="14.8"/>
		<rect x="909.3" y="479.2" class="st8" width="34.3" height="2.3"/>
		<rect x="940.9" y="478.5" class="st8" width="2.6" height="14.8"/>
		<rect x="909.3" y="452.1" class="st8" width="34.3" height="2.3"/>
		<rect x="940.9" y="451.4" class="st8" width="2.6" height="14.8"/>
		<rect x="1020.6" y="318.2" class="st8" width="2.6" height="15.9"/>
		<polygon class="st2" points="995.6,333.1 1009.3,318.3 1004.1,318.3 990.4,333.1 		"/>
		<polygon class="st2" points="1006.7,333.1 1020.5,318.3 1015.2,318.3 1001.5,333.1 		"/>
		<rect x="989" y="318.9" class="st8" width="34.3" height="2.3"/>
		<rect x="868.8" y="454.2" class="st5" width="20.2" height="16.3"/>
		<rect x="869.7" y="454.5" class="st8" width="3" height="16"/>
		<rect x="869.7" y="454.2" class="st8" width="19.5" height="3.2"/>
		<rect x="829.1" y="492.3" class="st5" width="20.2" height="16.3"/>
		<rect x="830.1" y="492.6" class="st8" width="3" height="16"/>
		<rect x="830.1" y="492.3" class="st8" width="19.5" height="3.2"/>
		<rect x="868.8" y="492.3" class="st5" width="20.2" height="16.3"/>
		<rect x="869.7" y="492.6" class="st8" width="3" height="16"/>
		<rect x="869.7" y="492.3" class="st8" width="19.5" height="3.2"/>
		<rect x="829.1" y="530.3" class="st5" width="20.2" height="16.3"/>
		<rect x="830.1" y="530.6" class="st8" width="3" height="16"/>
		<rect x="830.1" y="530.3" class="st8" width="19.5" height="3.2"/>
		<rect x="868.8" y="530.3" class="st5" width="20.2" height="16.3"/>
		<rect x="869.7" y="530.6" class="st8" width="3" height="16"/>
		<rect x="869.7" y="530.3" class="st8" width="19.5" height="3.2"/>
		<rect x="829.1" y="568.4" class="st5" width="20.2" height="16.3"/>
		<rect x="830.1" y="568.7" class="st8" width="3" height="16"/>
		<rect x="830.1" y="568.4" class="st8" width="19.5" height="3.2"/>
		<rect x="868.8" y="568.4" class="st5" width="20.2" height="16.3"/>
		<rect x="869.7" y="568.7" class="st8" width="3" height="16"/>
		<rect x="869.7" y="568.4" class="st8" width="19.5" height="3.2"/>
		<rect x="988.7" y="351.9" class="st7" width="34.6" height="15.9"/>
		<rect x="980.3" y="367.8" class="st5" width="8.4" height="8.3"/>
		<rect x="1020.6" y="351.8" class="st8" width="2.6" height="15.9"/>
		<polygon class="st2" points="995.6,366.7 1009.3,351.9 1004.1,351.9 990.4,366.7 		"/>
		<polygon class="st2" points="1006.7,366.7 1020.5,351.9 1015.2,351.9 1001.5,366.7 		"/>
		<rect x="989" y="352.5" class="st8" width="34.3" height="2.3"/>
		<rect x="988.7" y="385.5" class="st7" width="34.6" height="15.9"/>
		<rect x="980.3" y="401.4" class="st5" width="8.4" height="8.3"/>
		<rect x="1020.6" y="385.5" class="st8" width="2.6" height="15.9"/>
		<polygon class="st2" points="995.6,400.4 1009.3,385.5 1004.1,385.5 990.4,400.4 		"/>
		<polygon class="st2" points="1006.7,400.4 1020.5,385.5 1015.2,385.5 1001.5,400.4 		"/>
		<rect x="989" y="386.1" class="st8" width="34.3" height="2.3"/>
		<rect x="988.7" y="419.2" class="st7" width="34.6" height="15.9"/>
		<rect x="980.3" y="435" class="st5" width="8.4" height="8.3"/>
		<rect x="1020.6" y="419.1" class="st8" width="2.6" height="15.9"/>
		<polygon class="st2" points="995.6,434 1009.3,419.2 1004.1,419.2 990.4,434 		"/>
		<polygon class="st2" points="1006.7,434 1020.5,419.2 1015.2,419.2 1001.5,434 		"/>
		<rect x="989" y="419.8" class="st8" width="34.3" height="2.3"/>
		<rect x="988.7" y="452.8" class="st7" width="34.6" height="15.9"/>
		<rect x="980.3" y="468.7" class="st5" width="8.4" height="8.3"/>
		<rect x="1020.6" y="452.7" class="st8" width="2.6" height="15.9"/>
		<polygon class="st2" points="995.6,467.6 1009.3,452.8 1004.1,452.8 990.4,467.6 		"/>
		<polygon class="st2" points="1006.7,467.6 1020.5,452.8 1015.2,452.8 1001.5,467.6 		"/>
		<rect x="989" y="453.4" class="st8" width="34.3" height="2.3"/>
		<rect x="988.7" y="486.4" class="st7" width="34.6" height="15.9"/>
		<rect x="980.3" y="502.3" class="st5" width="8.4" height="8.3"/>
		<rect x="1020.6" y="486.3" class="st8" width="2.6" height="15.9"/>
		<polygon class="st2" points="995.6,501.2 1009.3,486.4 1004.1,486.4 990.4,501.2 		"/>
		<polygon class="st2" points="1006.7,501.2 1020.5,486.4 1015.2,486.4 1001.5,501.2 		"/>
		<rect x="989" y="487" class="st8" width="34.3" height="2.3"/>
		<rect x="988.7" y="520.1" class="st7" width="34.6" height="15.9"/>
		<rect x="980.3" y="535.9" class="st5" width="8.4" height="8.3"/>
		<rect x="1020.6" y="520" class="st8" width="2.6" height="15.9"/>
		<polygon class="st2" points="995.6,534.9 1009.3,520.1 1004.1,520.1 990.4,534.9 		"/>
		<polygon class="st2" points="1006.7,534.9 1020.5,520.1 1015.2,520.1 1001.5,534.9 		"/>
		<rect x="989" y="520.7" class="st8" width="34.3" height="2.3"/>
		<rect x="988.7" y="553.7" class="st7" width="34.6" height="15.9"/>
		<rect x="980.3" y="569.5" class="st5" width="8.4" height="8.3"/>
		<rect x="1020.6" y="553.6" class="st8" width="2.6" height="15.9"/>
		<polygon class="st2" points="995.6,568.5 1009.3,553.7 1004.1,553.7 990.4,568.5 		"/>
		<polygon class="st2" points="1006.7,568.5 1020.5,553.7 1015.2,553.7 1001.5,568.5 		"/>
		<rect x="989" y="554.3" class="st8" width="34.3" height="2.3"/>
		<path class="st7" d="M233.9,554.6c0-5.3-3.4-9.8-8.1-11.5c0.4-1.6,0.7-3.4,0.7-5.2c0-7.1-3.6-13.3-9.1-16.9
			c0.4-1.1,0.5-2.4,0.5-3.6c0-6.8-5.5-12.2-12.2-12.2c-6.8,0-12.2,5.5-12.2,12.2c0,1.4,0.2,2.8,0.7,4c-5.1,3.7-8.5,9.7-8.5,16.5
			c0,1.9,0.3,3.7,0.8,5.5c-4.8,1.7-8.2,6.2-8.2,11.5c0,4.3,2.2,8,5.5,10.2c-0.8,1.6-1.3,3.4-1.3,5.4c0,6.8,5.5,12.2,12.2,12.2
			c1.6,0,3.2-0.3,4.6-0.9c3.2,2.6,7.3,4.1,11.7,4.1c10.4,0,18.8-8.4,18.8-18.8c0-1.1-0.1-2.2-0.3-3.2
			C232.2,561.7,233.9,558.4,233.9,554.6z"/>
		<path class="st7" d="M1147.9,555.8c0-5.3-3.4-9.8-8.1-11.5c0.4-1.6,0.7-3.4,0.7-5.2c0-7.1-3.6-13.3-9.1-16.9
			c0.4-1.1,0.5-2.4,0.5-3.6c0-6.8-5.5-12.2-12.2-12.2s-12.2,5.5-12.2,12.2c0,1.4,0.2,2.8,0.7,4c-5.1,3.7-8.5,9.7-8.5,16.5
			c0,1.9,0.3,3.7,0.8,5.5c-4.8,1.7-8.2,6.2-8.2,11.5c0,4.3,2.2,8,5.5,10.2c-0.8,1.6-1.3,3.4-1.3,5.4c0,6.8,5.5,12.2,12.2,12.2
			c1.6,0,3.2-0.3,4.6-0.9c3.2,2.6,7.3,4.1,11.7,4.1c10.4,0,18.8-8.4,18.8-18.8c0-1.1-0.1-2.2-0.3-3.2
			C1146.2,562.9,1147.9,559.6,1147.9,555.8z"/>
		<path class="st7" d="M1016.7,624.1c0.7-8.9,8.2-16,17.3-16c3,0,5.8,0.8,8.2,2.1c0.5-6.2,5.7-11.1,12.1-11.1
			c6.3,0,11.5,4.8,12.1,11c1.6-1.1,3.6-1.8,5.7-1.8c4.9,0,9,3.4,9.9,8h3.4c1.4-1.9,3.6-3.1,6.1-3.1c4.3,0,7.7,3.5,7.7,7.7
			c0,1.1-0.2,2.2-0.7,3.1H1016.7z"/>
		<polygon class="st2" points="1071.1,534.5 1061.8,534.5 1057.7,519.5 1074.9,519.5 		"/>
		<rect x="1057.6" y="519.7" class="st5" width="16.6" height="3.3"/>
		<path class="st7" d="M786.9,572.2c-1.5,0-2.9,0.2-4.3,0.7c-3-6.3-9.4-10.7-16.9-10.7c-7.9,0-14.6,4.9-17.3,11.8
			c-2-1.1-4.3-1.7-6.7-1.7c-7.7,0-14,6.3-14,14c0,7.7,6.3,14,14,14c0.7,0,1.4-0.1,2.1-0.2c2.1,5.2,7.1,8.8,13,8.8
			c6.3,0,11.6-4.2,13.4-9.9c2.4-0.6,4.7-1.7,6.7-3.1c2.6,2.7,6.1,4.3,10.1,4.3c7.7,0,14-6.3,14-14
			C800.9,578.5,794.6,572.2,786.9,572.2z"/>
		<path class="st7" d="M134,511.5c-2.7-3.5-7.7-4.2-11.1-1.5l9.6,12.7C136,520,136.7,515,134,511.5z"/>
	</g>
	<g>
		<g>
			<path class="st9" d="M112.7,625.4H92.2v-21.9h20.5V625.4z M94.8,622.8h15.4v-16.7H94.8V622.8z"/>
		</g>
		<g>
			<rect x="101.1" y="597" class="st9" width="2.6" height="8.3"/>
		</g>
		<g>
			<rect x="108.6" y="597" class="st9" width="2.6" height="7.9"/>
		</g>
		<g>
			<rect x="93.6" y="597" class="st9" width="2.6" height="7.9"/>
		</g>
		<g>
			<rect x="91.3" y="596.6" class="st9" width="22" height="2.6"/>
		</g>
		<g>
			<rect x="101" y="604.8" class="st9" width="2.6" height="19.3"/>
		</g>
		<g>
			<rect x="1145.8" y="587.6" class="st9" width="49.9" height="2.6"/>
		</g>
		<g>
			<rect x="1145.8" y="593.6" class="st9" width="49.9" height="2.6"/>
		</g>
		<g>
			<rect x="1145.8" y="599.7" class="st9" width="49.9" height="2.6"/>
		</g>
		<g>
			<rect x="1139.5" y="607" class="st9" width="63.4" height="2.6"/>
		</g>
		<g>
			<rect x="1152.9" y="584.1" class="st9" width="2.6" height="37.6"/>
		</g>
		<g>
			<rect x="1186.5" y="584.1" class="st9" width="2.6" height="37.6"/>
		</g>
		<g>
			<rect x="131" y="590.1" class="st9" width="49.9" height="2.6"/>
		</g>
		<g>
			<rect x="131" y="596.2" class="st9" width="49.9" height="2.6"/>
		</g>
		<g>
			<rect x="131" y="602.3" class="st9" width="49.9" height="2.6"/>
		</g>
		<g>
			<rect x="124.8" y="609.5" class="st9" width="63.4" height="2.6"/>
		</g>
		<g>
			<rect x="138.2" y="586.7" class="st9" width="2.6" height="37.6"/>
		</g>
		<g>
			<rect x="171.8" y="586.7" class="st9" width="2.6" height="37.6"/>
		</g>
		<g class="st10">
			<rect x="77.5" y="622.8" class="st9" width="1131.2" height="2.6"/>
		</g>
		<g>
			<polygon class="st9" points="588,234.6 585.4,234.6 585.4,104.9 610.6,104.9 689.8,151 689.6,196.7 687.1,196.6 687.2,152.5 
				609.9,107.5 588,107.5 			"/>
		</g>
		<g>
			<path class="st9" d="M629.1,197.5h-11.3v-56.2h11.3V197.5z M620.3,194.9h6.2v-51.1h-6.2V194.9z"/>
		</g>
		<g>
			<path class="st9" d="M645.3,197.5h-10.9V149h10.9V197.5z M637,194.9h5.8v-43.3H637V194.9z"/>
		</g>
		<g>
			<path class="st9" d="M661.1,197.5h-10.5V159h10.5V197.5z M653.2,194.9h5.4v-33.3h-5.4V194.9z"/>
		</g>
		<g>
			<path class="st9" d="M678.6,197.5h-11.3v-28.4h11.3V197.5z M669.9,194.9h6.2v-23.2h-6.2V194.9z"/>
		</g>
		<g>
			<polygon class="st9" points="791.3,572.5 788.7,572.5 788.7,264 703.2,197.5 620.3,197.5 620.3,235.5 617.7,235.5 617.7,194.9 
				704,194.9 704.4,195.2 791.3,262.7 			"/>
		</g>
		<g>
			<rect x="788.7" y="600" class="st9" width="2.6" height="23.8"/>
		</g>
		<g>
			<path class="st9" d="M691.2,339.1h-12.7V216.8h12.7V339.1z M681.1,336.5h7.6V219.4h-7.6V336.5z"/>
		</g>
		<g>
			<path class="st9" d="M691.2,480h-12.7V364.6h12.7V480z M681.1,477.4h7.6V367.1h-7.6V477.4z"/>
		</g>
		<g>
			<path class="st9" d="M691.2,625.1h-12.7V508.4h12.7V625.1z M681.1,622.5h7.6V510.9h-7.6V622.5z"/>
		</g>
		<g>
			<path class="st9" d="M778.2,453.7h-15.5v-16.6h15.5V453.7z M765.3,451.1h10.4v-11.4h-10.4V451.1z"/>
		</g>
		<g>
			<path class="st9" d="M778.2,482.3h-15.5v-16.6h15.5V482.3z M765.3,479.7h10.4v-11.4h-10.4V479.7z"/>
		</g>
		<g>
			<path class="st9" d="M753.4,453.7h-15.5v-16.6h15.5V453.7z M740.4,451.1h10.4v-11.4h-10.4V451.1z"/>
		</g>
		<g>
			<path class="st9" d="M753.4,482.3h-15.5v-16.6h15.5V482.3z M740.4,479.7h10.4v-11.4h-10.4V479.7z"/>
		</g>
		<g>
			<path class="st9" d="M728.5,453.7H713v-16.6h15.5V453.7z M715.6,451.1h10.4v-11.4h-10.4V451.1z"/>
		</g>
		<g>
			<path class="st9" d="M728.5,482.3H713v-16.6h15.5V482.3z M715.6,479.7h10.4v-11.4h-10.4V479.7z"/>
		</g>
		<g>
			<path class="st9" d="M778.2,510.5h-15.5v-16.6h15.5V510.5z M765.3,507.9h10.4v-11.4h-10.4V507.9z"/>
		</g>
		<g>
			<path class="st9" d="M778.2,539.1h-15.5v-16.6h15.5V539.1z M765.3,536.5h10.4v-11.4h-10.4V536.5z"/>
		</g>
		<g>
			<path class="st9" d="M753.4,510.5h-15.5v-16.6h15.5V510.5z M740.4,507.9h10.4v-11.4h-10.4V507.9z"/>
		</g>
		<g>
			<path class="st9" d="M753.4,539.1h-15.5v-16.6h15.5V539.1z M740.4,536.5h10.4v-11.4h-10.4V536.5z"/>
		</g>
		<g>
			<path class="st9" d="M728.5,510.5H713v-16.6h15.5V510.5z M715.6,507.9h10.4v-11.4h-10.4V507.9z"/>
		</g>
		<g>
			<path class="st9" d="M728.5,539.1H713v-16.6h15.5V539.1z M715.6,536.5h10.4v-11.4h-10.4V536.5z"/>
		</g>
		<g>
			<polygon class="st9" points="778.2,565.7 775.7,565.7 775.7,552.9 765.3,552.9 765.3,562.2 762.7,562.2 762.7,550.4 778.2,550.4 
							"/>
		</g>
		<g>
			<path class="st9" d="M753.4,566.9h-15.5v-16.6h15.5V566.9z M740.4,564.4h10.4v-11.4h-10.4V564.4z"/>
		</g>
		<g>
			<path class="st9" d="M728.5,566.9H713v-16.6h15.5V566.9z M715.6,564.4h10.4v-11.4h-10.4V564.4z"/>
		</g>
		<g>
			<path class="st9" d="M778.2,396.6h-15.5V380h15.5V396.6z M765.3,394h10.4v-11.4h-10.4V394z"/>
		</g>
		<g>
			<path class="st9" d="M778.2,425.2h-15.5v-16.6h15.5V425.2z M765.3,422.6h10.4v-11.4h-10.4V422.6z"/>
		</g>
		<g>
			<path class="st9" d="M753.4,396.6h-15.5V380h15.5V396.6z M740.4,394h10.4v-11.4h-10.4V394z"/>
		</g>
		<g>
			<path class="st9" d="M753.4,425.2h-15.5v-16.6h15.5V425.2z M740.4,422.6h10.4v-11.4h-10.4V422.6z"/>
		</g>
		<g>
			<path class="st9" d="M728.5,396.6H713V380h15.5V396.6z M715.6,394h10.4v-11.4h-10.4V394z"/>
		</g>
		<g>
			<path class="st9" d="M728.5,425.2H713v-16.6h15.5V425.2z M715.6,422.6h10.4v-11.4h-10.4V422.6z"/>
		</g>
		<g>
			<path class="st9" d="M778.2,339.4h-15.5v-16.6h15.5V339.4z M765.3,336.9h10.4v-11.4h-10.4V336.9z"/>
		</g>
		<g>
			<path class="st9" d="M778.2,368h-15.5v-16.6h15.5V368z M765.3,365.5h10.4v-11.4h-10.4V365.5z"/>
		</g>
		<g>
			<path class="st9" d="M753.4,339.4h-15.5v-16.6h15.5V339.4z M740.4,336.9h10.4v-11.4h-10.4V336.9z"/>
		</g>
		<g>
			<path class="st9" d="M753.4,368h-15.5v-16.6h15.5V368z M740.4,365.5h10.4v-11.4h-10.4V365.5z"/>
		</g>
		<g>
			<path class="st9" d="M728.5,339.4H713v-16.6h15.5V339.4z M715.6,336.9h10.4v-11.4h-10.4V336.9z"/>
		</g>
		<g>
			<path class="st9" d="M728.5,368H713v-16.6h15.5V368z M715.6,365.5h10.4v-11.4h-10.4V365.5z"/>
		</g>
		<g>
			<path class="st9" d="M665.9,567.3h-2.6v-278c0-24.6-17.2-46-41.9-51.9l-0.1,0c-3.3-1-6.7-1.5-10.1-1.5h-44.4c-0.6,0-1.2,0-1.7,0
				c-30,0.9-53.4,24.4-53.4,53.4v277.8h-2.6V289.3c0-14.7,5.8-28.5,16.3-39c10.5-10.5,24.5-16.5,39.6-16.9c0.6,0,1.2,0,1.8,0h44.4
				c3.7,0,7.3,0.6,10.9,1.6c25.8,6.2,43.8,28.5,43.8,54.4V567.3z"/>
		</g>
		<g>
			<rect x="550.8" y="548.6" class="st9" width="2.6" height="18.5"/>
		</g>
		<g>
			<rect x="550.8" y="516.7" class="st9" width="2.6" height="19.2"/>
		</g>
		<g>
			<rect x="550.8" y="483.4" class="st9" width="2.6" height="18.9"/>
		</g>
		<g>
			<rect x="550.8" y="449.5" class="st9" width="2.6" height="19.2"/>
		</g>
		<g>
			<rect x="550.8" y="415.4" class="st9" width="2.6" height="19.7"/>
		</g>
		<g>
			<rect x="550.8" y="382.4" class="st9" width="2.6" height="19.2"/>
		</g>
		<g>
			<rect x="550.8" y="349" class="st9" width="2.6" height="18.9"/>
		</g>
		<g>
			<rect x="550.8" y="317.5" class="st9" width="2.6" height="19.2"/>
		</g>
		<g>
			<rect x="550.8" y="286.2" class="st9" width="2.6" height="19.2"/>
		</g>
		<g>
			<path class="st9" d="M654.3,369.2h-139v-21.8h139V369.2z M517.9,366.7h133.8V350H517.9V366.7z"/>
		</g>
		<g>
			<path class="st9" d="M654.3,338h-139v-21.8h139V338z M517.9,335.4h133.8v-16.6H517.9V335.4z"/>
		</g>
		<g>
			<path class="st9" d="M654.3,306.8h-139V285h139V306.8z M517.9,304.2h133.8v-16.6H517.9V304.2z"/>
		</g>
		<g>
			<path class="st9" d="M654.3,402.8h-139v-21.8h139V402.8z M517.9,400.3h133.8v-16.6H517.9V400.3z"/>
		</g>
		<g>
			<path class="st9" d="M654.3,436.4h-139v-21.8h139V436.4z M517.9,433.9h133.8v-16.6H517.9V433.9z"/>
		</g>
		<g>
			<path class="st9" d="M654.3,470h-139v-21.8h139V470z M517.9,467.4h133.8v-16.6H517.9V467.4z"/>
		</g>
		<g>
			<path class="st9" d="M654.3,503.6h-139v-21.8h139V503.6z M517.9,501h133.8v-16.6H517.9V501z"/>
		</g>
		<g>
			<path class="st9" d="M654.3,537.2h-139v-21.8h139V537.2z M517.9,534.6h133.8V518H517.9V534.6z"/>
		</g>
		<g>
			<path class="st9" d="M654.3,568.6h-139v-21.4h139V568.6z M517.9,566h133.8v-16.3H517.9V566z"/>
		</g>
		<g>
			<path class="st9" d="M665.3,234h-15.5v-16.6h15.5V234z M652.4,231.5h10.4V220h-10.4V231.5z"/>
		</g>
		<g>
			<path class="st9" d="M659.9,625.1H501v-50.5h158.9V625.1z M503.6,622.5h153.8v-45.3H503.6V622.5z"/>
		</g>
		<g>
			<path class="st9" d="M612.9,624.7h-8.1V575h8.1V624.7z M607.3,622.1h3v-44.6h-3V622.1z"/>
		</g>
		<g>
			<path class="st9" d="M556,625.1h-8.1v-50.5h8.1V625.1z M550.4,622.5h3v-45.3h-3V622.5z"/>
		</g>
		<g>
			<path class="st9" d="M723.1,310.3h-10v-67.2h10V310.3z M715.6,307.7h4.9v-62.1h-4.9V307.7z"/>
		</g>
		<g>
			<path class="st9" d="M737.4,310.3h-10v-59.4h10V310.3z M729.9,307.7h4.9v-54.3h-4.9V307.7z"/>
		</g>
		<g>
			<path class="st9" d="M751.8,310.3h-10v-49.4h10V310.3z M744.3,307.7h4.9v-44.2h-4.9V307.7z"/>
		</g>
		<g>
			<path class="st9" d="M766.1,310.3h-10V271h10V310.3z M758.7,307.7h4.9v-34.1h-4.9V307.7z"/>
		</g>
		<g>
			<path class="st9" d="M780.5,310.3h-10v-29.7h10V310.3z M773,307.7h4.9v-24.6H773V307.7z"/>
		</g>
		<g>
			<path class="st9" d="M666,625.1h-171V566h171V625.1z M497.5,622.5h165.9v-53.9H497.5V622.5z"/>
		</g>
		<g>
			<rect x="583.8" y="286.4" class="st9" width="2.6" height="19.2"/>
		</g>
		<g>
			<rect x="620" y="286.3" class="st9" width="2.6" height="19.2"/>
		</g>
		<g>
			<rect x="583.8" y="317.7" class="st9" width="2.6" height="19.2"/>
		</g>
		<g>
			<rect x="620" y="317.6" class="st9" width="2.6" height="19.2"/>
		</g>
		<g>
			<rect x="583.8" y="349" class="st9" width="2.6" height="19.2"/>
		</g>
		<g>
			<rect x="620" y="348.9" class="st9" width="2.6" height="19.2"/>
		</g>
		<g>
			<rect x="583.8" y="383.4" class="st9" width="2.6" height="19.2"/>
		</g>
		<g>
			<rect x="620" y="383.3" class="st9" width="2.6" height="19.2"/>
		</g>
		<g>
			<rect x="583.8" y="416.3" class="st9" width="2.6" height="19.2"/>
		</g>
		<g>
			<rect x="620" y="416.2" class="st9" width="2.6" height="19.2"/>
		</g>
		<g>
			<rect x="583.8" y="450" class="st9" width="2.6" height="19.2"/>
		</g>
		<g>
			<rect x="620" y="449.9" class="st9" width="2.6" height="19.2"/>
		</g>
		<g>
			<rect x="583.8" y="483.6" class="st9" width="2.6" height="19.2"/>
		</g>
		<g>
			<rect x="620" y="483.5" class="st9" width="2.6" height="19.2"/>
		</g>
		<g>
			<rect x="583.8" y="517.3" class="st9" width="2.6" height="19.2"/>
		</g>
		<g>
			<rect x="620" y="517.2" class="st9" width="2.6" height="19.2"/>
		</g>
		<g>
			<rect x="583.8" y="548.6" class="st9" width="2.6" height="19.2"/>
		</g>
		<g>
			<rect x="620" y="548.5" class="st9" width="2.6" height="19.2"/>
		</g>
		<g>
			<rect x="609.4" y="106.2" class="st9" width="2.6" height="128.4"/>
		</g>
		<g>
			<rect x="702.3" y="196.2" class="st9" width="2.6" height="427.9"/>
		</g>
		<g>
			<polygon class="st9" points="254.9,623.5 252.3,623.5 252.3,309 291,291.2 292,293.6 254.9,310.7 			"/>
		</g>
		<g>
			<polygon class="st9" points="481.4,622.8 478.8,622.8 478.8,310 426.6,285.7 399.1,285.7 373.4,297.6 372.3,295.3 398.6,283.1 
				427.1,283.1 481.4,308.3 			"/>
		</g>
		<g>
			<path class="st9" d="M335.5,624.8h-17.6V283.1h17.6V624.8z M320.5,622.2H333V285.7h-12.5V622.2z"/>
		</g>
		<g>
			<path class="st9" d="M320.5,624.8h-29.8V283.1h29.8V624.8z M293.2,622.2h24.7V285.7h-24.7V622.2z"/>
		</g>
		<g>
			<path class="st9" d="M482,625H333V283.1h14.2l41.7,19.4h61.8l-42.1-19.4h18.8l54.3,25.3l0,0.8L482,625z M335.5,622.4h143.8
				L479.1,310l-52.3-24.4h-6.5l42.1,19.4h-74.1l-41.7-19.4h-11.1V622.4z"/>
		</g>
		<g>
			<polygon class="st9" points="481.8,618.3 479.2,618.3 479.2,614.6 389.4,614.6 389.4,618.3 386.8,618.3 386.8,612 481.8,612 			
				"/>
		</g>
		<g>
			<polygon class="st9" points="335.6,618.3 333.1,618.3 333.1,614.6 320.5,614.6 320.5,618.3 317.9,618.3 317.9,612 335.6,612 			
				"/>
		</g>
		<g>
			<polygon class="st9" points="335.6,625 317.9,625 317.9,618.3 320.5,618.3 320.5,622.4 333.1,622.4 333.1,618.3 335.6,618.3 			
				"/>
		</g>
		<g>
			<polygon class="st9" points="320.5,618.3 317.9,618.3 317.9,614.6 293.1,614.6 293.1,618.3 290.5,618.3 290.5,612 320.5,612 			
				"/>
		</g>
		<g>
			<polygon class="st9" points="320.5,625 290.5,625 290.5,618.3 293.1,618.3 293.1,622.4 317.9,622.4 317.9,618.3 320.5,618.3 			
				"/>
		</g>
		<g>
			<polygon class="st9" points="293.2,618.3 290.6,618.3 290.6,614.6 254.9,614.6 254.9,618.3 252.3,618.3 252.3,612 293.2,612 			
				"/>
		</g>
		<g>
			<polygon class="st9" points="293.2,625 252.3,625 252.3,618.3 254.9,618.3 254.9,622.4 290.6,622.4 290.6,618.3 293.2,618.3 			
				"/>
		</g>
		<g>
			<polygon class="st9" points="389.4,618.3 386.8,618.3 386.8,614.6 335.6,614.6 335.6,618.3 333.1,618.3 333.1,612 389.4,612 			
				"/>
		</g>
		<g>
			<polygon class="st9" points="389.4,625 333.1,625 333.1,618.3 335.6,618.3 335.6,622.4 386.8,622.4 386.8,618.3 389.4,618.3 			
				"/>
		</g>
		<g>
			<path class="st9" d="M419,352.1h-14.7v-19.2H419V352.1z M406.9,349.5h9.6v-14.1h-9.6V349.5z"/>
		</g>
		<g>
			<path class="st9" d="M419,382.2h-14.7V363H419V382.2z M406.9,379.6h9.6v-14.1h-9.6V379.6z"/>
		</g>
		<g>
			<path class="st9" d="M419,412.3h-14.7V393H419V412.3z M406.9,409.7h9.6v-14.1h-9.6V409.7z"/>
		</g>
		<g>
			<path class="st9" d="M419,442.3h-14.7v-19.2H419V442.3z M406.9,439.8h9.6v-14.1h-9.6V439.8z"/>
		</g>
		<g>
			<path class="st9" d="M419,472.4h-14.7v-19.2H419V472.4z M406.9,469.9h9.6v-14.1h-9.6V469.9z"/>
		</g>
		<g>
			<path class="st9" d="M419,502.5h-14.7v-19.2H419V502.5z M406.9,499.9h9.6v-14.1h-9.6V499.9z"/>
		</g>
		<g>
			<path class="st9" d="M419,532.6h-14.7v-19.2H419V532.6z M406.9,530h9.6v-14.1h-9.6V530z"/>
		</g>
		<g>
			<path class="st9" d="M419,562.7h-14.7v-19.2H419V562.7z M406.9,560.1h9.6V546h-9.6V560.1z"/>
		</g>
		<g>
			<path class="st9" d="M419,592.7h-14.7v-19.2H419V592.7z M406.9,590.2h9.6v-14.1h-9.6V590.2z"/>
		</g>
		<g>
			<path class="st9" d="M313.6,319.8h-14.7v-19.2h14.7V319.8z M301.4,317.3h9.6v-14.1h-9.6V317.3z"/>
		</g>
		<g>
			<path class="st9" d="M313.6,349.9h-14.7v-19.2h14.7V349.9z M301.4,347.3h9.6v-14.1h-9.6V347.3z"/>
		</g>
		<g>
			<path class="st9" d="M313.6,380h-14.7v-19.2h14.7V380z M301.4,377.4h9.6v-14.1h-9.6V377.4z"/>
		</g>
		<g>
			<path class="st9" d="M313.6,410.1h-14.7v-19.2h14.7V410.1z M301.4,407.5h9.6v-14.1h-9.6V407.5z"/>
		</g>
		<g>
			<path class="st9" d="M313.6,440.2h-14.7v-19.2h14.7V440.2z M301.4,437.6h9.6v-14.1h-9.6V437.6z"/>
		</g>
		<g>
			<path class="st9" d="M313.6,470.2h-14.7V451h14.7V470.2z M301.4,467.7h9.6v-14.1h-9.6V467.7z"/>
		</g>
		<g>
			<path class="st9" d="M313.6,500.3h-14.7v-19.2h14.7V500.3z M301.4,497.8h9.6v-14.1h-9.6V497.8z"/>
		</g>
		<g>
			<path class="st9" d="M313.6,530.4h-14.7v-19.2h14.7V530.4z M301.4,527.8h9.6v-14.1h-9.6V527.8z"/>
		</g>
		<g>
			<path class="st9" d="M313.6,560.5h-14.7v-19.2h14.7V560.5z M301.4,557.9h9.6v-14.1h-9.6V557.9z"/>
		</g>
		<g>
			<path class="st9" d="M313.6,590.1h-14.7v-19.2h14.7V590.1z M301.4,587.5h9.6v-14.1h-9.6V587.5z"/>
		</g>
		<g>
			<path class="st9" d="M375,348.2h-28.6v-15.8H375V348.2z M349,345.6h23.5V335H349V345.6z"/>
		</g>
		<g>
			<path class="st9" d="M375,378.3h-28.6v-15.8H375V378.3z M349,375.7h23.5v-10.6H349V375.7z"/>
		</g>
		<g>
			<path class="st9" d="M375,408.4h-28.6v-15.8H375V408.4z M349,405.9h23.5v-10.6H349V405.9z"/>
		</g>
		<g>
			<path class="st9" d="M375,438.6h-28.6v-15.8H375V438.6z M349,436h23.5v-10.6H349V436z"/>
		</g>
		<g>
			<path class="st9" d="M375,468.7h-28.6V453H375V468.7z M349,466.2h23.5v-10.6H349V466.2z"/>
		</g>
		<g>
			<path class="st9" d="M375,498.9h-28.6v-15.8H375V498.9z M349,496.3h23.5v-10.6H349V496.3z"/>
		</g>
		<g>
			<path class="st9" d="M375,529h-28.6v-15.8H375V529z M349,526.5h23.5v-10.6H349V526.5z"/>
		</g>
		<g>
			<path class="st9" d="M375,559.2h-28.6v-15.8H375V559.2z M349,556.6h23.5V546H349V556.6z"/>
		</g>
		<g>
			<path class="st9" d="M375,589.3h-28.6v-15.8H375V589.3z M349,586.7h23.5v-10.6H349V586.7z"/>
		</g>
		<g>
			<path class="st9" d="M293.2,348.2h-22.1v-15.8h22.1V348.2z M273.6,345.6h17V335h-17V345.6z"/>
		</g>
		<g>
			<path class="st9" d="M293.2,378.3h-22.1v-15.8h22.1V378.3z M273.6,375.7h17v-10.6h-17V375.7z"/>
		</g>
		<g>
			<path class="st9" d="M293.2,408.4h-22.1v-15.8h22.1V408.4z M273.6,405.9h17v-10.6h-17V405.9z"/>
		</g>
		<g>
			<path class="st9" d="M293.2,438.6h-22.1v-15.8h22.1V438.6z M273.6,436h17v-10.6h-17V436z"/>
		</g>
		<g>
			<path class="st9" d="M293.2,468.7h-22.1V453h22.1V468.7z M273.6,466.2h17v-10.6h-17V466.2z"/>
		</g>
		<g>
			<path class="st9" d="M293.2,498.9h-22.1v-15.8h22.1V498.9z M273.6,496.3h17v-10.6h-17V496.3z"/>
		</g>
		<g>
			<path class="st9" d="M293.2,529h-22.1v-15.8h22.1V529z M273.6,526.5h17v-10.6h-17V526.5z"/>
		</g>
		<g>
			<path class="st9" d="M293.2,559.2h-22.1v-15.8h22.1V559.2z M273.6,556.6h17V546h-17V556.6z"/>
		</g>
		<g>
			<path class="st9" d="M293.2,589.3h-22.1v-15.8h22.1V589.3z M273.6,586.7h17v-10.6h-17V586.7z"/>
		</g>
		<g>
			<polygon class="st9" points="480.4,311.5 387.1,311.5 333.7,285.5 334.8,283.2 387.7,308.9 480.4,308.9 			"/>
		</g>
		<g>
			<rect x="386.8" y="310.2" class="st9" width="2.6" height="303.1"/>
		</g>
		<g>
			<path class="st9" d="M466.8,352.1h-14.7v-19.2h14.7V352.1z M454.6,349.5h9.6v-14.1h-9.6V349.5z"/>
		</g>
		<g>
			<path class="st9" d="M466.8,382.2h-14.7V363h14.7V382.2z M454.6,379.6h9.6v-14.1h-9.6V379.6z"/>
		</g>
		<g>
			<path class="st9" d="M466.8,412.3h-14.7V393h14.7V412.3z M454.6,409.7h9.6v-14.1h-9.6V409.7z"/>
		</g>
		<g>
			<path class="st9" d="M466.8,442.3h-14.7v-19.2h14.7V442.3z M454.6,439.8h9.6v-14.1h-9.6V439.8z"/>
		</g>
		<g>
			<path class="st9" d="M466.8,472.4h-14.7v-19.2h14.7V472.4z M454.6,469.9h9.6v-14.1h-9.6V469.9z"/>
		</g>
		<g>
			<path class="st9" d="M466.8,502.5h-14.7v-19.2h14.7V502.5z M454.6,499.9h9.6v-14.1h-9.6V499.9z"/>
		</g>
		<g>
			<path class="st9" d="M466.8,532.6h-14.7v-19.2h14.7V532.6z M454.6,530h9.6v-14.1h-9.6V530z"/>
		</g>
		<g>
			<path class="st9" d="M466.8,562.7h-14.7v-19.2h14.7V562.7z M454.6,560.1h9.6V546h-9.6V560.1z"/>
		</g>
		<g>
			<path class="st9" d="M466.8,592.7h-14.7v-19.2h14.7V592.7z M454.6,590.2h9.6v-14.1h-9.6V590.2z"/>
		</g>
		<g>
			<path class="st9" d="M442.9,352.1h-14.7v-19.2h14.7V352.1z M430.8,349.5h9.6v-14.1h-9.6V349.5z"/>
		</g>
		<g>
			<path class="st9" d="M442.9,382.2h-14.7V363h14.7V382.2z M430.8,379.6h9.6v-14.1h-9.6V379.6z"/>
		</g>
		<g>
			<path class="st9" d="M442.9,412.3h-14.7V393h14.7V412.3z M430.8,409.7h9.6v-14.1h-9.6V409.7z"/>
		</g>
		<g>
			<path class="st9" d="M442.9,442.3h-14.7v-19.2h14.7V442.3z M430.8,439.8h9.6v-14.1h-9.6V439.8z"/>
		</g>
		<g>
			<path class="st9" d="M442.9,472.4h-14.7v-19.2h14.7V472.4z M430.8,469.9h9.6v-14.1h-9.6V469.9z"/>
		</g>
		<g>
			<path class="st9" d="M442.9,502.5h-14.7v-19.2h14.7V502.5z M430.8,499.9h9.6v-14.1h-9.6V499.9z"/>
		</g>
		<g>
			<path class="st9" d="M442.9,532.6h-14.7v-19.2h14.7V532.6z M430.8,530h9.6v-14.1h-9.6V530z"/>
		</g>
		<g>
			<path class="st9" d="M442.9,562.7h-14.7v-19.2h14.7V562.7z M430.8,560.1h9.6V546h-9.6V560.1z"/>
		</g>
		<g>
			<path class="st9" d="M442.9,592.7h-14.7v-19.2h14.7V592.7z M430.8,590.2h9.6v-14.1h-9.6V590.2z"/>
		</g>
		<g>
			<rect x="1033.8" y="342.5" class="st9" width="2.6" height="25"/>
		</g>
		<g>
			<polygon class="st9" points="972.3,623.2 969.7,623.2 969.7,293.9 860.9,293.9 860.9,399.1 858.3,399.1 858.3,291.4 972.3,291.4 
							"/>
		</g>
		<g>
			<polygon class="st9" points="972.3,623.2 969.7,623.2 969.7,613.9 1019.4,613.9 1019.4,616.5 972.3,616.5 			"/>
		</g>
		<g>
			<path class="st9" d="M972.3,625.4h-21.5v-11.5h21.5V625.4z M953.4,622.8h16.4v-6.3h-16.4V622.8z"/>
		</g>
		<g>
			<path class="st9" d="M1036.1,293.9h-63.9v-10.1h63.9V293.9z M974.7,291.4h58.8v-5h-58.8V291.4z"/>
		</g>
		<g>
			<path class="st9" d="M974.7,293.9H855v-10.1h119.7V293.9z M857.6,291.4h114.6v-5H857.6V291.4z"/>
		</g>
		<g>
			<path class="st9" d="M953.4,616.4h-53.2l0.6-177.4l52.6-38.7L953.4,616.4z M902.8,613.9h48l0-208.5l-47.5,35L902.8,613.9z"/>
		</g>
		<g>
			<path class="st9" d="M933.5,337.2h-17.1v-16.8h17.1V337.2z M918.9,334.7h12V323h-12V334.7z"/>
		</g>
		<g>
			<path class="st9" d="M956.5,337.2h-17.1v-16.8h17.1V337.2z M941.9,334.7h12V323h-12V334.7z"/>
		</g>
		<g>
			<path class="st9" d="M887.5,337.2h-17.1v-16.8h17.1V337.2z M873,334.7h12V323h-12V334.7z"/>
		</g>
		<g>
			<path class="st9" d="M910.5,337.2h-17.1v-16.8h17.1V337.2z M895.9,334.7h12V323h-12V334.7z"/>
		</g>
		<g>
			<path class="st9" d="M933.5,363h-17.1v-16.8h17.1V363z M918.9,360.4h12v-11.7h-12V360.4z"/>
		</g>
		<g>
			<path class="st9" d="M956.5,363h-17.1v-16.8h17.1V363z M941.9,360.4h12v-11.7h-12V360.4z"/>
		</g>
		<g>
			<path class="st9" d="M887.5,363h-17.1v-16.8h17.1V363z M873,360.4h12v-11.7h-12V360.4z"/>
		</g>
		<g>
			<path class="st9" d="M910.5,363h-17.1v-16.8h17.1V363z M895.9,360.4h12v-11.7h-12V360.4z"/>
		</g>
		<g>
			<path class="st9" d="M933.5,389.5h-17.1v-16.8h17.1V389.5z M918.9,386.9h12v-11.7h-12V386.9z"/>
		</g>
		<g>
			<path class="st9" d="M956.5,389.5h-17.1v-16.8h17.1V389.5z M941.9,386.9h12v-11.7h-12V386.9z"/>
		</g>
		<g>
			<path class="st9" d="M887.5,389.5h-17.1v-16.8h17.1V389.5z M873,386.9h12v-11.7h-12V386.9z"/>
		</g>
		<g>
			<path class="st9" d="M910.5,389.5h-17.1v-16.8h17.1V389.5z M895.9,386.9h12v-11.7h-12V386.9z"/>
		</g>
		<g>
			<path class="st9" d="M903.1,616.5l-32.9-0.3h-59.6V438.4h92.7L903.1,616.5z M813.2,613.6h57l30.3,0.3l0.2-173h-87.5V613.6z"/>
		</g>
		<g>
			<path class="st9" d="M902.4,441h-93.9l-2.9-4.6l53.5-38.6l94.2,0l-0.1,5.7L902.4,441z M810,438.4h91.6l49.2-36.2l0-1.8l-90.8,0
				l-50.9,36.7L810,438.4z"/>
		</g>
		<g>
			<path class="st9" d="M953.4,625.4h-53.2v-11.5h53.2V625.4z M902.8,622.8h48.1v-6.3h-48.1V622.8z"/>
		</g>
		<g>
			<path class="st9" d="M990,343.8h-10.8v-10.9H990V343.8z M981.8,341.2h5.7v-5.8h-5.7V341.2z"/>
		</g>
		<g>
			<path class="st9" d="M1038.3,343.8h-51v-10.9h51V343.8z M990,341.2h45.8v-5.8H990V341.2z"/>
		</g>
		<g>
			<path class="st9" d="M850.6,471.8H828v-18.6h22.6V471.8z M830.6,469.2H848v-13.5h-17.4V469.2z"/>
		</g>
		<g>
			<path class="st9" d="M850.6,479.9h-11.8v-10.7h11.8V479.9z M841.4,477.4h6.6v-5.6h-6.6V477.4z"/>
		</g>
		<g>
			<path class="st9" d="M841.5,479.9h-22.8v-10.7h22.8V479.9z M821.2,477.4h17.7v-5.6h-17.7V477.4z"/>
		</g>
		<g>
			<path class="st9" d="M890.2,471.8h-22.6v-18.6h22.6V471.8z M870.2,469.2h17.4v-13.5h-17.4V469.2z"/>
		</g>
		<g>
			<path class="st9" d="M890.2,479.9h-11.8v-10.7h11.8V479.9z M881,477.4h6.6v-5.6H881V477.4z"/>
		</g>
		<g>
			<path class="st9" d="M881.1,479.9h-22.8v-10.7h22.8V479.9z M860.8,477.4h17.7v-5.6h-17.7V477.4z"/>
		</g>
		<g>
			<path class="st9" d="M850.6,509.9H828v-18.6h22.6V509.9z M830.6,507.3H848v-13.5h-17.4V507.3z"/>
		</g>
		<g>
			<path class="st9" d="M850.6,518h-11.8v-10.7h11.8V518z M841.4,515.4h6.6v-5.6h-6.6V515.4z"/>
		</g>
		<g>
			<path class="st9" d="M841.5,518h-22.8v-10.7h22.8V518z M821.2,515.4h17.7v-5.6h-17.7V515.4z"/>
		</g>
		<g>
			<path class="st9" d="M890.2,509.9h-22.6v-18.6h22.6V509.9z M870.2,507.3h17.4v-13.5h-17.4V507.3z"/>
		</g>
		<g>
			<path class="st9" d="M890.2,518h-11.8v-10.7h11.8V518z M881,515.4h6.6v-5.6H881V515.4z"/>
		</g>
		<g>
			<path class="st9" d="M881.1,518h-22.8v-10.7h22.8V518z M860.8,515.4h17.7v-5.6h-17.7V515.4z"/>
		</g>
		<g>
			<path class="st9" d="M850.6,547.9H828v-18.6h22.6V547.9z M830.6,545.4H848v-13.5h-17.4V545.4z"/>
		</g>
		<g>
			<path class="st9" d="M850.6,556.1h-11.8v-10.7h11.8V556.1z M841.4,553.5h6.6v-5.6h-6.6V553.5z"/>
		</g>
		<g>
			<path class="st9" d="M841.5,556.1h-22.8v-10.7h22.8V556.1z M821.2,553.5h17.7v-5.6h-17.7V553.5z"/>
		</g>
		<g>
			<path class="st9" d="M890.2,547.9h-22.6v-18.6h22.6V547.9z M870.2,545.4h17.4v-13.5h-17.4V545.4z"/>
		</g>
		<g>
			<path class="st9" d="M890.2,556.1h-11.8v-10.7h11.8V556.1z M881,553.5h6.6v-5.6H881V553.5z"/>
		</g>
		<g>
			<path class="st9" d="M881.1,556.1h-22.8v-10.7h22.8V556.1z M860.8,553.5h17.7v-5.6h-17.7V553.5z"/>
		</g>
		<g>
			<path class="st9" d="M850.6,586H828v-18.6h22.6V586z M830.6,583.4H848V570h-17.4V583.4z"/>
		</g>
		<g>
			<path class="st9" d="M850.6,594.1h-11.8v-10.7h11.8V594.1z M841.4,591.5h6.6v-5.6h-6.6V591.5z"/>
		</g>
		<g>
			<path class="st9" d="M841.5,594.1h-22.8v-10.7h22.8V594.1z M821.2,591.5h17.7v-5.6h-17.7V591.5z"/>
		</g>
		<g>
			<path class="st9" d="M890.2,586h-22.6v-18.6h22.6V586z M870.2,583.4h17.4V570h-17.4V583.4z"/>
		</g>
		<g>
			<path class="st9" d="M890.2,594.1h-11.8v-10.7h11.8V594.1z M881,591.5h6.6v-5.6H881V591.5z"/>
		</g>
		<g>
			<path class="st9" d="M881.1,594.1h-22.8v-10.7h22.8V594.1z M860.8,591.5h17.7v-5.6h-17.7V591.5z"/>
		</g>
		<g>
			<path class="st9" d="M902.7,625.4h-92.1v-11.5h92.1V625.4z M813.2,622.8h86.9v-6.3h-86.9V622.8z"/>
		</g>
		<g>
			<path class="st9" d="M944.5,467.2h-36.6v-16.8h36.6V467.2z M910.5,464.6h31.4V453h-31.4V464.6z"/>
		</g>
		<g>
			<path class="st9" d="M944.5,494.3h-36.6v-16.8h36.6V494.3z M910.5,491.7h31.4v-11.6h-31.4V491.7z"/>
		</g>
		<g>
			<path class="st9" d="M944.5,521.5h-36.6v-16.8h36.6V521.5z M910.5,518.9h31.4v-11.6h-31.4V518.9z"/>
		</g>
		<g>
			<path class="st9" d="M944.5,548.6h-36.6v-16.8h36.6V548.6z M910.5,546h31.4v-11.6h-31.4V546z"/>
		</g>
		<g>
			<path class="st9" d="M944.5,575.7h-36.6V559h36.6V575.7z M910.5,573.2h31.4v-11.6h-31.4V573.2z"/>
		</g>
		<g>
			<path class="st9" d="M1024.5,335.4h-37.1V317h37.1V335.4z M990,332.9h32v-13.3h-32V332.9z"/>
		</g>
		<g>
			<rect x="1033.8" y="376.1" class="st9" width="2.6" height="25"/>
		</g>
		<g>
			<path class="st9" d="M990,377.4h-10.8v-10.9H990V377.4z M981.8,374.8h5.7v-5.8h-5.7V374.8z"/>
		</g>
		<g>
			<path class="st9" d="M1038.3,377.4h-51v-10.9h51V377.4z M990,374.8h45.8v-5.8H990V374.8z"/>
		</g>
		<g>
			<path class="st9" d="M1024.5,369.1h-37.1v-18.4h37.1V369.1z M990,366.5h32v-13.3h-32V366.5z"/>
		</g>
		<g>
			<rect x="1033.8" y="409.7" class="st9" width="2.6" height="25"/>
		</g>
		<g>
			<path class="st9" d="M990,411h-10.8v-10.9H990V411z M981.8,408.5h5.7v-5.8h-5.7V408.5z"/>
		</g>
		<g>
			<path class="st9" d="M1038.3,411h-51v-10.9h51V411z M990,408.5h45.8v-5.8H990V408.5z"/>
		</g>
		<g>
			<path class="st9" d="M1024.5,402.7h-37.1v-18.4h37.1V402.7z M990,400.1h32v-13.3h-32V400.1z"/>
		</g>
		<g>
			<rect x="1033.8" y="443.4" class="st9" width="2.6" height="25"/>
		</g>
		<g>
			<path class="st9" d="M990,444.7h-10.8v-10.9H990V444.7z M981.8,442.1h5.7v-5.8h-5.7V442.1z"/>
		</g>
		<g>
			<path class="st9" d="M1038.3,444.7h-51v-10.9h51V444.7z M990,442.1h45.8v-5.8H990V442.1z"/>
		</g>
		<g>
			<path class="st9" d="M1024.5,436.3h-37.1v-18.4h37.1V436.3z M990,433.7h32v-13.3h-32V433.7z"/>
		</g>
		<g>
			<rect x="1033.8" y="477" class="st9" width="2.6" height="25"/>
		</g>
		<g>
			<path class="st9" d="M990,478.3h-10.8v-10.9H990V478.3z M981.8,475.7h5.7v-5.8h-5.7V475.7z"/>
		</g>
		<g>
			<path class="st9" d="M1038.3,478.3h-51v-10.9h51V478.3z M990,475.7h45.8v-5.8H990V475.7z"/>
		</g>
		<g>
			<path class="st9" d="M1024.5,469.9h-37.1v-18.4h37.1V469.9z M990,467.4h32v-13.3h-32V467.4z"/>
		</g>
		<g>
			<rect x="1033.8" y="510.6" class="st9" width="2.6" height="25"/>
		</g>
		<g>
			<path class="st9" d="M990,511.9h-10.8V501H990V511.9z M981.8,509.3h5.7v-5.8h-5.7V509.3z"/>
		</g>
		<g>
			<path class="st9" d="M1038.3,511.9h-51V501h51V511.9z M990,509.3h45.8v-5.8H990V509.3z"/>
		</g>
		<g>
			<path class="st9" d="M1024.5,503.6h-37.1v-18.4h37.1V503.6z M990,501h32v-13.3h-32V501z"/>
		</g>
		<g>
			<rect x="1033.8" y="544.3" class="st9" width="2.6" height="25"/>
		</g>
		<g>
			<path class="st9" d="M990,545.5h-10.8v-10.9H990V545.5z M981.8,543h5.7v-5.8h-5.7V543z"/>
		</g>
		<g>
			<path class="st9" d="M1038.3,545.5h-51v-10.9h51V545.5z M990,543h45.8v-5.8H990V543z"/>
		</g>
		<g>
			<path class="st9" d="M1024.5,537.2h-37.1v-18.4h37.1V537.2z M990,534.6h32v-13.3h-32V534.6z"/>
		</g>
		<g>
			<rect x="1031" y="577.9" class="st9" width="2.6" height="29.1"/>
		</g>
		<g>
			<path class="st9" d="M990,579.2h-10.8v-10.9H990V579.2z M981.8,576.6h5.7v-5.8h-5.7V576.6z"/>
		</g>
		<g>
			<path class="st9" d="M1038.3,579.2h-51v-10.9h51V579.2z M990,576.6h45.8v-5.8H990V576.6z"/>
		</g>
		<g>
			<path class="st9" d="M1024.5,570.8h-37.1v-18.4h37.1V570.8z M990,568.3h32V555h-32V568.3z"/>
		</g>
		<g>
			<rect x="1030.9" y="292.7" class="st9" width="2.6" height="39.5"/>
		</g>
		<g>
			<path class="st9" d="M211,587.3c-4.3,0-8.5-1.4-11.9-3.9c-1.4,0.5-2.9,0.7-4.4,0.7c-7.5,0-13.5-6.1-13.5-13.5
				c0-1.7,0.3-3.4,0.9-5c-3.3-2.6-5.2-6.5-5.2-10.7c0-5.3,3.2-10.1,8-12.3c-0.3-1.5-0.5-3.1-0.5-4.7c0-6.6,3.1-12.9,8.3-17
				c-0.3-1.2-0.5-2.3-0.5-3.5c0-7.5,6.1-13.5,13.5-13.5c7.5,0,13.5,6.1,13.5,13.5c0,1-0.1,2.1-0.4,3.1c5.6,4.1,8.9,10.5,8.9,17.5
				c0,1.5-0.1,2.9-0.4,4.4c4.8,2.2,7.9,7,7.9,12.3c0,3.7-1.5,7.3-4.3,9.8c0.1,0.9,0.2,1.8,0.2,2.7
				C231.1,578.3,222.1,587.3,211,587.3z M199.6,580.4l0.6,0.5c3.1,2.5,6.9,3.8,10.9,3.8c9.7,0,17.5-7.9,17.5-17.5c0-1-0.1-2-0.3-3
				l-0.1-0.7l0.6-0.5c2.5-2.1,3.9-5.1,3.9-8.4c0-4.6-2.9-8.7-7.3-10.3l-1.1-0.4l0.3-1.1c0.4-1.6,0.6-3.2,0.6-4.8
				c0-6.4-3.2-12.3-8.5-15.9l-0.8-0.5l0.3-0.9c0.3-1,0.5-2.1,0.5-3.2c0-6-4.9-10.9-10.9-10.9c-6,0-10.9,4.9-10.9,10.9
				c0,1.2,0.2,2.4,0.6,3.6l0.3,0.9l-0.8,0.6c-5,3.6-8,9.4-8,15.5c0,1.7,0.2,3.5,0.7,5.1l0.3,1.2l-1.1,0.4c-4.4,1.5-7.3,5.7-7.3,10.3
				c0,3.7,1.8,7.1,4.9,9.1l0.9,0.6l-0.5,1c-0.7,1.5-1.1,3.1-1.1,4.8c0,6,4.9,10.9,10.9,10.9c1.4,0,2.8-0.3,4.1-0.8L199.6,580.4z"/>
		</g>
		<g>
			<rect x="205.8" y="549.9" class="st9" width="2.6" height="73.2"/>
		</g>
		<g>
			
				<rect x="205.7" y="558.9" transform="matrix(0.7071 -0.7071 0.7071 0.7071 -334.0442 313.8405)" class="st9" width="12.3" height="2.6"/>
		</g>
		<g>
			<path class="st9" d="M1125.1,588.5c-4.3,0-8.5-1.4-11.9-3.9c-1.4,0.5-2.9,0.7-4.4,0.7c-7.5,0-13.5-6.1-13.5-13.5
				c0-1.7,0.3-3.4,0.9-5c-3.3-2.6-5.2-6.5-5.2-10.7c0-5.3,3.2-10.1,8-12.3c-0.3-1.5-0.5-3.1-0.5-4.7c0-6.6,3.1-12.9,8.3-17
				c-0.3-1.2-0.5-2.3-0.5-3.5c0-7.5,6.1-13.5,13.5-13.5c7.5,0,13.5,6.1,13.5,13.5c0,1-0.1,2.1-0.4,3.1c5.6,4.1,8.9,10.5,8.9,17.5
				c0,1.5-0.1,2.9-0.4,4.4c4.8,2.2,7.9,7,7.9,12.3c0,3.7-1.5,7.3-4.3,9.8c0.1,0.9,0.2,1.8,0.2,2.7
				C1145.1,579.5,1136.1,588.5,1125.1,588.5z M1113.6,581.6l0.6,0.5c3.1,2.5,6.9,3.8,10.9,3.8c9.7,0,17.5-7.9,17.5-17.5
				c0-1-0.1-2-0.3-3l-0.1-0.7l0.6-0.5c2.5-2.1,3.9-5.1,3.9-8.4c0-4.6-2.9-8.7-7.3-10.3l-1.1-0.4l0.3-1.1c0.4-1.6,0.6-3.2,0.6-4.8
				c0-6.4-3.2-12.3-8.5-15.9l-0.8-0.5l0.3-0.9c0.3-1,0.5-2.1,0.5-3.2c0-6-4.9-10.9-10.9-10.9s-10.9,4.9-10.9,10.9
				c0,1.2,0.2,2.4,0.6,3.6l0.3,0.9l-0.8,0.6c-5,3.6-8,9.4-8,15.5c0,1.7,0.2,3.5,0.7,5.1l0.3,1.2l-1.1,0.4c-4.4,1.5-7.3,5.7-7.3,10.3
				c0,3.7,1.8,7.1,4.9,9.1l0.9,0.6l-0.5,1c-0.7,1.5-1.1,3.1-1.1,4.8c0,6,4.9,10.9,10.9,10.9c1.4,0,2.8-0.3,4.1-0.8L1113.6,581.6z"/>
		</g>
		<g>
			<rect x="1119.8" y="551" class="st9" width="2.6" height="73.2"/>
		</g>
		<g>
			
				<rect x="1119.7" y="560.1" transform="matrix(0.7071 -0.7071 0.7071 0.7071 -67.1734 960.4973)" class="st9" width="12.3" height="2.6"/>
		</g>
		<g>
			<path class="st9" d="M1099.5,625.4h-84.2l0.1-1.4c0.8-9.6,8.9-17.2,18.6-17.2c2.5,0,5,0.5,7.2,1.5c1.4-6,6.8-10.5,13.1-10.5
				c6.3,0,11.6,4.3,13.1,10.3c1.5-0.7,3.1-1,4.7-1c5,0,9.4,3.3,10.9,8h1.8c1.7-2,4.1-3.1,6.8-3.1c5,0,9,4,9,9c0,1.3-0.3,2.5-0.8,3.7
				L1099.5,625.4z M1018.2,622.8h79.6c0.2-0.6,0.3-1.2,0.3-1.8c0-3.5-2.9-6.4-6.4-6.4c-2,0-3.9,0.9-5.1,2.6l-0.4,0.5h-5.1l-0.2-1
				c-0.9-4.1-4.5-7-8.7-7c-1.8,0-3.5,0.5-5,1.5l-1.8,1.2l-0.2-2.2c-0.5-5.6-5.2-9.8-10.8-9.8c-5.6,0-10.4,4.4-10.8,10l-0.2,2
				l-1.7-0.9c-2.3-1.3-5-1.9-7.6-1.9C1026.2,609.4,1019.4,615.2,1018.2,622.8z"/>
		</g>
		<g>
			<rect x="1064.7" y="539.5" class="st9" width="2.6" height="68.1"/>
		</g>
		<g>
			<path class="st9" d="M1071.1,535.8h-10.3l-4.5-13.4v-4.1h19.1l-0.1,4.1L1071.1,535.8z M1062.7,533.2h6.6l3.5-11.3l0-1.1h-13.9
				v1.1L1062.7,533.2z"/>
		</g>
		<g>
			<path class="st9" d="M1071.3,535.8H1061l-4.5-13.4v-4.1h19.1l-0.1,4.1L1071.3,535.8z M1062.8,533.2h6.6l3.5-11.3l0-1.1H1059v1.1
				L1062.8,533.2z"/>
		</g>
		<g>
			<rect x="1063.1" y="558.4" class="st9" width="6" height="2.6"/>
		</g>
		<g>
			<rect x="1063" y="538.1" class="st9" width="6" height="2.6"/>
		</g>
		<g>
			<rect x="1059.4" y="533.2" class="st9" width="13.2" height="2.6"/>
		</g>
		<g>
			<path class="st9" d="M756.7,610.1c-5.9,0-11.2-3.4-13.8-8.7c-0.5,0-0.9,0.1-1.3,0.1c-8.4,0-15.3-6.9-15.3-15.3
				c0-8.4,6.9-15.3,15.3-15.3c2.1,0,4.2,0.4,6.1,1.3c3.3-6.9,10.2-11.3,18-11.3c7.3,0,14.1,4.1,17.6,10.5c1.2-0.3,2.4-0.4,3.6-0.4
				c8.4,0,15.3,6.9,15.3,15.3c0,8.4-6.9,15.3-15.3,15.3c-3.8,0-7.4-1.4-10.3-4c-1.7,1.1-3.6,2-5.5,2.5
				C768.9,606.1,763.2,610.1,756.7,610.1z M744.5,598.6l0.4,0.9c1.9,4.9,6.6,8,11.8,8c5.6,0,10.5-3.6,12.2-9l0.2-0.7l0.7-0.2
				c2.2-0.5,4.3-1.5,6.2-2.9l0.9-0.7l0.8,0.8c2.4,2.5,5.7,4,9.2,4c7,0,12.7-5.7,12.7-12.7s-5.7-12.7-12.7-12.7
				c-1.3,0-2.6,0.2-3.9,0.6l-1.1,0.3l-0.5-1c-2.9-6.1-9-10-15.7-10c-7.2,0-13.5,4.3-16.2,11l-0.5,1.3l-1.3-0.7c-1.9-1-4-1.6-6.1-1.6
				c-7,0-12.7,5.7-12.7,12.7s5.7,12.7,12.7,12.7c0.6,0,1.2-0.1,1.9-0.2L744.5,598.6z"/>
		</g>
		<g>
			<rect x="776" y="597.3" class="st9" width="2.6" height="27.3"/>
		</g>
		<g>
			<rect x="763.4" y="606" class="st9" width="2.6" height="18.6"/>
		</g>
		<g>
			
				<rect x="776" y="609.2" transform="matrix(0.7071 -0.7071 0.7071 0.7071 -203.0088 730.7963)" class="st9" width="9.2" height="2.6"/>
		</g>
	</g>
</g>
</svg>
