<?xml version="1.0" encoding="utf-8"?>
<!-- Generator: Adobe Illustrator 24.0.0, SVG Export Plug-In . SVG Version: 6.00 Build 0)  -->
<svg version="1.1" id="Layer_1" xmlns="http://www.w3.org/2000/svg" xmlns:xlink="http://www.w3.org/1999/xlink" x="0px" y="0px"
	 viewBox="0 0 1100.7 485.56" style="enable-background:new 0 0 1100.7 485.56;" xml:space="preserve">
<style type="text/css">
	.st0{opacity:0.7;fill:#DAEBC5;}
	.st1{fill:#FFFFFF;}
	.st2{fill:#DAEBC5;}
	.st3{fill:#929293;}
	.st4{fill:none;}
	.st5{fill:#BFDC95;}
	.st6{opacity:0.75;}
	.st7{opacity:0.75;fill:#BFDC95;}
	.st8{opacity:0.25;}
	.st9{fill:#9B9A9A;}
	.st10{opacity:0.75;fill:#9B9A9A;}
	.st11{fill:#E1ECB9;}
</style>
<g>
	<polygon class="st0" points="14.43,389.73 14.43,249.01 39.65,249.01 39.65,240.57 64.4,240.57 64.4,249.06 83.87,249.06 
		83.87,207.51 164.45,207.51 164.45,236.34 202.24,236.34 202.24,184.14 234.85,184.14 260,165.09 298.19,165.09 298.19,215.18 
		355.95,215.18 355.95,197.23 470.54,197.23 470.54,210.24 491.22,210.24 491.22,165.09 601.89,165.09 601.89,212.36 627.04,212.36 
		627.04,190.49 651.27,190.49 651.27,199.66 690.39,199.66 690.39,167.91 747.92,167.91 747.92,188.37 823.61,188.37 823.61,172.85 
		837.58,172.85 837.58,148.87 910.25,148.87 910.25,184.84 947.51,184.84 947.51,203.89 982.91,203.89 982.91,195.43 
		1033.91,195.43 1033.91,240.57 1084.35,240.57 1084.35,390.12 	"/>
	<g>
		<polygon class="st1" points="610.55,141.41 563.29,93.32 515.21,93.32 314.58,37.77 297.17,37.77 258.2,76.74 201,76.74 
			201,141.41 278.1,141.41 278.1,461.42 331.99,461.42 331.99,250.84 419.86,250.84 419.86,191.15 333.64,191.15 333.64,141.41 
			454.68,141.41 		"/>
		<polygon class="st1" points="530.96,232.6 542.15,243.38 562.88,243.38 574.07,232.6 574.07,194.47 530.96,194.47 		"/>
	</g>
	<g>
		<path class="st2" d="M573.52,227.35c-0.42,0-0.85-0.16-1.17-0.49l-30.67-30.67c-0.65-0.65-0.65-1.7,0-2.34
			c0.65-0.65,1.7-0.65,2.34,0l30.67,30.67c0.65,0.65,0.65,1.7,0,2.34C574.36,227.19,573.94,227.35,573.52,227.35z"/>
		<path class="st2" d="M561.49,245.18c-0.42,0-0.85-0.16-1.17-0.49l-30.26-30.26c-0.65-0.65-0.65-1.7,0-2.34
			c0.65-0.65,1.7-0.65,2.34,0l30.26,30.26c0.65,0.65,0.65,1.7,0,2.34C562.34,245.01,561.92,245.18,561.49,245.18z"/>
		<path class="st2" d="M558.35,142.75c-0.42,0-0.85-0.16-1.17-0.49l-47.26-47.26c-0.65-0.65-0.65-1.7,0-2.34
			c0.65-0.65,1.7-0.65,2.34,0l47.26,47.26c0.65,0.65,0.65,1.7,0,2.34C559.2,142.59,558.78,142.75,558.35,142.75z"/>
		<path class="st2" d="M607.27,142.75c-0.42,0-0.85-0.16-1.17-0.49l-47.26-47.26c-0.65-0.65-0.65-1.7,0-2.34
			c0.65-0.65,1.7-0.65,2.34,0l47.26,47.26c0.65,0.65,0.65,1.7,0,2.34C608.11,142.59,607.69,142.75,607.27,142.75z"/>
		<path class="st2" d="M509.16,142.75c-0.42,0-0.85-0.16-1.17-0.49l-47.26-47.26c-0.65-0.65-0.65-1.7,0-2.34
			c0.65-0.65,1.7-0.65,2.34,0l47.26,47.26c0.65,0.65,0.65,1.7,0,2.34C510.01,142.59,509.58,142.75,509.16,142.75z"/>
		<path class="st2" d="M459.97,142.75c-0.42,0-0.85-0.16-1.17-0.49l-47.26-47.26c-0.65-0.65-0.65-1.7,0-2.34
			c0.65-0.65,1.7-0.65,2.34,0l47.26,47.26c0.65,0.65,0.65,1.7,0,2.34C460.82,142.59,460.39,142.75,459.97,142.75z"/>
		<path class="st2" d="M413.54,142.75c-0.42,0-0.85-0.16-1.17-0.49l-97-97c-0.65-0.65-0.65-1.7,0-2.34c0.65-0.65,1.7-0.65,2.34,0
			l97,97c0.65,0.65,0.65,1.7,0,2.34C414.39,142.59,413.97,142.75,413.54,142.75z"/>
		<path class="st2" d="M365.46,142.75c-0.42,0-0.85-0.16-1.17-0.49l-22.38-22.38c-0.65-0.65-0.65-1.7,0-2.34
			c0.65-0.65,1.7-0.65,2.34,0l22.38,22.38c0.65,0.65,0.65,1.7,0,2.34C366.31,142.59,365.88,142.75,365.46,142.75z"/>
		<path class="st2" d="M259.03,104.1h-58.86c-0.92,0-1.66-0.74-1.66-1.66s0.74-1.66,1.66-1.66h58.86c0.92,0,1.66,0.74,1.66,1.66
			S259.94,104.1,259.03,104.1z"/>
		<path class="st2" d="M259.03,125.65h-58.86c-0.92,0-1.66-0.74-1.66-1.66s0.74-1.66,1.66-1.66h58.86c0.92,0,1.66,0.74,1.66,1.66
			S259.94,125.65,259.03,125.65z"/>
		<path class="st2" d="M332.3,202.34c-0.42,0-0.85-0.16-1.17-0.49l-53.78-53.78c-0.65-0.65-0.65-1.7,0-2.34
			c0.65-0.65,1.7-0.65,2.34,0l53.78,53.78c0.65,0.65,0.65,1.7,0,2.34C333.15,202.18,332.72,202.34,332.3,202.34z"/>
		<path class="st2" d="M332.3,255.57c-0.42,0-0.85-0.16-1.17-0.49l-53.78-53.78c-0.65-0.65-0.65-1.7,0-2.34
			c0.65-0.65,1.7-0.65,2.34,0l53.78,53.78c0.65,0.65,0.65,1.7,0,2.34C333.15,255.4,332.72,255.57,332.3,255.57z"/>
		<path class="st2" d="M332.3,308.79c-0.42,0-0.85-0.16-1.17-0.49l-53.78-53.79c-0.65-0.65-0.65-1.7,0-2.34
			c0.65-0.65,1.7-0.65,2.34,0l53.78,53.79c0.65,0.65,0.65,1.7,0,2.34C333.15,308.63,332.72,308.79,332.3,308.79z"/>
		<path class="st2" d="M332.3,362.02c-0.42,0-0.85-0.16-1.17-0.49l-53.78-53.78c-0.65-0.65-0.65-1.7,0-2.34
			c0.65-0.65,1.7-0.65,2.34,0l53.78,53.78c0.65,0.65,0.65,1.7,0,2.34C333.15,361.85,332.72,362.02,332.3,362.02z"/>
		<path class="st2" d="M332.3,415.24c-0.42,0-0.85-0.16-1.17-0.49l-53.78-53.78c-0.65-0.65-0.65-1.7,0-2.34
			c0.65-0.65,1.7-0.65,2.34,0l53.78,53.78c0.65,0.65,0.65,1.7,0,2.34C333.15,415.08,332.72,415.24,332.3,415.24z"/>
		<path class="st2" d="M332.3,468.47c-0.42,0-0.85-0.16-1.17-0.49l-53.78-53.78c-0.65-0.65-0.65-1.7,0-2.34
			c0.65-0.65,1.7-0.65,2.34,0l53.78,53.78c0.65,0.65,0.65,1.7,0,2.34C333.15,468.3,332.72,468.47,332.3,468.47z"/>
		<path class="st3" d="M573.52,223.21c-0.42,0-0.85-0.16-1.17-0.49l-26.94-26.94c-0.65-0.65-0.65-1.7,0-2.34
			c0.65-0.65,1.7-0.65,2.34,0l26.94,26.94c0.65,0.65,0.65,1.7,0,2.34C574.36,223.04,573.94,223.21,573.52,223.21z"/>
		<path class="st3" d="M563.57,243.1c-0.42,0-0.85-0.16-1.17-0.49l-32.33-32.33c-0.65-0.65-0.65-1.7,0-2.34
			c0.65-0.65,1.7-0.65,2.34,0l32.33,32.33c0.65,0.65,0.65,1.7,0,2.34C564.42,242.94,563.99,243.1,563.57,243.1z"/>
		<path class="st3" d="M551.74,196.12c-0.92,0-1.66-0.74-1.66-1.66v-53.06c0-0.92,0.74-1.66,1.66-1.66c0.92,0,1.66,0.74,1.66,1.66
			v53.06C553.39,195.38,552.65,196.12,551.74,196.12z"/>
		<path class="st3" d="M551.68,261.62c-0.92,0-1.66-0.74-1.66-1.66v-16.58c0-0.92,0.74-1.66,1.66-1.66c0.92,0,1.66,0.74,1.66,1.66
			v16.58C553.34,260.88,552.6,261.62,551.68,261.62z"/>
		<path class="st3" d="M563.54,245.04h-22.06l-12.18-11.73v-40.5h46.43v40.5L563.54,245.04z M542.82,241.72h19.39l10.2-9.82v-35.77
			h-39.79v35.77L542.82,241.72z M574.07,232.6L574.07,232.6L574.07,232.6z"/>
		<path class="st4" d="M529.3,282.34"/>
		<path class="st4" d="M551.68,259.96"/>
		<path class="st3" d="M551.68,306.39c-13.26,0-24.04-10.79-24.04-24.04c0-13.26,10.79-24.04,24.04-24.04
			c0.92,0,1.66,0.74,1.66,1.66s-0.74,1.66-1.66,1.66c-11.43,0-20.73,9.3-20.73,20.73s9.3,20.73,20.73,20.73
			c0.92,0,1.66,0.74,1.66,1.66S552.6,306.39,551.68,306.39z"/>
		<path class="st3" d="M612.2,143.06H200.17c-0.92,0-1.66-0.74-1.66-1.66s0.74-1.66,1.66-1.66H612.2c0.92,0,1.66,0.74,1.66,1.66
			S613.12,143.06,612.2,143.06z"/>
		<path class="st3" d="M419.04,192.81h-87.05c-0.92,0-1.66-0.74-1.66-1.66s0.74-1.66,1.66-1.66h87.05c0.92,0,1.66,0.74,1.66,1.66
			S419.95,192.81,419.04,192.81z"/>
		<path class="st3" d="M419.86,252.5h-87.05c-0.92,0-1.66-0.74-1.66-1.66s0.74-1.66,1.66-1.66h87.05c0.92,0,1.66,0.74,1.66,1.66
			S420.78,252.5,419.86,252.5z"/>
		<path class="st3" d="M332.81,468.97h-53.06c-0.92,0-1.66-0.74-1.66-1.66s0.74-1.66,1.66-1.66h53.06c0.92,0,1.66,0.74,1.66,1.66
			S333.73,468.97,332.81,468.97z"/>
		<path class="st3" d="M897.04,468.98H209.88c-1.7,0-3.08-0.74-3.08-1.66s1.38-1.66,3.08-1.66h687.16c1.7,0,3.08,0.74,3.08,1.66
			S898.74,468.98,897.04,468.98z"/>
		<path class="st3" d="M259.03,78.4h-58.86c-0.92,0-1.66-0.74-1.66-1.66s0.74-1.66,1.66-1.66h58.86c0.92,0,1.66,0.74,1.66,1.66
			S259.94,78.4,259.03,78.4z"/>
		<path class="st3" d="M259.03,100.78h-58.86c-0.92,0-1.66-0.74-1.66-1.66s0.74-1.66,1.66-1.66h58.86c0.92,0,1.66,0.74,1.66,1.66
			S259.94,100.78,259.03,100.78z"/>
		<path class="st3" d="M259.03,122.34h-58.86c-0.92,0-1.66-0.74-1.66-1.66s0.74-1.66,1.66-1.66h58.86c0.92,0,1.66,0.74,1.66,1.66
			S259.94,122.34,259.03,122.34z"/>
		<path class="st3" d="M564.12,94.98H371.78c-0.92,0-1.66-0.74-1.66-1.66s0.74-1.66,1.66-1.66h192.34c0.92,0,1.66,0.74,1.66,1.66
			S565.04,94.98,564.12,94.98z"/>
		<path class="st3" d="M416.86,141.1c-0.42,0-0.85-0.16-1.17-0.49L314.96,39.88c-0.65-0.65-0.65-1.7,0-2.34
			c0.65-0.65,1.7-0.65,2.34,0l100.73,100.73c0.65,0.65,0.65,1.7,0,2.34C417.71,140.93,417.28,141.1,416.86,141.1z"/>
		<path class="st3" d="M612.52,142.75c-0.42,0-0.85-0.16-1.17-0.49l-47.26-47.26c-0.65-0.65-0.65-1.7,0-2.34
			c0.65-0.65,1.7-0.65,2.34,0l47.26,47.26c0.65,0.65,0.65,1.7,0,2.34C613.36,142.59,612.94,142.75,612.52,142.75z"/>
		<path class="st3" d="M563.33,142.75c-0.42,0-0.85-0.16-1.17-0.49L514.9,95.01c-0.65-0.65-0.65-1.7,0-2.34
			c0.65-0.65,1.7-0.65,2.34,0l47.26,47.26c0.65,0.65,0.65,1.7,0,2.34C564.17,142.59,563.75,142.75,563.33,142.75z"/>
		<path class="st3" d="M514.13,142.75c-0.42,0-0.85-0.16-1.17-0.49l-47.26-47.26c-0.65-0.65-0.65-1.7,0-2.34
			c0.65-0.65,1.7-0.65,2.34,0l47.26,47.26c0.65,0.65,0.65,1.7,0,2.34C514.98,142.59,514.56,142.75,514.13,142.75z"/>
		<path class="st3" d="M464.94,142.75c-0.42,0-0.85-0.16-1.17-0.49l-47.26-47.26c-0.65-0.65-0.65-1.7,0-2.34
			c0.65-0.65,1.7-0.65,2.34,0l47.26,47.26c0.65,0.65,0.65,1.7,0,2.34C465.79,142.59,465.37,142.75,464.94,142.75z"/>
		<path class="st3" d="M418.93,191.25c-0.42,0-0.85-0.16-1.17-0.49l-71.71-71.71c-0.65-0.65-0.65-1.7,0-2.34
			c0.65-0.65,1.7-0.65,2.34,0l71.71,71.71c0.65,0.65,0.65,1.7,0,2.34C419.78,191.09,419.36,191.25,418.93,191.25z"/>
		<path class="st3" d="M417.69,142.75c-0.42,0-0.85-0.16-1.17-0.49c-0.65-0.65-0.65-1.7,0-2.34l47.26-47.26
			c0.65-0.65,1.7-0.65,2.34,0c0.65,0.65,0.65,1.7,0,2.34l-47.26,47.26C418.54,142.59,418.11,142.75,417.69,142.75z"/>
		<path class="st3" d="M370.43,142.75c-0.42,0-0.85-0.16-1.17-0.49c-0.65-0.65-0.65-1.7,0-2.34l47.26-47.26
			c0.65-0.65,1.7-0.65,2.34,0c0.65,0.65,0.65,1.7,0,2.34l-47.26,47.26C371.28,142.59,370.86,142.75,370.43,142.75z"/>
		<path class="st3" d="M278.51,197.37c-0.42,0-0.85-0.16-1.17-0.49c-0.65-0.65-0.65-1.7,0-2.34l53.78-53.78
			c0.65-0.65,1.7-0.65,2.34,0c0.65,0.65,0.65,1.7,0,2.34l-53.78,53.78C279.36,197.21,278.94,197.37,278.51,197.37z"/>
		<path class="st3" d="M278.51,250.59c-0.42,0-0.85-0.16-1.17-0.49c-0.65-0.65-0.65-1.7,0-2.34l53.78-53.78
			c0.65-0.65,1.7-0.65,2.34,0c0.65,0.65,0.65,1.7,0,2.34l-53.78,53.78C279.36,250.43,278.94,250.59,278.51,250.59z"/>
		<path class="st3" d="M278.51,303.82c-0.42,0-0.85-0.16-1.17-0.49c-0.65-0.65-0.65-1.7,0-2.34l53.78-53.79
			c0.65-0.65,1.7-0.65,2.34,0c0.65,0.65,0.65,1.7,0,2.34l-53.78,53.79C279.36,303.66,278.94,303.82,278.51,303.82z"/>
		<path class="st3" d="M278.51,357.04c-0.42,0-0.85-0.16-1.17-0.49c-0.65-0.65-0.65-1.7,0-2.34l53.78-53.78
			c0.65-0.65,1.7-0.65,2.34,0c0.65,0.65,0.65,1.7,0,2.34l-53.78,53.78C279.36,356.88,278.94,357.04,278.51,357.04z"/>
		<path class="st3" d="M278.51,410.27c-0.42,0-0.85-0.16-1.17-0.49c-0.65-0.65-0.65-1.7,0-2.34l53.78-53.78
			c0.65-0.65,1.7-0.65,2.34,0c0.65,0.65,0.65,1.7,0,2.34l-53.78,53.78C279.36,410.11,278.94,410.27,278.51,410.27z"/>
		<path class="st3" d="M278.51,463.49c-0.42,0-0.85-0.16-1.17-0.49c-0.65-0.65-0.65-1.7,0-2.34l53.78-53.78
			c0.65-0.65,1.7-0.65,2.34,0c0.65,0.65,0.65,1.7,0,2.34l-53.78,53.78C279.36,463.33,278.94,463.49,278.51,463.49z"/>
		<path class="st3" d="M259.86,77.57c-0.42,0-0.85-0.16-1.17-0.49c-0.65-0.65-0.65-1.7,0-2.34l36.79-36.79
			c0.65-0.65,1.7-0.65,2.34,0c0.65,0.65,0.65,1.7,0,2.34l-36.79,36.79C260.71,77.41,260.28,77.57,259.86,77.57z"/>
		<path class="st3" d="M320.69,142.75c-0.42,0-0.85-0.16-1.17-0.49c-0.65-0.65-0.65-1.7,0-2.34l47.26-47.26
			c0.65-0.65,1.7-0.65,2.34,0c0.65,0.65,0.65,1.7,0,2.34l-47.26,47.26C321.54,142.59,321.11,142.75,320.69,142.75z"/>
		<path class="st3" d="M466.88,142.75c-0.42,0-0.85-0.16-1.17-0.49c-0.65-0.65-0.65-1.7,0-2.34l47.26-47.26
			c0.65-0.65,1.7-0.65,2.34,0c0.65,0.65,0.65,1.7,0,2.34l-47.26,47.26C467.73,142.59,467.3,142.75,466.88,142.75z"/>
		<path class="st3" d="M516.07,142.75c-0.42,0-0.85-0.16-1.17-0.49c-0.65-0.65-0.65-1.7,0-2.34l47.26-47.26
			c0.65-0.65,1.7-0.65,2.34,0c0.65,0.65,0.65,1.7,0,2.34l-47.26,47.26C516.92,142.59,516.49,142.75,516.07,142.75z"/>
		<path class="st3" d="M562.5,142.75c-0.42,0-0.85-0.16-1.17-0.49c-0.65-0.65-0.65-1.7,0-2.34l24.28-24.28
			c0.65-0.65,1.7-0.65,2.34,0c0.65,0.65,0.65,1.7,0,2.34l-24.28,24.28C563.34,142.59,562.92,142.75,562.5,142.75z"/>
		<path class="st3" d="M315.46,141.87c-0.92,0-1.66-0.74-1.66-1.66V38.6c0-0.92,0.74-1.66,1.66-1.66s1.66,0.74,1.66,1.66v101.61
			C317.11,141.13,316.37,141.87,315.46,141.87z"/>
		<path class="st3" d="M419.92,252.5c-0.92,0-1.66-0.74-1.66-1.66v-60.52c0-0.92,0.74-1.66,1.66-1.66s1.66,0.74,1.66,1.66v60.52
			C421.57,251.76,420.83,252.5,419.92,252.5z"/>
		<path class="st3" d="M332.87,468.56c-0.92,0-1.66-0.65-1.66-1.45V142.03c0-0.8,0.74-1.45,1.66-1.45s1.66,0.65,1.66,1.45v325.09
			C334.52,467.92,333.78,468.56,332.87,468.56z"/>
		<path class="st3" d="M278.1,468.56c-0.92,0-1.66-0.65-1.66-1.45V142.03c0-0.8,0.74-1.45,1.66-1.45s1.66,0.65,1.66,1.45v325.09
			C279.76,467.92,279.01,468.56,278.1,468.56z"/>
		<path class="st3" d="M297.22,141.87c-0.92,0-1.66-0.74-1.66-1.66V38.6c0-0.92,0.74-1.66,1.66-1.66s1.66,0.74,1.66,1.66v101.61
			C298.88,141.13,298.13,141.87,297.22,141.87z"/>
		<path class="st3" d="M260.74,142.7c-0.92,0-1.66-0.74-1.66-1.66V75.91c0-0.92,0.74-1.66,1.66-1.66s1.66,0.74,1.66,1.66v65.13
			C262.4,141.96,261.65,142.7,260.74,142.7z"/>
		<path class="st3" d="M200.22,143.06c-0.92,0-1.66-0.74-1.66-1.66V76.74c0-0.92,0.74-1.66,1.66-1.66s1.66,0.74,1.66,1.66v64.67
			C201.88,142.32,201.13,143.06,200.22,143.06z"/>
		<path class="st3" d="M332.3,197.37c-0.42,0-0.85-0.16-1.17-0.49l-53.78-53.78c-0.65-0.65-0.65-1.7,0-2.34
			c0.65-0.65,1.7-0.65,2.34,0l53.78,53.78c0.65,0.65,0.65,1.7,0,2.34C333.15,197.21,332.72,197.37,332.3,197.37z"/>
		<path class="st3" d="M332.3,250.59c-0.42,0-0.85-0.16-1.17-0.49l-53.78-53.78c-0.65-0.65-0.65-1.7,0-2.34
			c0.65-0.65,1.7-0.65,2.34,0l53.78,53.78c0.65,0.65,0.65,1.7,0,2.34C333.15,250.43,332.72,250.59,332.3,250.59z"/>
		<path class="st3" d="M332.3,303.82c-0.42,0-0.85-0.16-1.17-0.49l-53.78-53.79c-0.65-0.65-0.65-1.7,0-2.34
			c0.65-0.65,1.7-0.65,2.34,0l53.78,53.79c0.65,0.65,0.65,1.7,0,2.34C333.15,303.66,332.72,303.82,332.3,303.82z"/>
		<path class="st3" d="M332.3,357.04c-0.42,0-0.85-0.16-1.17-0.49l-53.78-53.78c-0.65-0.65-0.65-1.7,0-2.34
			c0.65-0.65,1.7-0.65,2.34,0l53.78,53.78c0.65,0.65,0.65,1.7,0,2.34C333.15,356.88,332.72,357.04,332.3,357.04z"/>
		<path class="st3" d="M332.3,410.27c-0.42,0-0.85-0.16-1.17-0.49L277.34,356c-0.65-0.65-0.65-1.7,0-2.34c0.65-0.65,1.7-0.65,2.34,0
			l53.78,53.78c0.65,0.65,0.65,1.7,0,2.34C333.15,410.11,332.72,410.27,332.3,410.27z"/>
		<path class="st3" d="M332.3,463.49c-0.42,0-0.85-0.16-1.17-0.49l-53.78-53.78c-0.65-0.65-0.65-1.7,0-2.34
			c0.65-0.65,1.7-0.65,2.34,0l53.78,53.78c0.65,0.65,0.65,1.7,0,2.34C333.15,463.33,332.72,463.49,332.3,463.49z"/>
		<path class="st3" d="M514.38,95.81c-0.15,0-0.3-0.02-0.45-0.06L314.86,40.3c-0.88-0.25-1.4-1.16-1.15-2.04
			c0.25-0.88,1.16-1.4,2.04-1.15l199.08,55.44c0.88,0.25,1.4,1.16,1.15,2.04C515.77,95.33,515.1,95.81,514.38,95.81z"/>
		<path class="st3" d="M823.08,485.56H283.83c-1.7,0-3.08-0.74-3.08-1.66s1.38-1.66,3.08-1.66h539.25c1.7,0,3.08,0.74,3.08,1.66
			S824.78,485.56,823.08,485.56z"/>
		<path class="st3" d="M315.4,40.26h-18.24c-0.92,0-1.66-0.74-1.66-1.66s0.74-1.66,1.66-1.66h18.24c0.92,0,1.66,0.74,1.66,1.66
			S316.32,40.26,315.4,40.26z"/>
	</g>
	<g>
		<g>
			<path class="st5" d="M693.39,387.11v-34.3h-26.3v34.3h-37.46l54.5-93.01h-28.62l-49.29,84.47c0.16-3.8,0.22-7.63,0.22-11.45
				c0-23.99-2.32-48.4-17.47-62.92c-7.57-7.37-18.31-13.05-34.09-13.05c-15.78,0-26.51,5.68-34.09,13.05
				c-15.15,14.52-17.46,38.93-17.46,62.92c0,6.71,0.18,13.45,0.77,19.99h-13.23v-34.3h-26.3v34.3h-37.46l54.5-93.01H453
				l-53.66,91.96v24.83h65.23v29.46h26.3v-29.46h18.03c2.62,7.35,6.41,13.9,11.89,19.15c7.58,7.36,18.31,13.05,34.09,13.05
				c15.78,0,26.51-5.68,34.09-13.05c6.21-5.95,10.26-13.56,12.88-22.12v2.97h65.23v29.46h26.3v-29.46h18.52v-23.78H693.39z
				 M554.89,418.67c-27.15,0-24.83-32.62-24.83-51.56s-2.31-51.55,24.83-51.55c27.15,0,24.83,32.61,24.83,51.55
				S582.03,418.67,554.89,418.67z"/>
		</g>
	</g>
	<path class="st3" d="M551.68,306.39c-0.92,0-1.66-0.74-1.66-1.66s0.74-1.66,1.66-1.66c11.43,0,20.73-9.3,20.73-20.73
		c0-0.92,0.74-1.66,1.66-1.66c0.92,0,1.66,0.74,1.66,1.66C575.73,295.6,564.94,306.39,551.68,306.39z"/>
	<g class="st6">
		<path class="st5" d="M482.9,44.35h-54.86v-1.06c0-6.79,5.52-12.31,12.31-12.31c4,0,7.63,1.88,9.92,5.03
			c2.79-5.97,8.77-9.84,15.5-9.84c9.44,0,17.12,7.68,17.12,17.12V44.35z M430.23,42.22h50.51c-0.55-7.77-7.05-13.93-14.95-13.93
			c-6.56,0-12.3,4.19-14.29,10.44l-0.81,2.54l-1.16-2.4c-1.72-3.56-5.23-5.77-9.17-5.77C435.1,33.1,430.76,37.1,430.23,42.22z"/>
	</g>
	<g class="st6">
		<path class="st5" d="M911.23,107.88H755.92l-0.16-0.87c-0.23-1.25-0.34-2.52-0.34-3.76c0-11.51,9.36-20.87,20.87-20.87
			c0.6,0,1.2,0.03,1.82,0.08c2.1-12.64,13.11-22.04,26.04-22.04c11.27,0,21.42,7.33,25.01,17.94c1.49-0.3,3.01-0.45,4.53-0.45
			c8.11,0,15.59,4.25,19.77,11.15c2.37-1.07,4.96-1.63,7.56-1.63c4.57,0,8.85,1.65,12.22,4.67c3.81-6.02,10.45-9.71,17.64-9.71
			c11.51,0,20.87,9.36,20.87,20.87c0,1.24-0.12,2.51-0.34,3.76L911.23,107.88z M757.72,105.76h151.72c0.11-0.84,0.17-1.68,0.17-2.51
			c0-10.33-8.41-18.74-18.74-18.74c-6.87,0-13.18,3.75-16.47,9.8l-0.69,1.28l-1.01-1.05c-3.09-3.21-7.24-4.98-11.68-4.98
			c-2.64,0-5.16,0.62-7.5,1.84l-0.92,0.48l-0.5-0.91c-3.69-6.73-10.74-10.92-18.41-10.92c-1.68,0-3.36,0.2-5,0.6l-0.98,0.24
			l-0.29-0.97c-3.03-10.22-12.6-17.36-23.27-17.36c-12.2,0-22.55,9.12-24.08,21.21l-0.13,1.07l-1.07-0.15
			c-0.87-0.12-1.74-0.18-2.58-0.18c-10.33,0-18.74,8.41-18.74,18.74C757.54,104.08,757.6,104.92,757.72,105.76z"/>
	</g>
	<g class="st6">
		<path class="st5" d="M136.45,74.95H32.89v-1.06c0-10.99,8.91-19.9,19.87-19.9c4.18,0,8.28,1.33,11.65,3.77
			c4.28-5.99,11.11-9.53,18.51-9.53c8.49,0,16.22,4.72,20.13,12.15c3.76-4.09,8.99-6.4,14.6-6.4c10.96,0,19.87,8.91,19.87,19.87
			v1.06L136.45,74.95z M35.04,72.83h100.32c-0.53-9.3-8.27-16.71-17.72-16.71c-5.51,0-10.62,2.5-14.01,6.86l-1.1,1.41l-0.72-1.64
			c-3.28-7.53-10.7-12.39-18.91-12.39c-7.05,0-13.55,3.55-17.36,9.5l-0.64,1l-0.92-0.76c-3.16-2.58-7.14-4-11.22-4
			C43.32,56.12,35.58,63.52,35.04,72.83z"/>
	</g>
	<g class="st6">
		<path class="st5" d="M1081.57,74.95H978v-1.06c0-10.99,8.91-19.9,19.87-19.9c4.18,0,8.28,1.33,11.65,3.77
			c4.28-5.99,11.11-9.53,18.51-9.53c8.49,0,16.22,4.72,20.13,12.15c3.76-4.09,8.99-6.4,14.6-6.4c10.96,0,19.87,8.91,19.87,19.87
			v1.06L1081.57,74.95z M980.16,72.83h100.32c-0.53-9.3-8.27-16.71-17.72-16.71c-5.51,0-10.62,2.5-14.01,6.86l-1.1,1.41l-0.72-1.64
			c-3.28-7.53-10.7-12.39-18.91-12.39c-7.05,0-13.55,3.55-17.36,9.5l-0.64,1l-0.92-0.76c-3.16-2.58-7.14-4-11.22-4
			C988.44,56.12,980.7,63.52,980.16,72.83z"/>
	</g>
	<g class="st6">
		<path class="st5" d="M698.76,28.99h-64.11v-1.06c0-11.84,9.64-21.48,21.48-21.48c7.08,0,13.57,3.42,17.6,9.2
			c2.72-2.11,6.05-3.26,9.49-3.26c8.57,0,15.54,6.97,15.54,15.54V28.99z M636.81,26.86h59.78c-0.54-6.9-6.33-12.35-13.37-12.35
			c-3.33,0-6.53,1.24-9.01,3.5l-0.95,0.86l-0.67-1.09c-3.56-5.77-9.71-9.21-16.46-9.21C645.82,8.57,637.37,16.68,636.81,26.86z"/>
	</g>
	<g class="st6">
		<path class="st5" d="M811.28,41.01l-0.94-1.75c-0.04-0.08-0.09-0.18-0.15-0.29c-0.6-1.19-2.18-4.36-6.85-5.85L804,31.1
			c4.05,1.29,6.18,3.73,7.27,5.44c0.37-0.63,2.47-3.9,7.3-5.44l0.65,2.03c-4.33,1.38-6.05,4.38-6.12,4.5L811.28,41.01z"/>
	</g>
	<g class="st6">
		<path class="st5" d="M705.9,91.66l-0.94-1.75c-0.04-0.07-0.08-0.15-0.13-0.25c-0.49-0.98-1.8-3.59-5.64-4.81l0.65-2.03
			c3.28,1.04,5.07,2.97,6.04,4.41c0.56-0.87,2.39-3.23,6.07-4.41l0.65,2.03c-3.57,1.14-5.01,3.67-5.03,3.69L705.9,91.66z"/>
	</g>
	<g class="st6">
		<path class="st5" d="M173.79,43.24l-0.94-1.75c-0.04-0.07-0.08-0.15-0.13-0.25c-0.49-0.98-1.8-3.59-5.64-4.81l0.65-2.03
			c3.28,1.04,5.07,2.97,6.04,4.41c0.56-0.87,2.39-3.23,6.07-4.41l0.65,2.03c-3.57,1.14-5.01,3.67-5.03,3.69L173.79,43.24z"/>
	</g>
	<g class="st6">
		<path class="st5" d="M1093.99,48.85l-0.94-1.75c-0.04-0.07-0.08-0.15-0.13-0.25c-0.49-0.98-1.8-3.59-5.64-4.81l0.65-2.03
			c3.28,1.04,5.07,2.97,6.04,4.41c0.56-0.87,2.39-3.23,6.07-4.41l0.65,2.03c-3.57,1.14-5.01,3.67-5.03,3.69L1093.99,48.85z"/>
	</g>
	<g class="st6">
		<path class="st5" d="M847,57.53l-0.94-1.75c-0.03-0.06-0.06-0.13-0.11-0.21c-0.39-0.77-1.41-2.81-4.42-3.77l0.65-2.03
			c2.51,0.8,3.97,2.23,4.8,3.38c0.61-0.85,2.1-2.51,4.83-3.38l0.65,2.03c-2.79,0.89-3.89,2.8-3.93,2.88L847,57.53z"/>
	</g>
	<g class="st6">
		<path class="st5" d="M7.93,92.41L7,90.66c-0.04-0.08-0.09-0.18-0.15-0.29c-0.6-1.19-2.18-4.36-6.85-5.85l0.65-2.03
			c4.05,1.29,6.18,3.73,7.27,5.44c0.37-0.63,2.47-3.9,7.3-5.44l0.65,2.03c-4.33,1.38-6.05,4.38-6.12,4.5L7.93,92.41z"/>
	</g>
	<g class="st6">
		<path class="st5" d="M43.65,108.93l-0.94-1.75c-0.03-0.06-0.06-0.13-0.11-0.21c-0.39-0.77-1.41-2.81-4.42-3.77l0.65-2.03
			c2.51,0.8,3.97,2.23,4.8,3.38c0.61-0.85,2.1-2.51,4.83-3.38l0.65,2.03c-2.79,0.89-3.89,2.8-3.93,2.88L43.65,108.93z"/>
	</g>
	<g class="st6">
		<path class="st5" d="M528.18,16.62l-0.94-1.75c-0.04-0.07-0.08-0.15-0.13-0.25c-0.5-1-1.83-3.66-5.74-4.91l0.65-2.03
			c3.34,1.07,5.17,3.03,6.15,4.5c0.55-0.86,2.4-3.29,6.18-4.5l0.65,2.03c-3.64,1.16-5.11,3.74-5.13,3.76L528.18,16.62z"/>
	</g>
	<g class="st6">
		<path class="st5" d="M498.95,6.71l-0.89-1.41c-0.05-0.09-0.11-0.18-0.17-0.29c-0.53-0.89-1.34-2.24-4-2.97L494.44,0
			c2.46,0.67,3.76,1.83,4.53,2.82c0.79-1.01,2.09-2.15,4.51-2.82l0.56,2.05c-2.59,0.71-3.42,2.03-4.03,2.99L498.95,6.71z"/>
	</g>
	<rect x="343.03" y="202.01" class="st7" width="28.2" height="15.85"/>
	<g>
		<polygon class="st1" points="712.88,234.4 741.42,205.36 770.46,205.36 891.62,171.81 902.14,171.81 925.67,195.35 960.22,195.35 
			960.22,234.4 913.65,234.4 913.65,427.66 881.11,427.66 881.11,300.49 828.04,300.49 828.04,264.44 880.11,264.44 880.11,234.4 
			807.01,234.4 		"/>
		<polygon class="st1" points="760.95,289.47 754.19,295.98 741.67,295.98 734.91,289.47 734.91,266.44 760.95,266.44 		"/>
	</g>
	<g>
		<path class="st2" d="M735.24,286.34c-0.27,0-0.53-0.1-0.73-0.3c-0.4-0.4-0.4-1.06,0-1.47l18.53-18.53c0.4-0.4,1.06-0.4,1.47,0
			c0.4,0.4,0.4,1.06,0,1.47l-18.53,18.53C735.77,286.24,735.51,286.34,735.24,286.34z"/>
		<path class="st2" d="M742.5,297.1c-0.27,0-0.53-0.1-0.73-0.3c-0.4-0.4-0.4-1.06,0-1.47l18.27-18.27c0.4-0.4,1.06-0.4,1.47,0
			c0.4,0.4,0.4,1.06,0,1.47l-18.27,18.27C743.03,297,742.77,297.1,742.5,297.1z"/>
		<path class="st2" d="M744.4,235.25c-0.27,0-0.53-0.1-0.73-0.3c-0.4-0.4-0.4-1.06,0-1.47l28.54-28.54c0.4-0.4,1.06-0.4,1.47,0
			c0.4,0.4,0.4,1.06,0,1.47l-28.54,28.54C744.93,235.15,744.67,235.25,744.4,235.25z"/>
		<path class="st2" d="M714.86,235.25c-0.27,0-0.53-0.1-0.73-0.3c-0.4-0.4-0.4-1.06,0-1.47l28.54-28.54c0.4-0.4,1.06-0.4,1.47,0
			c0.4,0.4,0.4,1.06,0,1.47l-28.54,28.54C715.39,235.15,715.13,235.25,714.86,235.25z"/>
		<path class="st2" d="M774.11,235.25c-0.27,0-0.53-0.1-0.73-0.3c-0.4-0.4-0.4-1.06,0-1.47l28.54-28.54c0.4-0.4,1.06-0.4,1.47,0
			c0.4,0.4,0.4,1.06,0,1.47l-28.54,28.54C774.64,235.15,774.37,235.25,774.11,235.25z"/>
		<path class="st2" d="M803.82,235.25c-0.27,0-0.53-0.1-0.73-0.3c-0.4-0.4-0.4-1.06,0-1.47l28.54-28.54c0.4-0.4,1.06-0.4,1.47,0
			c0.4,0.4,0.4,1.06,0,1.47l-28.54,28.54C804.35,235.15,804.08,235.25,803.82,235.25z"/>
		<path class="st2" d="M831.85,235.25c-0.27,0-0.53-0.1-0.73-0.3c-0.4-0.4-0.4-1.06,0-1.47l58.58-58.58c0.4-0.4,1.06-0.4,1.47,0
			c0.4,0.4,0.4,1.06,0,1.47l-58.58,58.58C832.38,235.15,832.12,235.25,831.85,235.25z"/>
		<path class="st2" d="M860.89,235.25c-0.27,0-0.53-0.1-0.73-0.3c-0.4-0.4-0.4-1.06,0-1.47l13.52-13.52c0.4-0.4,1.06-0.4,1.47,0
			c0.4,0.4,0.4,1.06,0,1.47l-13.52,13.52C861.42,235.15,861.16,235.25,860.89,235.25z"/>
		<path class="st2" d="M960.72,211.9h-35.55c-0.57,0-1.04-0.46-1.04-1.04s0.46-1.04,1.04-1.04h35.55c0.57,0,1.04,0.46,1.04,1.04
			S961.29,211.9,960.72,211.9z"/>
		<path class="st2" d="M960.72,224.92h-35.55c-0.57,0-1.04-0.46-1.04-1.04c0-0.57,0.46-1.04,1.04-1.04h35.55
			c0.57,0,1.04,0.46,1.04,1.04C961.75,224.46,961.29,224.92,960.72,224.92z"/>
		<path class="st2" d="M880.92,271.23c-0.27,0-0.53-0.1-0.73-0.3c-0.4-0.4-0.4-1.06,0-1.47l32.48-32.48c0.4-0.4,1.06-0.4,1.47,0
			c0.4,0.4,0.4,1.06,0,1.47l-32.48,32.48C881.45,271.13,881.19,271.23,880.92,271.23z"/>
		<path class="st2" d="M880.92,303.38c-0.27,0-0.53-0.1-0.73-0.3c-0.4-0.4-0.4-1.06,0-1.47l32.48-32.48c0.4-0.4,1.06-0.4,1.47,0
			c0.4,0.4,0.4,1.06,0,1.47l-32.48,32.48C881.45,303.28,881.19,303.38,880.92,303.38z"/>
		<path class="st2" d="M880.92,335.52c-0.27,0-0.53-0.1-0.73-0.3c-0.4-0.4-0.4-1.06,0-1.47l32.48-32.48c0.4-0.4,1.06-0.4,1.47,0
			c0.4,0.4,0.4,1.06,0,1.47l-32.48,32.48C881.45,335.42,881.19,335.52,880.92,335.52z"/>
		<path class="st2" d="M880.92,367.67c-0.27,0-0.53-0.1-0.73-0.3c-0.4-0.4-0.4-1.06,0-1.47l32.48-32.48c0.4-0.4,1.06-0.4,1.47,0
			c0.4,0.4,0.4,1.06,0,1.47l-32.48,32.48C881.45,367.56,881.19,367.67,880.92,367.67z"/>
		<path class="st2" d="M880.92,399.81c-0.27,0-0.53-0.1-0.73-0.3c-0.4-0.4-0.4-1.06,0-1.47l32.48-32.48c0.4-0.4,1.06-0.4,1.47,0
			c0.4,0.4,0.4,1.06,0,1.47l-32.48,32.48C881.45,399.71,881.19,399.81,880.92,399.81z"/>
		<path class="st2" d="M883.83,429.04c-0.27,0-0.53-0.1-0.73-0.3c-0.4-0.4-0.4-1.06,0-1.47l29.57-29.57c0.4-0.4,1.06-0.4,1.47,0
			c0.4,0.4,0.4,1.06,0,1.47l-29.57,29.57C884.36,428.94,884.1,429.04,883.83,429.04z"/>
		<path class="st3" d="M735.24,283.83c-0.27,0-0.53-0.1-0.73-0.3c-0.4-0.4-0.4-1.06,0-1.47l16.27-16.27c0.4-0.4,1.06-0.4,1.47,0
			c0.4,0.4,0.4,1.06,0,1.47l-16.27,16.27C735.77,283.73,735.51,283.83,735.24,283.83z"/>
		<path class="st3" d="M741.25,295.85c-0.27,0-0.53-0.1-0.73-0.3c-0.4-0.4-0.4-1.06,0-1.47l19.53-19.53c0.4-0.4,1.06-0.4,1.47,0
			c0.4,0.4,0.4,1.06,0,1.47l-19.53,19.53C741.78,295.75,741.52,295.85,741.25,295.85z"/>
		<path class="st3" d="M748.4,267.48c-0.57,0-1.04-0.46-1.04-1.04V234.4c0-0.57,0.46-1.04,1.04-1.04c0.57,0,1.04,0.46,1.04,1.04
			v32.04C749.43,267.02,748.97,267.48,748.4,267.48z"/>
		<path class="st3" d="M748.43,307.03c-0.57,0-1.04-0.46-1.04-1.04v-10.01c0-0.57,0.46-1.04,1.04-1.04c0.57,0,1.04,0.46,1.04,1.04
			V306C749.46,306.57,749,307.03,748.43,307.03z"/>
		<path class="st3" d="M754.6,297.02h-13.35l-7.38-7.1v-24.51h28.11v24.51L754.6,297.02z M742.09,294.95h11.68l6.14-5.91v-21.55
			h-23.96v21.55L742.09,294.95z"/>
		<path class="st4" d="M761.95,319.52"/>
		<path class="st4" d="M748.43,306"/>
		<path class="st3" d="M960.72,235.44H711.88c-0.57,0-1.04-0.46-1.04-1.04s0.46-1.04,1.04-1.04h248.84c0.57,0,1.04,0.46,1.04,1.04
			S961.29,235.44,960.72,235.44z"/>
		<path class="st3" d="M881.11,265.48h-52.57c-0.57,0-1.04-0.46-1.04-1.04c0-0.57,0.46-1.04,1.04-1.04h52.57
			c0.57,0,1.04,0.46,1.04,1.04C882.14,265.01,881.68,265.48,881.11,265.48z"/>
		<path class="st3" d="M880.61,301.53h-52.57c-0.57,0-1.04-0.46-1.04-1.04c0-0.57,0.46-1.04,1.04-1.04h52.57
			c0.57,0,1.04,0.46,1.04,1.04C881.64,301.06,881.18,301.53,880.61,301.53z"/>
		<path class="st3" d="M912.65,429.2h-32.04c-0.57,0-1.04-0.46-1.04-1.04c0-0.57,0.46-1.04,1.04-1.04h32.04
			c0.57,0,1.04,0.46,1.04,1.04C913.69,428.74,913.22,429.2,912.65,429.2z"/>
		<path class="st3" d="M960.72,196.38h-35.55c-0.57,0-1.04-0.46-1.04-1.04c0-0.57,0.46-1.04,1.04-1.04h35.55
			c0.57,0,1.04,0.46,1.04,1.04C961.75,195.92,961.29,196.38,960.72,196.38z"/>
		<path class="st3" d="M960.72,209.9h-35.55c-0.57,0-1.04-0.46-1.04-1.04s0.46-1.04,1.04-1.04h35.55c0.57,0,1.04,0.46,1.04,1.04
			S961.29,209.9,960.72,209.9z"/>
		<path class="st3" d="M960.72,222.92h-35.55c-0.57,0-1.04-0.46-1.04-1.04s0.46-1.04,1.04-1.04h35.55c0.57,0,1.04,0.46,1.04,1.04
			S961.29,222.92,960.72,222.92z"/>
		<path class="st3" d="M857.08,206.4H740.92c-0.57,0-1.04-0.46-1.04-1.04s0.46-1.04,1.04-1.04h116.16c0.57,0,1.04,0.46,1.04,1.04
			S857.65,206.4,857.08,206.4z"/>
		<path class="st3" d="M829.85,234.25c-0.27,0-0.53-0.1-0.73-0.3c-0.4-0.4-0.4-1.06,0-1.47l60.83-60.83c0.4-0.4,1.06-0.4,1.47,0
			c0.4,0.4,0.4,1.06,0,1.47l-60.83,60.83C830.38,234.15,830.12,234.25,829.85,234.25z"/>
		<path class="st3" d="M711.69,235.25c-0.27,0-0.53-0.1-0.73-0.3c-0.4-0.4-0.4-1.06,0-1.47l28.54-28.54c0.4-0.4,1.06-0.4,1.47,0
			c0.4,0.4,0.4,1.06,0,1.47l-28.54,28.54C712.22,235.15,711.96,235.25,711.69,235.25z"/>
		<path class="st3" d="M741.4,235.25c-0.27,0-0.53-0.1-0.73-0.3c-0.4-0.4-0.4-1.06,0-1.47l28.54-28.54c0.4-0.4,1.06-0.4,1.47,0
			c0.4,0.4,0.4,1.06,0,1.47l-28.54,28.54C741.93,235.15,741.66,235.25,741.4,235.25z"/>
		<path class="st3" d="M771.1,235.25c-0.27,0-0.53-0.1-0.73-0.3c-0.4-0.4-0.4-1.06,0-1.47l28.54-28.54c0.4-0.4,1.06-0.4,1.47,0
			c0.4,0.4,0.4,1.06,0,1.47l-28.54,28.54C771.63,235.15,771.37,235.25,771.1,235.25z"/>
		<path class="st3" d="M800.81,235.25c-0.27,0-0.53-0.1-0.73-0.3c-0.4-0.4-0.4-1.06,0-1.47l28.54-28.54c0.4-0.4,1.06-0.4,1.47,0
			c0.4,0.4,0.4,1.06,0,1.47l-28.54,28.54C801.34,235.15,801.08,235.25,800.81,235.25z"/>
		<path class="st3" d="M828.6,264.54c-0.27,0-0.53-0.1-0.73-0.3c-0.4-0.4-0.4-1.06,0-1.47l43.31-43.31c0.4-0.4,1.06-0.4,1.47,0
			c0.4,0.4,0.4,1.06,0,1.47l-43.31,43.31C829.13,264.44,828.87,264.54,828.6,264.54z"/>
		<path class="st3" d="M829.35,235.25c-0.27,0-0.53-0.1-0.73-0.3l-28.54-28.54c-0.4-0.4-0.4-1.06,0-1.47c0.4-0.4,1.06-0.4,1.47,0
			l28.54,28.54c0.4,0.4,0.4,1.06,0,1.47C829.88,235.15,829.62,235.25,829.35,235.25z"/>
		<path class="st3" d="M857.89,235.25c-0.27,0-0.53-0.1-0.73-0.3l-28.54-28.54c-0.4-0.4-0.4-1.06,0-1.47c0.4-0.4,1.06-0.4,1.47,0
			l28.54,28.54c0.4,0.4,0.4,1.06,0,1.47C858.42,235.15,858.15,235.25,857.89,235.25z"/>
		<path class="st3" d="M913.4,268.23c-0.27,0-0.53-0.1-0.73-0.3l-32.48-32.48c-0.4-0.4-0.4-1.06,0-1.47c0.4-0.4,1.06-0.4,1.47,0
			l32.48,32.48c0.4,0.4,0.4,1.06,0,1.47C913.93,268.13,913.67,268.23,913.4,268.23z"/>
		<path class="st3" d="M913.4,300.37c-0.27,0-0.53-0.1-0.73-0.3l-32.48-32.48c-0.4-0.4-0.4-1.06,0-1.47c0.4-0.4,1.06-0.4,1.47,0
			l32.48,32.48c0.4,0.4,0.4,1.06,0,1.47C913.93,300.27,913.67,300.37,913.4,300.37z"/>
		<path class="st3" d="M913.4,332.52c-0.27,0-0.53-0.1-0.73-0.3l-32.48-32.48c-0.4-0.4-0.4-1.06,0-1.47c0.4-0.4,1.06-0.4,1.47,0
			l32.48,32.48c0.4,0.4,0.4,1.06,0,1.47C913.93,332.42,913.67,332.52,913.4,332.52z"/>
		<path class="st3" d="M913.4,364.66c-0.27,0-0.53-0.1-0.73-0.3l-32.48-32.48c-0.4-0.4-0.4-1.06,0-1.47c0.4-0.4,1.06-0.4,1.47,0
			l32.48,32.48c0.4,0.4,0.4,1.06,0,1.47C913.93,364.56,913.67,364.66,913.4,364.66z"/>
		<path class="st3" d="M913.4,396.81c-0.27,0-0.53-0.1-0.73-0.3l-32.48-32.48c-0.4-0.4-0.4-1.06,0-1.47c0.4-0.4,1.06-0.4,1.47,0
			l32.48,32.48c0.4,0.4,0.4,1.06,0,1.47C913.93,396.7,913.67,396.81,913.4,396.81z"/>
		<path class="st3" d="M913.4,428.95c-0.27,0-0.53-0.1-0.73-0.3l-32.48-32.48c-0.4-0.4-0.4-1.06,0-1.47c0.4-0.4,1.06-0.4,1.47,0
			l32.48,32.48c0.4,0.4,0.4,1.06,0,1.47C913.93,428.85,913.67,428.95,913.4,428.95z"/>
		<path class="st3" d="M924.67,195.88c-0.27,0-0.53-0.1-0.73-0.3l-22.22-22.22c-0.4-0.4-0.4-1.06,0-1.47c0.4-0.4,1.06-0.4,1.47,0
			l22.22,22.22c0.4,0.4,0.4,1.06,0,1.47C925.2,195.78,924.93,195.88,924.67,195.88z"/>
		<path class="st3" d="M887.93,235.25c-0.27,0-0.53-0.1-0.73-0.3l-28.54-28.54c-0.4-0.4-0.4-1.06,0-1.47c0.4-0.4,1.06-0.4,1.47,0
			l28.54,28.54c0.4,0.4,0.4,1.06,0,1.47C888.46,235.15,888.2,235.25,887.93,235.25z"/>
		<path class="st3" d="M799.64,235.25c-0.27,0-0.53-0.1-0.73-0.3l-28.54-28.54c-0.4-0.4-0.4-1.06,0-1.47c0.4-0.4,1.06-0.4,1.47,0
			l28.54,28.54c0.4,0.4,0.4,1.06,0,1.47C800.17,235.15,799.91,235.25,799.64,235.25z"/>
		<path class="st3" d="M769.94,235.25c-0.27,0-0.53-0.1-0.73-0.3l-28.54-28.54c-0.4-0.4-0.4-1.06,0-1.47c0.4-0.4,1.06-0.4,1.47,0
			l28.54,28.54c0.4,0.4,0.4,1.06,0,1.47C770.47,235.15,770.2,235.25,769.94,235.25z"/>
		<path class="st3" d="M741.9,235.25c-0.27,0-0.53-0.1-0.73-0.3l-14.67-14.67c-0.4-0.4-0.4-1.06,0-1.47c0.4-0.4,1.06-0.4,1.47,0
			l14.67,14.67c0.4,0.4,0.4,1.06,0,1.47C742.43,235.15,742.16,235.25,741.9,235.25z"/>
		<path class="st3" d="M891.09,234.72c-0.57,0-1.04-0.46-1.04-1.04v-61.36c0-0.57,0.46-1.04,1.04-1.04s1.04,0.46,1.04,1.04v61.36
			C892.13,234.25,891.66,234.72,891.09,234.72z"/>
		<path class="st3" d="M828,301.53c-0.57,0-1.04-0.46-1.04-1.04v-36.55c0-0.57,0.46-1.04,1.04-1.04c0.57,0,1.04,0.46,1.04,1.04
			v36.55C829.04,301.06,828.58,301.53,828,301.53z"/>
		<path class="st3" d="M880.58,428.7c-0.57,0-1.04-0.46-1.04-1.04V234.9c0-0.57,0.46-1.04,1.04-1.04s1.04,0.46,1.04,1.04v192.76
			C881.61,428.23,881.15,428.7,880.58,428.7z"/>
		<path class="st3" d="M913.65,428.7c-0.57,0-1.04-0.46-1.04-1.04V234.9c0-0.57,0.46-1.04,1.04-1.04c0.57,0,1.04,0.46,1.04,1.04
			v192.76C914.69,428.23,914.23,428.7,913.65,428.7z"/>
		<path class="st3" d="M902.11,234.72c-0.57,0-1.04-0.46-1.04-1.04v-61.36c0-0.57,0.46-1.04,1.04-1.04s1.04,0.46,1.04,1.04v61.36
			C903.14,234.25,902.68,234.72,902.11,234.72z"/>
		<path class="st3" d="M924.14,235.22c-0.57,0-1.04-0.46-1.04-1.04v-39.33c0-0.57,0.46-1.04,1.04-1.04c0.57,0,1.04,0.46,1.04,1.04
			v39.33C925.17,234.75,924.71,235.22,924.14,235.22z"/>
		<path class="st3" d="M960.69,235.44c-0.57,0-1.04-0.46-1.04-1.04v-39.05c0-0.57,0.46-1.04,1.04-1.04s1.04,0.46,1.04,1.04v39.05
			C961.72,234.97,961.26,235.44,960.69,235.44z"/>
		<path class="st3" d="M880.92,268.23c-0.27,0-0.53-0.1-0.73-0.3c-0.4-0.4-0.4-1.06,0-1.47l32.48-32.48c0.4-0.4,1.06-0.4,1.47,0
			c0.4,0.4,0.4,1.06,0,1.47l-32.48,32.48C881.45,268.13,881.19,268.23,880.92,268.23z"/>
		<path class="st3" d="M880.92,300.37c-0.27,0-0.53-0.1-0.73-0.3c-0.4-0.4-0.4-1.06,0-1.47l32.48-32.48c0.4-0.4,1.06-0.4,1.47,0
			c0.4,0.4,0.4,1.06,0,1.47l-32.48,32.48C881.45,300.27,881.19,300.37,880.92,300.37z"/>
		<path class="st3" d="M880.92,332.52c-0.27,0-0.53-0.1-0.73-0.3c-0.4-0.4-0.4-1.06,0-1.47l32.48-32.48c0.4-0.4,1.06-0.4,1.47,0
			c0.4,0.4,0.4,1.06,0,1.47l-32.48,32.48C881.45,332.42,881.19,332.52,880.92,332.52z"/>
		<path class="st3" d="M880.92,364.66c-0.27,0-0.53-0.1-0.73-0.3c-0.4-0.4-0.4-1.06,0-1.47l32.48-32.48c0.4-0.4,1.06-0.4,1.47,0
			c0.4,0.4,0.4,1.06,0,1.47l-32.48,32.48C881.45,364.56,881.19,364.66,880.92,364.66z"/>
		<path class="st3" d="M880.92,396.81c-0.27,0-0.53-0.1-0.73-0.3c-0.4-0.4-0.4-1.06,0-1.47l32.48-32.48c0.4-0.4,1.06-0.4,1.47,0
			c0.4,0.4,0.4,1.06,0,1.47l-32.48,32.48C881.45,396.7,881.19,396.81,880.92,396.81z"/>
		<path class="st3" d="M880.92,428.95c-0.27,0-0.53-0.1-0.73-0.3c-0.4-0.4-0.4-1.06,0-1.47l32.48-32.48c0.4-0.4,1.06-0.4,1.47,0
			c0.4,0.4,0.4,1.06,0,1.47l-32.48,32.48C881.45,428.85,881.19,428.95,880.92,428.95z"/>
		<path class="st3" d="M770.96,206.9c-0.45,0-0.87-0.3-1-0.76c-0.15-0.55,0.17-1.12,0.72-1.28l120.23-33.48
			c0.55-0.15,1.12,0.17,1.28,0.72c0.15,0.55-0.17,1.12-0.72,1.28l-120.23,33.48C771.14,206.88,771.05,206.9,770.96,206.9z"/>
		<path class="st3" d="M902.14,173.35h-11.01c-0.57,0-1.04-0.46-1.04-1.04s0.46-1.04,1.04-1.04h11.01c0.57,0,1.04,0.46,1.04,1.04
			S902.71,173.35,902.14,173.35z"/>
		<path class="st3" d="M762.98,319.51c0-8.03-6.53-14.55-14.55-14.55c-0.57,0-1.04,0.46-1.04,1.04c0,0.57,0.46,1.04,1.04,1.04
			c6.88,0,12.48,5.6,12.48,12.48c0,6.88-5.6,12.48-12.48,12.48c-0.01,0-0.02,0.01-0.04,0.01c-6.92-0.17-12.5-5.83-12.5-12.79
			c0-0.57-0.46-1.02-1.02-1.02s-1.02,0.46-1.02,1.02c0,8.07,6.47,14.64,14.49,14.84c0.03,0,0.06,0.02,0.09,0.02
			c0.05,0,0.09-0.01,0.14-0.01c0.05,0,0.09,0.01,0.14,0.01c0.03,0,0.06-0.02,0.09-0.02C756.65,333.86,762.98,327.42,762.98,319.51z"
			/>
	</g>
	<rect x="857.41" y="271" class="st7" width="17.03" height="9.57"/>
	<g class="st8">
		<g>
			<path class="st5" d="M693.39,387.11v-34.3h-26.3v34.3h-37.46l54.5-93.01h-28.62l-49.29,84.47c0.16-3.8,0.22-7.63,0.22-11.45
				c0-23.99-2.32-48.4-17.47-62.92c-7.57-7.37-18.31-13.05-34.09-13.05c-15.78,0-26.51,5.68-34.09,13.05
				c-15.15,14.52-17.46,38.93-17.46,62.92c0,6.71,0.18,13.45,0.77,19.99h-13.23v-34.3h-26.3v34.3h-37.46l54.5-93.01H453
				l-53.66,91.96v24.83h65.23v29.46h26.3v-29.46h18.03c2.62,7.35,6.41,13.9,11.89,19.15c7.58,7.36,18.31,13.05,34.09,13.05
				c15.78,0,26.51-5.68,34.09-13.05c6.21-5.95,10.26-13.56,12.88-22.12v2.97h65.23v29.46h26.3v-29.46h18.52v-23.78H693.39z
				 M554.89,418.67c-27.15,0-24.83-32.62-24.83-51.56s-2.31-51.55,24.83-51.55c27.15,0,24.83,32.61,24.83,51.55
				S582.03,418.67,554.89,418.67z"/>
		</g>
	</g>
	<g>
		<g>
			<rect x="1053.88" y="352.85" class="st9" width="2.13" height="56.46"/>
		</g>
		<g>
			<path class="st10" d="M1059.22,349.78h-8.53l-3.76-11.14v-3.4h15.88l-0.1,3.41L1059.22,349.78z M1052.21,347.65h5.44l2.93-9.37
				l0.03-0.92h-11.56v0.93L1052.21,347.65z"/>
		</g>
		<g>
			<path class="st10" d="M1059.31,349.78h-8.53l-3.76-11.14v-3.4h15.88l-0.11,3.41L1059.31,349.78z M1052.31,347.65h5.44l2.93-9.37
				l0.03-0.92h-11.56v0.93L1052.31,347.65z"/>
		</g>
		<g>
			<rect x="1052.55" y="368.5" class="st9" width="4.98" height="2.13"/>
		</g>
		<g>
			<rect x="1052.45" y="351.69" class="st9" width="4.98" height="2.13"/>
		</g>
		<g>
			<rect x="1049.46" y="347.65" class="st9" width="10.96" height="2.13"/>
		</g>
		<path class="st11" d="M196.68,372.36c0-4.4-2.81-8.13-6.72-9.54c0.36-1.37,0.55-2.8,0.55-4.28c0-5.86-2.98-11.02-7.51-14.05
			c0.29-0.95,0.45-1.95,0.45-3c0-5.6-4.54-10.14-10.14-10.14c-5.6,0-10.14,4.54-10.14,10.14c0,1.17,0.21,2.28,0.57,3.33
			c-4.26,3.07-7.04,8.07-7.04,13.72c0,1.58,0.22,3.1,0.62,4.54c-3.95,1.38-6.8,5.14-6.8,9.56c0,3.54,1.82,6.66,4.57,8.47
			c-0.66,1.35-1.05,2.86-1.05,4.46c0,5.6,4.54,10.14,10.14,10.14c1.35,0,2.64-0.27,3.82-0.75c2.66,2.12,6.03,3.4,9.7,3.4
			c8.6,0,15.58-6.98,15.58-15.58c0-0.91-0.08-1.81-0.23-2.68C195.27,378.26,196.68,375.48,196.68,372.36z"/>
		<path class="st11" d="M836.65,365.94c-1.24,0-2.43,0.2-3.55,0.56c-2.47-5.26-7.82-8.9-14.01-8.9c-6.53,0-12.11,4.04-14.38,9.76
			c-1.65-0.9-3.55-1.42-5.56-1.42c-6.41,0-11.61,5.2-11.61,11.61s5.2,11.61,11.61,11.61c0.59,0,1.17-0.06,1.73-0.14
			c1.72,4.27,5.89,7.29,10.77,7.29c5.22,0,9.63-3.44,11.09-8.18c2.02-0.49,3.89-1.37,5.52-2.57c2.11,2.22,5.09,3.6,8.4,3.6
			c6.41,0,11.61-5.2,11.61-11.61S843.07,365.94,836.65,365.94z"/>
		<path class="st11" d="M1014.1,408.99c0.58-7.42,6.77-13.26,14.34-13.26c2.47,0,4.8,0.62,6.83,1.72c0.44-5.17,4.76-9.23,10.05-9.23
			c5.24,0,9.54,3.99,10.04,9.1c1.35-0.92,2.97-1.45,4.72-1.45c4.05,0,7.42,2.86,8.22,6.67h2.82c1.17-1.54,3.01-2.54,5.09-2.54
			c3.53,0,6.4,2.86,6.4,6.4c0,0.92-0.2,1.8-0.55,2.59H1014.1z"/>
		<g>
			<path class="st9" d="M177.72,399.44c-3.6,0-7.01-1.12-9.88-3.26c-1.17,0.4-2.4,0.61-3.64,0.61c-6.18,0-11.2-5.03-11.2-11.2
				c0-1.41,0.26-2.79,0.79-4.1c-2.72-2.12-4.31-5.36-4.31-8.83c0-4.42,2.62-8.41,6.6-10.21c-0.29-1.28-0.43-2.59-0.43-3.9
				c0-5.5,2.55-10.72,6.86-14.12c-0.26-0.96-0.4-1.95-0.4-2.93c0-6.18,5.03-11.2,11.2-11.2s11.2,5.03,11.2,11.2
				c0,0.86-0.1,1.72-0.29,2.56c4.62,3.38,7.35,8.75,7.35,14.49c0,1.22-0.12,2.44-0.37,3.64c3.95,1.81,6.54,5.79,6.54,10.18
				c0,3.11-1.28,6.05-3.54,8.17c0.1,0.76,0.16,1.52,0.16,2.27C194.36,391.98,186.9,399.44,177.72,399.44z M168.19,393.76l0.49,0.39
				c2.59,2.07,5.72,3.16,9.04,3.16c8,0,14.52-6.51,14.52-14.52c0-0.82-0.07-1.66-0.22-2.5l-0.1-0.6l0.47-0.39
				c2.06-1.73,3.24-4.26,3.24-6.94c0-3.81-2.42-7.24-6.02-8.54l-0.92-0.33l0.25-0.94c0.34-1.31,0.51-2.65,0.51-4.01
				c0-5.29-2.63-10.22-7.03-13.17l-0.66-0.44l0.23-0.76c0.27-0.87,0.4-1.77,0.4-2.68c0-5.01-4.07-9.08-9.08-9.08
				c-5.01,0-9.08,4.07-9.08,9.08c0,1,0.17,2,0.51,2.98l0.26,0.75l-0.64,0.46c-4.13,2.97-6.6,7.78-6.6,12.86
				c0,1.44,0.2,2.87,0.58,4.26l0.27,0.96l-0.94,0.33c-3.64,1.27-6.08,4.71-6.08,8.56c0,3.06,1.53,5.89,4.09,7.58l0.78,0.52
				l-0.41,0.84c-0.62,1.26-0.94,2.61-0.94,3.99c0,5.01,4.07,9.08,9.08,9.08c1.17,0,2.32-0.23,3.42-0.67L168.19,393.76z"/>
		</g>
		<g>
			
				<rect x="173.36" y="368.42" transform="matrix(1 -5.855282e-03 5.855282e-03 1 -2.3319 1.0281)" class="st9" width="2.13" height="60.68"/>
		</g>
		<g>
			
				<rect x="173.26" y="375.89" transform="matrix(0.7071 -0.7071 0.7071 0.7071 -214.3037 236.5256)" class="st9" width="10.2" height="2.13"/>
		</g>
		<path class="st11" d="M987.68,372.36c0-4.4-2.81-8.13-6.72-9.54c0.36-1.37,0.55-2.8,0.55-4.28c0-5.86-2.98-11.02-7.51-14.05
			c0.29-0.95,0.45-1.95,0.45-3c0-5.6-4.54-10.14-10.14-10.14s-10.14,4.54-10.14,10.14c0,1.17,0.21,2.28,0.57,3.33
			c-4.26,3.07-7.04,8.07-7.04,13.72c0,1.58,0.22,3.1,0.62,4.54c-3.95,1.38-6.8,5.14-6.8,9.56c0,3.54,1.82,6.66,4.57,8.47
			c-0.66,1.35-1.05,2.86-1.05,4.46c0,5.6,4.54,10.14,10.14,10.14c1.35,0,2.64-0.27,3.82-0.75c2.66,2.12,6.03,3.4,9.7,3.4
			c8.6,0,15.58-6.98,15.58-15.58c0-0.91-0.08-1.81-0.23-2.68C986.27,378.26,987.68,375.48,987.68,372.36z"/>
		<g>
			<path class="st9" d="M968.72,399.44c-3.6,0-7.01-1.12-9.88-3.26c-1.17,0.4-2.4,0.61-3.64,0.61c-6.18,0-11.2-5.03-11.2-11.2
				c0-1.41,0.26-2.79,0.79-4.1c-2.72-2.12-4.31-5.36-4.31-8.83c0-4.42,2.62-8.41,6.6-10.21c-0.29-1.28-0.43-2.59-0.43-3.9
				c0-5.5,2.55-10.72,6.86-14.12c-0.26-0.96-0.4-1.95-0.4-2.93c0-6.18,5.03-11.2,11.2-11.2c6.18,0,11.2,5.03,11.2,11.2
				c0,0.86-0.1,1.72-0.29,2.56c4.62,3.38,7.35,8.75,7.35,14.49c0,1.22-0.12,2.44-0.37,3.64c3.95,1.81,6.54,5.79,6.54,10.18
				c0,3.11-1.28,6.05-3.54,8.17c0.1,0.76,0.16,1.52,0.16,2.27C985.36,391.98,977.9,399.44,968.72,399.44z M959.19,393.76l0.49,0.39
				c2.59,2.07,5.72,3.16,9.04,3.16c8,0,14.52-6.51,14.52-14.52c0-0.82-0.07-1.66-0.22-2.5l-0.1-0.6l0.47-0.39
				c2.06-1.73,3.24-4.26,3.24-6.94c0-3.81-2.42-7.24-6.02-8.54l-0.92-0.33l0.25-0.94c0.34-1.31,0.51-2.65,0.51-4.01
				c0-5.29-2.63-10.22-7.03-13.17l-0.66-0.44l0.23-0.76c0.27-0.87,0.4-1.77,0.4-2.68c0-5.01-4.07-9.08-9.08-9.08
				c-5.01,0-9.08,4.07-9.08,9.08c0,1,0.17,2,0.51,2.98l0.26,0.75l-0.64,0.46c-4.13,2.97-6.6,7.78-6.6,12.86
				c0,1.44,0.2,2.87,0.58,4.26l0.27,0.96l-0.94,0.33c-3.64,1.27-6.08,4.71-6.08,8.56c0,3.06,1.53,5.89,4.09,7.58l0.78,0.52
				l-0.41,0.84c-0.62,1.26-0.94,2.61-0.94,3.99c0,5.01,4.07,9.08,9.08,9.08c1.17,0,2.32-0.23,3.42-0.67L959.19,393.76z"/>
		</g>
		<g>
			
				<rect x="964.36" y="368.42" transform="matrix(1 -5.855282e-03 5.855282e-03 1 -2.3183 5.6597)" class="st9" width="2.13" height="60.68"/>
		</g>
		<g>
			
				<rect x="964.26" y="375.89" transform="matrix(0.7071 -0.7071 0.7071 0.7071 17.3749 795.847)" class="st9" width="10.2" height="2.13"/>
		</g>
		<g>
			<path class="st9" d="M1082.74,410.05h-69.79l0.09-1.15c0.62-7.99,7.39-14.24,15.4-14.24c2.06,0,4.11,0.42,6,1.21
				c1.12-4.99,5.64-8.72,10.88-8.72c5.23,0,9.64,3.56,10.84,8.5c1.22-0.56,2.56-0.85,3.92-0.85c4.16,0,7.83,2.76,9.04,6.67h1.5
				c1.42-1.62,3.43-2.54,5.6-2.54c4.11,0,7.46,3.35,7.46,7.46c0,1.05-0.22,2.06-0.64,3.03L1082.74,410.05z M1015.3,407.92h66.01
				c0.15-0.5,0.23-1.01,0.23-1.53c0-2.94-2.39-5.33-5.33-5.33c-1.68,0-3.22,0.77-4.25,2.12l-0.32,0.42h-4.22l-0.18-0.84
				c-0.71-3.37-3.73-5.82-7.18-5.82c-1.48,0-2.9,0.44-4.12,1.27l-1.48,1.01l-0.17-1.78c-0.45-4.64-4.31-8.14-8.98-8.14
				c-4.65,0-8.6,3.63-8.99,8.26l-0.14,1.62l-1.43-0.77c-1.93-1.04-4.12-1.59-6.32-1.59C1021.92,396.79,1016.36,401.6,1015.3,407.92z
				"/>
		</g>
		<path class="st11" d="M87.9,428.99c0.58-7.42,6.77-13.26,14.34-13.26c2.47,0,4.8,0.62,6.83,1.72c0.44-5.17,4.76-9.23,10.05-9.23
			c5.24,0,9.54,3.99,10.04,9.1c1.35-0.92,2.97-1.45,4.72-1.45c4.05,0,7.42,2.86,8.22,6.67h2.82c1.17-1.54,3.01-2.54,5.09-2.54
			c3.53,0,6.4,2.86,6.4,6.4c0,0.92-0.2,1.8-0.55,2.59H87.9z"/>
		<g>
			<path class="st9" d="M156.54,430.05H86.75l0.09-1.15c0.62-7.99,7.39-14.24,15.4-14.24c2.06,0,4.11,0.42,6,1.21
				c1.12-4.99,5.64-8.72,10.88-8.72c5.23,0,9.64,3.56,10.84,8.5c1.22-0.56,2.56-0.85,3.92-0.85c4.16,0,7.83,2.76,9.04,6.67h1.5
				c1.42-1.62,3.43-2.54,5.6-2.54c4.11,0,7.46,3.35,7.46,7.46c0,1.05-0.22,2.06-0.64,3.03L156.54,430.05z M89.1,427.92h66.01
				c0.15-0.5,0.23-1.01,0.23-1.53c0-2.94-2.39-5.33-5.33-5.33c-1.68,0-3.22,0.77-4.25,2.12l-0.32,0.42h-4.22l-0.18-0.84
				c-0.71-3.37-3.73-5.82-7.18-5.82c-1.48,0-2.9,0.44-4.12,1.27l-1.48,1.01l-0.17-1.78c-0.45-4.64-4.31-8.14-8.98-8.14
				c-4.65,0-8.6,3.63-8.99,8.26l-0.14,1.62l-1.43-0.77c-1.93-1.04-4.12-1.59-6.32-1.59C95.72,416.79,90.16,421.6,89.1,427.92z"/>
		</g>
		<g>
			<rect x="127.68" y="358.85" class="st9" width="2.13" height="56.46"/>
		</g>
		<g>
			<path class="st10" d="M133.01,355.78h-8.53l-3.76-11.14v-3.4h15.88l-0.11,3.41L133.01,355.78z M126.01,353.65h5.44l2.93-9.37
				l0.03-0.92h-11.56v0.93L126.01,353.65z"/>
		</g>
		<g>
			<path class="st10" d="M133.11,355.78h-8.53l-3.76-11.14v-3.4h15.88l-0.11,3.41L133.11,355.78z M126.11,353.65h5.44l2.93-9.37
				l0.03-0.92h-11.56v0.93L126.11,353.65z"/>
		</g>
		<g>
			<rect x="126.34" y="374.5" class="st9" width="4.98" height="2.13"/>
		</g>
		<g>
			<rect x="126.25" y="357.69" class="st9" width="4.98" height="2.13"/>
		</g>
		<g>
			<rect x="123.26" y="353.65" class="st9" width="10.96" height="2.13"/>
		</g>
		<g>
			<path class="st9" d="M811.65,397.37c-4.92,0-9.32-2.8-11.43-7.2c-0.38,0.04-0.73,0.05-1.08,0.05c-6.99,0-12.67-5.69-12.67-12.67
				c0-6.99,5.69-12.67,12.67-12.67c1.73,0,3.45,0.36,5.03,1.04c2.75-5.73,8.48-9.38,14.91-9.38c6.07,0,11.7,3.39,14.57,8.7
				c0.98-0.24,1.99-0.36,3-0.36c6.99,0,12.67,5.69,12.67,12.67c0,6.99-5.69,12.67-12.67,12.67c-3.18,0-6.17-1.16-8.51-3.29
				c-1.41,0.93-2.95,1.63-4.58,2.08C821.75,394.04,817.04,397.37,811.65,397.37z M801.55,387.84l0.31,0.78
				c1.62,4.02,5.46,6.62,9.78,6.62c4.65,0,8.7-2.99,10.08-7.43l0.18-0.58l0.59-0.14c1.86-0.45,3.59-1.26,5.14-2.39l0.75-0.56
				l0.65,0.68c2.01,2.11,4.72,3.28,7.63,3.28c5.82,0,10.55-4.73,10.55-10.55s-4.73-10.55-10.55-10.55c-1.09,0-2.18,0.17-3.23,0.51
				l-0.89,0.29l-0.4-0.85c-2.37-5.03-7.49-8.28-13.05-8.28c-5.94,0-11.2,3.57-13.4,9.09l-0.44,1.12l-1.05-0.58
				c-1.54-0.84-3.29-1.29-5.05-1.29c-5.82,0-10.55,4.73-10.55,10.55s4.73,10.55,10.55,10.55c0.48,0,0.98-0.04,1.58-0.13
				L801.55,387.84z"/>
		</g>
		<g>
			<rect x="827.66" y="386.8" class="st9" width="2.13" height="22.63"/>
		</g>
		<g>
			<rect x="817.16" y="394.01" class="st9" width="2.13" height="15.42"/>
		</g>
		<g>
			
				<rect x="827.67" y="396.61" transform="matrix(0.7071 -0.7071 0.7071 0.7071 -37.6571 704.4296)" class="st9" width="7.65" height="2.13"/>
		</g>
		<path class="st11" d="M53.51,365.94c-1.24,0-2.43,0.2-3.55,0.56c-2.47-5.26-7.82-8.9-14.01-8.9c-6.53,0-12.11,4.04-14.38,9.76
			c-1.65-0.9-3.55-1.42-5.56-1.42c-6.41,0-11.61,5.2-11.61,11.61s5.2,11.61,11.61,11.61c0.59,0,1.17-0.06,1.73-0.14
			c1.72,4.27,5.89,7.29,10.77,7.29c5.22,0,9.63-3.44,11.09-8.18c2.02-0.49,3.89-1.37,5.52-2.57c2.11,2.22,5.09,3.6,8.4,3.6
			c6.41,0,11.61-5.2,11.61-11.61S59.92,365.94,53.51,365.94z"/>
		<g>
			<path class="st9" d="M28.5,397.37c-4.92,0-9.32-2.8-11.43-7.2c-0.38,0.04-0.73,0.05-1.08,0.05c-6.99,0-12.67-5.69-12.67-12.67
				c0-6.99,5.69-12.67,12.67-12.67c1.73,0,3.45,0.36,5.03,1.04c2.75-5.73,8.48-9.38,14.91-9.38c6.07,0,11.7,3.39,14.57,8.7
				c0.98-0.24,1.99-0.36,3-0.36c6.99,0,12.67,5.69,12.67,12.67c0,6.99-5.69,12.67-12.67,12.67c-3.18,0-6.17-1.16-8.51-3.29
				c-1.41,0.93-2.95,1.63-4.58,2.08C38.61,394.04,33.89,397.37,28.5,397.37z M18.4,387.84l0.31,0.78c1.62,4.02,5.46,6.62,9.78,6.62
				c4.65,0,8.7-2.99,10.08-7.43l0.18-0.58l0.59-0.14c1.86-0.45,3.59-1.26,5.14-2.39l0.75-0.56l0.65,0.68
				c2.01,2.11,4.72,3.28,7.63,3.28c5.82,0,10.55-4.73,10.55-10.55s-4.73-10.55-10.55-10.55c-1.09,0-2.18,0.17-3.23,0.51l-0.89,0.29
				l-0.4-0.85c-2.37-5.03-7.49-8.28-13.05-8.28c-5.94,0-11.2,3.57-13.4,9.09l-0.44,1.12l-1.05-0.58c-1.54-0.84-3.29-1.29-5.05-1.29
				c-5.82,0-10.55,4.73-10.55,10.55S10.18,388.1,16,388.1c0.48,0,0.98-0.04,1.58-0.13L18.4,387.84z"/>
		</g>
		<g>
			<rect x="44.51" y="386.8" class="st9" width="2.13" height="22.63"/>
		</g>
		<g>
			<rect x="34.02" y="394.01" class="st9" width="2.13" height="15.42"/>
		</g>
		<g>
			
				<rect x="44.52" y="396.61" transform="matrix(0.7071 -0.7071 0.7071 0.7071 -267.0348 150.6627)" class="st9" width="7.65" height="2.13"/>
		</g>
		<g>
			<rect x="194.59" y="398.78" class="st9" width="41.36" height="2.13"/>
		</g>
		<g>
			<rect x="194.59" y="403.82" class="st9" width="41.36" height="2.13"/>
		</g>
		<g>
			<rect x="194.59" y="408.85" class="st9" width="41.36" height="2.13"/>
		</g>
		<g>
			<rect x="189.42" y="414.9" class="st9" width="52.57" height="2.13"/>
		</g>
		<g>
			<rect x="200.53" y="395.94" class="st9" width="2.13" height="31.2"/>
		</g>
		<g>
			<rect x="228.38" y="395.94" class="st9" width="2.13" height="31.2"/>
		</g>
	</g>
</g>
</svg>
