<svg xmlns="http://www.w3.org/2000/svg" width="48.904" height="48.9" viewBox="0 0 48.904 48.9"><g transform="translate(-502 -460)"><g transform="translate(-14 -239)"><g transform="translate(-1221.142 473.941)"><path d="M1777.157,266.823a1.168,1.168,0,0,1-.825-.343l-7.94-7.941a1.167,1.167,0,0,1,1.65-1.65l7.941,7.939a1.167,1.167,0,0,1-.825,1.994Z"/><path d="M1769.215,266.823a1.168,1.168,0,0,1-.824-1.994l7.94-7.939a1.167,1.167,0,1,1,1.651,1.65h0l-7.941,7.941A1.158,1.158,0,0,1,1769.215,266.823Z"/><path d="M1773.078,248.022a12.969,12.969,0,1,0,12.968,12.969A12.968,12.968,0,0,0,1773.078,248.022Zm9.727,12.964a9.729,9.729,0,1,1-9.729-9.729A9.729,9.729,0,0,1,1782.805,260.986Z"/><path d="M1763.628,230.021a1.651,1.651,0,0,0-1.65-1.654h-2.57a4.139,4.139,0,0,0-8.109,0h-2.568a1.651,1.651,0,0,0-1.654,1.648h0v3.31h16.554Z"/><path d="M1748.588,240.019a1.654,1.654,0,0,0-.071,3.307h13.118a1.654,1.654,0,0,0,0-3.307Z"/><path d="M1769.417,244.816q.69-.129,1.387-.194a16.574,16.574,0,0,1,2.275-.175c.16,0,.316.02.475.024v-12.8a1.652,1.652,0,0,0-1.651-1.654h-4.969v3.312h2.483Z"/><path d="M1762.386,248.378a1.479,1.479,0,0,0-.483-.1h-13.048a1.654,1.654,0,0,0-.071,3.307h10.69A16.582,16.582,0,0,1,1762.386,248.378Z"/><path d="M1757.155,256.547H1748.6a1.654,1.654,0,0,0,0,3.307h7.994A16.517,16.517,0,0,1,1757.155,256.547Z"/><path d="M1757.8,267.345H1741.28V233.338h2.491v-3.317H1738.8a1.654,1.654,0,0,0-1.656,1.652v38.159a1.657,1.657,0,0,0,1.653,1.659h21.5A16.557,16.557,0,0,1,1757.8,267.345Z"/></g></g></g></svg>