<svg xmlns="http://www.w3.org/2000/svg" width="20.058" height="20.08" viewBox="0 0 20.058 20.08">
  <g id="Expand_Full_Screen" data-name="Expand Full Screen" transform="translate(-0.001 0.04)">
    <g id="Group_378" data-name="Group 378">
      <path id="Path_137" data-name="Path 137" d="M6.34,4.35l.54-.55L8.06,2.62a.51.51,0,0,0,0-.72.47.47,0,0,0-.29-.14A31.5,31.5,0,0,0,3.66,1.5a17.178,17.178,0,0,0-2.13.07A.5.5,0,0,0,1.06,2a34,34,0,0,0,.21,6.22.52.52,0,0,0,.58.44.53.53,0,0,0,.29-.14L3.31,7.37l.55-.54L6.24,9.21a1.29,1.29,0,0,0,1.82,0l.66-.66a1.28,1.28,0,0,0,0-1.82h0Z" transform="translate(-1 -1.5)" fill="#adadad"/>
      <path id="Path_138" data-name="Path 138" d="M14,9.21a1.29,1.29,0,0,0,1.82,0L18.2,6.83l.54.54,1.18,1.19a.51.51,0,0,0,.72,0,.54.54,0,0,0,.15-.29A34,34,0,0,0,21,2a.5.5,0,0,0-.47-.47c-.45,0-1.2-.07-2.13-.07a31.281,31.281,0,0,0-4.11.26.51.51,0,0,0-.44.57.54.54,0,0,0,.15.29L15.12,3.8l.55.55L13.28,6.73a1.29,1.29,0,0,0,0,1.82Z" transform="translate(-1 -1.5)" fill="#adadad"/>
      <path id="Path_139" data-name="Path 139" d="M8.06,13.79a1.29,1.29,0,0,0-1.82,0L3.86,16.17l-.54-.54L2.14,14.44a.51.51,0,0,0-.72,0,.57.57,0,0,0-.15.3A34,34,0,0,0,1.06,21a.5.5,0,0,0,.47.47c.45,0,1.2.06,2.13.07a31.28,31.28,0,0,0,4.11-.26.51.51,0,0,0,.44-.57.57.57,0,0,0-.15-.3L6.89,19.2l-.55-.55,2.38-2.38a1.28,1.28,0,0,0,0-1.82h0Z" transform="translate(-1 -1.5)" fill="#adadad"/>
      <path id="Path_140" data-name="Path 140" d="M19.87,14.44l-1.18,1.19-.54.54-2.38-2.38a1.29,1.29,0,0,0-1.82,0l-.66.66a1.27,1.27,0,0,0,0,1.82h0l2.38,2.38-.54.55L14,20.38a.51.51,0,0,0,0,.72.47.47,0,0,0,.29.14,31.5,31.5,0,0,0,4.11.26,17.178,17.178,0,0,0,2.13-.07A.5.5,0,0,0,21,21a34,34,0,0,0-.21-6.22.52.52,0,0,0-.58-.44.47.47,0,0,0-.34.1Z" transform="translate(-1 -1.5)" fill="#adadad"/>
    </g>
  </g>
</svg>
