<svg xmlns="http://www.w3.org/2000/svg" width="18.051" height="18.051" viewBox="0 0 18.051 18.051"><defs><style>.a{fill:#7f7f7f;}.b,.d{fill:none;}.b{stroke:#7f7f7f;stroke-miterlimit:10;stroke-width:1.025px;}.c{stroke:none;}</style></defs><g transform="translate(-1157.743 -308.708)"><path class="a" d="M1166.356,317.159v0a.872.872,0,0,1,1.254-.139l3.387,3.853a.7.7,0,0,1-.964.964l-3.824-3.421A.878.878,0,0,1,1166.356,317.159Z"/><path class="a" d="M1166.8,316.261a1.393,1.393,0,1,0,1.393,1.392A1.392,1.392,0,0,0,1166.8,316.261Z"/><path class="a" d="M1166.775,318.282h0a.731.731,0,0,1-.753-.757l.252-4.918a.521.521,0,0,1,1.041,0l.217,4.922A.733.733,0,0,1,1166.775,318.282Z"/><g class="b" transform="translate(1158.769 309.734)"><circle class="c" cx="8" cy="8" r="8"/><circle class="d" cx="8" cy="8" r="8.513"/></g></g></svg>