<?xml version="1.0" encoding="utf-8"?>
<!-- Generator: Adobe Illustrator 23.0.2, SVG Export Plug-In . SVG Version: 6.00 Build 0)  -->
<svg version="1.1" id="Layer_1" xmlns="http://www.w3.org/2000/svg" xmlns:xlink="http://www.w3.org/1999/xlink" x="0px" y="0px"
	 viewBox="0 0 150 46.3" style="enable-background:new 0 0 150 46.3;" xml:space="preserve">
<style type="text/css">
	.st0{fill:#231F20;}
	.st1{fill:#1C1D21;}
	.st2{fill:#77C1D3;}
	.st3{fill:#BAD879;}
	.st4{fill:#0097BA;}
</style>
<g>
	<polygon class="st0" points="60.7,31.2 60.7,24.3 54.3,24.3 54.3,31.2 51.4,31.2 51.4,15.4 54.3,15.4 54.3,21.6 60.7,21.6 
		60.7,15.4 63.6,15.4 63.6,31.2 	"/>
	<polygon class="st1" points="63.6,15.4 60.7,15.4 60.7,21.6 54.3,21.6 54.3,15.4 51.4,15.4 51.4,31.2 54.3,31.2 54.3,24.3 
		60.7,24.3 60.7,31.2 63.6,31.2 	"/>
	<polygon class="st0" points="66.6,31.2 66.6,15.4 77.3,15.4 77.3,18 69.5,18 69.5,21.7 76.3,21.7 76.3,24.3 69.5,24.3 69.5,28.6 
		77.3,28.6 77.3,31.2 	"/>
	<polygon class="st1" points="77.3,15.4 66.6,15.4 66.6,31.2 77.3,31.2 77.3,28.6 69.5,28.6 69.5,24.3 76.3,24.3 76.3,21.7 
		69.5,21.7 69.5,18 77.3,18 	"/>
	<polygon class="st0" points="88.9,31.2 85.4,25.4 81.9,31.2 78.8,31.2 83.7,23.1 78.8,15.4 81.9,15.4 85.5,20.9 88.9,15.4 92,15.4 
		87.2,23.2 92.1,31.2 	"/>
	<polygon class="st1" points="92,15.4 88.9,15.4 85.5,20.9 81.9,15.4 78.8,15.4 83.7,23.1 78.8,31.2 81.9,31.2 85.4,25.4 88.9,31.2 
		92.1,31.2 87.2,23.2 	"/>
	<path class="st0" d="M99.3,18.9L97,25.6h4.5L99.3,18.9z M103.4,31.2l-1-3h-6.3l-1,3h-2.9l5.5-15.7h3.1l5.5,15.7H103.4z"/>
	<path class="st1" d="M100.9,15.4h-3.1l-5.5,15.7h2.9l1-3h6.3l1,3h3L100.9,15.4z M97,25.6l2.2-6.6l2.2,6.6H97z"/>
	<polygon class="st0" points="147.2,15.4 147.2,26.1 140.5,15.4 137.4,15.4 137.4,31.2 140.2,31.2 140.2,20.3 147,31.2 150,31.2 
		150,15.4 	"/>
	<polygon class="st1" points="147.2,15.4 147.2,26.1 140.5,15.4 137.4,15.4 137.4,31.2 140.2,31.2 140.2,20.3 147,31.2 150,31.2 
		150,15.4 	"/>
	<polygon class="st2" points="0,34.7 13.4,34.7 10,28.9 	"/>
	<polygon class="st2" points="26.7,34.7 40.1,11.6 20,23.1 20,34.7 	"/>
	<polygon class="st3" points="20,46.3 40.1,34.7 26.7,34.7 	"/>
	<polygon class="st3" points="20,0 6.7,23.1 10,28.9 20,23.1 	"/>
	<polygon class="st3" points="13.4,34.7 20,46.3 20,34.7 	"/>
	<polygon class="st2" points="0,34.7 6.7,23.1 0,11.6 	"/>
	<polygon class="st4" points="40.1,11.6 26.7,34.7 40.1,34.7 40.1,11.6 	"/>
	<polygon class="st4" points="20,23.1 10,28.9 13.4,34.7 20,34.7 	"/>
	<polygon class="st4" points="0,11.6 6.7,23.1 20,0 	"/>
	<path class="st1" d="M113.7,15.1c-1.7,0-3.5,0.6-4.7,1.8c-1.7,1.7-2,3.8-2,6.3c0,2.6,0.4,4.7,2,6.4c1.2,1.3,2.8,1.8,4.6,1.8
		c0,0,0.1,0,0.1,0c2,0,3.5-1.1,4-2l1.7,1.7h0.5v-8.6h-6.5v2.4h3.8c0,1.2-0.2,2.2-1,3.1c-0.5,0.6-1.3,0.9-2.4,0.9
		c-0.9,0-1.9-0.3-2.6-1c-1.1-1.1-1.2-3.2-1.2-4.6c0-1.4,0.1-3.4,1.2-4.5c0.6-0.7,1.7-1.1,2.6-1.1c1.1,0,2,0.3,2.5,1
		c0.3,0.4,0.6,0.8,0.7,1.4h2.9c-0.1-1.4-0.7-2.4-1.4-3.2C117.3,15.8,115.7,15.1,113.7,15.1"/>
	<path class="st1" d="M128.7,15.1c-1.7,0-3.3,0.6-4.5,1.8c-1.7,1.7-2,3.8-2,6.4c0,2.6,0.3,4.7,2,6.4c1.2,1.2,2.8,1.8,4.5,1.8
		c1.7,0,3.3-0.6,4.5-1.8c1.7-1.7,2-3.8,2-6.4c0-2.6-0.3-4.7-2-6.4C132,15.7,130.4,15.1,128.7,15.1 M125.1,23.3L125.1,23.3
		c0-1.4,0-3.4,1.1-4.5c0.6-0.7,1.6-1,2.5-1c0.9,0,1.9,0.4,2.5,1c1.1,1.1,1.1,3.1,1.1,4.5c0,1.4,0,3.4-1.1,4.5c-0.6,0.7-1.6,1-2.5,1
		c-0.9,0-1.9-0.4-2.5-1C125.1,26.7,125.1,24.7,125.1,23.3"/>
</g>
</svg>
