<?xml version="1.0" encoding="utf-8"?>
<!-- Generator: Adobe Illustrator 23.0.2, SVG Export Plug-In . SVG Version: 6.00 Build 0)  -->
<svg version="1.1" id="Layer_1" xmlns="http://www.w3.org/2000/svg" xmlns:xlink="http://www.w3.org/1999/xlink" x="0px" y="0px"
	 viewBox="0 0 144.1 44.4" style="enable-background:new 0 0 144.1 44.4;" xml:space="preserve">
<style type="text/css">
	.st0{fill:#FFFFFF;}
	.st1{opacity:0.75;fill:#FFFFFF;}
	.st2{opacity:0.4;fill:#FFFFFF;}
	.st3{opacity:0.6;fill:#FFFFFF;}
	.st4{opacity:0.9;fill:#FFFFFF;}
</style>
<g>
	<g>
		<g>
			<path class="st0" d="M58.5,30v-6.6h-6.2V30h-2.7l0-15.1h2.7v5.9h6.2v-5.9h2.7V30H58.5z"/>
			<path class="st0" d="M64.1,30V14.9h10.3v2.5h-7.6V21h6.6v2.5h-6.6v4.1h7.6V30H64.1z"/>
			<path class="st0" d="M85.5,30l-3.4-5.5L78.7,30h-3l4.7-7.7l-4.7-7.4h3l3.4,5.3l3.3-5.3h3l-4.6,7.4l4.7,7.7H85.5z"/>
			<path class="st0" d="M99.4,30l-1-2.9h-6l-1,2.9h-2.8L94,14.9h3l5.3,15.1H99.4z M95.5,18.3l-2.2,6.4h4.3L95.5,18.3z"/>
			<path class="st0" d="M114.7,30l-1.6-1.7c-0.4,0.9-1.9,1.9-3.8,1.9c-1.7,0-3.3-0.4-4.5-1.7c-1.6-1.6-2-3.7-2-6.1
				c0-2.5,0.3-4.4,2-6.1c1.2-1.1,2.9-1.8,4.5-1.8c1.9,0,3.5,0.7,4.5,1.7c0.7,0.8,1.3,1.7,1.4,3h-2.8c0-0.6-0.3-1-0.7-1.4
				c-0.5-0.6-1.4-0.9-2.4-0.9c-0.9,0-1.9,0.4-2.5,1c-1,1.1-1.2,3-1.2,4.3c0,1.4,0.1,3.3,1.2,4.4c0.6,0.6,1.6,1,2.5,1
				c1,0,1.7-0.3,2.3-0.9c0.8-0.9,1-1.8,1-2.9h-3.6v-2.3h6.3V30H114.7z"/>
			<path class="st0" d="M128,28.6c-1.2,1.2-2.7,1.7-4.3,1.7c-1.6,0-3.2-0.6-4.3-1.7c-1.6-1.6-1.9-3.6-1.9-6.1c0-2.5,0.3-4.5,1.9-6.1
				c1.2-1.2,2.7-1.7,4.3-1.7c1.6,0,3.2,0.6,4.3,1.7c1.6,1.6,1.9,3.7,1.9,6.1C129.9,25,129.7,27,128,28.6z M126.1,18.2
				c-0.6-0.6-1.5-1-2.4-1c-0.9,0-1.8,0.4-2.4,1c-1,1.1-1.1,3-1.1,4.3c0,1.4,0,3.2,1.1,4.3c0.6,0.6,1.5,1,2.4,1c0.9,0,1.8-0.4,2.4-1
				c1-1.1,1.1-2.9,1.1-4.3C127.1,21.1,127.1,19.2,126.1,18.2z"/>
			<path class="st0" d="M141.3,30l-6.5-10.4V30H132V14.9h2.9l6.5,10.2V14.9h2.7V30H141.3z"/>
		</g>
	</g>
	<g>
		<g>
			<polygon class="st1" points="0,33.3 12.8,33.3 9.6,27.8 			"/>
			<polygon class="st2" points="25.6,33.3 38.5,11.1 19.2,22.2 19.2,33.3 			"/>
			<polygon class="st3" points="19.2,44.4 38.5,33.3 25.6,33.3 			"/>
			<polygon class="st4" points="38.5,11.1 25.6,33.3 38.5,33.3 38.5,11.1 			"/>
			<polygon class="st3" points="9.6,27.8 19.2,22.2 19.2,0 6.4,22.2 			"/>
			<polygon class="st2" points="12.8,33.3 19.2,44.4 19.2,33.3 			"/>
			<polygon class="st0" points="19.2,22.2 9.6,27.8 12.8,33.3 19.2,33.3 			"/>
			<polygon class="st2" points="0,11.1 0,33.3 6.4,22.2 			"/>
			<polygon class="st4" points="19.2,0 0,11.1 6.4,22.2 			"/>
		</g>
	</g>
</g>
</svg>
