<svg xmlns="http://www.w3.org/2000/svg" width="69.608" height="55" viewBox="0 0 69.608 55"><g transform="translate(453.5 49.5)"><g transform="translate(-453.5 -49.5)"><path d="M-438.723-4.81h-12.2v-31.8h48.97v7.717c.1.044.208.076.31.122a19.747,19.747,0,0,1,2.267,1.228V-48.211a1.288,1.288,0,0,0-1.289-1.289h-51.547a1.288,1.288,0,0,0-1.289,1.289v44.69a1.288,1.288,0,0,0,1.289,1.289H-438.3A16.244,16.244,0,0,1-438.723-4.81Zm-12.2-42.111h48.97v7.735h-48.97Z" transform="translate(453.5 49.5)"/></g><path d="M-419.235,9.373A11.657,11.657,0,0,1-430.879-2.27a11.658,11.658,0,0,1,11.231-11.637A14.852,14.852,0,0,1-400.4-20.58a14.77,14.77,0,0,1,8.3,9.942,10.063,10.063,0,0,1,11.011,7.289A10.062,10.062,0,0,1-388.1,9.013a10.076,10.076,0,0,1-2.425.36Zm0-20.71A9.076,9.076,0,0,0-428.3-2.27,9.076,9.076,0,0,0-419.235,6.8h28.676a7.413,7.413,0,0,0,1.771-.267,7.482,7.482,0,0,0,5.216-9.193,7.483,7.483,0,0,0-9.193-5.215,1.289,1.289,0,0,1-1.043-.161,1.284,1.284,0,0,1-.573-.885,12.211,12.211,0,0,0-7.075-9.306,12.161,12.161,0,0,0-9.373-.289,12.171,12.171,0,0,0-6.833,6.424,1.288,1.288,0,0,1-1.174.759Z" transform="translate(-3.166 -3.873)"/><circle cx="2.148" cy="2.148" r="2.148" transform="translate(-449.204 -45.204)"/><circle cx="2.148" cy="2.148" r="2.148" transform="translate(-443.191 -45.204)"/><circle cx="2.148" cy="2.148" r="2.148" transform="translate(-437.172 -45.204)"/></g></svg>