<svg xmlns="http://www.w3.org/2000/svg" width="44" height="41" viewBox="0 0 44 41"><g transform="translate(-306.27 -719)"><g transform="translate(0 1)"><g transform="translate(306.27 718)"><g transform="translate(0 0)"><g transform="translate(0)"><path d="M1482.477,427.231h-41.762a1.115,1.115,0,0,1-1.119-1.111v-34.55a1.115,1.115,0,0,1,1.119-1.111h18.1a1.111,1.111,0,1,1,0,2.222h-16.978v32.328h39.525V392.68h-16.979a1.111,1.111,0,1,1,0-2.222h18.1a1.115,1.115,0,0,1,1.119,1.111v34.55A1.115,1.115,0,0,1,1482.477,427.231Z" transform="translate(-1439.596 -386.231)"/><path d="M1458.482,398.351h-5.635a1.127,1.127,0,0,1-1.127-1.127v-8.453a1.126,1.126,0,0,1,1.127-1.127h5.635a1.126,1.126,0,0,1,1.126,1.127v8.453A1.127,1.127,0,0,1,1458.482,398.351Zm-4.509-2.253h3.382v-6.2h-3.382Z" transform="translate(-1433.665 -387.644)"/><path d="M1467.33,412.479h-9.863a1.127,1.127,0,1,1,0-2.253h9.863a1.127,1.127,0,0,1,0,2.253Zm-2.818-5.632h-7.044a1.127,1.127,0,1,1,0-2.253h7.044a1.127,1.127,0,1,1,0,2.253Zm4.223-5.635h-11.267a1.127,1.127,0,1,1,0-2.253h11.267a1.127,1.127,0,1,1,0,2.253Z" transform="translate(-1431.502 -382.273)"/><ellipse cx="4.507" cy="4.507" rx="4.507" ry="4.507" transform="translate(10.048 14.695)"/><path d="M1459.676,406.8c-2.174-2.331-6.805-2.4-7.3-2.4h-.05c-.49,0-5.123.078-7.3,2.4a5.1,5.1,0,0,0-1.666,4.167c.043.4.221.392.451.392h17.075c.23,0,.405,0,.45-.392A5.091,5.091,0,0,0,1459.676,406.8Z" transform="translate(-1437.708 -379.603)"/></g></g></g></g></g></svg>