<?xml version="1.0" encoding="utf-8"?>
<!-- Generator: Adobe Illustrator 24.0.0, SVG Export Plug-In . SVG Version: 6.00 Build 0)  -->
<svg version="1.1" id="Layer_1" xmlns="http://www.w3.org/2000/svg" xmlns:xlink="http://www.w3.org/1999/xlink" x="0px" y="0px"
	 viewBox="0 0 83.5 42.5" style="enable-background:new 0 0 83.5 42.5;" xml:space="preserve">
<style type="text/css">
	.st0{fill:#141213;}
	.st1{clip-path:url(#SVGID_2_);}
	.st2{fill:#1A1718;}
	.st3{clip-path:url(#SVGID_4_);}
</style>
<g id="Group_149" transform="translate(6.274 1)">
	<g id="Group_23_1_" transform="translate(-6.274 0.861)">
		<g id="Group_22_1_" transform="translate(0 0)">
			<g id="Group_75_1_">
				<g id="Group_21_1_">
					<g id="Group_2601_1_">
						<rect id="Rectangle_948_1_" x="6.3" y="28.3" class="st0" width="4.7" height="5.3"/>
						<rect id="Rectangle_949_1_" x="6.3" y="21.5" class="st0" width="4.7" height="5.3"/>
						<path id="Path_34_1_" class="st0" d="M34.7,0H17.1c-2.1,0-3.8,1.8-3.8,3.9l0,0V38h25.2V3.9C38.6,1.8,37,0.1,35,0
							C34.9,0,34.8,0,34.7,0z M21.4,34.4h-4.7V29h4.7V34.4z M21.4,26.9h-4.7v-5.5h4.7V26.9z M21.4,19.3h-4.7v-5.5h4.7V19.3z
							 M21.4,11.7h-4.7V6.2h4.7V11.7z M28.3,34.4h-4.7V29h4.7L28.3,34.4z M28.3,26.9h-4.7v-5.5h4.7L28.3,26.9z M28.3,19.3h-4.7v-5.5
							h4.7L28.3,19.3z M28.3,11.7h-4.7V6.2h4.7L28.3,11.7z M35.3,34.4h-4.7V29h4.7V34.4z M35.3,26.9h-4.7v-5.5h4.7V26.9z M35.3,19.3
							h-4.7v-5.5h4.7V19.3z M35.3,11.7h-4.7V6.2h4.7V11.7z"/>
						<rect id="Rectangle_963_1_" x="40.9" y="15.4" class="st0" width="4.3" height="4.8"/>
						<rect id="Rectangle_964_1_" x="40.9" y="22.1" class="st0" width="4.3" height="4.8"/>
						<rect id="Rectangle_965_1_" x="40.9" y="28.7" class="st0" width="4.3" height="4.8"/>
						<path id="Path_2433_1_" class="st0" d="M51.2,12.3l-6.5-6H41v7.1h7.1c0,0.1,0.1,0.2,0.1,0.3v21.6H41v2.5h9.4V13.4h1L51.2,12.3
							z"/>
						<path id="Path_2434_1_" class="st0" d="M9.7,13.8v-3.1H6.8v3.1h-3c-0.3,0-0.6,0.1-0.8,0.3l-2.8,4c-0.3,0.4-0.2,1,0.2,1.3
							c0,0,0,0,0.1,0c0.2,0.1,0.4,0.2,0.6,0.2h1.3c-0.1,0.2-0.1,0.5-0.1,0.8v17.4h8.9v-2.6H4.3V20.4c0-0.3,0.1-0.6,0.3-0.8h6.5v-5.8
							H9.7z"/>
					</g>
				</g>
			</g>
		</g>
	</g>
	<g id="Group_105_2_" transform="translate(59.026 23.1)">
		<g id="Group_147">
			<g>
				<defs>
					<ellipse id="SVGID_1_" cx="8.9" cy="9" rx="8.9" ry="9"/>
				</defs>
				<clipPath id="SVGID_2_">
					<use xlink:href="#SVGID_1_"  style="overflow:visible;"/>
				</clipPath>
				<g id="Group_104_2_" class="st1">
					<g id="Group_103_2_" transform="translate(3.078 3.541)">
						<circle id="Ellipse_31_2_" cx="5.8" cy="3.5" r="3.5"/>
						<path id="Path_52_2_" d="M11.6,12.9c0.1-1.2-0.3-2.4-1.1-3.3c-0.1-0.1-0.2-0.1-0.3-0.2S9.8,9.3,9.7,9.2C8.9,8.8,8,8.5,7.1,8.4
							H4.5C3.6,8.5,2.7,8.8,1.9,9.2C1.8,9.3,1.6,9.3,1.5,9.4S1.3,9.5,1.2,9.6c-0.9,0.9-1.3,2.1-1.2,3.3v1.7L11.6,15v-1.6
							C11.6,13.2,11.6,13,11.6,12.9z"/>
					</g>
				</g>
			</g>
			<path class="st2" d="M8.9,18.4c-5.2,0-9.4-4.2-9.4-9.5s4.2-9.5,9.4-9.5c5.2,0,9.4,4.2,9.4,9.5S14,18.4,8.9,18.4z M8.9,0.5
				C4.2,0.5,0.5,4.3,0.5,9s3.7,8.5,8.4,8.5s8.4-3.8,8.4-8.5S13.5,0.5,8.9,0.5z"/>
		</g>
	</g>
	<g id="Group_105_1_" transform="translate(59.026 -0.5)">
		<g id="Group_148">
			<g>
				<defs>
					<ellipse id="SVGID_3_" cx="8.9" cy="9" rx="8.9" ry="9"/>
				</defs>
				<clipPath id="SVGID_4_">
					<use xlink:href="#SVGID_3_"  style="overflow:visible;"/>
				</clipPath>
				<g id="Group_104_1_" class="st3">
					<g id="Group_103_1_" transform="translate(3.078 3.541)">
						<circle id="Ellipse_31_1_" cx="5.8" cy="3.5" r="3.5"/>
						<path id="Path_52_1_" d="M11.6,12.9c0.1-1.2-0.3-2.4-1.1-3.3c-0.1-0.1-0.2-0.1-0.3-0.2S9.8,9.3,9.7,9.2C8.9,8.8,8,8.5,7.1,8.4
							H4.5C3.6,8.5,2.7,8.8,1.9,9.2C1.8,9.3,1.6,9.3,1.5,9.4S1.3,9.5,1.2,9.6c-0.9,0.9-1.3,2.1-1.2,3.3v1.7L11.6,15v-1.6
							C11.6,13.2,11.6,13.1,11.6,12.9z"/>
					</g>
				</g>
			</g>
			<path class="st2" d="M8.9,18.4c-5.2,0-9.4-4.2-9.4-9.5s4.2-9.5,9.4-9.5c5.2,0,9.4,4.2,9.4,9.5S14,18.4,8.9,18.4z M8.9,0.5
				C4.2,0.5,0.5,4.3,0.5,9s3.7,8.5,8.4,8.5s8.4-3.8,8.4-8.5S13.5,0.5,8.9,0.5z"/>
		</g>
	</g>
	<rect x="47.7" y="13.2" transform="matrix(0.9614 -0.2752 0.2752 0.9614 -1.7652 14.9207)" width="9.1" height="1"/>
	<rect x="51.8" y="23.7" transform="matrix(0.2747 -0.9615 0.9615 0.2747 10.7552 70.7585)" width="1" height="9.1"/>
</g>
</svg>
