<svg xmlns="http://www.w3.org/2000/svg" width="20" height="22" viewBox="0 0 20 22"><g transform="translate(-707.239 -307.702)"><ellipse cx="6.122" cy="5.793" rx="6.122" ry="5.793" transform="translate(711.137 307.702)"/><path d="M727.228,327.772c.065-1.681-.14-3.983-1.977-5.455a2.421,2.421,0,0,0-.455-.355c-.221-.128-.455-.248-.7-.363a12.382,12.382,0,0,0-4.543-1.13c-.089-.007-.176-.017-.265-.022-.127-.007-.258-.007-.387-.011-.17-.006-.338-.015-.51-.015h-2.31c-.173,0-.34.009-.511.015-.128,0-.258,0-.386.011-.09.005-.177.015-.265.022a12.371,12.371,0,0,0-4.543,1.13c-.243.115-.478.235-.7.363a2.417,2.417,0,0,0-.454.355c-1.839,1.472-2.043,3.774-1.977,5.455a5.926,5.926,0,0,0,.005.8h19.968A5.948,5.948,0,0,0,727.228,327.772Z" transform="translate(0 1.133)"/></g></svg>