<svg xmlns="http://www.w3.org/2000/svg" width="56" height="33.133" viewBox="0 0 56 33.133"><g transform="translate(-299 -844)"><g transform="translate(299 844)"><g transform="translate(0 0)"><g transform="translate(0 0)"><path d="M1470.652,285.527h-23.026a6.152,6.152,0,0,1-6.28-6V258.4a6.152,6.152,0,0,1,6.28-6h23.026a6.153,6.153,0,0,1,6.28,6v21.129A6.153,6.153,0,0,1,1470.652,285.527ZM1447.626,256.4a2.051,2.051,0,0,0-2.093,2v21.129a2.051,2.051,0,0,0,2.093,2h23.026a2.052,2.052,0,0,0,2.093-2V258.4a2.052,2.052,0,0,0-2.093-2Z" transform="translate(-1441.346 -252.394)"/><path d="M1476.36,283.254h-1.7a2.085,2.085,0,0,1-1.115-.321l-11.91-7.521a1.985,1.985,0,0,1-.934-1.675V262.455a1.985,1.985,0,0,1,.934-1.675l11.91-7.521a2.085,2.085,0,0,1,1.115-.321h1.7a2.024,2.024,0,0,1,2.049,2v26.324A2.024,2.024,0,0,1,1476.36,283.254Zm-11.562-10.6,9.513,6.005V257.534l-9.513,6.007Z" transform="translate(-1422.408 -251.824)"/></g></g></g></g></svg>