<svg id="Layer_1" data-name="Layer 1" xmlns="http://www.w3.org/2000/svg" viewBox="0 0 294 314"><defs><style>.cls-1{fill:#202020;}</style></defs><path id="Path_501" data-name="Path 501" class="cls-1" d="M220.07,60.71c-2.13-2.08-4.3-4.19-6.44-6.34S209.36,50,207.27,48c-14.87-15.11-23.73-23.66-33-23.66H104.78A34.74,34.74,0,0,0,70,58.91v62.31H87.4V58.91a17.34,17.34,0,0,1,17.38-17.3h63.35c6.26,1.59,6.18,9.26,6.18,16.93V84.88A8.67,8.67,0,0,0,183,93.53h26.07c8.69,0,17.38,0,17.38,8.65V214.69A17.34,17.34,0,0,1,209.07,232H104.78A17.34,17.34,0,0,1,87.4,214.69V187H70v27.69a34.75,34.75,0,0,0,34.76,34.62H209.07a34.73,34.73,0,0,0,34.76-34.62V93.53C243.83,84.34,235.24,75.51,220.07,60.71Z"/><path class="cls-1" d="M106.93,139.73a11.3,11.3,0,0,0-3.56-.94c-1.31-.13-2.56-.2-3.76-.2H93.06v13.69h8.51a16.4,16.4,0,0,0,3.32-.33,8.65,8.65,0,0,0,2.86-1.1,5.77,5.77,0,0,0,2-2.12,6.63,6.63,0,0,0,.78-3.38,5.72,5.72,0,0,0-1-3.54A6.8,6.8,0,0,0,106.93,139.73Z"/><polygon class="cls-1" points="36.61 162.55 50.76 162.55 43.64 144.62 36.61 162.55"/><path class="cls-1" d="M153.59,121h-142a8.43,8.43,0,0,0-8.45,8.41V182.3a8.43,8.43,0,0,0,8.45,8.41H153.59A8.43,8.43,0,0,0,162,182.3V129.37A8.43,8.43,0,0,0,153.59,121Zm-93.5,64.56-5-12.22H32.6l-4.83,12.22H13.7l25-57.68H49.29l25.2,57.68Zm62.1-31.69a13.92,13.92,0,0,1-4.5,5.46,18.23,18.23,0,0,1-6.79,2.89,40,40,0,0,1-8.51.85H93.06v22.49H80.3V127.84h21.52a43,43,0,0,1,8.51.81,19.34,19.34,0,0,1,7,2.81,14.34,14.34,0,0,1,4.75,5.38,18.36,18.36,0,0,1,1.76,8.51A19.6,19.6,0,0,1,122.19,153.83Zm22.26,31.69H131.68V127.84h12.77Z"/><path class="cls-1" d="M267.33,103.7c-2.13-2.08-4.3-4.19-6.44-6.34S256.62,93,254.53,91l-2.62-2.66v48.23h4.42c8.69,0,17.38,0,17.38,8.66v112.5A17.34,17.34,0,0,1,256.33,275H152.05A17.37,17.37,0,0,1,135,261.09H117.46a34.76,34.76,0,0,0,34.59,31.21H256.33a34.73,34.73,0,0,0,34.76-34.62V136.52C291.09,127.33,282.51,118.5,267.33,103.7Z"/></svg>