<svg id="Layer_1" data-name="Layer 1" xmlns="http://www.w3.org/2000/svg" viewBox="0 0 99.47 107.95"><defs><style>.cls-1{fill:#333;}.cls-2{fill:#55b5f8;}</style></defs><title>generic-incident</title><path class="cls-1" d="M92.07,38.43c-1.09,2.1-2.18,4.23-3.18,6.34A40.52,40.52,0,0,1,91,54.07H85.51a19.52,19.52,0,0,0-.5,4.08v4.21h6a41,41,0,0,1-5.4,16.58H73.42a88.12,88.12,0,0,0,1.85-12.5H67.06a77.77,77.77,0,0,1-2.12,12.5H34.53a80.17,80.17,0,0,1-2.4-16.58H64.2V58.15a20.18,20.18,0,0,0-.49-4.08H32.13a80.17,80.17,0,0,1,2.4-16.58H56.76c-1.45-2.81-2.84-5.56-4-8.29H37.38c3.42-7.82,8-12.43,12.36-12.43a24.9,24.9,0,0,1,1.42-8.22c-.48,0-.94-.07-1.42-.07a49.83,49.83,0,1,0,44,26.65ZM32.65,20.5a51.24,51.24,0,0,0-4.13,8.7H20.19A41.49,41.49,0,0,1,32.65,20.5Zm-18.75,17H26.05a89.06,89.06,0,0,0-2.2,16.58H8.5A41.11,41.11,0,0,1,13.9,37.49Zm0,41.45A41.11,41.11,0,0,1,8.5,62.36H23.85a89.06,89.06,0,0,0,2.2,16.58Zm6.29,8.29h8.33a51.24,51.24,0,0,0,4.13,8.7A41.49,41.49,0,0,1,20.19,87.23ZM49.74,99.66c-4.35,0-8.94-4.61-12.36-12.43H62.1C58.67,95.05,54.08,99.66,49.74,99.66Zm17.08-3.73A50.49,50.49,0,0,0,71,87.23h8.33A41.37,41.37,0,0,1,66.82,95.93Z"/><path class="cls-2" d="M74.61,0A16.7,16.7,0,0,0,58,16.81c0,11.2,14.45,26.57,14.45,42h4.24c0-15.4,14.46-30.32,14.46-42A16.7,16.7,0,0,0,74.61,0Zm0,25.47a8.66,8.66,0,1,1,8.54-8.66A8.59,8.59,0,0,1,74.61,25.47Z"/></svg>