<svg xmlns="http://www.w3.org/2000/svg" width="25.732" height="27.918" viewBox="0 0 25.732 27.918"><defs><style>.a{fill:#3b5d9f;}</style></defs><path class="a" d="M578.946,515.185c-.281.543-.563,1.092-.821,1.637a10.409,10.409,0,0,1,.545,2.4h-1.417a5.058,5.058,0,0,0-.13,1.054v1.087h1.55a10.581,10.581,0,0,1-1.4,4.28h-3.147a22.818,22.818,0,0,0,.478-3.227h-2.12a20.035,20.035,0,0,1-.547,3.227h-7.851a20.691,20.691,0,0,1-.62-4.28h8.28v-1.087a5.179,5.179,0,0,0-.127-1.054h-8.153a20.694,20.694,0,0,1,.62-4.28h5.739c-.374-.726-.733-1.436-1.033-2.141h-3.971c.883-2.019,2.066-3.209,3.192-3.209a6.421,6.421,0,0,1,.366-2.122c-.124,0-.243-.018-.366-.018a12.865,12.865,0,1,0,11.359,6.88ZM563.6,510.556a13.264,13.264,0,0,0-1.066,2.246h-2.151A10.738,10.738,0,0,1,563.6,510.556Zm-4.841,4.389H561.9a23.039,23.039,0,0,0-.568,4.281H557.37a10.625,10.625,0,0,1,1.394-4.283Zm0,10.7a10.628,10.628,0,0,1-1.394-4.283h3.963a23.04,23.04,0,0,0,.568,4.28Zm1.624,2.14h2.151a13.19,13.19,0,0,0,1.066,2.246,10.712,10.712,0,0,1-3.217-2.249Zm7.63,3.207c-1.124,0-2.309-1.191-3.192-3.21H571.2c-.881,2.018-2.066,3.212-3.186,3.212Zm4.409-.963a12.992,12.992,0,0,0,1.079-2.247h2.151a10.674,10.674,0,0,1-3.225,2.249Z" transform="translate(-555.123 -505.264)"/><path class="a" d="M574.438,505.264a4.31,4.31,0,0,0-4.288,4.334v.006c0,2.891,3.731,6.859,3.731,10.843h1.094c0-3.976,3.734-7.828,3.734-10.843a4.311,4.311,0,0,0-4.271-4.34Zm0,6.575a2.236,2.236,0,1,1,2.2-2.266v.031a2.218,2.218,0,0,1-2.2,2.235Z" transform="translate(-555.123 -505.264)"/></svg>