<svg xmlns="http://www.w3.org/2000/svg" width="23.211" height="22.601" viewBox="0 0 23.211 22.601">
  <g id="Group_167042" data-name="Group 167042" transform="translate(-10792.14 2438.784)">
    <g id="Group_162958" data-name="Group 162958" transform="translate(9346.14 -3164.183)">
      <rect id="Rectangle_4118" data-name="Rectangle 4118" width="3" height="3" rx="1" transform="translate(1458 741)"/>
      <rect id="Rectangle_4119" data-name="Rectangle 4119" width="3" height="3" rx="1" transform="translate(1458 745)"/>
      <path id="Path_10069" data-name="Path 10069" d="M4199.714,2031h5.747" transform="translate(-2737 -1292.5)" fill="none" stroke="#000" stroke-linecap="round" stroke-width="1.5"/>
      <path id="Path_10070" data-name="Path 10070" d="M4199.714,2031h5.747" transform="translate(-2737 -1288.5)" fill="none" stroke="#000" stroke-linecap="round" stroke-width="1.5"/>
      <path id="Path_10071" data-name="Path 10071" d="M4199.714,2031h5.747" transform="translate(-2737 -1284.5)" fill="none" stroke="#000" stroke-linecap="round" stroke-width="1.5"/>
    </g>
    <path id="layer1" d="M41.518,30l-9.672,9.626L29.8,44.88l5.3-2,9.672-9.626Zm-9.672,9.626L35.1,42.881" transform="translate(10766.853 -2465.131)" fill="none" stroke="#000" stroke-linecap="round" stroke-linejoin="round" stroke-width="1.5"/>
    <g id="Group_162959" data-name="Group 162959" transform="translate(9350.14 -3163.784)">
      <rect id="Rectangle_4111" data-name="Rectangle 4111" width="4" height="4" transform="translate(1442 725)"/>
      <rect id="Rectangle_4116" data-name="Rectangle 4116" width="4" height="4" transform="translate(1442 735)"/>
      <rect id="Rectangle_4114" data-name="Rectangle 4114" width="4" height="4" transform="translate(1452 725)"/>
      <path id="Path_10072" data-name="Path 10072" d="M1449.905,737H1444V726.845h9.985V732.7" fill="none" stroke="#000" stroke-width="1.5"/>
    </g>
  </g>
</svg>
