<svg xmlns="http://www.w3.org/2000/svg" width="44" height="44" viewBox="0 0 44 44"><g transform="translate(0 0)"><path d="M1484.345,509.586h-2.934V475.86a1.467,1.467,0,1,0-2.934,0v33.725h-2.932v5.865h2.934v1.466a1.467,1.467,0,0,0,2.934,0h0v-1.466h2.932Zm-38.134-33.725a1.467,1.467,0,1,0-2.934,0v5.866h-2.932v5.865h2.934v29.327a1.467,1.467,0,0,0,2.934,0V487.591h2.932v-5.865h-2.934Z" transform="translate(-1440.345 -474.389)"/><path d="M1457.424,475.862a1.5,1.5,0,0,0-2.992,0v16.13h-2.99v5.865h2.992v19.063a1.5,1.5,0,0,0,2.991,0V497.856h2.984v-5.865h-2.985Z" transform="translate(-1433.929 -474.39)"/></g></svg>