<svg xmlns="http://www.w3.org/2000/svg" xmlns:xlink="http://www.w3.org/1999/xlink" width="53.002" height="51.609" viewBox="0 0 53.002 51.609">
  <defs>
    <clipPath id="clip-path">
      <rect id="Rectangle_149825" data-name="Rectangle 149825" width="53.002" height="51.609" fill="none"/>
    </clipPath>
  </defs>
  <g id="Group_167054" data-name="Group 167054" clip-path="url(#clip-path)">
    <path id="Path_42222" data-name="Path 42222" d="M16.567,15.6H14.288A2.288,2.288,0,0,0,12,17.888v2.288a2.288,2.288,0,0,0,2.288,2.288h2.288a2.288,2.288,0,0,0,2.288-2.288V17.888A2.288,2.288,0,0,0,16.577,15.6" transform="translate(15.402 20.024)"/>
    <path id="Path_42223" data-name="Path 42223" d="M16.567,19.6H14.288A2.288,2.288,0,0,0,12,21.888v2.288a2.288,2.288,0,0,0,2.288,2.288h2.288a2.288,2.288,0,0,0,2.288-2.288V21.888A2.288,2.288,0,0,0,16.577,19.6" transform="translate(15.402 25.158)"/>
    <path id="Path_42224" data-name="Path 42224" d="M15.964,14.064a1.713,1.713,0,0,0,1.713,1.713H30.8a1.713,1.713,0,0,0,0-3.425H17.677a1.713,1.713,0,0,0-1.713,1.713" transform="translate(20.489 15.853)"/>
    <path id="Path_42225" data-name="Path 42225" d="M30.8,16.351H17.681a1.713,1.713,0,1,0,0,3.425H30.8a1.713,1.713,0,1,0,0-3.425" transform="translate(20.486 20.987)"/>
    <path id="Path_42226" data-name="Path 42226" d="M30.8,20.351H17.681a1.713,1.713,0,1,0,0,3.425H30.8a1.713,1.713,0,0,0,0-3.425" transform="translate(20.486 26.121)"/>
    <path id="Path_42227" data-name="Path 42227" d="M46.2,15.775a1.716,1.716,0,0,0-.5-1.215L38.273,7.129a1.712,1.712,0,0,0-2.418,0L29.08,13.872V9.134h2.889V0H22.835V2.5H9.134V0H0V9.134H2.854v13.7H0v9.134H9.134V29.114h4.629l-.011.011h0a1.671,1.671,0,0,0-.379.6L8.709,41.7a1.715,1.715,0,0,0,1.6,2.336,1.744,1.744,0,0,0,.6-.109l12.015-4.538a1.7,1.7,0,0,0,.692-.421.545.545,0,0,0,.05-.052L45.7,16.984a1.712,1.712,0,0,0,.5-1.211M6.28,22.835V9.134H9.134V5.926h13.7V9.134h2.82V17.28L17.2,25.69H9.134V22.835Zm7.014,16.526,2.324-5.974,3.7,3.705Zm9.113-4.025L17.4,30.322,37.061,10.76l5.013,5.013Z"/>
  </g>
</svg>
