<svg id="Layer_1" data-name="Layer 1" xmlns="http://www.w3.org/2000/svg" viewBox="0 0 51.78 66"><defs><style>.cls-1{fill:#fff;}</style></defs><title>icon-test</title><path d="M26.54,33.05,17.8,29.81a5.85,5.85,0,0,1-3.46-7.53l5-13.62A8.69,8.69,0,0,1,30.52,3.54L34,4.82A8.71,8.71,0,0,1,39.12,16l-5,13.61A5.88,5.88,0,0,1,26.54,33.05Z"/><path class="cls-1" d="M21,11.66h0a4.61,4.61,0,0,1,6.22-2.75L33,11a4.61,4.61,0,0,1,2.92,6.14h0C35.54,18.21,20.63,12.69,21,11.66Z"/><path class="cls-1" d="M17,22.44h0c-.53,1.44.76,3.26,3.61,4.31l5.76,2.13c2.85,1.06,5,.52,5.55-.92h0Z"/><path class="cls-1" d="M18.87,21.66l-1.37-.51,3-8.2s.82.75,1.19,1Z"/><path class="cls-1" d="M31,26.17l1.38.51,3-8.21s-1.11,0-1.56,0Z"/><path d="M4.77,42.11l9-2L6.26,45.47a1.88,1.88,0,1,1-2.18-3.06A1.84,1.84,0,0,1,4.77,42.11Z"/><path d="M12.62,54.22l7.18-5.73-4.36,8.09a1.88,1.88,0,1,1-3.31-1.79A2.08,2.08,0,0,1,12.62,54.22Z"/><path d="M5.89,27.67l7.75,4.95L4.57,31.1a1.88,1.88,0,1,1,1.32-3.43Z"/><path d="M44.31,60.61l-9.05,2.22a5.87,5.87,0,0,1-7.1-4.3l-3.45-14.1a8.69,8.69,0,0,1,6.36-10.49l3.59-.88a8.71,8.71,0,0,1,10.5,6.36l3.45,14.1A5.88,5.88,0,0,1,44.31,60.61Z"/><path class="cls-1" d="M27.74,46h0a4.62,4.62,0,0,1,3.61-5.77l6-1.46a4.61,4.61,0,0,1,5.86,3.45h0C43.45,43.28,28,47.06,27.74,46Z"/><path class="cls-1" d="M30.48,57.16h0c.36,1.49,2.45,2.27,5.4,1.55l6-1.46c2.95-.73,4.44-2.38,4.08-3.87h0Z"/><path class="cls-1" d="M31.58,55.48l-1.43.35-2.08-8.5s1.1.17,1.55.17Z"/><path class="cls-1" d="M44.17,52.39,45.6,52l-2.08-8.49s-.9.65-1.3.86Z"/></svg>