<?xml version="1.0" encoding="utf-8"?>
<!-- Generator: Adobe Illustrator 23.0.3, SVG Export Plug-In . SVG Version: 6.00 Build 0)  -->
<svg version="1.1" id="Layer_1" xmlns="http://www.w3.org/2000/svg" xmlns:xlink="http://www.w3.org/1999/xlink" x="0px" y="0px"
	 viewBox="0 0 69.1 67.5" style="enable-background:new 0 0 69.1 67.5;" xml:space="preserve">
<style type="text/css">
	.st0{fill:#FFFFFF;}
	.st1{fill:#FFFFFF;stroke:#FFFFFF;stroke-width:3;stroke-miterlimit:10;}
	.st2{fill:#BE202E;}
	.st3{fill:#010101;}
</style>
<path class="st0" d="M21.1,19.9l4.5,5.9L37.7,40l6.3,7.6l5,2.4l2.7-5.4l-1-7.9L47.3,28l-1.8-3l-3.1-3.1c-0.5-0.1-8.5-4.2-8.5-4.2
	c-1-0.2-10.5,0.9-10.5,0.9L21.1,19.9z"/>
<path class="st1" d="M44.7,42.5c-1.1-1.1-2.9-1.2-4.1-0.2l-6.3,5.1l-1-2.2c0.4-0.1,0.7-0.3,1.1-0.6l6.9-5.5c1.2-1,1.3-2.7,0.4-3.8
	c0,0-0.1-0.1-0.1-0.1c-1.1-1.1-2.9-1.3-4.1-0.3l-6.2,5l-0.5-2.4l6.3-5.1c1.3-1.1,1.5-3,0.4-4.3c0-0.1-0.1-0.1-0.1-0.2
	c-1.2-1.3-3.3-1.5-4.7-0.3l-5.6,4.7c0,0,0,0,0,0.1l-2-1.3l4-3.1c1.5-1.3,1.6-3.5,0.4-4.9c0,0,0,0-0.1-0.1c-1.4-1.5-3.7-1.7-5.3-0.4
	l-7.5,6.3c-2.5-1-5.6-0.6-7.4,1.5c-2,2.4-3.7,4.8-5.6,7.6c-2.5,3.5,1.5,13.4-1.5,16.7l11.7,11c6-5,9.2-2.4,20.5-11
	c0.1-0.1,0.3-0.2,0.4-0.3l9.7-7.7c0,0,0.1-0.1,0.1-0.1C45.7,45.3,45.7,43.6,44.7,42.5z"/>
<title>icon6.2</title>
<g>
	<g id="Layer_1-2">
		<g>
			<path class="st2" d="M57.3,64.1c-0.2,0-0.3,0-0.5-0.1l-8.9-3c-0.2-0.1-0.5-0.2-0.6-0.4l-4.3-4.7c-0.5-0.5-0.5-1.3-0.1-1.8
				c0.3-0.4,0.8-0.7,1.3-0.7c0.2,0,0.3,0,0.5,0.1l2.4,0.8l-2.4-4.1c-0.3-0.5-0.3-1,0-1.5c0.3-0.5,0.8-0.7,1.3-0.7c0,0,5,0.1,5,0.1
				l-3.6-3.2c-0.4-0.4-0.6-0.9-0.5-1.5c0.1-0.5,0.5-1,1-1.1l4.7-1.4l-4.4-2c-0.5-0.2-0.8-0.7-0.9-1.2s0.2-1.1,0.7-1.4l4-2.7
				l-4.9-0.6c-0.5-0.1-1-0.4-1.2-0.9s-0.1-1.1,0.2-1.5l3-3.8l-4.9,0.9c-0.1,0-0.2,0-0.3,0c-0.4,0-0.9-0.2-1.1-0.5
				c-0.3-0.4-0.5-1-0.3-1.5l1.6-4.5l-4.4,2.4c-0.2,0.1-0.5,0.2-0.7,0.2c-0.3,0-0.5-0.1-0.8-0.2c-0.5-0.3-0.7-0.8-0.7-1.3l0.1-4.8
				l-3.5,3.6c-0.3,0.3-0.7,0.5-1.1,0.5c-0.1,0-0.2,0-0.3,0c-0.5-0.1-0.9-0.5-1.1-1l-1.5-4.7l-2.1,4.4c-0.2,0.5-0.7,0.8-1.2,0.8
				c0,0-0.1,0-0.1,0c-0.5,0-0.9-0.2-1.2-0.6l-2.9-4L22,21.3c-0.1,0.5-0.4,1-0.9,1.2c-0.2,0.1-0.4,0.1-0.6,0.1
				c-0.3,0-0.6-0.1-0.9-0.3l-4-3l0.5,2.3c0.1,0.7-0.2,1.3-0.8,1.6c-0.2,0.1-0.4,0.2-0.7,0.2c-0.4,0-0.8-0.2-1.1-0.5l-4.3-4.7
				c-0.2-0.2-0.3-0.4-0.4-0.7L7,8.7C6.9,8.1,7.2,7.5,7.7,7.1C7.9,7,8.2,6.9,8.5,6.9c0.3,0,0.6,0.1,0.9,0.3l7.4,5.4l1.1-8.8
				C18,3.2,18.4,2.7,19,2.5c0.1,0,0.2,0,0.4,0c0.5,0,0.9,0.2,1.2,0.6l5.3,7.4l3.9-8.1c0.3-0.5,0.8-0.8,1.4-0.8c0,0,0.1,0,0.1,0
				c0.6,0,1.1,0.5,1.3,1l2.7,8.5l6.3-6.6c0.3-0.3,0.7-0.5,1.1-0.5c0.2,0,0.4,0,0.6,0.1c0.6,0.2,0.9,0.8,0.9,1.4l-0.2,8.9l8.1-4.4
				c0.2-0.1,0.5-0.2,0.7-0.2c0.4,0,0.7,0.1,1,0.4c0.5,0.4,0.6,1.1,0.4,1.6l-3,8.3l9.1-1.7c0.1,0,0.2,0,0.3,0c0.5,0,1,0.3,1.3,0.7
				c0.3,0.5,0.3,1.2-0.1,1.7l-5.5,7l9.1,1.1c0.6,0.1,1.1,0.5,1.3,1.1c0.1,0.6-0.1,1.3-0.6,1.6l-7.5,5l8.3,3.7
				c0.6,0.3,0.9,0.8,0.9,1.5c0,0.6-0.5,1.2-1.1,1.3l-8.8,2.5l6.7,6c0.5,0.4,0.6,1.1,0.4,1.7c-0.2,0.6-0.8,1-1.4,1
				c0,0-9.3-0.2-9.3-0.2l4.5,7.7c0.3,0.5,0.3,1.2-0.1,1.7C58.2,63.9,57.8,64.1,57.3,64.1z"/>
			<path class="st0" d="M31.1,3l3.4,11l8.1-8.4L42.4,17l10.4-5.6l-3.9,10.8L60.5,20l-7.2,9.1l11.8,1.4L55.3,37l10.8,4.8l-11.4,3.3
				l8.7,7.8l-11.9-0.3l5.8,10l-8.9-3l-4.3-4.7l3,1l3.2,1.1l-1.6-2.8L46,49.4l5.6,0.1l3.4,0.1l-2.5-2.2l-4.2-3.7l5.4-1.6l3.2-0.9
				l-3-1.4l-5.1-2.3l4.7-3.1l2.8-1.8l-3.3-0.4l-5.6-0.7l3.4-4.3l2-2.6l-3.3,0.6l-5.5,1l1.9-5.1l1.1-3.1L44,19.7L39,22.4l0.1-5.4
				l0.1-3.2l-2.3,2.4l-3.8,4l-1.6-5.2l-1-3.1l-1.4,2.9l-2.4,4.9l-3.2-4.5l-1.9-2.7l-0.4,3.2l-0.7,5.4L16,17.8l-2.7-2L14,19l0.6,3
				l-4.3-4.7L8.5,8.4l9.5,6.9L19.4,4l6.8,9.4L31.1,3 M31.1,0c-1.1,0-2.2,0.7-2.7,1.7l-2.8,5.8l-3.8-5.3C21.2,1.4,20.3,1,19.4,1
				c-0.2,0-0.5,0-0.7,0.1c-1.2,0.3-2.1,1.3-2.2,2.5l-0.8,6.3L10.3,6C9.7,5.6,9.1,5.4,8.5,5.4c-0.6,0-1.1,0.2-1.6,0.5
				C5.8,6.5,5.3,7.8,5.6,9l1.8,8.9c0.1,0.5,0.4,1,0.7,1.4l4.3,4.7c0.6,0.6,1.4,1,2.2,1c0.5,0,0.9-0.1,1.4-0.3c0.8-0.4,1.4-1.2,1.6-2
				l1.2,0.9c0.5,0.4,1.1,0.6,1.8,0.6c0.4,0,0.8-0.1,1.2-0.2c1-0.4,1.7-1.3,1.8-2.4l0.1-1l0.7,0.9c0.6,0.8,1.5,1.2,2.4,1.2
				c0.1,0,0.2,0,0.3,0c1.1-0.1,2-0.7,2.4-1.7l0.5-1l0.3,1c0.3,1,1.1,1.8,2.2,2c0.2,0.1,0.5,0.1,0.7,0.1c0.8,0,1.6-0.3,2.2-0.9
				l0.8-0.8l0,1c0,1.1,0.5,2.1,1.4,2.6c0.5,0.3,1,0.4,1.6,0.4c0.5,0,1-0.1,1.4-0.4l1-0.5l-0.3,0.8c-0.4,1-0.2,2.1,0.5,3
				c0.6,0.7,1.4,1.1,2.3,1.1c0.2,0,0.4,0,0.6-0.1l0.9-0.2l-0.5,0.6c-0.7,0.9-0.8,2-0.4,3c0.4,1,1.3,1.7,2.4,1.8l0.8,0.1l-0.6,0.4
				c-0.9,0.6-1.4,1.7-1.3,2.8c0.1,1.1,0.8,2,1.8,2.5l0.7,0.3l-0.8,0.2c-1,0.3-1.8,1.2-2.1,2.2c-0.2,1.1,0.1,2.2,0.9,2.9l0.5,0.5
				l-0.9,0c0,0,0,0-0.1,0c-1.1,0-2,0.6-2.6,1.5c-0.6,0.9-0.6,2.1,0,3l0.6,1c-0.9,0.1-1.7,0.6-2.3,1.3c-0.7,1.1-0.6,2.6,0.3,3.7
				l4.3,4.7c0.3,0.4,0.8,0.7,1.3,0.8l8.9,3c0.3,0.1,0.6,0.2,1,0.2c0.9,0,1.7-0.4,2.3-1.1c0.8-1,0.9-2.3,0.3-3.4l-3.1-5.4l6.6,0.1
				c0,0,0,0,0.1,0c1.2,0,2.3-0.8,2.8-1.9c0.5-1.2,0.1-2.5-0.8-3.3l-4.7-4.2l6.2-1.8c1.2-0.3,2.1-1.4,2.2-2.7
				c0.1-1.3-0.6-2.4-1.8-2.9l-5.8-2.6l5.3-3.5c1-0.7,1.5-2,1.3-3.2c-0.3-1.2-1.3-2.1-2.6-2.3L59,26.8l3.9-4.9c0.8-1,0.9-2.3,0.2-3.4
				c-0.5-0.9-1.5-1.4-2.6-1.4c-0.2,0-0.4,0-0.6,0.1l-6.5,1.2l2.1-5.8c0.4-1.2,0.1-2.5-0.9-3.3c-0.6-0.5-1.3-0.7-2-0.7
				c-0.5,0-1,0.1-1.4,0.4l-5.9,3.1l0.1-6.3c0-1.2-0.7-2.4-1.8-2.8c-0.4-0.2-0.8-0.2-1.2-0.2c-0.8,0-1.6,0.3-2.2,0.9l-4.6,4.7L34,2.1
				c-0.4-1.2-1.4-2-2.6-2.1C31.3,0,31.2,0,31.1,0L31.1,0z"/>
		</g>
	</g>
</g>
<g>
	<g>
		<path class="st3" d="M13.8,65.8c-0.1,0-0.2,0-0.3-0.1l-11.7-11c-0.1-0.1-0.2-0.4,0-0.5c1.5-1.6,1.1-5,0.8-8.4
			c-0.3-3.3-0.6-6.5,0.7-8.2l0.1-0.2c1.9-2.7,3.5-5,5.5-7.4c1.2-1.4,2.9-2.2,4.9-2.2c1.3,0,2.6,0.3,3.8,1c0.3,0.2,0.6,0.4,0.9,0.6
			l7.9,5.1l0.1,0c1.5,0.8,2.1,2.7,1.3,4.2c-0.6,1.1-1.7,1.7-2.9,1.7c-0.5,0-1-0.1-1.5-0.4l-7.2-4.3c-0.5,0.3-1.3,0.9-1.3,1.2
			c0,0.1,0.1,0.3,0.5,0.4c1,0.7,1.7,1.1,2.2,1.4c0.6,0.4,1.1,0.7,1.9,1.2c1.5,1.2,2.2,2.9,2,4.9c-0.3,2.7-2.4,5.6-4.8,6.8
			c-0.5,0.3-0.6,0.7-0.5,0.9c0.1,0.5,0.6,1,1.3,1c0.2,0,0.4,0,0.6-0.1c4-1.8,6.3-6.1,5.6-10.5c0-0.1,0-0.2,0.1-0.3
			c0.1-0.1,0.2-0.1,0.3-0.1c0,0,0.1,0,0.1,0c0.4,0.1,0.8,0.1,1,0.1c0.7,0,1.1-0.2,1.5-0.7c0.1-0.1,0.2-0.2,0.3-0.2
			c0.1,0,0.1,0,0.2,0.1c0.2,0.1,0.2,0.3,0.1,0.5c-0.6,1.2,0.1,2.7,0.9,3.7c0.9,1.2,1.8,1.4,2.2,1.4c0.2,0,0.3,0,0.5-0.1
			c0,0,0.1,0,0.1,0c0.1,0,0.2,0.1,0.3,0.2c0.1,0.1,0.1,0.3,0,0.5c-1,1.3-0.7,2.8,1.1,4.7c0.6,0.6,1.4,1.1,2.3,1.3
			c0.1,0,0.3,0.1,0.3,0.3s0,0.3-0.1,0.4c-6.4,4.9-10.3,6.2-13.5,7.3c-2.6,0.9-4.6,1.6-7.2,3.8C14,65.8,13.9,65.8,13.8,65.8z"/>
		<path class="st0" d="M13.9,28.1c1.2,0,2.5,0.3,3.6,0.9c0.3,0.2,0.6,0.4,0.8,0.6l7.9,5.1c0,0,0.1,0,0.1,0.1
			c1.3,0.7,1.8,2.4,1.1,3.7c-0.5,1-1.5,1.5-2.6,1.5c-0.4,0-0.9-0.1-1.3-0.3l-7.4-4.4c-1.4,0.9-2.4,1.6-0.9,2.4c2,1.4,2.6,1.7,4,2.6
			c4,3.2,0.8,9.3-2.8,11C15,52,16,54,17.4,54c0.2,0,0.5-0.1,0.7-0.2c4.2-1.9,6.6-6.4,5.8-10.9c0.4,0.1,0.8,0.1,1.1,0.1
			c0.7,0,1.3-0.2,1.8-0.9c-0.7,1.2-0.1,2.7,0.9,4.1c0.9,1.2,1.8,1.6,2.5,1.6c0.2,0,0.4,0,0.6-0.1c-1.4,1.7-0.5,3.5,1.1,5.2
			c0.7,0.7,1.5,1.2,2.5,1.4c-11.4,8.7-14.7,6-20.7,11.1l-11.7-11c3-3.2-0.9-13.2,1.5-16.7c1.9-2.8,3.6-5.2,5.6-7.6
			C10.4,28.8,12.1,28.1,13.9,28.1 M31,47.7L31,47.7 M13.9,27.4c-2.1,0-4,0.8-5.2,2.4c-2,2.4-3.6,4.7-5.5,7.4L3,37.3
			c-1.3,1.9-1,5.1-0.7,8.5c0.3,3.3,0.6,6.6-0.7,8.1c-0.3,0.3-0.3,0.8,0,1.1l11.7,11c0.1,0.1,0.3,0.2,0.5,0.2c0.2,0,0.3-0.1,0.5-0.2
			c2.5-2.1,4.5-2.8,7.1-3.7c3.2-1.1,7.1-2.4,13.6-7.4c0.2-0.2,0.3-0.5,0.3-0.8c-0.1-0.3-0.3-0.5-0.6-0.6c-0.8-0.2-1.5-0.6-2.1-1.2
			c-2.1-2.3-1.7-3.4-1.1-4.2c0.1-0.1,0.2-0.3,0.2-0.5c0-0.4-0.3-0.7-0.7-0.7c0,0,0,0,0,0c0,0-0.1,0-0.1,0c-0.1,0-0.1,0-0.2,0
			c-0.1,0-0.2,0.1-0.3,0.1c-0.6,0-1.3-0.5-1.9-1.3c-0.7-1-1.4-2.3-0.9-3.3c0.2-0.3,0.1-0.8-0.3-1c-0.1-0.1-0.3-0.1-0.4-0.1
			c-0.2,0-0.5,0.1-0.6,0.3c-0.3,0.4-0.6,0.5-1.2,0.5c-0.3,0-0.6,0-1-0.1c-0.1,0-0.1,0-0.2,0c-0.2,0-0.4,0.1-0.5,0.2
			c-0.2,0.2-0.3,0.4-0.2,0.7c0.7,4.2-1.5,8.3-5.4,10.1c-0.2,0.1-0.3,0.1-0.4,0.1c-0.5,0-0.9-0.4-0.9-0.7c0-0.2,0-0.4,0.3-0.5
			c2.5-1.2,4.7-4.2,5-7.1c0.2-2.1-0.5-3.9-2.1-5.2c-0.8-0.6-1.3-0.9-1.9-1.3c-0.6-0.4-1.2-0.8-2.2-1.4c0,0-0.1,0-0.1,0
			c-0.1-0.1-0.2-0.1-0.3-0.2c0.1-0.1,0.4-0.3,0.9-0.7l7,4.1c0.6,0.3,1.1,0.4,1.7,0.4c1.3,0,2.6-0.7,3.2-1.9c0.4-0.8,0.5-1.8,0.3-2.7
			c-0.3-0.9-0.9-1.6-1.7-2.1c0,0-0.1,0-0.1-0.1l-7.9-5c-0.3-0.2-0.6-0.4-0.9-0.6C16.6,27.7,15.2,27.4,13.9,27.4L13.9,27.4z"/>
	</g>
	<g>
		<path class="st3" d="M32.6,45.6c-0.9,0-1.8-0.4-2.4-1L30,44.4c-1.1-1.3-0.9-3.3,0.4-4.4l6.9-5.5c0.6-0.5,1.4-0.8,2.1-0.8
			c0.9,0,1.8,0.4,2.5,1.1c0,0,0.1,0.1,0.1,0.1c0.5,0.6,0.8,1.4,0.7,2.3c-0.1,0.8-0.5,1.6-1.1,2.1l-6.9,5.5
			C34.1,45.3,33.3,45.6,32.6,45.6L32.6,45.6z"/>
		<path class="st0" d="M39.4,34.1c0.8,0,1.6,0.3,2.2,0.9c0,0,0.1,0.1,0.1,0.1c1,1.2,0.8,2.9-0.4,3.8l-6.9,5.5
			c-0.6,0.5-1.2,0.7-1.9,0.7c-0.8,0-1.6-0.3-2.2-0.9c0,0-0.1-0.1-0.1-0.1c-1-1.2-0.8-2.9,0.4-3.8l6.9-5.5
			C38.1,34.4,38.7,34.1,39.4,34.1 M39.4,33.4c-0.9,0-1.7,0.3-2.4,0.9l-6.9,5.5c-1.5,1.2-1.7,3.4-0.5,4.9c0,0,0.1,0.1,0.1,0.1
			c0.7,0.7,1.7,1.2,2.7,1.2c0.9,0,1.7-0.3,2.4-0.9l6.9-5.5c0.7-0.6,1.2-1.4,1.3-2.3c0.1-0.9-0.2-1.8-0.8-2.5c0-0.1-0.1-0.1-0.1-0.1
			C41.4,33.8,40.4,33.4,39.4,33.4L39.4,33.4z"/>
	</g>
	<g>
		<path class="st3" d="M29.4,39c-0.1,0-0.2,0-0.3-0.1c-0.1-0.1-0.1-0.4,0-0.5c0.9-1.1,0.9-2.7,0-3.8c-0.7-0.7-1.1-1.1-1.5-1.5
			c-0.3-0.3-0.5-0.5-0.8-0.8c-0.1-0.1-0.1-0.2-0.1-0.3c0-0.1,0.1-0.2,0.1-0.3l5.6-4.7c0.7-0.6,1.5-0.9,2.4-0.9c1,0,2.1,0.4,2.8,1.2
			c0.1,0.1,0.1,0.1,0.2,0.2c1.2,1.5,1,3.7-0.5,4.9l-7.8,6.3C29.5,38.9,29.4,39,29.4,39z"/>
		<path class="st0" d="M34.9,26.7c0.9,0,1.8,0.4,2.5,1.1c0,0.1,0.1,0.1,0.1,0.2c1.1,1.3,0.9,3.3-0.4,4.3l-7.8,6.3c1-1.2,1-3,0-4.2
			c-1.2-1.3-1.8-1.7-2.2-2.2l5.6-4.7C33.4,27,34.2,26.7,34.9,26.7 M34.9,25.9c-1,0-1.9,0.3-2.7,1l-5.6,4.7c-0.2,0.1-0.3,0.3-0.3,0.5
			c0,0.2,0,0.4,0.2,0.6c0.2,0.3,0.5,0.5,0.8,0.8c0.4,0.3,0.8,0.7,1.5,1.4c0.8,1,0.7,2.3,0,3.3c-0.2,0.3-0.2,0.7,0.1,1
			c0.1,0.1,0.3,0.2,0.5,0.2c0.2,0,0.3-0.1,0.5-0.2l7.8-6.3c1.6-1.3,1.9-3.8,0.6-5.4c-0.1-0.1-0.1-0.1-0.2-0.2
			C37.2,26.4,36.1,25.9,34.9,25.9L34.9,25.9z"/>
	</g>
	<g>
		<path class="st3" d="M35.7,53c-0.9,0-1.8-0.4-2.5-1.1c-1.2-1.3-1.1-3.2,0.2-4.4l0.1-0.1l6.9-5.5c0.6-0.5,1.4-0.8,2.1-0.8
			c0.9,0,1.8,0.4,2.4,1c0.6,0.6,0.9,1.4,0.8,2.2c0,0.8-0.4,1.6-1,2.1c0,0-0.1,0.1-0.1,0.1l-6.9,5.5C37.2,52.8,36.5,53,35.7,53
			C35.7,53,35.7,53,35.7,53z"/>
		<path class="st0" d="M42.6,41.6c0.8,0,1.6,0.3,2.2,0.9c1,1.1,1,2.8-0.1,3.8c0,0-0.1,0.1-0.1,0.1L37.6,52c-0.6,0.5-1.2,0.7-1.9,0.7
			c-0.8,0-1.6-0.3-2.2-0.9c-1-1.1-0.9-2.8,0.2-3.8c0,0,0.1-0.1,0.1-0.1l6.9-5.5C41.2,41.8,41.9,41.6,42.6,41.6 M42.6,40.8
			c-0.9,0-1.7,0.3-2.4,0.9l-6.9,5.5c-0.1,0-0.1,0.1-0.1,0.1c-0.7,0.6-1.1,1.5-1.1,2.4c0,0.9,0.3,1.8,0.9,2.5
			c0.7,0.8,1.7,1.2,2.7,1.2c0.9,0,1.7-0.3,2.4-0.9l6.9-5.5c0.1,0,0.1-0.1,0.2-0.1c0.7-0.6,1.1-1.5,1.1-2.4c0-0.9-0.3-1.8-0.9-2.5
			C44.6,41.3,43.6,40.8,42.6,40.8L42.6,40.8z"/>
	</g>
	<g>
		<path class="st3" d="M25,31.4c-0.1,0-0.2,0-0.2-0.1c-0.4-0.3-1.7-1.1-3-1.9c-1.4-0.9-2.8-1.8-3.3-2.2c-0.1-0.1-0.2-0.2-0.2-0.3
			c0-0.1,0-0.2,0.1-0.3l5.4-4.5c0.8-0.6,1.7-1,2.7-1c1.2,0,2.3,0.5,3.1,1.4c1.5,1.7,1.3,4.1-0.4,5.5l-4.1,3.3
			C25.2,31.4,25.1,31.4,25,31.4z"/>
		<path class="st0" d="M26.6,21.5c1.1,0,2.1,0.4,2.9,1.3c0,0,0,0,0.1,0.1c1.3,1.5,1.1,3.7-0.4,4.9L25,31c-0.8-0.6-5.2-3.3-6.3-4.1
			l5.4-4.5C24.8,21.8,25.7,21.5,26.6,21.5 M26.6,20.8c-1.1,0-2.1,0.4-2.9,1.1l-5.4,4.6C18.1,26.5,18,26.7,18,27
			c0,0.2,0.1,0.4,0.3,0.6c0.6,0.4,2,1.3,3.4,2.2c1.3,0.8,2.6,1.6,3,1.9c0.1,0.1,0.3,0.1,0.4,0.1c0.2,0,0.3-0.1,0.5-0.2l4.1-3.2
			c1.8-1.5,2-4.2,0.5-6L30,22.3C29.1,21.3,27.9,20.8,26.6,20.8L26.6,20.8z"/>
	</g>
</g>
</svg>
