<svg id="Layer_1" data-name="Layer 1" xmlns="http://www.w3.org/2000/svg" viewBox="0 0 61.63 66"><defs><style>.cls-1{fill:#fff;}</style></defs><title>icon-test</title><path d="M45.88,15.56a7,7,0,1,1,7-7A7,7,0,0,1,45.88,15.56Z"/><path class="cls-1" d="M45.88,3a5.53,5.53,0,1,1-5.53,5.53A5.54,5.54,0,0,1,45.88,3m0-3a8.53,8.53,0,1,0,8.54,8.53A8.54,8.54,0,0,0,45.88,0Z"/><path d="M6.42,50.73a5,5,0,0,1-4.92-5,4.86,4.86,0,0,1,5-4.8h11.2l4.89-6.8.63,3.48c.16.66,2.17,2.51,4.21,3.89l1.24.84-4,6a5.34,5.34,0,0,1-4.36,2.42Z"/><path class="cls-1" d="M21.69,37.89c.32,1.8,4.85,4.86,4.85,4.86l-3.19,4.71a3.84,3.84,0,0,1-3.12,1.77H6.42A3.45,3.45,0,0,1,3,45.75a3.36,3.36,0,0,1,3.45-3.31h12l3.27-4.55m1.7-7.5-4.13,5.75-2.38,3.3H6.48A6.35,6.35,0,0,0,0,45.72a6.45,6.45,0,0,0,6.39,6.51H20.2a6.83,6.83,0,0,0,5.63-3.08L29,44.43,30.7,42l-2.48-1.69a17.27,17.27,0,0,1-3.62-3.12l-1.21-6.75Z"/><path d="M34.28,64.5a4.84,4.84,0,0,1-2-.43,4.94,4.94,0,0,1-2.5-6.53L35,45.76l-6.26-4.28-3.6-2.21-.09-.07c-4.06-3.46-2.95-6.83-1.15-10l.06-.09,6.4-9.52L27.5,19l-7.73,5.22a4.4,4.4,0,0,1-2.33.74h-.11a4.37,4.37,0,0,1-2.45-8l9.29-6.26A4.41,4.41,0,0,1,26.62,10a4.5,4.5,0,0,1,.9.09l10,2.17a3,3,0,0,1,.73.28,1.72,1.72,0,0,1,.53.24l.13.09.31.2,5,3.39a2.28,2.28,0,0,1,.89,1.17,1.85,1.85,0,0,1,.23.37l3.38,7.57,7.54.93a4.37,4.37,0,0,1-.53,8.71,4.71,4.71,0,0,1-.53,0l-10-1.23a4.37,4.37,0,0,1-3.46-2.56l-1.32-3-4,6.37L44,39.93A5,5,0,0,1,45.73,46L38.8,61.57A4.94,4.94,0,0,1,34.28,64.5Z"/><path class="cls-1" d="M26.62,11.48a3.05,3.05,0,0,1,.6.06l10,2.17a2.58,2.58,0,0,1,.54.23c.06,0,.15,0,.2.06l.14.09a2.4,2.4,0,0,1,.26.18l5.09,3.41a1,1,0,0,1,.37.63,3.06,3.06,0,0,1,.21.29l3.72,8.33,8.38,1a2.87,2.87,0,0,1-.34,5.72l-.36,0-10-1.23a2.86,2.86,0,0,1-2.27-1.68l-2.47-5.54-6.23,10,8.72,6a3.45,3.45,0,0,1,1.2,4.25L37.43,61a3.45,3.45,0,0,1-3.15,2,3.53,3.53,0,0,1-1.4-.3,3.44,3.44,0,0,1-1.74-4.55L36.9,45.23l-7.29-5L26,38.05c-3.15-2.68-2.57-5-.82-8l7.64-11.36L27.2,17.41,18.93,23a2.8,2.8,0,0,1-1.53.49h-.07a2.87,2.87,0,0,1-1.61-5.25L25,12a2.86,2.86,0,0,1,1.62-.49m0-3a5.82,5.82,0,0,0-3.29,1L14,15.73a5.87,5.87,0,0,0,3.29,10.74h.14a5.89,5.89,0,0,0,3.15-1l7.19-4.85.1,0-5.18,7.68-.05.09-.06.09c-1.22,2.12-4.09,7.09,1.47,11.84l.18.15.2.12L28,42.76l5.16,3.53L28.4,56.93A6.45,6.45,0,0,0,34.28,66a6.47,6.47,0,0,0,5.9-3.82L47.1,46.64a6.46,6.46,0,0,0-2.24-7.94l-6.35-4.36,1.71-2.75.18.39a5.91,5.91,0,0,0,4.65,3.44l10,1.22a6.09,6.09,0,0,0,.72,0A5.87,5.87,0,0,0,56.47,25l-6.7-.83-3-6.78a2.76,2.76,0,0,0-.27-.49,3.7,3.7,0,0,0-1.38-1.69l-5-3.37-.39-.26-.08-.06a3.72,3.72,0,0,0-.82-.39,4.15,4.15,0,0,0-1-.34l-10-2.17a6,6,0,0,0-1.24-.13Z"/></svg>