<?xml version="1.0" encoding="utf-8"?>
<!-- Generator: Adobe Illustrator 23.0.3, SVG Export Plug-In . SVG Version: 6.00 Build 0)  -->
<svg version="1.1" id="Layer_1" xmlns="http://www.w3.org/2000/svg" xmlns:xlink="http://www.w3.org/1999/xlink" x="0px" y="0px"
	 viewBox="0 0 55.2 70" style="enable-background:new 0 0 55.2 70;" xml:space="preserve">
<style type="text/css">
	.st0{fill:#FFFFFF;}
	.st1{fill:#010101;}
</style>
<title>icon 4.2</title>
<rect x="15.5" y="38" class="st0" width="24.2" height="22.7"/>
<g>
	<g id="Layer_1-2">
		<g>
			<path class="st1" d="M8.3,22.9c-0.1-5.8,1.3-10.8,4.1-14.6c3.3-4.3,8.1-6.7,14-6.8c0.2,0,0.4,0,0.6,0c11,0,18.3,8,18.6,20.5
				l0.1,4.2l-10.4,0.3l-0.1-4.2c-0.1-4.7-1.7-10.4-8.3-10.4l-0.3,0c-2.7,0.1-4.7,1-6,2.7c-1.4,1.9-2.1,4.7-2,8.1l0.1,4.2L8.4,27.1
				L8.3,22.9z"/>
			<path class="st0" d="M27,3c10.1,0,16.8,7.4,17.1,19l0.1,2.7l-7.4,0.2l-0.1-2.7c-0.1-4.4-1.6-11.8-9.8-11.8c-0.1,0-0.2,0-0.4,0
				c-3.2,0.1-5.6,1.2-7.2,3.3c-1.6,2.1-2.4,5.3-2.3,9l0.1,2.7l-7.4,0.2l-0.1-2.7C9.6,17.5,11,12.7,13.6,9.2c3-3.9,7.4-6.1,12.9-6.2
				C26.7,3,26.8,3,27,3 M27,0c-0.2,0-0.4,0-0.6,0C20,0.2,14.8,2.7,11.2,7.4c-3.1,4-4.6,9.4-4.4,15.6l0.1,2.7l0.1,3l3-0.1l7.4-0.2
				l3-0.1l-0.1-3l-0.1-2.7c-0.1-3,0.5-5.6,1.7-7.1c1-1.4,2.6-2.1,4.9-2.1c0.1,0,0.2,0,0.3,0c1.6,0,6.6,0,6.8,8.9l0.1,2.7l0.1,3
				l3-0.1l7.4-0.2l3-0.1l-0.1-3l-0.1-2.7C46.8,8.8,38.7,0,27,0L27,0z"/>
		</g>
		<g>
			<path class="st1" d="M10.5,68.5c-2.4,0-4.6-0.9-6.3-2.6c-1.7-1.7-2.6-3.9-2.6-6.3L1.5,35c0-4.9,4-8.9,8.8-8.9L44.7,26
				c2.4,0,4.7,0.9,6.3,2.6c1.7,1.7,2.6,3.9,2.6,6.3l0.1,24.6c0,4.9-4,8.9-8.8,8.9L10.5,68.5L10.5,68.5z M27.6,41.3
				c-1.2,0-2.4,0.7-3,1.7c-0.5,0.8-0.6,1.7-0.3,2.6c0.2,0.9,0.8,1.6,1.6,2.1l0.8,0.4v6.5c0,0.1,0,0.2,0,0.2c0,0.5,0.5,0.9,1,0.9
				c0.6,0,1-0.5,1-1l0-6.6l0.8-0.4c0.5-0.3,0.9-0.7,1.2-1.2c0.5-0.8,0.6-1.7,0.3-2.6s-0.8-1.6-1.6-2.1
				C28.8,41.5,28.2,41.3,27.6,41.3z"/>
			<path class="st0" d="M44.8,27.5C44.8,27.5,44.8,27.5,44.8,27.5c4.1,0,7.4,3.3,7.4,7.4l0.1,24.6c0,4.1-3.3,7.4-7.4,7.4L10.5,67
				c0,0,0,0,0,0c-4.1,0-7.4-3.3-7.4-7.4L3,35c0-4.1,3.3-7.4,7.3-7.4L44.8,27.5C44.8,27.5,44.8,27.5,44.8,27.5 M27.6,57.2
				c0.1,0,0.1,0,0.2,0c1.4-0.1,2.4-1.3,2.3-2.6V49v0c0.7-0.4,1.4-1.1,1.8-1.8c1.4-2.3,0.6-5.4-1.8-6.7c-0.8-0.4-1.6-0.7-2.5-0.7
				c-1.7,0-3.3,0.9-4.3,2.5c-1.4,2.3-0.6,5.4,1.8,6.7v5.6c0,0.1,0,0.2,0,0.3C25.3,56.2,26.3,57.2,27.6,57.2 M44.8,24.5L44.8,24.5
				L44.8,24.5l-34.4,0.1C4.6,24.7,0,29.3,0,35l0.1,24.6c0,2.8,1.1,5.4,3,7.3c2,2,4.6,3,7.3,3.1l34.4-0.1c5.7,0,10.4-4.7,10.3-10.4
				l-0.1-24.6C55.2,29.2,50.5,24.5,44.8,24.5L44.8,24.5L44.8,24.5L44.8,24.5z M27.6,46.9l-1-0.6c-0.9-0.5-1.2-1.7-0.7-2.6
				c0.3-0.6,1-1,1.7-1c0.3,0,0.7,0.1,1,0.3c0.9,0.5,1.2,1.7,0.7,2.6c-0.2,0.3-0.4,0.5-0.7,0.7L27.6,46.9L27.6,46.9z"/>
		</g>
	</g>
</g>
</svg>
