<?xml version="1.0" encoding="utf-8"?>
<!-- Generator: Adobe Illustrator 23.0.3, SVG Export Plug-In . SVG Version: 6.00 Build 0)  -->
<svg version="1.1" id="Layer_1" xmlns="http://www.w3.org/2000/svg" xmlns:xlink="http://www.w3.org/1999/xlink" x="0px" y="0px"
	 viewBox="0 0 49.2 64" style="enable-background:new 0 0 49.2 64;" xml:space="preserve">
<style type="text/css">
	.st0{fill:#010101;}
</style>
<title>icon 4.2</title>
<g>
	<g id="Layer_1-2">
		<path class="st0" d="M6.8,22.6l-0.1-2.7C6.6,14.5,8,9.7,10.6,6.2c3-3.9,7.4-6.1,12.9-6.2c10.4-0.3,17.4,7.2,17.7,19l0.1,2.7
			l-7.4,0.2l-0.1-2.7C33.7,14.8,32.3,7.4,24,7.4c-0.1,0-0.2,0-0.4,0c-3.2,0.1-5.6,1.2-7.2,3.3c-1.6,2.1-2.4,5.3-2.3,9l0.1,2.7
			L6.8,22.6z"/>
		<path class="st0" d="M7.5,64l34.4-0.2c4.1,0,7.4-3.3,7.3-7.4l-0.1-24.6c0-4.1-3.3-7.3-7.4-7.3l0,0L7.4,24.6C3.3,24.6,0,27.9,0,32
			l0.1,24.6c0,0,0,0,0,0C0.1,60.7,3.4,64,7.5,64z M24.6,36.9c1.8,0,3.4,0.9,4.3,2.4c1.4,2.3,0.6,5.3-1.8,6.7v5.6c0,0,0,0,0,0
			c0,1.4-1.1,2.4-2.5,2.4l0,0c-1.4,0-2.5-1.1-2.5-2.4V46c-1.5-0.9-2.5-2.5-2.5-4.3C19.7,39,21.9,36.8,24.6,36.9z"/>
	</g>
</g>
</svg>
