<svg xmlns="http://www.w3.org/2000/svg" viewBox="0 0 64 64"><defs><style>.cls-1{fill:#010101;}</style></defs><title>icon 5.1</title><g id="Layer_2" data-name="Layer 2"><g id="Layer_1-2" data-name="Layer 1"><path class="cls-1" d="M64,35.94v-8l-9.52-1.55a23.18,23.18,0,0,0-2.62-6.32l5.55-7.91L51.75,6.5,44,12.12A23.13,23.13,0,0,0,37.6,9.47L35.94,0h-8L26.39,9.44A23.31,23.31,0,0,0,20,12.06L12.24,6.5,6.58,12.15,12.06,20A23,23,0,0,0,9.4,26.38L0,27.94v8l9.39,1.67A23,23,0,0,0,12.05,44L6.5,51.76l5.65,5.66L20,51.93a23.34,23.34,0,0,0,6.37,2.63L27.94,64h8l1.68-9.47A23,23,0,0,0,44,51.88l7.9,5.54,5.65-5.66-5.63-7.83a23.16,23.16,0,0,0,2.61-6.32ZM32,44.69A12.69,12.69,0,1,1,44.69,32,12.69,12.69,0,0,1,32,44.69Z"/></g></g></svg>