<?xml version="1.0" encoding="utf-8"?>
<!-- Generator: Adobe Illustrator 23.0.3, SVG Export Plug-In . SVG Version: 6.00 Build 0)  -->
<svg version="1.1" id="Layer_1" xmlns="http://www.w3.org/2000/svg" xmlns:xlink="http://www.w3.org/1999/xlink" x="0px" y="0px"
	 viewBox="0 0 70 70" style="enable-background:new 0 0 70 70;" xml:space="preserve">
<style type="text/css">
	.st0{fill:#FFFFFF;}
	.st1{fill:#010101;}
</style>
<rect x="20.5" y="20.3" class="st0" width="29.8" height="29.8"/>
<title>icon 5.1</title>
<g>
	<g id="Layer_1-2">
		<g>
			<path class="st1" d="M29.7,68.5L28,58.8c-1.7-0.5-3.4-1.2-5-2.1L15,62.4l-7.4-7.5l5.7-8c-0.9-1.6-1.6-3.3-2.1-5l-9.7-1.7V29.7
				l9.7-1.6c0.5-1.7,1.2-3.4,2.1-5L7.6,15l7.5-7.4l8,5.7c1.6-0.9,3.2-1.5,5-2l1.6-9.7h10.5l1.7,9.8c1.7,0.5,3.4,1.2,5,2.1l8-5.8
				l7.5,7.5l-5.7,8.2c0.9,1.6,1.5,3.2,2,4.9l9.8,1.6v10.5l-9.8,1.7c-0.5,1.7-1.2,3.4-2,4.9l5.8,8.1l-7.4,7.5l-8.1-5.7
				c-1.6,0.9-3.3,1.6-5,2.1l-1.7,9.8H29.7z M35,23.8c-6.2,0-11.2,5-11.2,11.2s5,11.2,11.2,11.2s11.2-5,11.2-11.2S41.2,23.8,35,23.8z
				"/>
			<path class="st0" d="M38.9,3l1.7,9.5c2.3,0.6,4.4,1.5,6.4,2.7l7.8-5.6l5.7,5.7l-5.6,7.9c1.2,2,2.1,4.1,2.6,6.3l9.5,1.5v8
				l-9.5,1.7c-0.6,2.2-1.4,4.4-2.6,6.3l5.6,7.8l-5.7,5.7L47,54.9c-2,1.2-4.1,2.1-6.4,2.6L38.9,67h-8l-1.6-9.4
				C27.1,57,25,56.1,23,54.9l-7.8,5.5l-5.7-5.7l5.6-7.8c-1.2-2-2.1-4.1-2.7-6.4L3,38.9v-8l9.4-1.6c0.6-2.2,1.5-4.4,2.7-6.4l-5.5-7.9
				l5.7-5.6l7.8,5.6c2-1.2,4.1-2.1,6.4-2.6L30.9,3H38.9 M35,47.7c7,0,12.7-5.7,12.7-12.7S42,22.3,35,22.3S22.3,28,22.3,35
				S28,47.7,35,47.7 M41.5,0h-2.5h-8h-2.5L28,2.5l-1.2,7.6c-1.2,0.4-2.4,0.9-3.5,1.4L17,7.1l-2.1-1.5l-1.8,1.8L7.5,13l-1.8,1.8
				l1.4,2.1l4.4,6.3c-0.6,1.1-1.1,2.3-1.5,3.5L2.5,28L0,28.4v2.5v8v2.5l2.5,0.4l7.6,1.3c0.4,1.2,0.9,2.4,1.5,3.6L7.1,53l-1.5,2.1
				l1.8,1.8l5.7,5.7l1.8,1.8l2.1-1.4l6.3-4.4c1.1,0.6,2.3,1.1,3.5,1.5l1.3,7.6l0.4,2.5h2.5h8h2.5l0.4-2.5l1.4-7.6
				c1.2-0.4,2.4-0.9,3.6-1.5l6.4,4.5l2.1,1.4l1.8-1.8l5.6-5.7l1.8-1.8L63,53l-4.5-6.3c0.6-1.1,1-2.3,1.4-3.5l7.6-1.3l2.5-0.4v-2.5
				v-8v-2.6L67.5,28l-7.7-1.2c-0.4-1.2-0.9-2.3-1.4-3.5l4.5-6.4l1.4-2.1L62.5,13l-5.7-5.7l-1.8-1.8L53,7.1l-6.2,4.5
				c-1.1-0.6-2.3-1.1-3.5-1.5l-1.3-7.6L41.5,0L41.5,0z M35,44.7c-5.3,0-9.7-4.3-9.7-9.7s4.3-9.7,9.7-9.7s9.7,4.3,9.7,9.7
				S40.3,44.7,35,44.7L35,44.7z"/>
		</g>
	</g>
</g>
</svg>
