<?xml version="1.0" encoding="utf-8"?>
<!-- Generator: Adobe Illustrator 23.0.3, SVG Export Plug-In . SVG Version: 6.00 Build 0)  -->
<svg version="1.1" id="Layer_1" xmlns="http://www.w3.org/2000/svg" xmlns:xlink="http://www.w3.org/1999/xlink" x="0px" y="0px"
	 viewBox="0 0 66.8 37.5" style="enable-background:new 0 0 66.8 37.5;" xml:space="preserve">
<style type="text/css">
	.st0{fill:#FFFFFF;stroke:#FFFFFF;stroke-width:3;stroke-linejoin:round;stroke-miterlimit:10;}
</style>
<path class="st0" d="M64.8,19.2c-3.4-0.9-6.9-1.6-10.4-2c-1.7-3.5-4.1-6.6-7-9.2c-0.7-0.7-1.6-1.1-2.6-1H31.5c-1.2,0-2.2,1-2.2,2.2
	c0,0,0,0,0,0v8.1c-0.6,1.3-1.1,4.7-1.7,5.2v-1h0c0,0,0,0,0,0v0h0c-0.1-3.1-2.1-5.7-5.1-6.6L5.4,1.5L3.6,3.4l0.2,0.1
	C3.7,3.6,3.7,3.8,3.7,3.9c0,2.1,0,4.1,0,6.2c0,0.6,0.4,1.2,1,1.4c0.4,0.1,0.7,0.5,0.5,1s-0.5,0.7-1,0.5c-0.1,0-0.1,0-0.2-0.1
	c-0.2-0.1-0.4-0.4-0.4-0.6c0-0.4-0.4-0.7-0.8-0.7c0,0,0,0,0,0H2.5c-0.4-0.1-0.9,0.2-1,0.6v0.4c0.1,0.5,0.3,1,0.6,1.4
	c1,1.3,2.9,1.6,4.2,0.6c0,0,0.1-0.1,0.1-0.1c1.2-1.1,1.4-3,0.3-4.2c0,0-0.1-0.1-0.1-0.1C6.5,10,6.4,9.9,6.4,9.7V6.4l8.7,9.6
	c-1.8,1.3-2.8,3.3-2.9,5.5h0v1.1H6.8c-1,0-1.9,0.9-1.9,1.9v3.8c0,1,0.9,1.9,1.9,1.9H9v0h4.6c-0.1,0.3-0.1,0.7-0.1,1
	c0,2.6,2.1,4.8,4.8,4.8s4.8-2.1,4.8-4.8c0-0.4,0-0.7-0.1-1h27.5c-0.1,0.3-0.1,0.7-0.1,1c0,2.6,2.1,4.8,4.8,4.8s4.8-2.1,4.8-4.8
	c0-0.4,0-0.7-0.1-1h3.7v0h0.2c1,0,1.8-0.8,1.8-1.7c0,0,0-0.1,0-0.1C65.3,28.4,65.4,19.7,64.8,19.2z"/>
<title>icon 8.2</title>
<g>
	<g id="Layer_1-2">
		<path d="M55,26.5c-2.6,0-4.8,2.1-4.8,4.8S52.3,36,55,36s4.8-2.1,4.8-4.8l0,0C59.7,28.6,57.6,26.5,55,26.5z"/>
		<path d="M18.2,26.5c-2.6,0-4.8,2.1-4.8,4.8s2.1,4.8,4.8,4.8s4.8-2.1,4.8-4.8l0,0C23,28.6,20.8,26.5,18.2,26.5z"/>
		<path d="M64.8,19.2c-3.4-0.9-6.9-1.6-10.3-2c-1.7-3.5-4.1-6.6-7-9.2c-0.7-0.7-1.6-1.1-2.6-1H31.5c-1.2,0-2.2,1-2.2,2.2
			c0,0,0,0,0,0v8.1c-0.6,1.4-1.2,5.2-1.8,5.2H6.8c-1,0-1.9,0.9-1.9,1.9v3.8c0,1,0.9,1.9,1.9,1.9h4.7c0.5-3.7,3.9-6.2,7.6-5.7
			c3,0.4,5.3,2.8,5.7,5.7h23.4c0.5-3.7,3.9-6.2,7.6-5.7c3,0.4,5.3,2.8,5.7,5.7h1.9c1,0,1.8-0.8,1.8-1.7c0,0,0-0.1,0-0.1
			C65.3,28.4,65.4,19.7,64.8,19.2z M37,17h-3.8v-5.6H37V17z M40.7,17v-5.6h4.1c2,1.6,3.7,3.5,5.1,5.6H40.7z"/>
		<path d="M6.4,14.5c1.2-1.1,1.4-3,0.3-4.2c0,0-0.1-0.1-0.1-0.1C6.5,10,6.4,9.9,6.4,9.7V6.4l8.7,9.6c-1.8,1.3-2.9,3.3-2.9,5.5h15.3
			c-0.1-3.1-2.1-5.8-5.1-6.7L5.4,1.5L3.6,3.4l0.2,0.2C3.7,3.6,3.7,3.8,3.7,3.9c0,2.1,0,4.1,0,6.2c0,0.6,0.4,1.2,1,1.4
			c0.4,0.1,0.7,0.5,0.5,1c-0.1,0.4-0.5,0.7-1,0.5c-0.1,0-0.1,0-0.2-0.1c-0.2-0.1-0.4-0.4-0.4-0.6c0-0.4-0.4-0.7-0.8-0.7c0,0,0,0,0,0
			H2.5c-0.4-0.1-0.9,0.2-1,0.6v0.4c0.1,0.5,0.3,1,0.6,1.4c1,1.3,2.9,1.6,4.2,0.6C6.3,14.6,6.3,14.5,6.4,14.5z"/>
	</g>
</g>
</svg>
