<svg xmlns="http://www.w3.org/2000/svg" viewBox="0 0 64 64"><defs><style>.cls-1{fill:#a64d4d;}</style></defs><title>icon 2.1</title><g id="Layer_2" data-name="Layer 2"><g id="Layer_1-2" data-name="Layer 1"><path class="cls-1" d="M32,0A32,32,0,1,0,64,32,32,32,0,0,0,32,0ZM46.44,43,43,46.44a1.65,1.65,0,0,1-2.31,0L32,37.78l-8.66,8.66a1.64,1.64,0,0,1-2.31,0L17.56,43a1.65,1.65,0,0,1,0-2.31L26.22,32l-8.65-8.66a1.63,1.63,0,0,1,0-2.31L21,17.57a1.63,1.63,0,0,1,2.31,0L32,26.23l8.66-8.66a1.63,1.63,0,0,1,2.31,0L46.43,21a1.64,1.64,0,0,1,0,2.31L37.78,32l8.66,8.66A1.65,1.65,0,0,1,46.44,43Z"/></g></g></svg>