<?xml version="1.0" encoding="utf-8"?>
<!-- Generator: Adobe Illustrator 23.0.3, SVG Export Plug-In . SVG Version: 6.00 Build 0)  -->
<svg version="1.1" id="Layer_1" xmlns="http://www.w3.org/2000/svg" xmlns:xlink="http://www.w3.org/1999/xlink" x="0px" y="0px"
	 viewBox="0 0 70 70" style="enable-background:new 0 0 70 70;" xml:space="preserve">
<style type="text/css">
	.st0{fill:#FFFFFF;}
	.st1{fill:#A64D4D;}
</style>
<rect x="16" y="16.7" class="st0" width="37.2" height="39.7"/>
<title>icon 2.1</title>
<g>
	<g id="Layer_1-2">
		<g>
			<path class="st1" d="M35,68.5c-18.5,0-33.5-15-33.5-33.5c0-18.5,15-33.5,33.5-33.5s33.5,15,33.5,33.5
				C68.5,53.5,53.5,68.5,35,68.5z M25.2,21.6C25.1,21.6,25.1,21.6,25.2,21.6l-3.5,3.5c-0.1,0.1-0.1,0.1,0,0.2l9.7,9.7l-9.7,9.8
				c0,0,0,0.1,0,0.2l3.5,3.4c0,0,0.1,0,0.1,0c0,0,0.1,0,0.1,0l9.7-9.7l9.8,9.7c0,0,0.1,0,0.1,0s0.1,0,0.1,0l3.4-3.4c0,0,0-0.2,0-0.2
				L38.7,35l9.7-9.8c0.1-0.1,0.1-0.1,0-0.2l-3.5-3.4l-0.2,0L35,31.3L25.2,21.6L25.2,21.6z"/>
			<path class="st0" d="M35,3c17.7,0,32,14.3,32,32S52.7,67,35,67C17.3,67,3,52.7,3,35S17.3,3,35,3 M35,29.2l-8.7-8.7c0,0,0,0,0,0
				c-0.3-0.3-0.7-0.5-1.2-0.5c-0.4,0-0.8,0.2-1.2,0.5L20.6,24c0,0,0,0,0,0c-0.6,0.6-0.6,1.7,0,2.3l8.7,8.7l-8.7,8.7
				c-0.6,0.6-0.6,1.7,0,2.3l3.5,3.4c0.3,0.3,0.7,0.5,1.2,0.5c0.4,0,0.8-0.2,1.2-0.5l8.7-8.7l8.7,8.7c0.3,0.3,0.7,0.5,1.2,0.5
				s0.8-0.2,1.2-0.5l3.4-3.4c0,0,0,0,0,0c0.6-0.6,0.6-1.7,0-2.3L40.8,35l8.7-8.7c0.6-0.6,0.6-1.7,0-2.3L46,20.6c0,0,0,0,0,0
				c-0.3-0.3-0.7-0.5-1.2-0.5c-0.4,0-0.8,0.2-1.2,0.5L35,29.2 M35,0C15.7,0,0,15.7,0,35s15.7,35,35,35s35-15.7,35-35S54.3,0,35,0
				L35,0z M35,33.5l2.1-2.1l7.7-7.7l1.5,1.5l-7.7,7.7L36.5,35l2.1,2.1l7.7,7.7l-1.5,1.5l-7.7-7.7L35,36.5l-2.1,2.1l-7.7,7.7
				l-1.5-1.5l7.7-7.7l2.1-2.1l-2.1-2.1l-7.7-7.7l1.5-1.5l7.7,7.7L35,33.5L35,33.5z"/>
		</g>
	</g>
</g>
</svg>
