<svg xmlns="http://www.w3.org/2000/svg" width="33" height="33" viewBox="0 0 33 33"><defs><style>.a{fill:#d2e1ef;stroke:#95b1d6;}.b{fill:#335ca5;}</style></defs><g transform="translate(-769.5 -559.319)"><g transform="translate(-850 73)"><g transform="translate(1620 486.819)"><circle class="a" cx="16" cy="16" r="16" transform="translate(0)"/></g></g><g transform="translate(786.356 572.057)"><path class="b" d="M1576.119,88.076l-5.271-6.4-5.271,6.4Z" transform="translate(-1565.35 -81.68)"/><path class="b" d="M1565.3,95.9s3.776-.4,3.444-7.486l3.711.066S1573.318,97.028,1565.3,95.9Z" transform="translate(-1565.302 -82.844)"/></g><g transform="translate(775.193 566.402)"><path class="b" d="M1554.17,84.011l5.271,6.4,5.27-6.4Z" transform="translate(-1554.17 -77.247)"/><path class="b" d="M1565.688,75.937s-3.777.4-3.445,7.486l-3.71-.066S1557.672,74.81,1565.688,75.937Z" transform="translate(-1554.919 -75.834)"/></g></g></svg>