<svg xmlns="http://www.w3.org/2000/svg" width="33" height="33" viewBox="0 0 33 33"><defs><style>.a,.e{fill:#d2e1ef;}.a{stroke:#95b1d6;}.b,.c{fill:#335ca5;}.d,.e{stroke:none;}</style></defs><g transform="translate(-769.5 -463.319)"><g transform="translate(-850 -23)"><g transform="translate(1620 486.819)"><circle class="a" cx="16" cy="16" r="16" transform="translate(0)"/></g></g><g transform="translate(773.939 470.027)"><g transform="translate(0)"><ellipse class="b" cx="3.479" cy="3.252" rx="3.479" ry="3.252" transform="translate(2.323)"/><path class="b" d="M1279.925,160.146a5.739,5.739,0,0,1,5.8,5.575v.929h-11.6v-.929A5.739,5.739,0,0,1,1279.925,160.146Z" transform="translate(-1274.124 -153.212)"/></g></g><g transform="translate(781.626 470.027)"><g transform="translate(0 0)"><g class="c" transform="translate(-1274.124 -150.959)"><path class="d" d="M 1289.997680664062 169.2639312744141 L 1289.497680664062 169.2639312744141 L 1274.1240234375 169.2639312744141 L 1273.6240234375 169.2639312744141 L 1273.6240234375 168.7639312744141 L 1273.6240234375 167.5330657958984 C 1273.6416015625 165.4270172119141 1274.502075195312 163.4518127441406 1276.046997070312 161.9671325683594 C 1277.58642578125 160.4876251220703 1279.6318359375 159.6632995605469 1281.806274414062 159.6460113525391 L 1281.810302734375 159.6459808349609 L 1281.814331054688 159.6460113525391 C 1283.989135742188 159.6632995605469 1286.03466796875 160.4876251220703 1287.57421875 161.9671325683594 C 1289.118896484375 163.4515991210938 1289.9794921875 165.4267730712891 1289.997680664062 167.5287628173828 L 1289.997680664062 168.7639312744141 L 1289.997680664062 169.2639312744141 Z"/><path class="e" d="M 1281.810302734375 160.14599609375 C 1277.579711914062 160.1796417236328 1274.157958984375 163.4676818847656 1274.1240234375 167.5330657958984 L 1274.1240234375 168.7639312744141 L 1289.497680664062 168.7639312744141 L 1289.497680664062 167.5330657958984 C 1289.462646484375 163.4676818847656 1286.0419921875 160.1796417236328 1281.810302734375 160.14599609375 M 1281.810302734375 159.1459655761719 L 1281.818237304688 159.1460266113281 C 1284.121459960938 159.1643524169922 1286.28857421875 160.0381927490234 1287.920654296875 161.6066131591797 C 1289.563110351562 163.1851196289062 1290.478393554688 165.2867736816406 1290.497680664062 167.5244445800781 L 1290.497680664062 167.5287628173828 L 1290.497680664062 167.5330657958984 L 1290.497680664062 168.7639312744141 L 1290.497680664062 169.7639312744141 L 1289.497680664062 169.7639312744141 L 1274.1240234375 169.7639312744141 L 1273.1240234375 169.7639312744141 L 1273.1240234375 168.7639312744141 L 1273.1240234375 167.5330657958984 L 1273.1240234375 167.5289001464844 L 1273.1240234375 167.5247192382812 C 1273.142700195312 165.287109375 1274.057739257812 163.1853485107422 1275.700561523438 161.6066131591797 C 1277.33251953125 160.0381927490234 1279.49951171875 159.1643524169922 1281.802368164062 159.1460266113281 L 1281.810302734375 159.1459655761719 Z"/></g><ellipse class="b" cx="4.609" cy="4.309" rx="4.609" ry="4.309" transform="translate(3.078)"/></g></g></g></svg>