<svg xmlns="http://www.w3.org/2000/svg" width="33" height="33" viewBox="0 0 33 33"><defs><style>.a,.e{fill:#d2e1ef;}.a{stroke:#95b1d6;}.b,.c{fill:#335ca5;}.c{stroke-linejoin:round;}.d,.e{stroke:none;}</style></defs><g transform="translate(-1510.5 -474.5)"><g transform="translate(865 -139)"><circle class="a" cx="16" cy="16" r="16" transform="translate(646 614)"/></g><path class="b" d="M1736.337,891.055l-6.087,3.621V883.487l3.694-2.112v10.712a6.831,6.831,0,0,1,1.739-1.221v-9.491l3.694,2.112v6.719a6.8,6.8,0,0,1,1.738.415v-8.143l-6.29-3.6-3.939,2.239-1.5.86-6.3-3.6v15.192c.856.485,6.017,3.447,6.3,3.609l.433-.248h0l7.953-4.688A6.9,6.9,0,0,0,1736.337,891.055Zm-7.825,3.621-3.694-2.111v-11.19l3.694,2.112Z" transform="translate(-205.086 -396.377)"/><g class="c" transform="translate(1512.2 461.043)"><path class="d" d="M 20.46181106567383 42.37230682373047 L 19.98272132873535 40.23819732666016 L 18.91175079345703 35.46751022338867 L 14.3156909942627 34.30230712890625 L 12.28170108795166 33.78664779663086 L 14.18173122406006 32.89618682861328 L 26.07809066772461 27.32087707519531 L 27.9598503112793 26.4389762878418 L 27.07497024536133 28.3193473815918 L 21.39312171936035 40.39326858520508 L 20.46181106567383 42.37230682373047 Z"/><path class="e" d="M 20.71451187133789 40.07391738891602 L 26.39636039733887 27.99999618530273 L 14.50000095367432 33.5753059387207 L 19.54263114929199 34.85372543334961 L 20.71451187133789 40.07391738891602 M 20.715087890625 41.57396697998047 C 20.66057777404785 41.57396697998047 20.60567855834961 41.57099533081055 20.55058097839355 41.56493759155273 C 19.91351127624512 41.49488830566406 19.39132118225098 41.02781677246094 19.25094032287598 40.4024772644043 L 18.28087997436523 36.081298828125 L 14.13138103485107 35.0293083190918 C 13.51703071594238 34.87355804443359 13.06687068939209 34.34849548339844 13.00676155090332 33.71756744384766 C 12.94665145874023 33.08664703369141 13.28957080841064 32.48602676391602 13.86345100402832 32.21706771850586 L 25.75981140136719 26.64175605773926 C 25.96340751647949 26.54634475708008 26.18061637878418 26.49995613098145 26.39595413208008 26.49995613098145 C 26.78598403930664 26.49995613098145 27.17012214660645 26.65198135375977 27.45786094665527 26.94017601013184 C 27.90446090698242 27.38748741149902 28.02273178100586 28.0667667388916 27.75359153747559 28.63869667053223 L 22.07174110412598 40.71261596679688 C 21.82244300842285 41.24236297607422 21.29083442687988 41.57396697998047 20.715087890625 41.57396697998047 Z"/></g></g></svg>