<svg xmlns="http://www.w3.org/2000/svg" width="30" height="25.439" viewBox="0 0 30 25.439"><defs><style>.a{fill:#fff;}</style></defs><g transform="translate(-851.977 -377.951)"><path class="a" d="M861.393,400.543c-.57-.184-1.113-.372-1.642-.562a1.608,1.608,0,0,0-.582.784,1.992,1.992,0,0,0,1.274,2.513l.032.01a2.053,2.053,0,0,0,2.578-1.279,1.565,1.565,0,0,0,0-.967C862.517,400.888,861.966,400.727,861.393,400.543Z"/><path class="a" d="M872.02,397.98a3.585,3.585,0,0,1-3.309-1.794l-.995-1.723a3.615,3.615,0,0,1,.1-3.772,3.61,3.61,0,0,1-.1-3.765l.994-1.721a3.579,3.579,0,0,1,3.276-1.8,5.944,5.944,0,0,0-2.1-2.622l.212-.635a1.687,1.687,0,0,0-1.161-2.082l-.023-.006a1.741,1.741,0,0,0-2.217,1l-.212.636a6.158,6.158,0,0,0-5.946,4.14l-1.75,5.234c-.263.788-6.393,3.048-6.761,4.148-.527,1.575,3.289,4.21,9.727,6.274s11.109,2.145,11.633.568a1.269,1.269,0,0,0-.053-.648A3.608,3.608,0,0,1,872.02,397.98Z"/><path class="a" d="M880.842,391.4a4.664,4.664,0,0,0,0-1.425l1.024-.991a.364.364,0,0,0,.062-.444l-.99-1.715a.366.366,0,0,0-.416-.168l-1.4.4a4.605,4.605,0,0,0-1.194-.676l-.357-1.427a.364.364,0,0,0-.353-.276h-1.981a.363.363,0,0,0-.353.275l-.37,1.481a4.6,4.6,0,0,0-1.093.647l-1.487-.425a.364.364,0,0,0-.415.168l-.99,1.716a.363.363,0,0,0,.062.443l1.132,1.1a4.509,4.509,0,0,0,0,1.217l-1.132,1.094a.364.364,0,0,0-.062.444l.99,1.715a.363.363,0,0,0,.415.168l1.487-.425a4.57,4.57,0,0,0,1.093.648l.37,1.481a.364.364,0,0,0,.353.275h1.981a.365.365,0,0,0,.353-.276L877.93,395a4.576,4.576,0,0,0,1.194-.676l1.4.4a.364.364,0,0,0,.416-.168l.99-1.715a.364.364,0,0,0-.062-.444Zm-4.552,1.915a2.629,2.629,0,1,1,2.629-2.629A2.629,2.629,0,0,1,876.29,393.32Z"/></g></svg>