<svg xmlns="http://www.w3.org/2000/svg" width="33" height="33" viewBox="0 0 33 33"><defs><style>.a,.c,.f{fill:#d2e1ef;}.a{stroke:#95b1d6;}.b,.d{fill:#335ca5;}.d{stroke-linejoin:round;}.e,.f{stroke:none;}</style></defs><g transform="translate(-769.5 -559.319)"><g transform="translate(-850 73)"><g transform="translate(1620 486.819)"><circle class="a" cx="16" cy="16" r="16" transform="translate(0)"/></g></g><path class="b" d="M1102.043,841.4a9.607,9.607,0,0,0-.8-1.117,5.368,5.368,0,0,1-1.46-3.856c0-3.955-1.21-6.374-3.6-7.2a1.757,1.757,0,0,0-3.48,0c-2.389.822-3.6,3.241-3.6,7.2a5.5,5.5,0,0,1-1.471,3.859,10.341,10.341,0,0,0-.789,1.114,1.236,1.236,0,0,0,1.059,1.866h3.478a3.1,3.1,0,0,0,6.114,0h3.478a1.238,1.238,0,0,0,1.059-1.866Zm-4.54.226h-1.362l-.243,1.349a1.475,1.475,0,0,1-2.905,0l-.243-1.349h-4.083c.083-.107.168-.213.254-.329a7.117,7.117,0,0,0,1.817-4.869,9.672,9.672,0,0,1,.584-3.69c.022-.06.046-.117.07-.175.017-.037.031-.086.049-.124h.013a3.231,3.231,0,0,1,5.833-.291h.008a8.489,8.489,0,0,1,.858,4.282,7,7,0,0,0,1.822,4.889c.083.107.165.208.243.31Z" transform="translate(-311.81 -263.104)"/><ellipse class="c" cx="4.5" cy="4" rx="4.5" ry="4" transform="translate(787 574.819)"/><g transform="translate(338.964 -51.103)"><g class="d" transform="translate(0 0)"><path class="e" d="M 453.7908325195312 637.1257934570312 L 453.3717041015625 637.1257934570312 L 451.7306518554688 637.1257934570312 L 451.3070068359375 637.1257934570312 L 451.2374267578125 636.7078857421875 L 450.9668273925781 635.0826416015625 C 450.6790466308594 634.99169921875 450.3998107910156 634.8761596679688 450.1317138671875 634.7371215820312 L 448.7796325683594 635.6841430664062 L 448.4358215332031 635.9249877929688 L 448.1390991210938 635.6279907226562 L 446.9788208007812 634.4667358398438 L 446.6793823242188 634.1670532226562 L 446.9258422851562 633.8224487304688 L 447.8797912597656 632.4887084960938 C 447.7389831542969 632.2189331054688 447.6222534179688 631.937744140625 447.5307006835938 631.6478881835938 L 445.9127502441406 631.3611450195312 L 445.5 631.2880249023438 L 445.5 630.8688354492188 L 445.5 629.227783203125 L 445.5 628.8041381835938 L 445.9179077148438 628.7345581054688 L 447.5343933105469 628.4655151367188 C 447.6264038085938 628.1758422851562 447.7433166503906 627.894775390625 447.8839721679688 627.6251831054688 L 446.9403686523438 626.2760009765625 L 446.7000122070312 625.9323120117188 L 446.9966125488281 625.6358032226562 L 448.1573486328125 624.4754028320312 L 448.4569396972656 624.1759643554688 L 448.8015747070312 624.4222412109375 L 450.1410522460938 625.3795166015625 C 450.4070129394531 625.2423095703125 450.6849975585938 625.128173828125 450.9724731445312 625.0380859375 L 451.2371826171875 623.4154052734375 L 451.3056030273438 622.9959106445312 L 451.7306518554688 622.9959106445312 L 453.3717041015625 622.9959106445312 L 453.791748046875 622.9959106445312 L 453.8641967773438 623.40966796875 L 454.1504516601562 625.04443359375 C 454.4378051757812 625.1357421875 454.7158508300781 625.2512817382812 454.9820556640625 625.3900756835938 L 456.3247985839844 624.4242553710938 L 456.6697082519531 624.1761474609375 L 456.9702453613281 624.4765014648438 L 458.1310729980469 625.6367797851562 L 458.4281616210938 625.9337158203125 L 458.1868896484375 626.277587890625 L 457.2285766601562 627.6434326171875 C 457.3652648925781 627.9074096679688 457.4792175292969 628.1826782226562 457.5693969726562 628.466552734375 L 459.2092895507812 628.7343139648438 L 459.6287231445312 628.8027954101562 L 459.6287231445312 629.227783203125 L 459.6287231445312 630.8688354492188 L 459.6287231445312 631.288818359375 L 459.2150573730469 631.361328125 L 457.5713195800781 631.6494750976562 C 457.48193359375 631.9331665039062 457.3683471679688 632.2085571289062 457.2316589355469 632.4733276367188 L 458.2019348144531 633.8212280273438 L 458.4501953125 634.1661376953125 L 458.1498413085938 634.4667358398438 L 456.9896240234375 635.6279907226562 L 456.6926574707031 635.9252319335938 L 456.3487243652344 635.6838989257812 L 454.9873352050781 634.728515625 C 454.7207641601562 634.8683471679688 454.442138671875 634.98486328125 454.1541748046875 635.076904296875 L 453.864013671875 636.7130737304688 L 453.7908325195312 637.1257934570312 Z M 452.5643310546875 627.1748046875 C 450.9729614257812 627.1748046875 449.6782836914062 628.469482421875 449.6782836914062 630.0608520507812 C 449.6782836914062 631.6522827148438 450.9729614257812 632.947021484375 452.5643310546875 632.947021484375 C 454.1557312011719 632.947021484375 455.450439453125 631.6522827148438 455.450439453125 630.0608520507812 C 455.450439453125 628.469482421875 454.1557312011719 627.1748046875 452.5643310546875 627.1748046875 Z"/><path class="f" d="M 453.3717041015625 636.6257934570312 L 453.7163696289062 634.6821899414062 C 454.1802978515625 634.565185546875 454.6184692382812 634.3802490234375 455.0161743164062 634.137939453125 L 456.6359252929688 635.2745971679688 L 457.796142578125 634.1133422851562 L 456.6403198242188 632.5076904296875 C 456.8792724609375 632.1094360351562 457.0609741210938 631.6746826171875 457.1752319335938 631.2113037109375 L 459.1287231445312 630.8688354492188 L 459.1287231445312 629.227783203125 L 457.1752319335938 628.9088134765625 C 457.0598754882812 628.446044921875 456.8782348632812 628.0111083984375 456.63916015625 627.6129150390625 L 457.777587890625 625.9904174804688 L 456.6167602539062 624.8301391601562 L 455.0150756835938 625.9822387695312 C 454.61572265625 625.7399291992188 454.1781005859375 625.55615234375 453.7120361328125 625.4395751953125 L 453.3717041015625 623.4959106445312 L 451.7306518554688 623.4959106445312 L 451.41455078125 625.4336547851562 C 450.9483642578125 625.5479125976562 450.5086059570312 625.7294921875 450.107666015625 625.97021484375 L 448.5108642578125 624.8290405273438 L 447.35009765625 625.9894409179688 L 448.4736938476562 627.5960083007812 C 448.2308349609375 627.998046875 448.0458984375 628.4373168945312 447.9288330078125 628.90673828125 L 446 629.227783203125 L 446 630.8688354492188 L 447.9266967773438 631.2102661132812 C 448.0426025390625 631.6784057617188 448.2274780273438 632.1182861328125 448.4714965820312 632.5209350585938 L 447.33251953125 634.1133422851562 L 448.4927978515625 635.2745971679688 L 450.1016235351562 634.1477661132812 C 450.503173828125 634.3889770507812 450.94189453125 634.572265625 451.407958984375 634.6876831054688 L 451.7306518554688 636.6257934570312 L 453.3717041015625 636.6257934570312 M 452.5643310546875 626.6748046875 C 454.4341430664062 626.6748046875 455.950439453125 628.191162109375 455.950439453125 630.0608520507812 C 455.950439453125 631.9306030273438 454.4341430664062 633.447021484375 452.5643310546875 633.447021484375 C 450.6946411132812 633.447021484375 449.1782836914062 631.9306030273438 449.1782836914062 630.0608520507812 C 449.1782836914062 628.191162109375 450.6946411132812 626.6748046875 452.5643310546875 626.6748046875 M 453.3717041015625 637.6257934570312 L 451.7306518554688 637.6257934570312 C 451.2417602539062 637.6257934570312 450.8245239257812 637.2722778320312 450.7442321777344 636.7900390625 L 450.5223999023438 635.457763671875 C 450.4061279296875 635.4140014648438 450.291259765625 635.3663940429688 450.1780090332031 635.3151245117188 L 449.0664978027344 636.0936889648438 C 448.8930969238281 636.2151489257812 448.6925659179688 636.2745971679688 448.4931030273438 636.2745971679688 C 448.2351379394531 636.2745971679688 447.9789123535156 636.1751098632812 447.785400390625 635.9813842773438 L 446.6251220703125 634.8201293945312 C 446.279541015625 634.4743041992188 446.2347106933594 633.9292602539062 446.5191650390625 633.5315551757812 L 447.2999267578125 632.4400024414062 C 447.2474975585938 632.3245849609375 447.198974609375 632.20751953125 447.1543579101562 632.0889892578125 L 445.8255004882812 631.853515625 C 445.3479919433594 631.7688598632812 445 631.3538208007812 445 630.8688354492188 L 445 629.227783203125 C 445 628.7388916015625 445.3535461425781 628.3215942382812 445.8358154296875 628.2413330078125 L 447.1597290039062 628.02099609375 C 447.2044982910156 627.9026489257812 447.2531127929688 627.7858276367188 447.3055725097656 627.6705932617188 L 446.5306396484375 626.5625610351562 C 446.2525939941406 626.1649780273438 446.2999877929688 625.625244140625 446.6430969238281 625.2822265625 L 447.8038635253906 624.121826171875 C 447.9974365234375 623.9282836914062 448.2535095214844 623.8290405273438 448.5111694335938 623.8290405273438 C 448.7137145996094 623.8290405273438 448.917236328125 623.8903198242188 449.0923156738281 624.0154418945312 L 450.1910095214844 624.8006591796875 C 450.3014221191406 624.7510986328125 450.4135131835938 624.705078125 450.5271301269531 624.6625366210938 L 450.7437133789062 623.3348999023438 C 450.8226013183594 622.8511352539062 451.2405090332031 622.4959106445312 451.7306518554688 622.4959106445312 L 453.3717041015625 622.4959106445312 C 453.8574523925781 622.4959106445312 454.27294921875 622.844970703125 454.3567199707031 623.3234252929688 L 454.59228515625 624.6688232421875 C 454.7072143554688 624.7122192382812 454.8206176757812 624.75927734375 454.9323120117188 624.8099365234375 L 456.0328369140625 624.0183715820312 C 456.2084045410156 623.89208984375 456.4129333496094 623.8301391601562 456.616455078125 623.8301391601562 C 456.8740844726562 623.8301391601562 457.1300964355469 623.9293212890625 457.3236999511719 624.1228637695312 L 458.4845275878906 625.2831420898438 C 458.8280944824219 625.6265258789062 458.8751831054688 626.1671752929688 458.59619140625 626.5648193359375 L 457.8065490722656 627.690185546875 C 457.8556823730469 627.7990112304688 457.9013977050781 627.9093017578125 457.9436645507812 628.0210571289062 L 459.2898864746094 628.2408447265625 C 459.7735595703125 628.31982421875 460.1287231445312 628.7376708984375 460.1287231445312 629.227783203125 L 460.1287231445312 630.8688354492188 C 460.1287231445312 631.3544921875 459.77978515625 631.7699584960938 459.3013916015625 631.8538208007812 L 457.9476318359375 632.0911254882812 C 457.9056396484375 632.2029418945312 457.860107421875 632.3134765625 457.8111267089844 632.4224853515625 L 458.6077270507812 633.5291137695312 C 458.89404296875 633.9268798828125 458.8499450683594 634.4734497070312 458.5035705566406 634.8201293945312 L 457.3433532714844 635.9813842773438 C 457.1498107910156 636.1751098632812 456.8935852050781 636.2745971679688 456.6356201171875 636.2745971679688 C 456.4358520507812 636.2745971679688 456.2350463867188 636.2149658203125 456.0614929199219 636.0931396484375 L 454.94189453125 635.3074951171875 C 454.8280944824219 635.3594970703125 454.7125854492188 635.40771484375 454.5954284667969 635.4522094726562 L 454.3563537597656 636.8004150390625 C 454.2716674804688 637.2778930664062 453.8566284179688 637.6257934570312 453.3717041015625 637.6257934570312 Z M 452.5643310546875 627.6748046875 C 451.2486572265625 627.6748046875 450.1782836914062 628.7451782226562 450.1782836914062 630.0608520507812 C 450.1782836914062 631.3765869140625 451.2486572265625 632.447021484375 452.5643310546875 632.447021484375 C 453.8800354003906 632.447021484375 454.950439453125 631.3765869140625 454.950439453125 630.0608520507812 C 454.950439453125 628.7451782226562 453.8800354003906 627.6748046875 452.5643310546875 627.6748046875 Z"/></g><g class="d" transform="translate(0 0)"><path class="e" d="M 453.7533569335938 637.126708984375 L 453.3343200683594 637.1246337890625 L 451.6943054199219 637.1165161132812 L 451.2705688476562 637.1144409179688 L 451.2031555175781 636.696044921875 L 450.9412536621094 635.0706787109375 C 450.6542358398438 634.9783935546875 450.3757934570312 634.861572265625 450.1084594726562 634.7213134765625 L 448.7529296875 635.6600341796875 L 448.4078369140625 635.8989868164062 L 448.1127014160156 635.6005249023438 L 446.9595031738281 634.4342041015625 L 446.6616821289062 634.1329956054688 L 446.9098510742188 633.7896728515625 L 447.86962890625 632.4620971679688 C 447.7306213378906 632.1922607421875 447.615478515625 631.9109497070312 447.5252990722656 631.6206665039062 L 445.91015625 631.32568359375 L 445.4977722167969 631.2503051757812 L 445.5 630.8311157226562 L 445.5087890625 629.191162109375 L 445.5110778808594 628.767578125 L 445.9292907714844 628.7001953125 L 447.54541015625 628.4398803710938 C 447.6388549804688 628.1508178710938 447.757080078125 627.8707275390625 447.8990478515625 627.602294921875 L 446.9634094238281 626.2490844726562 L 446.7249450683594 625.9041748046875 L 447.0230712890625 625.6092529296875 L 448.1887817382812 624.4561157226562 L 448.4898376464844 624.1582641601562 L 448.8331604003906 624.40625 L 450.1664123535156 625.3692626953125 C 450.4321899414062 625.2339477539062 450.7104797363281 625.121337890625 450.9986572265625 625.0325927734375 L 451.2721862792969 623.4126586914062 L 451.3429260253906 622.99365234375 L 451.7679138183594 622.9959106445312 L 453.4072875976562 623.0047607421875 L 453.8271789550781 623.0070190429688 L 453.8975219726562 623.4209594726562 L 454.1753845214844 625.0557250976562 C 454.4607238769531 625.1478881835938 454.7377319335938 625.2647094726562 455.0039367675781 625.4049682617188 L 456.3505554199219 624.4473266601562 L 456.6967468261719 624.2011108398438 L 456.9956359863281 624.5029907226562 L 458.1492309570312 625.6680908203125 L 458.4447326660156 625.9664916992188 L 458.2018127441406 626.30908203125 L 457.2376403808594 627.6689453125 C 457.3725891113281 627.93310546875 457.4850158691406 628.208740234375 457.5738220214844 628.4932250976562 L 459.2107238769531 628.7691650390625 L 459.6297302246094 628.8397827148438 L 459.6276245117188 629.2647094726562 L 459.6194458007812 630.9047241210938 L 459.6173400878906 631.3247680664062 L 459.2032165527344 631.3951416015625 L 457.5591735839844 631.674560546875 C 457.46826171875 631.957763671875 457.3533325195312 632.2323608398438 457.2154541015625 632.4957275390625 L 458.1777648925781 633.847412109375 L 458.4242248535156 634.193603515625 L 458.122314453125 634.4926147460938 L 456.9570922851562 635.6467895507812 L 456.6585388183594 635.9425048828125 L 456.3158569335938 635.6993408203125 L 454.9606628417969 634.7376708984375 C 454.6940002441406 634.875732421875 454.4152526855469 634.9906005859375 454.1270141601562 635.0812377929688 L 453.8286437988281 636.7144775390625 L 453.7533569335938 637.126708984375 Z M 452.5631103515625 627.1769409179688 C 450.9815063476562 627.1769409179688 449.6883239746094 628.4637451171875 449.680419921875 630.04541015625 C 449.6763305664062 630.815673828125 449.9724731445312 631.5413818359375 450.5142822265625 632.0889282226562 C 451.0561218261719 632.636474609375 451.7786865234375 632.9402465820312 452.5488891601562 632.9442749023438 L 452.5644226074219 632.9443359375 C 454.1461486816406 632.9443359375 455.4393615722656 631.6575927734375 455.4472045898438 630.075927734375 C 455.45556640625 628.4857788085938 454.1687622070312 627.1853637695312 452.5786743164062 627.177001953125 L 452.5631103515625 627.1769409179688 Z"/><path class="f" d="M 453.3367919921875 636.6246337890625 L 453.6912231445312 634.6844482421875 C 454.1551513671875 634.569580078125 454.5938720703125 634.3873291015625 454.9926147460938 634.147216796875 L 456.605224609375 635.2915649414062 L 457.7704467773438 634.1373901367188 L 456.6238403320312 632.52685546875 C 456.8650512695312 632.1303100585938 457.0488891601562 631.6959838867188 457.1654052734375 631.2343139648438 L 459.1194458007812 630.9022216796875 L 459.1276245117188 629.26220703125 L 457.177490234375 628.9334716796875 C 457.064208984375 628.4701538085938 456.8853759765625 628.03466796875 456.6484985351562 627.6353759765625 L 457.7939453125 626.0198974609375 L 456.6403198242188 624.8547973632812 L 455.0341796875 625.9970092773438 C 454.635986328125 625.753662109375 454.2000122070312 625.5670776367188 453.7350463867188 625.4488525390625 L 453.4046020507812 623.5047607421875 L 451.7651977539062 623.4959106445312 L 451.4385986328125 625.4302368164062 C 450.9725341796875 625.5424194335938 450.5316162109375 625.7212524414062 450.1300659179688 625.9597778320312 L 448.5404052734375 624.8115844726562 L 447.3746948242188 625.9647216796875 L 448.489013671875 627.5763549804688 C 448.243896484375 627.9767456054688 448.056884765625 628.414794921875 447.9376220703125 628.8831787109375 L 446.0087890625 629.19384765625 L 446 630.8338012695312 L 447.92333984375 631.1851196289062 C 448.0371704101562 631.6532592773438 448.2192993164062 632.0936889648438 448.4611206054688 632.4973754882812 L 447.3150634765625 634.0826416015625 L 448.46826171875 635.2489624023438 L 450.0813598632812 634.1318969726562 C 450.4813232421875 634.374755859375 450.9188842773438 634.5602416992188 451.3843994140625 634.6778564453125 L 451.69677734375 636.6165161132812 L 453.3367919921875 636.6246337890625 M 452.5631408691406 626.6769409179688 C 452.5692749023438 626.6769409179688 452.5751342773438 626.6769409179688 452.581298828125 626.677001953125 C 454.449951171875 626.6868286132812 455.95703125 628.209716796875 455.9472045898438 630.0784301757812 C 455.9379577636719 631.9403076171875 454.4247131347656 633.4443359375 452.5644226074219 633.4443359375 C 452.5582885742188 633.4443359375 452.5524291992188 633.4442749023438 452.5462646484375 633.4442749023438 C 450.6776123046875 633.4344482421875 449.1705322265625 631.9114379882812 449.180419921875 630.0429077148438 C 449.1897277832031 628.1803588867188 450.7029113769531 626.6769409179688 452.5631408691406 626.6769409179688 M 453.3368530273438 637.6246337890625 C 453.3351745605469 637.6246337890625 453.3335266113281 637.6246337890625 453.3318481445312 637.6246337890625 L 451.6918334960938 637.6165161132812 C 451.2028198242188 637.6140747070312 450.7873229980469 637.2583618164062 450.7095031738281 636.7755737304688 L 450.494873046875 635.4435424804688 C 450.3790283203125 635.3992309570312 450.2645874023438 635.3511962890625 450.1517944335938 635.2994995117188 L 449.0375671386719 636.0711059570312 C 448.8651123046875 636.1904907226562 448.666259765625 636.2489624023438 448.4685974121094 636.2489624023438 C 448.2088317871094 636.2490234375 447.9509887695312 636.1480712890625 447.7571716308594 635.9520874023438 L 446.6039733886719 634.7857666015625 C 446.26025390625 634.4381103515625 446.21826171875 633.8929443359375 446.5046691894531 633.4967651367188 L 447.2900695800781 632.4103393554688 C 447.2384643554688 632.295166015625 447.190673828125 632.17822265625 447.1467895507812 632.059814453125 L 445.8203125 631.8175048828125 C 445.3432006835938 631.7303466796875 444.9974060058594 631.3134155273438 445 630.8284301757812 L 445.0087890625 629.1884765625 C 445.0114135742188 628.6995849609375 445.3671264648438 628.2843017578125 445.8497924804688 628.20654296875 L 447.1730651855469 627.993408203125 C 447.2183227539062 627.8755493164062 447.2674865722656 627.7592163085938 447.3204345703125 627.6445922851562 L 446.5521545410156 626.533447265625 C 446.2762756347656 626.1343994140625 446.3265380859375 625.594970703125 446.6714172363281 625.2537841796875 L 447.8371276855469 624.1006469726562 C 448.0303955078125 623.9094848632812 448.2847900390625 623.8115844726562 448.5406799316406 623.8115844726562 C 448.7449035644531 623.8115844726562 448.9500732421875 623.8739013671875 449.1259460449219 624.0009155273438 L 450.2193603515625 624.7907104492188 C 450.3297119140625 624.741943359375 450.4417419433594 624.6965942382812 450.5553894042969 624.65478515625 L 450.7791748046875 623.3294067382812 C 450.8604431152344 622.8479614257812 451.2774353027344 622.4959106445312 451.76513671875 622.4959106445312 C 451.7669677734375 622.4959106445312 451.7687683105469 622.4959106445312 451.7705993652344 622.4959106445312 L 453.4100036621094 622.5047607421875 C 453.8955688476562 622.5073852539062 454.30908203125 622.8584594726562 454.3904724121094 623.3372192382812 L 454.6191101074219 624.682373046875 C 454.7332153320312 624.7261352539062 454.845947265625 624.7736206054688 454.9571533203125 624.82470703125 L 456.0607604980469 624.0398559570312 C 456.2354431152344 623.9156494140625 456.4382629394531 623.8547973632812 456.6400146484375 623.8547973632812 C 456.8993835449219 623.8547973632812 457.1570129394531 623.9553833007812 457.3509216308594 624.1511840820312 L 458.5045471191406 625.3162841796875 C 458.8462524414062 625.661376953125 458.8905944824219 626.2021484375 458.6096801757812 626.5982666015625 L 457.8152770996094 627.7186889648438 C 457.8637084960938 627.8275146484375 457.9087524414062 627.9378662109375 457.9503479003906 628.0496215820312 L 459.2938537597656 628.276123046875 C 459.7770385742188 628.3575439453125 460.1300659179688 628.7771606445312 460.1276245117188 629.2672119140625 L 460.1194458007812 630.9072265625 C 460.1170043945312 631.3929443359375 459.765869140625 631.8067016601562 459.2869873046875 631.8880615234375 L 457.9331359863281 632.1181640625 C 457.890625 632.2294921875 457.8446350097656 632.3395385742188 457.7952270507812 632.4479370117188 L 458.5850830078125 633.5574340820312 C 458.8692932128906 633.9566650390625 458.8223571777344 634.5029907226562 458.4741821289062 634.8478393554688 L 457.3089599609375 636.0020141601562 C 457.11572265625 636.1934204101562 456.8611145019531 636.2915649414062 456.6049194335938 636.2915649414062 C 456.4034118652344 636.2915649414062 456.2009582519531 636.2308959960938 456.0264892578125 636.1071166992188 L 454.9121398925781 635.3163452148438 C 454.798583984375 635.3674926757812 454.6832580566406 635.4149780273438 454.5663452148438 635.4586791992188 L 454.3205261230469 636.8043212890625 C 454.2336730957031 637.2796020507812 453.8195190429688 637.6246337890625 453.3368530273438 637.6246337890625 Z M 452.5631103515625 627.6769409179688 C 451.2558288574219 627.6769409179688 450.1869506835938 628.7405395507812 450.180419921875 630.0479125976562 C 450.1770324707031 630.6847534179688 450.4218444824219 631.2846069335938 450.8696899414062 631.7372436523438 C 451.3175964355469 632.1898193359375 451.9148559570312 632.44091796875 452.551513671875 632.4442749023438 L 452.5644226074219 632.4443359375 C 453.871826171875 632.4443359375 454.9407348632812 631.3807373046875 454.9472045898438 630.073486328125 C 454.9541320800781 628.7588500976562 453.8904113769531 627.6838989257812 452.5760498046875 627.677001953125 L 452.5631103515625 627.6769409179688 Z"/></g></g></g></svg>