<svg xmlns="http://www.w3.org/2000/svg" width="33" height="33" viewBox="0 0 33 33"><defs><style>.a{fill:#d2e1ef;stroke:#95b1d6;}.b{fill:#345ea1;}</style></defs><g transform="translate(-1312.5 -944.5)"><g transform="translate(-0.5)"><circle class="a" cx="16" cy="16" r="16" transform="translate(1313.5 945)"/><g transform="translate(1318 946)"><path class="b" d="M35.4,24a5.4,5.4,0,1,0,5.4,5.4A5.4,5.4,0,0,0,35.4,24Zm2.7,6.078H36.078V32.1a.675.675,0,0,1-1.351,0V30.078H32.7a.675.675,0,0,1,0-1.351h2.026V26.7a.675.675,0,0,1,1.351,0v2.026H38.1a.675.675,0,0,1,0,1.351Z" transform="translate(-18.546 -10.598)"/><path class="b" d="M10.1,18.8a6.753,6.753,0,0,1,9.454-6.179v-2.6H8.753V8H2V21.607a.574.574,0,0,0,.574.574h8.441A6.688,6.688,0,0,1,10.1,18.8Z"/></g></g></g></svg>