<svg xmlns="http://www.w3.org/2000/svg" width="33" height="33" viewBox="0 0 33 33"><defs><style>.a{fill:#d2e1ef;stroke:#95b1d6;}.b{fill:#335ca5;}</style></defs><g transform="translate(-769.5 -559.319)"><g transform="translate(-850 73)"><g transform="translate(1620 486.819)"><circle class="a" cx="16" cy="16" r="16" transform="translate(0)"/></g></g><path class="b" d="M1104.706,843.769a11.272,11.272,0,0,0-.938-1.311,6.3,6.3,0,0,1-1.713-4.524c0-4.64-1.42-7.479-4.224-8.443a2.061,2.061,0,0,0-4.083,0c-2.8.964-4.225,3.8-4.225,8.443a6.447,6.447,0,0,1-1.726,4.528,12.135,12.135,0,0,0-.926,1.307,1.45,1.45,0,0,0,1.243,2.189h4.081a3.641,3.641,0,0,0,7.173,0h4.08a1.452,1.452,0,0,0,1.243-2.189Zm-5.326.265h-1.6l-.285,1.583a1.73,1.73,0,0,1-3.408,0l-.285-1.583h-4.791c.1-.125.2-.25.3-.386a8.35,8.35,0,0,0,2.132-5.713,11.35,11.35,0,0,1,.686-4.33c.026-.07.053-.137.082-.205.02-.044.036-.1.057-.145h.015a3.791,3.791,0,0,1,6.843-.341h.01a9.959,9.959,0,0,1,1.007,5.024,8.209,8.209,0,0,0,2.137,5.736c.1.125.194.244.285.364Z" transform="translate(-309.81 -263.104)"/></g></svg>