<svg xmlns="http://www.w3.org/2000/svg" width="33" height="33" viewBox="0 0 33 33">
  <g id="location-update" transform="translate(-1619.5 -486.318)">
    <g id="Group_6509" data-name="Group 6509">
      <g id="Group_6511" data-name="Group 6511">
        <g id="Group_1221" data-name="Group 1221" transform="translate(1620 486.819)">
          <circle id="Ellipse_39" data-name="Ellipse 39" cx="16" cy="16" r="16" transform="translate(0)" fill="#d2e1ef" stroke="#95b1d6" stroke-width="1"/>
        </g>
        <g id="Group_167155" data-name="Group 167155" transform="translate(11262.76 -11542.767)">
          <g id="Group_119" data-name="Group 119" transform="translate(-9629.263 12036.333)">
            <path id="Path_52" data-name="Path 52" d="M12.681,18a4.192,4.192,0,0,1-3.024-1.232,1.184,1.184,0,0,1,0-1.6h0a1.2,1.2,0,0,1,1.6,0h0a2.192,2.192,0,0,0,3.072-.192l3.616-3.6A2.5,2.5,0,0,0,18.761,9.6a1.872,1.872,0,0,0-.56-1.36,1.936,1.936,0,0,0-1.408-.56,2.432,2.432,0,0,0-1.6.752l-2.144,2.064c-.48-.48-2.464-.832-3.008-.3l3.424-3.408a4.7,4.7,0,0,1,3.2-1.44A4.272,4.272,0,0,1,21.1,9.6a4.8,4.8,0,0,1-1.44,3.376l-3.616,3.6A4.672,4.672,0,0,1,12.681,18Z" transform="translate(-9.346 -5.338)" fill="#335ca5"/>
          </g>
          <g id="Group_120" data-name="Group 120" transform="translate(-9636.008 12042.192)">
            <path id="Path_53" data-name="Path 53" d="M13.578,9a4.256,4.256,0,0,1,3.008,1.232,1.152,1.152,0,0,1,0,1.6h0a1.152,1.152,0,0,1-1.6,0h0a2.208,2.208,0,0,0-3.088.208L8.25,15.64A2.48,2.48,0,0,0,7.5,17.352a1.872,1.872,0,0,0,.56,1.376,1.92,1.92,0,0,0,1.472.56,2.592,2.592,0,0,0,1.6-.752l2.064-2.064c.48.48,2.464.832,3.008.288L12.794,20.2a4.9,4.9,0,0,1-3.2,1.44A4.272,4.272,0,0,1,5.13,17.368a4.8,4.8,0,0,1,1.44-3.36L10.2,10.376A4.8,4.8,0,0,1,13.578,9Z" transform="translate(-5.13 -9)" fill="#335ca5"/>
          </g>
        </g>
      </g>
    </g>
  </g>
</svg>
