<svg xmlns="http://www.w3.org/2000/svg" width="33" height="33" viewBox="0 0 33 33"><defs><style>.a{fill:#d2e1ef;stroke:#95b1d6;}.b{fill:#345ea1;}</style></defs><g transform="translate(-1619.455 -421.319)"><g transform="translate(1619.955 421.819)"><circle class="a" cx="16" cy="16" r="16" transform="translate(0)"/></g><g transform="translate(193.733 -222.106)"><path class="b" d="M1440.991,652.106v2.542a5.231,5.231,0,0,0-2.234,1.112,5.145,5.145,0,0,0-1.221,1.818,7.019,7.019,0,0,0-.457,2.69,3.44,3.44,0,0,1,2.8,1.072,3.512,3.512,0,0,1,.894,2.283,3.373,3.373,0,0,1-3.316,3.356,3.738,3.738,0,0,1-2.949-1.479,6.092,6.092,0,0,1-1.241-4.041,9.463,9.463,0,0,1,.973-4.239,10.24,10.24,0,0,1,2.651-3.375A7.97,7.97,0,0,1,1440.991,652.106Zm9.967,0v2.542a5.228,5.228,0,0,0-2.234,1.112,5.137,5.137,0,0,0-1.221,1.818,7.034,7.034,0,0,0-.457,2.69,3.419,3.419,0,0,1,2.77,1.072,3.489,3.489,0,0,1,.9,2.283,3.356,3.356,0,0,1-3.316,3.356,3.728,3.728,0,0,1-2.958-1.479,6.127,6.127,0,0,1-1.231-4.041,9.464,9.464,0,0,1,.973-4.239,10.162,10.162,0,0,1,2.66-3.375A8.026,8.026,0,0,1,1450.958,652.106Z" transform="translate(0 0)"/></g></g></svg>