<svg xmlns="http://www.w3.org/2000/svg" width="33" height="33" viewBox="0 0 33 33"><defs><style>.a{fill:#d2e1ef;stroke:#95b1d6;}.b{fill:#335ca5;}</style></defs><g transform="translate(-769.5 -559.319)"><g transform="translate(-850 73)"><g transform="translate(1620 486.819)"><circle class="a" cx="16" cy="16" r="16" transform="translate(0)"/></g></g><g transform="translate(690.344 176.133)"><g transform="translate(11.504 371.127)"><path class="b" d="M86.316,19.2v3.844h3.93Z"/><path class="b" d="M85.008,24.327l0-5.768h-7.86V36.245H90.908V24.327ZM84.03,33.78a4.134,4.134,0,1,1,4.134-4.134A4.134,4.134,0,0,1,84.03,33.78Z"/><path class="b" d="M85.8,29.351H84.62V27.579a.591.591,0,0,0-1.181,0v2.953H85.8a.591.591,0,0,0,0-1.181Z"/></g></g></g></svg>