<svg xmlns="http://www.w3.org/2000/svg" width="24" height="24" viewBox="0 0 24 24"><defs><style>.a{fill:#fff;}</style></defs><path class="a" d="M1565.1,345.712a12,12,0,1,0,12,12A12,12,0,0,0,1565.1,345.712Zm2.5,18.6c-.619.244-1.109.428-1.479.556a3.9,3.9,0,0,1-1.281.193,2.552,2.552,0,0,1-1.744-.548,1.768,1.768,0,0,1-.621-1.389,5.05,5.05,0,0,1,.045-.669c.032-.227.081-.483.151-.771l.772-2.731c.069-.263.127-.511.173-.744a3.281,3.281,0,0,0,.069-.643.993.993,0,0,0-.215-.728,1.222,1.222,0,0,0-.825-.2,2.177,2.177,0,0,0-.615.091c-.21.064-.39.123-.539.179l.205-.841c.505-.205.989-.383,1.452-.528a4.3,4.3,0,0,1,1.311-.221,2.5,2.5,0,0,1,1.719.539,1.785,1.785,0,0,1,.6,1.4c0,.119-.015.328-.043.627a4.083,4.083,0,0,1-.155.824l-.768,2.723a7.648,7.648,0,0,0-.171.748,3.951,3.951,0,0,0-.073.636.911.911,0,0,0,.242.739,1.362,1.362,0,0,0,.84.2,2.424,2.424,0,0,0,.636-.1,3.765,3.765,0,0,0,.515-.172Zm-.136-11.051a1.935,1.935,0,0,1-2.6,0,1.593,1.593,0,0,1-.542-1.212,1.612,1.612,0,0,1,.542-1.216,1.923,1.923,0,0,1,2.6,0,1.617,1.617,0,0,1,.539,1.216A1.6,1.6,0,0,1,1567.46,353.26Z" transform="translate(-1553.098 -345.712)"/></svg>