<svg xmlns="http://www.w3.org/2000/svg" width="18" height="18" viewBox="0 0 18 18"><defs><style>.a{fill:#333;}</style></defs><path class="a" d="M1562.1,345.712a9,9,0,1,0,9,9A9,9,0,0,0,1562.1,345.712Zm1.874,13.949c-.464.183-.832.321-1.109.417a2.925,2.925,0,0,1-.961.145,1.913,1.913,0,0,1-1.308-.411,1.326,1.326,0,0,1-.466-1.042,3.778,3.778,0,0,1,.034-.5c.024-.17.061-.362.113-.578l.579-2.048q.078-.3.13-.558a2.47,2.47,0,0,0,.052-.482.745.745,0,0,0-.161-.546.917.917,0,0,0-.619-.153,1.633,1.633,0,0,0-.461.068c-.157.048-.292.092-.4.134l.154-.631c.379-.154.742-.287,1.089-.4a3.226,3.226,0,0,1,.983-.166,1.877,1.877,0,0,1,1.289.4,1.339,1.339,0,0,1,.453,1.048c0,.089-.011.246-.032.47a3.065,3.065,0,0,1-.116.618l-.576,2.042a5.752,5.752,0,0,0-.128.561,2.975,2.975,0,0,0-.055.477.683.683,0,0,0,.182.554,1.021,1.021,0,0,0,.63.148,1.815,1.815,0,0,0,.477-.074,2.814,2.814,0,0,0,.386-.129Zm-.1-8.288a1.451,1.451,0,0,1-1.947,0,1.2,1.2,0,0,1-.407-.909,1.209,1.209,0,0,1,.407-.912,1.443,1.443,0,0,1,1.947,0,1.214,1.214,0,0,1,.4.912A1.2,1.2,0,0,1,1563.87,351.373Z" transform="translate(-1553.098 -345.712)"/></svg>