<svg xmlns="http://www.w3.org/2000/svg" width="22" height="20.639" viewBox="0 0 22 20.639"><defs><style>.a{fill:#333;}</style></defs><g transform="translate(-1552.422 -379.224)"><path class="a" d="M1574.422,394.686V393.21l-1.684-.287a4.347,4.347,0,0,0-.462-1.166l.981-1.459-1-1.044-1.381,1.036a4,4,0,0,0-1.123-.488l-.293-1.748h-1.415l-.272,1.743a3.974,3.974,0,0,0-1.127.483l-1.376-1.027-1,1.044.968,1.445a4.394,4.394,0,0,0-.47,1.179l-1.662.289v1.476l1.661.307a4.344,4.344,0,0,0,.469,1.178l-.981,1.433,1,1.044,1.386-1.013a4,4,0,0,0,1.126.485l.278,1.743h1.415l.3-1.748a3.961,3.961,0,0,0,1.12-.489l1.4,1.022,1-1.044-1-1.444a4.371,4.371,0,0,0,.461-1.166Zm-5.658,1.637a2.366,2.366,0,1,1,2.265-2.364A2.317,2.317,0,0,1,1568.764,396.323Z"/><path class="a" d="M1563.136,398.674a1.548,1.548,0,0,1-.158-1.946l.3-.436-.453-.084a1.548,1.548,0,0,1-1.266-1.523V393.21a1.548,1.548,0,0,1,1.283-1.526l.443-.077-.3-.448a1.549,1.549,0,0,1,.168-1.934l1-1.043c.03-.031.064-.053.1-.081a8.1,8.1,0,0,0,1.177-4.053,4.438,4.438,0,0,0-4.55-4.824c-2.447,0-4.54,1.659-4.54,4.824a8.179,8.179,0,0,0,2.228,5.461c.494,1.3-.39,1.779-.575,1.847-2.562.926-5.566,2.614-5.566,4.281v.625c0,2.271,4.4,2.787,8.477,2.787.843,0,1.693-.027,2.518-.082Z"/></g></svg>