<svg xmlns="http://www.w3.org/2000/svg" width="26" height="24.392" viewBox="0 0 26 24.392"><defs><style>.a{fill:#fff;}</style></defs><g transform="translate(-1552.422 -379.224)"><g transform="translate(1552.422 379.224)"><path class="a" d="M1576.255,395.76v-1.715l-1.957-.333a5.051,5.051,0,0,0-.537-1.355l1.14-1.7-1.162-1.213-1.6,1.2a4.642,4.642,0,0,0-1.3-.567l-.341-2.031h-1.644l-.316,2.025a4.616,4.616,0,0,0-1.309.561l-1.6-1.193-1.162,1.213,1.125,1.679a5.107,5.107,0,0,0-.546,1.37l-1.931.336v1.715l1.93.357a5.048,5.048,0,0,0,.545,1.369l-1.14,1.665,1.162,1.213,1.611-1.177a4.653,4.653,0,0,0,1.308.564l.323,2.025h1.644l.345-2.031a4.6,4.6,0,0,0,1.3-.568l1.622,1.188,1.162-1.213-1.157-1.678a5.083,5.083,0,0,0,.536-1.355Zm-6.575,1.9a2.75,2.75,0,1,1,2.632-2.747A2.693,2.693,0,0,1,1569.681,397.663Z" transform="translate(-1550.255 -377.385)"/><path class="a" d="M1564.872,402.226a1.856,1.856,0,0,1-.184-2.3l.347-.516-.526-.1a1.823,1.823,0,0,1-1.471-1.8v-1.744a1.822,1.822,0,0,1,1.491-1.8l.515-.091-.349-.53a1.857,1.857,0,0,1,.2-2.287l1.162-1.233c.035-.037.074-.063.112-.1a9.7,9.7,0,0,0,1.368-4.793c0-3.743-2.445-5.705-5.287-5.705s-5.276,1.962-5.276,5.705a9.761,9.761,0,0,0,2.589,6.458c.574,1.534-.453,2.1-.668,2.184-2.977,1.1-6.468,3.091-6.468,5.063v.739c0,2.686,5.115,3.3,9.85,3.3.979,0,1.967-.032,2.926-.1Z" transform="translate(-1552.422 -379.224)"/></g></g></svg>