<svg xmlns="http://www.w3.org/2000/svg" width="30.75" height="30.747" viewBox="0 0 30.75 30.747"><defs><style>.a{fill:none;stroke:#fff;stroke-linecap:round;stroke-linejoin:round;stroke-width:1.5px;}.b{fill:#fff;}</style></defs><g transform="translate(-79.69 -34.707)"><path class="a" d="M100.211,55.6l5.1,5.1"/><path class="a" d="M100.211,60.7l5.1-5.1"/><circle class="a" cx="7" cy="7" r="7" transform="translate(95.69 50.704)"/><path class="b" d="M100.417,47.712a10.251,10.251,0,0,1,2.273-.262c.085,0,.167.011.251.013.045,0,.088-.01.133-.01v-8.5a1.062,1.062,0,0,0-1.062-1.062H98.823v2.127h1.594Z"/><path class="b" d="M93.289,61.794H82.347V40.018h1.6V37.894H80.753a1.061,1.061,0,0,0-1.063,1.061h0V63.388a1.062,1.062,0,0,0,1.062,1.062H94.981A10.255,10.255,0,0,1,93.289,61.794Z"/><path class="b" d="M96.7,37.894a1.062,1.062,0,0,0-1.062-1.062H93.99a2.658,2.658,0,0,0-5.208,0H87.13a1.061,1.061,0,0,0-1.062,1.062v2.124H96.7Z"/><path class="b" d="M92.837,54.888H87.2a1.062,1.062,0,0,0,0,2.124h5.273A10.256,10.256,0,0,1,92.837,54.888Z"/><path class="b" d="M87.193,44.274a1.062,1.062,0,1,0,0,2.124h8.38a1.062,1.062,0,1,0,0-2.124Z"/><path class="b" d="M96,49.688a.986.986,0,0,0-.432-.108h-8.38a1.062,1.062,0,1,0,0,2.124h6.962A10.483,10.483,0,0,1,96,49.688Z"/></g></svg>