<svg xmlns="http://www.w3.org/2000/svg" width="24" height="24" viewBox="0 0 24 24"><defs><style>.a{fill:#fff;}</style></defs><path class="a" d="M1788.392,9.9a12,12,0,1,0,12,12A12,12,0,0,0,1788.392,9.9Zm1.251,19.13h-2.513V26.514h2.513Zm2.852-8.609a7.778,7.778,0,0,1-1.641,1.846,7.451,7.451,0,0,0-.975.971,1.953,1.953,0,0,0-.3.645,6.124,6.124,0,0,0-.121,1.306l-.006.337h-2.212l-.008-.334c-.006-.217-.009-.38-.009-.49a4.854,4.854,0,0,1,.291-1.756,4.052,4.052,0,0,1,.689-1.136,12.142,12.142,0,0,1,1.191-1.157,4.95,4.95,0,0,0,1.012-1.086,1.554,1.554,0,0,0,.2-.784,1.876,1.876,0,0,0-.626-1.4,2.129,2.129,0,0,0-1.554-.612,2.062,2.062,0,0,0-1.477.549,3.064,3.064,0,0,0-.8,1.807l-.051.327-2.318-.276.041-.341a4.264,4.264,0,0,1,4.574-4.071,4.7,4.7,0,0,1,3.288,1.133,3.639,3.639,0,0,1,1.253,2.775A3.544,3.544,0,0,1,1792.5,20.418Z" transform="translate(-1776.392 -9.897)"/></svg>