<svg xmlns="http://www.w3.org/2000/svg" width="28" height="27" viewBox="0 0 28 27"><defs><style>.a{fill:#fff;}</style></defs><g transform="translate(-0.456 -1.1)"><path class="a" d="M28.236,15.725l-3.553-3.776V5.813a.493.493,0,0,0-.444-.53H21.13a.493.493,0,0,0-.444.53V7.7l-6.21-6.6L.707,15.187A.9.9,0,0,0,.6,16.3a.6.6,0,0,0,.936.126c.013-.013.027-.026.04-.041L14.458,3.216l12.89,13.693a.594.594,0,0,0,.94-.069A.905.905,0,0,0,28.236,15.725Z" transform="translate(0)"/><path class="a" d="M9,18.654V31.482a.422.422,0,0,0,.413.431h5.363a.422.422,0,0,0,.413-.431V23.288a.422.422,0,0,1,.413-.431h5.775a.422.422,0,0,1,.413.431v8.194a.422.422,0,0,0,.413.431h5.363a.422.422,0,0,0,.413-.431V18.974L18.488,9.1Z" transform="translate(-4.019 -3.814)"/></g></svg>