<svg xmlns="http://www.w3.org/2000/svg" width="32" height="27.429" viewBox="0 0 32 27.429"><defs><style>.a,.c,.d{fill:#ebeded;}.a,.b,.c{stroke:#fff;stroke-miterlimit:10;}.a{opacity:0.545;}.b,.f{fill:none;}.b{stroke-width:1.822px;}.e,.g{stroke:none;}.g{fill:#fff;}</style></defs><g transform="translate(-111.97 -699.04)"><g class="a" transform="translate(123.985 709.92)"><rect class="e" width="12.645" height="9.274"/><rect class="f" x="0.5" y="0.5" width="11.645" height="8.274"/></g><g class="b" transform="translate(114.055 701.225)"><rect class="e" width="27.713" height="23.063"/><rect class="f" x="0.911" y="0.911" width="25.891" height="21.241"/></g><g class="c" transform="translate(111.97 699.04)"><rect class="e" width="5.359" height="5.242"/><rect class="f" x="0.5" y="0.5" width="4.359" height="4.242"/></g><g class="c" transform="translate(111.97 721.227)"><rect class="e" width="5.359" height="5.242"/><rect class="f" x="0.5" y="0.5" width="4.359" height="4.242"/></g><g class="c" transform="translate(138.611 699.04)"><rect class="e" width="5.359" height="5.242"/><rect class="f" x="0.5" y="0.5" width="4.359" height="4.242"/></g><g class="c" transform="translate(138.611 721.227)"><rect class="e" width="5.359" height="5.242"/><rect class="f" x="0.5" y="0.5" width="4.359" height="4.242"/></g><g class="d" transform="translate(118.615 706.795)"><path class="e" d="M 12.1445426940918 8.773558616638184 L 0.5000023245811462 8.773558616638184 L 0.5000023245811462 0.4999988377094269 L 12.1445426940918 0.4999988377094269 L 12.1445426940918 8.773558616638184 Z"/><path class="g" d="M 1.000001907348633 0.9999990463256836 L 1.000001907348633 8.273558616638184 L 11.6445426940918 8.273558616638184 L 11.6445426940918 0.9999990463256836 L 1.000001907348633 0.9999990463256836 M 1.9073486328125e-06 -9.5367431640625e-07 L 12.6445426940918 -9.5367431640625e-07 L 12.6445426940918 9.273558616638184 L 1.9073486328125e-06 9.273558616638184 L 1.9073486328125e-06 -9.5367431640625e-07 Z"/></g></g></svg>