<svg xmlns="http://www.w3.org/2000/svg" width="30" height="29.294" viewBox="0 0 30 29.294"><defs><style>.a{fill:#fff;}</style></defs><g transform="translate(-310.913 -699.192)"><g transform="translate(310.913 699.192)"><path class="a" d="M350.742,735.128l-1.716-1.75-3.483,3.523,1.411.3.282,1.48Z" transform="translate(-326.631 -714.655)"/><path class="a" d="M326.233,721.96a2.024,2.024,0,0,1,.59-.94l8.32-8.375a2.65,2.65,0,0,1,1.431-.765V699.192l-6.909,3.023-5.921-3.023-6.909,3.023-5.921-3.023V722.37l5.921,3.023,1.013-.443h0l5.9-2.58,2.07,1.057Zm-13.346-19.506,3.065,1.565.819.419.842-.37,6.067-2.654,5.1,2.605.819.419.841-.37,4.157-1.818v2.368l-5.193,2.515-6.172-.421-3.712,3.282-6.635-3.764Zm0,4.929,5.841,3.314-2.831,2.5-3.01,2.517Zm10.856,9.729c-2.134,0-4.834.843-5.661,5.542l-1.184.518-4.011-2.048v-1.5l4.916-4.112,6.449-5.7,5.727.39,4.621-2.239v3.287a7.167,7.167,0,0,0-4.935,2.051c-2.779.158-2.227,2.874-3.947,3.863C324.7,717.748,324.279,717.112,323.743,717.112Z" transform="translate(-310.913 -699.192)"/></g><g transform="translate(326.132 713.4)"><path class="a" d="M358.8,726.663l-1.906-1.942a1.318,1.318,0,0,0-1.893-.01l-1.533,1.568,3.808,3.888,1.534-1.569A1.387,1.387,0,0,0,358.8,726.663Z" transform="translate(-344.413 -724.314)"/><path class="a" d="M340.079,735.85a.554.554,0,0,0-.189.273l-1.327,4.618a.579.579,0,0,0,.141.566.56.56,0,0,0,.4.167.542.542,0,0,0,.158-.023l4.526-1.357a.549.549,0,0,0,.257-.176l6.208-6.28-3.976-4.056Zm.6,3.982-.531-.542.753-2.615,1.926.4.38,2Z" transform="translate(-338.539 -726.388)"/></g></g></svg>