<svg xmlns="http://www.w3.org/2000/svg" width="32" height="25.337" viewBox="0 0 32 25.337"><defs><style>.a{fill:#fff;}</style></defs><g transform="translate(-1056.387 -645.029)"><g transform="translate(1395.799 1043.016)"><circle class="a" cx="0.848" cy="0.848" r="0.848" transform="translate(-336.926 -395.551)"/><circle class="a" cx="0.848" cy="0.848" r="0.848" transform="translate(-334.126 -395.551)"/><circle class="a" cx="0.848" cy="0.848" r="0.848" transform="translate(-331.193 -395.551)"/><path class="a" d="M-324.889-371.263a5.734,5.734,0,0,1-5.726-5.726,5.734,5.734,0,0,1,5.446-5.719,7.267,7.267,0,0,1,9.388-3.2,7.229,7.229,0,0,1,4.031,4.759,4.97,4.97,0,0,1,5.323,3.61,4.965,4.965,0,0,1-3.461,6.1,4.959,4.959,0,0,1-1.2.179Zm0-9.963a4.241,4.241,0,0,0-4.238,4.238,4.243,4.243,0,0,0,4.238,4.238h13.8a3.47,3.47,0,0,0,.819-.124,3.475,3.475,0,0,0,2.419-4.27,3.474,3.474,0,0,0-4.27-2.419.746.746,0,0,1-.6-.09.745.745,0,0,1-.331-.512,5.749,5.749,0,0,0-3.332-4.382,5.777,5.777,0,0,0-7.632,2.889.746.746,0,0,1-.678.438Z" transform="translate(-1.165 -1.388)"/><path class="a" d="M-334.869-377.77h-3.051v-14.151h23.31v2.135a10.576,10.576,0,0,1,1.455.95l.029-8.45a.722.722,0,0,0-.744-.7h-24.8a.722.722,0,0,0-.744.7v20.217a.723.723,0,0,0,.744.7h4.037l-.168-.755Zm-3.051-18.821h23.31v3.266h-23.31Z"/></g></g></svg>