<svg xmlns="http://www.w3.org/2000/svg" width="29.5" height="27.633" viewBox="0 0 29.5 27.633"><defs><style>.a{fill:none;stroke:#fff;stroke-linecap:round;stroke-linejoin:round;stroke-width:1.5px;}.b{fill:#fff;}</style></defs><g transform="translate(-2.25 -4.476)"><g transform="translate(3 5.226)"><path class="a" d="M17.867,10H30V33.32H2V10H14.133" transform="translate(-2 -7.186)"/><path class="a" d="M28,4h3.751V9.627H28Z" transform="translate(-15.876 -4)"/><path class="a" d="M38,24h7.5M38,27.751h4.689M38,31.5h6.565" transform="translate(-21.254 -12.685)"/><circle class="b" cx="3" cy="3" r="3" transform="translate(6 9.189)"/><path class="b" d="M173.045,51.46c-1.447-1.552-4.53-1.6-4.857-1.6h-.033c-.326,0-3.41.052-4.857,1.6a3.392,3.392,0,0,0-1.109,2.774c.029.265.147.261.3.261h11.366c.153,0,.27,0,.3-.261A3.392,3.392,0,0,0,173.045,51.46Z" transform="translate(-159.171 -33.856)"/></g></g></svg>