<svg xmlns="http://www.w3.org/2000/svg" width="28" height="28" viewBox="0 0 28 28"><defs><style>.a{fill:#fff;}</style></defs><g transform="translate(-2 -2)"><path class="a" d="M30,24.4H28.133V2.933a.933.933,0,1,0-1.867,0V24.4H24.4v3.733h1.867v.933a.933.933,0,1,0,1.867,0v-.933H30ZM5.733,2.933a.933.933,0,1,0-1.867,0V6.667H2V10.4H3.867V29.067a.933.933,0,1,0,1.867,0V10.4H7.6V6.667H5.733Z"/><path class="a" d="M29.869,2.933a.968.968,0,0,0-1.935,0V13.2H26v3.733h1.935V29.067a.968.968,0,0,0,1.935,0V16.933H31.8V13.2H29.869Z" transform="translate(-12.902)"/></g></svg>