<svg xmlns="http://www.w3.org/2000/svg" width="26" height="21.819" viewBox="0 0 26 21.819"><defs><style>.a{fill:#345ea1;}</style></defs><g transform="translate(-548.383 -496.675)"><g transform="translate(-6.849 38.862)"><path class="a" d="M575.329,463.477a3.177,3.177,0,1,1,.013,4.492l-.013-.012a3.19,3.19,0,0,1,0-4.48" transform="translate(0.473)"/><path class="a" d="M565.737,458.751a3.177,3.177,0,1,1,.014,4.492l-.014-.013a3.189,3.189,0,0,1,0-4.479" transform="translate(0.236)"/><path class="a" d="M556.151,463.477a3.177,3.177,0,1,1,.012,4.492l-.012-.012a3.188,3.188,0,0,1,0-4.48"/><path class="a" d="M571.437,471.831a4.983,4.983,0,0,1,.476.56l3.64-3.625a3.7,3.7,0,0,1-.571-.465,3.788,3.788,0,0,1-.467-.568l-3.64,3.625a4.777,4.777,0,0,1,.561.473" transform="translate(0.355)"/><path class="a" d="M567.988,470.411a4.763,4.763,0,0,1,.685.053V464.58a3.665,3.665,0,0,1-1.468-.021v5.917a4.9,4.9,0,0,1,.784-.067" transform="translate(0.235)"/><path class="a" d="M564.062,472.391a4.787,4.787,0,0,1,.476-.56,5.067,5.067,0,0,1,.56-.474l-3.64-3.625a3.677,3.677,0,0,1-1.038,1.034Z" transform="translate(0.118)"/><path class="a" d="M571.094,472.16a4.381,4.381,0,1,0-.012,6.2l.012-.012a4.4,4.4,0,0,0,0-6.183m-.863,5.323a3.148,3.148,0,1,1,.928-2.232,3.148,3.148,0,0,1-.928,2.232" transform="translate(0.236)"/></g></g></svg>