<svg id="Layer_1" data-name="Layer 1" xmlns="http://www.w3.org/2000/svg" viewBox="0 0 41 35"><defs><style>.cls-1{fill:#333;}.cls-2{fill:#8c8c8c;}</style></defs><title>generic-assets-icon</title><path class="cls-1" d="M37.78,9.65a5.11,5.11,0,0,1,7.22,0,5.06,5.06,0,0,1,0,7.19,5.09,5.09,0,0,1-7.22-7.19" transform="translate(-5.5 -0.57)"/><path class="cls-1" d="M22.39,2.06a5.09,5.09,0,1,1,0,7.19,5.11,5.11,0,0,1,0-7.19" transform="translate(-5.5 -0.57)"/><path class="cls-1" d="M7,9.65a5.09,5.09,0,1,1,0,7.19A5.1,5.1,0,0,1,7,9.65" transform="translate(-5.5 -0.57)"/><path class="cls-2" d="M31.54,23.06a8,8,0,0,1,.76.9l5.85-5.82a5.49,5.49,0,0,1-.92-.75,6,6,0,0,1-.75-.91L30.64,22.3a8,8,0,0,1,.9.76" transform="translate(-5.5 -0.57)"/><path class="cls-2" d="M26,20.78a6.8,6.8,0,0,1,1.1.09V11.42a5.77,5.77,0,0,1-1.1.1,6.57,6.57,0,0,1-1.26-.13v9.5A7.66,7.66,0,0,1,26,20.78" transform="translate(-5.5 -0.57)"/><path class="cls-2" d="M19.7,24a8,8,0,0,1,.76-.9,9.06,9.06,0,0,1,.9-.76l-5.84-5.82a6,6,0,0,1-.75.91,5.49,5.49,0,0,1-.92.75Z" transform="translate(-5.5 -0.57)"/><path class="cls-1" d="M31,23.59a7.06,7.06,0,0,0-10,0,7,7,0,0,0,0,9.93,7.06,7.06,0,0,0,10,0,7,7,0,0,0,0-9.93M29.6,32.14a5.12,5.12,0,0,1-7.2,0,5.09,5.09,0,1,1,7.2,0" transform="translate(-5.5 -0.57)"/></svg>