<svg xmlns="http://www.w3.org/2000/svg" width="20" height="20" viewBox="0 0 20 20"><defs><style>.a{fill:#afafaf;}</style></defs><path class="a" d="M506,287.416v-2.5l-2.976-.486a7.212,7.212,0,0,0-.817-1.974l1.734-2.471-1.768-1.767-2.44,1.754a7.153,7.153,0,0,0-1.984-.826l-.519-2.961h-2.5l-.482,2.951a7.2,7.2,0,0,0-1.99.818l-2.433-1.738-1.768,1.767,1.711,2.447a7.274,7.274,0,0,0-.83,2l-2.938.489v2.5l2.935.52a7.171,7.171,0,0,0,.83,2l-1.735,2.426,1.768,1.769,2.45-1.716a7.262,7.262,0,0,0,1.99.822l.492,2.952h2.5l.525-2.96a7.21,7.21,0,0,0,1.98-.83l2.467,1.732,1.768-1.769-1.761-2.445a7.182,7.182,0,0,0,.815-1.975Zm-9.965,4.078a5.23,5.23,0,1,1,5.23-5.23A5.23,5.23,0,0,1,496.035,291.494Z" transform="translate(-486 -276.185)"/></svg>