<svg xmlns="http://www.w3.org/2000/svg" width="33" height="33" viewBox="0 0 33 33">
  <g id="description-update" transform="translate(-769.5 -559.319)">
    <g id="Group_6520" data-name="Group 6520" transform="translate(-850 73)">
      <g id="Group_6509" data-name="Group 6509">
        <g id="Group_6511" data-name="Group 6511">
          <g id="Group_1221" data-name="Group 1221" transform="translate(1620 486.819)">
            <circle id="Ellipse_39" data-name="Ellipse 39" cx="16" cy="16" r="16" transform="translate(0)" fill="#d2e1ef" stroke="#95b1d6" stroke-width="1"/>
          </g>
        </g>
      </g>
    </g>
    <g id="Group_4672" data-name="Group 4672" transform="translate(690.344 193.133)">
      <g id="Group_4657" data-name="Group 4657" transform="translate(88.859 372.996)">
        <path id="layer1" d="M121.4,568.336v3.844h3.93Z" transform="translate(-112.231 -567.695)" fill="#335ca5"/>
        <path id="layer1-2" data-name="layer1" d="M110.6,567.032h-7.86v17.686h13.756V572.8h-5.9Zm-.267,14.74H106.01a.641.641,0,1,1,0-1.281h4.318a.641.641,0,1,1,0,1.281Zm2.887-3.012H106.01a.641.641,0,1,1,0-1.281h7.206a.641.641,0,1,1,0,1.281Zm0-4.293a.641.641,0,1,1,0,1.281H106.01a.641.641,0,1,1,0-1.281Z" transform="translate(-102.735 -567.032)" fill="#335ca5"/>
      </g>
    </g>
  </g>
</svg>
