<svg xmlns="http://www.w3.org/2000/svg" width="33" height="33" viewBox="0 0 33 33">
  <g id="mission-update" transform="translate(9533.5 -11967.5)">
    <g id="Group_167136" data-name="Group 167136" transform="translate(-11153 11481.182)">
      <g id="Group_6509" data-name="Group 6509">
        <g id="Group_6511" data-name="Group 6511">
          <g id="Group_1221" data-name="Group 1221" transform="translate(1620 486.819)">
            <circle id="Ellipse_39" data-name="Ellipse 39" cx="16" cy="16" r="16" transform="translate(0)" fill="#d2e1ef" stroke="#95b1d6" stroke-width="1"/>
          </g>
        </g>
      </g>
    </g>
    <g id="Group_167135" data-name="Group 167135" transform="translate(-10473.146 11446.34)">
      <g id="if" transform="translate(953.263 531.017)" style="isolation: isolate">
        <g id="Group_163615" data-name="Group 163615" style="isolation: isolate">
          <path id="Path_41147" data-name="Path 41147" d="M956.374,534.558a1.208,1.208,0,0,1-.856-.31,1,1,0,0,1-.333-.761.965.965,0,0,1,.333-.758,1.4,1.4,0,0,1,1.716,0,.97.97,0,0,1,.33.758,1,1,0,0,1-.33.771A1.226,1.226,0,0,1,956.374,534.558Zm1.02,7.751h-2.065v-6.692h2.065Z" transform="translate(-955.185 -532.245)" fill="#335ca5"/>
          <path id="Path_41148" data-name="Path 41148" d="M964.409,533.932a2.083,2.083,0,0,0-.765-.157q-.992,0-.993,1.079v.712h1.529v1.523H962.65v5.17h-2.058v-5.17h-1.124v-1.523h1.124v-.831a2.406,2.406,0,0,1,.745-1.842,2.838,2.838,0,0,1,2.026-.7,3.576,3.576,0,0,1,1.046.131Z" transform="translate(-956.096 -532.194)" fill="#335ca5"/>
        </g>
      </g>
      <path id="Path_41149" data-name="Path 41149" d="M966.428,526.666l-14.1-.006c-1.884.009-3.065.986-3.082,2.553v13.209h-3.012l-.055.529c-.013.125-.3,3.082,1.107,4.581a2.7,2.7,0,0,0,1.961.851v0h.013c.025,0,.049.007.075.007.052,0,.106,0,.158,0h12.581v-.031c2.782-.283,2.846-3.412,2.87-4.788,0-.2.006-.379.021-.553l.15-13.568a2.035,2.035,0,0,1,.441-1.277,1.167,1.167,0,0,1,.876-.324Zm-19.1,16.937h11.116a6.666,6.666,0,0,0,.921,3.6h-9.9a1.613,1.613,0,0,1-1.32-.483A4.888,4.888,0,0,1,947.327,543.6Zm16.607-14.149-.147,13.5c-.013.15-.018.352-.022.589-.04,2.256-.4,3.654-2.094,3.656h-.039a1.522,1.522,0,0,1-1.151-.49c-.855-.925-.9-2.951-.842-3.653l.05-.638h-9.261v-13.2c.013-1.131,1.043-1.373,1.9-1.378l12.005,0A3.386,3.386,0,0,0,963.934,529.453Z" fill="#335ca5"/>
    </g>
  </g>
</svg>
