<svg xmlns="http://www.w3.org/2000/svg" width="33" height="33" viewBox="0 0 33 33">
  <g id="name-type-update" transform="translate(-769.5 -559.319)">
    <g id="Group_6520" data-name="Group 6520" transform="translate(-850 73)">
      <g id="Group_6509" data-name="Group 6509">
        <g id="Group_6511" data-name="Group 6511">
          <g id="Group_1221" data-name="Group 1221" transform="translate(1620 486.819)">
            <circle id="Ellipse_39" data-name="Ellipse 39" cx="16" cy="16" r="16" transform="translate(0)" fill="#d2e1ef" stroke="#95b1d6" stroke-width="1"/>
          </g>
        </g>
      </g>
    </g>
    <g id="Group_6522" data-name="Group 6522" transform="translate(786.356 572.057)">
      <path id="Path_4510" data-name="Path 4510" d="M1576.119,88.076l-5.271-6.4-5.271,6.4Z" transform="translate(-1565.35 -81.68)" fill="#335ca5"/>
      <path id="Path_4511" data-name="Path 4511" d="M1565.3,95.9s3.776-.4,3.444-7.486l3.711.066S1573.318,97.028,1565.3,95.9Z" transform="translate(-1565.302 -82.844)" fill="#335ca5"/>
    </g>
    <g id="Group_6523" data-name="Group 6523" transform="translate(775.193 566.402)">
      <path id="Path_4512" data-name="Path 4512" d="M1554.17,84.011l5.271,6.4,5.27-6.4Z" transform="translate(-1554.17 -77.247)" fill="#335ca5"/>
      <path id="Path_4513" data-name="Path 4513" d="M1565.688,75.937s-3.777.4-3.445,7.486l-3.71-.066S1557.672,74.81,1565.688,75.937Z" transform="translate(-1554.919 -75.834)" fill="#335ca5"/>
    </g>
  </g>
</svg>
