<svg xmlns="http://www.w3.org/2000/svg" width="33" height="33" viewBox="0 0 33 33">
  <g id="style-update" transform="translate(9289.5 -12335.5)">
    <g id="Group_167125" data-name="Group 167125" transform="translate(-10909 11849.182)">
      <g id="Group_6509" data-name="Group 6509">
        <g id="Group_6511" data-name="Group 6511">
          <g id="Group_1221" data-name="Group 1221" transform="translate(1620 486.819)">
            <circle id="Ellipse_39" data-name="Ellipse 39" cx="16" cy="16" r="16" transform="translate(0)" fill="#d2e1ef" stroke="#95b1d6" stroke-width="1"/>
          </g>
        </g>
      </g>
    </g>
    <g id="Group_167126" data-name="Group 167126" transform="translate(19.612 29.157)">
      <path id="Subtraction_21" data-name="Subtraction 21" d="M.479,16.26a.479.479,0,0,1-.459-.615l.928-3.166a.488.488,0,0,1,.1-.183L.891,12.12,10.61,2.445l1.138,1.137,0,.006.616.616a9.005,9.005,0,0,0-5.272,8.222L4.1,15.4l-.167-.161a.488.488,0,0,1-.153.077L.614,16.24A.472.472,0,0,1,.479,16.26ZM1.767,13.1l-.295,1,.674.693,1.016-.3-.079-.076-.068-1.19-1.222-.1-.026-.03Zm11.3-9.179h0L11.08,1.929l.744-.7L14.19,3.6a9.04,9.04,0,0,0-1.121.319ZM15,3.46h0L12.344.8l.477-.484A1.1,1.1,0,0,1,14.37.325l1.558,1.557a1.094,1.094,0,0,1,.042,1.513A9.052,9.052,0,0,0,15,3.46Z" transform="translate(-9304.693 12311.55)" fill="#335ca5"/>
      <path id="Subtraction_22" data-name="Subtraction 22" d="M7.966,0A7.965,7.965,0,0,0,.075,9.059C.35,10.378,1.369,11.946,4.7,11.946a15.954,15.954,0,0,0,2.066-.174,9.134,9.134,0,0,1,1.045-.1c.323,0,.373.05.373.074a.793.793,0,0,1,.024.473c-.05.373-.124.124-.548.2a1.769,1.769,0,0,0-1.687,1.744c0,1.021.846,1.693,2.24,1.763h.05a7.965,7.965,0,0,0,3.783-1.091h.024l.2-.149.249-.149h.05A7.965,7.965,0,0,0,7.966,0ZM4.78,9.283a1.494,1.494,0,1,1,.439-1.054A1.494,1.494,0,0,1,4.78,9.283ZM5.428,5.45A1,1,0,0,1,4.008,4.031a1.021,1.021,0,0,1,1.418,0,1,1,0,0,1,0,1.418ZM8.836,4.379a1.232,1.232,0,1,0,0-.024Zm3.484,1.494a1.232,1.232,0,1,0,0-.024Z" transform="translate(-9296.566 12315.983)" fill="#335ca5"/>
    </g>
  </g>
</svg>
