<svg id="Layer_1" data-name="Layer 1" xmlns="http://www.w3.org/2000/svg" viewBox="0 0 87.5 87.5"><defs><style>.cls-1{fill:#fff;}.cls-2{fill:#7dc242;}.cls-3{fill:#68a142;}.cls-4{fill:#3f698b;}</style></defs><title>add-vendor</title><circle class="cls-1" cx="43.75" cy="43.75" r="36.36"/><path class="cls-2" d="M43.75,0A43.75,43.75,0,1,0,87.5,43.77h0A43.71,43.71,0,0,0,43.81,0Zm.43,75.53A31.36,31.36,0,1,1,75.54,44.19h0A31.36,31.36,0,0,1,44.19,75.54h0Z"/><path class="cls-3" d="M87.08,37.86H74.86A31.51,31.51,0,0,1,44.13,75.54h0v12A43.74,43.74,0,0,0,87.38,43.79,26.76,26.76,0,0,0,87.08,37.86Z"/><rect class="cls-2" x="37.92" y="41.57" width="11.51" height="7.74" rx="3.69" ry="3.69"/><path class="cls-4" d="M55.67,65.8a9.91,9.91,0,1,1,9.91-9.91A9.91,9.91,0,0,1,55.67,65.8Zm0-17.72a7.81,7.81,0,1,0,7.81,7.81h0a7.82,7.82,0,0,0-7.81-7.8Z"/><path class="cls-4" d="M59.7,57H51.65a1.05,1.05,0,1,1,0-2.1H59.7a1,1,0,0,1,0,2.1Z"/><path class="cls-4" d="M55.67,61A1,1,0,0,1,54.62,60v-8a1,1,0,1,1,2.1,0v8a1,1,0,0,1-1,1.05Z"/><path class="cls-4" d="M46.81,65.8h-21a1,1,0,0,1-1.05-1v-37a1,1,0,0,1,.31-.74l6.44-6.44a1,1,0,0,1,.74-.31H59.68a1,1,0,0,1,1,1V43.86a1.05,1.05,0,0,1-2.1,0V22.36H32.73L26.9,28.19V63.75H46.79a1.05,1.05,0,1,1,0,2.1Z"/><polygon class="cls-2" points="32.31 27.7 32.31 21.26 25.87 27.7 32.31 27.7"/><path class="cls-4" d="M32.31,28.76H25.86a1.06,1.06,0,0,1-1.05-1.05,1.13,1.13,0,0,1,.31-.74l6.44-6.44a1.05,1.05,0,0,1,1.79.74v6.44A1,1,0,0,1,32.31,28.76Zm-3.91-2.1h2.86V23.8Z"/><path class="cls-4" d="M45.44,42.93H41.71a1,1,0,0,1-1.05-1V40.07a4.79,4.79,0,0,1-1.87-3.79V34.41a4.79,4.79,0,0,1,9.57,0v1.87a4.79,4.79,0,0,1-1.87,3.79v1.81a1,1,0,0,1-1.05,1Zm-2.68-2.1h1.63V39.51a1.07,1.07,0,0,1,.59-.95,2.68,2.68,0,0,0,1.27-2.28V34.41a2.69,2.69,0,1,0-5.37,0v1.87a2.68,2.68,0,0,0,1.27,2.28,1,1,0,0,1,.6.95Z"/><path class="cls-4" d="M49.17,48.53a1,1,0,0,1-1.05-1.05V43.75a.82.82,0,0,0-.82-.82H39.86a.82.82,0,0,0-.82.82h0v3.73a1,1,0,0,1-2.1,0V43.75a2.92,2.92,0,0,1,2.92-2.92h7.47a2.92,2.92,0,0,1,2.92,2.92h0v3.73a1,1,0,0,1-1,1.05Z"/><path class="cls-4" d="M43.57,50.89a13,13,0,1,1,13-13,13,13,0,0,1-13,13Zm0-23.95A10.92,10.92,0,1,0,54.49,37.86,10.92,10.92,0,0,0,43.57,26.94Z"/></svg>