<?xml version="1.0" encoding="utf-8"?>
<!-- Generator: Adobe Illustrator 21.1.0, SVG Export Plug-In . SVG Version: 6.00 Build 0)  -->
<svg version="1.2" baseProfile="tiny" id="Layer_1" xmlns="http://www.w3.org/2000/svg" xmlns:xlink="http://www.w3.org/1999/xlink"
	 x="0px" y="0px" viewBox="0 0 87.5 87.5" xml:space="preserve">
<title>forms-library</title>
<g id="Layer_2">
	<circle fill="#FFFFFF" cx="44.3" cy="43.4" r="36.8"/>
</g>
<g id="Layer_1_1_">
	<path fill="#F6AB22" d="M43.8,0C19.6,0,0,19.6,0,43.8s19.6,43.8,43.8,43.8S87.6,68,87.6,43.8C87.5,19.6,67.9,0,43.8,0L43.8,0z
		 M44.2,75.5c-17.3,0-31.4-14-31.4-31.3s14-31.4,31.3-31.4s31.4,14,31.4,31.3l0,0C75.5,61.5,61.5,75.5,44.2,75.5z"/>
	<path fill="#BD8D2E" d="M87.1,37.9H74.9c0.4,2.1,0.6,4.2,0.6,6.3c0,17.3-14,31.3-31.3,31.3l0,0v12c24-0.3,43.3-19.8,43.3-43.8
		C87.5,41.8,87.4,39.8,87.1,37.9z"/>
	<polyline fill="none" stroke="#3F698B" stroke-width="2" stroke-miterlimit="10" points="56.2,48 62.3,41.9 62.3,41.1 33.3,41.1 
		30.1,51.1 	"/>
	<path fill="#FEDE13" stroke="#3F698B" stroke-width="2" stroke-miterlimit="10" d="M43.2,33.5V32l-3.1-3.1H24v30.6
		c0,0.8,0.7,1.5,1.5,1.5l0,0h25.1c0.7-0.1,1.4-0.4,1.8-1l12.2-11.2v-2.3H50.8l-3.1,2.3h-9.8L28.2,58h-1.1V33.5H43.2z"/>
	<polyline fill="none" stroke="#3F698B" stroke-width="2" stroke-miterlimit="10" points="39.3,33.5 60,33.5 60,34.2 55.4,41.1 	"/>
	<line fill="none" stroke="#3F698B" stroke-width="2" stroke-miterlimit="10" x1="59.3" y1="29.6" x2="59.3" y2="25.8"/>
	<line fill="none" stroke="#3F698B" stroke-width="2" stroke-miterlimit="10" x1="62" y1="30.1" x2="63.8" y2="27"/>
	<line fill="none" stroke="#3F698B" stroke-width="2" stroke-miterlimit="10" x1="64" y1="32.2" x2="67.2" y2="30.4"/>
	<line fill="none" stroke="#3F698B" stroke-width="2" stroke-miterlimit="10" x1="64.6" y1="35" x2="68.4" y2="35"/>
	<line fill="none" stroke="#3F698B" stroke-width="2" stroke-miterlimit="10" x1="56.3" y1="30.1" x2="54.5" y2="27"/>
</g>
</svg>
