<svg xmlns="http://www.w3.org/2000/svg" viewBox="0 0 87.5 87.5"><defs><style>.cls-1{fill:#fff;}.cls-2{fill:#04a5b0;}.cls-3{fill:#23868b;}.cls-4{fill:#9cd9e5;}.cls-5{fill:#3f698b;}</style></defs><title>multi-document</title><g id="Layer_2" data-name="Layer 2"><circle class="cls-1" cx="44.32" cy="44.18" r="36.78"/></g><g id="Layer_1" data-name="Layer 1"><path class="cls-2" d="M43.75,0A43.75,43.75,0,1,0,87.5,43.75,43.73,43.73,0,0,0,43.75,0Zm.43,75.53A31.36,31.36,0,1,1,75.53,44.18,31.35,31.35,0,0,1,44.18,75.53Z"/><path class="cls-3" d="M87.08,37.86H74.86a30.59,30.59,0,0,1,.61,6.32A31.34,31.34,0,0,1,44.12,75.53v12A43.73,43.73,0,0,0,87.38,43.75,27.52,27.52,0,0,0,87.08,37.86Z"/><polygon class="cls-4" points="51.77 63.44 27.95 63.44 27.95 33 47.58 33 51.53 37.01 51.77 63.44"/><g id="_87" data-name="87"><path class="cls-5" d="M33.06,40.9a.88.88,0,0,0,0,1.76H46.61a.88.88,0,0,0,0-1.76Z"/><path class="cls-5" d="M46.61,45H33.06a.88.88,0,0,0,0,1.76H46.61A.88.88,0,0,0,46.61,45Z"/><path class="cls-5" d="M46.61,48.92H33.06a.88.88,0,0,0,0,1.76H46.61A.88.88,0,0,0,46.61,48.92Z"/><path class="cls-5" d="M46.61,53.05H33.06a.88.88,0,0,0,0,1.76H46.61A.88.88,0,0,0,46.61,53.05Z"/><path class="cls-5" d="M46.37,57H32.81a.88.88,0,0,0,0,1.76H46.37A.88.88,0,0,0,46.37,57Z"/><path class="cls-5" d="M27.22,31.84V64.72H52.5V36.4l-4.68-4.56ZM50.31,62.53H29.41V34H46.67v3.46h3.64v25Z"/><polygon class="cls-5" points="31.48 26.86 31.48 30.63 33.66 30.63 33.66 29.05 50.92 29.05 50.92 32.51 54.57 32.51 54.57 57.48 53.6 57.48 53.6 59.67 56.76 59.67 56.76 31.42 52.08 26.86 31.48 26.86"/><polygon class="cls-5" points="56.57 22.24 35.97 22.24 35.97 26.07 38.16 26.07 38.16 24.43 55.42 24.43 55.42 27.89 59.06 27.89 59.06 52.93 58.09 52.93 58.09 55.12 61.25 55.12 61.25 26.8 56.57 22.24"/></g></g></svg>