<svg xmlns="http://www.w3.org/2000/svg" width="247" height="221.861" viewBox="0 0 247 221.861"><defs><style>.a,.b,.c{fill:#cadff2;}.a{opacity:0.3;}.b{opacity:0.6;}.d,.g,.i,.j,.m{fill:none;}.d{stroke:#fff;stroke-width:18px;}.e{fill:#2f7ff4;}.f{fill:#fff;}.g{stroke:#335ca5;stroke-width:2.5px;}.h{fill:#345ea1;}.i,.j{stroke:#9a9a9a;stroke-width:8px;}.i{stroke-linecap:round;}.k{fill:#3b5d9f;}.l{stroke:none;}</style></defs><g transform="translate(-361 -113)"><g transform="translate(361 113)"><g transform="translate(0)"><circle class="a" cx="110.931" cy="110.931" r="110.931" transform="translate(0)"/><circle class="b" cx="95.431" cy="95.431" r="95.431" transform="translate(16 15)"/><circle class="c" cx="80.931" cy="80.931" r="80.931" transform="translate(30 30)"/></g><g transform="translate(60.582 71.612)"><path class="d" d="M1008.889,1297.522h92.961" transform="translate(-1008.889 -1257.505)"/><path class="d" d="M1068.05,1280.659,1107,1319.614l-38.955,38.955" transform="translate(-1006.783 -1280.659)"/></g><g transform="translate(192.861 19.383)"><rect class="e" width="54.139" height="54.139" rx="10" transform="translate(0 54.139) rotate(-90)"/><g transform="translate(9 7.617)"><path class="f" d="M121.694,37.914a21.934,21.934,0,0,0,1.246,4.452,23.277,23.277,0,0,0,1.694,3.456h3.3a26.743,26.743,0,0,1-1.065-6.279A19.871,19.871,0,0,1,127,36.168a17.6,17.6,0,0,1,.664-3.086,15.8,15.8,0,0,1,1.826-3.885c.038-.059.083-.115.148-.205.083.284.152.525.225.766A15,15,0,0,0,131,32.6a5.575,5.575,0,0,0,.951,1.325,2.316,2.316,0,0,0,.654.474,1.229,1.229,0,0,0,1.3-.113,2.051,2.051,0,0,0,.482-.5,4.021,4.021,0,0,0,.491-1,8.865,8.865,0,0,0,.431-2.682,15.178,15.178,0,0,0-.243-3.027,20.633,20.633,0,0,0-.812-3.133c-.017-.049-.027-.1-.041-.15a.509.509,0,0,1,.193.105,15.91,15.91,0,0,1,1.836,1.787c.9,1,1.719,2.05,2.539,3.1.04.052.083.1.138.168.1-.177.184-.333.273-.486q1.118-1.915,2.242-3.826a.3.3,0,0,0,.007-.331c-.427-.783-.829-1.578-1.273-2.354-.9-1.573-1.826-3.138-2.742-4.7-.73-1.249-1.457-2.5-2.086-3.793a12.106,12.106,0,0,1-.9-2.313c-.013-.05-.028-.1-.048-.17-.085.042-.151.07-.21.105-.265.155-.533.305-.788.471a21.722,21.722,0,0,0-3.567,2.959,28.927,28.927,0,0,0-6.045,8.93,28.733,28.733,0,0,0-2.32,10.078c-.009.219-.05.437-.076.656v1.36c.027.17.059.34.08.511C121.544,36.671,121.592,37.3,121.694,37.914Z" transform="translate(-121.389 -10.98)"/><path class="f" d="M146.492,45.239a14.546,14.546,0,0,0,2.846,1.233.243.243,0,0,0,.051,0c0-.014,0-.021,0-.025l-.182-.215a8.388,8.388,0,0,1-2.1-6.112,9.358,9.358,0,0,1,3.362-6.476c.059-.048.119-.092.179-.138l.038.023c-.071.222-.146.443-.213.666a12.682,12.682,0,0,0-.585,5.04,5.148,5.148,0,0,0,.4,1.582,2.206,2.206,0,0,0,.493.734.979.979,0,0,0,1.288.113,2.315,2.315,0,0,0,.561-.512,5.718,5.718,0,0,0,.729-1.193,14.264,14.264,0,0,0,.8-2.228c.014-.05.033-.1.062-.183.059.087.1.141.134.2a12.184,12.184,0,0,1,1.487,3.274,14.591,14.591,0,0,1,.54,4.286,18.691,18.691,0,0,1-.21,2.433h3.293a18.7,18.7,0,0,0,.616-1.9,14.56,14.56,0,0,0,.485-3.166,20.279,20.279,0,0,0-.069-2.359,22.982,22.982,0,0,0-.407-2.818,22.352,22.352,0,0,0-7.307-12.333,12.776,12.776,0,0,0-2.05-1.452c-.06-.034-.123-.064-.189-.1a.651.651,0,0,0-.04.086,8.012,8.012,0,0,1-.6,1.611c-.5,1.074-1.11,2.106-1.708,3.14-.88,1.518-1.769,3.03-2.627,4.556a24.093,24.093,0,0,0-1.708,3.685,10.006,10.006,0,0,0-.532,2.089,7.232,7.232,0,0,0,.1,2.3A6.03,6.03,0,0,0,146.492,45.239Z" transform="translate(-124.712 -12.897)"/></g></g><g transform="translate(15 147.511)"><g class="g" transform="translate(0 54.139) rotate(-90)"><rect class="l" width="54.139" height="54.139" rx="10"/><rect class="m" x="1.25" y="1.25" width="51.639" height="51.639" rx="8.75"/></g><path class="h" d="M587.457,430.393a18.459,18.459,0,0,0-1.536-2.139,10.276,10.276,0,0,1-2.8-7.392c0-7.575-2.319-12.22-6.9-13.785a3.364,3.364,0,0,0-6.663,0c-4.576,1.575-6.9,6.208-6.9,13.786a10.53,10.53,0,0,1-2.818,7.392,20.13,20.13,0,0,0-1.509,2.135,2.379,2.379,0,0,0,.836,3.246,2.336,2.336,0,0,0,1.193.327h6.662a5.944,5.944,0,0,0,11.711,0H585.4a2.371,2.371,0,0,0,2.028-3.574Zm-8.7.433h-2.61l-.468,2.586a2.824,2.824,0,0,1-5.564,0l-.468-2.586h-7.822c.151-.2.321-.409.487-.631a13.632,13.632,0,0,0,3.48-9.328,18.506,18.506,0,0,1,1.119-7.069c.042-.115.088-.225.133-.333.033-.071.059-.166.094-.237h.024a6.185,6.185,0,0,1,11.173-.557h.017a16.246,16.246,0,0,1,1.644,8.2,13.4,13.4,0,0,0,3.489,9.364c.16.2.317.4.466.594Z" transform="translate(-546.012 -393.625)"/></g><g transform="translate(36.861 84.383)"><g class="g" transform="translate(0 54.139) rotate(-90)"><rect class="l" width="54.139" height="54.139" rx="10"/><rect class="m" x="1.25" y="1.25" width="51.639" height="51.639" rx="8.75"/></g><g transform="translate(8.139 12.8)"><path class="h" d="M575.742,463.9a4.606,4.606,0,1,1,.019,6.513l-.019-.017a4.625,4.625,0,0,1,0-6.5" transform="translate(-545.918 -455.687)"/><path class="h" d="M566.15,459.173a4.606,4.606,0,1,1,.02,6.513l-.02-.019a4.624,4.624,0,0,1,0-6.494" transform="translate(-550.577 -457.813)"/><path class="h" d="M556.565,463.9a4.606,4.606,0,1,1,.017,6.513l-.017-.017a4.622,4.622,0,0,1,0-6.5" transform="translate(-555.231 -455.687)"/><path class="h" d="M571.69,473.675a7.216,7.216,0,0,1,.69.812l5.277-5.256a5.364,5.364,0,0,1-.828-.674,5.493,5.493,0,0,1-.677-.824l-5.277,5.256a6.931,6.931,0,0,1,.813.686" transform="translate(-547.68 -453.351)"/><path class="h" d="M568.34,473.044a6.912,6.912,0,0,1,.993.077v-8.531a5.314,5.314,0,0,1-2.128-.031v8.579a7.109,7.109,0,0,1,1.137-.1" transform="translate(-549.504 -454.778)"/><path class="h" d="M565.7,474.487a6.947,6.947,0,0,1,.69-.812,7.33,7.33,0,0,1,.812-.687l-5.278-5.256a5.33,5.33,0,0,1-1.505,1.5Z" transform="translate(-552.726 -453.351)"/><path class="h" d="M574.46,472.739a6.352,6.352,0,1,0-.017,8.989l.017-.017a6.38,6.38,0,0,0,0-8.964m-1.251,7.718a4.564,4.564,0,1,1,1.345-3.236,4.564,4.564,0,0,1-1.345,3.236" transform="translate(-551.12 -451.938)"/></g></g><g transform="translate(163.861 83.383)"><rect class="e" width="54.139" height="54.139" rx="10" transform="translate(0 54.139) rotate(-90)"/></g><g transform="translate(145.757 147.511)"><rect class="e" width="54.139" height="54.139" rx="10" transform="translate(0 54.139) rotate(-90)"/></g><g transform="translate(76.94 57.659)"><path class="i" d="M1008.889,1297.522h79.777" transform="translate(-1008.889 -1277.659)"/><path class="j" d="M1068.05,1280.659l19.336,19.336-19.336,19.336" transform="translate(-1004.005 -1280.659)"/></g><g transform="translate(71.182 123.659)"><path class="i" d="M1018.234,1297.522h54.548" transform="translate(-1018.234 -1277.659)"/><path class="j" d="M1068.05,1280.659l19.336,19.336-19.336,19.336" transform="translate(-1029.234 -1280.659)"/></g><g transform="translate(1.861 19.511)"><g class="g" transform="translate(0 54.139) rotate(-90)"><rect class="l" width="54.139" height="54.139" rx="10"/><rect class="m" x="1.25" y="1.25" width="51.639" height="51.639" rx="8.75"/></g><g transform="translate(12.139 10.488)"><path class="k" d="M583.16,516.553c-.331.639-.663,1.285-.966,1.927a12.25,12.25,0,0,1,.641,2.825h-1.668a5.952,5.952,0,0,0-.153,1.24v1.279h1.824a12.453,12.453,0,0,1-1.642,5.037h-3.7a26.858,26.858,0,0,0,.563-3.8h-2.495a23.579,23.579,0,0,1-.644,3.8h-9.24a24.351,24.351,0,0,1-.73-5.037h9.745v-1.279a6.1,6.1,0,0,0-.149-1.24h-9.6a24.353,24.353,0,0,1,.73-5.037h6.754c-.44-.854-.863-1.69-1.216-2.52h-4.674c1.039-2.376,2.431-3.777,3.757-3.777a7.558,7.558,0,0,1,.431-2.5c-.146,0-.286-.021-.431-.021a15.141,15.141,0,1,0,13.368,8.1ZM565.1,511.105a15.61,15.61,0,0,0-1.255,2.643h-2.531A12.637,12.637,0,0,1,565.1,511.105Zm-5.7,5.165h3.7a27.112,27.112,0,0,0-.669,5.038h-4.663a12.505,12.505,0,0,1,1.641-5.041Zm0,12.593a12.509,12.509,0,0,1-1.641-5.041h4.664a27.114,27.114,0,0,0,.668,5.037Zm1.911,2.519h2.531a15.52,15.52,0,0,0,1.255,2.643,12.608,12.608,0,0,1-3.786-2.647Zm8.98,3.774c-1.323,0-2.718-1.4-3.757-3.778h7.512c-1.037,2.375-2.431,3.78-3.75,3.78Zm5.189-1.133a15.29,15.29,0,0,0,1.27-2.644h2.531a12.561,12.561,0,0,1-3.8,2.647Z" transform="translate(-555.123 -504.877)"/><path class="k" d="M575.2,505.264a5.072,5.072,0,0,0-5.047,5.1v.007c0,3.4,4.391,8.072,4.391,12.761h1.288c0-4.679,4.395-9.213,4.395-12.761a5.074,5.074,0,0,0-5.027-5.108Zm0,7.738a2.632,2.632,0,1,1,2.6-2.667v.036A2.61,2.61,0,0,1,575.2,513Z" transform="translate(-552.464 -505.264)"/></g></g><g transform="translate(175.888 95.047)"><path class="f" d="M16,2V34.886H33.539V2Zm8.77,29.6a3.289,3.289,0,1,1,3.289-3.289A3.288,3.288,0,0,1,24.77,31.6Zm0-9.866a3.289,3.289,0,1,1,3.289-3.289A3.288,3.288,0,0,1,24.77,21.731Zm0-9.866a3.289,3.289,0,1,1,3.289-3.289A3.288,3.288,0,0,1,24.77,11.866Z" transform="translate(-10 -2)"/><path class="f" d="M7.192,13.481H9.385V8H5Zm0,9.866H9.385V17.866H5Zm0,9.866H9.385V27.731H5ZM34.6,8H30.212v5.481H32.4ZM30.212,23.347H32.4L34.6,17.866H30.212Zm0,9.866H32.4L34.6,27.731H30.212Z" transform="translate(-5 -4.711)"/></g></g><g transform="translate(526.644 271.237)"><path class="f" d="M977.879,570.156a1.528,1.528,0,0,1,.5-1.138,6.911,6.911,0,0,0-.026-10.232,1.534,1.534,0,1,1,2.053-2.28,9.978,9.978,0,0,1,.042,14.776,1.534,1.534,0,0,1-2.567-1.127Z" transform="translate(-970.589 -546.611)"/><path class="f" d="M981.462,576.485a1.529,1.529,0,0,1,.442-1.082,14.587,14.587,0,0,0-.062-20.553,1.533,1.533,0,0,1,2.167-2.17,17.652,17.652,0,0,1,.078,24.878,1.533,1.533,0,0,1-2.624-1.072Z" transform="translate(-969.208 -548.121)"/><circle class="f" cx="2.504" cy="2.504" r="2.504" transform="translate(1.451 14.515)"/><rect class="f" width="3.86" height="34.057" rx="1.389"/></g></g></svg>