<svg xmlns="http://www.w3.org/2000/svg" xmlns:xlink="http://www.w3.org/1999/xlink" width="824.027" height="588.921" viewBox="0 0 824.027 588.921">
  <defs>
    <linearGradient id="linear-gradient" x1="0.5" y1="1" x2="0.5" gradientUnits="objectBoundingBox">
      <stop offset="0" stop-color="gray" stop-opacity="0.251"/>
      <stop offset="0.54" stop-color="gray" stop-opacity="0.122"/>
      <stop offset="1" stop-color="gray" stop-opacity="0.102"/>
    </linearGradient>
    <linearGradient id="linear-gradient-2" x1="0.5" y1="1" x2="0.5" xlink:href="#linear-gradient"/>
    <linearGradient id="linear-gradient-3" x1="-4.867" y1="1.149" x2="-4.87" y2="1.149" gradientUnits="objectBoundingBox">
      <stop offset="0" stop-color="#fff" stop-opacity="0"/>
      <stop offset="1" stop-color="#fff8f8"/>
    </linearGradient>
    <linearGradient id="linear-gradient-4" x1="0.687" y1="1.01" x2="0.305" y2="1" xlink:href="#linear-gradient-3"/>
  </defs>
  <g id="away-mode-screen-graphic" transform="translate(-546.805 -190.493)">
    <g id="Group_164206" data-name="Group 164206" transform="translate(547.865 190.49)">
      <path id="Path_40867" data-name="Path 40867" d="M857.406,435.97c-19.085,39.369-57.836,65.694-97.995,83.054-54.065,23.38-113.6,32.653-172.322,28.731q-15.436-1.027-30.778-3.283A388.19,388.19,0,0,1,453.4,514.507q-14.179-6.386-27.783-13.942a355.429,355.429,0,0,1-43.427-28.4Q377,468.2,371.951,464.033c-2.334-1.925-4.647-3.893-7-5.8a88.285,88.285,0,0,0-15.745-10.724,56.245,56.245,0,0,0-5.272-2.327c-18.014-6.852-38.787-4.267-57.541,1.077-14.265,4.065-28.171,9.632-42.421,13.6a140.78,140.78,0,0,1-19.329,4.109,102.864,102.864,0,0,1-43.427-3.814l-1.2-.374q-3.017-.948-5.983-2.076l-1.2-.46q-2.873-1.106-5.624-2.377l-1.2-.546q-2.873-1.336-5.624-2.823c-.661-.345-1.314-.718-1.961-1.07a117.561,117.561,0,0,1-28.128-21.9c-.237-.237-.46-.481-.718-.718-1.142-1.235-2.263-2.492-3.347-3.778-.4-.474-.8-.948-1.2-1.437q-1.932-2.356-3.728-4.82c-.18-.237-.352-.481-.524-.718a103.856,103.856,0,0,1-12.11-21.9c-.1-.237-.194-.481-.28-.718q-1.437-3.7-2.622-7.52c-.323-1.063-.632-2.155-.905-3.218-.093-.316-.18-.639-.259-.955-3.965-15.608-4.417-31.834-4.417-47.967v-5.638c.115-26.1.517-52.635,4.367-78.371a3.271,3.271,0,0,1,.079-.532,244.759,244.759,0,0,1,5.251-25.729,189.8,189.8,0,0,1,8.842-26.074c8.856-20.83,21.735-39.785,36.036-57.354,36.022-44.21,83.263-81.323,138.556-95.215C352.9,30.9,419.12,45.241,467.18,83.5c14.653,11.665,27.819,25.477,44.275,34.42,14.366,7.786,31.18,11.011,46.566,4.884,12.714-5.064,20.988-7.578,35.267-6.809a295.613,295.613,0,0,1,86.452,18.108c1.121.409,2.241.833,3.354,1.257,72.338,27.675,134.519,82.659,166.842,153.316q1.286,2.8,2.492,5.646C871.7,339.34,878.667,392.1,857.406,435.97Z" transform="translate(-47.474 -40.04)" fill="#cadff2" opacity="0.75"/>
      <ellipse id="Ellipse_1948" data-name="Ellipse 1948" cx="63.41" cy="10.185" rx="63.41" ry="10.185" transform="translate(23.123 513.304)" fill="#cadff2" opacity="0.75"/>
      <ellipse id="Ellipse_1949" data-name="Ellipse 1949" cx="112.432" cy="10.918" rx="112.432" ry="10.918" transform="translate(542.948 567.089)" fill="#cadff2" opacity="0.75"/>
      <rect id="Rectangle_149494" data-name="Rectangle 149494" width="682.601" height="386.671" rx="12.49" transform="translate(83.545 77.395)" fill="url(#linear-gradient)"/>
      <rect id="Rectangle_149495" data-name="Rectangle 149495" width="680.511" height="379.948" rx="12.49" transform="translate(84.629 82.833)" fill="#fff"/>
      <rect id="Rectangle_149496" data-name="Rectangle 149496" width="680.511" height="379.948" rx="12.49" transform="translate(84.629 82.833)" fill="#fff"/>
      <rect id="Rectangle_149497" data-name="Rectangle 149497" width="680.511" height="379.948" rx="12.49" transform="translate(84.629 82.833)" fill="#fff" opacity="0.04"/>
      <path id="Path_40868" data-name="Path 40868" d="M821.676,149.29h-673.6a3.455,3.455,0,0,0-3.455,3.455v14.6H825.1v-14.6a3.455,3.455,0,0,0-3.426-3.455Z" transform="translate(-59.991 -70.817)" fill="#5a5773"/>
      <g id="buttons" transform="translate(93.55 82.833)">
        <circle id="Ellipse_1950" data-name="Ellipse 1950" cx="4.669" cy="4.669" r="4.669" fill="#fff"/>
        <circle id="Ellipse_1951" data-name="Ellipse 1951" cx="4.669" cy="4.669" r="4.669" transform="translate(12.57)" fill="#fff"/>
        <circle id="Ellipse_1952" data-name="Ellipse 1952" cx="4.669" cy="4.669" r="4.669" transform="translate(25.14)" fill="#fff"/>
      </g>
      <rect id="Rectangle_149498" data-name="Rectangle 149498" width="182.622" height="15.5" transform="translate(140.677 130.49)" fill="#cadff2" opacity="0.75"/>
      <rect id="Rectangle_149504" data-name="Rectangle 149504" width="91.311" height="15.5" transform="translate(140.677 154.194)" fill="#cadff2" opacity="0.75"/>
      <rect id="Rectangle_149499" data-name="Rectangle 149499" width="568.417" height="238.44" transform="translate(140.677 192.643)" fill="#5a5773" opacity="0.1"/>
      <rect id="Rectangle_149500" data-name="Rectangle 149500" width="57.534" height="13.583" transform="translate(651.559 169.694)" fill="#5a5773" opacity="0.1"/>
      <path id="Path_40871" data-name="Path 40871" d="M986.634,691.552a20.451,20.451,0,0,0-1.925-5.466l-8.619-12.871h.05s-1.358-6.465,0-9.639-4.841-10.982-4.841-10.982-.754-1.961,1.214-4.374-1.214-9.481-1.214-9.481-1.508-14.761-1.659-17.016-1.365-14.753-1.365-14.753l-2.873-26.5-5.114-70.226-.093-1.314c.632-.309.97-.5.97-.5l-1.02-38.83.883-.8c7.714-6.982,25.506-23.143,25.326-23.495s-2.155-26.986-2.385-33.651a40.1,40.1,0,0,0-3.06-13.777c-.445-.883-1.731-6.709-2.263-9.172-.144-.675-.237-1.1-.237-1.1s-5.215-9.941-4.762-14.459,1.358-7.9-9.761-9.481c0,0-9.338-1.393-14.9-5.193a42.375,42.375,0,0,0-10.674-5.344s-3.117-5.746-5.287-3.8a30.168,30.168,0,0,1-2.047-6.4l-.065-.4a21.167,21.167,0,0,0,8.361-11.966c.072-.273.129-.553.194-.826a2.335,2.335,0,0,0,.668.122c1.889,0,3.053-2.1,4.82-2.773.718-.28,1.6-.323,2.155-.891a2.1,2.1,0,0,0,.474-1.587,3.24,3.24,0,0,0,0-.589q.005-.1,0-.208v.072c-.481-2.615-2.507-4.935-2.284-7.592.216-2.5,2.413-4.7,2.234-7.133a3.881,3.881,0,0,0-.05-.575v.086a6.15,6.15,0,0,0-1.437-2.543,8.159,8.159,0,0,0-2.959-2.485c-1-.438-2.155-.539-3.089-1.063-2.744-1.494-2.737-5.387-4.367-8.045a7.118,7.118,0,0,0-6.658-3.3c-2.04.2-3.886,1.286-5.9,1.638-2.758.488-5.567-.409-8.181-1.437s-5.265-2.155-8.073-2.155-5.847,1.437-6.694,4.087c-.453,1.437-.23,2.981-.575,4.439-.618,2.571-2.873,4.41-5.208,5.689-1.437.8-3.146,1.71-3.591,3.218V306.6a2.76,2.76,0,0,0-.072.366,2.7,2.7,0,0,0,0,.481,9.054,9.054,0,0,0,.912,3,8.282,8.282,0,0,1-.043,5.789c-.532,1.365-1.437,2.564-1.954,3.922a7.721,7.721,0,0,0-.474,1.968v-.115a7.912,7.912,0,0,0,0,.919,6.465,6.465,0,0,0,.718,3.017,5.416,5.416,0,0,0,3.225,2.708c1.437.33,2.334-1.077,3.85-.718a6.053,6.053,0,0,1,.8.251c.05.323.1.646.158.962a21.111,21.111,0,0,0,7.283,12.333,4.635,4.635,0,0,0,.079.524h0a48.232,48.232,0,0,1,.6,8.662s-2.263-3.311-5.365,3.081c0,0-8.1,4.669-10.889,5.2s-12.714,3.986-12.714,3.986a8.749,8.749,0,0,1-5.143,1.659c-3.1,0-5.667,6.773-5.294,10.458s-.223,6.4-3.1,6.551-1.307,5.99-1.286,6.091l-.266,1.257c-.56,2.571-1.781,8.088-2.212,8.95a40.224,40.224,0,0,0-3.067,13.777c-.223,6.666-2.155,33.2-2.378,33.651-.151.294,12.038,11.435,20.607,19.221l1.243,1.12-3.943,36.833a9.833,9.833,0,0,0,4.051,7.183c0,.431,0,.869-.043,1.322-.172,4.31-.517,9.524-1.207,10.889-1.207,2.413-.905,15.357-.905,15.357s-1.214,26.346-2.722,29.212-1.817,8.878-1.365,10.056-1.516,32.818-1.516,32.818L866.8,623.5s.453,13.547-.912,13.848-2.119,9.639-2.119,9.639-4.834,6.622-2.722,9.029-.309,3.469-.532,4.065-4.611,2.873-1.437,11.291a2.48,2.48,0,0,0,.1.244c-2.974,4.13-12.4,17.454-11.823,19.48a5.337,5.337,0,0,0,2.514,3.017c2.219,1.329,6.026,1.947,12.081,0,10.056-3.239,9.338-5.574,9.338-5.574a4.267,4.267,0,0,1,4.238-4.065c4.159-.3,7.262-4.137,7.262-4.137l-.488-1.817-.668-2.514c.079-.718.589-1.975,2.873-2.672,3.484-1.056,2.571-7.678,2.571-7.678s-.3-6.924,1.207-7.829.912-12.347.912-12.347a84.845,84.845,0,0,1,4.08-13.856c2.413-5.574,5.3-38.686,5.3-38.686s1.961-16.262,3.778-20.931,3.484-17.763,3.484-17.763,11.2-21.685,11.342-26.5c0,0,1.437-4.518,2.873.453s5.473,16.865,5.473,16.865l3.929,14.6,4.69,21.828,3.031,18.374s-.46,6.924.718,9.338,2.873,7.973,1.968,9.029,1.81,6.026,2.571,7.075,0,23.337,0,23.337,3.477,18.97,8.469,22.267a6.106,6.106,0,0,0,1.106.575c-.072,2.054-.144,4.805-.05,6.242a2.392,2.392,0,0,0,.158.941c.453.6,5.6,4.669,6.658,4.669s4.834,2.636,4.992,3.915,11.054,6.694,12.6,6.852,9.029,1.5,10.056-.6a3.484,3.484,0,0,0,.208-1.947Zm-26.77-271.308.776.668s.8,6.213,1.365,8.073-.115,5.48-.115,5.48a12.606,12.606,0,0,0,.8,3.951c.675,1.358-1.365,4.31-1.365,4.31H959.5l-.567-23.258ZM905.828,350.8v-.136a.452.452,0,0,0-.022.136Zm-27.905,89.533a2.622,2.622,0,0,1-.115-1.918,5.749,5.749,0,0,0,.381-1.063,16.459,16.459,0,0,0,.417-2.873.207.207,0,0,0,0-.036c-.065-.345-.646-3.678-.108-5.445s1.358-8.073,1.358-8.073l.517-.438,1.2-1.042a8.531,8.531,0,0,1,.086-1.027c.251,5.459.453,11.492.129,11.794-.6.6-2.8,6.465-2.27,6.694.172.079-.065,2.428-.467,5.588A11.448,11.448,0,0,1,877.923,440.334Z" transform="translate(-257.961 -110.256)" fill="url(#linear-gradient-2)"/>
      <path id="Path_40872" data-name="Path 40872" d="M957.673,373.88v8.935l-18.33,9.216s-18.2-11.011-13.712-15.393c2.873-2.773,2.32-10.386,1.544-15.623h0c-.453-3.045-.977-5.279-.977-5.279s32.7-9.338,27.754-2.248c-1.652,2.37-1.781,5.437-1.228,8.476A38.5,38.5,0,0,0,957.673,373.88Z" transform="translate(-279.818 -127.595)" fill="#c3a070"/>
      <path id="Path_40873" data-name="Path 40873" d="M888.487,482.435l-2.363,29.1s-3.541-3.211-8.124-7.391c-8.5-7.75-20.564-18.833-20.421-19.128.223-.453,2.155-26.856,2.363-33.493a40.079,40.079,0,0,1,3.031-13.7,85.2,85.2,0,0,0,2.155-8.914c.172-.8.28-1.314.28-1.314L869.374,426s16.52,18.431,16.52,18.769-1.128,14.495-1.128,14.495l-1.171,1.02-.51.438s-.79,6.184-1.35,8.038.043,5.071.108,5.416h0a16.707,16.707,0,0,1-.409,2.873,6.017,6.017,0,0,1-.381,1.056,2.636,2.636,0,0,0,.115,1.911,11.546,11.546,0,0,0,1.235,2.363Z" transform="translate(-260.847 -148.773)" fill="#3f3d56"/>
      <path id="Path_40874" data-name="Path 40874" d="M1027.886,485.029c.172.352-17.447,16.434-25.082,23.38l-3.462,3.139L997,482.444h6.069s2.026-2.923,1.35-4.274a12.494,12.494,0,0,1-.783-3.929s.668-3.591.108-5.452-1.35-8.038-1.35-8.038l-.769-.661-.912-.8s-1.128-14.157-1.128-14.495,16.52-18.769,16.52-18.769l3.936,1.573s.086.424.23,1.1c.532,2.449,1.8,8.246,2.241,9.129a40.077,40.077,0,0,1,3.031,13.7C1025.731,458.173,1027.656,484.577,1027.886,485.029Z" transform="translate(-300.125 -148.781)" fill="#3f3d56"/>
      <path id="Path_40875" data-name="Path 40875" d="M1026.681,842.5c-1.056,2.1-8.469.718-10,.6s-12.333-5.552-12.484-6.824-3.893-3.893-4.942-3.893-6.141-4.051-6.594-4.647a2.293,2.293,0,0,1-.151-.934c-.158-2.464.151-8.806.151-8.806l21.728,1.2,10.559,15.881a20.482,20.482,0,0,1,1.911,5.437,3.591,3.591,0,0,1-.179,1.982Z" transform="translate(-298.848 -259.208)" fill="#3f3d56"/>
      <path id="Path_40876" data-name="Path 40876" d="M1026.681,842.5c-1.056,2.1-8.469.718-10,.6s-12.333-5.552-12.484-6.824-3.893-3.893-4.942-3.893-6.141-4.051-6.594-4.647a2.293,2.293,0,0,1-.151-.934c-.158-2.464.151-8.806.151-8.806l21.728,1.2,10.559,15.881a20.482,20.482,0,0,1,1.911,5.437,3.591,3.591,0,0,1-.179,1.982Z" transform="translate(-298.848 -259.208)" opacity="0.1"/>
      <path id="Path_40877" data-name="Path 40877" d="M1026.7,845.954c-1.056,2.1-8.469.718-10,.6s-12.333-5.552-12.484-6.824-3.893-3.893-4.942-3.893-6.141-4.051-6.594-4.647a2.293,2.293,0,0,1-.151-.934l7.039,4.453s4.5,2.873,5.7,4.575,10.652,5.243,11.435,5.315c.582.057,6.788-1.135,10.178-.632a3.591,3.591,0,0,1-.179,1.982Z" transform="translate(-298.865 -262.661)" opacity="0.1"/>
      <path id="Path_40878" data-name="Path 40878" d="M883.342,829.7s-3.074,3.821-7.183,4.116a4.231,4.231,0,0,0-4.195,4.044s.718,2.327-9.216,5.552c-6,1.932-9.769,1.322-11.966,0a5.344,5.344,0,0,1-2.492-3c-.675-2.392,12.584-20.6,12.584-20.6l12.067-.718,8.619,3.893,1.322,4.935Z" transform="translate(-258.223 -259.515)" fill="#3f3d56"/>
      <path id="Path_40879" data-name="Path 40879" d="M883.342,829.7s-3.074,3.821-7.183,4.116a4.231,4.231,0,0,0-4.195,4.044s.718,2.327-9.216,5.552c-6,1.932-9.769,1.322-11.966,0a5.344,5.344,0,0,1-2.492-3c-.675-2.392,12.584-20.6,12.584-20.6l12.067-.718,8.619,3.893,1.322,4.935Z" transform="translate(-258.223 -259.515)" opacity="0.1"/>
      <path id="Path_40880" data-name="Path 40880" d="M884.33,833.15s-3.074,3.821-7.183,4.116a4.231,4.231,0,0,0-4.195,4.044s.718,2.327-9.216,5.552c-6,1.932-9.769,1.322-11.966,0,5.653-.589,18.144-4.159,19.393-5.394,1.5-1.5,3.376-5.624,4.647-5.7.883-.057,5.373-2.758,8.066-4.432Z" transform="translate(-259.21 -262.966)" fill="none"/>
      <path id="Path_40881" data-name="Path 40881" d="M884.33,833.15s-3.074,3.821-7.183,4.116a4.231,4.231,0,0,0-4.195,4.044s.718,2.327-9.216,5.552c-6,1.932-9.769,1.322-11.966,0,5.653-.589,18.144-4.159,19.393-5.394,1.5-1.5,3.376-5.624,4.647-5.7.883-.057,5.373-2.758,8.066-4.432Z" transform="translate(-259.21 -262.966)" opacity="0.1"/>
      <path id="Path_40882" data-name="Path 40882" d="M979.954,743.536c-1.35,3.146,0,9.589,0,9.589s-20.112,1.049-25.025-2.248-8.389-22.18-8.389-22.18.718-22.173,0-23.222-3.448-5.99-2.55-7.039-.718-6.594-1.947-8.993-.718-9.287-.718-9.287l-3-18.287-4.64-21.721-3.943-14.538s-4.044-11.837-5.416-16.779-2.823-.453-2.823-.453c-.144,4.8-11.234,26.375-11.234,26.375s-1.652,13.037-3.448,17.677-3.749,20.83-3.749,20.83-2.873,32.962-5.243,38.507a84.946,84.946,0,0,0-4,13.784s.6,11.392-.9,12.29-1.257,7.793-1.257,7.793.9,6.587-2.55,7.643-2.873,3.3-2.873,3.3-19.178,3.146-22.324-5.251,1.2-10.631,1.437-11.234,2.629-1.645.531-4.051,2.694-8.986,2.694-8.986.754-9.287,2.1-9.589.905-13.784.905-13.784l1.494-14.085s1.954-31.468,1.5-32.667-.151-7.183,1.35-10.056,2.694-29.076,2.694-29.076-.3-12.879.9-15.278c.718-1.358,1.02-6.579,1.192-10.839.129-3.254.158-5.947.158-5.947l16.779-6.292L919.2,572.55l18.129,8.691,26.526,5.093.33,4.575,5.064,69.9,2.873,26.368s1.2,12.433,1.35,14.682,1.645,16.937,1.645,16.937,3.146,7.039,1.2,9.438-1.2,4.31-1.2,4.31S981.3,740.39,979.954,743.536Z" transform="translate(-262.313 -190.059)" fill="#3f3d56"/>
      <path id="Path_40883" data-name="Path 40883" d="M954.474,353.488c-1.652,2.37-1.781,5.437-1.228,8.476a21.074,21.074,0,0,1-25.549-.955h0c-.453-3.045-.977-5.279-.977-5.279S959.416,346.406,954.474,353.488Z" transform="translate(-280.325 -127.596)" opacity="0.1"/>
      <path id="Path_40884" data-name="Path 40884" d="M959.491,333.515a20.945,20.945,0,1,1-6.134-14.911A21.045,21.045,0,0,1,959.491,333.515Z" transform="translate(-277.7 -116.789)" fill="#c3a070"/>
      <path id="Path_40885" data-name="Path 40885" d="M934.823,350.271l-6.9,122.79L890.47,465.2l-7.42-49.224L890.4,349.89l5.531.711,9.754,1.243,9.661.6,10.473-1.164Z" transform="translate(-248.651 -98.571)" opacity="0.1"/>
      <path id="Path_40886" data-name="Path 40886" d="M934.823,351.523l-6.9,122.79-37.458-7.865-7.42-49.224L890.4,351.15l5.531.7,9.754,1.243,9.661.6,10.473-1.164Z" transform="translate(-248.651 -98.926)" fill="#335ca5"/>
      <path id="Path_40887" data-name="Path 40887" d="M939.23,396.3l13.489.453-3.793,5.308s.266,10.724,2.069,13.8,1.271,50.567,1.271,50.567l-3.591,6.816-6.141-7.642.079-62.706Z" transform="translate(-283.85 -140.405)" fill="#3f3d56"/>
      <path id="Path_40888" data-name="Path 40888" d="M939.23,396.3l13.489.453-3.793,5.308s.266,10.724,2.069,13.8,1.271,50.567,1.271,50.567l-3.591,6.816-6.141-7.642.079-62.706Z" transform="translate(-283.85 -140.405)" opacity="0.1"/>
      <path id="Path_40889" data-name="Path 40889" d="M936.734,336.86,924.15,350.795l7.19,7.492,11.916-11.615Z" transform="translate(-260.229 -94.9)" opacity="0.1"/>
      <path id="Path_40890" data-name="Path 40890" d="M936.734,335.61,924.15,349.545l7.19,7.492,11.916-11.615Z" transform="translate(-260.229 -94.548)" fill="#2f7ff4"/>
      <path id="Path_40891" data-name="Path 40891" d="M911.282,350.325,898.539,337.59l-1.2,6.666,5.847,14.61Z" transform="translate(-252.676 -95.106)" opacity="0.1"/>
      <path id="Path_40892" data-name="Path 40892" d="M911.9,349.075,899.17,336.34l-1.2,6.666,5.847,14.61Z" transform="translate(-252.854 -94.754)" fill="#2f7ff4"/>
      <path id="Path_40893" data-name="Path 40893" d="M971.289,590.939a62.178,62.178,0,0,1-19.393,5.61c-12.362,1.573-20.449-14.157-20.449-14.157l-4.719,6.141c-1.5,6.522-24.35,8.167-33.637,5.7a14.862,14.862,0,0,1-5.33-2.521c.129-3.254.158-5.947.158-5.947l16.779-6.292,21.548-6.888,18.129,8.691,26.526,5.093Z" transform="translate(-269.349 -190.067)" opacity="0.1"/>
      <path id="Path_40894" data-name="Path 40894" d="M961.788,391.571,954.9,514.353l-37.465-7.865L910,457.272l7.341-66.082,5.531.718a67.162,67.162,0,0,1-.812,7.183c-.9,4.2,4.647,34.018,4.647,34.018s10.537,33.436,15.278,28.616,11.492-30.268,11.492-30.268c4.575-9.438.079-35.914-.259-36.445a10.7,10.7,0,0,1-.431-2.406Z" transform="translate(-275.615 -138.966)" opacity="0.1"/>
      <path id="Path_40895" data-name="Path 40895" d="M1002.48,518.526l.316,12.031-3.462,3.139L997,504.57h5.172Z" transform="translate(-300.125 -170.907)" opacity="0.1"/>
      <path id="Path_40896" data-name="Path 40896" d="M891.156,493.1h0a16.706,16.706,0,0,1-.41,2.873c0-.266,0-.417-.057-.438C890.474,495.478,890.733,494.379,891.156,493.1Z" transform="translate(-270.153 -167.676)" opacity="0.1"/>
      <path id="Path_40897" data-name="Path 40897" d="M896.5,503.643l-2.363,29.1s-3.541-3.211-8.124-7.391l.546-5.157s1.932-12.67,2.636-18.919a11.552,11.552,0,0,0,1.235,2.363Z" transform="translate(-268.857 -169.981)" opacity="0.1"/>
      <path id="Path_40898" data-name="Path 40898" d="M911.729,376.337s-2.241-3.3-5.315,3.067c0,0-8.016,4.647-10.774,5.172s-12.57,3.972-12.57,3.972a8.677,8.677,0,0,1-5.093,1.645c-3.074,0-5.624,6.745-5.25,10.415s-.223,6.371-3.067,6.522-1.279,6.062-1.279,6.062l18.955,21.728s1.2,20,.6,20.607-2.772,6.464-2.248,6.666-2.873,22.324-2.873,22.324l-4.568,42.931s0,7.183,9.294,9.661,32.157.84,33.63-5.682l4.719-6.148s8.088,15.737,20.449,14.164a59.448,59.448,0,0,0,20.234-6.069l-1.35-51.45-.9-37.085,19.3-31.712s-5.172-9.891-4.719-14.366,1.343-7.865-9.668-9.438c0,0-9.287-1.386-14.761-5.172a42.19,42.19,0,0,0-10.559-5.315s-3.089-5.746-5.236-3.778c0,0,2.155,8.124,1.975,9.338a30.9,30.9,0,0,0,.675,7.269c.338.567,4.834,27.007.259,36.445,0,0-6.716,25.449-11.492,30.268s-15.278-28.616-15.278-28.616-5.545-29.823-4.647-34.018S911.729,376.337,911.729,376.337Z" transform="translate(-263.769 -134.306)" fill="#3f3d56"/>
      <circle id="Ellipse_1953" data-name="Ellipse 1953" cx="3.297" cy="3.297" r="3.297" transform="translate(660.695 333.663)" fill="#3f3d56"/>
      <circle id="Ellipse_1954" data-name="Ellipse 1954" cx="3.297" cy="3.297" r="3.297" transform="translate(660.695 349.206)" fill="#3f3d56"/>
      <circle id="Ellipse_1955" data-name="Ellipse 1955" cx="3.297" cy="3.297" r="3.297" transform="translate(660.695 333.663)" opacity="0.1"/>
      <circle id="Ellipse_1956" data-name="Ellipse 1956" cx="3.297" cy="3.297" r="3.297" transform="translate(660.695 349.206)" opacity="0.1"/>
      <path id="Path_40899" data-name="Path 40899" d="M992.47,804.34s13.532,1.049,14.875,2.1S992.47,804.34,992.47,804.34Z" transform="translate(-298.849 -255.359)" stroke="#6c63ff" stroke-width="1" opacity="0.1"/>
      <path id="Path_40900" data-name="Path 40900" d="M880.3,789.53s2.873,3.591,1.652,5.243S880.3,789.53,880.3,789.53Z" transform="translate(-267.248 -251.187)" stroke="#6c63ff" stroke-width="1" opacity="0.1"/>
      <path id="Path_40901" data-name="Path 40901" d="M885.1,806.8s5.243-3.448,7.341-1.156S885.1,806.8,885.1,806.8Z" transform="translate(-268.6 -255.505)" stroke="#6c63ff" stroke-width="1" opacity="0.1"/>
      <path id="Path_40902" data-name="Path 40902" d="M959.5,333.518a20.938,20.938,0,0,1-.675,5.322,2.392,2.392,0,0,1-1.393-2.342c.093-.855.661-1.638.539-2.485-.18-1.307-1.76-1.839-2.593-2.873-1.027-1.25-.8-3.067-.718-4.683s-.323-3.591-1.839-4.144c-.453-.165-.948-.18-1.386-.366-1.192-.5-1.559-1.982-2.356-3-1.595-2.054-4.762-2.011-7.183-1.034a34.14,34.14,0,0,1-3.232,1.35,4.223,4.223,0,0,1-3.383-.251c-.474-.3-.855-.718-1.343-1.02-1.623-.977-3.749,0-5.157,1.257s-2.536,2.945-4.31,3.714c-.8.359-1.781.575-2.155,1.35a2.83,2.83,0,0,0-.23,1.343c0,2.794.33,5.631-.251,8.368-.373,1.76-1.609,3.757-3.4,3.541a3.354,3.354,0,0,1-.654-.165,21.046,21.046,0,1,1,41.732-3.893Z" transform="translate(-277.705 -116.791)" opacity="0.1"/>
      <path id="Path_40903" data-name="Path 40903" d="M913.547,330.441c.539.122,1.049.4,1.6.474,1.788.215,3.024-1.781,3.4-3.541.582-2.737.28-5.574.259-8.368a2.736,2.736,0,0,1,.223-1.343c.409-.776,1.393-.991,2.155-1.35,1.738-.776,2.873-2.428,4.31-3.714s3.527-2.234,5.15-1.257c.481.287.869.718,1.343,1.02a4.31,4.31,0,0,0,3.39.251c1.113-.33,2.155-.912,3.225-1.35,2.4-.977,5.574-1.013,7.183,1.027.8,1.027,1.164,2.5,2.356,3,.438.187.934.208,1.386.373,1.516.567,1.9,2.528,1.839,4.144s-.28,3.433.718,4.683c.833,1.02,2.413,1.551,2.593,2.873.115.848-.445,1.638-.539,2.485a2.385,2.385,0,0,0,2.248,2.543c1.867,0,3.024-2.09,4.769-2.758a5.668,5.668,0,0,0,2.155-.891,2.378,2.378,0,0,0,.445-1.947c-.352-2.751-2.557-5.143-2.32-7.9.223-2.643,2.672-4.949,2.155-7.549a6.12,6.12,0,0,0-1.437-2.564,8.3,8.3,0,0,0-2.931-2.478,30.155,30.155,0,0,1-3.067-1.056c-2.715-1.487-2.708-5.366-4.31-8.009a7.032,7.032,0,0,0-6.551-3.261c-2.018.2-3.85,1.271-5.847,1.63-2.737.488-5.509-.409-8.1-1.437s-5.215-2.155-7.994-2.155-5.789,1.437-6.637,4.065c-.445,1.437-.223,2.974-.567,4.417-.6,2.564-2.873,4.389-5.157,5.66-1.573.876-3.462,1.882-3.649,3.67-.122,1.135.5,2.155.9,3.254a8.282,8.282,0,0,1-.043,5.746c-.524,1.358-1.4,2.55-1.932,3.9a7,7,0,0,0,.187,5.746,5.358,5.358,0,0,0,3.283,2.694C911.147,331.511,912.038,330.11,913.547,330.441Z" transform="translate(-274.414 -111.027)" fill="#3f3d56"/>
      <g id="Group_164204" data-name="Group 164204" transform="translate(631.32 198.021)" opacity="0.1">
        <path id="Path_40904" data-name="Path 40904" d="M918.545,337.739c-.374,1.76-1.616,3.757-3.4,3.541-.553-.072-1.056-.352-1.6-.474-1.5-.33-2.392,1.077-3.807.718a5.373,5.373,0,0,1-3.29-2.694,6.219,6.219,0,0,1-.668-2.349,6.558,6.558,0,0,0,.668,3.7,5.373,5.373,0,0,0,3.29,2.694c1.437.33,2.306-1.077,3.807-.718a16.239,16.239,0,0,0,1.6.467c1.789.223,3.031-1.774,3.4-3.534a20.758,20.758,0,0,0,.345-4.719A17.694,17.694,0,0,1,918.545,337.739Z" transform="translate(-905.733 -320.979)"/>
        <path id="Path_40905" data-name="Path 40905" d="M909.326,321.749a8.268,8.268,0,0,0-.474-3.469,18.343,18.343,0,0,1-.826-2.27,3.279,3.279,0,0,0-.072.366c-.122,1.128.51,2.155.9,3.254a8.234,8.234,0,0,1,.474,2.119Z" transform="translate(-906.354 -315.807)"/>
        <path id="Path_40906" data-name="Path 40906" d="M985.413,318.73c-.338,2.04-1.99,3.958-2.155,6.105a5.131,5.131,0,0,0,0,1.106C983.617,323.435,985.837,321.215,985.413,318.73Z" transform="translate(-927.565 -316.573)"/>
        <path id="Path_40907" data-name="Path 40907" d="M982.677,339.83a1.688,1.688,0,0,1-.409.8c-.531.567-1.437.611-2.155.891-1.745.668-2.873,2.78-4.769,2.758a2.406,2.406,0,0,1-2.155-1.666,3.738,3.738,0,0,0-.1.474,2.385,2.385,0,0,0,2.248,2.536c1.875,0,3.024-2.09,4.769-2.751.718-.28,1.595-.323,2.155-.891a2.378,2.378,0,0,0,.445-1.946C982.7,339.952,982.684,339.895,982.677,339.83Z" transform="translate(-924.707 -322.518)"/>
        <path id="Path_40908" data-name="Path 40908" d="M972.566,336.949c-.18-1.307-1.76-1.839-2.593-2.873a3.936,3.936,0,0,1-.79-2.356,5.3,5.3,0,0,0,.79,3.706c.826,1.006,2.083,1.437,2.485,2.471A2.305,2.305,0,0,0,972.566,336.949Z" transform="translate(-923.603 -320.233)"/>
        <path id="Path_40909" data-name="Path 40909" d="M956.459,324.923c.057-1.616-.33-3.591-1.846-4.144-.445-.165-.941-.187-1.379-.366-1.192-.5-1.566-1.982-2.356-3-1.6-2.047-4.769-2.011-7.183-1.034-1.077.438-2.1,1.02-3.225,1.35a4.223,4.223,0,0,1-3.383-.251c-.474-.3-.862-.718-1.343-1.02-1.63-.977-3.757,0-5.157,1.257s-2.536,2.938-4.31,3.714c-.8.359-1.781.575-2.2,1.35a2.822,2.822,0,0,0-.223,1.343v.84a2.039,2.039,0,0,1,.208-.833c.417-.776,1.393-.991,2.2-1.35,1.738-.776,2.873-2.428,4.31-3.714s3.527-2.234,5.157-1.257c.481.287.869.718,1.343,1.013a4.2,4.2,0,0,0,3.383.251,33.189,33.189,0,0,0,3.225-1.343c2.406-.977,5.574-1.02,7.183,1.027.79,1.02,1.164,2.5,2.356,3,.438.187.934.208,1.379.374,1.228.46,1.717,1.839,1.824,3.2Z" transform="translate(-910.836 -315.727)"/>
      </g>
      <g id="Group_164205" data-name="Group 164205" transform="translate(641.566 209.094)" opacity="0.1">
        <path id="Path_40910" data-name="Path 40910" d="M920,336.787a5.509,5.509,0,0,1,4.152-5.15,17.239,17.239,0,0,1,9.682.438c6.816,2.255-.862,10.372-.862,10.372s-5.107,5.028-9.869,1.516a7.463,7.463,0,0,1-2.78-4.31A10.991,10.991,0,0,1,920,336.787Z" transform="translate(-919.997 -331.144)"/>
        <path id="Path_40911" data-name="Path 40911" d="M965.638,336.787a5.509,5.509,0,0,0-4.159-5.15,17.238,17.238,0,0,0-9.675.438c-6.817,2.255.862,10.372.862,10.372s5.1,5.028,9.869,1.516a7.463,7.463,0,0,0,2.78-4.31,11,11,0,0,0,.323-2.866Z" transform="translate(-928.163 -331.144)"/>
        <path id="Path_40912" data-name="Path 40912" d="M910.5,291.455v.338h12.448v-.4Z" transform="translate(-897.95 -291.184)"/>
        <path id="Path_40913" data-name="Path 40913" d="M942.865,335.754h.4v-1.142a3.27,3.27,0,0,1,3.362,0v1.02h.718v-.668h-.352s.144-1.386-2.2-1.164c0,0-1.882-.18-1.839,1.013h-.431Z" transform="translate(-926.342 -331.885)"/>
      </g>
      <path id="Path_40914" data-name="Path 40914" d="M920,336.138a5.509,5.509,0,0,1,4.152-5.15,17.332,17.332,0,0,1,9.682.438c6.817,2.263-.862,10.372-.862,10.372s-5.107,5.028-9.869,1.516a7.42,7.42,0,0,1-2.78-4.31,10.92,10.92,0,0,1-.323-2.866Z" transform="translate(-278.431 -121.868)" fill="#2f7ff4"/>
      <path id="Path_40915" data-name="Path 40915" d="M965.638,336.138a5.509,5.509,0,0,0-4.159-5.15,17.3,17.3,0,0,0-9.675.438c-6.816,2.263.862,10.372.862,10.372s5.1,5.028,9.869,1.516a7.42,7.42,0,0,0,2.78-4.31A10.922,10.922,0,0,0,965.638,336.138Z" transform="translate(-286.597 -121.868)" fill="#2f7ff4"/>
      <path id="Path_40916" data-name="Path 40916" d="M910.5,290.825v.345h12.448v-.409Z" transform="translate(-256.384 -81.913)" fill="#6c63ff"/>
      <path id="Path_40917" data-name="Path 40917" d="M942.865,335.125h.4v-1.142a3.29,3.29,0,0,1,3.362,0v1.027h.718v-.675h-.352s.144-1.379-2.2-1.164c0,0-1.882-.172-1.839,1.013h-.431Z" transform="translate(-284.777 -122.614)" fill="#2f7ff4"/>
      <rect id="Rectangle_149501" data-name="Rectangle 149501" width="4.08" height="91.868" transform="translate(84.493 328.39)" fill="#535461"/>
      <path id="Path_40918" data-name="Path 40918" d="M164.091,622.309l-.259,4.137-.359,5.84-.151,2.435-.359,5.847L162.8,643l-.359,5.84-4.116,66.419A11.248,11.248,0,0,1,147.1,725.82h-21.39a11.241,11.241,0,0,1-11.219-10.558l-4.137-66.42L110,643l-.151-2.435-.352-5.861-.151-2.435-.359-5.84-.259-4.137a5.825,5.825,0,0,1,5.818-6.184H158.28a5.818,5.818,0,0,1,5.811,6.2Z" transform="translate(-49.875 -202.331)" fill="#3f3d56"/>
      <path id="Path_40919" data-name="Path 40919" d="M136.965,590.46l-.359,5.84H82.469l-.359-5.84Z" transform="translate(-23.008 -166.345)" fill="#9d9cb5"/>
      <path id="Path_40920" data-name="Path 40920" d="M136.655,601.98l-.359,5.847H83.186l-.366-5.847Z" transform="translate(-23.208 -169.59)" fill="#9d9cb5"/>
      <path id="Path_40921" data-name="Path 40921" d="M136.341,613.51l-.359,5.84H83.906l-.366-5.84Z" transform="translate(-23.411 -172.838)" fill="#9d9cb5"/>
      <path id="Path_40922" data-name="Path 40922" d="M79.844,538.042C103.6,555.231,113.5,582.123,113.5,582.123s-28.638-.984-52.434-18.172S27.41,519.87,27.41,519.87,56.076,520.854,79.844,538.042Z" transform="translate(-26.97 -175.218)" fill="#335ca5"/>
      <path id="Path_40923" data-name="Path 40923" d="M27.46,519.87s29.722,16.52,39.254,30.168,46.8,32.093,46.8,32.093" transform="translate(-26.984 -175.218)" fill="none" stroke="#5f96e6" stroke-width="2"/>
      <path id="Path_40924" data-name="Path 40924" d="M110.576,493.121c12.929,9.338,18.323,23.991,18.323,23.991s-15.587-.532-28.523-9.891S82.06,483.23,82.06,483.23,97.647,483.726,110.576,493.121Z" transform="translate(-42.366 -164.895)" fill="#335ca5"/>
      <path id="Path_40925" data-name="Path 40925" d="M82.06,483.18s16.176,8.978,21.362,16.413S128.9,517.061,128.9,517.061" transform="translate(-42.366 -164.881)" fill="none" stroke="#5f96e6" stroke-width="2"/>
      <path id="Path_40926" data-name="Path 40926" d="M166.38,520.9c-14.861,16.326-18,37.659-18,37.659s20.945-5.136,35.8-21.462,18-37.666,18-37.666S181.234,504.566,166.38,520.9Z" transform="translate(-61.05 -169.459)" fill="#335ca5"/>
      <path id="Path_40927" data-name="Path 40927" d="M202.179,499.43s-19.35,16.736-24.271,28.271-29.528,30.886-29.528,30.886" transform="translate(-61.05 -169.459)" fill="none" stroke="#5f96e6" stroke-width="2"/>
      <g id="Group_164221" data-name="Group 164221" transform="translate(-403.212 -409.464)">
        <g id="Group_4281" data-name="Group 4281" transform="translate(741.102 561.919)">
          <g id="Group_4280" data-name="Group 4280" transform="translate(0 0)">
            <g id="Group_4278" data-name="Group 4278" transform="translate(0)">
              <g id="Group_4277" data-name="Group 4277">
                <g id="Group_4276" data-name="Group 4276">
                  <g id="Group_4284" data-name="Group 4284" transform="translate(24.341)">
                    <path id="Path_6676" data-name="Path 6676" d="M689.677,564.136H665.86V546.351c0-14.7-4.128-39.38-31.772-39.38-28.662,0-31.763,27.547-31.763,39.38v17.781H578.5V546.351c0-38.509,21.825-63.4,55.585-63.4s55.584,24.89,55.584,63.4Z" transform="translate(-577.735 -482.193)" fill="#3f6dbe"/>
                    <path id="Path_5535" data-name="Path 5535" d="M690.2,564.656H664.86V546.111c0-14.424-4.03-38.62-31.013-38.62-27.981,0-31,27.007-31,38.62v18.541H577.495V546.111c0-38.975,22.117-64.158,56.345-64.158s56.344,25.184,56.344,64.158Zm-23.817-1.52h22.3l-.011-17.024c0-38.052-21.52-62.639-54.825-62.639s-54.826,24.587-54.826,62.638v17.021h22.309V546.111c0-6.6.906-16.2,5.22-24.478,5.413-10.392,14.6-15.661,27.3-15.661,12.444,0,21.5,4.9,26.916,14.566,4.643,8.284,5.617,18.479,5.617,25.573Z" transform="translate(-577.495 -481.953)" fill="#b2b2b2"/>
                  </g>
                  <path id="Rectangle_2120" data-name="Rectangle 2120" d="M20,0H140.923c20.655,0,19.144,16.744,19.144,37.4V91.753c0,20.655,1.512,37.4-19.144,37.4H21.522c-20.655,0-22.2-12.117-22.2-32.773L.4,37.4C.4,16.744-.659,0,20,0Z" transform="translate(0.676 80.421)" fill="#3f6dbe"/>
                  <rect id="Rectangle_2121" data-name="Rectangle 2121" width="159.669" height="85.074" transform="translate(1.074 102.46)" fill="#d7e7f5"/>
                  <path id="Path_5536" data-name="Path 5536" d="M688.422,717.461h-123.9a18.664,18.664,0,0,1-18.642-18.642V605.43a18.663,18.663,0,0,1,18.642-18.642h123.9a18.663,18.663,0,0,1,18.642,18.642v93.389A18.664,18.664,0,0,1,688.422,717.461Zm-123.9-129.153a17.141,17.141,0,0,0-17.122,17.122v93.389a17.142,17.142,0,0,0,17.122,17.122h123.9a17.142,17.142,0,0,0,17.122-17.122V605.43a17.141,17.141,0,0,0-17.122-17.122Z" transform="translate(-545.561 -507.127)" fill="#b2b2b2"/>
                  <path id="Path_5530" data-name="Path 5530" d="M725.013,593.062H723.2V708.783h1.812c9.222,0,16.7-8.728,16.7-19.495V612.556C741.713,601.79,734.237,593.062,725.013,593.062Z" transform="translate(-588.142 -508.633)" fill="#fff" opacity="0.097" style="mix-blend-mode: normal;isolation: isolate"/>
                  <path id="Path_5529" data-name="Path 5529" d="M639.116,683.541a7.684,7.684,0,1,0,15.367-.134V665.8a15.371,15.371,0,0,0,0-26.624h0A15.371,15.371,0,0,0,639.116,665.8v17.6Q639.114,683.473,639.116,683.541Z" transform="translate(-566.104 -519.212)" fill="#2a4c77"/>
                  <path id="Path_5531" data-name="Path 5531" d="M677.05,593.062H575.091A19.494,19.494,0,0,0,555.6,612.556v76.732a19.494,19.494,0,0,0,19.495,19.494H677.05Z" transform="translate(-547.895 -508.634)" fill="url(#linear-gradient-3)" style="mix-blend-mode: normal;isolation: isolate"/>
                </g>
                <rect id="Rectangle_2123" data-name="Rectangle 2123" width="22.796" height="6.079" transform="translate(25.681 74.264)" fill="#b2b2b2" opacity="0.213" style="mix-blend-mode: normal;isolation: isolate"/>
                <rect id="Rectangle_2124" data-name="Rectangle 2124" width="22.796" height="6.079" transform="translate(113.066 74.264)" fill="#b2b2b2" opacity="0.213" style="mix-blend-mode: normal;isolation: isolate"/>
              </g>
            </g>
          </g>
        </g>
        <path id="Path_5539" data-name="Path 5539" d="M-159.328-18.168H-271.993A21.542,21.542,0,0,0-293.535,3.373v84.79A21.542,21.542,0,0,0-271.993,109.7h112.665Z" transform="translate(1044.633 662.057)" opacity="0.15" fill="url(#linear-gradient-4)"/>
      </g>
    </g>
    <circle id="Ellipse_1961" data-name="Ellipse 1961" cx="12.134" cy="12.134" r="12.134" transform="translate(619.864 316.334)" fill="#3f6dbe"/>
    <circle id="Ellipse_1959" data-name="Ellipse 1959" cx="24.142" cy="24.142" r="24.142" transform="translate(844.188 631.26)" fill="#bbb"/>
    <rect id="Rectangle_3328" data-name="Rectangle 3328" width="21.808" height="21.808" rx="3.982" transform="translate(796.287 623.26) rotate(-45)" fill="#68a3f1" opacity="0.64"/>
    <rect id="Rectangle_149576" data-name="Rectangle 149576" width="21.808" height="21.808" rx="3.982" transform="translate(827.128 235.08) rotate(-45)" fill="#68a3f1" opacity="0.64"/>
    <rect id="Rectangle_149577" data-name="Rectangle 149577" width="21.808" height="21.808" rx="3.982" transform="translate(1332.456 313.579) rotate(-45)" fill="#3f6dbe"/>
    <rect id="Rectangle_149573" data-name="Rectangle 149573" width="36.552" height="36.552" rx="4.496" transform="translate(577.305 375.182) rotate(-45)" fill="#2e7ff4"/>
    <rect id="Rectangle_149575" data-name="Rectangle 149575" width="36.552" height="36.552" rx="4.496" transform="translate(1290.456 384.528) rotate(-45)" fill="#2e7ff4"/>
    <circle id="Ellipse_1958" data-name="Ellipse 1958" cx="10.965" cy="10.965" r="10.965" transform="translate(1268.527 317.07)" fill="none" stroke="#bbb" stroke-width="3"/>
    <rect id="Rectangle_149574" data-name="Rectangle 149574" width="30.571" height="30.571" rx="3.982" transform="translate(892.473 213.464) rotate(-45)" fill="#345ea1"/>
    <circle id="Ellipse_1960" data-name="Ellipse 1960" cx="10.965" cy="10.965" r="10.965" transform="translate(548.305 450.071)" fill="none" stroke="#bbb" stroke-width="3"/>
  </g>
</svg>
