<svg xmlns="http://www.w3.org/2000/svg" xmlns:xlink="http://www.w3.org/1999/xlink" width="146.5" height="150.68" viewBox="0 0 146.5 150.68"><defs><style>.a,.b,.c{fill:#cadff2;}.a{opacity:0.3;}.b{opacity:0.6;}.d,.f,.k,.m{fill:#fff;}.e{fill:#335ca5;}.g{fill:#9a9a9a;}.h{fill:#2f7ff4;}.i,.j{fill:none;}.i,.j,.k{stroke:#335ca5;}.i{stroke-width:3px;}.j,.k{stroke-width:2px;}.l,.m{stroke:none;}.n{filter:url(#a);}</style><filter id="a" x="26" y="36" width="99" height="71" filterUnits="userSpaceOnUse"><feOffset dx="2" dy="3" input="SourceAlpha"/><feGaussianBlur stdDeviation="3" result="b"/><feFlood flood-opacity="0.451"/><feComposite operator="in" in2="b"/><feComposite in="SourceGraphic"/></filter></defs><g transform="translate(464 -4625)"><g transform="translate(533 24)"><circle class="a" cx="71" cy="71" r="71" transform="translate(-995 4601)"/><circle class="b" cx="61" cy="61" r="61" transform="translate(-985 4611)"/><circle class="c" cx="51" cy="51" r="51" transform="translate(-975 4621)"/></g><g transform="translate(-513 -193)"><path class="d" d="M26.332,0H6.66A6.66,6.66,0,0,0,0,6.66V49.136A6.66,6.66,0,0,0,6.66,55.8H36.1a6.66,6.66,0,0,0,6.66-6.664v-32.7c0-2.585-.1-2.635-.912-3.843-.515-.767-3.965-4.624-4.638-5.26l-5.55-5.257A6.96,6.96,0,0,0,28.613.39,10.874,10.874,0,0,0,26.332,0Z" transform="translate(49 4834)"/><g transform="translate(49 4834)"><g transform="translate(0)"><rect class="e" width="24.915" height="3.678" transform="translate(8.703 22.047)"/><rect class="e" width="19.304" height="3.678" transform="translate(8.703 30.602)"/><rect class="e" width="19.304" height="3.678" transform="translate(8.703 39.154)"/><path class="e" d="M26.332,2.541a8.077,8.077,0,0,1,1.656.313,4.375,4.375,0,0,1,1.928,1.067l5.553,5.26c.6.562,3.827,4.183,4.274,4.826l.088.135c.131.192.293.434.337.491a13.886,13.886,0,0,1,.071,1.8v32.7a4.123,4.123,0,0,1-4.119,4.116H6.66a4.123,4.123,0,0,1-4.119-4.116V6.66A4.123,4.123,0,0,1,6.66,2.541H26.332m0-2.541H6.66A6.66,6.66,0,0,0,0,6.66V49.136A6.66,6.66,0,0,0,6.66,55.8H36.1a6.66,6.66,0,0,0,6.66-6.664v-32.7c0-2.585-.1-2.635-.912-3.843-.515-.767-3.965-4.624-4.638-5.26l-5.55-5.257A6.96,6.96,0,0,0,28.613.39,10.874,10.874,0,0,0,26.332,0Z" transform="translate(0)"/><path class="e" d="M78.36,6.017l.077,9.8A3.365,3.365,0,0,0,81.8,19.152H92.418L90.89,14.468,86,9.365,81.621,6Z" transform="translate(-51.988 -3.981)"/></g><g transform="translate(0)"><rect class="e" width="24.915" height="3.678" transform="translate(8.703 22.047)"/><rect class="e" width="19.304" height="3.678" transform="translate(8.703 30.602)"/><rect class="e" width="19.304" height="3.678" transform="translate(8.703 39.154)"/><path class="e" d="M26.332,2.541a8.077,8.077,0,0,1,1.656.313,4.375,4.375,0,0,1,1.928,1.067l5.553,5.26c.6.562,3.827,4.183,4.274,4.826l.088.135c.131.192.293.434.337.491a13.886,13.886,0,0,1,.071,1.8v32.7a4.123,4.123,0,0,1-4.119,4.116H6.66a4.123,4.123,0,0,1-4.119-4.116V6.66A4.123,4.123,0,0,1,6.66,2.541H26.332m0-2.541H6.66A6.66,6.66,0,0,0,0,6.66V49.136A6.66,6.66,0,0,0,6.66,55.8H36.1a6.66,6.66,0,0,0,6.66-6.664v-32.7c0-2.585-.1-2.635-.912-3.843-.515-.767-3.965-4.624-4.638-5.26l-5.55-5.257A6.96,6.96,0,0,0,28.613.39,10.874,10.874,0,0,0,26.332,0Z" transform="translate(0)"/><path class="e" d="M78.36,6.017l.077,9.8A3.365,3.365,0,0,0,81.8,19.152H92.418L90.89,14.468,86,9.365,81.621,6Z" transform="translate(-51.988 -3.981)"/></g></g></g><g transform="translate(3 -1)"><g transform="translate(-433.002 4738.997)"><g transform="translate(0.002 0.003)"><g class="f" transform="translate(-0.002 -0.003)"><path class="l" d="M 37.83898544311523 34.18363571166992 C 34.1516227722168 34.18363571166992 31.5707836151123 32.6601448059082 29.49703598022461 31.43599700927734 C 29.06679725646973 31.1820240020752 28.66040992736816 30.94212913513184 28.26535606384277 30.72771644592285 C 25.0799560546875 28.99970817565918 3.940659761428833 15.81344413757324 1.734311699867249 14.34078121185303 C -0.2621506154537201 13.02020454406738 -2.965356111526489 10.91226005554199 -3.430256366729736 7.854810237884521 C -3.612843036651611 6.654036521911621 -3.512829780578613 4.833716869354248 -1.999483108520508 2.980823278427124 C -0.5190697312355042 1.17099666595459 1.681783556938171 0.1754100322723389 4.19930362701416 0.1754100322723389 C 5.398350238800049 0.1754100322723389 6.654362678527832 0.3885861337184906 7.987979888916016 0.821265697479248 C 9.285652160644531 -0.591460108757019 11.23732089996338 -1.393229961395264 13.4166898727417 -1.393229961395264 C 15.43359279632568 -1.393229961395264 17.2893123626709 -0.9841126799583435 18.91184234619141 -0.1930505633354187 C 19.05371284484863 -0.2845593988895416 19.19731712341309 -0.3710834980010986 19.34282302856445 -0.4527633190155029 C 20.49959754943848 -1.102123260498047 21.76651763916016 -1.431376695632935 23.10839653015137 -1.431376695632935 C 25.31789016723633 -1.431376695632935 27.62467765808105 -0.6080566644668579 31.07052993774414 1.410396695137024 C 32.88590240478516 2.472979068756104 34.56106185913086 3.421481370925903 35.78861618041992 4.081868171691895 C 35.91263961791992 4.147060871124268 36.03119277954102 4.206486701965332 36.15644836425781 4.26927661895752 C 36.32250213623047 4.352516651153564 36.49422454833984 4.438596725463867 36.67739868164062 4.537716865539551 L 39.33760452270508 5.977306842803955 C 40.81409072875977 5.448529243469238 41.92544174194336 4.899497032165527 42.29626083374023 4.708905220031738 C 43.33540725708008 3.996365070343018 47.74598693847656 0.9817001819610596 49.34392929077148 0.04587669670581818 C 49.52206039428711 -0.05884047225117683 49.69857406616211 -0.1633095741271973 49.87387847900391 -0.2670699656009674 C 51.14999771118164 -1.022363305091858 52.46955871582031 -1.8033766746521 53.953369140625 -2.406909942626953 C 55.75602340698242 -3.14012336730957 57.53743743896484 -3.4965500831604 59.39941024780273 -3.4965500831604 C 61.4786376953125 -3.4965500831604 63.67407608032227 -3.056736707687378 66.11119842529297 -2.152003288269043 C 70.45461273193359 -0.5401232838630676 79.61254119873047 3.463143348693848 80.00027465820312 3.63278341293335 L 83.32066345214844 5.085450172424316 L 81.75308990478516 8.353170394897461 L 73.07369232177734 26.44589042663574 L 71.39834594726562 29.9382495880127 L 68.09310150146484 27.91863632202148 L 63.6900749206543 25.22823905944824 C 62.63283538818359 24.59486961364746 62.2669792175293 24.51347732543945 62.06632995605469 24.51347732543945 C 61.80191040039062 24.51347732543945 61.24167251586914 24.63210868835449 60.07410049438477 25.19709396362305 C 59.47077941894531 25.49031257629395 58.61782455444336 25.90631484985352 57.61977005004883 26.39308929443359 C 53.44108200073242 28.43112373352051 47.12903213500977 31.5096378326416 45.19042205810547 32.3852653503418 C 42.53712844848633 33.59540176391602 40.1324577331543 34.18363571166992 37.83898544311523 34.18363571166992 Z"/><path class="m" d="M 59.39942169189453 0.003459930419921875 C 56.05795288085938 0.003625869750976562 53.76360702514648 1.507923126220703 51.11266708374023 3.066070556640625 C 49.45899200439453 4.034507751464844 44.10824966430664 7.710306167602539 44.10824966430664 7.710306167602539 C 44.10824966430664 7.710306167602539 38.76355743408203 10.64608955383301 33.47674179077148 10.64608955383301 C 25.37901306152344 10.64608955383301 23.95377731323242 11.07852554321289 23.95377731323242 13.51485252380371 C 23.95377731323242 16.1826171875 29.23450469970703 16.37752532958984 29.25581359863281 16.37752532958984 L 42.25054168701172 16.37752532958984 C 46.66637420654297 16.37752532958984 52.8637580871582 13.98688888549805 52.8637580871582 13.98688888549805 C 52.8637580871582 13.98688888549805 47.61350250244141 19.24628829956055 42.25054168701172 19.24628829956055 L 29.23754119873047 19.24628829956055 C 26.34745025634766 19.18843460083008 20.90532302856445 17.92457962036133 20.91750335693359 13.53312492370605 C 20.91750335693359 7.79557991027832 26.46623229980469 7.79557991027832 33.48892211914062 7.79557991027832 C 34.00121307373047 7.786470413208008 34.51130294799805 7.72627067565918 35.01163101196289 7.615907669067383 C 34.75275802612305 7.47581672668457 34.47868728637695 7.347906112670898 34.14368438720703 7.171270370483398 C 32.89203262329102 6.498252868652344 31.21095657348633 5.548088073730469 29.3015022277832 4.430416107177734 C 26.68450927734375 2.897464752197266 24.73282623291016 2.068443298339844 23.10840606689453 2.068611145019531 C 21.62510299682617 2.068763732910156 20.41458892822266 2.760292053222656 19.22121429443359 4.238561630249023 C 17.479248046875 2.563579559326172 15.28961181640625 2.106779098510742 13.41668701171875 2.106779098510742 C 11.30014038085938 2.106779098510742 9.506393432617188 3.410215377807617 10.01194000244141 5.54197883605957 C 7.543975830078125 4.173351287841797 5.647132873535156 3.675405502319336 4.199302673339844 3.675405502319336 C 2.454490661621094 3.675405502319336 1.362030029296875 4.399257659912109 0.7112655639648438 5.194816589355469 C -0.8632049560546875 7.122543334960938 0.2118301391601562 9.13859748840332 3.671409606933594 11.42570686340332 C 5.876266479492188 12.89967155456543 26.9595947265625 26.03752517700195 29.93494033813477 27.65159797668457 C 32.28726196289062 28.92833518981934 34.46071243286133 30.68362426757812 37.8389778137207 30.68362426757812 C 39.47289276123047 30.68362426757812 41.38894271850586 30.2728271484375 43.74279403686523 29.19865226745605 C 46.09079360961914 28.13885307312012 55.50108337402344 23.52812576293945 58.54648590087891 22.04805374145508 C 60.01064300537109 21.33927536010742 61.08839416503906 21.01347351074219 62.06631469726562 21.01347351074219 C 63.19769668579102 21.01347351074219 64.19538879394531 21.44975852966309 65.50217437744141 22.23383331298828 L 69.91801452636719 24.93205261230469 L 78.59739685058594 6.839324951171875 C 78.59739685058594 6.839324951171875 69.19319152832031 2.724998474121094 64.89310455322266 1.12919807434082 C 62.73961639404297 0.3297500610351562 60.95610809326172 0.003381729125976562 59.39942169189453 0.003459930419921875 M 59.3990478515625 -6.996547698974609 L 59.39910125732422 -6.996547698974609 C 61.90128326416016 -6.996658325195312 64.49526977539062 -6.485294342041016 67.32929992675781 -5.433185577392578 C 71.74430084228516 -3.794746398925781 81.40312194824219 0.4262161254882812 81.40312194824219 0.4262161254882812 L 88.0478515625 3.330015182495117 L 84.90876007080078 9.866998672485352 L 76.22937774658203 27.95972442626953 L 72.87868499755859 34.94445419311523 L 66.26821136474609 30.90523338317871 L 61.85237503051758 28.20701599121094 L 59.15512084960938 29.53834342956543 C 55.05154037475586 31.53974342346191 48.53328704833984 34.71641540527344 46.62257385253906 35.57885360717773 C 43.52777481079102 36.99123382568359 40.64601135253906 37.68361663818359 37.8389778137207 37.68361663818359 C 33.19564819335938 37.68361663818359 29.89917755126953 35.73768997192383 27.71783065795898 34.45003509521484 L 26.59575653076172 33.8038330078125 C 23.36473846435547 32.05105209350586 1.962051391601562 18.70308876037598 -0.2188949584960938 17.2451057434082 C -1.660240173339844 16.29236221313477 -6.137626647949219 13.3323802947998 -6.890495300292969 8.38090705871582 C -7.299240112304688 5.692724227905273 -6.524932861328125 2.988653182983398 -4.710243225097656 0.7667980194091797 C -2.550895690917969 -1.873020172119141 0.6120681762695312 -3.324600219726562 4.199302673339844 -3.324600219726562 C 5.154266357421875 -3.324600219726562 6.125785827636719 -3.224800109863281 7.119720458984375 -3.023399353027344 C 8.890869140625 -4.231182098388672 11.07420349121094 -4.893218994140625 13.41668701171875 -4.893218994140625 C 15.30800628662109 -4.893218994140625 17.09628677368164 -4.605503082275391 18.74472808837891 -4.044166564941406 C 20.35017013549805 -4.728176116943359 21.86968612670898 -4.931266784667969 23.10772323608398 -4.931385040283203 C 26.6761589050293 -4.931747436523438 29.89390182495117 -3.335094451904297 32.83955764770508 -1.609638214111328 C 34.66008377075195 -0.5440025329589844 36.26412200927734 0.3636703491210938 37.45875930786133 1.006015777587891 L 39.55649185180664 2.133974075317383 C 40.04664993286133 1.922439575195312 40.4472541809082 1.728603363037109 40.71882247924805 1.584930419921875 C 40.77053833007812 1.512456893920898 45.92077255249023 -2.005439758300781 47.57523345947266 -2.974346160888672 C 50.88916015625 -4.935039520263672 54.37179565429688 -6.996273040771484 59.3990478515625 -6.996547698974609 Z"/></g></g></g><g transform="translate(-433.002 4738.997)"><g transform="translate(0.002 0.003)"><path class="g" d="M.711,5.195c1.191-1.456,3.859-2.671,9.3.347-.506-2.132,1.288-3.435,3.4-3.435a8.161,8.161,0,0,1,5.8,2.132c2.5-3.1,5.074-2.741,10.08.192,1.909,1.118,3.591,2.068,4.842,2.741.335.177.609.3.868.445a7.7,7.7,0,0,1-1.523.18c-7.023,0-12.571,0-12.571,5.738-.012,4.391,5.43,5.655,8.32,5.713H42.251c5.363,0,10.613-5.259,10.613-5.259s-6.2,2.391-10.613,2.391H29.256c-.021,0-5.3-.195-5.3-2.863,0-2.436,1.425-2.869,9.523-2.869,5.287,0,10.631-2.936,10.631-2.936s5.351-3.676,7-4.644c3.886-2.284,7-4.452,13.78-1.937,4.3,1.6,13.7,5.71,13.7,5.71L69.918,24.932l-4.416-2.7c-2.436-1.462-3.8-1.715-6.956-.186-3.045,1.48-12.456,6.091-14.8,7.151-7.221,3.3-10.318.347-13.808-1.547C26.96,26.038,5.876,12.9,3.671,11.426.212,9.139-.863,7.123.711,5.195Z" transform="translate(-0.002 -0.003)"/></g></g></g><g transform="translate(16.5 -0.5)"><rect class="h" width="35.5" height="42.5" transform="translate(-376.5 4673) rotate(-90)"/><g transform="translate(-368.211 4648.394)"><path class="d" d="M1294.538,422.173c-6.026,0-8.538.832-8.538,1.491v11.08c0,.643,2.511,1.491,8.538,1.491s8.538-.832,8.538-1.491v-11.08C1303.076,423.02,1300.564,422.173,1294.538,422.173Z" transform="translate(-1286 -422.173)"/><path class="d" d="M1325.536,422.389,1319,426.581a1.008,1.008,0,0,0-.4.8v3.655a1.006,1.006,0,0,0,.4.8l6.537,4.205c.177.134,1.05.565,1.05-.8V423.191C1326.586,421.928,1325.838,422.159,1325.536,422.389Z" transform="translate(-1300.52 -422.189)"/></g></g><g transform="translate(-3 5)"><g class="n" transform="matrix(1, 0, 0, 1, -461, 4620)"><rect class="d" width="81" height="53" transform="translate(33 42)"/></g><rect class="g" width="44" height="3" transform="translate(-402 4674)"/><rect class="g" width="44" height="3" transform="translate(-402 4688)"/><rect class="g" width="44" height="3" transform="translate(-402 4702)"/><path class="i" d="M561.623,408.288l3.066,3.056,4.912-6.657" transform="translate(-980.699 4265.655)"/><path class="i" d="M561.623,408.288l3.066,3.056,4.912-6.657" transform="translate(-980.699 4279.655)"/><path class="i" d="M561.623,408.288l3.066,3.056,4.912-6.657" transform="translate(-980.699 4293.655)"/></g><g transform="translate(-410 4626)"><circle class="e" cx="5" cy="5" r="5" transform="translate(14.5)"/><path class="j" d="M19.5,4.55v22"/><circle class="e" cx="5" cy="5" r="5" transform="translate(29 8)"/><circle class="e" cx="5" cy="5" r="5" transform="translate(0 8)"/><path class="j" d="M4.72,13.31,19.28,26.73"/><path class="j" d="M33.89,13.31,19.31,27.06"/><circle class="k" cx="5.5" cy="5.5" r="5.5" transform="translate(14 20.5)"/></g></g></svg>