<svg xmlns="http://www.w3.org/2000/svg" xmlns:xlink="http://www.w3.org/1999/xlink" width="606.56" height="95" viewBox="0 0 606.56 95"><defs><style>.a,.af,.ah,.c,.k,.r,.v,.w,.y{fill:none;}.a,.c{stroke:#afafaf;}.a,.af,.c,.g,.o,.r,.s,.v,.y{stroke-width:2px;}.a{stroke-dasharray:6;}.b{fill:#afafaf;}.aa,.d,.e,.f,.o{fill:#cadff2;}.d{opacity:0.3;}.e{opacity:0.6;}.ab,.ad,.ae,.ai,.g,.n{fill:#fff;}.ac,.ad,.af,.g,.o,.r,.s,.y{stroke:#335ca5;}.ac,.h,.x{fill:#335ca5;}.i,.m{fill:#d6d6d6;}.i{stroke:#d6d6d6;}.j{fill:#70c0fc;}.ab,.k,.v,.w{stroke:#fff;}.l{fill:#9a9a9a;}.ab,.ac,.ad,.o,.r,.s,.v,.w,.y{stroke-linecap:round;stroke-linejoin:round;}.p{opacity:0.4;}.q{fill:#528cc6;}.s{fill:rgba(0,0,0,0);}.t{fill:#2f7ff4;}.u{opacity:0.15;}.ac,.ad,.w{stroke-width:3px;}.ab,.ac,.ad,.y{stroke-miterlimit:10;}.z{opacity:0.2;}.aa{opacity:0.8;}.ab{stroke-width:8px;}.ag,.ai{stroke:none;}.aj{filter:url(#k);}.ak{filter:url(#i);}.al{filter:url(#g);}.am{filter:url(#e);}.an{filter:url(#c);}.ao{filter:url(#a);}</style><filter id="a" x="7" y="5" width="89" height="31" filterUnits="userSpaceOnUse"><feOffset dx="1" dy="3" input="SourceAlpha"/><feGaussianBlur stdDeviation="3" result="b"/><feFlood flood-opacity="0.349"/><feComposite operator="in" in2="b"/><feComposite in="SourceGraphic"/></filter><filter id="c" x="7" y="34" width="89" height="30" filterUnits="userSpaceOnUse"><feOffset dx="1" dy="3" input="SourceAlpha"/><feGaussianBlur stdDeviation="3" result="d"/><feFlood flood-opacity="0.349"/><feComposite operator="in" in2="d"/><feComposite in="SourceGraphic"/></filter><filter id="e" x="7" y="48" width="89" height="31" filterUnits="userSpaceOnUse"><feOffset dx="1" dy="3" input="SourceAlpha"/><feGaussianBlur stdDeviation="3" result="f"/><feFlood flood-opacity="0.349"/><feComposite operator="in" in2="f"/><feComposite in="SourceGraphic"/></filter><filter id="g" x="557.547" y="41.46" width="49.013" height="48.797" filterUnits="userSpaceOnUse"><feOffset dx="-2" dy="3" input="SourceAlpha"/><feGaussianBlur stdDeviation="2" result="h"/><feFlood flood-opacity="0.302"/><feComposite operator="in" in2="h"/><feComposite in="SourceGraphic"/></filter><filter id="i" x="350" y="14" width="66" height="66" filterUnits="userSpaceOnUse"><feOffset dx="-2" dy="3" input="SourceAlpha"/><feGaussianBlur stdDeviation="2" result="j"/><feFlood flood-opacity="0.302"/><feComposite operator="in" in2="j"/><feComposite in="SourceGraphic"/></filter><filter id="k" x="184" y="20" width="68" height="50" filterUnits="userSpaceOnUse"><feOffset dx="2" dy="3" input="SourceAlpha"/><feGaussianBlur stdDeviation="3" result="l"/><feFlood flood-opacity="0.451"/><feComposite operator="in" in2="l"/><feComposite in="SourceGraphic"/></filter></defs><g transform="translate(747 -4895)"><g transform="translate(-638.343 4932.941)"><path class="a" d="M3405.068,3398.015h40.062" transform="translate(-3399.867 -3392.777)"/><circle class="b" cx="2.5" cy="2.5" r="2.5" transform="translate(0.343 2.058)"/><path class="c" d="M3444.525,3392l5.207,5.207-5.207,5.206" transform="translate(-3404.09 -3392)"/></g><g transform="translate(-465.503 4932.941)"><path class="a" d="M3405.068,3398.015h40.062" transform="translate(-3399.398 -3392.777)"/><ellipse class="b" cx="3.5" cy="3" rx="3.5" ry="3" transform="translate(-0.497 2.058)"/><path class="c" d="M3444.525,3392l5.207,5.207-5.207,5.206" transform="translate(-3403.621 -3392)"/></g><g transform="translate(-292.662 4932.941)"><path class="a" d="M3405.068,3398.015h40.062" transform="translate(-3398.928 -3392.777)"/><ellipse class="b" cx="3.5" cy="3" rx="3.5" ry="3" transform="translate(-0.338 2.058)"/><path class="c" d="M3444.525,3392l5.207,5.207-5.207,5.206" transform="translate(-3403.151 -3392)"/></g><g transform="translate(-266.646 298.354)"><g transform="translate(-480 4597)"><circle class="d" cx="44" cy="44" r="44" transform="translate(-0.354 -0.354)"/><circle class="e" cx="38" cy="38" r="38" transform="translate(5.646 5.646)"/><circle class="f" cx="31.5" cy="31.5" r="31.5" transform="translate(11.646 11.646)"/></g><g transform="translate(-470.04 4607.956)"><g transform="translate(4.98 0)"><g class="ao" transform="matrix(1, 0, 0, 1, -15.29, -11.31)"><g class="g" transform="translate(15 11)"><rect class="ag" width="71" height="13"/><rect class="ah" x="1" y="1" width="69" height="11"/></g></g><circle class="h" cx="2.5" cy="2.5" r="2.5" transform="translate(4.706 3.69)"/><g class="i" transform="translate(13.706 4.69)"><rect class="ag" width="31" height="4" rx="2"/><rect class="ah" x="0.5" y="0.5" width="30" height="3" rx="1.5"/></g><g transform="translate(60.754 3.984)"><circle class="j" cx="3" cy="3" r="3" transform="translate(-0.048 -0.294)"/><path class="k" d="M561.623,406.25l1.33,1.326,2.131-2.888" transform="translate(-560.336 -403.394)"/></g></g><g transform="translate(4.98 28.883)"><g class="an" transform="matrix(1, 0, 0, 1, -15.29, -40.19)"><g class="g" transform="translate(15 40)"><rect class="ag" width="71" height="12"/><rect class="ah" x="1" y="1" width="69" height="10"/></g></g><circle class="h" cx="2.5" cy="2.5" r="2.5" transform="translate(4.706 3.807)"/><g class="i" transform="translate(13.706 4.807)"><rect class="ag" width="31" height="4" rx="2"/><rect class="ah" x="0.5" y="0.5" width="30" height="3" rx="1.5"/></g><g transform="translate(60.754 2.988)"><ellipse class="j" cx="3" cy="3.5" rx="3" ry="3.5" transform="translate(-0.048 -0.181)"/><path class="k" d="M561.623,406.25l1.33,1.326,2.131-2.888" transform="translate(-560.336 -402.935)"/></g></g><g transform="translate(4.98 42.827)"><g class="am" transform="matrix(1, 0, 0, 1, -15.29, -54.14)"><g class="g" transform="translate(15 54)"><rect class="ag" width="71" height="13"/><rect class="ah" x="1" y="1" width="69" height="11"/></g></g><circle class="h" cx="2.5" cy="2.5" r="2.5" transform="translate(4.706 3.863)"/><g class="i" transform="translate(13.706 4.863)"><rect class="ag" width="31" height="4" rx="2"/><rect class="ah" x="0.5" y="0.5" width="30" height="3" rx="1.5"/></g><g transform="translate(60.754 2.988)"><ellipse class="j" cx="3" cy="3.5" rx="3" ry="3.5" transform="translate(-0.048 -0.125)"/><path class="k" d="M561.623,406.25l1.33,1.326,2.131-2.888" transform="translate(-560.336 -402.706)"/></g></g><g transform="translate(0 14.94)"><rect class="l" width="70" height="12" transform="translate(-0.314 -0.25)"/><circle class="m" cx="2.5" cy="2.5" r="2.5" transform="translate(2.686 3.75)"/><rect class="m" width="30" height="3" rx="1.5" transform="translate(13.686 3.75)"/><g transform="translate(61.647 4.222)"><path class="k" d="M-383.129,4549l4.226,4.227" transform="translate(383.129 -4549)"/><path class="k" d="M0,0,4.226,4.226" transform="translate(4.226 0) rotate(90)"/></g></g></g><g transform="translate(-477.535 4640.394)"><path class="n" d="M23.771,9.871c-1.9-1.9-4.2-1.949-5.713-.436-.919.919-1.309,1.423-2.856,1.423-1.276,0-2.8-1.766-2.8-1.766L1,20.492l4.588,4.59-.947.946a2.846,2.846,0,1,0,4.021,4.03l-1,1A2.846,2.846,0,1,0,11.69,35.08l1-1A2.846,2.846,0,1,0,16.719,38.1l.789-.792a2.846,2.846,0,1,0,4.032,4.017l.884-.887.884.887a2.838,2.838,0,0,0,4.178-3.835l.016-.018.631.631a2.846,2.846,0,0,0,4.023-4.025l1.005,1.007a2.848,2.848,0,0,0,4.026-4.028l-2.467-2.467v0l1.464,1.465a2.846,2.846,0,0,0,4.025-4.025l-.946-.946,4.429-4.428L31.038,8h-3A6.4,6.4,0,0,0,23.771,9.871Z" transform="translate(-1 -8)"/><path class="o" d="M47.713,26.028l-9.556-9.56c-1.737-1.736-3.655-1.9-5.7.148l-.6.589a2.846,2.846,0,1,1-4.024-4.025l2.014-2.01C32.17,8.844,33.492,8,35.448,8h3.088L51.193,20.65,46.76,25.083" transform="translate(-8.499 -8)"/><g transform="translate(2.81 15.118)"><path class="o" d="M11.817,34.168a2.846,2.846,0,1,0-4.023-4.024l-2.01,2.012a2.846,2.846,0,1,0,4.024,4.026Z" transform="translate(-4.95 -29.246)"/><path class="o" d="M17.066,39.849a2.847,2.847,0,0,0-4.026-4.025L10.024,38.84a2.846,2.846,0,1,0,4.024,4.025Zm4.023,4.025a2.846,2.846,0,0,0-4.023-4.025l-2.012,2.012a2.846,2.846,0,0,0,4.024,4.023Z" transform="translate(-6.172 -30.902)"/><path class="o" d="M28.886,51.468a2.846,2.846,0,1,0-4.026-4.025l-.991.991a2.846,2.846,0,1,0,4.024,4.026Z" transform="translate(-10.166 -34.254)"/></g><g class="p" transform="translate(2.858 3.882)"><path class="q" d="M14.569,35.652l1.238-1.239-1.245,1.245-.1.1.008-.006Zm9.739,6.357-1,.991-.007.009,1-1Zm8.3-3.749-.131.274c1.146.987,2.364,2.061,3,2.7,1.336,1.336-.463,3.926-3.043,4.827a2.846,2.846,0,0,0,3.6-4.367Z" transform="translate(-7.74 -19.5)"/><path class="q" d="M29.2,40.171c-1.219,1.829-4,1.048-4.772.783l-.525.526a2.841,2.841,0,0,1-3.317-4.519l-.794.8-.011.009a2.846,2.846,0,0,1-4.018-4.03l.1-.105,1.911-1.912-1.916,1.916-.1.1-1.013,1.016a2.846,2.846,0,0,1-4.018-4.028l.433-.434.569-.569a2.846,2.846,0,0,1-4.013-4.034L5.8,27.6A2.846,2.846,0,0,0,9.82,31.632l-1,1a2.846,2.846,0,1,0,4.024,4.025l1-1a2.846,2.846,0,1,0,4.029,4.021l.789-.792A2.846,2.846,0,1,0,22.7,42.9l.884-.887.884.887a2.837,2.837,0,0,0,4.753-2.732Zm.712-26.328c-1.423-1.423-3.558,1.423-5.693,2.846-1.9,1.269-3.237.276-3.505-.458a2.846,2.846,0,0,0,4.805,2.55l2.53-2.531L40.421,26.656l2.084-2.084C39,21.647,31.017,14.949,29.91,13.843Z" transform="translate(-5.017 -13.455)"/></g><path class="r" d="M39.826,26.189l3.862,3.865a2.846,2.846,0,0,0,4.025-4.025l-9.556-9.56c-1.737-1.736-3.655-1.9-5.7.148l-.6.589a2.846,2.846,0,1,1-4.024-4.025l2.014-2.01C32.17,8.844,33.492,8,35.448,8h3.088L51.193,20.65,46.76,25.083" transform="translate(-8.499 -8)"/><path class="r" d="M43.557,33.56l4.87,4.867A2.848,2.848,0,0,1,44.4,42.455l-4.44-4.442" transform="translate(-12.237 -15.372)"/><path class="r" d="M38.908,39.819l3.433,3.435a2.846,2.846,0,1,1-4.022,4.023l-2.012-2.012" transform="translate(-11.184 -17.177)"/><path class="r" d="M26.344,36.454l.989.991A2.846,2.846,0,0,1,23.31,41.47l-.989-.992M5.59,25.23,1,20.64l11.4-11.4S13.917,11,15.192,11c1.547,0,1.926-.5,2.846-1.423,1.511-1.513,3.786-1.468,5.693.436" transform="translate(-1 -8.147)"/><path class="s" d="M11.817,34.168a2.846,2.846,0,1,0-4.023-4.024l-2.01,2.012a2.846,2.846,0,1,0,4.024,4.026Z" transform="translate(-2.139 -14.128)"/><path class="s" d="M17.066,39.849a2.847,2.847,0,0,0-4.026-4.025L10.024,38.84a2.846,2.846,0,1,0,4.024,4.025Zm4.023,4.025a2.846,2.846,0,0,0-4.023-4.025l-2.012,2.012a2.846,2.846,0,0,0,4.024,4.023Z" transform="translate(-3.362 -15.784)"/><path class="s" d="M28.886,51.468a2.846,2.846,0,1,0-4.026-4.025l-.991.991a2.846,2.846,0,1,0,4.024,4.026Z" transform="translate(-7.356 -19.136)"/></g></g><g transform="translate(231 271)"><g transform="translate(-460 4624)"><circle class="d" cx="44" cy="44" r="44"/><circle class="e" cx="38" cy="38" r="38" transform="translate(6 6)"/><circle class="f" cx="31.5" cy="31.5" r="31.5" transform="translate(12 12)"/></g><g transform="translate(-450.975 4633.729)"><path class="t" d="M6,2H29.678V12.047A19.113,19.113,0,0,1,17.836,29.321,19.111,19.111,0,0,1,6,12.047Z" transform="translate(-6 -2)"/><path class="u" d="M6,2V12.047A19.111,19.111,0,0,0,17.836,29.321h0V2Z" transform="translate(-6 -2)"/><path class="v" d="M6,2H29.678V12.047A19.113,19.113,0,0,1,17.836,29.321,19.111,19.111,0,0,1,6,12.047Z" transform="translate(-6 -2)"/><path class="w" d="M22,23.187l4.1,4.1L32.928,20" transform="translate(-14.714 -11.804)"/></g><g class="x" transform="translate(-7027.413 1102.638)"><path class="ag" d="M 6611.2265625 3584.5966796875 L 6611.1806640625 3584.5966796875 L 6611.13671875 3584.5966796875 C 6611.03076171875 3584.5966796875 6610.92578125 3584.595947265625 6610.82080078125 3584.594970703125 C 6610.75927734375 3584.594482421875 6610.69775390625 3584.593994140625 6610.63671875 3584.59375 C 6610.59765625 3584.59375 6610.5576171875 3584.593505859375 6610.52001953125 3584.5927734375 C 6606.6904296875 3584.560546875 6603.06396484375 3584.22412109375 6599.74072265625 3583.593017578125 L 6599.74072265625 3583.58544921875 C 6596.05517578125 3582.88427734375 6592.861328125 3581.840576171875 6590.5029296875 3580.566650390625 C 6587.787109375 3579.099609375 6586.41015625 3577.464111328125 6586.41015625 3575.70556640625 C 6586.41015625 3575.45361328125 6586.40966796875 3574.4287109375 6586.4091796875 3573.40283203125 C 6586.40869140625 3572.374755859375 6586.408203125 3571.345947265625 6586.408203125 3571.0927734375 C 6586.408203125 3567.858642578125 6590.4658203125 3565.7548828125 6592.998046875 3564.757568359375 C 6591.55029296875 3562.8701171875 6590.67822265625 3560.382568359375 6590.67822265625 3558.038330078125 C 6590.67822265625 3555.236572265625 6591.80859375 3553.519775390625 6592.75634765625 3552.5732421875 C 6594.02490234375 3551.306396484375 6595.77197265625 3550.60888671875 6597.67578125 3550.60888671875 L 6597.6845703125 3550.60888671875 L 6597.6923828125 3550.60888671875 C 6599.59716796875 3550.60888671875 6601.34375 3551.307373046875 6602.609375 3552.575439453125 C 6602.75341796875 3552.71923828125 6602.90087890625 3552.880859375 6603.04833984375 3553.061279296875 C 6603.2255859375 3550.855224609375 6604.04248046875 3548.974365234375 6605.4375 3547.58154296875 C 6606.908203125 3546.11279296875 6608.9365234375 3545.302001953125 6611.14990234375 3545.296875 L 6611.150390625 3545.296875 L 6611.1708984375 3545.296875 L 6611.22119140625 3545.296875 L 6611.22216796875 3545.296875 C 6613.43212890625 3545.30419921875 6615.45654296875 3546.11474609375 6616.92529296875 3547.58154296875 C 6618.3203125 3548.974609375 6619.13720703125 3550.85546875 6619.31396484375 3553.0615234375 C 6619.46142578125 3552.880859375 6619.609375 3552.71923828125 6619.7529296875 3552.5751953125 C 6621.01904296875 3551.30712890625 6622.765625 3550.60888671875 6624.669921875 3550.60888671875 L 6624.6787109375 3550.60888671875 L 6624.6875 3550.60888671875 C 6626.5908203125 3550.60888671875 6628.337890625 3551.306396484375 6629.6064453125 3552.5732421875 C 6630.55419921875 3553.52001953125 6631.6845703125 3555.236572265625 6631.6845703125 3558.038330078125 C 6631.6845703125 3560.382080078125 6630.8125 3562.869384765625 6629.36474609375 3564.757080078125 C 6631.89599609375 3565.75439453125 6635.9541015625 3567.858642578125 6635.9541015625 3571.0927734375 C 6635.9541015625 3571.345947265625 6635.95361328125 3572.37451171875 6635.95361328125 3573.40234375 C 6635.953125 3574.428466796875 6635.953125 3575.45361328125 6635.953125 3575.70556640625 C 6635.953125 3577.464111328125 6634.576171875 3579.099609375 6631.85986328125 3580.566650390625 C 6629.50146484375 3581.840576171875 6626.3076171875 3582.88427734375 6622.6220703125 3583.58544921875 L 6622.6220703125 3583.593017578125 C 6619.29931640625 3584.22412109375 6615.6728515625 3584.560546875 6611.8427734375 3584.5927734375 C 6611.80419921875 3584.593505859375 6611.76513671875 3584.59375 6611.7265625 3584.59375 C 6611.6650390625 3584.593994140625 6611.603515625 3584.594482421875 6611.5419921875 3584.594970703125 C 6611.43701171875 3584.595947265625 6611.33251953125 3584.5966796875 6611.2265625 3584.5966796875 Z M 6604.4970703125 3559.9541015625 C 6604.2373046875 3561.337646484375 6603.70947265625 3562.69873046875 6602.97216796875 3563.890869140625 C 6603.18310546875 3563.778564453125 6603.400390625 3563.667236328125 6603.6240234375 3563.55712890625 C 6604.41796875 3563.151123046875 6605.27685546875 3562.765869140625 6606.13232421875 3562.431396484375 C 6605.5029296875 3561.6865234375 6604.95263671875 3560.848388671875 6604.4970703125 3559.9541015625 Z M 6618.73828125 3563.556640625 C 6618.9619140625 3563.6669921875 6619.17919921875 3563.7783203125 6619.390625 3563.890869140625 C 6618.6533203125 3562.69873046875 6618.12548828125 3561.337646484375 6617.86572265625 3559.95458984375 C 6617.40966796875 3560.848876953125 6616.859375 3561.686767578125 6616.22998046875 3562.43115234375 C 6617.08154296875 3562.76416015625 6617.93994140625 3563.149169921875 6618.73828125 3563.556640625 Z"/><path class="ai" d="M 6611.2265625 3582.5966796875 C 6611.39306640625 3582.5966796875 6611.55712890625 3582.594482421875 6611.7216796875 3582.59375 C 6611.751953125 3582.59375 6611.783203125 3582.59375 6611.8134765625 3582.593017578125 C 6615.7841796875 3582.560302734375 6619.2763671875 3582.19287109375 6622.2490234375 3581.628173828125 C 6622.2412109375 3581.626708984375 6622.2333984375 3581.625732421875 6622.2255859375 3581.625 C 6629.74609375 3580.197998046875 6633.953125 3577.510498046875 6633.953125 3575.70556640625 C 6633.953125 3575.201171875 6633.9541015625 3571.5986328125 6633.9541015625 3571.0927734375 C 6633.9541015625 3569.333251953125 6631.2119140625 3567.61376953125 6628.494140625 3566.564208984375 C 6628.2294921875 3566.4599609375 6627.9638671875 3566.3603515625 6627.7021484375 3566.271240234375 C 6627.568359375 3566.2265625 6626.7158203125 3565.836181640625 6627.25 3564.171630859375 L 6627.2392578125 3564.171630859375 C 6628.6259765625 3562.71240234375 6629.6845703125 3560.358154296875 6629.6845703125 3558.038330078125 C 6629.6845703125 3554.477783203125 6627.373046875 3552.60888671875 6624.6875 3552.60888671875 L 6624.6787109375 3552.60888671875 L 6624.669921875 3552.60888671875 C 6621.982421875 3552.60888671875 6619.6826171875 3554.477783203125 6619.6826171875 3558.038330078125 C 6619.6826171875 3560.36474609375 6620.7373046875 3562.733642578125 6622.126953125 3564.189208984375 C 6622.3310546875 3564.740234375 6622.322265625 3565.162109375 6622.21875 3565.47509765625 C 6623.658203125 3566.72021484375 6625.7392578125 3569.2998046875 6625.02734375 3574.20947265625 C 6624.3369140625 3572.009033203125 6623.3154296875 3570.008544921875 6622.041015625 3568.487548828125 C 6622.044921875 3568.487060546875 6622.048828125 3568.48681640625 6622.052734375 3568.48583984375 C 6622.03515625 3568.465087890625 6622.0205078125 3568.443115234375 6622.0029296875 3568.42236328125 C 6621.1728515625 3567.280517578125 6619.6025390625 3566.2119140625 6617.841796875 3565.344482421875 C 6616.9365234375 3564.8818359375 6615.990234375 3564.470458984375 6615.08203125 3564.134033203125 C 6614.91357421875 3564.069580078125 6614.3203125 3563.745361328125 6614.150390625 3562.99609375 C 6614.1103515625 3562.63232421875 6614.1533203125 3562.16162109375 6614.34912109375 3561.547119140625 L 6614.33740234375 3561.547119140625 C 6616.0478515625 3559.748046875 6617.3505859375 3556.84619140625 6617.3505859375 3553.98876953125 C 6617.3505859375 3549.599609375 6614.5009765625 3547.296875 6611.1923828125 3547.296875 L 6611.1806640625 3547.29736328125 L 6611.1708984375 3547.296875 C 6607.86181640625 3547.296875 6605.01171875 3549.599609375 6605.01171875 3553.98876953125 C 6605.01171875 3556.84619140625 6606.31591796875 3559.748046875 6608.0244140625 3561.547119140625 L 6608.013671875 3561.547119140625 C 6608.2109375 3562.16162109375 6608.251953125 3562.63232421875 6608.212890625 3562.99609375 C 6608.0419921875 3563.745361328125 6607.44921875 3564.069580078125 6607.28076171875 3564.134033203125 C 6606.37255859375 3564.470458984375 6605.4248046875 3564.8818359375 6604.521484375 3565.344482421875 C 6602.7587890625 3566.2119140625 6601.18896484375 3567.280517578125 6600.36083984375 3568.42236328125 C 6600.3427734375 3568.443115234375 6600.326171875 3568.465087890625 6600.3095703125 3568.48583984375 C 6600.3134765625 3568.48681640625 6600.3173828125 3568.487060546875 6600.322265625 3568.487548828125 C 6599.04736328125 3570.008544921875 6598.02587890625 3572.009033203125 6597.3349609375 3574.20947265625 C 6596.623046875 3569.2998046875 6598.703125 3566.72021484375 6600.14453125 3565.47509765625 C 6600.04052734375 3565.162109375 6600.0322265625 3564.740234375 6600.2353515625 3564.189208984375 C 6601.6259765625 3562.733642578125 6602.6796875 3560.36474609375 6602.6796875 3558.038330078125 C 6602.6796875 3554.477783203125 6600.380859375 3552.60888671875 6597.6923828125 3552.60888671875 L 6597.6845703125 3552.60888671875 L 6597.67578125 3552.60888671875 C 6594.98974609375 3552.60888671875 6592.67822265625 3554.477783203125 6592.67822265625 3558.038330078125 C 6592.67822265625 3560.358154296875 6593.736328125 3562.71240234375 6595.123046875 3564.171630859375 L 6595.11328125 3564.171630859375 C 6595.64697265625 3565.836181640625 6594.794921875 3566.2265625 6594.6611328125 3566.271240234375 C 6594.3974609375 3566.3603515625 6594.1337890625 3566.4599609375 6593.8701171875 3566.564208984375 C 6591.15087890625 3567.61376953125 6588.408203125 3569.333251953125 6588.408203125 3571.0927734375 C 6588.408203125 3571.5986328125 6588.41015625 3575.201171875 6588.41015625 3575.70556640625 C 6588.41015625 3577.510498046875 6592.61669921875 3580.197998046875 6600.13720703125 3581.625 C 6600.1298828125 3581.625732421875 6600.12109375 3581.626708984375 6600.11376953125 3581.628173828125 C 6603.0869140625 3582.19287109375 6606.578125 3582.560302734375 6610.5498046875 3582.593017578125 C 6610.5791015625 3582.59375 6610.61083984375 3582.59375 6610.6416015625 3582.59375 C 6610.8056640625 3582.594482421875 6610.97021484375 3582.5966796875 6611.13671875 3582.5966796875 C 6611.1513671875 3582.5966796875 6611.166015625 3582.5966796875 6611.1806640625 3582.5966796875 C 6611.1962890625 3582.5966796875 6611.21044921875 3582.5966796875 6611.2265625 3582.5966796875 M 6611.2265625 3586.5966796875 L 6611.1806640625 3586.5966796875 L 6611.13671875 3586.5966796875 C 6611.025390625 3586.5966796875 6610.9150390625 3586.595947265625 6610.8046875 3586.594970703125 C 6610.74658203125 3586.594482421875 6610.68896484375 3586.593994140625 6610.63134765625 3586.59375 C 6610.58544921875 3586.59375 6610.53955078125 3586.593505859375 6610.49462890625 3586.5927734375 C 6606.548828125 3586.55908203125 6602.80517578125 3586.2109375 6599.3671875 3585.557861328125 L 6599.3671875 3585.55029296875 C 6595.482421875 3584.811279296875 6592.0888671875 3583.696533203125 6589.55224609375 3582.326416015625 C 6588.21435546875 3581.603515625 6587.12451171875 3580.8125 6586.31298828125 3579.975341796875 C 6584.740234375 3578.35302734375 6584.41015625 3576.758056640625 6584.41015625 3575.70556640625 C 6584.41015625 3575.453857421875 6584.40966796875 3574.42919921875 6584.4091796875 3573.40380859375 C 6584.40869140625 3572.375244140625 6584.408203125 3571.34619140625 6584.408203125 3571.0927734375 C 6584.408203125 3569.848388671875 6584.82373046875 3568.60107421875 6585.60986328125 3567.48583984375 C 6586.13232421875 3566.744873046875 6586.833984375 3566.036376953125 6587.69580078125 3565.3798828125 C 6588.466796875 3564.79296875 6589.30322265625 3564.2919921875 6590.10693359375 3563.875 C 6589.1962890625 3562.052490234375 6588.67822265625 3560.002685546875 6588.67822265625 3558.038330078125 C 6588.67822265625 3555.278076171875 6589.599609375 3552.89892578125 6591.34326171875 3551.157958984375 C 6592.98974609375 3549.51416015625 6595.23828125 3548.60888671875 6597.67578125 3548.60888671875 L 6597.6845703125 3548.60888671875 L 6597.6923828125 3548.60888671875 C 6599.16357421875 3548.60888671875 6600.5654296875 3548.938720703125 6601.80712890625 3549.5615234375 C 6602.3134765625 3548.275146484375 6603.05712890625 3547.1318359375 6604.0244140625 3546.166259765625 C 6605.8623046875 3544.330810546875 6608.37451171875 3543.3134765625 6611.10400390625 3543.297119140625 L 6611.10888671875 3543.296875 L 6611.1708984375 3543.296875 L 6611.271484375 3543.296875 L 6611.27783203125 3543.297119140625 C 6614 3543.31787109375 6616.50439453125 3544.3349609375 6618.33837890625 3546.16650390625 C 6619.3056640625 3547.132080078125 6620.048828125 3548.275390625 6620.55517578125 3549.561767578125 C 6621.796875 3548.938720703125 6623.19873046875 3548.60888671875 6624.669921875 3548.60888671875 L 6624.6787109375 3548.60888671875 L 6624.6875 3548.60888671875 C 6627.12451171875 3548.60888671875 6629.37353515625 3549.51416015625 6631.01953125 3551.157958984375 C 6632.76318359375 3552.89892578125 6633.6845703125 3555.278076171875 6633.6845703125 3558.038330078125 C 6633.6845703125 3560.00244140625 6633.16650390625 3562.052001953125 6632.255859375 3563.87451171875 C 6633.0595703125 3564.291748046875 6633.896484375 3564.793212890625 6634.6669921875 3565.38037109375 C 6635.52880859375 3566.03662109375 6636.23046875 3566.745361328125 6636.7529296875 3567.486328125 C 6637.53857421875 3568.601318359375 6637.9541015625 3569.848388671875 6637.9541015625 3571.0927734375 C 6637.9541015625 3571.345947265625 6637.95361328125 3572.374755859375 6637.95361328125 3573.40283203125 C 6637.953125 3574.4287109375 6637.953125 3575.45361328125 6637.953125 3575.70556640625 C 6637.953125 3576.758056640625 6637.623046875 3578.35302734375 6636.05029296875 3579.975341796875 C 6635.23876953125 3580.812744140625 6634.1484375 3581.603759765625 6632.810546875 3582.326416015625 C 6630.27392578125 3583.696533203125 6626.88037109375 3584.811279296875 6622.99560546875 3585.55029296875 L 6622.99560546875 3585.557861328125 C 6619.55810546875 3586.2109375 6615.814453125 3586.55908203125 6611.86865234375 3586.5927734375 C 6611.8232421875 3586.593505859375 6611.77734375 3586.59375 6611.73193359375 3586.59375 C 6611.673828125 3586.593994140625 6611.61572265625 3586.594482421875 6611.5576171875 3586.594970703125 C 6611.44775390625 3586.595947265625 6611.337890625 3586.5966796875 6611.2265625 3586.5966796875 Z"/></g><g transform="translate(-412.453 4668.46)"><g class="al" transform="matrix(1, 0, 0, 1, -565.55, -44.46)"><path class="n" d="M32.572,26.411a6.117,6.117,0,0,0-4.4,1.9l-.245-.122L14.4,21.394l-.245-.122a5.689,5.689,0,0,0,0-2.019l.245-.122,13.519-6.668.245-.122A6.24,6.24,0,1,0,26.577,9.1l-.245.122L12.752,15.889l-.245.122a6.117,6.117,0,1,0,0,8.442l.245.122,13.519,6.851.245.122a6.117,6.117,0,1,0,6.056-5.139Z" transform="translate(563.59 42.61)"/></g><path class="f" d="M3.828,18.3a6.117,6.117,0,0,1,.184-1.468,6.117,6.117,0,1,0,10.033,6A6.117,6.117,0,0,1,3.828,18.3ZM32.58,15.244A6.117,6.117,0,0,0,38.514,10.6a6.117,6.117,0,0,1-10.033-6,6.117,6.117,0,0,0,4.1,10.644ZM28.3,30.538a6.117,6.117,0,0,1,.184-1.468,6.117,6.117,0,1,0,10.033,6A6.117,6.117,0,0,1,28.3,30.538Z" transform="translate(-1.97 -2.917)"/><path class="f" d="M34.655,17.065l.245-.122A6.117,6.117,0,0,1,33.309,13.7l-.245.122-4.037,2.019a6.056,6.056,0,0,0,1.468,3.365ZM20.891,25.874A6.117,6.117,0,0,1,19.3,29.116l.245.122,2.569,1.285A6.056,6.056,0,0,0,23.4,27.1L21.135,26Zm10.889,5.444a6.117,6.117,0,0,0-2.447,2.875L33,36.029l.245.122a6.117,6.117,0,0,1,1.591-3.242l-.245-.122Z" transform="translate(-8.694 -6.45)"/><path class="y" d="M32.572,26.411a6.117,6.117,0,0,0-4.4,1.9l-.245-.122L14.4,21.394l-.245-.122a5.689,5.689,0,0,0,0-2.019l.245-.122,13.519-6.668.245-.122A6.24,6.24,0,1,0,26.577,9.1l-.245.122L12.752,15.889l-.245.122a6.117,6.117,0,1,0,0,8.442l.245.122,13.519,6.851.245.122a6.117,6.117,0,1,0,6.056-5.139Z" transform="translate(-1.962 -1.848)"/></g></g><g transform="translate(89.315 274)"><g transform="translate(-495 4621)"><circle class="d" cx="44" cy="44" r="44" transform="translate(-0.315)"/><circle class="e" cx="38" cy="38" r="38" transform="translate(5.685 6)"/><circle class="f" cx="31.5" cy="31.5" r="31.5" transform="translate(12.685 12)"/></g><g transform="translate(-435.103 4627.175)"><path class="t" d="M2,2H21.934V21.934H2Z" transform="translate(-2 -2)"/><path class="z" d="M22.651,21.642v1h1.993V19.316h-1v2.326ZM28.3,26.957v1h1.993V24.632h-1v2.326ZM18,16.326v1h1.993V14H19v2.326Z" transform="translate(-12.684 -10.013)"/><path class="v" d="M12,23.293H23.914m-4.89-5.316h5.933M12,17.977h6.266m-3.893-5.316H24.957M12,12.661h1.614m4.652,3.655h.758v3.322h-.758Zm5.648,5.316h.758v3.322h-.758ZM13.614,11h.758v3.322h-.758Z" transform="translate(-8.678 -8.01)"/></g><g class="ak" transform="matrix(1, 0, 0, 1, -836.32, 4621)"><circle class="n" cx="27" cy="27" r="27" transform="translate(358 17)"/></g><g transform="translate(-477.71 4638.29)"><circle class="n" cx="26.5" cy="26.5" r="26.5" transform="translate(0.395 -0.29)"/><path class="aa" d="M14.25,28.439C14.25,13.809,20.6,2,28.439,2a26.439,26.439,0,0,0,0,52.878C20.6,54.878,14.25,43.068,14.25,28.439Z" transform="translate(-1.52 -1.459)"/><circle class="r" cx="26.5" cy="26.5" r="26.5" transform="translate(0.395 -0.29)"/><ellipse class="r" cx="14.189" cy="26.439" rx="14.189" ry="26.439" transform="translate(12.73 0.541)"/><path class="r" d="M4.5,39.014H52.971M4.5,17.863H52.971M28.736,2V54.878" transform="translate(-1.816 -1.459)"/></g><g transform="translate(-485.12 4675.34)"><g transform="translate(0 0)"><path class="h" d="M24.287,4.526C24.064,3.114,19.161,2,13.143,2S2.223,3.114,2,4.526V7.943a1.973,1.973,0,0,0,.743,1.3c.409.371,7.02,6.315,7.5,6.835a1.857,1.857,0,0,1,.669,1.374v5.832c0,.669.409,1.3,1.486.817s2.972-2.006,2.972-2.9V17.489a2.028,2.028,0,0,1,.334-1.411l7.838-7.02a1.82,1.82,0,0,0,.743-1.3Z" transform="translate(-2 -1.994)"/><path class="h" d="M13.143,2C6.977,2,2,3.151,2,4.6V8.017a1.973,1.973,0,0,0,.743,1.3c.409.371,7.02,6.315,7.5,6.835a1.928,1.928,0,0,1,.669,1.412V23.4c0,.669.409,1.3,1.486.817l.743-.409V16.932L7.2,9.875V6.792a41.491,41.491,0,0,0,5.943.409c6.166,0,11.143-1.151,11.143-2.6S19.309,2,13.143,2Z" transform="translate(-2 -1.994)"/><path class="ab" d="M2,8.8v3.417a1.973,1.973,0,0,0,.743,1.3c.409.371,7.02,6.315,7.5,6.835a1.857,1.857,0,0,1,.669,1.374v5.832c0,.669.409,1.3,1.486.817s2.972-2.006,2.972-2.9V21.764a2.028,2.028,0,0,1,.334-1.412l7.838-7.02a1.82,1.82,0,0,0,.743-1.3V8.8" transform="translate(-2 -6.268)"/><ellipse class="ab" cx="11" cy="2.5" rx="11" ry="2.5" transform="translate(-0.195 -0.34)"/></g><g transform="translate(0 0)"><path class="h" d="M24.287,4.526C24.064,3.114,19.161,2,13.143,2S2.223,3.114,2,4.526V7.943a1.973,1.973,0,0,0,.743,1.3c.409.371,7.02,6.315,7.5,6.835a1.857,1.857,0,0,1,.669,1.374v5.832c0,.669.409,1.3,1.486.817s2.972-2.006,2.972-2.9V17.489a2.028,2.028,0,0,1,.334-1.411l7.838-7.02a1.82,1.82,0,0,0,.743-1.3Z" transform="translate(-2 -1.994)"/><path class="h" d="M13.143,2C6.977,2,2,3.151,2,4.6V8.017a1.973,1.973,0,0,0,.743,1.3c.409.371,7.02,6.315,7.5,6.835a1.928,1.928,0,0,1,.669,1.412V23.4c0,.669.409,1.3,1.486.817l.743-.409V16.932L7.2,9.875V6.792a41.491,41.491,0,0,0,5.943.409c6.166,0,11.143-1.151,11.143-2.6S19.309,2,13.143,2Z" transform="translate(-2 -1.994)"/><path class="ac" d="M2,8.8v3.417a1.973,1.973,0,0,0,.743,1.3c.409.371,7.02,6.315,7.5,6.835a1.857,1.857,0,0,1,.669,1.374v5.832c0,.669.409,1.3,1.486.817s2.972-2.006,2.972-2.9V21.764a2.028,2.028,0,0,1,.334-1.412l7.838-7.02a1.82,1.82,0,0,0,.743-1.3V8.8" transform="translate(-2 -6.268)"/><ellipse class="ad" cx="11" cy="2.5" rx="11" ry="2.5" transform="translate(-0.195 -0.34)"/></g></g></g><g transform="translate(-112 270)"><g transform="translate(-462.775 4625)"><circle class="d" cx="43.5" cy="43.5" r="43.5" transform="translate(-0.225)"/><circle class="e" cx="37.5" cy="37.5" r="37.5" transform="translate(5.775 6)"/><circle class="f" cx="31.5" cy="31.5" r="31.5" transform="translate(11.775 12)"/></g><g transform="translate(-464 4634.799)"><path class="n" d="M16.127,0H4.079A4.079,4.079,0,0,0,0,4.079V30.095a4.079,4.079,0,0,0,4.079,4.081H22.113a4.079,4.079,0,0,0,4.079-4.081V10.065c0-1.583-.062-1.614-.559-2.354-.315-.47-2.428-2.832-2.84-3.222l-3.4-3.22A4.263,4.263,0,0,0,17.525.239,6.66,6.66,0,0,0,16.127,0Z" transform="translate(0 0)"/><g transform="translate(0 0)"><g transform="translate(0)"><rect class="h" width="15.26" height="2.253" transform="translate(5.33 13.503)"/><rect class="h" width="11.823" height="2.253" transform="translate(5.33 18.743)"/><rect class="h" width="11.823" height="2.253" transform="translate(5.33 23.981)"/><path class="h" d="M16.127,1.556a4.947,4.947,0,0,1,1.014.192,2.68,2.68,0,0,1,1.181.653l3.4,3.222c.367.344,2.344,2.562,2.618,2.956l.054.082c.08.117.179.266.206.3a8.5,8.5,0,0,1,.043,1.1V30.095a2.525,2.525,0,0,1-2.523,2.521H4.079a2.525,2.525,0,0,1-2.523-2.521V4.079A2.525,2.525,0,0,1,4.079,1.556H16.127m0-1.556H4.079A4.079,4.079,0,0,0,0,4.079V30.095a4.079,4.079,0,0,0,4.079,4.081H22.113a4.079,4.079,0,0,0,4.079-4.081V10.065c0-1.583-.062-1.614-.559-2.354-.315-.47-2.428-2.832-2.84-3.222l-3.4-3.22A4.263,4.263,0,0,0,17.525.239,6.66,6.66,0,0,0,16.127,0Z" transform="translate(0)"/><path class="h" d="M78.36,6.01l.047,6a2.061,2.061,0,0,0,2.061,2.043h6.5l-.936-2.869-3-3.125L80.357,6Z" transform="translate(-62.208 -4.763)"/></g><g transform="translate(0)"><rect class="h" width="15.26" height="2.253" transform="translate(5.33 13.503)"/><rect class="h" width="11.823" height="2.253" transform="translate(5.33 18.743)"/><rect class="h" width="11.823" height="2.253" transform="translate(5.33 23.981)"/><path class="h" d="M16.127,1.556a4.947,4.947,0,0,1,1.014.192,2.68,2.68,0,0,1,1.181.653l3.4,3.222c.367.344,2.344,2.562,2.618,2.956l.054.082c.08.117.179.266.206.3a8.5,8.5,0,0,1,.043,1.1V30.095a2.525,2.525,0,0,1-2.523,2.521H4.079a2.525,2.525,0,0,1-2.523-2.521V4.079A2.525,2.525,0,0,1,4.079,1.556H16.127m0-1.556H4.079A4.079,4.079,0,0,0,0,4.079V30.095a4.079,4.079,0,0,0,4.079,4.081H22.113a4.079,4.079,0,0,0,4.079-4.081V10.065c0-1.583-.062-1.614-.559-2.354-.315-.47-2.428-2.832-2.84-3.222l-3.4-3.22A4.263,4.263,0,0,0,17.525.239,6.66,6.66,0,0,0,16.127,0Z" transform="translate(0)"/><path class="h" d="M78.36,6.01l.047,6a2.061,2.061,0,0,0,2.061,2.043h6.5l-.936-2.869-3-3.125L80.357,6Z" transform="translate(-62.208 -4.763)"/></g></g></g><g transform="translate(-443.176 4694.209)"><g transform="translate(0 0)"><g transform="translate(0 0)"><g class="ae" transform="translate(-0.002 -0.003)"><path class="ag" d="M 23.17624664306641 22.29418182373047 C 20.54738616943359 22.29418182373047 18.71529769897461 21.21269226074219 17.37756729125977 20.42302131652832 C 17.12485694885254 20.27385139465332 16.88616752624512 20.1329517364502 16.6656665802002 20.01327133178711 C 14.70062446594238 18.94728469848633 1.694915175437927 10.83587551116943 0.3135255575180054 9.915032386779785 C -1.124783515930176 8.963501930236816 -3.075194835662842 7.421318054199219 -3.44092321395874 5.016082286834717 C -3.65738320350647 3.592522144317627 -3.243023157119751 2.15525221824646 -2.274173259735107 0.9690221548080444 C -1.104343175888062 -0.4610978662967682 0.6164467930793762 -1.247577905654907 2.572896718978882 -1.247577905654907 C 3.209949016571045 -1.247577905654907 3.862955093383789 -1.167277812957764 4.537654399871826 -1.004934549331665 C 5.535370826721191 -1.779683709144592 6.822613716125488 -2.208317756652832 8.218286514282227 -2.208317756652832 C 9.395678520202637 -2.208317756652832 10.50060272216797 -2.011759281158447 11.50507831573486 -1.629319310188293 C 12.32527351379395 -2.029991388320923 13.21008110046387 -2.231697797775269 14.15417671203613 -2.231697797775269 C 16.15203666687012 -2.231697797775269 18.00813674926758 -1.305767893791199 19.71630668640137 -0.3051778674125671 C 20.81081962585449 0.3354687690734863 21.81904411315918 0.9064788222312927 22.55670166015625 1.303489565849304 C 22.62738227844238 1.340570688247681 22.69234657287598 1.372926950454712 22.75344657897949 1.403562188148499 C 22.85936737060547 1.456652164459229 22.97940635681152 1.516822099685669 23.11033630371094 1.587682127952576 L 24.19433975219727 2.174294710159302 C 24.61339950561523 2.006376028060913 24.96370315551758 1.8442622423172 25.20541000366211 1.721372127532959 C 25.95172500610352 1.210103631019592 28.55015754699707 -0.5627280473709106 29.53635597229004 -1.140449643135071 C 29.64394760131836 -1.203700184822083 29.75055885314941 -1.266806721687317 29.8564567565918 -1.329477906227112 C 31.48770713806152 -2.294967889785767 33.51786804199219 -3.496537923812866 36.38139724731445 -3.496537923812866 C 37.81880569458008 -3.496537923812866 39.31785583496094 -3.199437856674194 40.96420669555664 -2.588257789611816 C 43.6601676940918 -1.587767839431763 49.30355834960938 0.8791521191596985 49.54246520996094 0.9836821556091309 L 52.86286544799805 2.436352252960205 L 51.2952880859375 5.704061985015869 L 45.97940826416016 16.78534126281738 L 44.30405807495117 20.2777214050293 L 40.99881744384766 18.25810241699219 L 38.30657577514648 16.61304664611816 C 38.14386749267578 16.51569557189941 38.0286865234375 16.4525260925293 37.94930267333984 16.41184997558594 C 37.83666229248047 16.4515438079834 37.65604019165039 16.52387237548828 37.38722610473633 16.65387916564941 C 37.01800155639648 16.83332443237305 36.49603271484375 17.08789825439453 35.88530731201172 17.38576126098633 C 33.31961441040039 18.63710403442383 29.4443531036377 20.52714347839355 28.23773384094238 21.07221412658691 C 26.43382835388184 21.89441871643066 24.77803421020508 22.29418182373047 23.17624664306641 22.29418182373047 Z"/><path class="ai" d="M 36.38137817382812 0.003458023071289062 C 34.33482360839844 0.003557205200195312 32.92961883544922 0.9249000549316406 31.30599021911621 1.879228591918945 C 30.29317665100098 2.472362518310547 27.01597595214844 4.723682403564453 27.01597595214844 4.723682403564453 C 27.01597595214844 4.723682403564453 23.74252319335938 6.521761894226074 20.50449752807617 6.521761894226074 C 15.54486846923828 6.521761894226074 14.67195129394531 6.786615371704102 14.67195129394531 8.278801918029785 C 14.67195129394531 9.912735939025879 17.9062442779541 10.03210926055908 17.91929626464844 10.03210926055908 L 25.8781909942627 10.03210926055908 C 28.582763671875 10.03210926055908 32.37848281860352 8.567909240722656 32.37848281860352 8.567909240722656 C 32.37848281860352 8.567909240722656 29.16284370422363 11.78914833068848 25.8781909942627 11.78914833068848 L 17.90810966491699 11.78914833068848 C 16.13801765441895 11.7537088394165 12.80485534667969 10.97964191436768 12.81232452392578 8.28998851776123 C 12.81232452392578 4.775908470153809 16.21075057983398 4.775908470153809 20.51194953918457 4.775908470153809 C 20.82571029663086 4.770321846008301 21.13812255859375 4.733469009399414 21.4445629119873 4.665868759155273 C 21.2860164642334 4.580068588256836 21.11815071105957 4.50172233581543 20.91297721862793 4.393535614013672 C 20.14637756347656 3.981322288513184 19.11676406860352 3.399375915527344 17.94726943969727 2.714841842651367 C 16.34444046020508 1.775959014892578 15.14908599853516 1.268207550048828 14.1541748046875 1.268308639526367 C 13.24569320678711 1.268400192260742 12.50429534912109 1.691938400268555 11.77339172363281 2.597335815429688 C 10.70648193359375 1.571468353271484 9.365390777587891 1.291681289672852 8.218284606933594 1.291681289672852 C 6.921951293945312 1.291681289672852 5.823337554931641 2.089988708496094 6.132965087890625 3.395642280578613 C 4.621410369873047 2.557397842407227 3.45965576171875 2.252422332763672 2.572898864746094 2.252422332763672 C 1.504257202148438 2.252422332763672 0.8351478576660156 2.695762634277344 0.4365768432617188 3.183015823364258 C -0.5277442932128906 4.36369514465332 0.1306838989257812 5.598468780517578 2.249576568603516 6.999255180358887 C 3.600002288818359 7.902015686035156 16.51292419433594 15.94858932495117 18.33524322509766 16.93714904785156 C 19.77597427368164 17.71911811828613 21.10714721679688 18.79418563842773 23.17623519897461 18.79418563842773 C 24.17695999145508 18.79418563842773 25.35048484802246 18.54258346557617 26.79215049743652 17.88468170166016 C 28.23024368286133 17.23558807373047 33.99377822875977 14.41164207458496 35.85898971557617 13.50514888763428 C 36.7557487487793 13.07103729248047 37.41584777832031 12.87149047851562 38.01479721069336 12.87149047851562 C 38.70773315429688 12.87149047851562 39.31878280639648 13.13870048522949 40.11914825439453 13.61892223358154 L 42.82372283935547 15.27150917053223 L 48.13960266113281 4.190228462219238 C 48.13960266113281 4.190228462219238 42.37980270385742 1.670322418212891 39.74610900878906 0.6929492950439453 C 38.42716217041016 0.2033042907714844 37.33480072021484 0.003412246704101562 36.38137817382812 0.003458023071289062 M 36.38101577758789 -6.996543884277344 L 36.38108444213867 -6.996543884277344 C 38.24152374267578 -6.996623992919922 40.13912200927734 -6.627944946289062 42.18229675292969 -5.869438171386719 C 44.9308967590332 -4.849424362182617 50.9453239440918 -2.222877502441406 50.9453239440918 -2.222877502441406 L 57.59245681762695 0.6799888610839844 L 54.45096206665039 7.2178955078125 L 49.13508224487305 18.29917526245117 L 45.78437805175781 25.28390884399414 L 39.17391204833984 21.24468231201172 L 37.74757385253906 20.37314224243164 L 37.41993713378906 20.5313892364502 C 34.88270950317383 21.76884269714355 30.85310935974121 23.73173522949219 29.67189598083496 24.26489639282227 C 27.42565727233887 25.2900276184082 25.29227066040039 25.794189453125 23.17622947692871 25.794189453125 C 19.59139060974121 25.794189453125 17.09178924560547 24.31865501403809 15.59833526611328 23.43704223632812 C 12.82605743408203 21.91220283508301 -0.3929710388183594 13.65278816223145 -1.640701293945312 12.81868171691895 C -2.760421752929688 12.07854843139648 -6.258983612060547 9.765682220458984 -6.901168823242188 5.54218864440918 C -7.268276214599609 3.127828598022461 -6.587741851806641 0.7174282073974609 -4.984928131103516 -1.244997024536133 C -3.162891387939453 -3.47242546081543 -0.4093818664550781 -4.747585296630859 2.572895050048828 -4.747585296630859 C 2.987606048583984 -4.747585296630859 3.403827667236328 -4.72467041015625 3.822704315185547 -4.678565979003906 C 5.139362335205078 -5.34846305847168 6.640132904052734 -5.708318710327148 8.218284606933594 -5.708318710327148 C 9.321800231933594 -5.708318710327148 10.38302612304688 -5.580852508544922 11.38983154296875 -5.330598831176758 C 12.39785385131836 -5.632596969604492 13.34515762329102 -5.731609344482422 14.15345764160156 -5.731691360473633 C 14.15380477905273 -5.731691360473633 14.15418243408203 -5.731691360473633 14.1545295715332 -5.731691360473633 C 16.99417114257812 -5.731700897216797 19.45377159118652 -4.515226364135742 21.48532295227051 -3.325210571289062 C 22.54115104675293 -2.707206726074219 23.47478485107422 -2.178022384643555 24.178955078125 -1.798152923583984 C 25.1274471282959 -2.453273773193359 27.01699066162109 -3.721044540405273 27.76855087280273 -4.161184310913086 C 29.85981750488281 -5.398557662963867 32.55940246582031 -6.996343612670898 36.38101577758789 -6.996543884277344 Z"/></g></g></g><g transform="translate(0 0)"><g transform="translate(0 0)"><path class="l" d="M.437,3.183c.729-.892,2.363-1.636,5.7.213-.31-1.306.789-2.1,2.085-2.1A5,5,0,0,1,11.773,2.6C13.3.7,14.881.919,17.947,2.715c1.169.685,2.2,1.266,2.966,1.679.205.108.373.187.532.272a4.719,4.719,0,0,1-.933.11c-4.3,0-7.7,0-7.7,3.514-.007,2.69,3.326,3.464,5.1,3.5h7.97c3.285,0,6.5-3.221,6.5-3.221a22.838,22.838,0,0,1-6.5,1.464H17.919c-.013,0-3.247-.119-3.247-1.753,0-1.492.873-1.757,5.833-1.757a15.734,15.734,0,0,0,6.511-1.8s3.277-2.251,4.29-2.844C33.686.48,35.6-.848,39.746.693c2.634.977,8.393,3.5,8.393,3.5L42.824,15.272l-2.7-1.653c-1.492-.9-2.326-1.05-4.26-.114-1.865.906-7.629,3.73-9.067,4.38-4.422,2.018-6.319.213-8.457-.948C16.513,15.949,3.6,7.9,2.25,7,.131,5.6-.528,4.364.437,3.183Z" transform="translate(-0.002 -0.003)"/></g></g></g><g transform="translate(-400.303 4632.35)"><rect class="t" width="21.743" height="26.03" transform="translate(0 21.743) rotate(-90)"/><g transform="translate(5.077 6.672)"><path class="n" d="M1291.229,422.173c-3.691,0-5.229.51-5.229.913v6.786c0,.394,1.538.913,5.229.913s5.229-.509,5.229-.913v-6.786C1296.458,422.692,1294.92,422.173,1291.229,422.173Z" transform="translate(-1286 -422.173)"/><path class="n" d="M1322.848,422.319l-4,2.568a.617.617,0,0,0-.244.492v2.239a.616.616,0,0,0,.244.492l4,2.575c.108.082.643.346.643-.492V422.81C1323.491,422.037,1323.033,422.178,1322.848,422.319Z" transform="translate(-1307.526 -422.196)"/></g></g><g transform="translate(-443.788 4650.724)"><g class="aj" transform="matrix(1, 0, 0, 1, -191.21, -25.72)"><rect class="n" width="50" height="32" transform="translate(191 26)"/></g><rect class="l" width="27" height="2" transform="translate(15.788 7.276)"/><rect class="l" width="27" height="2" transform="translate(15.788 15.276)"/><rect class="l" width="27" height="2" transform="translate(15.788 24.276)"/><path class="af" d="M561.623,406.893l1.878,1.872,3.009-4.077" transform="translate(-556.157 -399.578)"/><path class="af" d="M561.623,406.893l1.878,1.872,3.009-4.077" transform="translate(-556.157 -391.003)"/><path class="af" d="M561.623,406.893l1.878,1.872,3.009-4.077" transform="translate(-556.157 -382.429)"/></g><g transform="translate(-430.927 4625.612)"><circle class="h" cx="3.062" cy="3.062" r="3.062" transform="translate(8.881)"/><path class="af" d="M19.5,4.55V18.024" transform="translate(-7.557 -1.763)"/><circle class="h" cx="3" cy="3" r="3" transform="translate(17.927 5.388)"/><circle class="h" cx="3" cy="3" r="3" transform="translate(-0.073 5.388)"/><path class="af" d="M4.72,13.31l8.918,8.219" transform="translate(-1.829 -5.158)"/><path class="af" d="M28.24,13.31l-8.93,8.421" transform="translate(-7.483 -5.158)"/><g transform="translate(8.575 12.556)"><circle class="g" cx="3.369" cy="3.369" r="3.369"/></g></g></g></g></svg>