<svg xmlns="http://www.w3.org/2000/svg" width="23.257" height="16.797" viewBox="0 0 23.257 16.797"><defs><style>.a{fill:#9e9fa2;}</style></defs><g transform="translate(-6633.278 -436.709)"><path class="a" d="M6653.854,436.709h-17.892a2.743,2.743,0,0,0-2.683,2.8v11.2a2.743,2.743,0,0,0,2.683,2.8h17.891a2.743,2.743,0,0,0,2.683-2.8v-11.2A2.743,2.743,0,0,0,6653.854,436.709ZM6648.905,445l5.731,6.119-6.991-5.208-2.738,1.862-2.738-1.862-6.99,5.208L6640.91,445l-6.93-5.636,10.927,6.148,10.927-6.148Z" transform="translate(0 0)"/></g></svg>