<svg xmlns="http://www.w3.org/2000/svg" width="207.31" height="139.04" viewBox="0 0 207.31 139.04">
  <g id="External-Begin-Graphic" transform="translate(0)">
    <path id="Path_8322" data-name="Path 8322" d="M649.717,305.23c9.143-6.836,23.464-13.3,39.291-17.736,14.41-4.039,28.465-5.989,39.579-5.491l.058-1.292c-11.246-.5-25.447,1.463-39.986,5.538-15.974,4.477-30.45,11.018-39.716,17.945Z" transform="translate(-617.63 -242.66)" fill="#ccc"/>
    <path id="Path_8323" data-name="Path 8323" d="M621.942,281.156a43.052,43.052,0,0,0,3.726,17.578q.308.695.643,1.377a43.217,43.217,0,0,0,82.053-18.955q0-1.5-.1-2.977-.048-.751-.125-1.493a43.213,43.213,0,0,0-86.194,4.47Z" transform="translate(-588.906 -213.322)" fill="#335ca5"/>
    <path id="Path_8324" data-name="Path 8324" d="M622.269,383.876q.309.695.643,1.377,1.894.206,3.987.3c1.155.052,2.344.078,3.559.078,10.611,0,23.382-1.959,36.428-5.615,14.539-4.075,27.693-9.775,37.039-16.051q.477-.32.938-.642-.049-.751-.125-1.493-.743.53-1.533,1.061c-9.236,6.2-22.258,11.84-36.667,15.879-12.932,3.625-25.582,5.567-36.072,5.567q-1.8,0-3.507-.076Q624.47,384.147,622.269,383.876Z" transform="translate(-585.507 -298.464)" opacity="0.1" style="isolation: isolate"/>
    <path id="Path_8325" data-name="Path 8325" d="M607.981,328.961c10.611,0,23.382-1.959,36.428-5.615,14.539-4.075,27.693-9.775,37.039-16.051,9.541-6.407,14.015-12.72,12.6-17.776s-8.521-8.124-20-8.639l-.058,1.293a39.849,39.849,0,0,1,12.987,2.369c3.248,1.328,5.208,3.12,5.827,5.327s-.125,4.757-2.209,7.579a39.854,39.854,0,0,1-9.864,8.773c-9.235,6.2-22.257,11.841-36.667,15.88-12.933,3.625-25.582,5.567-36.072,5.567q-1.8,0-3.507-.076a39.853,39.853,0,0,1-12.987-2.369c-3.248-1.328-5.208-3.12-5.827-5.327-1.11-3.962,2.246-9.11,9.45-14.5l-.775-1.036a33.813,33.813,0,0,0-8.157,8.12c-1.828,2.8-2.421,5.416-1.764,7.762,1.417,5.056,8.521,8.124,20,8.639C605.578,328.935,606.766,328.961,607.981,328.961Z" transform="translate(-563.029 -242.83)" fill="#cadff2"/>
    <circle id="Ellipse_1283" data-name="Ellipse 1283" cx="0.495" cy="0.495" r="0.495" transform="translate(74.609 15.84)" fill="#f2f2f2"/>
    <circle id="Ellipse_1284" data-name="Ellipse 1284" cx="0.852" cy="0.852" r="0.852" transform="translate(139.942 36.613)" fill="#ccc"/>
    <circle id="Ellipse_1285" data-name="Ellipse 1285" cx="1.683" cy="1.683" r="1.683" transform="translate(140.927 69.123)" fill="#ccc"/>
    <circle id="Ellipse_1286" data-name="Ellipse 1286" cx="1.122" cy="1.122" r="1.122" transform="translate(40.477 18.185)" fill="#ccc"/>
    <circle id="Ellipse_1287" data-name="Ellipse 1287" cx="1.821" cy="1.821" r="1.821" transform="translate(0 64.033)" fill="#ccc"/>
    <ellipse id="Ellipse_1288" data-name="Ellipse 1288" cx="0.781" cy="0.781" rx="0.781" ry="0.781" transform="translate(15.279 35.989)" fill="#ccc"/>
    <circle id="Ellipse_1289" data-name="Ellipse 1289" cx="1.219" cy="1.219" r="1.219" transform="translate(109.701 25.515)" fill="#ccc"/>
    <ellipse id="Ellipse_1290" data-name="Ellipse 1290" cx="0.781" cy="0.781" rx="0.781" ry="0.781" transform="translate(18.013 61.38)" fill="#ccc"/>
    <circle id="Ellipse_1291" data-name="Ellipse 1291" cx="0.972" cy="0.972" r="0.972" transform="translate(137.676 93.6)" fill="#ccc"/>
    <ellipse id="Ellipse_1292" data-name="Ellipse 1292" cx="1.053" cy="1.053" rx="1.053" ry="1.053" transform="translate(117.954 107.054)" fill="#ccc"/>
    <path id="Path_8326" data-name="Path 8326" d="M508.342,2.078h2.078V0h1.115V2.078h2.079V3.194h-2.079V5.272H510.42V3.194h-2.078Z" transform="translate(-419.947 0)" fill="#ccc"/>
    <path id="Path_8327" data-name="Path 8327" d="M668.758,363.334h1.305v-1.3h.7v1.3h1.3v.7h-1.3v1.3h-.7v-1.3h-1.305Z" transform="translate(-628.567 -248.813)" fill="#ccc"/>
    <path id="Path_8328" data-name="Path 8328" d="M767.733,342.7h.975v-.975h.524v.975h.975v.524h-.975v.975h-.524v-.975h-.975Z" transform="translate(-757.659 -234.858)" fill="#ccc"/>
    <circle id="Ellipse_1293" data-name="Ellipse 1293" cx="3.631" cy="3.631" r="3.631" transform="translate(71.968 30.368)" opacity="0.1" style="isolation: isolate"/>
    <circle id="Ellipse_1294" data-name="Ellipse 1294" cx="3.631" cy="3.631" r="3.631" transform="translate(99.862 56.941)" opacity="0.1" style="isolation: isolate"/>
    <circle id="Ellipse_1295" data-name="Ellipse 1295" cx="3.631" cy="3.631" r="3.631" transform="translate(59.754 93.417)" opacity="0.1" style="isolation: isolate"/>
    <circle id="Ellipse_1296" data-name="Ellipse 1296" cx="3.631" cy="3.631" r="3.631" transform="translate(71.968 62.553)" opacity="0.1" style="isolation: isolate"/>
    <circle id="Ellipse_1297" data-name="Ellipse 1297" cx="3.631" cy="3.631" r="3.631" transform="translate(98.046 82.524)" opacity="0.1" style="isolation: isolate"/>
    <circle id="Ellipse_1298" data-name="Ellipse 1298" cx="3.631" cy="3.631" r="3.631" transform="translate(52.492 43.077)" opacity="0.1" style="isolation: isolate"/>
    <circle id="Ellipse_1299" data-name="Ellipse 1299" cx="3.631" cy="3.631" r="3.631" transform="translate(40.443 67.669)" opacity="0.1" style="isolation: isolate"/>
    <ellipse id="Ellipse_1300" data-name="Ellipse 1300" cx="4.786" cy="4.786" rx="4.786" ry="4.786" transform="translate(70.812 45.552)" fill="#fff"/>
    <path id="Path_8329" data-name="Path 8329" d="M747.317,298.01a6.767,6.767,0,0,1,6.767,6.767c0,3.737-6.767,16.01-6.767,16.01s-6.767-12.273-6.767-16.01A6.767,6.767,0,0,1,747.317,298.01Zm0,10.068a3.136,3.136,0,1,0-3.136-3.136,3.136,3.136,0,0,0,3.136,3.136Z" transform="translate(-671.718 -254.603)" fill="#cadff2"/>
    <ellipse id="Ellipse_1301" data-name="Ellipse 1301" cx="4.786" cy="4.786" rx="4.786" ry="4.786" transform="translate(96.891 66.019)" fill="#fff"/>
    <path id="Path_8330" data-name="Path 8330" d="M663.927,363.455a6.767,6.767,0,0,1,6.767,6.767c0,3.737-6.767,16.01-6.767,16.01s-6.767-12.273-6.767-16.01A6.767,6.767,0,0,1,663.927,363.455Zm0,10.068a3.136,3.136,0,1,0-3.136-3.136,3.136,3.136,0,0,0,3.136,3.136Z" transform="translate(-562.25 -299.582)" fill="#cadff2"/>
    <ellipse id="Ellipse_1302" data-name="Ellipse 1302" cx="4.786" cy="4.786" rx="4.786" ry="4.786" transform="translate(39.288 51.164)" fill="#fff"/>
    <path id="Path_8331" data-name="Path 8331" d="M848.123,315.955a6.767,6.767,0,0,1,6.767,6.767c0,3.737-6.767,16.01-6.767,16.01s-6.767-12.273-6.767-16.01a6.767,6.767,0,0,1,6.767-6.767Zm0,10.068a3.136,3.136,0,1,0-3.136-3.136,3.136,3.136,0,0,0,3.136,3.136Z" transform="translate(-804.049 -266.936)" fill="#cadff2"/>
    <ellipse id="Ellipse_1303" data-name="Ellipse 1303" cx="4.786" cy="4.786" rx="4.786" ry="4.786" transform="translate(70.812 13.367)" fill="#fff"/>
    <path id="Path_8332" data-name="Path 8332" d="M747.317,195.093a6.767,6.767,0,0,1,6.767,6.767c0,3.737-6.767,16.01-6.767,16.01s-6.767-12.273-6.767-16.01A6.767,6.767,0,0,1,747.317,195.093Zm0,10.068a3.136,3.136,0,1,0-3.136-3.136A3.136,3.136,0,0,0,747.317,205.161Z" transform="translate(-671.718 -183.871)" fill="#cadff2"/>
    <ellipse id="Ellipse_1304" data-name="Ellipse 1304" cx="4.786" cy="4.786" rx="4.786" ry="4.786" transform="translate(58.599 76.912)" fill="#fff"/>
    <path id="Path_8333" data-name="Path 8333" d="M786.373,398.289a6.767,6.767,0,0,1,6.767,6.767c0,3.737-6.767,16.01-6.767,16.01s-6.767-12.273-6.767-16.01A6.767,6.767,0,0,1,786.373,398.289Zm0,10.068a3.136,3.136,0,1,0-3.136-3.136,3.136,3.136,0,0,0,3.136,3.136Z" transform="translate(-722.988 -323.522)" fill="#2f7ff4"/>
    <ellipse id="Ellipse_1305" data-name="Ellipse 1305" cx="4.786" cy="4.786" rx="4.786" ry="4.786" transform="translate(98.706 40.106)" fill="#fff"/>
    <path id="Path_8334" data-name="Path 8334" d="M658.122,280.593a6.767,6.767,0,0,1,6.767,6.767c0,3.737-6.767,16.01-6.767,16.01s-6.767-12.273-6.767-16.01A6.767,6.767,0,0,1,658.122,280.593Zm0,10.068a3.136,3.136,0,1,0-3.136-3.136A3.136,3.136,0,0,0,658.122,290.661Z" transform="translate(-554.629 -242.633)" fill="#2f7ff4"/>
    <ellipse id="Ellipse_1306" data-name="Ellipse 1306" cx="4.786" cy="4.786" rx="4.786" ry="4.786" transform="translate(51.336 26.737)" fill="#fff"/>
    <path id="Path_8335" data-name="Path 8335" d="M809.6,237.843a6.767,6.767,0,0,1,6.767,6.767c0,3.737-6.767,16.01-6.767,16.01s-6.767-12.273-6.767-16.01A6.767,6.767,0,0,1,809.6,237.843Zm0,10.068a3.136,3.136,0,1,0-3.136-3.136,3.136,3.136,0,0,0,3.136,3.136Z" transform="translate(-753.472 -213.252)" fill="#2f7ff4"/>
    <path id="Path_8336" data-name="Path 8336" d="M186.98,534.06l-3.323-.377-.127-13,4.9.557Z" transform="translate(-31.183 -398.258)" fill="#ffb8b8"/>
    <path id="Path_8337" data-name="Path 8337" d="M0,4.06H10.51V0H4.061A4.061,4.061,0,0,0,0,4.06H0Z" transform="translate(146.173 133.749) rotate(6.474)" fill="#2f2e41"/>
    <path id="Path_8338" data-name="Path 8338" d="M68.515,534.563H65.171l-1.591-12.9h4.935Z" transform="translate(121.453 -398.968)" fill="#ffb8b8"/>
    <path id="Path_8339" data-name="Path 8339" d="M0,4.06H10.51V0H4.061A4.061,4.061,0,0,0,0,4.06Z" transform="translate(180.175 134.64)" fill="#2f2e41"/>
    <path id="Path_8340" data-name="Path 8340" d="M271.615,511.2l-1.909,6.211L259.341,539.84l-2.728,21.275,6.273.273,3.819-19.638L279.8,527.566l11.456,37.1,5.182-.546s-4.364-48.005-10.365-52.915C286.072,511.2,276.252,506.563,271.615,511.2Z" transform="translate(-105.64 -433.285)" fill="#2f2e41"/>
    <ellipse id="Ellipse_1307" data-name="Ellipse 1307" cx="6.699" cy="6.699" rx="6.699" ry="6.699" transform="translate(167.746 37.72)" fill="#ffb8b8"/>
    <path id="Path_8341" data-name="Path 8341" d="M283.011,451.857s-.818-27.821,10.638-25.912,6.683,28.776,6.683,28.776-2.455,4.91-8.456-.546S283.011,451.857,283.011,451.857Z" transform="translate(-117.717 -372.713)" fill="#ccc"/>
    <path id="Path_8342" data-name="Path 8342" d="M102.847,309.986l-2.7,10.333-4.107,4.107,5.712-1.893Z" transform="translate(78.267 -245.026)" opacity="0.2"/>
    <path id="Path_8343" data-name="Path 8343" d="M325.5,532.387a2.743,2.743,0,0,0,1.439-3.952l6.371-7.376-5.023-.654-5.28,7.1a2.758,2.758,0,0,0,2.492,4.877Z" transform="translate(-160.294 -441.477)" fill="#ffb8b8"/>
    <path id="Path_8344" data-name="Path 8344" d="M301.756,437.363l-.717,14.108-8.456,10.91,3.546,2.728,11.456-11.456s4.091-13.911,1.091-18a3.9,3.9,0,0,0-3.476-1.884A3.759,3.759,0,0,0,301.756,437.363Z" transform="translate(-128.789 -378.465)" fill="#ccc"/>
    <path id="Path_8345" data-name="Path 8345" d="M219.52,373.143a.277.277,0,0,1,.039-.441,3.9,3.9,0,0,0-.375-6.829c-1.97-.939-4.639-.208-6.095-2.013a3.385,3.385,0,0,1-.628-2.749,5.962,5.962,0,0,1,3.03-3.838,11.027,11.027,0,0,1,16.663,10.674c-.185,1.64-.691,3.48.284,4.812.858,1.172,2.479,1.392,3.9,1.683a14.692,14.692,0,0,1,8.07,4.394,10.229,10.229,0,0,1,2.552,8.647,7.888,7.888,0,0,1-6.211,6.209,8.488,8.488,0,0,1-6.937-2.424,14.757,14.757,0,0,1-3.739-6.529c-.871-2.882-1.215-5.987-2.788-8.554-1.539-2.512-4.856-4.313-7.456-3a.279.279,0,0,1-.313-.037Z" transform="translate(-44.279 -321.685)" fill="#2f2e41"/>
    <path id="Path_8346" data-name="Path 8346" d="M196.343,739.336H280.08a.273.273,0,0,0,0-.546H196.343a.273.273,0,1,0,0,.546Z" transform="translate(-73.043 -600.297)" fill="#3f3d56"/>
  </g>
</svg>
