<svg xmlns="http://www.w3.org/2000/svg" width="18" height="18" viewBox="0 0 18 18"><defs><style>.a{fill:#aeaeae;}</style></defs><g transform="translate(-442.262 -574.19)"><path class="a" d="M451.1,564.157q.056-.247.167-.655l1.006-3.675c.011-.043.021-.085.029-.128a.656.656,0,0,0,.012-.12q0-.327-.208-.408a2.752,2.752,0,0,0-.757-.1v-.431q.459-.031,1.336-.132c.584-.066,1-.124,1.241-.172l.7-.135-1.271,4.658q-.159.6-.215.831a4.342,4.342,0,0,0-.144.767c0,.117.026.193.08.227a.313.313,0,0,0,.176.052q.248,0,.617-.423a6.423,6.423,0,0,0,.648-.887l.36.232a11.193,11.193,0,0,1-1.224,1.582,2.124,2.124,0,0,1-1.488.671,1.282,1.282,0,0,1-.8-.276,1,1,0,0,1-.355-.843A3.282,3.282,0,0,1,451.1,564.157Zm3.848-9.292a1.054,1.054,0,0,1,.319.775,1.07,1.07,0,0,1-.319.779,1.1,1.1,0,0,1-1.554,0,1.063,1.063,0,0,1-.324-.779,1.047,1.047,0,0,1,.324-.775,1.1,1.1,0,0,1,1.554,0Z" transform="translate(-1.876 22.964)"/><path class="a" d="M453.138,569.226a9,9,0,1,1,9-9A9.01,9.01,0,0,1,453.138,569.226Zm0-16.364a7.363,7.363,0,1,0,7.363,7.364A7.372,7.372,0,0,0,453.138,552.862Z" transform="translate(-1.876 22.964)"/></g></svg>