<svg xmlns="http://www.w3.org/2000/svg" width="34.277" height="25.254" viewBox="0 0 34.277 25.254">
  <g id="Group_10535" data-name="Group 10535" transform="translate(-735.318 -404.873)">
    <g id="Group_10535-2" data-name="Group 10535">
      <path id="Path_8449" data-name="Path 8449" d="M756.989,415.722a1.236,1.236,0,0,1,.059.826,5.862,5.862,0,0,1,.6.63h3.237c-.107-.04-.214-.082-.319-.117-.086-.03-.634-.28-.291-1.35h-.007a6,6,0,0,0,1.571-3.94A3.174,3.174,0,0,0,759,408.3a3.446,3.446,0,0,0-.366-.016h-.013A3.168,3.168,0,0,0,755.4,411.4a3.209,3.209,0,0,0,.015.367A6,6,0,0,0,756.989,415.722Z" fill="#8a8988"/>
      <path id="Path_8450" data-name="Path 8450" d="M759.229,426.414V424.87l-4.045-3.9a2.1,2.1,0,0,1-.439-2.358l.02-.043.024-.041a2.673,2.673,0,0,1,1.115-1.043,7.423,7.423,0,0,0-1.667-1.02,16.738,16.738,0,0,0-1.773-.778,1.053,1.053,0,0,1-.6-.731,2.286,2.286,0,0,1,.128-.931h-.008a7.382,7.382,0,0,0,1.931-4.851c0-2.82-1.831-4.3-3.956-4.3h-.014c-2.126,0-3.957,1.479-3.957,4.3a7.4,7.4,0,0,0,1.936,4.856h-.009a2.23,2.23,0,0,1,.128.93,1.055,1.055,0,0,1-.6.731,16.632,16.632,0,0,0-1.773.779A7.416,7.416,0,0,0,743,418.447l-.033.041h.008a10.793,10.793,0,0,0-1.919,3.677,5.8,5.8,0,0,1,1.806-5.613,1.227,1.227,0,0,1,.058-.825,6,6,0,0,0,1.571-3.952,3.171,3.171,0,0,0-2.835-3.473,3.275,3.275,0,0,0-.37-.015h-.011a3.176,3.176,0,0,0-3.21,3.488,6,6,0,0,0,1.57,3.941h-.006c.343,1.069-.2,1.32-.29,1.349-.169.057-.339.121-.509.188-1.747.675-3.509,1.779-3.509,2.909v2.964c0,1.16,2.7,2.886,7.534,3.8h-.015a37.744,37.744,0,0,0,6.7.62h.812a37.746,37.746,0,0,0,6.7-.62h-.016C757.826,426.776,758.554,426.6,759.229,426.414Z" fill="#8a8988"/>
    </g>
    <path id="Path_8448" data-name="Path 8448" d="M764.614,430.127l-4.385-2.107v-3.575l-4.344-4.19a1.092,1.092,0,0,1-.229-1.231,1.692,1.692,0,0,1,1.577-.846h10.684a1.693,1.693,0,0,1,1.577.846,1.075,1.075,0,0,1-.2,1.2l-4.683,4.566Z" fill="#335ca5"/>
  </g>
</svg>
