<svg xmlns="http://www.w3.org/2000/svg" xmlns:xlink="http://www.w3.org/1999/xlink" width="175" height="142.03" viewBox="0 0 175 142.03">
  <defs>
    <filter id="layer1" x="60.25" y="15.652" width="88.401" height="87.956" filterUnits="userSpaceOnUse">
      <feOffset dx="-2" dy="3" input="SourceAlpha"/>
      <feGaussianBlur stdDeviation="2" result="blur"/>
      <feFlood flood-opacity="0.302"/>
      <feComposite operator="in" in2="blur"/>
      <feComposite in="SourceGraphic"/>
    </filter>
  </defs>
  <g id="Internal-Begin-Graphic" transform="translate(-1202 -666.733)">
    <path id="Path_8372" data-name="Path 8372" d="M293.242,314.57l.388-.118,144.843-44.18-.4-.2-99.432-49.653-.078.162Zm144.276-44.379-143.6,43.8,44.892-93.1Z" transform="translate(923.898 464.091)" fill="none" stroke="#c4c5c8" stroke-width="1"/>
    <g id="Group_10168" data-name="Group 10168" transform="translate(1347.25 718.357)">
      <g id="Ellipse_1232" data-name="Ellipse 1232" transform="translate(0 0)" fill="#fff" stroke="#e6e6e6" stroke-width="2">
        <circle cx="14.875" cy="14.875" r="14.875" stroke="none"/>
        <circle cx="14.875" cy="14.875" r="13.875" fill="none"/>
      </g>
      <path id="Path_3376" data-name="Path 3376" d="M6590.519,3554.741c.1-.041.2-.079.306-.113.051-.018.381-.168.174-.811h0a3.612,3.612,0,0,1-.944-2.37,1.91,1.91,0,0,1,1.931-2.1H6592a1.906,1.906,0,0,1,1.927,2.1,3.613,3.613,0,0,1-.944,2.376.738.738,0,0,0-.035.5,3.49,3.49,0,0,0-1.085,3.375,6.49,6.49,0,0,1,1.154-2.211h0l.019-.025a4.481,4.481,0,0,1,1.607-1.189,10.032,10.032,0,0,1,1.067-.468.633.633,0,0,0,.36-.44,1.38,1.38,0,0,0-.077-.56h0a4.445,4.445,0,0,1-1.164-2.921,2.353,2.353,0,0,1,2.379-2.585h.008a2.353,2.353,0,0,1,2.38,2.585,4.447,4.447,0,0,1-1.165,2.921h0a1.355,1.355,0,0,0-.077.56.631.631,0,0,0,.36.44,9.932,9.932,0,0,1,1.066.468,4.466,4.466,0,0,1,1.608,1.189l.02.025h0a6.517,6.517,0,0,1,1.154,2.211,3.49,3.49,0,0,0-1.086-3.375.741.741,0,0,0-.035-.5,3.61,3.61,0,0,1-.944-2.376,1.906,1.906,0,0,1,1.927-2.1h.007a1.909,1.909,0,0,1,1.931,2.1,3.61,3.61,0,0,1-.945,2.37h0c-.206.643.123.793.175.811.1.034.2.073.306.113,1.05.405,2.11,1.07,2.11,1.75,0,.2,0,1.587,0,1.782,0,.7-1.625,1.735-4.531,2.287h.009a22.716,22.716,0,0,1-4.032.373h-.489a22.712,22.712,0,0,1-4.032-.373h.009c-2.9-.552-4.531-1.59-4.531-2.287,0-.2,0-1.587,0-1.782C6588.408,3555.811,6589.468,3555.146,6590.519,3554.741Z" transform="translate(-6582.31 -3539.302)" fill="#335ca5"/>
    </g>
    <g id="Group_10447" data-name="Group 10447" transform="translate(1247.5 666.733)">
      <g id="Ellipse_1232-2" data-name="Ellipse 1232" transform="translate(0 0)" fill="#fff" stroke="#e6e6e6" stroke-width="2">
        <circle cx="14.875" cy="14.875" r="14.875" stroke="none"/>
        <circle cx="14.875" cy="14.875" r="13.875" fill="none"/>
      </g>
      <path id="Path_3376-2" data-name="Path 3376" d="M6590.519,3554.741c.1-.041.2-.079.306-.113.051-.018.381-.168.174-.811h0a3.612,3.612,0,0,1-.944-2.37,1.91,1.91,0,0,1,1.931-2.1H6592a1.906,1.906,0,0,1,1.927,2.1,3.613,3.613,0,0,1-.944,2.376.738.738,0,0,0-.035.5,3.49,3.49,0,0,0-1.085,3.375,6.49,6.49,0,0,1,1.154-2.211h0l.019-.025a4.481,4.481,0,0,1,1.607-1.189,10.032,10.032,0,0,1,1.067-.468.633.633,0,0,0,.36-.44,1.38,1.38,0,0,0-.077-.56h0a4.445,4.445,0,0,1-1.164-2.921,2.353,2.353,0,0,1,2.379-2.585h.008a2.353,2.353,0,0,1,2.38,2.585,4.447,4.447,0,0,1-1.165,2.921h0a1.355,1.355,0,0,0-.077.56.631.631,0,0,0,.36.44,9.932,9.932,0,0,1,1.066.468,4.466,4.466,0,0,1,1.608,1.189l.02.025h0a6.517,6.517,0,0,1,1.154,2.211,3.49,3.49,0,0,0-1.086-3.375.741.741,0,0,0-.035-.5,3.61,3.61,0,0,1-.944-2.376,1.906,1.906,0,0,1,1.927-2.1h.007a1.909,1.909,0,0,1,1.931,2.1,3.61,3.61,0,0,1-.945,2.37h0c-.206.643.123.793.175.811.1.034.2.073.306.113,1.05.405,2.11,1.07,2.11,1.75,0,.2,0,1.587,0,1.782,0,.7-1.625,1.735-4.531,2.287h.009a22.716,22.716,0,0,1-4.032.373h-.489a22.712,22.712,0,0,1-4.032-.373h.009c-2.9-.552-4.531-1.59-4.531-2.287,0-.2,0-1.587,0-1.782C6588.408,3555.811,6589.468,3555.146,6590.519,3554.741Z" transform="translate(-6581.961 -3539.092)" fill="#335ca5"/>
    </g>
    <g id="Group_10449" data-name="Group 10449" transform="translate(1202 763.857)">
      <g id="Ellipse_1232-3" data-name="Ellipse 1232" transform="translate(0 0)" fill="#fff" stroke="#e6e6e6" stroke-width="2">
        <circle cx="14.875" cy="14.875" r="14.875" stroke="none"/>
        <circle cx="14.875" cy="14.875" r="13.875" fill="none"/>
      </g>
      <path id="Path_3376-3" data-name="Path 3376" d="M6590.519,3554.741c.1-.041.2-.079.306-.113.051-.018.381-.168.174-.811h0a3.612,3.612,0,0,1-.944-2.37,1.91,1.91,0,0,1,1.931-2.1H6592a1.906,1.906,0,0,1,1.927,2.1,3.613,3.613,0,0,1-.944,2.376.738.738,0,0,0-.035.5,3.49,3.49,0,0,0-1.085,3.375,6.49,6.49,0,0,1,1.154-2.211h0l.019-.025a4.481,4.481,0,0,1,1.607-1.189,10.032,10.032,0,0,1,1.067-.468.633.633,0,0,0,.36-.44,1.38,1.38,0,0,0-.077-.56h0a4.445,4.445,0,0,1-1.164-2.921,2.353,2.353,0,0,1,2.379-2.585h.008a2.353,2.353,0,0,1,2.38,2.585,4.447,4.447,0,0,1-1.165,2.921h0a1.355,1.355,0,0,0-.077.56.631.631,0,0,0,.36.44,9.932,9.932,0,0,1,1.066.468,4.466,4.466,0,0,1,1.608,1.189l.02.025h0a6.517,6.517,0,0,1,1.154,2.211,3.49,3.49,0,0,0-1.086-3.375.741.741,0,0,0-.035-.5,3.61,3.61,0,0,1-.944-2.376,1.906,1.906,0,0,1,1.927-2.1h.007a1.909,1.909,0,0,1,1.931,2.1,3.61,3.61,0,0,1-.945,2.37h0c-.206.643.123.793.175.811.1.034.2.073.306.113,1.05.405,2.11,1.07,2.11,1.75,0,.2,0,1.587,0,1.782,0,.7-1.625,1.735-4.531,2.287h.009a22.716,22.716,0,0,1-4.032.373h-.489a22.712,22.712,0,0,1-4.032-.373h.009c-2.9-.552-4.531-1.59-4.531-2.287,0-.2,0-1.587,0-1.782C6588.408,3555.811,6589.468,3555.146,6590.519,3554.741Z" transform="translate(-6582.163 -3539.1)" fill="#335ca5"/>
    </g>
    <g id="share-4997_9bbf4d0f-cc83-4516-ac96-b75f0c2e6758" transform="translate(1270.25 685.385)">
      <g transform="matrix(1, 0, 0, 1, -68.25, -18.65)" filter="url(#layer1)">
        <path id="layer1-2" data-name="layer1" d="M65.147,52.549a12.627,12.627,0,0,0-9.092,3.914l-.505-.253L27.644,42.195l-.505-.253a11.743,11.743,0,0,0,0-4.167l.505-.253L55.55,23.759l.505-.253a12.88,12.88,0,1,0-3.283-6.692l-.505.253L24.234,30.83l-.505.253a12.627,12.627,0,1,0,0,17.426l.505.253L52.141,62.9l.505.253a12.627,12.627,0,1,0,12.5-10.607Z" transform="translate(66.29 16.8)" fill="#335ca5"/>
      </g>
      <path id="opacity" d="M5.793,32.885a12.627,12.627,0,0,1,.379-3.031A12.627,12.627,0,1,0,26.881,42.229,12.627,12.627,0,0,1,5.793,32.885Zm59.822-5.865A12.661,12.661,0,0,0,77.8,17.3c-4.118,3.7-10.57,3.959-15.322,1.119A12.627,12.627,0,0,1,56.681,4.6,12.627,12.627,0,0,0,53.39,18.482,13.693,13.693,0,0,0,65.615,27.021ZM56.3,58.14a12.627,12.627,0,0,1,.379-3.031A12.627,12.627,0,1,0,77.39,67.484,12.627,12.627,0,0,1,56.3,58.14Z" transform="translate(-1.957 -1.125)" fill="#2d5294"/>
      <path id="opacity-2" data-name="opacity" d="M50.995,20.645l.505-.253A12.627,12.627,0,0,1,48.217,13.7l-.505.253L39.377,18.12a11.852,11.852,0,0,0,2.947,6.759ZM22.583,38.828A12.627,12.627,0,0,1,19.3,45.521l.505.253,5.3,2.652a12.5,12.5,0,0,0,2.652-7.071l-4.672-2.273ZM45.06,50.067A12.627,12.627,0,0,0,40.009,56l7.576,3.788.505.253a12.627,12.627,0,0,1,3.283-6.692l-.505-.253Z" transform="translate(2.593 1.266)" fill="#2d5294"/>
      <path id="stroke" d="M65.147,52.549a12.627,12.627,0,0,0-9.092,3.914l-.505-.253L27.644,42.195l-.505-.253a11.743,11.743,0,0,0,0-4.167l.505-.253L55.55,23.759l.505-.253a12.88,12.88,0,1,0-3.283-6.692l-.505.253L24.234,30.83l-.505.253a12.627,12.627,0,1,0,0,17.426l.505.253L52.141,62.9l.505.253a12.627,12.627,0,1,0,12.5-10.607Z" transform="translate(-1.962 -1.848)" fill="none"/>
    </g>
    <g id="Group_10450" data-name="Group 10450" transform="translate(1243.453 694.565)">
      <path id="Path_8377" data-name="Path 8377" d="M500.137,480.931a2.787,2.787,0,0,0-1.57-3.975l-.459-6.353-3.929-.662.775,8.962a2.8,2.8,0,0,0,5.183,2.028Z" transform="translate(-487.424 -420.8)" fill="#a0616a"/>
      <path id="Path_8378" data-name="Path 8378" d="M344.369,527.406h3.644l1.734-14.056h-5.378Z" transform="translate(-319.778 -416.939)" fill="#a0616a"/>
      <path id="Path_8379" data-name="Path 8379" d="M565.44,723.423h7.177A4.574,4.574,0,0,1,577.19,728v.149H565.44Z" transform="translate(-541.779 -614.145)" fill="#2f2e41"/>
      <path id="Path_8380" data-name="Path 8380" d="M294.252,527.406H297.9l1.733-14.056h-5.378Z" transform="translate(-281.551 -416.939)" fill="#a0616a"/>
      <path id="Path_8381" data-name="Path 8381" d="M515.323,723.423H522.5A4.574,4.574,0,0,1,527.074,728v.149h-11.75Z" transform="translate(-503.552 -614.145)" fill="#2f2e41"/>
      <path id="Path_8382" data-name="Path 8382" d="M284.491,313l-1.783,10.072,2.378,46.964h5.351l2.955-23.1,1.206-17.622,1.9,40.722,5.529.4,3.2-23.341.815-23.279L305.183,313Z" transform="translate(-272.746 -264.117)" fill="#2f2e41"/>
      <path id="Path_8383" data-name="Path 8383" d="M532.507,339.017l8.026,1.486,2.229,28.684s-9.809,4.459-13.376.594S532.507,339.017,532.507,339.017Z" transform="translate(-513.479 -320.936)" fill="#ccc"/>
      <path id="Path_8384" data-name="Path 8384" d="M583.964,349.591l-7.58-4.31-1.04,19.767s-.3,23.185,5.648,23.185l4.459-1.486-2.378-19.321Z" transform="translate(-549.332 -325.714)" fill="#2f2e41"/>
      <path id="Path_8385" data-name="Path 8385" d="M506.739,343.029l9.066-4.013,1.04,17.389s2.972,23.185-6.539,24.077c0,0-2.675.3-3.864-1.783l1.783-17.24Z" transform="translate(-496.777 -320.936)" fill="#2f2e41"/>
      <path id="Path_8386" data-name="Path 8386" d="M492.746,356.823l-1.783-.892s-.892,0-1.189.594-4.015,17.835-4.015,17.835l2.275,16.1,4.415-2.127-.919-13.45Z" transform="translate(-481.001 -333.837)" fill="#2f2e41"/>
      <path id="Path_8387" data-name="Path 8387" d="M596.577,488.121a2.787,2.787,0,0,1,1.251-4.087l-.044-6.369,3.864-.971-.064,9a2.8,2.8,0,0,1-5.007,2.431Z" transform="translate(-565.185 -425.951)" fill="#a0616a"/>
      <path id="Path_8388" data-name="Path 8388" d="M595.993,363.746l3.27-.3s1.189.428,1.486,4.078.3,12.807.3,12.807l.892,16.406h-5.053L595.4,380.094Z" transform="translate(-564.63 -339.571)" fill="#2f2e41"/>
      <circle id="Ellipse_1311" data-name="Ellipse 1311" cx="6.983" cy="6.983" r="6.983" transform="translate(17.047 1.639)" fill="#a0616a"/>
      <path id="Path_8389" data-name="Path 8389" d="M539.509,272.85l-.1-1.658c-.023-.387.1-.925.483-.9.328.024,1.06.152,1.157.049.363-.387,1.113.008,1.505-.35.164-.15.237-.415.452-.475a.612.612,0,0,1,.422.1,2.685,2.685,0,0,0,1.111.34,1.1,1.1,0,0,0,.995-.5.572.572,0,0,1,.15-.216.426.426,0,0,1,.27-.042l1.2.078a4.473,4.473,0,0,0-1.321-3.489,7.409,7.409,0,0,0-1.992-1.289q-1.224-.59-2.5-1.071a7.25,7.25,0,0,0-2.892-.615,2.9,2.9,0,0,0-2.466,1.415,1.737,1.737,0,0,1-.781-.7.639.639,0,0,0,.236.953l-1.09-.42c-.213.34.422.748.255,1.114a.6.6,0,0,1-.225.222,4.514,4.514,0,0,0-1.233,1.178,5.388,5.388,0,0,0-.7,2.279c-.239,1.766-.272,3.742.859,5.12.128.156,1.938,2.8,2.124,2.876.628.269.082-.58.586-.119.4.361.008-1.25.54-.987a1.169,1.169,0,0,0,1.259-.2c.164-.171-.047-.892-.287-1.545a.81.81,0,0,1,.784-1.09A3.517,3.517,0,0,0,539.509,272.85Z" transform="translate(-516.52 -262.803)" fill="#2f2e41"/>
      <path id="Path_8390" data-name="Path 8390" d="M439.472,742.635h58.6a.237.237,0,0,0,0-.475h-58.6a.237.237,0,0,0,0,.475Z" transform="translate(-439.235 -628.438)" fill="#ccc"/>
    </g>
  </g>
</svg>
