<svg xmlns="http://www.w3.org/2000/svg" xmlns:xlink="http://www.w3.org/1999/xlink" width="149" height="142" viewBox="0 0 149 142"><defs><style>.a,.b,.c,.l{fill:#cadff2;}.a{opacity:0.3;}.b{opacity:0.6;}.d,.k{fill:#fff;}.d,.l,.o,.p{stroke:#335ca5;}.d,.h,.l,.o,.p{stroke-width:2px;}.e{fill:#335ca5;}.f,.j{fill:#d6d6d6;}.f{stroke:#d6d6d6;}.g{fill:#70c0fc;}.h,.o,.r{fill:none;}.h{stroke:#fff;}.i{fill:#9a9a9a;}.l,.o,.p{stroke-linecap:round;stroke-linejoin:round;}.m{opacity:0.4;}.n{fill:#528cc6;}.p{fill:rgba(0,0,0,0);}.q{stroke:none;}.s{filter:url(#e);}.t{filter:url(#c);}.u{filter:url(#a);}</style><filter id="a" x="17" y="13" width="132" height="38" filterUnits="userSpaceOnUse"><feOffset dx="1" dy="3" input="SourceAlpha"/><feGaussianBlur stdDeviation="3" result="b"/><feFlood flood-opacity="0.349"/><feComposite operator="in" in2="b"/><feComposite in="SourceGraphic"/></filter><filter id="c" x="17" y="59" width="132" height="38" filterUnits="userSpaceOnUse"><feOffset dx="1" dy="3" input="SourceAlpha"/><feGaussianBlur stdDeviation="3" result="d"/><feFlood flood-opacity="0.349"/><feComposite operator="in" in2="d"/><feComposite in="SourceGraphic"/></filter><filter id="e" x="17" y="82" width="132" height="38" filterUnits="userSpaceOnUse"><feOffset dx="1" dy="3" input="SourceAlpha"/><feGaussianBlur stdDeviation="3" result="f"/><feFlood flood-opacity="0.349"/><feComposite operator="in" in2="f"/><feComposite in="SourceGraphic"/></filter></defs><g transform="translate(480 -4597)"><g transform="translate(515 -4)"><circle class="a" cx="71" cy="71" r="71" transform="translate(-995 4601)"/><circle class="b" cx="61" cy="61" r="61" transform="translate(-985 4611)"/><circle class="c" cx="51" cy="51" r="51" transform="translate(-975 4621)"/></g><g transform="translate(-464.427 4616)"><g transform="translate(9.143)"><g class="u" transform="matrix(1, 0, 0, 1, -24.72, -19)"><g class="d" transform="translate(25 19)"><rect class="q" width="114" height="20"/><rect class="r" x="1" y="1" width="112" height="18"/></g></g><circle class="e" cx="4" cy="4" r="4" transform="translate(7.284 6)"/><g class="f" transform="translate(21.284 7)"><rect class="q" width="51" height="6" rx="3"/><rect class="r" x="0.5" y="0.5" width="50" height="5" rx="2.5"/></g><g transform="translate(98.284 4.571)"><circle class="g" cx="5" cy="5" r="5" transform="translate(0 0.429)"/><path class="h" d="M561.623,407.222l2.158,2.151,3.458-4.686" transform="translate(-559.699 -401.916)"/></g></g><g transform="translate(9.143 46)"><g class="t" transform="matrix(1, 0, 0, 1, -24.72, -65)"><g class="d" transform="translate(25 65)"><rect class="q" width="114" height="20"/><rect class="r" x="1" y="1" width="112" height="18"/></g></g><circle class="e" cx="4" cy="4" r="4" transform="translate(7.284 6)"/><g class="f" transform="translate(21.284 7)"><rect class="q" width="51" height="6" rx="3"/><rect class="r" x="0.5" y="0.5" width="50" height="5" rx="2.5"/></g><g transform="translate(98.284 4.571)"><circle class="g" cx="5" cy="5" r="5" transform="translate(0 0.429)"/><path class="h" d="M561.623,407.222l2.158,2.151,3.458-4.686" transform="translate(-559.699 -401.916)"/></g></g><g transform="translate(9.143 69)"><g class="s" transform="matrix(1, 0, 0, 1, -24.72, -88)"><g class="d" transform="translate(25 88)"><rect class="q" width="114" height="20"/><rect class="r" x="1" y="1" width="112" height="18"/></g></g><circle class="e" cx="4" cy="4" r="4" transform="translate(7.284 6)"/><g class="f" transform="translate(21.284 7)"><rect class="q" width="51" height="6" rx="3"/><rect class="r" x="0.5" y="0.5" width="50" height="5" rx="2.5"/></g><g transform="translate(98.284 4.571)"><circle class="g" cx="5" cy="5" r="5" transform="translate(0 0.429)"/><path class="h" d="M561.623,407.222l2.158,2.151,3.458-4.686" transform="translate(-559.699 -401.916)"/></g></g><g transform="translate(0 22.857)"><rect class="i" width="114" height="20" transform="translate(0.427 0.143)"/><circle class="j" cx="4" cy="4" r="4" transform="translate(6.427 6.143)"/><rect class="j" width="50" height="4" rx="2" transform="translate(22.427 8.143)"/><g transform="translate(100.63 7.017)"><path class="h" d="M-383.129,4549l6.858,6.859" transform="translate(383.129 -4549)"/><path class="h" d="M0,0,6.858,6.858" transform="translate(6.858 0) rotate(90)"/></g></g></g><g transform="translate(-476 4667.418)"><path class="k" d="M37.952,11.036c-3.09-3.091-6.813-3.163-9.27-.708-1.492,1.492-2.124,2.309-4.634,2.309-2.07,0-4.542-2.866-4.542-2.866L1,28.273l7.446,7.449L6.909,37.258a4.619,4.619,0,1,0,6.525,6.54l-1.617,1.616a4.618,4.618,0,1,0,6.531,6.532l1.624-1.627a4.618,4.618,0,1,0,6.538,6.525l1.281-1.286a4.618,4.618,0,1,0,6.544,6.519l1.435-1.44L37.2,62.077a4.606,4.606,0,0,0,6.781-6.224l.027-.029,1.024,1.024a4.619,4.619,0,0,0,6.529-6.531l1.632,1.634a4.621,4.621,0,0,0,6.534-6.537l-4-4V41.4L58.1,43.781a4.619,4.619,0,0,0,6.532-6.532L63.1,35.714l7.187-7.186L49.745,8H44.88A10.393,10.393,0,0,0,37.952,11.036Z" transform="translate(-1 -8)"/><path class="l" d="M60.614,37.255,45.107,21.741c-2.819-2.818-5.932-3.085-9.256.24l-.968.956a4.618,4.618,0,1,1-6.531-6.532l3.268-3.261C35.391,9.37,37.536,8,40.711,8h5.012L66.262,28.528l-7.194,7.194" transform="translate(3.023 -8)"/><g transform="translate(4.561 24.533)"><path class="l" d="M16.093,37.233A4.619,4.619,0,1,0,9.566,30.7L6.3,33.968A4.619,4.619,0,1,0,12.834,40.5Z" transform="translate(-4.95 -29.246)"/><path class="l" d="M21.971,42.876a4.62,4.62,0,1,0-6.534-6.532l-4.894,4.894a4.618,4.618,0,1,0,6.531,6.532ZM28.5,49.407a4.619,4.619,0,0,0-6.528-6.531L18.706,46.14a4.619,4.619,0,0,0,6.53,6.529Z" transform="translate(-4.293 -28.357)"/><path class="l" d="M32.53,54.494A4.619,4.619,0,1,0,26,47.962L24.389,49.57A4.619,4.619,0,1,0,30.92,56.1Z" transform="translate(-2.151 -26.559)"/></g><g class="m" transform="translate(4.639 6.3)"><path class="n" d="M14.638,36.423l2.009-2.01-2.021,2.02-.167.169.013-.01Zm15.8,10.316-1.617,1.609-.012.014,1.627-1.628Zm13.467-6.084L43.7,41.1c1.859,1.6,3.836,3.344,4.875,4.383,2.167,2.169-.752,6.371-4.939,7.833A4.619,4.619,0,0,0,49.48,46.23Z" transform="translate(-3.556 -10.212)"/><path class="n" d="M44.259,56.81c-1.978,2.969-6.49,1.7-7.744,1.27l-.852.853A4.611,4.611,0,0,1,30.281,51.6l-1.289,1.291-.017.014a4.619,4.619,0,0,1-6.52-6.539l.17-.171,3.1-3.1L22.618,46.2l-.156.156-1.644,1.649A4.619,4.619,0,0,1,14.3,41.47l.7-.7.924-.924A4.619,4.619,0,0,1,9.411,33.3L6.293,36.411a4.619,4.619,0,0,0,6.519,6.542L11.195,44.57A4.618,4.618,0,1,0,17.726,51.1l1.624-1.627A4.618,4.618,0,1,0,25.887,56l1.281-1.286a4.618,4.618,0,1,0,6.544,6.519l1.435-1.44,1.434,1.439A4.6,4.6,0,0,0,44.293,56.8Zm1.155-42.726C43.1,11.775,39.64,16.394,36.175,18.7c-3.088,2.059-5.253.448-5.688-.744a4.619,4.619,0,0,0,7.8,4.137L42.39,17.99,62.47,34.878,65.852,31.5C60.171,26.748,47.209,15.88,45.413,14.084Z" transform="translate(-5.017 -13.455)"/></g><path class="o" d="M47.815,37.516l6.267,6.271a4.619,4.619,0,0,0,6.532-6.532L45.107,21.741c-2.819-2.818-5.932-3.085-9.256.24l-.968.956a4.618,4.618,0,1,1-6.531-6.532l3.268-3.261C35.391,9.37,37.536,8,40.711,8h5.012L66.262,28.528l-7.194,7.194" transform="translate(3.023 -8)"/><path class="o" d="M45.8,33.56l7.9,7.9A4.621,4.621,0,0,1,47.165,48l-7.2-7.208" transform="translate(5.029 -4.045)"/><path class="o" d="M40.527,39.819,46.1,45.393a4.619,4.619,0,1,1-6.527,6.529l-3.264-3.266" transform="translate(4.464 -3.076)"/><path class="o" d="M42.127,53.858l1.605,1.607A4.619,4.619,0,0,1,37.2,62L35.6,60.388M8.448,35.643,1,28.194l18.5-18.5s2.462,2.866,4.531,2.866c2.51,0,3.125-.815,4.619-2.309,2.453-2.455,6.143-2.382,9.238.708" transform="translate(-1 -7.921)"/><path class="p" d="M16.093,37.233A4.619,4.619,0,1,0,9.566,30.7L6.3,33.968A4.619,4.619,0,1,0,12.834,40.5Z" transform="translate(-0.389 -4.713)"/><path class="p" d="M21.971,42.876a4.62,4.62,0,1,0-6.534-6.532l-4.894,4.894a4.618,4.618,0,1,0,6.531,6.532ZM28.5,49.407a4.619,4.619,0,0,0-6.528-6.531L18.706,46.14a4.619,4.619,0,0,0,6.53,6.529Z" transform="translate(0.267 -3.823)"/><path class="p" d="M32.53,54.494A4.619,4.619,0,1,0,26,47.962L24.389,49.57A4.619,4.619,0,1,0,30.92,56.1Z" transform="translate(2.41 -2.025)"/></g></g></svg>