<svg xmlns="http://www.w3.org/2000/svg" width="16.57" height="13.092" viewBox="0 0 16.57 13.092"><defs><style>.a{fill:#666;}</style></defs><g transform="translate(0)"><path class="a" d="M4.877,16.035a.83.83,0,0,0,.092-.041c.017-.008.034-.014.05-.023a.842.842,0,0,0,.12-.083l.007-.006,2.236-1.907A.835.835,0,0,0,6.3,12.706l-.726.619a4.92,4.92,0,0,1,8.234-2.216.835.835,0,0,0,1.18-1.181A6.594,6.594,0,0,0,3.942,12.938l-.435-.593a.835.835,0,1,0-1.345.988L3.93,15.742l.008.009a.859.859,0,0,0,.1.107l.012.012a.84.84,0,0,0,.131.095c.012.008.026.013.04.019a.833.833,0,0,0,.107.048c.018.006.036.01.054.015a.846.846,0,0,0,.1.023l.025.006a.865.865,0,0,0,.09.005H4.6a.867.867,0,0,0,.1-.006l.024-.005a.8.8,0,0,0,.1-.021C4.838,16.046,4.858,16.042,4.877,16.035Z" transform="translate(-1.999 -7.999)"/><path class="a" d="M24.353,26.047a.828.828,0,0,0-.092.041c-.017.008-.034.014-.05.023a.842.842,0,0,0-.12.084l-.007.005-2.236,1.907a.835.835,0,0,0,1.083,1.27l.726-.62a4.92,4.92,0,0,1-8.234,2.216.835.835,0,0,0-1.18,1.181,6.594,6.594,0,0,0,11.044-3.009l.435.593a.835.835,0,1,0,1.345-.989L25.3,26.341l-.008-.009a.86.86,0,0,0-.1-.107l-.012-.013a.84.84,0,0,0-.131-.095c-.013-.008-.026-.013-.04-.02a.832.832,0,0,0-.107-.048c-.018-.006-.036-.01-.054-.016a.845.845,0,0,0-.1-.023l-.025-.006a.865.865,0,0,0-.09-.005h-.006a.867.867,0,0,0-.1.006.224.224,0,0,0-.024.005.8.8,0,0,0-.1.021C24.392,26.037,24.372,26.041,24.353,26.047Z" transform="translate(-10.661 -20.992)"/></g></svg>