<svg xmlns="http://www.w3.org/2000/svg" width="380.884" height="343.145" viewBox="0 0 380.884 343.145">
  <g id="Share_All_-_Success_Message-Graphic" data-name="Share All - Success Message-Graphic" transform="translate(0 0)">
    <path id="Path_8454" data-name="Path 8454" d="M398.471,289.408c-6.549-19.577-26.774-30.458-40.079-26.007s-22.911,25.311-16.362,44.889c6.062,18.121,24.431,28.583,37.068,26.716a1.434,1.434,0,0,0-.177.514l-.386,3.223a1.452,1.452,0,0,0,1.931,1.539l6.509-2.334a1.452,1.452,0,0,0,.513-2.416l-2.346-2.243a1.436,1.436,0,0,0-.275-.2C396.138,327.018,404.546,307.569,398.471,289.408Z" transform="translate(-304.101 -202.364)" fill="#cadff2"/>
    <path id="Path_8455" data-name="Path 8455" d="M398.172,282.263a23.882,23.882,0,0,1,10.807,31.065c-.563,1.282,1.508,1.957,2.068.683a26.113,26.113,0,0,0-11.666-33.56C398.151,279.8,396.934,281.608,398.172,282.263Z" transform="translate(-327.511 -209.623)" fill="#fff"/>
    <path id="Path_8456" data-name="Path 8456" d="M844.471,241.408c-6.549-19.577-26.774-30.458-40.079-26.007s-22.911,25.311-16.362,44.889c6.062,18.121,24.431,28.583,37.068,26.716a1.432,1.432,0,0,0-.177.514l-.386,3.223a1.452,1.452,0,0,0,1.931,1.539l6.509-2.334a1.452,1.452,0,0,0,.513-2.416l-2.346-2.243a1.438,1.438,0,0,0-.275-.2C842.138,279.018,850.546,259.569,844.471,241.408Z" transform="translate(-484.945 -182.901)" fill="#cadff2"/>
    <path id="Path_8457" data-name="Path 8457" d="M844.172,234.263a23.882,23.882,0,0,1,10.807,31.065c-.563,1.282,1.508,1.957,2.068.683a26.113,26.113,0,0,0-11.666-33.56C844.151,231.8,842.934,233.608,844.172,234.263Z" transform="translate(-508.355 -190.16)" fill="#fff"/>
    <path id="Path_8458" data-name="Path 8458" d="M585.471,188.408c-6.549-19.577-26.774-30.458-40.079-26.007s-22.911,25.311-16.362,44.889c6.062,18.121,24.431,28.583,37.068,26.716a1.432,1.432,0,0,0-.177.514l-.386,3.223a1.452,1.452,0,0,0,1.931,1.539l6.509-2.334a1.452,1.452,0,0,0,.513-2.416l-2.346-2.243a1.434,1.434,0,0,0-.274-.2C583.138,226.018,591.546,206.569,585.471,188.408Z" transform="translate(-379.926 -161.411)" fill="#cadff2"/>
    <path id="Path_8459" data-name="Path 8459" d="M585.172,181.263a23.882,23.882,0,0,1,10.807,31.065c-.563,1.282,1.508,1.957,2.068.683a26.113,26.113,0,0,0-11.667-33.56C585.151,178.8,583.934,180.608,585.172,181.263Z" transform="translate(-403.336 -168.669)" fill="#fff"/>
    <circle id="Ellipse_1326" data-name="Ellipse 1326" cx="1.56" cy="1.56" r="1.56" transform="translate(171.137 118.08)" fill="#ccc"/>
    <circle id="Ellipse_1327" data-name="Ellipse 1327" cx="3.082" cy="3.082" r="3.082" transform="translate(166.29 177.626)" fill="#ccc"/>
    <circle id="Ellipse_1328" data-name="Ellipse 1328" cx="1.781" cy="1.781" r="1.781" transform="translate(115.989 168.36)" fill="#ccc"/>
    <circle id="Ellipse_1329" data-name="Ellipse 1329" cx="1.929" cy="1.929" r="1.929" transform="translate(142.9 138.901)" fill="#ccc"/>
    <circle id="Ellipse_1330" data-name="Ellipse 1330" cx="1.56" cy="1.56" r="1.56" transform="translate(238.18 252.566)" fill="#ccc"/>
    <circle id="Ellipse_1331" data-name="Ellipse 1331" cx="3.082" cy="3.082" r="3.082" transform="translate(185.559 217.438)" fill="#ccc"/>
    <circle id="Ellipse_1332" data-name="Ellipse 1332" cx="1.781" cy="1.781" r="1.781" transform="translate(221.96 179.465)" fill="#ccc"/>
    <circle id="Ellipse_1333" data-name="Ellipse 1333" cx="1.929" cy="1.929" r="1.929" transform="translate(233.525 217.45)" fill="#ccc"/>
    <ellipse id="Ellipse_1334" data-name="Ellipse 1334" cx="4.019" cy="12.802" rx="4.019" ry="12.802" transform="translate(319.827 303.601) rotate(-39.938)" fill="#2f2e41"/>
    <circle id="Ellipse_1335" data-name="Ellipse 1335" cx="25.604" cy="25.604" r="25.604" transform="translate(278.288 280.784)" fill="#2f2e41"/>
    <rect id="Rectangle_3603" data-name="Rectangle 3603" width="7.779" height="13.937" transform="translate(306.952 326.482)" fill="#2f2e41"/>
    <rect id="Rectangle_3604" data-name="Rectangle 3604" width="7.779" height="13.937" transform="translate(291.395 326.482)" fill="#2f2e41"/>
    <ellipse id="Ellipse_1336" data-name="Ellipse 1336" cx="6.482" cy="2.431" rx="6.482" ry="2.431" transform="translate(301.766 338.15)" fill="#2f2e41"/>
    <ellipse id="Ellipse_1337" data-name="Ellipse 1337" cx="6.482" cy="2.431" rx="6.482" ry="2.431" transform="translate(286.209 337.826)" fill="#2f2e41"/>
    <path id="Path_8460" data-name="Path 8460" d="M777.058,613.951c2.286-9.207,12.378-14.626,22.541-12.1s16.548,12.033,14.262,21.241-9.871,9.237-20.034,6.714S774.772,623.158,777.058,613.951Z" transform="translate(-481.205 -339.748)" fill="#cadff2"/>
    <ellipse id="Ellipse_1338" data-name="Ellipse 1338" cx="4.019" cy="12.802" rx="4.019" ry="12.802" transform="translate(261.765 292.652) rotate(-64.626)" fill="#2f2e41"/>
    <circle id="Ellipse_1339" data-name="Ellipse 1339" cx="8.537" cy="8.537" r="8.537" transform="translate(291.529 292.449)" fill="#fff"/>
    <circle id="Ellipse_1340" data-name="Ellipse 1340" cx="2.845" cy="2.845" r="2.845" transform="translate(293.711 295.08)" fill="#3f3d56"/>
    <path id="Path_8461" data-name="Path 8461" d="M785.7,695.568a5.691,5.691,0,0,1-11.2,2.039h0l0-.011c-.56-3.093,1.831-4.187,4.924-4.747S785.142,692.475,785.7,695.568Z" transform="translate(-480.282 -376.797)" fill="#fff"/>
    <ellipse id="Ellipse_1341" data-name="Ellipse 1341" cx="12.802" cy="4.019" rx="12.802" ry="4.019" transform="matrix(0.357, -0.934, 0.934, 0.357, 81.308, 297.578)" fill="#2f2e41"/>
    <circle id="Ellipse_1342" data-name="Ellipse 1342" cx="25.604" cy="25.604" r="25.604" transform="translate(40.363 280.783)" fill="#2f2e41"/>
    <rect id="Rectangle_3605" data-name="Rectangle 3605" width="7.779" height="13.937" transform="translate(54.3 326.482)" fill="#2f2e41"/>
    <rect id="Rectangle_3606" data-name="Rectangle 3606" width="7.779" height="13.937" transform="translate(69.857 326.482)" fill="#2f2e41"/>
    <ellipse id="Ellipse_1343" data-name="Ellipse 1343" cx="6.482" cy="2.431" rx="6.482" ry="2.431" transform="translate(54.3 338.15)" fill="#2f2e41"/>
    <ellipse id="Ellipse_1344" data-name="Ellipse 1344" cx="6.482" cy="2.431" rx="6.482" ry="2.431" transform="translate(69.857 337.826)" fill="#2f2e41"/>
    <circle id="Ellipse_1345" data-name="Ellipse 1345" cx="8.751" cy="8.751" r="8.751" transform="translate(57.865 291.155)" fill="#fff"/>
    <circle id="Ellipse_1346" data-name="Ellipse 1346" cx="2.917" cy="2.917" r="2.917" transform="translate(63.699 296.989)" fill="#3f3d56"/>
    <path id="Path_8462" data-name="Path 8462" d="M348.6,622.115c-2.067-9.259,4.541-18.615,14.761-20.9s20.181,3.374,22.248,12.633-4.706,12.674-14.925,14.956S350.663,631.374,348.6,622.115Z" transform="translate(-307.465 -339.539)" fill="#cadff2"/>
    <ellipse id="Ellipse_1347" data-name="Ellipse 1347" cx="4.019" cy="12.802" rx="4.019" ry="12.802" transform="translate(23.84 292.652) rotate(-64.626)" fill="#2f2e41"/>
    <path id="Path_8463" data-name="Path 8463" d="M369.476,690.181c0,2.506,6.452,7.454,13.612,7.454s13.873-7.055,13.873-9.561-6.713.486-13.873.486S369.476,687.675,369.476,690.181Z" transform="translate(-316.085 -374.557)" fill="#fff"/>
    <circle id="Ellipse_1348" data-name="Ellipse 1348" cx="25.604" cy="25.604" r="25.604" transform="translate(162.667 256.408)" fill="#2f2e41"/>
    <rect id="Rectangle_3607" data-name="Rectangle 3607" width="7.779" height="13.937" transform="translate(176.604 302.107)" fill="#2f2e41"/>
    <rect id="Rectangle_3608" data-name="Rectangle 3608" width="7.779" height="13.937" transform="translate(192.161 302.107)" fill="#2f2e41"/>
    <ellipse id="Ellipse_1349" data-name="Ellipse 1349" cx="6.482" cy="2.431" rx="6.482" ry="2.431" transform="translate(176.604 313.775)" fill="#2f2e41"/>
    <ellipse id="Ellipse_1350" data-name="Ellipse 1350" cx="6.482" cy="2.431" rx="6.482" ry="2.431" transform="translate(192.161 313.451)" fill="#2f2e41"/>
    <path id="Path_8464" data-name="Path 8464" d="M554.315,581.115c-2.067-9.259,4.541-18.615,14.761-20.9s20.181,3.374,22.248,12.633-4.706,12.674-14.925,14.956S556.382,590.374,554.315,581.115Z" transform="translate(-390.88 -322.914)" fill="#335ca5"/>
    <ellipse id="Ellipse_1351" data-name="Ellipse 1351" cx="14.205" cy="4.459" rx="14.205" ry="4.459" transform="translate(199.513 274.566) rotate(-45.022)" fill="#2f2e41"/>
    <ellipse id="Ellipse_1352" data-name="Ellipse 1352" cx="4.459" cy="14.205" rx="4.459" ry="14.205" transform="translate(144.398 262.561) rotate(-44.978)" fill="#2f2e41"/>
    <path id="Path_8465" data-name="Path 8465" d="M805.956,330.852c-.85-26.254-18.831-46.977-40.163-46.286-47.474,1.407-48.634,88.465-2.8,94.719l-.97,7.714,14.156-.458-1.467-7.635C793.151,374.83,806.727,354.654,805.956,330.852Z" transform="translate(-462.022 -211.341)" fill="#2f7ff4"/>
    <path id="Path_8466" data-name="Path 8466" d="M745.995,366.247l-5.348.173a87.094,87.094,0,0,1-.981-30.3l5.348-.173A67.014,67.014,0,0,0,745.995,366.247Z" transform="translate(-465.831 -232.18)" fill="#fff"/>
    <rect id="Rectangle_3609" data-name="Rectangle 3609" width="16.052" height="3.567" transform="matrix(0.999, -0.032, 0.032, 0.999, 298.81, 167.964)" fill="#3f3d56"/>
    <path id="Path_8467" data-name="Path 8467" d="M450.106,418.887l-1.615-.756,39.721-134.7,1.615.757Z" transform="translate(-181.854 -114.925)" fill="#3f3d56"/>
    <path id="Path_8468" data-name="Path 8468" d="M861.8,358.163c9.7-24.411,1.486-50.589-18.348-58.47-44.09-17.66-79.9,61.7-40.375,85.729l-3.969,6.686,13.162,5.23,1.7-7.586C832.5,393.374,853,380.294,861.8,358.163Z" transform="translate(-484.99 -216.451)" fill="#335ca5"/>
    <path id="Path_8469" data-name="Path 8469" d="M801.964,358.841l-4.972-1.976a87.094,87.094,0,0,1,11.2-28.177l4.972,1.976A67.015,67.015,0,0,0,801.964,358.841Z" transform="translate(-489.434 -229.238)" fill="#fff"/>
    <rect id="Rectangle_3610" data-name="Rectangle 3610" width="3.567" height="16.052" transform="translate(314.776 171.441) rotate(-68.328)" fill="#3f3d56"/>
    <path id="Path_8470" data-name="Path 8470" d="M449.623,418.394l-1.55-.882,55.456-126.554,1.55.882Z" transform="translate(-181.684 -117.977)" fill="#3f3d56"/>
    <path id="Path_8471" data-name="Path 8471" d="M355.052,344.261c-10.5-24.08-34.863-36.688-54.428-28.161-43.591,18.857-12.485,100.177,32.414,89.044l1.95,7.526,12.984-5.659-4.186-6.552C359.412,389.857,364.567,366.092,355.052,344.261Z" transform="translate(-279.671 -223.053)" fill="#335ca5"/>
    <path id="Path_8472" data-name="Path 8472" d="M304.241,408.729l-4.905,2.138a87.093,87.093,0,0,1-12.114-27.8l4.905-2.138A67.014,67.014,0,0,0,304.241,408.729Z" transform="translate(-282.733 -250.423)" fill="#fff"/>
    <rect id="Rectangle_3611" data-name="Rectangle 3611" width="16.052" height="3.567" transform="matrix(0.917, -0.4, 0.4, 0.917, 51.361, 182.909)" fill="#3f3d56"/>
    <path id="Path_8473" data-name="Path 8473" d="M420.906,588.748h0a.892.892,0,0,1-1.08-.651L381.059,465.26l1.731-.429,38.767,122.837a.892.892,0,0,1-.651,1.08Z" transform="translate(-320.782 -284.441)" fill="#3f3d56"/>
    <path id="Path_8474" data-name="Path 8474" d="M401.444,737.778H308.1a.595.595,0,1,1,0-1.189h93.34a.595.595,0,0,1,0,1.189Z" transform="translate(-290.959 -394.634)" fill="#ccc"/>
    <path id="Path_8475" data-name="Path 8475" d="M800.444,737.778H707.1a.595.595,0,1,1,0-1.189h93.34a.595.595,0,1,1,0,1.189Z" transform="translate(-452.746 -394.634)" fill="#ccc"/>
    <path id="Path_8476" data-name="Path 8476" d="M613.444,696.778H520.1a.595.595,0,1,1,0-1.189h93.34a.595.595,0,1,1,0,1.189Z" transform="translate(-376.921 -378.009)" fill="#ccc"/>
    <circle id="Ellipse_1353" data-name="Ellipse 1353" cx="8.751" cy="8.751" r="8.751" transform="translate(178.444 269.633)" fill="#fff"/>
    <circle id="Ellipse_1354" data-name="Ellipse 1354" cx="2.917" cy="2.917" r="2.917" transform="translate(184.277 275.467)" fill="#3f3d56"/>
    <path id="Path_8477" data-name="Path 8477" d="M598.528,654.859a5.691,5.691,0,1,1-11.2,2.039h0l0-.011c-.56-3.093,1.831-4.187,4.924-4.747S597.968,651.766,598.528,654.859Z" transform="translate(-404.387 -360.291)" fill="#fff"/>
  </g>
</svg>
