<svg xmlns="http://www.w3.org/2000/svg" width="70" height="70" viewBox="0 0 70 70">
  <g id="Share-All-Icon" transform="translate(-2599 -2642.4)">
    <g id="Group_3855" data-name="Group 3855" transform="translate(2599 2642.4)">
      <circle id="Ellipse_683" data-name="Ellipse 683" cx="35" cy="35" r="35" fill="#cadff2" opacity="0.3"/>
      <circle id="Ellipse_684" data-name="Ellipse 684" cx="30.5" cy="30.5" r="30.5" transform="translate(5 4)" fill="#cadff2" opacity="0.6"/>
      <circle id="Ellipse_682" data-name="Ellipse 682" cx="25.5" cy="25.5" r="25.5" transform="translate(10 9)" fill="#cadff2"/>
    </g>
    <g id="Group_10168" data-name="Group 10168" transform="translate(2613.279 2655.66)">
      <g id="Ellipse_1232" data-name="Ellipse 1232" transform="translate(-0.279 -0.26)" fill="#fff" stroke="#335ca5" stroke-width="2">
        <circle cx="22" cy="22" r="22" stroke="none"/>
        <circle cx="22" cy="22" r="21" fill="none"/>
      </g>
      <path id="Path_3376" data-name="Path 3376" d="M6615.519,3560.328c-.179-.071-.358-.138-.536-.2-.09-.03-.667-.294-.306-1.42h-.006a6.321,6.321,0,0,0,1.654-4.148,3.343,3.343,0,0,0-3.381-3.672h-.011a3.337,3.337,0,0,0-3.374,3.672,6.326,6.326,0,0,0,1.653,4.16,1.3,1.3,0,0,1,.063.87c.974.842,2.381,2.587,1.9,5.907a11.365,11.365,0,0,0-2.02-3.87h.008c-.011-.014-.021-.029-.034-.043a7.844,7.844,0,0,0-2.814-2.082,17.545,17.545,0,0,0-1.867-.818,1.109,1.109,0,0,1-.63-.77,2.408,2.408,0,0,1,.135-.98h-.008a7.778,7.778,0,0,0,2.038-5.112c0-2.968-1.927-4.526-4.165-4.526h-.014c-2.238,0-4.166,1.557-4.166,4.526a7.785,7.785,0,0,0,2.038,5.112h-.008a2.391,2.391,0,0,1,.135.98,1.107,1.107,0,0,1-.63.77,17.48,17.48,0,0,0-1.866.818,7.822,7.822,0,0,0-2.814,2.082c-.013.014-.023.029-.035.043h.009a11.384,11.384,0,0,0-2.021,3.87c-.481-3.321.925-5.065,1.9-5.907a1.3,1.3,0,0,1,.062-.87,6.321,6.321,0,0,0,1.653-4.16,3.337,3.337,0,0,0-3.373-3.672h-.012a3.342,3.342,0,0,0-3.379,3.672,6.316,6.316,0,0,0,1.654,4.148h-.007c.361,1.125-.215,1.389-.306,1.42-.179.06-.356.127-.535.2-1.839.71-3.694,1.873-3.694,3.063,0,.342,0,2.779,0,3.12,0,1.221,2.846,3.038,7.932,4l-.016,0a39.677,39.677,0,0,0,7.058.653h.062l.335,0h.061l.334,0h.063a39.672,39.672,0,0,0,7.057-.653l-.015,0c5.085-.965,7.931-2.783,7.931-4,0-.341,0-2.778,0-3.12C6619.212,3562.2,6617.357,3561.038,6615.519,3560.328Z" transform="translate(-6582.09 -3537.494)" fill="#335ca5"/>
    </g>
    <g id="Group_10302" data-name="Group 10302" transform="translate(2642.868 2645.268)">
      <rect id="Rectangle_3416" data-name="Rectangle 3416" width="22" height="20" transform="translate(0.132 0.131)" fill="#2f7ff4"/>
      <path id="layer1" d="M14.527,11.931a2.511,2.511,0,0,0-1.808.778l-.1-.05L7.069,9.872l-.1-.05a2.335,2.335,0,0,0,0-.829l.1-.05,5.55-2.737.1-.05a2.561,2.561,0,1,0-.653-1.331l-.1.05L6.391,7.612l-.1.05a2.511,2.511,0,1,0,0,3.465l.1.05,5.55,2.813.1.05a2.511,2.511,0,1,0,2.486-2.109Z" transform="translate(1.417 0.782)" fill="#fff"/>
    </g>
  </g>
</svg>
