<svg xmlns="http://www.w3.org/2000/svg" width="395.662" height="173.381" viewBox="0 0 395.662 173.381"><defs><style>.a{fill:#f7f7f7;}.b,.q{fill:none;}.b{stroke:#70b270;}.b,.k{stroke-width:3px;}.c{fill:#70b270;}.d{fill:#d6d6d6;}.e{fill:#9a9a9a;}.f,.j,.k{fill:#fff;}.g{fill:#c1272d;}.h{fill:#ead630;}.i{fill:#8cc63f;}.j{stroke:#d6d6d6;stroke-miterlimit:10;stroke-width:2px;}.k{stroke:#2f7ff4;stroke-linecap:round;stroke-linejoin:round;}.l{fill:#2f7ff4;}.m{fill:#e6e6e6;}.n{fill:#a0616a;}.o{fill:#2f2e41;}.p{stroke:none;}</style></defs><g transform="translate(-16422.338 -6288.5)"><path class="a" d="M197.859-60.224C266.548-28.3,317.618-37.5,317.618-19.26S367.1,58.584,245.8,83.345,3.91,83.072,0,33.021,129.171-92.147,197.859-60.224Z" transform="translate(16422.422 6368.88)"/><g transform="translate(32905.461 12626) rotate(180)"><g class="b" transform="translate(16423 6297)"><rect class="p" width="43" height="24" rx="12"/><rect class="q" x="-1.5" y="-1.5" width="46" height="27" rx="13.5"/></g><circle class="c" cx="10" cy="10" r="10" transform="translate(16425 6299)"/></g><rect class="d" width="229" height="116" rx="5" transform="translate(16579 6330)"/><rect class="e" width="247" height="23" rx="5" transform="translate(16571 6314)"/><rect class="f" width="213" height="18" rx="5" transform="translate(16587 6344)"/><rect class="f" width="34" height="9" rx="4.5" transform="translate(16622 6321)"/><rect class="f" width="34" height="9" rx="4.5" transform="translate(16663 6321)"/><rect class="f" width="34" height="9" rx="4.5" transform="translate(16704 6321)"/><rect class="d" width="51" height="4" transform="translate(16605 6351)"/><rect class="d" width="36" height="4" transform="translate(16579 6323)"/><path class="g" d="M5,0h5a0,0,0,0,1,0,0V18a0,0,0,0,1,0,0H5a5,5,0,0,1-5-5V5A5,5,0,0,1,5,0Z" transform="translate(16587 6344)"/><path class="h" d="M4.5,0H10a0,0,0,0,1,0,0V9a0,0,0,0,1,0,0H4.5A4.5,4.5,0,0,1,0,4.5v0A4.5,4.5,0,0,1,4.5,0Z" transform="translate(16622 6321)"/><path class="g" d="M4.5,0H10a0,0,0,0,1,0,0V9a0,0,0,0,1,0,0H4.5A4.5,4.5,0,0,1,0,4.5v0A4.5,4.5,0,0,1,4.5,0Z" transform="translate(16663 6321)"/><path class="i" d="M4.5,0H10a0,0,0,0,1,0,0V9a0,0,0,0,1,0,0H4.5A4.5,4.5,0,0,1,0,4.5v0A4.5,4.5,0,0,1,4.5,0Z" transform="translate(16704 6321)"/><g transform="translate(0 17)"><rect class="f" width="213" height="23" rx="5" transform="translate(16587 6397)"/><g transform="translate(16781.797 6404.944)"><path class="j" d="M416.676,781.844l-2.283-2.282-.774.774,3.056,3.056,6.565-6.565-.774-.774Z" transform="translate(-413.62 -776.052)"/></g><rect class="d" width="145" height="4" transform="translate(16607 6411)"/><rect class="d" width="51" height="4" transform="translate(16607 6402)"/><path class="i" d="M5,0h5a0,0,0,0,1,0,0V23a0,0,0,0,1,0,0H5a5,5,0,0,1-5-5V5A5,5,0,0,1,5,0Z" transform="translate(16587 6397)"/></g><g transform="translate(0 -58)"><rect class="f" width="213" height="34" rx="5" transform="translate(16587 6430)"/><g transform="translate(16781.414 6434.377)"><path class="d" d="M422.077,950.762h-1.5v-.542c0-.918-.26-2.459-2-2.459-1.805,0-2,1.719-2,2.459v.542h-1.5v-.542c0-2.405,1.374-3.959,3.5-3.959s3.5,1.554,3.5,3.959Z" transform="translate(-413.575 -946.261)"/><path class="d" d="M421.065,954.634h-7a1.5,1.5,0,0,0-1.5,1.5v5a1.5,1.5,0,0,0,1.5,1.5h7a1.5,1.5,0,0,0,1.5-1.5v-5A1.5,1.5,0,0,0,421.065,954.634Zm-3,4.363v1.139a.5.5,0,0,1-1,0V959a1,1,0,1,1,1,0Z" transform="translate(-412.563 -949.633)"/></g><rect class="d" width="145" height="4" transform="translate(16607 6445)"/><rect class="d" width="145" height="4" transform="translate(16607 6454)"/><rect class="d" width="51" height="4" transform="translate(16607 6436)"/><path class="h" d="M5,0h5a0,0,0,0,1,0,0V34a0,0,0,0,1,0,0H5a5,5,0,0,1-5-5V5A5,5,0,0,1,5,0Z" transform="translate(16587 6430)"/></g><g transform="translate(18638.381 6722.371) rotate(180)"><circle class="k" cx="20" cy="20" r="20" transform="translate(1830.381 392.371)"/><path class="k" d="M1859.547,407.732l-8.7-6.7-8.7,6.7" transform="translate(-0.665 3.55)"/><path class="k" d="M1859.547,407.732l-8.7-6.7-8.7,6.7" transform="translate(-0.665 11.437)"/></g><rect class="l" width="37" height="9" rx="4.5" transform="translate(16759 6349)"/><g transform="translate(656.46 88.66)"><ellipse class="m" cx="36.538" cy="2.751" rx="36.538" ry="2.751" transform="translate(15810.463 6364.729)"/><path class="n" d="M772.236,320.941l-7.629,6.013-16.165-5.681s-5.5-6.182-8.6-1.578c-1.064,1.577,5.907,4.49,6.565,4.761,1.644.677,17.4,9.318,18.939,8.185s10.228-6.868,10.228-6.868Z" transform="translate(15070.953 5935.343)"/><path class="o" d="M889.568,240.229c-7.23-2.7-14.108-3.98-19.684,0V227.384a9.842,9.842,0,0,1,9.842-9.842h0a9.842,9.842,0,0,1,9.842,9.842Z" transform="translate(14979.662 6005.798)"/><path class="o" d="M817.719,384.126l-.591,4.136s-1.477,4.431,0,12.7L793.348,465.8l17.576,5.022,8.714-35.448L831.9,408.349l-1.182,30.722-6.2,32.79,18.315-.739,5.337-56.224a49.8,49.8,0,0,0-4.463-25.926c-1.481-3.144-3.072-5.622-4.517-5.982C834.852,381.911,817.719,384.126,817.719,384.126Z" transform="translate(15033.345 5889.96)"/><path class="o" d="M771.6,659.546l-6.056,6.5s-11.668,6.056-3.4,6.794,11.078-2.511,11.078-2.511,10.339-.739,10.191-2.216-.886-6.351-.886-6.351Z" transform="translate(15057.306 5695.776)"/><path class="o" d="M909.83,663.06v4.579a12.382,12.382,0,0,1,0,2.363c-.148.443-2.363,5.908,5.022,4.726s4.431-5.76,4.431-5.76l-1.772-6.646Z" transform="translate(14951.941 5693.83)"/><circle class="n" cx="7.422" cy="7.422" r="7.422" transform="translate(15851.876 6227.339)"/><path class="n" d="M895.1,267.486s-1.034,9.748,0,11.521-10.487-1.772-10.487-1.772,2.511-6.647,1.625-9.305S895.1,267.486,895.1,267.486Z" transform="translate(14969.333 5971.375)"/><path class="m" d="M859.7,311.057l2.363,6.5-22.007,2.511s-2.363-.443-2.363-2.363-2.511-8.714-2.511-8.714-6.15-4.984-9.1-6.314c-1.071-.482.531-.283,1.432-2.327.27-.614.594-1.263.947-1.92.288-.539.6-1.086.916-1.625.386-.657.783-1.3,1.168-1.92,1.167-1.862,2.232-3.428,2.573-4.062,1.034-1.92,10.754-2.091,10.754-2.091,2.78,1.749,10.81,2.091,10.81,2.091s5.524,2.312,7.825,4.062C862.673,295.009,859.7,311.057,859.7,311.057Z" transform="translate(15010.635 5955.866)"/><path class="o" d="M888.249,220.837v-.176l-.209.012a9.85,9.85,0,0,0-8.465-1.691,9.808,9.808,0,0,1,3.778,1.952l-7.114.4-3,6.673h2.032l1.638-3v3h6.873l.467-2.335,1.3,2.335h1.35c.008.167.021.332.021.5l-1.335,12.845,6.339-2.669V228.5A9.821,9.821,0,0,0,888.249,220.837Z" transform="translate(14977.312 6005.015)"/><path class="n" d="M941.91,339.758l-.443,11.668-1.182,22.6s1.625,9.748-2.511,9.6S936.74,372.1,936.74,372.1l-1.182-17.872,1.182-12.555Z" transform="translate(14933.598 5920.076)"/><path class="m" d="M934.071,315.231c0,1.329-7.459.96-7.459.96L922.7,295.735s5.524,2.312,7.825,4.062a6.934,6.934,0,0,1,1.31,1.92c.176.474.343,1.024.5,1.625s.3,1.245.44,1.92A78.563,78.563,0,0,1,934.071,315.231Z" transform="translate(14942.618 5950.954)"/></g></g></svg>