<svg xmlns="http://www.w3.org/2000/svg" width="20.449" height="20.218" viewBox="0 0 20.449 20.218">
  <g id="changelog-location-update" transform="translate(-955.593 -567.664)">
    <path id="Path_41031" data-name="Path 41031" d="M970.443,582.9c2.75.479,4.6,1.374,4.6,2.395,0,1.529-4.128,2.766-9.225,2.766s-9.224-1.238-9.224-2.766c0-1.018,1.839-1.91,4.575-2.389" transform="translate(0 -1.182)" fill="none" stroke="#000" stroke-width="2"/>
    <path id="Path_41032" data-name="Path 41032" d="M966.205,567.664a4.612,4.612,0,0,0-4.61,4.613c0,2.547,4.02,8.874,4.02,12.3H966.8c0-3.414,4.02-9.962,4.02-12.3A4.613,4.613,0,0,0,966.205,567.664Zm0,6.92a2.307,2.307,0,1,1,2.307-2.307A2.307,2.307,0,0,1,966.205,574.584Z" transform="translate(-0.388)"/>
  </g>
</svg>
