<svg xmlns="http://www.w3.org/2000/svg" width="22.028" height="22.031" viewBox="0 0 22.028 22.031">
  <g id="changelog-details-updated" transform="translate(-429.142 -921.5)">
    <g id="Group_10900" data-name="Group 10900" transform="translate(429.142 921.5)">
      <g id="Group_10899" data-name="Group 10899" transform="translate(5.936)">
        <path id="Path_13322" data-name="Path 13322" d="M436.73,939.969a.486.486,0,0,1-.465-.622l.9-3.055a.486.486,0,0,1,.932.273l-.646,2.2,2.2-.646a.486.486,0,1,1,.274.932l-3.054.9A.48.48,0,0,1,436.73,939.969Z" transform="translate(-436.244 -923.872)"/>
        <path id="Path_13323" data-name="Path 13323" d="M437.132,938.431l-.334,1.14a.276.276,0,0,0,.342.342l1.14-.335Z" transform="translate(-436.333 -924.281)"/>
        <path id="Path_13324" data-name="Path 13324" d="M449.535,925.556l0,0-.7-.7,0,0-.939-.938-10.341,10.3.788.787,1.009.083.056.983.829.829,10.341-10.3Z" transform="translate(-436.459 -921.897)"/>
        <path id="Path_13325" data-name="Path 13325" d="M453.072,925.973l-2.682-2.682.614-.575,2.682,2.682Z" transform="translate(-438.568 -921.7)"/>
        <path id="Path_13326" data-name="Path 13326" d="M454.209,924.731l-2.571-2.571.394-.4a.9.9,0,0,1,1.278.007l1.285,1.285a.9.9,0,0,1,.008,1.278Z" transform="translate(-438.773 -921.5)"/>
      </g>
      <path id="Path_13327" data-name="Path 13327" d="M439.48,943.8a10.338,10.338,0,1,1,3.043-20.22,1.137,1.137,0,1,1-.669,2.173,8.054,8.054,0,1,0,5.254,5.089,1.137,1.137,0,0,1,2.15-.737A10.343,10.343,0,0,1,439.48,943.8Z" transform="translate(-429.142 -921.767)"/>
    </g>
  </g>
</svg>
