<svg xmlns="http://www.w3.org/2000/svg" width="20.387" height="22.611" viewBox="0 0 20.387 22.611">
  <path id="changelog-invitation-accepted" d="M629.845,216.868c.945,1.577-.128,3.552-.931,5.273-.691,1.481-.586,3.161,1.267,2.945,2.232-.259,3.132-.437,5.032-.567,1.919-.13,2.524.656,2.524,1.385,0,1.176-.393,1.265-.393,1.716s1.471.157,1.471,1.638-1.149,1.435-1.149,1.847,1.118.6,1.118,1.786-1.508,1.342-1.508,1.832.486.617.486,1.351-1.53,2.345-6.929,2.345c-9.2,0-8.111-2.2-12.406-2.2v-8.144c2.236,0,2.114-1.979,3.658-3.489s4.534-4.975,5.118-7.695C627.6,215.068,629.26,215.9,629.845,216.868Z" transform="translate(-618.427 -215.81)"/>
</svg>
