<svg xmlns="http://www.w3.org/2000/svg" width="17.886" height="22.611" viewBox="0 0 17.886 22.611">
  <path id="data-sharing-stopped" d="M9.7,16.117A5.931,5.931,0,0,0,6.364,13.17c-.474-.2-1.182-.253-1.382-.6a3.729,3.729,0,0,1-.106-1.688c0-2.426,0-4.852,0-7.278,0-.175-.008-.35,0-.525A1.408,1.408,0,0,1,6.142,1.654,1.354,1.354,0,0,1,7.352,3.1c.01,2.226.022,4.452,0,6.677-.007.6.251.813.752.634.17-.061.3-.464.305-.712.021-2.526.012-5.052.011-7.578,0-.25-.006-.5,0-.75A1.345,1.345,0,0,1,9.629,0,1.341,1.341,0,0,1,10.9,1.4c.02,1.325.008,2.651.008,3.976q0,2.213,0,4.427c0,.333-.04.65.465.665s.546-.271.544-.666c-.009-2.176,0-4.352,0-6.527,0-.15,0-.3,0-.45a1.388,1.388,0,0,1,1.3-1.461A1.377,1.377,0,0,1,14.4,2.841c.009,2.451.007,4.9.009,7.352,0,.242,0,.484,0,.706,1.019.185,1.054.16,1.057-.724,0-1.3,0-2.6,0-3.9A1.322,1.322,0,0,1,16.714,4.8c.685.017,1.157.586,1.159,1.47.007,3.851.03,7.7-.013,11.554A5.114,5.114,0,0,1,12.981,22.6c-1.05.008-2.1-.035-3.151.009a6.185,6.185,0,0,1-5.577-2.934C2.9,17.721,1.67,15.688.41,13.677a1.888,1.888,0,0,1,.04-2.421,1.7,1.7,0,0,1,2.258.578,7.478,7.478,0,0,0,3.93,2.822,3.169,3.169,0,0,1,1.523,1.27c.491.741.918.661,1.535.192" transform="translate(0 -0.001)"/>
</svg>
