<svg xmlns="http://www.w3.org/2000/svg" width="81.478" height="79.783" viewBox="0 0 81.478 79.783">
  <g id="no-results-found-graphic" transform="translate(-0.001 -0.001)">
    <path id="Path_42440" data-name="Path 42440" d="M14.905,51.732l3.844-3.844a23.669,23.669,0,0,1-7.675-17.471v-.008a23.734,23.734,0,0,1,41.21-16.057l3.884-3.883a29.512,29.512,0,0,0-3.289-3.037,29.2,29.2,0,0,0-37.973,44.3" transform="translate(-0.417 -0.085)" fill="#afafaf"/>
    <path id="Path_42441" data-name="Path 42441" d="M79.891,65.6h0L66.2,51.9a5.365,5.365,0,0,0-6.329-.888l-2.639-2.643a29.136,29.136,0,0,0,5.1-26.344l16.5-16.5A3.237,3.237,0,0,0,74.258.949L.949,74.258a3.237,3.237,0,1,0,4.577,4.577l20.6-20.6a29.153,29.153,0,0,0,26.313-5.079L55.083,55.8a5.353,5.353,0,0,0,.9,6.321l13.689,13.7a5.417,5.417,0,0,0,7.661,0l0,0,2.557-2.554a5.422,5.422,0,0,0,0-7.668m-45.5-11.535a23.87,23.87,0,0,1-3.787-.31L57.819,26.543A23.7,23.7,0,0,1,34.393,54.065" transform="translate(0 0)" fill="#afafaf"/>
  </g>
</svg>
