<svg id="view-changelog" xmlns="http://www.w3.org/2000/svg" width="20.043" height="17.171" viewBox="0 0 20.043 17.171">
  <path id="Path_4956" data-name="Path 4956" d="M10.869,17.171c-.447-.075-.9-.128-1.339-.228a8.4,8.4,0,0,1-4-2.164c-.042-.04-.079-.086-.112-.122l1.334-1.333A6.608,6.608,0,0,0,12.1,15.232a6.485,6.485,0,0,0,4.052-1.887A6.682,6.682,0,1,0,4.794,8.576H7.559L3.768,12.354,0,8.587H2.846c.05-.483.078-.944.148-1.4a8.584,8.584,0,0,1,16.791-.726c.113.445.174.9.259,1.357V9.341A1.3,1.3,0,0,0,20,9.512,8.578,8.578,0,0,1,13.13,17c-.363.071-.732.115-1.1.172Z" transform="translate(0 0)" fill="#666"/>
  <path id="Path_4958" data-name="Path 4958" d="M234.432,106.579h1.414v.251c0,1.186,0,2.371,0,3.557a.347.347,0,0,0,.2.352c1.042.608,2.078,1.227,3.146,1.86l-.677,1.145c-.067-.036-.126-.063-.181-.1q-1.865-1.105-3.728-2.216a.362.362,0,0,1-.171-.242c-.01-1.506-.007-3.013-.006-4.519a.875.875,0,0,1,.012-.091" transform="translate(-223.906 -101.799)" fill="#666"/>
</svg>
