<svg xmlns="http://www.w3.org/2000/svg" width="53" height="53" viewBox="0 0 53 53">
  <g id="Group_162273" data-name="Group 162273" transform="translate(-8764.001 -1284)">
    <g id="Group_162272" data-name="Group 162272" transform="translate(8745.424 483.955)">
      <g id="Group_25" data-name="Group 25" transform="translate(18.577 800.045)">
        <circle id="Ellipse_10" data-name="Ellipse 10" cx="26.5" cy="26.5" r="26.5" transform="translate(0 0)"/>
      </g>
    </g>
    <path id="Union_1" data-name="Union 1" d="M9,32a2,2,0,0,1-2-2V17H2.071a1,1,0,0,1-.783-1.622L12.717.986a1,1,0,0,1,1.566,0L25.712,15.378A1,1,0,0,1,24.929,17H20V30a2,2,0,0,1-2,2Z" transform="translate(8777 1293)" fill="#fff"/>
  </g>
</svg>
