<svg xmlns="http://www.w3.org/2000/svg" width="52" height="50" viewBox="0 0 52 50"><g transform="translate(-310.913 -699.192)"><path d="M354.116,736.264l-2.829-2.886-5.744,5.809,2.327.488.466,2.441Z"/><path d="M338.232,739.614a3.6,3.6,0,0,1,1.052-1.669l14.836-14.87a4.731,4.731,0,0,1,2.551-1.358V699.192l-12.32,5.367-10.559-5.367-12.32,5.367-10.559-5.367v41.15l10.559,5.367,1.807-.787h0l10.513-4.581,3.691,1.877Zm-23.8-34.632,5.465,2.778,1.461.743,1.5-.656,10.818-4.712,9.1,4.625,1.461.743,1.5-.656,7.413-3.228v4.2l-9.261,4.466-11.006-.747-6.619,5.827-11.832-6.683Zm0,8.752,10.416,5.883-5.049,4.444-5.367,4.468Zm19.359,17.274c-3.806,0-8.621,1.5-10.1,9.839l-2.111.919-7.153-3.636v-2.663l8.766-7.3,11.5-10.121,10.212.693,8.24-3.975V720.6a12.811,12.811,0,0,0-8.8,3.642c-4.956.281-3.971,5.1-7.039,6.858C335.495,732.137,334.748,731.008,333.792,731.008Z"/><path d="M362.257,728.187l-3.143-3.2a2.174,2.174,0,0,0-3.122-.017l-2.528,2.585,6.28,6.412,2.53-2.587A2.288,2.288,0,0,0,362.257,728.187Z"/><path d="M341.078,739.917a.913.913,0,0,0-.312.45l-2.189,7.616a.955.955,0,0,0,.232.933.924.924,0,0,0,.658.276.9.9,0,0,0,.261-.038l7.464-2.237a.905.905,0,0,0,.423-.29l10.237-10.356-6.556-6.688Zm.994,6.566-.875-.894,1.241-4.313,3.176.666.627,3.293Z"/></g></svg>