<svg xmlns="http://www.w3.org/2000/svg" width="37.194" height="48.353" viewBox="0 0 37.194 48.353">
  <g id="drag-drop-indicator" transform="translate(-1072 -330.788)">
    <g id="Group_1200" data-name="Group 1200" transform="translate(1072 330.788)">
      <path id="Path_495" data-name="Path 495" d="M1529.11,40.824c-.455-.446-.92-.9-1.378-1.361s-.916-.922-1.362-1.378c-3.182-3.247-5.077-5.085-7.053-5.085h-14.878A7.449,7.449,0,0,0,1497,40.439V73.914a7.449,7.449,0,0,0,7.439,7.439h22.317a7.449,7.449,0,0,0,7.439-7.439V47.878C1534.194,45.9,1532.357,44.006,1529.11,40.824Zm1.365,33.09a3.721,3.721,0,0,1-3.719,3.719h-22.317a3.721,3.721,0,0,1-3.72-3.719V40.439a3.721,3.721,0,0,1,3.72-3.719l13.556-.007c1.341.342,1.323,1.99,1.323,3.64v5.667a1.862,1.862,0,0,0,1.859,1.86h5.579c1.856,0,3.719.009,3.719,1.86Z" transform="translate(-1497 -33)" fill="#989898"/>
    </g>
    <g id="Group_164028" data-name="Group 164028" transform="translate(1083.953 347.596)">
      <path id="Path_41296" data-name="Path 41296" d="M5.476,5.371V0l9.867,7.048L5.476,14.1V8.337C1.553,8.338-4.584,5.468,5.476,5.371Z" transform="translate(14.096 6.478) rotate(90)" fill="#989898"/>
      <rect id="Rectangle_149407" data-name="Rectangle 149407" width="4.739" height="15.163" transform="translate(4.553)" fill="#989898"/>
    </g>
  </g>
</svg>
