<svg width="34" height="34" viewBox="0 0 34 34" fill="none" xmlns="http://www.w3.org/2000/svg">
<path fill-rule="evenodd" clip-rule="evenodd" d="M17 34C26.3888 34 34 26.3888 34 17C34 7.61116 26.3888 0 17 0C7.61116 0 0 7.61116 0 17C0 26.3888 7.61116 34 17 34ZM17.2635 13.7784L22.491 8.55086C23.1081 7.93372 24.1972 7.93372 24.8143 8.55086L25.976 9.71254C26.6295 10.366 26.5932 11.4187 25.976 12.0359L20.7485 17.2634L25.976 22.491C26.6295 23.1444 26.5932 24.1972 25.976 24.8143L24.8143 25.976C24.1609 26.6294 23.1444 26.6294 22.491 25.976L17.2635 20.7485L12.0359 25.976C11.3825 26.6294 10.366 26.6294 9.71257 25.976L8.55089 24.8143C7.93375 24.1972 7.89745 23.1444 8.55089 22.491L13.7784 17.2634L8.55089 12.0359C7.93375 11.4187 7.89745 10.366 8.55089 9.71254L9.71257 8.55086C10.3297 7.93372 11.4188 7.93372 12.0359 8.55086L17.2635 13.7784Z" fill="#BF2121"/>
</svg>
