<svg id="Group_165866" data-name="Group 165866" xmlns="http://www.w3.org/2000/svg" xmlns:xlink="http://www.w3.org/1999/xlink" width="357.388" height="298.805" viewBox="0 0 357.388 298.805">
  <defs>
    <linearGradient id="linear-gradient" x1="0.5" x2="0.5" y2="1" gradientUnits="objectBoundingBox">
      <stop offset="0" stop-color="#fff"/>
      <stop offset="1" stop-color="#d9edff"/>
    </linearGradient>
  </defs>
  <ellipse id="Ellipse_2148" data-name="Ellipse 2148" cx="141.143" cy="7.218" rx="141.143" ry="7.218" transform="translate(26.722 284.37)" fill="#f2f2f2"/>
  <path id="Path_41973" data-name="Path 41973" d="M561.27,146.75h-1.6V102.825A25.423,25.423,0,0,0,534.244,77.4H441.183a25.423,25.423,0,0,0-25.423,25.423V343.8a25.423,25.423,0,0,0,25.423,25.423h93.061A25.423,25.423,0,0,0,559.667,343.8V178.017h1.6Z" transform="translate(-310.942 -77.403)" fill="#3f3d56"/>
  <path id="Path_41974" data-name="Path 41974" d="M564.736,112.883V353.5a18.986,18.986,0,0,1-18.986,18.986H452.242a18.986,18.986,0,0,1-18.986-18.986V112.883A18.987,18.987,0,0,1,452.242,93.9h11.344a9.025,9.025,0,0,0,8.352,12.426h53.314A9.025,9.025,0,0,0,533.6,93.9H545.75a18.987,18.987,0,0,1,18.986,18.986Z" transform="translate(-321.422 -87.283)" fill="url(#linear-gradient)"/>
  <circle id="Ellipse_2157" data-name="Ellipse 2157" cx="36" cy="36" r="36" transform="translate(161 61.41)" fill="#fff"/>
  <circle id="Ellipse_2159" data-name="Ellipse 2159" cx="36" cy="36" r="36" transform="translate(125 185.41)" fill="#fff"/>
  <path id="Path_41975" data-name="Path 41975" d="M643.619,395.54q-1.184.928-2.409,1.757a94.486,94.486,0,0,1-10.044,3.767,29.257,29.257,0,0,1-3.545.81q-1.482.252-2.995.359c-.718.053-1.437.076-2.16.076a31.092,31.092,0,0,1-8.536-1.2c-.734-.2-1.452-.435-2.17-.7a82.6,82.6,0,0,1-11.491-6.135c.2-.413-.219-.947,0-1.344,4.82-8.959,11.954-15.419,19.62-16.017s15.139,3.724,20.552,11.885a59.077,59.077,0,0,1,2.577,5.476C643.226,394.692,643.425,395.112,643.619,395.54Z" transform="translate(-425.772 -268.876)" fill="#62b4ff"/>
  <path id="Path_41991" data-name="Path 41991" d="M643.619,395.54q-1.184.928-2.409,1.757a94.486,94.486,0,0,1-10.044,3.767,29.257,29.257,0,0,1-3.545.81q-1.482.252-2.995.359c-.718.053-1.437.076-2.16.076a31.092,31.092,0,0,1-8.536-1.2c-.734-.2-1.452-.435-2.17-.7a82.6,82.6,0,0,1-11.491-6.135c.2-.413-.219-.947,0-1.344,4.82-8.959,11.954-15.419,19.62-16.017s15.139,3.724,20.552,11.885a59.077,59.077,0,0,1,2.577,5.476C643.226,394.692,643.425,395.112,643.619,395.54Z" transform="translate(-461.532 -144.899)" fill="#535a80"/>
  <circle id="Ellipse_2149" data-name="Ellipse 2149" cx="17.607" cy="17.607" r="17.607" transform="translate(179.731 76.528)" fill="#2f2e41"/>
  <circle id="Ellipse_2150" data-name="Ellipse 2150" cx="13.104" cy="13.104" r="13.104" transform="translate(177.95 95.054) rotate(-28.663)" fill="#a0616a"/>
  <path id="Path_41976" data-name="Path 41976" d="M638.666,296.422a17.823,17.823,0,0,1-10.186,3.148,10.922,10.922,0,0,0,4.329,1.781,35.938,35.938,0,0,1-14.68.082,9.5,9.5,0,0,1-3.073-1.055,3.889,3.889,0,0,1-1.9-2.537c-.322-1.84,1.112-3.511,2.6-4.638a19.19,19.19,0,0,1,16.126-3.222,8.831,8.831,0,0,1,4.776,2.7,4.351,4.351,0,0,1,.4,5.167Z" transform="translate(-429.162 -204.397)" fill="#2f2e41"/>
  <path id="Path_41978" data-name="Path 41978" d="M611.966,264.724c-.189-1.992-2.63-3.218-4.538-2.617a5.708,5.708,0,0,0-3.54,4.488,6.438,6.438,0,0,0,.868,4.861,4.429,4.429,0,0,0,4.391,1.9,5.093,5.093,0,0,0,3.569-4.138,14.966,14.966,0,0,0-.368-5.739Z" transform="translate(-423.545 -187.953)" fill="#2f2e41"/>
  <path id="Path_41979" data-name="Path 41979" d="M678.948,271.821c-.189-1.992-2.63-3.218-4.538-2.617a5.708,5.708,0,0,0-3.54,4.488,6.439,6.439,0,0,0,.868,4.861,4.43,4.43,0,0,0,4.391,1.9,5.093,5.093,0,0,0,3.569-4.138,14.965,14.965,0,0,0-.368-5.739Z" transform="translate(-463.669 -192.205)" fill="#2f2e41"/>
  <path id="Path_41980" data-name="Path 41980" d="M288.513,247.044a1.8,1.8,0,0,1-1.326-.587l-19.9-21.706a2.414,2.414,0,0,0-1.775-.781H160.371a6.025,6.025,0,0,1-6.018-6.018V180.034a6.025,6.025,0,0,1,6.018-6.018H296.592a6.025,6.025,0,0,1,6.018,6.018v37.917a6.025,6.025,0,0,1-6.018,6.018H292.73a2.411,2.411,0,0,0-2.408,2.408v18.859a1.794,1.794,0,0,1-1.151,1.682A1.815,1.815,0,0,1,288.513,247.044Z" transform="translate(-154.353 -135.276)" fill="#fff"/>
  <path id="Path_41981" data-name="Path 41981" d="M288.513,247.044a1.8,1.8,0,0,1-1.326-.587l-19.9-21.706a2.414,2.414,0,0,0-1.775-.781H160.371a6.025,6.025,0,0,1-6.018-6.018V180.034a6.025,6.025,0,0,1,6.018-6.018H296.592a6.025,6.025,0,0,1,6.018,6.018v37.917a6.025,6.025,0,0,1-6.018,6.018H292.73a2.411,2.411,0,0,0-2.408,2.408v18.859a1.794,1.794,0,0,1-1.151,1.682A1.815,1.815,0,0,1,288.513,247.044ZM160.371,174.818a5.222,5.222,0,0,0-5.216,5.216v37.917a5.222,5.222,0,0,0,5.216,5.216H265.515a3.218,3.218,0,0,1,2.366,1.041l19.9,21.706a1,1,0,0,0,1.743-.678V226.377a3.213,3.213,0,0,1,3.21-3.21h3.862a5.222,5.222,0,0,0,5.216-5.216V180.034a5.222,5.222,0,0,0-5.216-5.216Z" transform="translate(-154.353 -135.276)" fill="#a8a8a8"/>
  <circle id="Ellipse_2151" data-name="Ellipse 2151" cx="5.266" cy="5.266" r="5.266" transform="translate(9.496 44.933)" fill="#335ca5"/>
  <path id="Path_41982" data-name="Path 41982" d="M304.422,266.878H180.489a2.809,2.809,0,1,1,0-5.617H304.422a2.809,2.809,0,0,1,0,5.617Z" transform="translate(-168.326 -187.538)" fill="#e6e6e6"/>
  <path id="Path_41983" data-name="Path 41983" d="M264.047,237.108H180.489a2.809,2.809,0,1,1,0-5.617h83.559a2.809,2.809,0,0,1,0,5.617Z" transform="translate(-168.326 -169.705)" fill="#e6e6e6"/>
  <path id="Path_41984" data-name="Path 41984" d="M689.343,567.919a1.794,1.794,0,0,1-1.151-1.682V547.377a2.41,2.41,0,0,0-2.408-2.408h-3.862a6.025,6.025,0,0,1-6.018-6.018V501.034a6.025,6.025,0,0,1,6.018-6.018H818.144a6.025,6.025,0,0,1,6.018,6.018v37.917a6.025,6.025,0,0,1-6.018,6.018H713a2.414,2.414,0,0,0-1.775.781l-19.9,21.706a1.794,1.794,0,0,1-1.326.587A1.814,1.814,0,0,1,689.343,567.919Z" transform="translate(-466.774 -327.563)" fill="#fff"/>
  <path id="Path_41985" data-name="Path 41985" d="M689.343,567.919a1.794,1.794,0,0,1-1.151-1.682V547.377a2.41,2.41,0,0,0-2.408-2.408h-3.862a6.025,6.025,0,0,1-6.018-6.018V501.034a6.025,6.025,0,0,1,6.018-6.018H818.144a6.025,6.025,0,0,1,6.018,6.018v37.917a6.025,6.025,0,0,1-6.018,6.018H713a2.414,2.414,0,0,0-1.775.781l-19.9,21.706a1.794,1.794,0,0,1-1.326.587A1.814,1.814,0,0,1,689.343,567.919Zm-7.42-72.1a5.222,5.222,0,0,0-5.216,5.216v37.917a5.222,5.222,0,0,0,5.216,5.216h3.862a3.213,3.213,0,0,1,3.21,3.21v18.859a1,1,0,0,0,1.743.678l19.9-21.706A3.218,3.218,0,0,1,713,544.168H818.144a5.222,5.222,0,0,0,5.216-5.216V501.034a5.222,5.222,0,0,0-5.216-5.216Z" transform="translate(-466.774 -327.563)" fill="#a8a8a8"/>
  <circle id="Ellipse_2152" data-name="Ellipse 2152" cx="17.724" cy="17.724" r="17.724" transform="translate(142.042 197.475)" fill="#2f2e41"/>
  <circle id="Ellipse_2153" data-name="Ellipse 2153" cx="13.191" cy="13.191" r="13.191" transform="translate(143.476 226.622) rotate(-61.337)" fill="#ffb8b8"/>
  <path id="Path_41987" data-name="Path 41987" d="M522.25,598.243a17.941,17.941,0,0,0,10.253,3.169,10.994,10.994,0,0,1-4.358,1.793,36.179,36.179,0,0,0,14.777.083,9.563,9.563,0,0,0,3.093-1.063,3.915,3.915,0,0,0,1.909-2.554c.324-1.852-1.119-3.535-2.619-4.669a19.318,19.318,0,0,0-16.233-3.244,8.889,8.889,0,0,0-4.808,2.717,4.379,4.379,0,0,0-.4,5.2Z" transform="translate(-374.732 -385.167)" fill="#2f2e41"/>
  <circle id="Ellipse_2154" data-name="Ellipse 2154" cx="5.266" cy="5.266" r="5.266" transform="translate(220.81 173.245)" fill="#335ca5"/>
  <path id="Path_41989" data-name="Path 41989" d="M831.422,586.878H707.489a2.809,2.809,0,0,1,0-5.617H831.422a2.809,2.809,0,1,1,0,5.617Z" transform="translate(-484.012 -379.226)" fill="#e6e6e6"/>
  <path id="Path_41990" data-name="Path 41990" d="M791.047,557.108H707.489a2.809,2.809,0,0,1,0-5.617h83.559a2.809,2.809,0,1,1,0,5.617Z" transform="translate(-484.012 -361.393)" fill="#e6e6e6"/>
  <ellipse id="Ellipse_2155" data-name="Ellipse 2155" cx="9.825" cy="1.09" rx="9.825" ry="1.09" transform="translate(212.573 241.765)" fill="#f2f2f2"/>
  <ellipse id="Ellipse_2156" data-name="Ellipse 2156" cx="9.825" cy="1.09" rx="9.825" ry="1.09" transform="translate(124.759 113.453)" fill="#f2f2f2"/>
  <g id="Ellipse_2158" data-name="Ellipse 2158" transform="translate(161 61.41)" fill="none" stroke="#a8a8a8" stroke-width="1">
    <circle cx="36" cy="36" r="36" stroke="none"/>
    <circle cx="36" cy="36" r="35.5" fill="none"/>
  </g>
  <g id="Ellipse_2160" data-name="Ellipse 2160" transform="translate(125 185.41)" fill="none" stroke="#a8a8a8" stroke-width="1">
    <circle cx="36" cy="36" r="36" stroke="none"/>
    <circle cx="36" cy="36" r="35.5" fill="none"/>
  </g>
</svg>
