<svg xmlns="http://www.w3.org/2000/svg" width="65.091" height="58.5" viewBox="0 0 65.091 58.5">
  <g id="no-files-attached-icon" transform="translate(222.035 -5.78)">
    <path id="Path_41417" data-name="Path 41417" d="M-205.865,14.782a4.5,4.5,0,0,1,4.5-4.5h16.4c1.622.414,1.6,2.407,1.6,4.4v6.852a2.236,2.236,0,0,0,.374,1.235l11.184-7.815c-.457-.447-.917-.9-1.374-1.357-.553-.56-1.107-1.116-1.647-1.667C-178.679,8-180.971,5.78-183.364,5.78h-17.987a9.01,9.01,0,0,0-9.01,9V41.894l4.5-3.142Z" fill="#bababa"/>
    <path id="Path_41418" data-name="Path 41418" d="M-157.35,11.7a2.249,2.249,0,0,0-3.133-.556l-60.59,42.335a2.249,2.249,0,0,0-.556,3.133,2.248,2.248,0,0,0,1.846.961,2.247,2.247,0,0,0,1.287-.4l8.135-5.684v3.8a9.011,9.011,0,0,0,9,9h27a9.01,9.01,0,0,0,9-9V23.77a5.377,5.377,0,0,0-1.085-2.97l8.542-5.968A2.25,2.25,0,0,0-157.35,11.7Zm-12.518,14.338,0,29.244a4.5,4.5,0,0,1-4.5,4.5h-27a4.5,4.5,0,0,1-4.5-4.5v-6.94l34.68-24.231A1.856,1.856,0,0,1-169.868,26.037Z" fill="#bababa"/>
  </g>
</svg>
