<svg xmlns="http://www.w3.org/2000/svg" width="18" height="18" viewBox="0 0 18 18"><defs><style>.a{fill:#2c5c9f;}</style></defs><g transform="translate(-4301.055 -508.235)"><path class="a" d="M4308.019,521.166q.056-.248.167-.655l1.006-3.675c.011-.043.021-.085.029-.128a.674.674,0,0,0,.012-.12c0-.218-.069-.354-.208-.408a2.753,2.753,0,0,0-.757-.1v-.431q.459-.031,1.336-.132c.584-.066,1-.124,1.241-.172l.7-.135-1.271,4.658q-.159.6-.215.831a4.322,4.322,0,0,0-.144.767c0,.117.026.193.08.227a.312.312,0,0,0,.176.052q.248,0,.617-.423a6.412,6.412,0,0,0,.648-.887l.36.232a11.152,11.152,0,0,1-1.224,1.582,2.126,2.126,0,0,1-1.489.671,1.283,1.283,0,0,1-.8-.276,1,1,0,0,1-.355-.843A3.289,3.289,0,0,1,4308.019,521.166Zm3.848-9.292a1.055,1.055,0,0,1,.319.775,1.07,1.07,0,0,1-.319.779,1.1,1.1,0,0,1-1.554,0,1.063,1.063,0,0,1-.324-.779,1.048,1.048,0,0,1,.324-.775,1.1,1.1,0,0,1,1.554,0Z"/><path class="a" d="M4310.055,526.235a9,9,0,1,1,9-9A9.01,9.01,0,0,1,4310.055,526.235Zm0-16.364a7.364,7.364,0,1,0,7.363,7.364A7.372,7.372,0,0,0,4310.055,509.871Z"/></g></svg>