<svg xmlns="http://www.w3.org/2000/svg" width="20.161" height="18" viewBox="0 0 20.161 18"><defs><style>.a{fill:#f7a02e;}</style></defs><path class="a" d="M1330.749,431.955l-7.91-13.7c-.967-1.675-2.549-1.675-3.515,0l-7.911,13.7c-.967,1.677-.175,3.045,1.758,3.045h15.821c1.933,0,2.724-1.368,1.757-3.045m-10.754-9.811a1.414,1.414,0,0,1,1.086-.462,1.429,1.429,0,0,1,1.087.455,1.611,1.611,0,0,1,.424,1.14c0,.392-.59,3.28-.788,5.381h-1.42c-.174-2.1-.813-4.989-.813-5.381a1.6,1.6,0,0,1,.424-1.133m2.153,9.988a1.523,1.523,0,0,1-2.134,0,1.424,1.424,0,0,1-.445-1.056,1.512,1.512,0,0,1,3.024,0,1.424,1.424,0,0,1-.445,1.056" transform="translate(-1311 -417)"/></svg>