<?xml version="1.0" encoding="utf-8"?>
<!-- Generator: Adobe Illustrator 24.1.3, SVG Export Plug-In . SVG Version: 6.00 Build 0)  -->
<svg version="1.1" id="Layer_1" xmlns="http://www.w3.org/2000/svg" xmlns:xlink="http://www.w3.org/1999/xlink" x="0px" y="0px"
	 viewBox="0 0 603.4 696.8" style="enable-background:new 0 0 603.4 696.8;" xml:space="preserve">
<style type="text/css">
	.st0{fill:#FFFFFF;}
	.st1{opacity:0.35;}
	.st2{fill:url(#SVGID_1_);}
	.st3{fill:url(#SVGID_2_);}
	.st4{fill:url(#SVGID_3_);}
	.st5{fill:url(#SVGID_4_);}
	.st6{fill:url(#SVGID_5_);}
	.st7{fill:url(#SVGID_6_);}
	.st8{fill:url(#SVGID_7_);}
	.st9{fill:url(#SVGID_8_);}
	.st10{fill:url(#SVGID_9_);}
	.st11{fill:url(#SVGID_10_);}
	.st12{fill:url(#SVGID_11_);}
	.st13{fill:url(#SVGID_12_);}
	.st14{fill:url(#SVGID_13_);}
	.st15{fill:url(#SVGID_14_);}
	.st16{fill:url(#SVGID_15_);}
	.st17{fill:url(#SVGID_16_);}
	.st18{fill:url(#SVGID_17_);}
	.st19{fill:url(#SVGID_18_);}
	.st20{fill:url(#SVGID_19_);}
	.st21{fill:#59595C;}
	.st22{fill:#00953A;}
	.st23{fill:#B3B3B3;}
	.st24{opacity:0.9;fill:#B3B3B3;}
	.st25{fill:#00BEDD;}
	.st26{fill:none;}
	.st27{fill:#808285;}
	.st28{fill:#BAD97A;}
	.st29{fill:#00A3C2;}
	.st30{fill:#0D809D;}
</style>
<g>
	<g>
		<path class="st0" d="M72.7,519.8v-22l-19.3,11.1l-0.2,0.1l0,22.4h12.4l6.4,11.3l19.5-11.3v-22.6L72.7,519.8z M90.4,531H79.2
			l11.2-19.2L90.4,531L90.4,531z M90.1,510.3L78,531h-5.4v-10.6L90.1,510.3z M72.7,531.5h5l-5,8.7V531.5z M71.6,531h-5.2l-3-5.3
			l8.2-4.7V531z M63.2,525.2l-3-5.3l11.4-19.8v20.3L63.2,525.2z M71.2,499.8l-11.3,19.5l-5.6-9.8L71.2,499.8z M59.3,520.4l-5.7,9.8
			v-19.8L59.3,520.4z M59.6,521l2.7,4.8l-8.2,4.8L59.6,521z M54.4,531l8.2-4.7l2.7,4.7H54.4z M66.8,531.5h4.9v8.6L66.8,531.5z
			 M78.9,531.5h10.5l-15.8,9.2L78.9,531.5z"/>
	</g>
</g>
<g>
	<g>
		<g class="st1">
			<polygon points="138.8,254.7 77.9,328 4,177.1 4,177.1 			"/>
			<polygon points="364.3,160.2 470.8,253.8 470.8,253.8 437.5,165.4 			"/>
			<polygon points="109.9,393.1 109.9,393.1 109.9,393.1 109.8,393.1 136.2,447 304.3,349.8 			"/>
			<polygon points="304.3,349.8 470.8,253.8 364.3,160.2 			"/>
			<path d="M364.3,160.2"/>
			<polygon points="470.8,253.8 603.4,177.1 603.4,177.1 437.5,165.4 			"/>
			<polygon points="304.3,155.9 304.3,349.8 364.3,160.2 			"/>
			<polygon points="470.8,253.8 470.8,253.8 470.8,253.8 			"/>
			<line x1="77.9" y1="328" x2="109.8" y2="393.1"/>
			<polygon points="136.2,447 136.2,447 136.2,447 			"/>
			<polygon points="364.3,160.2 437.5,165.4 396.8,57.5 			"/>
			<polygon points="136.2,447 109.8,393.1 4,416.6 136.2,447 			"/>
			<polygon points="136.2,447 136.2,447 136.2,447 4,523.4 304.3,696.4 304.3,349.8 			"/>
			<polygon points="77.9,328 4,416.6 109.8,393.1 			"/>
			<polygon points="396.8,57.5 304.3,4 304.3,155.9 			"/>
			<polygon points="364.3,160.2 396.8,57.5 304.3,155.9 			"/>
			<polygon points="138.8,254.7 109.8,393.1 304.3,349.8 			"/>
			<polygon points="304.3,349.8 304.3,155.9 304.3,4 4,177.1 			"/>
			<polygon points="109.8,393.1 138.8,254.7 77.9,328 			"/>
			<polygon points="603.4,177.1 304.3,349.8 303.4,469.3 303.4,469.3 304.4,696.8 454,609.8 454,609.8 454,609.8 454,609.8 
				454.1,609.7 603.4,523.6 603.4,523.5 603.4,523.5 			"/>
		</g>
		<g>
			<g>
				<g>
					<linearGradient id="SVGID_1_" gradientUnits="userSpaceOnUse" x1="9.094947e-13" y1="248.5523" x2="134.8347" y2="248.5523">
						<stop  offset="0" style="stop-color:#BAD97A"/>
						<stop  offset="0.4984" style="stop-color:#B8D779"/>
						<stop  offset="0.6778" style="stop-color:#B1D175"/>
						<stop  offset="0.8058" style="stop-color:#A6C76E"/>
						<stop  offset="0.9085" style="stop-color:#95B864"/>
						<stop  offset="0.9961" style="stop-color:#7FA458"/>
						<stop  offset="1" style="stop-color:#7EA357"/>
					</linearGradient>
					<polygon class="st2" points="134.8,250.7 73.9,324 0,173.1 0,173.1 					"/>
					<linearGradient id="SVGID_2_" gradientUnits="userSpaceOnUse" x1="360.3071" y1="202.9783" x2="466.7669" y2="202.9783">
						<stop  offset="0" style="stop-color:#23AE49"/>
						<stop  offset="0.5485" style="stop-color:#21AC48"/>
						<stop  offset="0.746" style="stop-color:#1BA544"/>
						<stop  offset="0.8863" style="stop-color:#109A3D"/>
						<stop  offset="0.9987" style="stop-color:#008934"/>
					</linearGradient>
					<polygon class="st3" points="360.3,156.2 466.8,249.8 466.8,249.8 433.5,161.4 					"/>
					<linearGradient id="SVGID_3_" gradientUnits="userSpaceOnUse" x1="105.8264" y1="394.4334" x2="300.2891" y2="394.4334">
						<stop  offset="0" style="stop-color:#70C647"/>
						<stop  offset="0.4765" style="stop-color:#6EC546"/>
						<stop  offset="0.6481" style="stop-color:#67C044"/>
						<stop  offset="0.7705" style="stop-color:#5CB940"/>
						<stop  offset="0.8694" style="stop-color:#4BAE3B"/>
						<stop  offset="0.9531" style="stop-color:#359F33"/>
						<stop  offset="1" style="stop-color:#25952E"/>
					</linearGradient>
					<polygon class="st4" points="105.9,389.1 105.9,389.1 105.9,389.1 105.8,389.1 132.2,443 300.3,345.8 					"/>
					<linearGradient id="SVGID_4_" gradientUnits="userSpaceOnUse" x1="300.2891" y1="251.0152" x2="466.7506" y2="251.0152">
						<stop  offset="0" style="stop-color:#00953A"/>
						<stop  offset="0.5553" style="stop-color:#009339"/>
						<stop  offset="0.7554" style="stop-color:#008C36"/>
						<stop  offset="0.8974" style="stop-color:#00812F"/>
						<stop  offset="1" style="stop-color:#007228"/>
					</linearGradient>
					<polygon class="st5" points="300.3,345.8 466.8,249.8 360.3,156.2 					"/>
					<linearGradient id="SVGID_5_" gradientUnits="userSpaceOnUse" x1="360.3071" y1="156.1875" x2="360.3071" y2="156.1875">
						<stop  offset="0" style="stop-color:#00953A"/>
						<stop  offset="0.5553" style="stop-color:#009339"/>
						<stop  offset="0.7554" style="stop-color:#008C36"/>
						<stop  offset="0.8974" style="stop-color:#00812F"/>
						<stop  offset="1" style="stop-color:#007228"/>
					</linearGradient>
					<path class="st6" d="M360.3,156.2"/>
					<linearGradient id="SVGID_6_" gradientUnits="userSpaceOnUse" x1="433.4555" y1="205.5663" x2="599.3994" y2="205.5663">
						<stop  offset="0" style="stop-color:#70C647"/>
						<stop  offset="0.4765" style="stop-color:#6EC546"/>
						<stop  offset="0.6481" style="stop-color:#67C044"/>
						<stop  offset="0.7705" style="stop-color:#5CB940"/>
						<stop  offset="0.8694" style="stop-color:#4BAE3B"/>
						<stop  offset="0.9531" style="stop-color:#359F33"/>
						<stop  offset="1" style="stop-color:#25952E"/>
					</linearGradient>
					<polygon class="st7" points="466.8,249.8 599.4,173.1 599.4,173.1 433.5,161.4 					"/>
					<linearGradient id="SVGID_7_" gradientUnits="userSpaceOnUse" x1="300.2891" y1="248.8803" x2="360.3071" y2="248.8803">
						<stop  offset="0" style="stop-color:#BAD97A"/>
						<stop  offset="0.4984" style="stop-color:#B8D779"/>
						<stop  offset="0.6778" style="stop-color:#B1D175"/>
						<stop  offset="0.8058" style="stop-color:#A6C76E"/>
						<stop  offset="0.9085" style="stop-color:#95B864"/>
						<stop  offset="0.9961" style="stop-color:#7FA458"/>
						<stop  offset="1" style="stop-color:#7EA357"/>
					</linearGradient>
					<polygon class="st8" points="300.3,151.9 300.3,345.8 360.3,156.2 					"/>
					<linearGradient id="SVGID_8_" gradientUnits="userSpaceOnUse" x1="466.763" y1="249.7711" x2="466.7701" y2="249.7711">
						<stop  offset="0" style="stop-color:#00953A"/>
						<stop  offset="0.5553" style="stop-color:#009339"/>
						<stop  offset="0.7554" style="stop-color:#008C36"/>
						<stop  offset="0.8974" style="stop-color:#00812F"/>
						<stop  offset="1" style="stop-color:#007228"/>
					</linearGradient>
					<polygon class="st9" points="466.8,249.8 466.8,249.8 466.8,249.8 					"/>
					<linearGradient id="SVGID_9_" gradientUnits="userSpaceOnUse" x1="73.9006" y1="356.5408" x2="105.8264" y2="356.5408">
						<stop  offset="0" style="stop-color:#00953A"/>
						<stop  offset="0.5553" style="stop-color:#009339"/>
						<stop  offset="0.7554" style="stop-color:#008C36"/>
						<stop  offset="0.8974" style="stop-color:#00812F"/>
						<stop  offset="1" style="stop-color:#007228"/>
					</linearGradient>
					<line class="st10" x1="73.9" y1="324" x2="105.8" y2="389.1"/>
					<linearGradient id="SVGID_10_" gradientUnits="userSpaceOnUse" x1="132.2395" y1="443.0238" x2="132.2395" y2="443.0238">
						<stop  offset="0" style="stop-color:#00953A"/>
						<stop  offset="0.5553" style="stop-color:#009339"/>
						<stop  offset="0.7554" style="stop-color:#008C36"/>
						<stop  offset="0.8974" style="stop-color:#00812F"/>
						<stop  offset="1" style="stop-color:#007228"/>
					</linearGradient>
					<polygon class="st11" points="132.2,443 132.2,443 132.2,443 					"/>
					<linearGradient id="SVGID_11_" gradientUnits="userSpaceOnUse" x1="360.3071" y1="107.4405" x2="433.4555" y2="107.4405">
						<stop  offset="0" style="stop-color:#00953A"/>
						<stop  offset="0.5553" style="stop-color:#009339"/>
						<stop  offset="0.7554" style="stop-color:#008C36"/>
						<stop  offset="0.8974" style="stop-color:#00812F"/>
						<stop  offset="1" style="stop-color:#007228"/>
					</linearGradient>
					<polygon class="st12" points="360.3,156.2 433.5,161.4 392.8,53.5 					"/>
					<linearGradient id="SVGID_12_" gradientUnits="userSpaceOnUse" x1="9.094947e-13" y1="416.0713" x2="132.2395" y2="416.0713">
						<stop  offset="0" style="stop-color:#23AE49"/>
						<stop  offset="0.5485" style="stop-color:#21AC48"/>
						<stop  offset="0.746" style="stop-color:#1BA544"/>
						<stop  offset="0.8863" style="stop-color:#109A3D"/>
						<stop  offset="0.9987" style="stop-color:#008934"/>
					</linearGradient>
					<polygon class="st13" points="132.2,443 105.8,389.1 0,412.6 132.2,443 					"/>
					<linearGradient id="SVGID_13_" gradientUnits="userSpaceOnUse" x1="9.094947e-13" y1="519.1462" x2="300.3101" y2="519.1462">
						<stop  offset="0" style="stop-color:#23AE49"/>
						<stop  offset="0.5485" style="stop-color:#21AC48"/>
						<stop  offset="0.746" style="stop-color:#1BA544"/>
						<stop  offset="0.8863" style="stop-color:#109A3D"/>
						<stop  offset="0.9987" style="stop-color:#008934"/>
					</linearGradient>
					<polygon class="st14" points="132.2,443 132.2,443 132.2,443 0,519.4 300.3,692.4 300.3,345.8 					"/>
					<linearGradient id="SVGID_14_" gradientUnits="userSpaceOnUse" x1="9.094947e-13" y1="368.2826" x2="105.8264" y2="368.2826">
						<stop  offset="0" style="stop-color:#70C647"/>
						<stop  offset="0.4765" style="stop-color:#6EC546"/>
						<stop  offset="0.6481" style="stop-color:#67C044"/>
						<stop  offset="0.7705" style="stop-color:#5CB940"/>
						<stop  offset="0.8694" style="stop-color:#4BAE3B"/>
						<stop  offset="0.9531" style="stop-color:#359F33"/>
						<stop  offset="1" style="stop-color:#25952E"/>
					</linearGradient>
					<polygon class="st15" points="73.9,324 0,412.6 105.8,389.1 					"/>
					<linearGradient id="SVGID_15_" gradientUnits="userSpaceOnUse" x1="300.3101" y1="75.9588" x2="392.7669" y2="75.9588">
						<stop  offset="0" style="stop-color:#23AE49"/>
						<stop  offset="0.5485" style="stop-color:#21AC48"/>
						<stop  offset="0.746" style="stop-color:#1BA544"/>
						<stop  offset="0.8863" style="stop-color:#109A3D"/>
						<stop  offset="0.9987" style="stop-color:#008934"/>
					</linearGradient>
					<polygon class="st16" points="392.8,53.5 300.3,0 300.3,151.9 					"/>
					<linearGradient id="SVGID_16_" gradientUnits="userSpaceOnUse" x1="300.3101" y1="104.8513" x2="392.7669" y2="104.8513">
						<stop  offset="0" style="stop-color:#70C647"/>
						<stop  offset="0.4765" style="stop-color:#6EC546"/>
						<stop  offset="0.6481" style="stop-color:#67C044"/>
						<stop  offset="0.7705" style="stop-color:#5CB940"/>
						<stop  offset="0.8694" style="stop-color:#4BAE3B"/>
						<stop  offset="0.9531" style="stop-color:#359F33"/>
						<stop  offset="1" style="stop-color:#25952E"/>
					</linearGradient>
					<polygon class="st17" points="360.3,156.2 392.8,53.5 300.3,151.9 					"/>
					<linearGradient id="SVGID_17_" gradientUnits="userSpaceOnUse" x1="105.8264" y1="319.903" x2="300.2891" y2="319.903">
						<stop  offset="0" style="stop-color:#23AE49"/>
						<stop  offset="0.5485" style="stop-color:#21AC48"/>
						<stop  offset="0.746" style="stop-color:#1BA544"/>
						<stop  offset="0.8863" style="stop-color:#109A3D"/>
						<stop  offset="0.9987" style="stop-color:#008934"/>
					</linearGradient>
					<polygon class="st18" points="134.8,250.7 105.8,389.1 300.3,345.8 					"/>
					<linearGradient id="SVGID_18_" gradientUnits="userSpaceOnUse" x1="9.094947e-13" y1="172.9215" x2="300.3101" y2="172.9215">
						<stop  offset="0" style="stop-color:#70C647"/>
						<stop  offset="0.4765" style="stop-color:#6EC546"/>
						<stop  offset="0.6481" style="stop-color:#67C044"/>
						<stop  offset="0.7705" style="stop-color:#5CB940"/>
						<stop  offset="0.8694" style="stop-color:#4BAE3B"/>
						<stop  offset="0.9531" style="stop-color:#359F33"/>
						<stop  offset="1" style="stop-color:#25952E"/>
					</linearGradient>
					<polygon class="st19" points="300.3,345.8 300.3,151.9 300.3,0 0,173.1 					"/>
					<linearGradient id="SVGID_19_" gradientUnits="userSpaceOnUse" x1="73.9006" y1="319.903" x2="134.8347" y2="319.903">
						<stop  offset="0" style="stop-color:#00953A"/>
						<stop  offset="0.5553" style="stop-color:#009339"/>
						<stop  offset="0.7554" style="stop-color:#008C36"/>
						<stop  offset="0.8974" style="stop-color:#00812F"/>
						<stop  offset="1" style="stop-color:#007228"/>
					</linearGradient>
					<polygon class="st20" points="105.8,389.1 134.8,250.7 73.9,324 					"/>
					<polygon class="st0" points="599.4,173.1 300.3,345.8 299.4,465.3 299.4,465.3 300.4,692.8 450,605.8 450,605.8 450,605.8 
						450,605.8 450.1,605.7 599.4,519.6 599.4,519.5 599.4,519.5 					"/>
				</g>
			</g>
		</g>
	</g>
	<g>
		<g>
			<path class="st0" d="M72.7,519.8v-22l-19.3,11.1l-0.2,0.1l0,22.4h12.4l6.4,11.3l19.5-11.3v-22.6L72.7,519.8z M90.4,531H79.2
				l11.2-19.2L90.4,531L90.4,531z M90.1,510.3L78,531h-5.4v-10.6L90.1,510.3z M72.7,531.5h5l-5,8.7V531.5z M71.6,531h-5.2l-3-5.3
				l8.2-4.7V531z M63.2,525.2l-3-5.3l11.4-19.8v20.3L63.2,525.2z M71.2,499.8l-11.3,19.5l-5.6-9.8L71.2,499.8z M59.3,520.4l-5.7,9.8
				v-19.8L59.3,520.4z M59.6,521l2.7,4.8l-8.2,4.8L59.6,521z M54.4,531l8.2-4.7l2.7,4.7H54.4z M66.8,531.5h4.9v8.6L66.8,531.5z
				 M78.9,531.5h10.5l-15.8,9.2L78.9,531.5z"/>
		</g>
	</g>
	<g>
		<path class="st21" d="M339.6,414.3v-7.7h-7.3v7.7h-3.2v-17.7h3.2v6.9h7.3v-6.9h3.2v17.7H339.6z"/>
		<path class="st21" d="M353.2,407.7l4.4,6.6h-3.5l-2.9-4.3l-2.8,4.3H345l4.5-6.6l-4.6-6.4h3.6l2.9,4.2l2.8-4.2h3.4L353.2,407.7z"/>
		<path class="st21" d="M371.2,414.3l-0.4-1.9c-0.5,1-2.2,2.2-4.4,2.3c-2,0-3.9-0.5-5.3-2c-1.8-1.9-2.3-4.3-2.3-7.2s0.4-5.2,2.3-7.1
			c1.3-1.3,3.4-2.1,5.3-2.1c2.2,0,4,0.8,5.2,2c0.9,0.9,1.5,2,1.6,3.6H370c0-0.7-0.4-1.2-0.8-1.6c-0.6-0.7-1.6-1.1-2.8-1.1
			c-1,0-2.2,0.5-2.9,1.2c-1.2,1.3-1.4,3.5-1.4,5.1s0.2,3.9,1.4,5.2c0.7,0.8,1.8,1.1,2.9,1.1c1.2,0,2-0.4,2.6-1c1-1,1.2-2.1,1.2-3.4
			h-4.2v-2.7h7.3v9.7H371.2z"/>
		<path class="st21" d="M387.8,414.3l-7.7-12.2v12.2h-3.2v-17.7h3.4l7.6,12v-12h3.2v17.7H387.8z"/>
		<path class="st21" d="M399.4,406.1c-3,0-5.3-2.4-5.3-5.3s2.2-5.4,5.3-5.4c3,0,5.3,2.4,5.3,5.3S402.5,406.1,399.4,406.1z
			 M399.4,396.4c-2.6,0-4.3,1.9-4.3,4.4s1.7,4.4,4.3,4.4c2.6,0,4.3-1.9,4.3-4.4S402,396.4,399.4,396.4z M400.6,403.5l-0.9-2.1h-1.1
			v2.1h-1v-5.6h2.1c1.1,0,2,0.6,2,1.7c0,0.7-0.3,1.3-1,1.6l1,2.2H400.6z M399.7,398.8h-1.1v1.7h1.1c0.6,0,1-0.3,1-0.9
			C400.6,399.1,400.2,398.8,399.7,398.8z"/>
		<path class="st21" d="M424.5,412.7c-1.1,1.1-2.8,1.9-4.7,1.9c-1.8,0-3.5-0.7-4.8-1.9c-1.9-1.9-2.2-4.5-2.2-7.3s0.3-5.4,2.2-7.3
			c1.3-1.2,3-1.9,4.8-1.9c1.9,0,3.6,0.7,4.7,1.8c1,1,1.7,2.4,1.7,4H424c0-1-0.4-1.8-1-2.5c-0.7-0.8-1.8-1.3-3.2-1.3
			c-1.2,0-2.4,0.5-3.2,1.3c-1.5,1.5-1.5,3.9-1.5,5.7s0,4.2,1.5,5.7c0.8,0.9,2,1.3,3.2,1.3c1.3,0,2.5-0.6,3.2-1.3
			c0.6-0.7,0.9-1.6,1-2.5h2.3C426.2,410.3,425.6,411.7,424.5,412.7z"/>
		<path class="st21" d="M438.1,413.1c-0.9,0.9-2.2,1.5-3.8,1.5s-2.9-0.6-3.8-1.5c-1.4-1.3-1.8-3.2-1.8-5.2c0-2,0.4-3.8,1.8-5.2
			c0.9-0.9,2.2-1.5,3.8-1.5s2.9,0.6,3.8,1.5c1.4,1.3,1.8,3.2,1.8,5.2C439.9,409.9,439.5,411.8,438.1,413.1z M436.5,404
			c-0.5-0.5-1.3-0.9-2.3-0.9c-1,0-1.8,0.4-2.3,0.9c-0.9,0.9-1.2,2.4-1.2,3.9s0.3,3,1.2,3.9c0.5,0.5,1.3,0.9,2.3,0.9
			c1,0,1.7-0.4,2.3-0.9c0.9-0.9,1.2-2.4,1.2-3.9S437.4,404.9,436.5,404z"/>
		<path class="st21" d="M451.7,414.3v-8c0-1.9-0.8-3-2.8-3c-1.2,0-2.2,0.8-2.8,1.9c-0.4,0.9-0.4,2.2-0.4,3.2v5.9h-2.1v-12.6h1.8
			l0.2,1.9c0.7-1.5,2.4-2.2,3.8-2.2c2.9,0,4.4,1.7,4.4,4.6v8.3H451.7z"/>
		<path class="st21" d="M466.3,414.3v-8c0-1.9-0.8-3-2.8-3c-1.2,0-2.2,0.8-2.8,1.9c-0.4,0.9-0.4,2.2-0.4,3.2v5.9h-2.1v-12.6h1.8
			l0.2,1.9c0.7-1.5,2.4-2.2,3.8-2.2c2.9,0,4.4,1.7,4.4,4.6v8.3H466.3z"/>
		<path class="st21" d="M483,408.6H474c0,1.1,0.5,2.4,1.2,3.2c0.6,0.6,1.3,0.9,2.3,0.9c1,0,1.8-0.3,2.3-0.8c0.4-0.3,0.6-0.7,0.8-1.4
			h2.1c-0.2,1.2-0.9,2.4-2,3.1c-0.9,0.6-2,1-3.2,1c-1.8,0-3.2-0.8-4.2-1.9c-1-1.2-1.6-2.9-1.6-4.7c0-1.5,0.3-2.9,1-4
			c0.9-1.5,2.6-2.6,4.8-2.6c1.6,0,2.9,0.6,3.8,1.6c1,1.1,1.6,2.7,1.6,4.4L483,408.6z M480.1,404.2c-0.5-0.7-1.4-1.1-2.5-1.1
			c-2.3,0-3.4,1.9-3.5,3.7h6.7C480.8,405.9,480.6,404.9,480.1,404.2z"/>
		<path class="st21" d="M494.9,413.2c-0.9,0.9-2.1,1.4-3.6,1.4c-2.3,0-3.7-1-4.6-2.4c-0.7-1-1-2.4-1-4.3s0.4-3.3,1-4.3
			c0.9-1.3,2.3-2.4,4.6-2.4c1.5,0,2.7,0.5,3.6,1.3c0.8,0.8,1.4,1.9,1.5,3.2h-2.1c-0.1-0.9-0.4-1.5-0.9-2c-0.5-0.5-1.2-0.8-2-0.8
			c-1,0-1.6,0.3-2.2,0.8c-1,0.8-1.3,2.4-1.3,4s0.3,3.1,1.3,4c0.5,0.5,1.2,0.8,2.2,0.8c0.9,0,1.6-0.3,2.1-0.8c0.5-0.5,0.8-1,0.9-1.9
			h2.1C496.3,411.4,495.8,412.4,494.9,413.2z"/>
		<path class="st21" d="M503.8,414.4c-2.7,0-3.5-1.7-3.5-3.4v-7.6h-2.4v-1.8h2.4v-3.2l2.1-0.5v3.7h3.7v1.8h-3.7v7.3
			c0,1.2,0.5,1.7,1.7,1.7c0.9,0,2.2-0.2,2.2-0.2v1.8C505.7,414.2,505,414.4,503.8,414.4z"/>
		<path class="st21" d="M340,444.3l-1.4-4.2h-7.7l-1.4,4.2h-2.2l6.2-17.7h2.6l6.3,17.7H340z M334.7,428.8l-3.1,9.2h6.3L334.7,428.8z
			"/>
		<path class="st21" d="M353.1,444.3l-0.2-1.6c-0.7,1.3-2.3,2-3.8,2c-1.5,0-2.7-0.5-3.6-1.4c-1.2-1.2-1.8-3.1-1.8-5.2
			c0-2.2,0.6-4.2,1.9-5.4c0.8-0.8,2-1.3,3.5-1.3c1.4,0,3,0.7,3.7,1.8v-6.9h2.1v18H353.1z M351.5,433.9c-0.5-0.4-1.1-0.8-2-0.8
			c-2.8,0-3.6,2.5-3.6,4.8s0.8,4.8,3.6,4.8c0.9,0,1.5-0.4,2-0.8c1-0.9,1.4-2.5,1.4-4S352.6,434.8,351.5,433.9z"/>
		<path class="st21" d="M375,444.3v-8c0-1.8-0.6-3-2.6-3c-0.8,0-1.4,0.3-1.9,0.8c-0.8,0.9-1.1,2.1-1.1,3.5v6.7h-2.1v-8
			c0-1.8-0.5-3-2.5-3c-0.9,0-1.6,0.4-2.1,1.1c-0.6,0.8-0.8,2.1-0.8,3.2v6.7h-2.1v-12.6h1.8l0.2,1.8c0.7-1.4,2.1-2.1,3.5-2.1
			c1.9,0,3.2,0.8,3.8,2.4c0.7-1.6,2.3-2.4,3.9-2.4c2.9,0,4.2,1.8,4.2,4.6v8.3H375z"/>
		<path class="st21" d="M381.4,428.7v-2.5h2.5v2.5H381.4z M381.5,444.3v-12.6h2.2v12.6H381.5z"/>
		<path class="st21" d="M396.5,444.3v-8c0-1.9-0.8-3-2.8-3c-1.2,0-2.2,0.8-2.8,1.9c-0.4,0.9-0.4,2.2-0.4,3.2v5.9h-2.1v-12.6h1.8
			l0.2,1.9c0.7-1.5,2.4-2.2,3.8-2.2c2.9,0,4.4,1.7,4.4,4.6v8.3H396.5z"/>
		<path class="st21" d="M402.8,428.7v-2.5h2.5v2.5H402.8z M403,444.3v-12.6h2.2v12.6H403z"/>
		<path class="st21" d="M418.2,443.2c-1,1-2.5,1.4-4.1,1.4c-1.6,0-3-0.4-4.1-1.4c-0.8-0.8-1.2-1.8-1.2-2.9h2.1c0,0.9,0.4,1.5,1,2
			c0.6,0.4,1.5,0.6,2.3,0.6c0.9,0,1.7-0.2,2.3-0.7c0.3-0.3,0.6-0.8,0.6-1.4c0-1-0.7-1.6-2-1.8l-2.8-0.4c-1.9-0.3-3.1-1.5-3.1-3.4
			c0-1,0.5-1.9,1-2.5c0.8-0.8,2.1-1.4,3.7-1.4c1.7,0,3.2,0.5,4,1.6c0.5,0.7,0.9,1.4,0.9,2.4h-2.1c0-0.7-0.3-1.2-0.7-1.6
			c-0.5-0.5-1.2-0.7-2.1-0.7c-0.5,0-0.9,0-1.5,0.2c-0.8,0.3-1.3,1-1.3,1.7c0,1,0.7,1.5,1.7,1.6c0.7,0.1,1.7,0.2,3,0.4
			c1.8,0.3,3.2,1.6,3.2,3.5C419.2,441.7,418.8,442.5,418.2,443.2z"/>
		<path class="st21" d="M426.7,444.4c-2.7,0-3.5-1.7-3.5-3.4v-7.6h-2.4v-1.8h2.4v-3.2l2.1-0.5v3.7h3.7v1.8h-3.7v7.3
			c0,1.2,0.5,1.7,1.7,1.7c0.9,0,2.2-0.2,2.2-0.2v1.8C428.7,444.2,427.9,444.4,426.7,444.4z"/>
		<path class="st21" d="M438,433.6c-1,0-1.8,0.4-2.4,1c-1,1-1.1,2.7-1.1,4v5.6h-2.1v-12.6h1.9l0.2,2.2c0.6-1.5,2.2-2.3,3.8-2.3
			c0.3,0,0.7,0,1,0.1v2.1C438.8,433.6,438.4,433.6,438,433.6z"/>
		<path class="st21" d="M450.9,444.4c-1.1,0-1.8-0.8-1.8-1.9h0c-0.7,1.3-2.3,2.1-4.1,2.1c-2.9,0-4.3-1.9-4.3-3.9
			c0-1.6,1-3.7,4.5-3.9l3.8-0.2v-0.9c0-0.6-0.1-1.4-0.6-1.9c-0.4-0.4-1-0.6-2.1-0.6c-1.2,0-1.9,0.3-2.3,0.8
			c-0.4,0.4-0.6,0.9-0.6,1.5h-2.1c0-1.1,0.5-2,1.1-2.6c0.8-0.9,2.3-1.3,3.9-1.3c2.4,0,3.8,1,4.4,2.4c0.2,0.6,0.4,1.2,0.4,1.9v6.1
			c0,0.7,0.3,0.9,0.7,0.9c0.2,0,0.5-0.1,0.5-0.1v1.6C451.8,444.4,451.4,444.4,450.9,444.4z M448.9,438.2l-3.4,0.2
			c-1.3,0.1-2.8,0.7-2.8,2.3c0,1.1,0.7,2.2,2.5,2.2c1,0,1.9-0.3,2.6-1c0.8-0.8,1.1-1.8,1.1-2.9V438.2z"/>
		<path class="st21" d="M459.6,444.4c-2.7,0-3.5-1.7-3.5-3.4v-7.6h-2.4v-1.8h2.4v-3.2l2.1-0.5v3.7h3.7v1.8h-3.7v7.3
			c0,1.2,0.5,1.7,1.7,1.7c0.9,0,2.2-0.2,2.2-0.2v1.8C461.5,444.2,460.7,444.4,459.6,444.4z"/>
		<path class="st21" d="M473.4,443.1c-0.9,0.9-2.2,1.5-3.8,1.5s-2.9-0.6-3.8-1.5c-1.4-1.3-1.8-3.2-1.8-5.2c0-2,0.4-3.8,1.8-5.2
			c0.9-0.9,2.2-1.5,3.8-1.5s2.9,0.6,3.8,1.5c1.4,1.3,1.8,3.2,1.8,5.2C475.2,439.9,474.8,441.8,473.4,443.1z M471.8,434
			c-0.5-0.5-1.3-0.9-2.3-0.9c-1,0-1.8,0.4-2.3,0.9c-0.9,0.9-1.2,2.4-1.2,3.9s0.3,3,1.2,3.9c0.5,0.5,1.3,0.9,2.3,0.9
			c1,0,1.7-0.4,2.3-0.9c0.9-0.9,1.2-2.4,1.2-3.9S472.7,434.9,471.8,434z"/>
		<path class="st21" d="M484.5,433.6c-1,0-1.8,0.4-2.4,1c-1,1-1.1,2.7-1.1,4v5.6h-2.1v-12.6h1.9l0.2,2.2c0.6-1.5,2.2-2.3,3.8-2.3
			c0.3,0,0.7,0,1,0.1v2.1C485.3,433.6,484.9,433.6,484.5,433.6z"/>
	</g>
	<g>
		<rect x="327" y="296" class="st0" width="80" height="80"/>
		<g>
			<g>
				<g>
					<path class="st22" d="M330.2,372.7l0-73.4h73.5v62.3l-11.1,11.1H330.2z M327,376h80v-80h-80V376z"/>
				</g>
			</g>
		</g>
		<g>
			<polygon class="st23" points="379.7,357.4 379.7,357.4 379.7,357.4 			"/>
			<polygon class="st24" points="379.7,357.4 379.7,357.4 379.7,357.4 			"/>
			<polygon class="st25" points="377.8,355.9 377.8,355.9 377.8,355.9 			"/>
			<g>
				<path class="st26" d="M384.9,342.8c0-2.2-0.4-4.8-1.9-6.4c-0.7-0.3-1.5-0.5-2.5-0.5c-1.8,0-3.1,0.8-3.9,1.9
					c-1.2,1.6-1.5,3.8-1.5,5.9c0,2.1,0.3,4.3,1.5,5.9c0.1,0.2,0.3,0.3,0.4,0.5c0.6,0.3,1.4,0.6,2.3,0.6
					C383.9,350.6,384.9,346.3,384.9,342.8z"/>
				<path class="st27" d="M375.1,343.7c0-2.1,0.3-4.3,1.5-5.9c0.8-1.1,2.1-1.9,3.9-1.9c1,0,1.8,0.2,2.5,0.5c-0.8-0.9-2-1.4-3.6-1.4
					c-1.8,0-3.1,0.8-3.9,1.9c-1.2,1.6-1.5,3.8-1.5,5.9c0,2.1,0.3,4.3,1.5,5.9c0.4,0.5,0.9,1,1.6,1.4c-0.2-0.2-0.3-0.3-0.4-0.5
					C375.4,348,375.1,345.7,375.1,343.7z"/>
				<path class="st27" d="M385.2,354.3c-1.5,1.4-3.7,2.4-5.9,2.4c-2.4,0-4.4-1.1-5.9-2.3c-0.1-0.1-0.2-0.2-0.3-0.2
					c1.4,0.8,3,1.5,5,1.5c2.6,0,5.4-1,6.8-3.3L385.2,354.3z"/>
				<path class="st28" d="M369.2,343.7c0-4.7,1.4-8.4,4.3-10.8c1.5-1.2,3.4-2,5.9-2c2.1,0,3.7,0.5,4.9,1.1c-1.1-1.1-3.2-2-6.1-2
					c-2.5,0-4.4,0.7-5.9,1.9c-2.9,2.4-4.3,6.1-4.3,10.8c0,4.6,1.4,8.2,4.3,10.6c0.3,0.2,0.6,0.4,0.9,0.6
					C370.5,351.7,369.2,348.2,369.2,343.7z"/>
				<g>
					<path class="st26" d="M384.9,342.8c0-2.2-0.4-4.8-1.9-6.4c-0.8-0.9-2-1.4-3.6-1.4c-1.8,0-3.1,0.8-3.9,1.9
						c-1.2,1.6-1.5,3.8-1.5,5.9c0,2.1,0.3,4.3,1.5,5.9c0.4,0.5,0.9,1,1.6,1.4c0.6,0.3,1.4,0.6,2.3,0.6
						C383.9,350.6,384.9,346.3,384.9,342.8z"/>
					<path class="st22" d="M384.6,321.3v11.1c-0.1-0.1-0.2-0.2-0.2-0.3c-1.2-0.7-2.9-1.1-4.9-1.1c-2.5,0-4.4,0.7-5.9,2
						c-2.9,2.4-4.3,6.1-4.3,10.8c0,4.4,1.3,8,4,10.3c1.4,0.8,3,1.5,5,1.5c2.6,0,5.4-1,6.8-3.3l0.2,2l0.1,1.3h5v-34.2H384.6z
						 M379.4,350.6c-0.9,0-1.7-0.2-2.3-0.6c-0.6-0.3-1.2-0.8-1.6-1.4c-1.2-1.6-1.5-3.8-1.5-5.9c0-2.1,0.3-4.3,1.5-5.9
						c0.8-1.1,2.1-1.9,3.9-1.9c1.6,0,2.8,0.6,3.6,1.4c1.5,1.6,1.9,4.1,1.9,6.4C384.9,346.3,383.9,350.6,379.4,350.6z"/>
				</g>
			</g>
			<polygon class="st23" points="386.8,356.6 386.8,356.6 391.6,356.6 391.6,356.6 386.8,356.6 			"/>
			<polygon class="st23" points="390.4,321.3 390.4,355.6 386.4,355.6 386.4,355.6 390.4,355.6 391.6,356.6 391.6,322.2 			"/>
			<polygon class="st27" points="390.4,355.6 385.4,355.6 386.8,356.6 391.6,356.6 			"/>
		</g>
		<g>
			<polygon class="st29" points="349.4,322 349.4,322 349.4,322 			"/>
			<g>
				<polygon class="st26" points="356.2,341.7 353.8,334.9 351.4,341.7 				"/>
				<polygon class="st23" points="357.9,323.4 355.7,322 356.2,323.4 357,325.8 367.2,355.3 369.4,356.7 				"/>
				<polygon class="st23" points="347,346.3 343.8,355.3 343.8,355.3 346,356.7 349.3,347.7 347,346.3 				"/>
				<polygon class="st23" points="352.5,331 348.7,341.7 351.3,341.7 351.4,341.7 353.8,334.9 353.8,334.8 353.8,334.8 				"/>
				<line class="st23" x1="346" y1="356.7" x2="346" y2="356.7"/>
				<polygon class="st23" points="358.2,347.7 358.2,347.7 358.1,347.3 				"/>
				<polygon class="st23" points="357.7,346.3 349.7,346.3 349.7,346.3 347,346.3 349.3,347.7 350.7,347.7 351.9,347.7 358.2,347.7 
					358.1,347.3 				"/>
				<polygon class="st27" points="357.7,346.3 349.7,346.3 349.7,346.3 347,346.3 349.3,347.7 350.7,347.7 351.9,347.7 358.2,347.7 
					358.1,347.3 				"/>
				<polygon class="st29" points="358.1,347.3 357.7,346.3 357.7,346.3 				"/>
				<polygon class="st30" points="347,346.3 347,346.3 347,346.3 				"/>
				<polygon class="st30" points="347,346.3 347,346.3 349.7,346.3 349.7,346.3 347,346.3 				"/>
				<polygon class="st30" points="352.5,331 353.8,334.8 353.8,334.8 352.5,331 				"/>
				<polygon class="st30" points="356.2,323.4 356.2,323.4 357,325.8 357,325.8 				"/>
				<polygon class="st29" points="349.4,322 346.3,330.6 349.4,322 				"/>
				<polygon class="st29" points="347,346.3 347,346.3 347,346.3 				"/>
				<path class="st22" d="M357,325.8l-0.8-2.4l-0.5-1.4l-6.3,0l0,0h0h2l-1,2.8l-10.9,30.5h4.3l3.2-9h2.7h8l0.3,1l0.1,0.4l2.7,7.7
					h6.3L357,325.8z M351.4,341.7L351.4,341.7h-2.7l3.8-10.7l1.3,3.8l0,0.1l2.3,6.8H351.4z"/>
				<polygon class="st28" points="349.4,322 349.4,322 346.3,330.6 337.6,355.3 339.4,355.3 350.3,324.8 351.3,322 				"/>
				<polygon class="st27" points="346,356.7 346,356.7 346,356.7 				"/>
				<polyline class="st27" points="346,356.7 339.9,356.7 337.6,355.3 343.8,355.3 343.8,355.3 346,356.7 346,356.7 				"/>
				<polygon class="st27" points="367.2,355.3 360.9,355.3 363.1,356.7 369.4,356.7 				"/>
			</g>
		</g>
	</g>
</g>
</svg>
