<?xml version="1.0" encoding="utf-8"?>
<!-- Generator: Adobe Illustrator 24.1.3, SVG Export Plug-In . SVG Version: 6.00 Build 0)  -->
<svg version="1.1" id="Layer_1" xmlns="http://www.w3.org/2000/svg" xmlns:xlink="http://www.w3.org/1999/xlink" x="0px" y="0px"
	 viewBox="0 0 1041.5 600.1" style="enable-background:new 0 0 1041.5 600.1;" xml:space="preserve">
<style type="text/css">
	.st0{fill:url(#SVGID_1_);}
	.st1{fill:url(#SVGID_2_);}
	.st2{fill:url(#SVGID_3_);}
	.st3{fill:url(#SVGID_4_);}
	.st4{fill:url(#SVGID_5_);}
	.st5{fill:none;stroke:#A7A9AC;stroke-width:0.4121;stroke-miterlimit:10;}
	.st6{fill:url(#SVGID_6_);}
	.st7{fill:url(#SVGID_7_);}
	.st8{fill:url(#SVGID_8_);}
	.st9{fill:url(#SVGID_9_);}
	.st10{fill:url(#SVGID_10_);}
	.st11{fill:url(#SVGID_11_);}
	.st12{fill:url(#SVGID_12_);}
	.st13{fill:url(#SVGID_13_);}
	.st14{fill:url(#SVGID_14_);}
	.st15{fill:url(#SVGID_15_);}
	.st16{fill:url(#SVGID_16_);}
	.st17{fill:url(#SVGID_17_);}
	.st18{fill:url(#SVGID_18_);}
	.st19{fill:url(#SVGID_19_);}
	.st20{fill:url(#SVGID_20_);}
	.st21{fill:url(#SVGID_21_);}
	.st22{fill:url(#SVGID_22_);}
	.st23{fill:url(#SVGID_23_);}
	.st24{fill:url(#SVGID_24_);}
	.st25{fill:url(#SVGID_25_);}
	.st26{fill:url(#SVGID_26_);}
	.st27{fill:url(#SVGID_27_);}
	.st28{fill:url(#SVGID_28_);}
	.st29{fill:url(#SVGID_29_);}
	.st30{fill:url(#SVGID_30_);}
	.st31{fill:url(#SVGID_31_);}
	.st32{fill:url(#SVGID_32_);}
	.st33{fill:url(#SVGID_33_);}
	.st34{fill:url(#SVGID_34_);}
	.st35{fill:url(#SVGID_35_);}
	.st36{fill:url(#SVGID_36_);}
	.st37{fill:url(#SVGID_37_);}
	.st38{fill:url(#SVGID_38_);}
	.st39{fill:url(#SVGID_39_);}
	.st40{fill:#FFFFFF;}
	.st41{fill:#58595B;}
	.st42{fill:#00953A;}
	.st43{fill:#B3B3B3;}
	.st44{fill:#808285;}
	.st45{fill:#BAD97A;}
	.st46{fill:#00BEDD;}
</style>
<g>
	<linearGradient id="SVGID_1_" gradientUnits="userSpaceOnUse" x1="347.212" y1="320.1503" x2="452.4438" y2="320.1503">
		<stop  offset="0" style="stop-color:#00953A"/>
		<stop  offset="0.5553" style="stop-color:#009339"/>
		<stop  offset="0.7554" style="stop-color:#008C36"/>
		<stop  offset="0.8974" style="stop-color:#00812F"/>
		<stop  offset="1" style="stop-color:#007228"/>
	</linearGradient>
	<polygon class="st0" points="452.4,261.1 347.2,374.4 415.2,379.2 	"/>
	<linearGradient id="SVGID_2_" gradientUnits="userSpaceOnUse" x1="4.951059e-03" y1="500.3923" x2="83.9905" y2="500.3923">
		<stop  offset="0" style="stop-color:#00953A"/>
		<stop  offset="0.5553" style="stop-color:#009339"/>
		<stop  offset="0.7554" style="stop-color:#008C36"/>
		<stop  offset="0.8974" style="stop-color:#00812F"/>
		<stop  offset="1" style="stop-color:#007228"/>
	</linearGradient>
	<polygon class="st1" points="0,599.9 84,573.8 0,400.9 	"/>
	<linearGradient id="SVGID_3_" gradientUnits="userSpaceOnUse" x1="83.9905" y1="544.3388" x2="153.3661" y2="544.3388">
		<stop  offset="0" style="stop-color:#70C647"/>
		<stop  offset="0.4765" style="stop-color:#6EC546"/>
		<stop  offset="0.6481" style="stop-color:#67C044"/>
		<stop  offset="0.7705" style="stop-color:#5CB940"/>
		<stop  offset="0.8694" style="stop-color:#4BAE3B"/>
		<stop  offset="0.9531" style="stop-color:#359F33"/>
		<stop  offset="1" style="stop-color:#25952E"/>
	</linearGradient>
	<polygon class="st2" points="153.4,488.8 84,573.8 96.7,599.9 132.3,599.9 	"/>
	<linearGradient id="SVGID_4_" gradientUnits="userSpaceOnUse" x1="132.2784" y1="544.3436" x2="347.2075" y2="544.3436">
		<stop  offset="0" style="stop-color:#00953A"/>
		<stop  offset="0.5553" style="stop-color:#009339"/>
		<stop  offset="0.7554" style="stop-color:#008C36"/>
		<stop  offset="0.8974" style="stop-color:#00812F"/>
		<stop  offset="1" style="stop-color:#007228"/>
	</linearGradient>
	<polygon class="st3" points="153.4,488.8 132.3,599.9 347.2,599.9 	"/>
	<linearGradient id="SVGID_5_" gradientUnits="userSpaceOnUse" x1="1.042593e-02" y1="311.2806" x2="108.4462" y2="311.2806">
		<stop  offset="0" style="stop-color:#00953A"/>
		<stop  offset="0.5553" style="stop-color:#009339"/>
		<stop  offset="0.7554" style="stop-color:#008C36"/>
		<stop  offset="0.8974" style="stop-color:#00812F"/>
		<stop  offset="1" style="stop-color:#007228"/>
	</linearGradient>
	<polygon class="st4" points="0,400.9 108.4,240.2 95.3,238 0,221.7 	"/>
	<polygon class="st5" points="677.6,9.3 677.4,9.4 649.9,25.3 	"/>
	<linearGradient id="SVGID_6_" gradientUnits="userSpaceOnUse" x1="0" y1="100.0469" x2="347.2083" y2="100.0469">
		<stop  offset="0" style="stop-color:#BAD97A"/>
		<stop  offset="0.4984" style="stop-color:#B8D779"/>
		<stop  offset="0.6778" style="stop-color:#B1D175"/>
		<stop  offset="0.8058" style="stop-color:#A6C76E"/>
		<stop  offset="0.9085" style="stop-color:#95B864"/>
		<stop  offset="0.9961" style="stop-color:#7FA458"/>
		<stop  offset="1" style="stop-color:#7EA357"/>
	</linearGradient>
	<polygon class="st6" points="347.2,200.1 347.2,0 0,0 	"/>
	<linearGradient id="SVGID_7_" gradientUnits="userSpaceOnUse" x1="0" y1="110.8463" x2="155.6254" y2="110.8463">
		<stop  offset="0" style="stop-color:#70C647"/>
		<stop  offset="0.4765" style="stop-color:#6EC546"/>
		<stop  offset="0.6481" style="stop-color:#67C044"/>
		<stop  offset="0.7705" style="stop-color:#5CB940"/>
		<stop  offset="0.8694" style="stop-color:#4BAE3B"/>
		<stop  offset="0.9531" style="stop-color:#359F33"/>
		<stop  offset="1" style="stop-color:#25952E"/>
	</linearGradient>
	<polygon class="st7" points="155.6,169.4 0,0 0,221.7 	"/>
	<linearGradient id="SVGID_8_" gradientUnits="userSpaceOnUse" x1="193.6107" y1="186.8813" x2="347.2075" y2="186.8813">
		<stop  offset="0" style="stop-color:#70C647"/>
		<stop  offset="0.4765" style="stop-color:#6EC546"/>
		<stop  offset="0.6481" style="stop-color:#67C044"/>
		<stop  offset="0.7705" style="stop-color:#5CB940"/>
		<stop  offset="0.8694" style="stop-color:#4BAE3B"/>
		<stop  offset="0.9531" style="stop-color:#359F33"/>
		<stop  offset="1" style="stop-color:#25952E"/>
	</linearGradient>
	<polygon class="st8" points="239.8,262.2 291.7,232.1 347.2,200.1 193.6,111.6 	"/>
	<linearGradient id="SVGID_9_" gradientUnits="userSpaceOnUse" x1="0" y1="84.7289" x2="193.6042" y2="84.7289">
		<stop  offset="0" style="stop-color:#00953A"/>
		<stop  offset="0.5553" style="stop-color:#009339"/>
		<stop  offset="0.7554" style="stop-color:#008C36"/>
		<stop  offset="0.8974" style="stop-color:#00812F"/>
		<stop  offset="1" style="stop-color:#007228"/>
	</linearGradient>
	<polygon class="st9" points="193.6,111.6 0,0 155.6,169.5 	"/>
	<linearGradient id="SVGID_10_" gradientUnits="userSpaceOnUse" x1="108.4973" y1="215.8119" x2="239.793" y2="215.8119">
		<stop  offset="0" style="stop-color:#BAD97A"/>
		<stop  offset="0.4984" style="stop-color:#B8D779"/>
		<stop  offset="0.6778" style="stop-color:#B1D175"/>
		<stop  offset="0.8058" style="stop-color:#A6C76E"/>
		<stop  offset="0.9085" style="stop-color:#95B864"/>
		<stop  offset="0.9961" style="stop-color:#7FA458"/>
		<stop  offset="1" style="stop-color:#7EA357"/>
	</linearGradient>
	<polygon class="st10" points="155.6,169.4 108.5,240.3 239.8,262.2 	"/>
	<linearGradient id="SVGID_11_" gradientUnits="userSpaceOnUse" x1="155.6254" y1="186.8813" x2="239.793" y2="186.8813">
		<stop  offset="0" style="stop-color:#23AE49"/>
		<stop  offset="0.5485" style="stop-color:#21AC48"/>
		<stop  offset="0.746" style="stop-color:#1BA544"/>
		<stop  offset="0.8863" style="stop-color:#109A3D"/>
		<stop  offset="0.9987" style="stop-color:#008934"/>
	</linearGradient>
	<polygon class="st11" points="193.6,111.6 155.6,169.4 239.8,262.2 	"/>
	<linearGradient id="SVGID_12_" gradientUnits="userSpaceOnUse" x1="469.278" y1="24.7676" x2="693.6832" y2="24.7676">
		<stop  offset="0" style="stop-color:#70C647"/>
		<stop  offset="0.4765" style="stop-color:#6EC546"/>
		<stop  offset="0.6481" style="stop-color:#67C044"/>
		<stop  offset="0.7705" style="stop-color:#5CB940"/>
		<stop  offset="0.8694" style="stop-color:#4BAE3B"/>
		<stop  offset="0.9531" style="stop-color:#359F33"/>
		<stop  offset="1" style="stop-color:#25952E"/>
	</linearGradient>
	<polygon class="st12" points="469.3,49.5 469.3,49.5 681,2.8 693.7,0 479.2,0 	"/>
	<linearGradient id="SVGID_13_" gradientUnits="userSpaceOnUse" x1="469.2782" y1="49.5134" x2="469.2812" y2="49.5134">
		<stop  offset="0" style="stop-color:#BAD97A"/>
		<stop  offset="0.4984" style="stop-color:#B8D779"/>
		<stop  offset="0.6778" style="stop-color:#B1D175"/>
		<stop  offset="0.8058" style="stop-color:#A6C76E"/>
		<stop  offset="0.9085" style="stop-color:#95B864"/>
		<stop  offset="0.9961" style="stop-color:#7FA458"/>
		<stop  offset="1" style="stop-color:#7EA357"/>
	</linearGradient>
	<polygon class="st13" points="469.3,49.5 469.3,49.5 469.3,49.5 	"/>
	<linearGradient id="SVGID_14_" gradientUnits="userSpaceOnUse" x1="347.2075" y1="138.1934" x2="499.619" y2="138.1934">
		<stop  offset="0" style="stop-color:#00953A"/>
		<stop  offset="0.5553" style="stop-color:#009339"/>
		<stop  offset="0.7554" style="stop-color:#008C36"/>
		<stop  offset="0.8974" style="stop-color:#00812F"/>
		<stop  offset="1" style="stop-color:#007228"/>
	</linearGradient>
	<polygon class="st14" points="347.2,76.3 347.2,200.1 499.6,112.1 	"/>
	<linearGradient id="SVGID_15_" gradientUnits="userSpaceOnUse" x1="469.2812" y1="56.0361" x2="693.657" y2="56.0361">
		<stop  offset="0" style="stop-color:#BAD97A"/>
		<stop  offset="0.4984" style="stop-color:#B8D779"/>
		<stop  offset="0.6778" style="stop-color:#B1D175"/>
		<stop  offset="0.8058" style="stop-color:#A6C76E"/>
		<stop  offset="0.9085" style="stop-color:#95B864"/>
		<stop  offset="0.9961" style="stop-color:#7FA458"/>
		<stop  offset="1" style="stop-color:#7EA357"/>
	</linearGradient>
	<polygon class="st15" points="499.6,112.1 693.7,0 683.2,2.3 469.3,49.5 	"/>
	<linearGradient id="SVGID_16_" gradientUnits="userSpaceOnUse" x1="444.7246" y1="24.7628" x2="479.2137" y2="24.7628">
		<stop  offset="0" style="stop-color:#BAD97A"/>
		<stop  offset="0.4984" style="stop-color:#B8D779"/>
		<stop  offset="0.6778" style="stop-color:#B1D175"/>
		<stop  offset="0.8058" style="stop-color:#A6C76E"/>
		<stop  offset="0.9085" style="stop-color:#95B864"/>
		<stop  offset="0.9961" style="stop-color:#7FA458"/>
		<stop  offset="1" style="stop-color:#7EA357"/>
	</linearGradient>
	<polygon class="st16" points="479.2,0 444.7,0 469.3,49.5 	"/>
	<linearGradient id="SVGID_17_" gradientUnits="userSpaceOnUse" x1="347.2075" y1="38.1498" x2="469.2812" y2="38.1498">
		<stop  offset="0" style="stop-color:#00953A"/>
		<stop  offset="0.5553" style="stop-color:#009339"/>
		<stop  offset="0.7554" style="stop-color:#008C36"/>
		<stop  offset="0.8974" style="stop-color:#00812F"/>
		<stop  offset="1" style="stop-color:#007228"/>
	</linearGradient>
	<polygon class="st17" points="347.2,76.3 469.3,49.5 444.7,0 410.4,0 	"/>
	<linearGradient id="SVGID_18_" gradientUnits="userSpaceOnUse" x1="347.2075" y1="80.7915" x2="499.619" y2="80.7915">
		<stop  offset="0" style="stop-color:#23AE49"/>
		<stop  offset="0.5485" style="stop-color:#21AC48"/>
		<stop  offset="0.746" style="stop-color:#1BA544"/>
		<stop  offset="0.8863" style="stop-color:#109A3D"/>
		<stop  offset="0.9987" style="stop-color:#008934"/>
	</linearGradient>
	<polygon class="st18" points="499.6,112.1 469.3,49.5 347.2,76.3 	"/>
	<linearGradient id="SVGID_19_" gradientUnits="userSpaceOnUse" x1="347.2075" y1="38.1498" x2="410.4442" y2="38.1498">
		<stop  offset="0" style="stop-color:#70C647"/>
		<stop  offset="0.4765" style="stop-color:#6EC546"/>
		<stop  offset="0.6481" style="stop-color:#67C044"/>
		<stop  offset="0.7705" style="stop-color:#5CB940"/>
		<stop  offset="0.8694" style="stop-color:#4BAE3B"/>
		<stop  offset="0.9531" style="stop-color:#359F33"/>
		<stop  offset="1" style="stop-color:#25952E"/>
	</linearGradient>
	<polygon class="st19" points="347.2,0 347.2,76.3 410.4,0 	"/>
	<linearGradient id="SVGID_20_" gradientUnits="userSpaceOnUse" x1="62.2682" y1="586.8538" x2="96.6899" y2="586.8538">
		<stop  offset="0" style="stop-color:#BAD97A"/>
		<stop  offset="0.4984" style="stop-color:#B8D779"/>
		<stop  offset="0.6778" style="stop-color:#B1D175"/>
		<stop  offset="0.8058" style="stop-color:#A6C76E"/>
		<stop  offset="0.9085" style="stop-color:#95B864"/>
		<stop  offset="0.9961" style="stop-color:#7FA458"/>
		<stop  offset="1" style="stop-color:#7EA357"/>
	</linearGradient>
	<polygon class="st20" points="84,573.8 62.3,599.9 96.7,599.9 	"/>
	<linearGradient id="SVGID_21_" gradientUnits="userSpaceOnUse" x1="1.498096e-02" y1="487.3301" x2="153.3661" y2="487.3301">
		<stop  offset="0" style="stop-color:#BAD97A"/>
		<stop  offset="0.4984" style="stop-color:#B8D779"/>
		<stop  offset="0.6778" style="stop-color:#B1D175"/>
		<stop  offset="0.8058" style="stop-color:#A6C76E"/>
		<stop  offset="0.9085" style="stop-color:#95B864"/>
		<stop  offset="0.9961" style="stop-color:#7FA458"/>
		<stop  offset="1" style="stop-color:#7EA357"/>
	</linearGradient>
	<polygon class="st21" points="0,400.9 84,573.8 153.4,488.8 	"/>
	<linearGradient id="SVGID_22_" gradientUnits="userSpaceOnUse" x1="347.204" y1="489.5716" x2="538.8227" y2="489.5716">
		<stop  offset="0" style="stop-color:#23AE49"/>
		<stop  offset="0.5485" style="stop-color:#21AC48"/>
		<stop  offset="0.746" style="stop-color:#1BA544"/>
		<stop  offset="0.8863" style="stop-color:#109A3D"/>
		<stop  offset="0.9987" style="stop-color:#008934"/>
	</linearGradient>
	<polygon class="st22" points="415.2,379.2 347.2,599.9 538.8,489.8 	"/>
	<linearGradient id="SVGID_23_" gradientUnits="userSpaceOnUse" x1="347.2075" y1="287.2546" x2="452.4438" y2="287.2546">
		<stop  offset="0" style="stop-color:#BAD97A"/>
		<stop  offset="0.4984" style="stop-color:#B8D779"/>
		<stop  offset="0.6778" style="stop-color:#B1D175"/>
		<stop  offset="0.8058" style="stop-color:#A6C76E"/>
		<stop  offset="0.9085" style="stop-color:#95B864"/>
		<stop  offset="0.9961" style="stop-color:#7FA458"/>
		<stop  offset="1" style="stop-color:#7EA357"/>
	</linearGradient>
	<polygon class="st23" points="452.4,261.1 347.2,200.1 347.2,374.4 	"/>
	<linearGradient id="SVGID_24_" gradientUnits="userSpaceOnUse" x1="415.1795" y1="434.526" x2="538.8227" y2="434.526">
		<stop  offset="0" style="stop-color:#BAD97A"/>
		<stop  offset="0.4984" style="stop-color:#B8D779"/>
		<stop  offset="0.6778" style="stop-color:#B1D175"/>
		<stop  offset="0.8058" style="stop-color:#A6C76E"/>
		<stop  offset="0.9085" style="stop-color:#95B864"/>
		<stop  offset="0.9961" style="stop-color:#7FA458"/>
		<stop  offset="1" style="stop-color:#7EA357"/>
	</linearGradient>
	<polygon class="st24" points="498.7,385.3 415.2,379.2 538.8,489.8 	"/>
	<linearGradient id="SVGID_25_" gradientUnits="userSpaceOnUse" x1="414.6772" y1="380.6033" x2="414.6823" y2="380.6033">
		<stop  offset="0" style="stop-color:#BAD97A"/>
		<stop  offset="0.4984" style="stop-color:#B8D779"/>
		<stop  offset="0.6778" style="stop-color:#B1D175"/>
		<stop  offset="0.8058" style="stop-color:#A6C76E"/>
		<stop  offset="0.9085" style="stop-color:#95B864"/>
		<stop  offset="0.9961" style="stop-color:#7FA458"/>
		<stop  offset="1" style="stop-color:#7EA357"/>
	</linearGradient>
	<polygon class="st25" points="414.7,380.6 414.7,380.6 414.7,380.6 414.7,380.6 	"/>
	<linearGradient id="SVGID_26_" gradientUnits="userSpaceOnUse" x1="452.4438" y1="330.972" x2="693.659" y2="330.972">
		<stop  offset="0" style="stop-color:#00953A"/>
		<stop  offset="0.5553" style="stop-color:#009339"/>
		<stop  offset="0.7554" style="stop-color:#008C36"/>
		<stop  offset="0.8974" style="stop-color:#00812F"/>
		<stop  offset="1" style="stop-color:#007228"/>
	</linearGradient>
	<polygon class="st26" points="498.7,385.3 693.7,400.9 452.4,261.1 	"/>
	<linearGradient id="SVGID_27_" gradientUnits="userSpaceOnUse" x1="347.2712" y1="500.3923" x2="693.659" y2="500.3923">
		<stop  offset="0" style="stop-color:#BAD97A"/>
		<stop  offset="0.4984" style="stop-color:#B8D779"/>
		<stop  offset="0.6778" style="stop-color:#B1D175"/>
		<stop  offset="0.8058" style="stop-color:#A6C76E"/>
		<stop  offset="0.9085" style="stop-color:#95B864"/>
		<stop  offset="0.9961" style="stop-color:#7FA458"/>
		<stop  offset="1" style="stop-color:#7EA357"/>
	</linearGradient>
	<polygon class="st27" points="347.3,599.9 693.7,599.9 693.7,400.9 	"/>
	<linearGradient id="SVGID_28_" gradientUnits="userSpaceOnUse" x1="825.1037" y1="544.1106" x2="1041.531" y2="544.1106">
		<stop  offset="0" style="stop-color:#23AE49"/>
		<stop  offset="0.5485" style="stop-color:#21AC48"/>
		<stop  offset="0.746" style="stop-color:#1BA544"/>
		<stop  offset="0.8863" style="stop-color:#109A3D"/>
		<stop  offset="0.9987" style="stop-color:#008934"/>
	</linearGradient>
	<polygon class="st28" points="825.1,599.9 1041.5,599.9 846.5,488.3 	"/>
	<linearGradient id="SVGID_29_" gradientUnits="userSpaceOnUse" x1="777.5286" y1="544.1158" x2="846.4705" y2="544.1158">
		<stop  offset="0" style="stop-color:#BAD97A"/>
		<stop  offset="0.4984" style="stop-color:#B8D779"/>
		<stop  offset="0.6778" style="stop-color:#B1D175"/>
		<stop  offset="0.8058" style="stop-color:#A6C76E"/>
		<stop  offset="0.9085" style="stop-color:#95B864"/>
		<stop  offset="0.9961" style="stop-color:#7FA458"/>
		<stop  offset="1" style="stop-color:#7EA357"/>
	</linearGradient>
	<polygon class="st29" points="777.5,573.1 789.8,599.9 825.1,599.9 846.5,488.3 	"/>
	<linearGradient id="SVGID_30_" gradientUnits="userSpaceOnUse" x1="755.3122" y1="586.5013" x2="789.7603" y2="586.5013">
		<stop  offset="0" style="stop-color:#70C647"/>
		<stop  offset="0.4765" style="stop-color:#6EC546"/>
		<stop  offset="0.6481" style="stop-color:#67C044"/>
		<stop  offset="0.7705" style="stop-color:#5CB940"/>
		<stop  offset="0.8694" style="stop-color:#4BAE3B"/>
		<stop  offset="0.9531" style="stop-color:#359F33"/>
		<stop  offset="1" style="stop-color:#25952E"/>
	</linearGradient>
	<polygon class="st30" points="755.3,599.9 789.8,599.9 777.5,573.1 	"/>
	<linearGradient id="SVGID_31_" gradientUnits="userSpaceOnUse" x1="693.659" y1="500.3975" x2="777.5286" y2="500.3975">
		<stop  offset="0" style="stop-color:#23AE49"/>
		<stop  offset="0.5485" style="stop-color:#21AC48"/>
		<stop  offset="0.746" style="stop-color:#1BA544"/>
		<stop  offset="0.8863" style="stop-color:#109A3D"/>
		<stop  offset="0.9987" style="stop-color:#008934"/>
	</linearGradient>
	<polygon class="st31" points="693.7,400.9 693.7,599.9 755.3,599.9 777.5,573.1 	"/>
	<linearGradient id="SVGID_32_" gradientUnits="userSpaceOnUse" x1="693.659" y1="486.9724" x2="846.4705" y2="486.9724">
		<stop  offset="0" style="stop-color:#00953A"/>
		<stop  offset="0.5553" style="stop-color:#009339"/>
		<stop  offset="0.7554" style="stop-color:#008C36"/>
		<stop  offset="0.8974" style="stop-color:#00812F"/>
		<stop  offset="1" style="stop-color:#007228"/>
	</linearGradient>
	<polygon class="st32" points="846.5,488.3 693.7,400.9 777.5,573.1 	"/>
	<linearGradient id="SVGID_33_" gradientUnits="userSpaceOnUse" x1="4.951059e-03" y1="586.859" x2="83.9905" y2="586.859">
		<stop  offset="0" style="stop-color:#23AE49"/>
		<stop  offset="0.5485" style="stop-color:#21AC48"/>
		<stop  offset="0.746" style="stop-color:#1BA544"/>
		<stop  offset="0.8863" style="stop-color:#109A3D"/>
		<stop  offset="0.9987" style="stop-color:#008934"/>
	</linearGradient>
	<polygon class="st33" points="0,599.9 62.3,599.9 84,573.8 	"/>
	<linearGradient id="SVGID_34_" gradientUnits="userSpaceOnUse" x1="1.498096e-02" y1="400.0834" x2="347.2075" y2="400.0834">
		<stop  offset="0" style="stop-color:#23AE49"/>
		<stop  offset="0.5485" style="stop-color:#21AC48"/>
		<stop  offset="0.746" style="stop-color:#1BA544"/>
		<stop  offset="0.8863" style="stop-color:#109A3D"/>
		<stop  offset="0.9987" style="stop-color:#008934"/>
	</linearGradient>
	<polygon class="st34" points="347.2,200.1 0,400.9 347.2,600.1 	"/>
	<linearGradient id="SVGID_35_" gradientUnits="userSpaceOnUse" x1="1.498096e-02" y1="320.5503" x2="239.793" y2="320.5503">
		<stop  offset="0" style="stop-color:#70C647"/>
		<stop  offset="0.4765" style="stop-color:#6EC546"/>
		<stop  offset="0.6481" style="stop-color:#67C044"/>
		<stop  offset="0.7705" style="stop-color:#5CB940"/>
		<stop  offset="0.8694" style="stop-color:#4BAE3B"/>
		<stop  offset="0.9531" style="stop-color:#359F33"/>
		<stop  offset="1" style="stop-color:#25952E"/>
	</linearGradient>
	<polygon class="st35" points="239.8,262.2 108.4,240.2 0,400.9 	"/>
	<linearGradient id="SVGID_36_" gradientUnits="userSpaceOnUse" x1="1.042593e-02" y1="204.8255" x2="155.6254" y2="204.8255">
		<stop  offset="0" style="stop-color:#23AE49"/>
		<stop  offset="0.5485" style="stop-color:#21AC48"/>
		<stop  offset="0.746" style="stop-color:#1BA544"/>
		<stop  offset="0.8863" style="stop-color:#109A3D"/>
		<stop  offset="0.9987" style="stop-color:#008934"/>
	</linearGradient>
	<polygon class="st36" points="108.4,240.2 155.6,169.4 0,221.7 	"/>
	<linearGradient id="SVGID_37_" gradientUnits="userSpaceOnUse" x1="347.2075" y1="487.169" x2="415.1795" y2="487.169">
		<stop  offset="0" style="stop-color:#70C647"/>
		<stop  offset="0.4765" style="stop-color:#6EC546"/>
		<stop  offset="0.6481" style="stop-color:#67C044"/>
		<stop  offset="0.7705" style="stop-color:#5CB940"/>
		<stop  offset="0.8694" style="stop-color:#4BAE3B"/>
		<stop  offset="0.9531" style="stop-color:#359F33"/>
		<stop  offset="1" style="stop-color:#25952E"/>
	</linearGradient>
	<polygon class="st37" points="347.2,374.4 347.2,599.9 415.2,379.2 	"/>
	<linearGradient id="SVGID_38_" gradientUnits="userSpaceOnUse" x1="415.1795" y1="323.1824" x2="498.732" y2="323.1824">
		<stop  offset="0" style="stop-color:#70C647"/>
		<stop  offset="0.4765" style="stop-color:#6EC546"/>
		<stop  offset="0.6481" style="stop-color:#67C044"/>
		<stop  offset="0.7705" style="stop-color:#5CB940"/>
		<stop  offset="0.8694" style="stop-color:#4BAE3B"/>
		<stop  offset="0.9531" style="stop-color:#359F33"/>
		<stop  offset="1" style="stop-color:#25952E"/>
	</linearGradient>
	<polygon class="st38" points="415.2,379.2 498.7,385.3 452.4,261.1 	"/>
	<linearGradient id="SVGID_39_" gradientUnits="userSpaceOnUse" x1="498.732" y1="437.5581" x2="693.659" y2="437.5581">
		<stop  offset="0" style="stop-color:#70C647"/>
		<stop  offset="0.4765" style="stop-color:#6EC546"/>
		<stop  offset="0.6481" style="stop-color:#67C044"/>
		<stop  offset="0.7705" style="stop-color:#5CB940"/>
		<stop  offset="0.8694" style="stop-color:#4BAE3B"/>
		<stop  offset="0.9531" style="stop-color:#359F33"/>
		<stop  offset="1" style="stop-color:#25952E"/>
	</linearGradient>
	<polygon class="st39" points="538.8,489.8 693.7,400.9 498.7,385.3 	"/>
	<path class="st40" d="M1041.5,198.1L1041.5,198.1L1041.5,198.1L1041.5,198.1l0-198.1L693.7,0l0,0v0l0,0l0,0l0,0l0,0h0l0,0
		L347.2,200.1l346.5,200.8l0,0l0,0l347.9,199V198.1L1041.5,198.1L1041.5,198.1z M693.7,0L693.7,0L693.7,0L693.7,0z M693.7,0L693.7,0
		"/>
</g>
<g>
	<g>
		<path class="st41" d="M765.9,93.6v-7.4h-7v7.4h-3.1v-17h3.1v6.6h7v-6.6h3.1v17H765.9z"/>
		<path class="st41" d="M779,87.3l4.3,6.3h-3.4l-2.8-4.2l-2.7,4.2h-3.3l4.4-6.4l-4.4-6.1h3.5l2.8,4l2.7-4h3.3L779,87.3z"/>
		<path class="st41" d="M796.3,93.6l-0.4-1.9c-0.5,1-2.1,2.2-4.3,2.2c-2,0-3.7-0.5-5.1-1.9c-1.8-1.8-2.2-4.1-2.2-6.9s0.4-5,2.2-6.8
			c1.3-1.3,3.2-2,5.1-2c2.1,0,3.9,0.8,5,1.9c0.8,0.9,1.5,1.9,1.6,3.4h-3.2c0-0.7-0.4-1.1-0.7-1.6c-0.6-0.7-1.5-1-2.7-1
			c-1,0-2.1,0.4-2.8,1.2c-1.2,1.2-1.3,3.3-1.3,4.9s0.2,3.7,1.3,5c0.7,0.7,1.8,1.1,2.8,1.1c1.1,0,2-0.4,2.5-1c0.9-1,1.1-2,1.1-3.3
			h-4.1v-2.6h7.1v9.3H796.3z"/>
		<path class="st41" d="M812.2,93.6l-7.4-11.7v11.7h-3v-17h3.3l7.3,11.5V76.6h3v17H812.2z"/>
		<path class="st41" d="M823.4,85.8c-2.9,0-5.1-2.3-5.1-5.1c0-2.9,2.2-5.1,5.1-5.1s5.1,2.3,5.1,5.1S826.3,85.8,823.4,85.8z
			 M823.4,76.4c-2.5,0-4.1,1.8-4.1,4.3s1.6,4.2,4.1,4.2s4.1-1.8,4.1-4.3S825.9,76.4,823.4,76.4z M824.5,83.2l-0.9-2h-1v2h-0.9v-5.4
			h2c1,0,1.9,0.6,1.9,1.7c0,0.7-0.3,1.3-1,1.6l1,2.1H824.5z M823.6,78.7h-1v1.7h1c0.6,0,0.9-0.3,0.9-0.8
			C824.5,79,824.1,78.7,823.6,78.7z"/>
		<path class="st41" d="M847.5,92.1c-1,1-2.7,1.8-4.6,1.8c-1.7,0-3.4-0.6-4.6-1.8c-1.8-1.8-2.1-4.3-2.1-7c0-2.7,0.3-5.2,2.1-7
			c1.2-1.2,2.9-1.8,4.6-1.8c1.8,0,3.5,0.7,4.5,1.8c1,1,1.6,2.3,1.7,3.9h-2.2c0-0.9-0.4-1.8-0.9-2.4c-0.7-0.7-1.8-1.2-3.1-1.2
			c-1.2,0-2.3,0.5-3.1,1.3c-1.4,1.4-1.4,3.7-1.4,5.5c0,1.8,0,4.1,1.4,5.5c0.8,0.8,1.9,1.3,3.1,1.3c1.3,0,2.4-0.6,3.1-1.3
			c0.6-0.6,0.9-1.5,0.9-2.4h2.2C849.1,89.7,848.5,91.1,847.5,92.1z"/>
		<path class="st41" d="M860.5,92.5c-0.9,0.9-2.1,1.4-3.7,1.4s-2.8-0.6-3.7-1.4c-1.3-1.3-1.7-3-1.7-5c0-1.9,0.4-3.7,1.7-5
			c0.9-0.9,2.1-1.4,3.7-1.4s2.8,0.6,3.7,1.4c1.3,1.3,1.7,3,1.7,5C862.2,89.4,861.8,91.2,860.5,92.5z M859,83.7
			c-0.5-0.5-1.2-0.9-2.2-0.9s-1.7,0.4-2.2,0.9c-0.9,0.9-1.1,2.4-1.1,3.8c0,1.4,0.3,2.9,1.1,3.8c0.5,0.5,1.2,0.9,2.2,0.9
			s1.7-0.4,2.2-0.9c0.9-0.9,1.1-2.4,1.1-3.8C860.1,86.1,859.9,84.6,859,83.7z"/>
		<path class="st41" d="M873.5,93.6v-7.7c0-1.8-0.7-2.9-2.7-2.9c-1.2,0-2.1,0.8-2.6,1.9c-0.4,0.9-0.4,2.2-0.4,3.1v5.6h-2V81.4h1.8
			l0.2,1.8c0.6-1.4,2.3-2.1,3.7-2.1c2.8,0,4.2,1.7,4.2,4.5v8H873.5z"/>
		<path class="st41" d="M887.6,93.6v-7.7c0-1.8-0.7-2.9-2.7-2.9c-1.2,0-2.1,0.8-2.6,1.9c-0.4,0.9-0.4,2.2-0.4,3.1v5.6h-2V81.4h1.8
			l0.2,1.8c0.6-1.4,2.3-2.1,3.7-2.1c2.8,0,4.2,1.7,4.2,4.5v8H887.6z"/>
		<path class="st41" d="M903.6,88.2H895c0,1.1,0.4,2.3,1.2,3c0.6,0.6,1.3,0.9,2.2,0.9c1,0,1.8-0.3,2.3-0.8c0.3-0.3,0.6-0.7,0.7-1.3
			h2c-0.2,1.2-0.9,2.3-1.9,3c-0.9,0.6-1.9,0.9-3.1,0.9c-1.7,0-3.1-0.7-4-1.8c-1-1.2-1.5-2.8-1.5-4.5c0-1.5,0.3-2.8,0.9-3.9
			c0.9-1.5,2.5-2.5,4.6-2.5c1.6,0,2.8,0.6,3.7,1.6c1,1.1,1.6,2.6,1.5,4.3L903.6,88.2z M900.8,84c-0.5-0.7-1.3-1.1-2.4-1.1
			c-2.2,0-3.3,1.8-3.3,3.6h6.5C901.5,85.5,901.3,84.6,900.8,84z"/>
		<path class="st41" d="M915.1,92.6c-0.9,0.8-2,1.3-3.5,1.3c-2.2,0-3.6-1-4.4-2.3c-0.6-1-1-2.3-1-4.1c0-1.8,0.4-3.1,1-4.1
			c0.9-1.3,2.2-2.3,4.4-2.3c1.4,0,2.6,0.5,3.5,1.3c0.8,0.8,1.3,1.8,1.4,3.1h-2.1c-0.1-0.8-0.4-1.4-0.9-1.9c-0.5-0.5-1.2-0.7-2-0.7
			c-0.9,0-1.6,0.3-2.1,0.8c-1,0.8-1.2,2.3-1.2,3.8c0,1.5,0.3,3,1.2,3.8c0.5,0.5,1.2,0.8,2.1,0.8c0.8,0,1.6-0.3,2.1-0.8
			c0.4-0.5,0.7-1,0.8-1.8h2.1C916.4,90.8,915.9,91.8,915.1,92.6z"/>
		<path class="st41" d="M923.6,93.8c-2.6,0-3.3-1.7-3.3-3.3v-7.3h-2.4v-1.8h2.4v-3.1l2-0.5v3.6h3.6v1.8h-3.6v7
			c0,1.2,0.5,1.7,1.6,1.7c0.9,0,2.1-0.2,2.1-0.2v1.8C925.4,93.6,924.7,93.8,923.6,93.8z"/>
		<path class="st41" d="M756.2,122.4v-17h2.1v15h8.2v2H756.2z"/>
		<path class="st41" d="M768.8,107.5v-2.4h2.4v2.4H768.8z M769,122.4v-12.1h2.1v12.1H769z"/>
		<path class="st41" d="M780.3,122.4h-2.2l-4.5-12.1h2.1l3.5,9.7l3.4-9.7h2.1L780.3,122.4z"/>
		<path class="st41" d="M796.9,117h-8.6c0,1.1,0.4,2.3,1.2,3c0.6,0.6,1.3,0.9,2.2,0.9c1,0,1.8-0.3,2.3-0.8c0.3-0.3,0.6-0.7,0.7-1.3
			h2c-0.2,1.2-0.9,2.3-1.9,3c-0.9,0.6-1.9,0.9-3.1,0.9c-1.7,0-3.1-0.7-4-1.8c-1-1.2-1.5-2.8-1.5-4.5c0-1.5,0.3-2.8,0.9-3.9
			c0.9-1.5,2.5-2.5,4.6-2.5c1.6,0,2.8,0.6,3.7,1.6c1,1.1,1.6,2.6,1.5,4.3L796.9,117z M794,112.8c-0.5-0.7-1.3-1.1-2.4-1.1
			c-2.2,0-3.3,1.8-3.3,3.6h6.5C794.8,114.3,794.5,113.4,794,112.8z"/>
		<path class="st41" d="M816.2,121c-1.2,1.2-3,1.7-4.8,1.7c-2.1,0-3.7-0.6-4.9-1.6c-1.1-1-1.8-2.5-1.8-4.1h2.2c0,1,0.5,2,1.2,2.7
			c0.8,0.7,2.1,1.1,3.3,1.1c1.3,0,2.4-0.3,3.2-1c0.5-0.5,0.9-1.1,0.9-2c0-1.3-0.8-2.4-2.9-2.7l-2.7-0.4c-2.5-0.4-4.5-1.8-4.5-4.5
			c0-1.3,0.6-2.5,1.5-3.4c1.2-1.1,2.7-1.7,4.5-1.7c1.7,0,3.3,0.6,4.4,1.6c1,1,1.6,2.2,1.6,3.6h-2.2c0-0.8-0.4-1.6-0.8-2.1
			c-0.6-0.7-1.7-1.2-3-1.2c-1.2,0-2.3,0.3-3,1.2c-0.4,0.5-0.7,1.1-0.7,1.8c0,1.5,1.3,2.2,2.5,2.4c1,0.1,1.9,0.3,2.8,0.4
			c2.8,0.4,4.7,2.1,4.7,4.8C817.6,119.1,817,120.2,816.2,121z"/>
		<path class="st41" d="M828.8,122.4v-7.7c0-1.8-0.7-2.9-2.7-2.9c-1.2,0-2.1,0.8-2.6,1.9c-0.4,0.9-0.4,2.2-0.4,3.1v5.6h-2v-17.3h2
			v6.8c0.7-1.2,2.2-1.9,3.6-1.9c2.8,0,4.2,1.7,4.2,4.5v8H828.8z"/>
		<path class="st41" d="M844,122.6c-1.1,0-1.8-0.8-1.8-1.8h0c-0.7,1.2-2.2,2-3.9,2c-2.8,0-4.2-1.9-4.2-3.7c0-1.6,1-3.6,4.3-3.8
			l3.7-0.2v-0.9c0-0.6-0.1-1.3-0.6-1.8c-0.4-0.4-1-0.6-2-0.6c-1.1,0-1.8,0.3-2.2,0.7c-0.4,0.4-0.6,0.9-0.6,1.5h-2
			c0-1.1,0.4-1.9,1.1-2.5c0.8-0.9,2.3-1.3,3.7-1.3c2.4,0,3.7,1,4.3,2.3c0.2,0.6,0.4,1.2,0.4,1.9v5.9c0,0.6,0.3,0.8,0.7,0.8
			c0.2,0,0.5-0.1,0.5-0.1v1.5C844.9,122.5,844.5,122.6,844,122.6z M842.1,116.5l-3.3,0.2c-1.2,0.1-2.7,0.6-2.7,2.2
			c0,1.1,0.7,2.1,2.4,2.1c0.9,0,1.8-0.3,2.5-1c0.7-0.7,1-1.8,1-2.8V116.5z"/>
		<path class="st41" d="M854,112.1c-1,0-1.8,0.4-2.3,1c-1,0.9-1.1,2.6-1.1,3.9v5.4h-2v-12.1h1.8l0.2,2.1c0.6-1.5,2.1-2.2,3.6-2.2
			c0.3,0,0.6,0,1,0.1v2C854.8,112.2,854.4,112.1,854,112.1z"/>
		<path class="st41" d="M867.3,117h-8.6c0,1.1,0.4,2.3,1.2,3c0.6,0.6,1.3,0.9,2.2,0.9c1,0,1.8-0.3,2.3-0.8c0.3-0.3,0.6-0.7,0.7-1.3
			h2c-0.2,1.2-0.9,2.3-1.9,3c-0.9,0.6-1.9,0.9-3.1,0.9c-1.7,0-3.1-0.7-4-1.8c-1-1.2-1.5-2.8-1.5-4.5c0-1.5,0.3-2.8,0.9-3.9
			c0.9-1.5,2.5-2.5,4.6-2.5c1.6,0,2.8,0.6,3.7,1.6c1,1.1,1.6,2.6,1.5,4.3L867.3,117z M864.5,112.8c-0.5-0.7-1.3-1.1-2.4-1.1
			c-2.2,0-3.3,1.8-3.3,3.6h6.5C865.3,114.3,865,113.4,864.5,112.8z"/>
	</g>
	<g>
		<rect x="653.8" y="43.3" class="st40" width="80" height="80"/>
		<g>
			<g>
				<g>
					<path class="st42" d="M657,120l0-73.4h73.5v62.3L719.4,120H657z M653.8,123.3h80v-80h-80V123.3z"/>
				</g>
			</g>
		</g>
		<g>
			<path class="st43" d="M715.7,85.3c2.3,1.6,3.8,4.2,3.8,7.6c0,3.1-1.1,5.3-2.8,7c-2.5,2.5-6.4,3.6-10.5,3.6
				c-2.1,0-4.2-0.3-6.1-1.1c-0.1,0-0.2-0.1-0.3-0.1c2.6,1.8,5.7,2.5,8.8,2.5c4.1,0,8-1,10.5-3.6c1.6-1.6,2.8-3.9,2.8-7
				C721.8,89.7,719.2,86.7,715.7,85.3z"/>
			<polygon class="st44" points="720.9,80.5 718.9,79.2 714.8,79.2 712.7,79.2 715,80.5 			"/>
			<path class="st43" d="M703,97.6c-1-1-1.7-2.4-1.7-4.1h0l0,0l-2.4-1.3c0,0.4,0.1,0.9,0.2,1.3h0c0.3,1.1,0.9,2.1,1.6,2.8
				c0.7,0.7,1.5,1.1,2.5,1.4C703,97.7,703,97.6,703,97.6z"/>
			<path class="st44" d="M712.2,90.5c-0.3-0.1-0.8-0.2-0.9-0.2c-0.5-0.1-3.6-0.4-4-0.5c-0.2,0-5.3-0.5-7-1.8
				c-0.1-0.1-0.2-0.1-0.3-0.2c0,0-0.1,0-0.1-0.1c0,0-0.1,0-0.1-0.1c0.7,0.2,1.4,0.4,2.1,0.5c2.2,0.4,5.1,0.5,7.4,0.9
				C710.4,89.4,711.5,89.8,712.2,90.5z"/>
			<path class="st44" d="M710.8,75.6c-0.7-0.2-1.5-0.3-2.2-0.3c-2,0-4.2,0.4-5.6,1.9c-1.3,1.3-1.2,3.3-1.1,3.7
				c0.1,0.6,0.3,1,0.6,1.4c-1.7-0.4-2.9-1.5-2.9-3.5c0-1.2,0.4-2.1,1.1-2.8c1.4-1.4,3.5-1.8,5.4-1.8
				C707.7,74.1,709.7,74.6,710.8,75.6z"/>
			<g>
				<g>
					<path class="st42" d="M719.4,92.9c0,3.1-1.1,5.3-2.8,7c-2.5,2.5-6.4,3.6-10.5,3.6c-3.5,0-7.2-0.9-10-3.4
						c-2-1.8-3.5-4.6-3.5-7.8h6.2c0,1.6,0.8,3.1,1.7,4.1c1.4,1.4,3.7,1.8,5.6,1.8c2.3,0,4.5-0.5,5.8-1.8c0.8-0.8,1.3-1.6,1.3-3.2
						c0-1.1-0.4-2-1.1-2.6c-0.7-0.7-1.8-1.1-2.9-1.3c-2.3-0.4-5.2-0.5-7.4-0.9c-0.7-0.1-1.4-0.3-2.1-0.5c0,0,0,0,0,0
						c0,0-0.1,0-0.1-0.1c0.7,0.3,1.5,0.5,2.3,0.6c0.9,0.1,1.8,0.2,2.8,0.3c-0.3,0-0.5-0.1-0.8-0.1c-0.4-0.1-0.9-0.2-1.3-0.3
						c0,0,0,0,0,0c-4-1.1-7.2-4.1-7.2-9.1c0-2.7,1.2-4.9,2.9-6.7c2-2,5.2-3.3,8.8-3.5c3.2,0.2,6.2,1.3,8.2,3.2
						c2,1.9,3.3,4.3,3.4,7.1h-6.2c0-1.2-0.7-2.4-1.5-3.3c-0.1-0.1-0.2-0.2-0.4-0.3c-1.2-0.9-3.1-1.5-4.7-1.5c-1.9,0-4,0.4-5.4,1.8
						c-0.7,0.8-1.1,1.6-1.1,2.8c0,2,1.2,3.1,2.9,3.5c0.2,0,0.3,0.1,0.5,0.1c2.1,0.3,5.1,0.6,7.2,0.8
						C715.2,83.9,719.4,87.2,719.4,92.9z"/>
				</g>
				<path class="st45" d="M704.1,88.5c0.3,0,0.5,0.1,0.8,0.1c-1-0.1-1.9-0.2-2.8-0.3c-0.8-0.1-1.6-0.3-2.3-0.6c0,0,0.1,0.1,0.1,0.1
					c-3.6-1.2-6.4-4.1-6.4-8.8c0-2.6,1.2-4.8,2.9-6.6c2.2-2.1,5.7-3.5,9.5-3.5c0.1,0,0.2,0,0.4,0c0.2,0,0.4,0,0.6,0
					c0.1,0,0.2,0,0.4,0c-3.5,0.2-6.7,1.5-8.8,3.5c-1.7,1.8-2.9,4-2.9,6.7c0,5.1,3.2,8.1,7.2,9.1c0,0,0,0,0,0
					C703.2,88.3,703.6,88.4,704.1,88.5z"/>
				<path class="st46" d="M707.3,68.9C707.3,68.9,707.3,68.9,707.3,68.9c-0.1,0-0.3,0-0.4,0C707,68.9,707.2,68.9,707.3,68.9z"/>
			</g>
			<path class="st43" d="M718.9,79.2l2,1.3v-1.2c0-2.8-1.4-5.3-3.4-7.2c-2.3-2.1-5.7-3.3-9.3-3.3c-0.3,0-0.7,0-1,0
				c3.2,0.2,6.3,1.3,8.3,3.2C717.5,74,718.8,76.4,718.9,79.2z"/>
			<path class="st45" d="M701.1,102.6c-4.3-2.1-5.7-6.8-6.1-9.1c-0.2-0.8-0.2-1.3-0.2-1.3l-2.3,0c0,0,0,0,0,0c0.2,3.2,1.4,5.5,2.8,7
				c0.2,0.2,0.5,0.5,0.7,0.7c1.1,1,2.3,1.7,3.6,2.2c0.1,0,0.2,0.1,0.3,0.1c0.9,0.3,1.9,0.6,1.9,0.6L701.1,102.6z"/>
		</g>
		<g>
			<polygon class="st42" points="690.7,97.2 675.1,97.2 675.1,69.5 669,69.5 669.1,102.8 675.1,102.8 675.1,102.8 677.5,102.8 
				677.5,102.8 690.7,102.8 			"/>
			<polygon class="st44" points="669.1,102.8 671.2,104.2 692.8,104.2 690.7,102.8 			"/>
			<polygon class="st43" points="692.8,104.2 690.7,102.8 690.7,97.2 692.8,98.6 			"/>
			<polygon class="st43" points="677.5,71.1 675.1,69.5 675.1,97.2 677.5,97.2 			"/>
			<polygon class="st45" points="671.4,102.8 669.1,102.8 669,69.5 671.4,69.5 			"/>
		</g>
	</g>
</g>
</svg>
