<svg xmlns="http://www.w3.org/2000/svg" width="26" height="27.388" viewBox="0 0 26 27.388"><defs><style>.a{fill:none;stroke:#fff;stroke-linecap:round;stroke-miterlimit:10;stroke-width:1.667px;}</style></defs><g transform="translate(-946.306 -524.973)"><circle cx="5.415" cy="5.415" r="5.415" transform="translate(961.477 541.532)"/><line class="a" y2="6.166" transform="translate(966.891 543.863)"/><line class="a" x1="6.166" transform="translate(963.807 546.946)"/><circle cx="2.918" cy="2.918" r="2.918" transform="translate(955.888 536.645)"/><circle cx="2.501" cy="2.501" r="2.501" transform="translate(964.643 524.973)"/><path d="M967.144,529.975c-2.293,0-4.17,1.875-4.17,5h8.338C971.313,531.85,969.437,529.975,967.144,529.975Z"/><circle cx="2.501" cy="2.501" r="2.501" transform="translate(947.968 524.973)"/><path d="M950.469,529.975c-2.292,0-4.163,1.875-4.163,5h8.336C954.638,531.85,952.762,529.975,950.469,529.975Z"/><path d="M966.573,539.217l1.155-1.155a.833.833,0,0,0-1.167-1.167l-3.131,3.13A7.7,7.7,0,0,1,966.573,539.217Z"/><path d="M962.976,529.141a.835.835,0,0,0-.834-.835h-6.671a.834.834,0,0,0,0,1.669h6.671A.835.835,0,0,0,962.976,529.141Z"/><path d="M951.053,536.9a.834.834,0,0,0-1.168,1.167l3.335,3.336a.826.826,0,0,0,1.168-1.168Z"/><path d="M959.146,546.946a7.7,7.7,0,0,1,1.23-4.177,4.979,4.979,0,0,0-1.569-.288,5.042,5.042,0,0,0-5,5v.834h5.47A7.741,7.741,0,0,1,959.146,546.946Z"/></g></svg>