<svg id="Layer_1" data-name="Layer 1" xmlns="http://www.w3.org/2000/svg" viewBox="0 0 99.47 107.95"><defs><style>.cls-1{fill:#333;}</style></defs><title>generic-unit</title><path class="cls-1" d="M79.59,73a7.39,7.39,0,1,1-7.4-7.39A7.39,7.39,0,0,1,79.59,73Z"/><path class="cls-1" d="M28.45,73a7.39,7.39,0,1,1-7.39-7.39A7.39,7.39,0,0,1,28.45,73Z"/><path class="cls-1" d="M77,49c-2.85,0-1.43,0-5.67-3.38-3.19-2.52-15-10.56-15-10.56a7,7,0,0,0-4.87-2H25.85c-1.76,0-3.51.89-3.91,2,0,0-5.87,7.61-8.22,10.75S11.42,49,8.52,49h-5a3.21,3.21,0,0,0-3.2,3.19v16a3.21,3.21,0,0,0,3.2,3.2H9.85a11.31,11.31,0,0,1,22.41,0H61a11.31,11.31,0,0,1,22.41,0H96.17a3.21,3.21,0,0,0,3.19-3.2v-6.4C99.36,58.59,89.69,49,77,49ZM19,49l6.61-8.81s.94-.78,1.37-.78H38.63V49ZM45,49V39.39H50.3a4.13,4.13,0,0,1,2.39.87L66.19,49Z"/><rect class="cls-1" x="38.39" y="24.11" width="16.19" height="5.4"/></svg>