<svg id="Layer_1" data-name="Layer 1" xmlns="http://www.w3.org/2000/svg" viewBox="0 0 26 22"><defs><style>.cls-1{fill:#bcbcbc;}</style></defs><path class="cls-1" d="M23.13,19.16l2.63-2.67a.86.86,0,0,0,0-1.2.84.84,0,0,0-.59-.24.82.82,0,0,0-.6.25l-.64.65a6,6,0,0,0-1.71-4.25,5.81,5.81,0,0,0-6.93-1A.86.86,0,0,0,15,11.82a.83.83,0,0,0,.74.45.8.8,0,0,0,.4-.11,4.09,4.09,0,0,1,2-.5,4.16,4.16,0,0,1,3,1.23,4.32,4.32,0,0,1,1.21,2.94l-.52-.53a.83.83,0,0,0-.6-.25.86.86,0,0,0-.6.24.85.85,0,0,0,0,1.2Z"/><path class="cls-1" d="M13.05,12.63,10.42,15.3a.84.84,0,0,0,.6,1.44.82.82,0,0,0,.6-.25l.64-.65A6,6,0,0,0,14,20.09a5.81,5.81,0,0,0,6.93,1,.87.87,0,0,0,.43-.86l-.72-.72-.12,0a.86.86,0,0,0-.4.11,4.06,4.06,0,0,1-2,.5,4.12,4.12,0,0,1-3-1.23A4.27,4.27,0,0,1,14,16l.51.52a.85.85,0,0,0,.6.25.86.86,0,0,0,.6-.24.85.85,0,0,0,0-1.2Z"/><path class="cls-1" d="M10.8,18.73a2.73,2.73,0,0,1-1.19-.38l-1.27.72V6l4.3-2.47v6.68a8,8,0,0,1,2-1.43V3.51L19,6V8a7.63,7.63,0,0,1,2,.49V4.8L13.67.59,9.08,3.21l-1.75,1L0,0V17.78c1,.56,7,4,7.33,4.22l.5-.29h0l3.44-2A7,7,0,0,1,10.8,18.73Zm-4.48.34L2,16.6V3.51L6.32,6Z"/></svg>