<svg xmlns="http://www.w3.org/2000/svg" width="28.193" height="15.999" viewBox="0 0 28.193 15.999"><defs><style>.a{fill:#345ea1;}</style></defs><g transform="translate(18.22 11.611)"><path class="a" d="M577.071,629.156a2.194,2.194,0,1,1-.645-1.554A2.194,2.194,0,0,1,577.071,629.156Z" transform="translate(-572.683 -626.962)"/></g><g transform="translate(3.976 11.611)"><path class="a" d="M561.888,629.156a2.194,2.194,0,1,1-2.194-2.194A2.194,2.194,0,0,1,561.888,629.156Z" transform="translate(-557.5 -626.962)"/></g><path class="a" d="M575.35,621.748c-.81,0-.407-.006-1.612-.94-.91-.7-4.279-2.945-4.279-2.945a2.006,2.006,0,0,0-1.385-.569H560.8a1.2,1.2,0,0,0-1.112.569s-1.669,2.123-2.338,3-.656.887-1.482.887h-1.434a.9.9,0,0,0-.91.891V627.1a.9.9,0,0,0,.91.892h1.813a3.228,3.228,0,0,1,6.376,0H570.8a3.228,3.228,0,0,1,6.376,0h3.633a.9.9,0,0,0,.908-.892v-1.782C581.716,624.427,578.964,621.748,575.35,621.748Zm-16.507,0,1.88-2.453s.267-.22.39-.22h3.324v2.673Zm7.414,0v-2.673h1.5a1.184,1.184,0,0,1,.68.243l3.842,2.43Z" transform="translate(-553.524 -614.655)"/><rect class="a" width="4.808" height="1.603" transform="translate(10.75)"/></svg>