<svg xmlns="http://www.w3.org/2000/svg" xmlns:xlink="http://www.w3.org/1999/xlink" width="20" height="20" viewBox="0 0 20 20"><defs><style>.a{fill:none;}.b{clip-path:url(#a);}.c{fill:#666;}</style><clipPath id="a"><rect class="a" width="20" height="20" transform="translate(0 -0.463)"/></clipPath></defs><g transform="translate(0 0.463)"><g class="b"><path class="c" d="M10,1a9,9,0,1,1-9,9,9.01,9.01,0,0,1,9-9m0-1A10,10,0,1,0,20,10,10,10,0,0,0,10,0"/><path class="c" d="M14.333,13.237a.776.776,0,1,1-1.1,1.1L10,11.1,6.763,14.334a.775.775,0,0,1-1.1-1.1L8.9,10,5.667,6.762a.775.775,0,0,1,1.1-1.1L10,8.9l3.236-3.237a.775.775,0,1,1,1.1,1.1L11.1,10Z"/></g></g></svg>