<svg xmlns="http://www.w3.org/2000/svg" width="590.736" height="332.607" viewBox="0 0 590.736 332.607">
  <g id="Group_9880" data-name="Group 9880" transform="translate(-853 -264.219)">
    <g id="Group_9401" data-name="Group 9401" transform="translate(853 366.272)">
      <g id="Group_9883" data-name="Group 9883">
        <path id="Path_7938" data-name="Path 7938" d="M267.541,348.392l-21.5-60.207s23.652,11.827,24.728,26.879c0,0-5.376-75.258-16.127-91.385,0,0,17.2,2.15,36.555,86.009,0,0,3.225-96.76-25.8-124.714,0,0,39.779,32.253,43,102.137v61.282Z" transform="translate(-226.398 -118.315)" fill="#dbe1ef"/>
        <path id="Path_7939" data-name="Path 7939" d="M770.88,397.849l-7.888-22.086s8.676,4.339,9.071,9.859c0,0-1.974-27.605-5.916-33.521,0,0,6.309.788,13.41,31.549,0,0,1.181-35.493-9.468-45.747,0,0,14.591,11.831,15.776,37.465v22.479Z" transform="translate(-200.701 -167.936)" fill="#dbe1ef"/>
        <path id="Path_7941" data-name="Path 7941" d="M697.545,345.5c-.148-.24-3.618-6.036-4.822-18.071-1.1-11.041-.394-29.653,9.259-55.615,18.285-49.182-4.215-88.865-4.444-89.261l1.11-.643c.057.1,5.864,10.218,9.293,26.328a114.871,114.871,0,0,1-4.757,64.023c-18.255,49.1-4.684,72.341-4.545,72.57Z" transform="translate(-158.253 -115.255)" fill="#3f3d56"/>
        <path id="Path_7942" data-name="Path 7942" d="M720.732,196.771a8.339,8.339,0,1,1-8.338,8.339,8.339,8.339,0,0,1,8.338-8.339" transform="translate(-162.291 -118.246)" fill="#3f3d56"/>
        <path id="Path_7943" data-name="Path 7943" d="M698.245,222.473a8.339,8.339,0,1,1-8.339,8.338,8.339,8.339,0,0,1,8.339-8.338" transform="translate(-157.764 -123.42)" fill="#335ca5"/>
        <path id="Path_7944" data-name="Path 7944" d="M725.552,244.157a8.339,8.339,0,1,1-8.338,8.339,8.339,8.339,0,0,1,8.338-8.339" transform="translate(-163.261 -127.785)" fill="#335ca5"/>
        <path id="Path_7945" data-name="Path 7945" d="M690.213,277.89a8.339,8.339,0,1,1-8.338,8.339,8.339,8.339,0,0,1,8.338-8.339" transform="translate(-156.147 -134.575)" fill="#3f3d56"/>
        <path id="Path_7946" data-name="Path 7946" d="M704.829,378.064s-8.338-20.527,16.678-35.923Z" transform="translate(-160.5 -147.51)" fill="#3f3d56"/>
        <path id="Path_7947" data-name="Path 7947" d="M683.964,381.2s-3.8-21.829-33.169-21.642Z" transform="translate(-149.891 -151.015)" fill="#3f3d56"/>
        <rect id="Rectangle_2451" data-name="Rectangle 2451" width="590.736" height="0.956" transform="translate(0 229.598)" fill="#3f3d56"/>
        <rect id="Rectangle_2453" data-name="Rectangle 2453" width="454" height="311" rx="6" transform="translate(72.965 -100.272)" fill="#fff"/>
        <g id="Group_9884" data-name="Group 9884" transform="translate(72.713 -102.053)">
          <g id="Group_9398" data-name="Group 9398" transform="translate(0 0)">
            <path id="Path_7907" data-name="Path 7907" d="M449.487,185.4H6.366A6.372,6.372,0,0,0,0,191.77V492.041a6.372,6.372,0,0,0,6.366,6.367H449.487a6.36,6.36,0,0,0,4.84-2.235,1.535,1.535,0,0,0,.139-.175,5.958,5.958,0,0,0,.913-1.54,6.217,6.217,0,0,0,.482-2.417V191.77a6.374,6.374,0,0,0-6.373-6.366m4.555,306.637a4.507,4.507,0,0,1-.752,2.5,4.709,4.709,0,0,1-1.723,1.548,4.514,4.514,0,0,1-2.081.5H6.366a4.553,4.553,0,0,1-4.548-4.548V191.77a4.554,4.554,0,0,1,4.548-4.548H449.487a4.556,4.556,0,0,1,4.555,4.548Z" transform="translate(0 -185.404)" fill="#3f3d56"/>
            <rect id="Rectangle_2446" data-name="Rectangle 2446" width="454.04" height="1.82" transform="translate(0.907 25.513)" fill="#3f3d56"/>
            <path id="Path_7908" data-name="Path 7908" d="M20.413,196.622a5.459,5.459,0,1,1-5.46,5.459,5.46,5.46,0,0,1,5.46-5.459" transform="translate(-4.037 -188.433)" fill="#3f3d56"/>
            <path id="Path_7909" data-name="Path 7909" d="M41.913,196.622a5.459,5.459,0,1,1-5.46,5.459,5.46,5.46,0,0,1,5.46-5.459" transform="translate(-9.842 -188.433)" fill="#3f3d56"/>
            <path id="Path_7910" data-name="Path 7910" d="M63.414,196.622a5.459,5.459,0,1,1-5.46,5.459,5.46,5.46,0,0,1,5.46-5.459" transform="translate(-15.647 -188.433)" fill="#3f3d56"/>
            <path id="Path_7911" data-name="Path 7911" d="M274.323,418.238c-5.46-3.554-8.175-11.815-6.838-19.368S273.862,384.809,279.9,382a19.459,19.459,0,0,1,18.417,1.309c5.539,3.387,13.372,5.242,16,12.018,2.021,5.207-.543,15.781-3.263,20.839-2.351,4.371-6.819,6.372-11.017,7.24a33.1,33.1,0,0,1-26.769-6.177Z" transform="translate(-72.125 -238.018)" fill="#2f2e41"/>
            <path id="Path_7912" data-name="Path 7912" d="M266.178,485.712l-4.366,7.527-.577.993-.84,1.46h-12.87l.869-1.46,2.249-3.79,5.241-8.848,5.935,2.372Z" transform="translate(-66.828 -265.37)" fill="#ffb8b8"/>
            <path id="Path_7913" data-name="Path 7913" d="M245.229,488.414l-2.351-1.46-.292-.183,14.754-26.887a10.019,10.019,0,0,1,6.023-4.832,9.907,9.907,0,0,1,4.95-.182,9.743,9.743,0,0,1,2.73,1.021,9.573,9.573,0,0,1,1.015.642,9.747,9.747,0,0,1,2.993,3.373,10.086,10.086,0,0,1-.307,10.184l-5.687,9.089-4.862,7.774-.913,1.46Z" transform="translate(-65.494 -258.093)" fill="#2f2e41"/>
            <path id="Path_7914" data-name="Path 7914" d="M291.5,396.223a17.93,17.93,0,1,1-17.93,17.931,17.931,17.931,0,0,1,17.93-17.931" transform="translate(-73.859 -242.321)" fill="#ffb8b8"/>
            <path id="Path_7915" data-name="Path 7915" d="M307.57,487.606h-40.3l.182-.518q-.153-.471-.285-.942c-.095-.328-.175-.664-.248-.992a22.043,22.043,0,0,1,.007-9.272c2.227-10.936,11.111-19.82,11.111-19.82.153-.116.307-.226.46-.336a20.257,20.257,0,0,1,4.271-2.394c6.6-2.738,13.52-1.635,18.169-.22a36.07,36.07,0,0,1,4.738,1.8c.541.255.833.415.833.415l.46,14.024.555,16.79Z" transform="translate(-71.93 -257.285)" fill="#335ca5"/>
            <path id="Path_7916" data-name="Path 7916" d="M338.977,485.483,335.9,469.817l-3.109-15.8a3.3,3.3,0,0,0-2.665-2.606l-6.512-1.124-6.059-1.044a3.255,3.255,0,0,0-3.146,1.205,3.214,3.214,0,0,0-.708,2,3.293,3.293,0,0,0,.27,1.307c3.161,7.374,3.219,19.047,2.416,31.727-.037.482-.066.971-.1,1.46h22.988Z" transform="translate(-84.692 -256.622)" fill="#2f2e41"/>
            <path id="Path_7917" data-name="Path 7917" d="M278.066,453.031a3.3,3.3,0,0,0-5.22-1.81l-2.8,2.54L258.6,464.185a3.171,3.171,0,0,0-.818,1.161c-1.292,3.088-3.811,9.183-6.738,16.71q-.712,1.839-1.467,3.788c-.175.481-.365.97-.555,1.46H267.89c.153-.49.307-.979.46-1.46.84-2.651,1.657-5.248,2.446-7.774,2.307-7.337,4.387-14,5.993-19.273q.668-2.19,1.219-4.044a3.3,3.3,0,0,0,.058-1.723" transform="translate(-67.232 -256.984)" fill="#2f2e41"/>
            <path id="Path_7918" data-name="Path 7918" d="M348.3,494.336h1.219l-.168-.41-.445-1.05-6.87-16.3-1.051.635-8.439,5.1,4.329,10.564.6,1.46H348.3Z" transform="translate(-89.781 -264.015)" fill="#ffb8b8"/>
            <path id="Path_7919" data-name="Path 7919" d="M337.367,456.463A10.09,10.09,0,0,0,324.73,450.5a9.364,9.364,0,0,0-.927.365,9.965,9.965,0,0,0-4.248,3.6,9.594,9.594,0,0,0-1.045,2.021,10.033,10.033,0,0,0,.226,7.717l2.11,4.7,7.548,16.79.657,1.46h15.279l1.051-.409,2.731-1.051.379-.145Z" transform="translate(-85.813 -256.833)" fill="#2f2e41"/>
            <path id="Path_7920" data-name="Path 7920" d="M314.195,388.746a2.965,2.965,0,0,0,3.374-1.28,4.27,4.27,0,0,0,.247-3.755,7.837,7.837,0,0,0-2.332-3.076,9.061,9.061,0,0,0-4.1-2.124,5.451,5.451,0,0,0-4.419.972,3.923,3.923,0,0,0-1.332,4.177,5.787,5.787,0,0,0,2.977,2.92,19.785,19.785,0,0,0,8.059,2.291Z" transform="translate(-82.472 -237.506)" fill="#2f2e41"/>
            <path id="Path_7921" data-name="Path 7921" d="M309.924,412.458c-2.882.4-2.512-1.07-3.667-3.741s-2.7-5.842-5.6-6.112c-2.375-.222-4.331,1.676-6.254,3.085-3.429,2.513-8.049,3.742-12.023,2.235s-6.736-6.244-5.228-10.217a8.718,8.718,0,0,1,5.042-4.766,17.544,17.544,0,0,1,7.024-.976,36.234,36.234,0,0,1,15.231,3.9c3.265,1.659,6.443,4.032,7.681,7.478s2.054,8.289-1.488,9.222Z" transform="translate(-74.714 -241.162)" fill="#2f2e41"/>
            <path id="Path_7922" data-name="Path 7922" d="M314.88,376.24c-1.425-2.48-.249-5.883,2.083-7.54a10.215,10.215,0,0,1,8.24-1.155,16.182,16.182,0,0,1,11.607,11.25c1.18,4.337.478,9,1.478,13.378a17.556,17.556,0,0,0,21.021,13.212q.526-.12,1.042-.271c3-.88,6.038-3.018,6.333-6.125a17.17,17.17,0,0,1-10.168,17.191c-3.858,1.61-8.162,1.715-12.341,1.607a22.075,22.075,0,0,1-8.021-1.288,14.351,14.351,0,0,1-7.543-8.178,22.728,22.728,0,0,1-1-11.268c.411-2.941,1.229-5.823,1.458-8.784s-.205-6.121-2.031-8.464-5.311-3.538-7.906-2.1c-1.042.58-1.884,1.527-3.016,1.9s-2.739-.283-2.637-1.472Z" transform="translate(-84.631 -234.48)" fill="#2f2e41"/>
            <path id="Path_7923" data-name="Path 7923" d="M483.006,482.568l.139-1.46,4.117-42.837a26.189,26.189,0,0,1,4.33-2.752c8.475-4.271,16.651-2.227,21.075-.461a23.212,23.212,0,0,1,3.388,1.657l2.408,44.392.081,1.46Z" transform="translate(-130.403 -252.247)" fill="#335ca5"/>
            <path id="Path_7924" data-name="Path 7924" d="M502.788,375.485a17.93,17.93,0,1,1-17.931,17.93,17.93,17.93,0,0,1,17.931-17.93" transform="translate(-130.902 -236.722)" fill="#ffb8b8"/>
            <path id="Path_7925" data-name="Path 7925" d="M515.5,400.371a9.76,9.76,0,0,0-7.406-16.472c-2.479.083-4.815,1.1-7.182,1.842a23.748,23.748,0,0,1-11.158,1.005,14.9,14.9,0,0,1-9.5-5.611,10.919,10.919,0,0,1-1.343-10.708c1.809-3.958,6.036-6.14,10.011-7.913a18.28,18.28,0,0,1,5.083-1.67,6.517,6.517,0,0,1,5.057,1.275c1.117.961,1.772,2.4,2.987,3.238,1.369.937,3.146.912,4.8,1.078a18.4,18.4,0,0,1,8.911,33.245Z" transform="translate(-129.067 -232.746)" fill="#2f2e41"/>
            <path id="Path_7926" data-name="Path 7926" d="M484.908,443.325l-2.671-7.416-.167-.463a1.537,1.537,0,0,0-1.966-.924,1.5,1.5,0,0,0-.331.168l-3.033,2.021s-19.456,0-21.017,11.674c-.023.182-.052.387-.073.606a.135.135,0,0,1-.008.029c-.2.767-3.869,14.957-7.023,32.478-.087.482-.175.971-.262,1.46h42.275c1.375-17.6.606-33.963-5.724-39.633" transform="translate(-121.048 -252.637)" fill="#2f2e41"/>
            <path id="Path_7927" data-name="Path 7927" d="M552.281,481.5c-2.306-17.972-5.607-32.507-5.607-32.507-.029-.219-.058-.423-.08-.606-1.555-11.674-21.009-11.674-21.009-11.674l-3.032-2.021a1.537,1.537,0,0,0-2.3.758l-2.84,7.877c-6.329,5.669-7.1,22.033-5.723,39.633h40.772c-.058-.489-.124-.978-.182-1.46" transform="translate(-137.992 -252.637)" fill="#2f2e41"/>
            <path id="Path_7928" data-name="Path 7928" d="M92.427,442.561l-4.336,40.925-.153,1.46H76.206c.139-.475.277-.964.423-1.46,3.329-11.417,7.862-28.084,7.373-32.5-.767-6.891,4.6-9.191,4.6-9.191l.336.066Z" transform="translate(-20.574 -254.625)" fill="#335ca5"/>
            <path id="Path_7929" data-name="Path 7929" d="M117.712,376.418a17.93,17.93,0,1,1-17.93,17.931,17.93,17.93,0,0,1,17.93-17.931" transform="translate(-26.939 -236.974)" fill="#a0616a"/>
            <path id="Path_7930" data-name="Path 7930" d="M137.461,474.035a29.43,29.43,0,0,0-2.212,5.227c-.212.642-.416,1.314-.606,2-.139.475-.263.964-.387,1.46H86.966c.066-.481.124-.971.19-1.46,2.416-19.089,4.373-38.464,4.687-41.625.029-.3.044-.453.044-.453,28.339-14.936,49.021,4.6,49.021,4.6s.029.139.073.409c.453,2.73,2.759,18.674-3.519,29.843" transform="translate(-23.479 -252.401)" fill="#335ca5"/>
            <path id="Path_7931" data-name="Path 7931" d="M151.94,483.175l-3.154-6.761.767-26.806,8.118-1.5.285-.051a21.491,21.491,0,0,1,9.213,10.745c1.577,3.943,4.577,15.8,7.11,26.376.117.489.234.979.35,1.46H153.553l-2.4-1.37Z" transform="translate(-40.169 -256.315)" fill="#335ca5"/>
            <path id="Path_7932" data-name="Path 7932" d="M151.171,335.9H47.494a8.4,8.4,0,0,0-8.388,8.388V447.97a8.4,8.4,0,0,0,8.388,8.387H151.171a8.393,8.393,0,0,0,8.388-8.387V344.292a8.393,8.393,0,0,0-8.388-8.388M158.1,447.97a6.933,6.933,0,0,1-6.928,6.927H47.494a6.939,6.939,0,0,1-6.928-6.927V344.292a6.939,6.939,0,0,1,6.928-6.928H151.171a6.934,6.934,0,0,1,6.928,6.928ZM78.074,454.9l-.153,1.46h43.414c.124-.5.248-.986.387-1.46Z" transform="translate(-10.558 -226.036)" fill="#3f3d56"/>
            <path id="Path_7933" data-name="Path 7933" d="M341.782,335.9H238.1a8.4,8.4,0,0,0-8.388,8.388V447.97a8.4,8.4,0,0,0,8.388,8.387H341.782a8.393,8.393,0,0,0,8.387-8.387V344.292a8.394,8.394,0,0,0-8.387-8.388m6.927,112.066a6.932,6.932,0,0,1-6.927,6.927H238.1a6.938,6.938,0,0,1-6.928-6.927V344.292a6.938,6.938,0,0,1,6.928-6.928H341.782a6.933,6.933,0,0,1,6.927,6.928ZM257.252,454.9q.131.472.285.942l-.183.518h36.253c.036-.489.066-.978.1-1.46Z" transform="translate(-62.019 -226.036)" fill="#3f3d56"/>
            <path id="Path_7934" data-name="Path 7934" d="M532.4,335.9H428.724a8.393,8.393,0,0,0-8.388,8.388V447.97a8.393,8.393,0,0,0,8.388,8.387H532.4a8.4,8.4,0,0,0,8.387-8.387V344.292A8.4,8.4,0,0,0,532.4,335.9m6.927,112.066A6.938,6.938,0,0,1,532.4,454.9H428.724a6.934,6.934,0,0,1-6.928-6.927V344.292a6.935,6.935,0,0,1,6.928-6.928H532.4a6.939,6.939,0,0,1,6.927,6.928ZM483.176,454.9c-.036.482-.073.971-.109,1.46h31.456c.059-.481.124-.971.182-1.46Z" transform="translate(-113.483 -226.036)" fill="#3f3d56"/>
            <path id="Path_7935" data-name="Path 7935" d="M385.967,554.584H145.061a5.84,5.84,0,0,1,0-11.68H385.967a5.84,5.84,0,0,1,0,11.68" transform="translate(-37.587 -281.922)" fill="#ccc"/>
            <path id="Path_7936" data-name="Path 7936" d="M343.414,289.584H237.561a5.84,5.84,0,0,1,0-11.68H343.414a5.84,5.84,0,1,1,0,11.68" transform="translate(-62.56 -210.377)" fill="#335ca5"/>
            <path id="Path_7937" data-name="Path 7937" d="M124.222,407.334a3.543,3.543,0,0,0,4.633.3,31.5,31.5,0,0,0,10.131-11.787c2.515-5.45,2.8-12.137-.237-17.317-2.564-4.378-7.091-7.2-11.6-9.524a20.661,20.661,0,0,0-5.6-2.159,7.992,7.992,0,0,0-5.805.936,5.014,5.014,0,0,0-2.264,5.177,18.867,18.867,0,0,0-8.053-5.406,10.405,10.405,0,0,0-6.151-.445c-2.864.812-4.954,3.356-6.1,6.1a12.209,12.209,0,0,0-.922,6.661,8.138,8.138,0,0,0,3.556,5.574c2.367,1.464,5.388,1.359,8.107.761s5.351-1.639,8.122-1.9,5.858.428,7.545,2.643c1.188,1.56,1.493,3.6,1.759,5.54l1.387,10.1a12.325,12.325,0,0,0,1.1,4.222,2.433,2.433,0,0,0,.393.524" transform="translate(-24.873 -234.339)" fill="#2f2e41"/>
          </g>
        </g>
      </g>
    </g>
  </g>
</svg>
