<svg xmlns="http://www.w3.org/2000/svg" width="185.945" height="185.945" viewBox="0 0 185.945 185.945"><defs><style>.a,.b,.c{fill:#cddeef;}.a{opacity:0.3;}.a,.b,.e,.g,.j{isolation:isolate;}.b{opacity:0.6;}.d{fill:#acc6f4;}.e{fill:#2f5eaf;opacity:0.514;}.f{fill:#a5d0ec;}.g{fill:#f4f8ff;}.h,.k{fill:none;stroke-linecap:round;stroke-linejoin:round;}.h{stroke:#2e4369;stroke-width:2px;}.i{fill:#4280eb;}.j{fill:#000064;opacity:0.15;}.k{stroke:#fff;stroke-width:3px;}</style></defs><g transform="translate(-112.003 -408.472)"><g transform="translate(112.003 408.472)"><ellipse class="a" cx="92.973" cy="92.972" rx="92.973" ry="92.972"/><ellipse class="b" cx="79.851" cy="79.851" rx="79.851" ry="79.851" transform="translate(13.122 13.122)"/><ellipse class="c" cx="66.729" cy="66.729" rx="66.729" ry="66.729" transform="translate(26.243 26.243)"/></g><g transform="translate(-93.347 -151.133)"><g transform="translate(246 608)"><path class="d" d="M-58,34.8c-11.2-1.494-11.053-5.528-11.053-7.619V23.742c4.033-3.585,5.974-9.559,5.974-16.281V-3c0-11.5-7.618-15.833-14.937-15.833S-92.953-14.5-92.953-3V7.46c0,6.722,1.943,12.846,5.975,16.431v3.585c0,2.241.15,5.826-11.053,7.32s-12.846,12.1-12.846,12.1v5.975h65.723V46.894S-45.154,36.588-58,34.8Z" transform="translate(134.776 18.831)"/><path class="e" d="M-92.057,34.8C-80.854,33.153-81,29.717-81,27.476V23.891c-4.034-3.585-5.975-9.709-5.975-16.431V-3c0-9.858,5.676-14.488,11.95-15.535l-2.988-.3C-85.334-18.828-92.953-14.5-92.953-3V7.46c0,6.722,1.494,12.846,5.975,16.431v3.585c0,2.241.15,5.826-11.053,7.32s-12.846,12.1-12.846,12.1v5.975h5.974V46.894S-104.9,36.737-92.057,34.8Z" transform="translate(134.776 18.831)"/><path class="f" d="M-128.923,34.945V40.92h25.841c1.793-2.988,4.929-5.229,10.9-6.124,11.2-1.494,11.053-5.378,11.053-7.619V25.983a60.944,60.944,0,0,1-8.962-2.091c-4.631-1.644-4.482-3.883-4.482-5.377V15.527C-88.593,11.046-88.593-.9-88.593-6.878a11.205,11.205,0,0,0-4.781-8.963,13.287,13.287,0,0,0-8.663-2.986c-5.975,0-13.443,3.585-13.443,12.845V2.681a18.223,18.223,0,0,0,5.974,12.846v2.838c0,1.792.3,4.929-8.812,6.721C-128.923,27.029-128.923,34.945-128.923,34.945Z" transform="translate(128.923 18.83)"/><path class="g" d="M-128.923,34.945V40.92h25.841c1.793-2.988,4.929-5.229,10.9-6.124,11.2-1.494,11.053-5.378,11.053-7.619V25.983a60.944,60.944,0,0,1-8.962-2.091c-4.631-1.644-4.482-3.883-4.482-5.377V15.527C-88.593,11.046-88.593-.9-88.593-6.878a11.205,11.205,0,0,0-4.781-8.963,13.287,13.287,0,0,0-8.663-2.986c-5.975,0-13.443,3.585-13.443,12.845V2.681a18.223,18.223,0,0,0,5.974,12.846v2.838c0,1.792.3,4.929-8.812,6.721C-128.923,27.029-128.923,34.945-128.923,34.945Z" transform="translate(128.923 18.83)"/><path class="h" d="M-94.568,15.527v2.988c0,1.344-.15,3.733,4.482,5.377a54.849,54.849,0,0,0,8.962,2.091M-113.986,40.92h-14.937V34.945a13.439,13.439,0,0,1,10.605-9.858c8.962-1.792,8.812-4.929,8.812-6.721V15.527A17.028,17.028,0,0,1-115.48,2.681V-5.983c0-9.26,7.468-12.845,13.443-12.845a13.287,13.287,0,0,1,8.663,2.986" transform="translate(128.923 18.83)"/><path class="h" d="M-58,34.8c-11.2-1.494-11.053-5.528-11.053-7.619V23.742c4.033-3.585,5.974-9.559,5.974-16.281V-3c0-11.5-7.618-15.833-14.937-15.833S-92.953-14.5-92.953-3V7.46c0,6.722,1.943,12.846,5.975,16.431v3.585c0,2.241.15,5.826-11.053,7.32s-12.846,12.1-12.846,12.1v5.975h65.723V46.894S-45.154,36.588-58,34.8Z" transform="translate(134.776 18.831)"/><circle class="i" cx="18.541" cy="18.541" r="18.541" transform="translate(67.563 47.051)"/><path class="j" d="M-55.425,48.931A18.541,18.541,0,0,1-74,30.423,18.532,18.532,0,0,1-70.39,19.4,18.542,18.542,0,0,0-74.1,45.355a18.542,18.542,0,0,0,25.957,3.708,18.528,18.528,0,0,0,3.708-3.708A18.411,18.411,0,0,1-55.425,48.931Z" transform="translate(145.502 31.229)"/><circle class="k" cx="18.541" cy="18.541" r="18.541" transform="translate(67.563 47.051)"/><path class="k" d="M-69.907,32.644h15.892m-7.946,7.946V24.7" transform="translate(148.064 32.948)"/></g></g></g></svg>