<svg xmlns="http://www.w3.org/2000/svg" width="20" height="20" viewBox="0 0 20 20"><defs><style>.a{fill:#fff;stroke:#000;stroke-width:0.75px;}.b{stroke:none;}.c{fill:none;}</style></defs><g class="a"><circle class="b" cx="10" cy="10" r="10"/><circle class="c" cx="10" cy="10" r="9.625"/></g><g transform="translate(3.993 6.663)"><path d="M473.87,689.9c-2.949,0-4.17.406-4.17.71v5.376c0,.3,1.22.71,4.17.71s4.17-.406,4.17-.71V690.61C478.039,690.357,476.819,689.9,473.87,689.9Z" transform="translate(-469.7 -689.9)"/><path d="M490.407,690.023l-3.2,2.029a.626.626,0,0,0-.2.406v1.775a.461.461,0,0,0,.2.406l3.2,2.029c.1.051.508.254.508-.406v-5.883C490.915,689.82,490.559,689.921,490.407,690.023Z" transform="translate(-478.236 -689.921)"/></g></svg>