<svg xmlns="http://www.w3.org/2000/svg" width="22" height="22" viewBox="0 0 22 22"><defs><style>.a{fill:#20c207;stroke-miterlimit:10;}.b{fill:#0b572a;}.c,.d{stroke:none;}.d{fill:#fff;}</style></defs><g transform="translate(-235 -218.37)"><g class="a" transform="translate(-13 -93.716)"><path class="c" d="M 259 333.0859985351562 C 253.4859771728516 333.0859985351562 249 328.6000061035156 249 323.0859985351562 C 249 317.5719909667969 253.4859771728516 313.0859985351562 259 313.0859985351562 C 264.5140075683594 313.0859985351562 269 317.5719909667969 269 323.0859985351562 C 269 328.6000061035156 264.5140075683594 333.0859985351562 259 333.0859985351562 Z"/><path class="d" d="M 259 314.0859985351562 C 254.0289916992188 314.0859985351562 250 318.114990234375 250 323.0859985351562 C 250 328.0570068359375 254.0289916992188 332.0859985351562 259 332.0859985351562 C 263.9710083007812 332.0859985351562 268 328.0570068359375 268 323.0859985351562 C 268 318.114990234375 263.9710083007812 314.0859985351562 259 314.0859985351562 M 259 312.0859985351562 C 261.9384155273438 312.0859985351562 264.7008056640625 313.2301330566406 266.7783203125 315.3076477050781 C 268.8558654785156 317.3851928710938 270 320.1475830078125 270 323.0859985351562 C 270 326.0244140625 268.8558654785156 328.7868041992188 266.7783203125 330.8643493652344 C 264.7008056640625 332.9418640136719 261.9384155273438 334.0859985351562 259 334.0859985351562 C 256.0615844726562 334.0859985351562 253.2991943359375 332.9418640136719 251.2216491699219 330.8643493652344 C 249.1441345214844 328.7868041992188 248 326.0244140625 248 323.0859985351562 C 248 320.1475830078125 249.1441345214844 317.3851928710938 251.2216491699219 315.3076477050781 C 253.2991943359375 313.2301330566406 256.0615844726562 312.0859985351562 259 312.0859985351562 Z"/></g><path class="b" d="M259.385,326.917l-1.46,1.46-.125.125a.6.6,0,0,1-.851,0l-4.076-4.077a.6.6,0,0,1,0-.85l1.585-1.585a.6.6,0,0,1,.851,0l2.066,2.066,5.265-5.265a.777.777,0,0,1,1.1,0l1.335,1.335a.779.779,0,0,1,0,1.1Z" transform="translate(-13 -93.716)"/></g></svg>