<svg xmlns="http://www.w3.org/2000/svg" width="22" height="22" viewBox="0 0 22 22"><defs><style>.a{fill:#af6161;stroke:#fff;stroke-width:2px;}.b{fill:#fff;}.c{stroke:none;}.d{fill:none;}</style></defs><g transform="translate(-1309 -414.185)"><g class="a" transform="translate(1311 416.185)"><circle class="c" cx="9" cy="9" r="9"/><circle class="d" cx="9" cy="9" r="10"/></g><g transform="translate(1 1)"><path class="b" d="M2642.906,429.153l-6.234-6.234a.881.881,0,0,1,0-1.247h0a.881.881,0,0,1,1.247,0l6.234,6.234a.881.881,0,0,1,0,1.247h0A.882.882,0,0,1,2642.906,429.153Z" transform="translate(-1321.414 -1.229)"/><path class="b" d="M6.493,7.739.259,1.505a.881.881,0,0,1,0-1.247h0a.881.881,0,0,1,1.247,0L7.739,6.493a.881.881,0,0,1,0,1.247h0A.882.882,0,0,1,6.493,7.739Z" transform="translate(1322.997 420.185) rotate(90)"/></g></g></svg>