<svg xmlns="http://www.w3.org/2000/svg" width="50" height="50" viewBox="0 0 50 50"><defs><style>.a{fill:#424143;}.b{fill:#fff;}</style></defs><g transform="translate(-986.7 -314)"><g transform="translate(986.7 314)"><circle class="a" cx="25" cy="25" r="25"/></g><g transform="translate(989.148 316.448)"><path class="b" d="M1011.251,316.986a21.689,21.689,0,1,1-21.689,21.689,21.721,21.721,0,0,1,21.689-21.689m0-.986a22.551,22.551,0,1,0,22.552,22.551A22.562,22.562,0,0,0,1011.251,316Z" transform="translate(-988.7 -316)"/></g><g transform="translate(998.722 331.651)"><path class="b" d="M1004.847,328.3c-6,0-8.447.857-8.447,1.469v11.018c0,.612,2.448,1.469,8.447,1.469s8.447-.857,8.447-1.469V329.769C1013.294,329.157,1010.846,328.3,1004.847,328.3Z" transform="translate(-996.4 -328.3)"/><path class="b" d="M1017.956,328.535l-6.488,4.162a1.058,1.058,0,0,0-.367.735V337.1a.74.74,0,0,0,.367.735l6.488,4.162c.122.122.979.612.979-.735V329.392C1018.935,328.045,1018.2,328.29,1017.956,328.535Z" transform="translate(-993.104 -328.29)"/></g></g></svg>