<svg xmlns="http://www.w3.org/2000/svg" width="20.001" height="20.001" viewBox="0 0 20.001 20.001"><defs><style>.a{fill:#c6c8c9;}</style></defs><g transform="translate(-4758.759 -992.561)"><path class="a" d="M4768.759,1037.344c-4.816,0-10-1.107-10-3.537,0-1.945,3.268-2.807,5.215-3.148l.266,1.515c-3.008.526-3.942,1.381-3.942,1.633,0,.581,2.966,2,8.462,2s8.463-1.419,8.463-2c0-.253-.939-1.112-3.965-1.639l.263-1.514c1.957.34,5.239,1.2,5.239,3.153C4778.76,1036.237,4773.576,1037.344,4768.759,1037.344Z" transform="translate(0 -24.782)"/><path class="a" d="M4778.792,992.561a4.614,4.614,0,0,0-4.613,4.617c0,2.548,4.022,8.879,4.022,12.309h1.183c0-3.417,4.022-9.968,4.022-12.309a4.615,4.615,0,0,0-4.614-4.617m0,6.924a2.308,2.308,0,1,1,2.309-2.308,2.309,2.309,0,0,1-2.309,2.308" transform="translate(-10.032 0)"/></g></svg>