<svg xmlns="http://www.w3.org/2000/svg" width="16" height="16" viewBox="0 0 16 16"><defs><style>.a{fill:#4e4e4e;stroke:#fff;}.b{fill:#fff;}.c{stroke:none;}.d{fill:none;}</style></defs><g transform="translate(-53 -286)"><g class="a" transform="translate(54 287)"><circle class="c" cx="7" cy="7" r="7"/><circle class="d" cx="7" cy="7" r="7.5"/></g><g transform="translate(-0.024 -0.045)"><path class="b" d="M1.6.312a.25.25,0,0,1,.416,0L3.36,2.326a.25.25,0,0,1-.208.389H.467a.25.25,0,0,1-.208-.389Z" transform="translate(59.175 288.521)"/><path class="b" d="M1.6.312a.25.25,0,0,1,.416,0L3.36,2.326a.25.25,0,0,1-.208.389H.467a.25.25,0,0,1-.208-.389Z" transform="translate(62.795 299.524) rotate(180)"/><path class="b" d="M1.6.312a.25.25,0,0,1,.416,0L3.36,2.326a.25.25,0,0,1-.208.389H.467a.25.25,0,0,1-.208-.389Z" transform="translate(66.504 292.174) rotate(90)"/><path class="b" d="M1.6.312a.25.25,0,0,1,.416,0L3.36,2.326a.25.25,0,0,1-.208.389H.467a.25.25,0,0,1-.208-.389Z" transform="translate(55.5 295.793) rotate(-90)"/></g></g></svg>