<svg xmlns="http://www.w3.org/2000/svg" width="21" height="21" viewBox="0 0 21 21"><defs><style>.a{fill:#62b4ff;stroke-miterlimit:10;}.b,.d{fill:#fff;}.c,.d{stroke:none;}</style></defs><g transform="translate(1.5 1.5)"><g class="a" transform="translate(-250 -314.086)"><path class="c" d="M 258.9997253417969 332.8360290527344 C 253.6237182617188 332.8360290527344 249.2500152587891 328.4621887207031 249.2500152587891 323.0860290527344 C 249.2500152587891 317.7098693847656 253.6237182617188 313.3360290527344 258.9997253417969 313.3360290527344 C 264.3757629394531 313.3360290527344 268.74951171875 317.7098693847656 268.74951171875 323.0860290527344 C 268.74951171875 328.4621887207031 264.3757629394531 332.8360290527344 258.9997253417969 332.8360290527344 Z"/><path class="d" d="M 258.9997253417969 314.0860290527344 C 254.0289306640625 314.0860290527344 250 318.1150512695312 250 323.0860290527344 C 250 328.0570373535156 254.0289306640625 332.0860290527344 258.9997253417969 332.0860290527344 C 263.9706115722656 332.0860290527344 267.99951171875 328.0570373535156 267.99951171875 323.0860290527344 C 267.99951171875 318.1150512695312 263.9706115722656 314.0860290527344 258.9997253417969 314.0860290527344 M 258.9997253417969 312.5860290527344 C 261.8045349121094 312.5860290527344 264.4413452148438 313.6781616210938 266.4243774414062 315.6612548828125 C 268.4074096679688 317.6443481445312 269.49951171875 320.2811889648438 269.49951171875 323.0860290527344 C 269.49951171875 325.8908996582031 268.4074096679688 328.5277404785156 266.4243774414062 330.5108032226562 C 264.4413452148438 332.493896484375 261.8045349121094 333.5860290527344 258.9997253417969 333.5860290527344 C 256.1949462890625 333.5860290527344 253.5581665039062 332.493896484375 251.5751342773438 330.5108032226562 C 249.5921020507812 328.5277099609375 248.5 325.890869140625 248.5 323.0860290527344 C 248.5 320.2811889648438 249.5921020507812 317.6443481445312 251.5751342773438 315.6612548828125 C 253.5581665039062 313.6781616210938 256.1949462890625 312.5860290527344 258.9997253417969 312.5860290527344 Z"/></g><path class="b" d="M259.411,326.978l-1.466,1.471-.126.126a.6.6,0,0,1-.854,0l-4.092-4.107a.606.606,0,0,1,0-.856l1.591-1.6a.6.6,0,0,1,.854,0l2.074,2.081,5.286-5.3a.779.779,0,0,1,1.1,0l1.34,1.345a.786.786,0,0,1,0,1.109Z" transform="translate(-250.025 -314.128)"/></g></svg>