<svg xmlns="http://www.w3.org/2000/svg" width="21" height="21" viewBox="0 0 21 21"><defs><style>.a{fill:#af6161;stroke-miterlimit:10;}.b,.d{fill:#fff;}.c,.d{stroke:none;}</style></defs><g transform="translate(1.5 1.5)"><g class="a" transform="translate(-250 -314.086)"><path class="c" d="M 259 332.8359985351562 C 253.6238250732422 332.8359985351562 249.25 328.462158203125 249.25 323.0859985351562 C 249.25 317.7098388671875 253.6238250732422 313.3359985351562 259 313.3359985351562 C 264.3761596679688 313.3359985351562 268.75 317.7098388671875 268.75 323.0859985351562 C 268.75 328.462158203125 264.3761596679688 332.8359985351562 259 332.8359985351562 Z"/><path class="d" d="M 259 314.0859985351562 C 254.0289916992188 314.0859985351562 250 318.114990234375 250 323.0859985351562 C 250 328.0570068359375 254.0289916992188 332.0859985351562 259 332.0859985351562 C 263.9710083007812 332.0859985351562 268 328.0570068359375 268 323.0859985351562 C 268 318.114990234375 263.9710083007812 314.0859985351562 259 314.0859985351562 M 259 312.5859985351562 C 261.8048706054688 312.5859985351562 264.4417114257812 313.6781311035156 266.4248046875 315.6611938476562 C 268.4078674316406 317.644287109375 269.5 320.2811279296875 269.5 323.0859985351562 C 269.5 325.890869140625 268.4078674316406 328.5277099609375 266.4248046875 330.5108032226562 C 264.4417114257812 332.4938659667969 261.8048706054688 333.5859985351562 259 333.5859985351562 C 256.1951293945312 333.5859985351562 253.5582885742188 332.4938659667969 251.5751953125 330.5108032226562 C 249.5921325683594 328.5277099609375 248.5 325.890869140625 248.5 323.0859985351562 C 248.5 320.2811279296875 249.5921325683594 317.644287109375 251.5751953125 315.6611938476562 C 253.5582885742188 313.6781311035156 256.1951293945312 312.5859985351562 259 312.5859985351562 Z"/></g><rect class="b" width="12" height="2" rx="1" transform="translate(4 12.485) rotate(-45)"/><rect class="b" width="12" height="2" rx="1" transform="translate(12.485 13.899) rotate(-135)"/></g></svg>