<svg xmlns="http://www.w3.org/2000/svg" width="75.073" height="58.616" viewBox="0 0 75.073 58.616"><defs><style>.a{fill:#fff;}</style></defs><path class="a" d="M921.961,509.051l-15.144,9.7a2.334,2.334,0,0,0-.927,1.861v8.46a2.325,2.325,0,0,0,.927,1.858l15.144,9.732c.409.308,2.436,1.308,2.436-1.861V510.912C924.4,507.986,922.662,508.522,921.961,509.051Z" transform="translate(-849.325 -495.652)"/><path class="a" d="M917.379,512.061c0-1.488-5.819-3.453-19.782-3.453a102.434,102.434,0,0,0-10.769.493l30.551,24.3Z" transform="translate(-863.159 -495.682)"/><path class="a" d="M944.941,556.653l-69.03-55.168a1.725,1.725,0,1,0-2.156,2.693l15.18,12.13c-.764.393-1.158.8-1.158,1.178v25.653c0,1.488,5.816,3.448,19.772,3.448,8.713,0,14.232-.752,17.163-1.686l18.074,14.445a1.725,1.725,0,1,0,2.156-2.693Z" transform="translate(-873.108 -501.108)"/></svg>