<svg xmlns="http://www.w3.org/2000/svg" width="50" height="50" viewBox="0 0 50 50"><defs><style>.a{fill:#fff;}</style></defs><g transform="translate(0 0)"><path class="a" d="M-5324-511a24.846,24.846,0,0,1-9.731-1.964,24.916,24.916,0,0,1-7.946-5.357,24.917,24.917,0,0,1-5.358-7.947A24.855,24.855,0,0,1-5349-536a24.855,24.855,0,0,1,1.964-9.732,24.918,24.918,0,0,1,5.358-7.946,24.916,24.916,0,0,1,7.946-5.357A24.848,24.848,0,0,1-5324-561a24.848,24.848,0,0,1,9.731,1.964,24.916,24.916,0,0,1,7.946,5.357,24.917,24.917,0,0,1,5.358,7.946A24.855,24.855,0,0,1-5299-536a24.855,24.855,0,0,1-1.964,9.732,24.917,24.917,0,0,1-5.358,7.947,24.916,24.916,0,0,1-7.946,5.357A24.846,24.846,0,0,1-5324-511Zm-.138-21.193h0l7.892,7.891a2.771,2.771,0,0,0,1.973.818,2.771,2.771,0,0,0,1.974-.818,2.794,2.794,0,0,0,0-3.947l-7.892-7.892,7.892-7.891a2.775,2.775,0,0,0,.817-1.974,2.771,2.771,0,0,0-.817-1.973,2.773,2.773,0,0,0-1.974-.818,2.771,2.771,0,0,0-1.973.818l-7.892,7.891-7.892-7.892A2.771,2.771,0,0,0-5334-548.8a2.771,2.771,0,0,0-1.974.818,2.794,2.794,0,0,0,0,3.947l7.892,7.892-7.892,7.893a2.772,2.772,0,0,0-.816,1.973,2.772,2.772,0,0,0,.816,1.973,2.768,2.768,0,0,0,1.972.818,2.771,2.771,0,0,0,1.973-.818l7.893-7.891Z" transform="translate(5349 561)"/></g></svg>