<svg xmlns="http://www.w3.org/2000/svg" width="15.534" height="18" viewBox="0 0 15.534 18"><defs><style>.a{fill:#adaeb0;}</style></defs><path class="a" d="M599.119,405.974a9.6,9.6,0,0,0-.8-1.11,5.312,5.312,0,0,1-1.459-3.83c0-3.929-1.21-6.332-3.6-7.148a1.757,1.757,0,0,0-3.478,0c-2.387.817-3.6,3.22-3.6,7.148a5.438,5.438,0,0,1-1.47,3.833,10.312,10.312,0,0,0-.789,1.106,1.229,1.229,0,0,0,1.062,1.853h3.477a3.105,3.105,0,0,0,6.112,0h3.477a1.228,1.228,0,0,0,1.061-1.853Zm-4.538.224H593.22l-.242,1.34a1.476,1.476,0,0,1-2.9,0l-.242-1.34h-4.082c.083-.108.167-.216.254-.327a7.043,7.043,0,0,0,1.816-4.837,9.559,9.559,0,0,1,.585-3.665c.022-.059.046-.116.07-.173.017-.037.031-.086.049-.123h.013a3.239,3.239,0,0,1,5.83-.289l.009,0a8.383,8.383,0,0,1,.858,4.253,6.926,6.926,0,0,0,1.821,4.856q.125.156.243.308Z" transform="translate(-583.758 -392.381)"/></svg>