<svg xmlns="http://www.w3.org/2000/svg" width="22.325" height="18" viewBox="0 0 22.325 18"><defs><style>.a{fill:#adaeb0;}</style></defs><g transform="translate(-957.652 -388.863)"><g transform="translate(969.426 396.368)"><path class="a" d="M926.6,375.711a5.248,5.248,0,1,0,5.275,5.247A5.268,5.268,0,0,0,926.6,375.711Zm2.934,7.253a.667.667,0,0,1-.945.941l-1.989-1.979-1.989,1.979a.671.671,0,0,1-.946,0,.662.662,0,0,1,0-.941l1.988-1.979-1.988-1.978a.662.662,0,0,1,0-.941.671.671,0,0,1,.946,0l1.989,1.978,1.989-1.978a.67.67,0,0,1,.945,0,.661.661,0,0,1,0,.941l-1.988,1.978Z" transform="translate(-921.329 -375.711)"/></g><path class="a" d="M919.854,381.821h-.916l-.231,1.294a1.412,1.412,0,0,1-2.782,0l-.231-1.294h-3.908c.079-.1.16-.209.243-.317a6.835,6.835,0,0,0,1.739-4.673,9.3,9.3,0,0,1,.56-3.542c.021-.057.043-.112.066-.168.017-.037.03-.083.047-.118h.012a3.192,3.192,0,0,1,2.862-1.914,3.159,3.159,0,0,1,2.72,1.636l.009-.005a8.159,8.159,0,0,1,.821,4.111c0,.224.015.426.031.631a6.871,6.871,0,0,1,1.487-1.667c-.2-3.178-1.335-5.158-3.4-5.871a1.68,1.68,0,0,0-3.33,0c-2.285.789-3.443,3.111-3.443,6.908a5.281,5.281,0,0,1-1.408,3.7,10.016,10.016,0,0,0-.755,1.069,1.187,1.187,0,0,0-.009,1.192,1.166,1.166,0,0,0,1.025.6h3.329a2.966,2.966,0,0,0,5.835.063A6.858,6.858,0,0,1,919.854,381.821Z" transform="translate(47.772 20.395)"/></g></svg>