<svg xmlns="http://www.w3.org/2000/svg" width="19.719" height="23.007" viewBox="0 0 19.719 23.007"><defs><style>.a{fill:#345ea1;}</style></defs><path class="a" d="M577.53,421.555a12.231,12.231,0,0,0-1.018-1.418,6.812,6.812,0,0,1-1.853-4.9c0-5.021-1.537-8.1-4.573-9.138a2.23,2.23,0,0,0-4.417,0c-3.033,1.044-4.573,4.115-4.573,9.138a6.98,6.98,0,0,1-1.868,4.9,13.344,13.344,0,0,0-1,1.415,1.577,1.577,0,0,0,.554,2.152,1.548,1.548,0,0,0,.791.217h4.416a3.94,3.94,0,0,0,7.763,0h4.417a1.572,1.572,0,0,0,1.344-2.369Zm-5.764.287h-1.73l-.31,1.714a1.872,1.872,0,0,1-3.688,0l-.31-1.714h-5.185c.1-.135.213-.271.323-.418a9.036,9.036,0,0,0,2.307-6.183,12.267,12.267,0,0,1,.742-4.686c.028-.076.058-.149.088-.221.022-.047.039-.11.062-.157h.016a4.1,4.1,0,0,1,7.406-.369h.011a10.769,10.769,0,0,1,1.09,5.437,8.882,8.882,0,0,0,2.313,6.207c.106.135.21.265.309.394Z" transform="translate(-558.012 -404.178)"/></svg>