<svg xmlns="http://www.w3.org/2000/svg" xmlns:xlink="http://www.w3.org/1999/xlink" width="25.94" height="28" viewBox="0 0 25.94 28"><defs><style>.a{fill:#e9d527;stroke-miterlimit:10;}.b,.c{stroke:none;}.c{fill:#fff;}.d{filter:url(#a);}</style><filter id="a" x="0" y="0" width="25.94" height="28" filterUnits="userSpaceOnUse"><feOffset dy="3" input="SourceAlpha"/><feGaussianBlur stdDeviation="1.5" result="b"/><feFlood flood-opacity="0.439"/><feComposite operator="in" in2="b"/><feComposite in="SourceGraphic"/></filter></defs><g transform="translate(-499.503 -471.5)"><g class="d" transform="matrix(1, 0, 0, 1, 499.5, 471.5)"><g class="a" transform="translate(-1480.51 -763.94)"><path class="b" d="M 1493.480224609375 783.4420166015625 C 1492.036254882812 783.4420166015625 1490.766845703125 782.58544921875 1490.2021484375 781.3151245117188 L 1488.035888671875 781.3151245117188 C 1487.298583984375 781.3151245117188 1486.640502929688 780.9326782226562 1486.275634765625 780.2921142578125 C 1485.911254882812 779.6565551757812 1485.916259765625 778.89697265625 1486.290161132812 778.2625732421875 C 1486.51513671875 777.8802490234375 1486.77490234375 777.5469360351562 1487.004028320312 777.2528076171875 L 1487.019287109375 777.2333374023438 C 1487.609375 776.4797973632812 1488.034545898438 775.936767578125 1488.034545898438 774.6539306640625 C 1488.034545898438 772.8671264648438 1488.323608398438 771.3865356445312 1488.893676757812 770.2532958984375 C 1489.429077148438 769.1887817382812 1490.206787109375 768.4160766601562 1491.209838867188 767.9501342773438 C 1491.588500976562 767.0588989257812 1492.477294921875 766.4420166015625 1493.480224609375 766.4420166015625 C 1494.483032226562 766.4420166015625 1495.371704101562 767.058837890625 1495.75048828125 767.9500122070312 C 1496.75390625 768.4158935546875 1497.531860351562 769.1885986328125 1498.067504882812 770.2532348632812 C 1498.6376953125 771.3864135742188 1498.9267578125 772.8670043945312 1498.9267578125 774.6539306640625 C 1498.9267578125 775.9721069335938 1499.345092773438 776.4964599609375 1499.924194335938 777.22216796875 L 1499.928466796875 777.2276000976562 C 1500.16650390625 777.5263671875 1500.436279296875 777.864990234375 1500.670654296875 778.2631225585938 C 1501.043701171875 778.8927001953125 1501.050048828125 779.6522216796875 1500.686279296875 780.2922973632812 C 1500.317138671875 780.934326171875 1499.659545898438 781.3151245117188 1498.924560546875 781.3151245117188 L 1496.75830078125 781.3151245117188 C 1496.193603515625 782.5853271484375 1494.924072265625 783.4420166015625 1493.480224609375 783.4420166015625 Z"/><path class="c" d="M 1493.480224609375 782.4420166015625 C 1494.749877929688 782.4420166015625 1495.808959960938 781.5225219726562 1496.026733398438 780.3151245117188 L 1498.924560546875 780.3151245117188 C 1499.2978515625 780.3151245117188 1499.631103515625 780.121337890625 1499.81689453125 779.7981567382812 C 1500.000610351562 779.4749145507812 1499.99853515625 779.0905151367188 1499.808837890625 778.7703247070312 C 1499.609130859375 778.4310302734375 1499.371215820312 778.1329345703125 1499.142456054688 777.8458251953125 C 1498.516967773438 777.0618896484375 1497.9267578125 776.3211669921875 1497.9267578125 774.6539306640625 C 1497.9267578125 771.3796997070312 1496.9189453125 769.377197265625 1494.9296875 768.6967163085938 C 1494.8271484375 767.988037109375 1494.215942382812 767.4420166015625 1493.480224609375 767.4420166015625 C 1492.744506835938 767.4420166015625 1492.133178710938 767.988037109375 1492.03076171875 768.6967163085938 C 1490.042358398438 769.377197265625 1489.034545898438 771.3796997070312 1489.034545898438 774.6539306640625 C 1489.034545898438 776.280029296875 1488.439331054688 777.0418090820312 1487.80810546875 777.847900390625 C 1487.582153320312 778.137939453125 1487.348388671875 778.4360961914062 1487.151611328125 778.7703247070312 C 1486.962890625 779.0905151367188 1486.959838867188 779.4749145507812 1487.14453125 779.797119140625 C 1487.329223632812 780.121337890625 1487.662475585938 780.3151245117188 1488.035888671875 780.3151245117188 L 1490.93359375 780.3151245117188 C 1491.151489257812 781.5225219726562 1492.21044921875 782.4420166015625 1493.480224609375 782.4420166015625 M 1493.480224609375 784.4420166015625 C 1491.868774414062 784.4420166015625 1490.42724609375 783.6075439453125 1489.6064453125 782.3151245117188 L 1488.035888671875 782.3151245117188 C 1486.952514648438 782.3151245117188 1485.946166992188 781.7310180664062 1485.40869140625 780.7905883789062 C 1484.870849609375 779.8513793945312 1484.87841796875 778.688232421875 1485.428588867188 777.7548217773438 C 1485.686401367188 777.31689453125 1485.967407226562 776.956298828125 1486.215209960938 776.63818359375 L 1486.230346679688 776.6187744140625 L 1486.23193359375 776.6168212890625 L 1486.2333984375 776.6148071289062 C 1486.783447265625 775.9124145507812 1487.034545898438 775.591796875 1487.034545898438 774.6539306640625 C 1487.034545898438 770.1924438476562 1488.737548828125 768.1393432617188 1490.465454101562 767.2050170898438 C 1491.067626953125 766.1475830078125 1492.208740234375 765.4420166015625 1493.480224609375 765.4420166015625 C 1494.75146484375 765.4420166015625 1495.892456054688 766.1474609375 1496.494750976562 767.2047729492188 C 1498.223266601562 768.138916015625 1499.9267578125 770.19189453125 1499.9267578125 774.6539306640625 C 1499.9267578125 775.6220703125 1500.1708984375 775.9280395507812 1500.705810546875 776.5984497070312 L 1500.710571289062 776.6044921875 C 1500.96875 776.9284057617188 1501.26123046875 777.2954711914062 1501.530883789062 777.753173828125 C 1502.080932617188 778.6834106445312 1502.090454101562 779.845458984375 1501.5556640625 780.7864379882812 L 1501.55322265625 780.7907104492188 L 1501.55078125 780.794921875 C 1501.01171875 781.7326049804688 1500.00537109375 782.3151245117188 1498.924560546875 782.3151245117188 L 1497.35400390625 782.3151245117188 C 1496.533203125 783.607421875 1495.091674804688 784.4420166015625 1493.480224609375 784.4420166015625 Z"/></g></g></g></svg>