<svg xmlns="http://www.w3.org/2000/svg" xmlns:xlink="http://www.w3.org/1999/xlink" width="25.94" height="28" viewBox="0 0 25.94 28"><defs><style>.a{fill:#2f7ff4;stroke-miterlimit:10;}.b,.c{stroke:none;}.c{fill:#fff;}.d{filter:url(#a);}</style><filter id="a" x="0" y="0" width="25.94" height="28" filterUnits="userSpaceOnUse"><feOffset dy="3" input="SourceAlpha"/><feGaussianBlur stdDeviation="1.5" result="b"/><feFlood flood-opacity="0.439"/><feComposite operator="in" in2="b"/><feComposite in="SourceGraphic"/></filter></defs><g transform="translate(-499.503 -423.5)"><g class="d" transform="matrix(1, 0, 0, 1, 499.5, 423.5)"><g class="a" transform="translate(-1478.19 -816.14)"><path class="b" d="M 1491.161499023438 835.6400146484375 C 1489.717163085938 835.6400146484375 1488.447875976562 834.7833862304688 1487.883666992188 833.512939453125 L 1485.717041015625 833.512939453125 C 1484.98046875 833.512939453125 1484.322509765625 833.1309204101562 1483.95703125 832.4910278320312 C 1483.591918945312 831.8519897460938 1483.59765625 831.0921630859375 1483.972534179688 830.458740234375 C 1484.204345703125 830.0650634765625 1484.469482421875 829.72705078125 1484.703247070312 829.4287719726562 C 1485.290893554688 828.67724609375 1485.716064453125 828.1334838867188 1485.716064453125 826.851318359375 C 1485.716064453125 825.0645141601562 1486.005126953125 823.5839233398438 1486.575317382812 822.4507446289062 C 1487.11083984375 821.3865356445312 1487.888427734375 820.614013671875 1488.891357421875 820.1481323242188 C 1489.269775390625 819.2569580078125 1490.158325195312 818.6400146484375 1491.161499023438 818.6400146484375 C 1492.1640625 818.6400146484375 1493.052856445312 819.2568359375 1493.432006835938 820.1478881835938 C 1494.435180664062 820.6137084960938 1495.213012695312 821.3863525390625 1495.748657226562 822.4508056640625 C 1496.318725585938 823.5839233398438 1496.607788085938 825.0645141601562 1496.607788085938 826.851318359375 C 1496.607788085938 828.1676025390625 1497.025756835938 828.6923217773438 1497.604248046875 829.41845703125 C 1497.845458984375 829.7213134765625 1498.116455078125 830.0614624023438 1498.3515625 830.4606323242188 C 1498.724853515625 831.0918579101562 1498.730834960938 831.8515014648438 1498.366455078125 832.4910888671875 C 1498.001953125 833.1309204101562 1497.343872070312 833.512939453125 1496.606079101562 833.512939453125 L 1494.43994140625 833.512939453125 C 1493.875 834.7832641601562 1492.605346679688 835.6400146484375 1491.161499023438 835.6400146484375 Z"/><path class="c" d="M 1491.161499023438 834.6400146484375 C 1492.431640625 834.6400146484375 1493.490356445312 833.7206420898438 1493.70849609375 832.512939453125 L 1496.606079101562 832.512939453125 C 1496.979858398438 832.512939453125 1497.313110351562 832.31982421875 1497.49755859375 831.9960327148438 C 1497.682006835938 831.6723022460938 1497.679077148438 831.2879638671875 1497.489868164062 830.9680786132812 C 1497.290161132812 830.6289672851562 1497.052734375 830.3311157226562 1496.823120117188 830.0429077148438 C 1496.198608398438 829.2589111328125 1495.607788085938 828.5181884765625 1495.607788085938 826.851318359375 C 1495.607788085938 823.5770874023438 1494.599975585938 821.5748901367188 1492.611328125 820.8947143554688 C 1492.508422851562 820.1857299804688 1491.8974609375 819.6400146484375 1491.161499023438 819.6400146484375 C 1490.425659179688 819.6400146484375 1489.814575195312 820.1857299804688 1489.712646484375 820.8947143554688 C 1487.723999023438 821.5748901367188 1486.716064453125 823.5770874023438 1486.716064453125 826.851318359375 C 1486.716064453125 828.4778442382812 1486.120483398438 829.23974609375 1485.490234375 830.0457763671875 C 1485.263549804688 830.3348999023438 1485.030029296875 830.6337280273438 1484.833129882812 830.9680786132812 C 1484.643798828125 831.2879638671875 1484.640991210938 831.6723022460938 1484.825439453125 831.9951171875 C 1485.010864257812 832.31982421875 1485.34423828125 832.512939453125 1485.717041015625 832.512939453125 L 1488.615600585938 832.512939453125 C 1488.832641601562 833.7206420898438 1489.892333984375 834.6400146484375 1491.161499023438 834.6400146484375 M 1491.161499023438 836.6400146484375 C 1489.549560546875 836.6400146484375 1488.108032226562 835.8053588867188 1487.287719726562 834.512939453125 L 1485.717041015625 834.512939453125 C 1484.63330078125 834.512939453125 1483.626220703125 833.92822265625 1483.088623046875 832.9869384765625 C 1482.551147460938 832.046142578125 1482.559936523438 830.882080078125 1483.111938476562 829.9494018554688 C 1483.37646484375 829.5003662109375 1483.67578125 829.1185302734375 1483.916381835938 828.811767578125 C 1484.464965820312 828.110107421875 1484.716064453125 827.7889404296875 1484.716064453125 826.851318359375 C 1484.716064453125 822.3900756835938 1486.418823242188 820.3372802734375 1488.146850585938 819.4031372070312 C 1488.748657226562 818.345458984375 1489.889526367188 817.6400146484375 1491.161499023438 817.6400146484375 C 1491.999267578125 817.6400146484375 1492.808349609375 817.9437866210938 1493.439697265625 818.495361328125 C 1493.738403320312 818.75634765625 1493.98779296875 819.064453125 1494.1796875 819.404541015625 C 1495.906860351562 820.33935546875 1497.607788085938 822.3922729492188 1497.607788085938 826.851318359375 C 1497.607788085938 827.8179931640625 1497.851806640625 828.1243286132812 1498.386352539062 828.79541015625 C 1498.648193359375 829.1240234375 1498.9423828125 829.4933471679688 1499.213256835938 829.953125 C 1499.762329101562 830.8815307617188 1499.771484375 832.0449829101562 1499.235229492188 832.9861450195312 C 1498.698852539062 833.9278564453125 1497.69140625 834.512939453125 1496.606079101562 834.512939453125 L 1495.035522460938 834.512939453125 C 1494.214599609375 835.8053588867188 1492.772827148438 836.6400146484375 1491.161499023438 836.6400146484375 Z"/></g></g></g></svg>