<svg xmlns="http://www.w3.org/2000/svg" width="15.429" height="18" viewBox="0 0 15.429 18"><path d="M1101.944,841.309a9.536,9.536,0,0,0-.795-1.11,5.334,5.334,0,0,1-1.45-3.831c0-3.929-1.2-6.333-3.577-7.15a1.745,1.745,0,0,0-3.457,0c-2.373.817-3.578,3.22-3.578,7.15a5.458,5.458,0,0,1-1.462,3.834,10.3,10.3,0,0,0-.784,1.107,1.228,1.228,0,0,0,1.052,1.854h3.456a3.083,3.083,0,0,0,6.074,0h3.455a1.23,1.23,0,0,0,1.052-1.854Zm-4.51.224h-1.353l-.241,1.341a1.465,1.465,0,0,1-2.886,0l-.241-1.341h-4.057c.082-.106.167-.212.253-.327a7.072,7.072,0,0,0,1.805-4.838,9.613,9.613,0,0,1,.581-3.666c.022-.059.045-.116.069-.174.017-.037.03-.086.048-.123h.013a3.211,3.211,0,0,1,5.8-.289h.008a8.434,8.434,0,0,1,.853,4.254,6.951,6.951,0,0,0,1.81,4.857c.083.106.164.207.242.308Z" transform="translate(-1086.672 -827.715)"/></svg>