<svg xmlns="http://www.w3.org/2000/svg" width="33" height="33" viewBox="0 0 33 33"><defs><style>.a{fill:#d2e1ef;stroke:#95b1d6;}.b,.c{fill:#335ca5;}.c{opacity:0.703;}</style></defs><g transform="translate(-145.5 -585.5)"><g transform="translate(-624 26.181)"><g transform="translate(-850 73)"><g transform="translate(1620 486.819)"><circle class="a" cx="16" cy="16" r="16" transform="translate(0)"/></g></g></g><g transform="translate(-0.501)"><g transform="translate(65.487 -258.872)"><path class="b" d="M117.6,860.108a2.706,2.706,0,1,1,0,3.819,2.718,2.718,0,0,1,0-3.819" transform="translate(-14.439 -3.559)"/><path class="b" d="M102.2,852.52a2.706,2.706,0,1,1,0,3.819,2.718,2.718,0,0,1,0-3.819" transform="translate(-7.219)"/><path class="b" d="M86.808,860.108a2.706,2.706,0,1,1,0,3.819,2.718,2.718,0,0,1,0-3.819" transform="translate(0 -3.559)"/><path class="c" d="M111.628,871.133a4.228,4.228,0,0,1,.406.478l3.1-3.091a3.17,3.17,0,0,1-.487-.4,3.217,3.217,0,0,1-.4-.484l-3.1,3.09a4.073,4.073,0,0,1,.479.4" transform="translate(-11.788 -7.462)"/><path class="c" d="M105.923,867.532a4.2,4.2,0,0,1,.583.045v-5.016a3.121,3.121,0,0,1-1.252-.018v5.046a4.219,4.219,0,0,1,.669-.057" transform="translate(-9.023 -5.072)"/><path class="c" d="M97.47,871.61a4.118,4.118,0,0,1,.405-.478,4.279,4.279,0,0,1,.48-.4l-3.1-3.091a3.146,3.146,0,0,1-.885.881Z" transform="translate(-3.918 -7.461)"/><path class="b" d="M105.854,873.782a3.735,3.735,0,1,0,0,5.271,3.754,3.754,0,0,0,0-5.271m-.736,4.539a2.684,2.684,0,1,1,.791-1.9,2.689,2.689,0,0,1-.791,1.9" transform="translate(-6.309 -9.831)"/></g></g></g></svg>