<svg xmlns="http://www.w3.org/2000/svg" width="33" height="33" viewBox="0 0 33 33"><defs><style>.a{fill:#d2e1ef;stroke:#95b1d6;}.b{fill:#335ca5;}</style></defs><g transform="translate(-1619.455 -314.319)"><g transform="translate(1619.955 314.819)"><circle class="a" cx="16" cy="16" r="16" transform="translate(0)"/></g><g transform="translate(1528.097 -268.289)"><path class="b" d="M121.4,568.336V572.1h3.85Z" transform="translate(-11.559 22.288)"/><path class="b" d="M110.436,567.032h-7.7v17.326h13.476V572.68h-5.775Zm-.262,14.441h-4.231a.628.628,0,1,1,0-1.255h4.231a.628.628,0,1,1,0,1.255Zm2.829-2.95h-7.059a.628.628,0,1,1,0-1.255H113a.628.628,0,1,1,0,1.255Zm0-4.205a.628.628,0,1,1,0,1.255h-7.059a.628.628,0,1,1,0-1.255Z" transform="translate(-1.876 22.964)"/></g></g></svg>