<svg xmlns="http://www.w3.org/2000/svg" width="33" height="33" viewBox="0 0 33 33"><defs><style>.a{fill:#d2e1ef;stroke:#95b1d6;}.b{fill:#335ca5;}</style></defs><g transform="translate(-145.5 -727.5)"><g transform="translate(-1474 241.181)"><g transform="translate(1620 486.819)"><circle class="a" cx="16" cy="16" r="16" transform="translate(0)"/></g></g><g transform="translate(153 735.88)"><g transform="translate(0 -0.836)"><path class="b" d="M8.223,10.125l-4.306,4.3a.3.3,0,0,1-.155.082l-1.418.265a.3.3,0,0,0-.217.171L.871,17.77a.3.3,0,0,0,.062.331l.349.349a.3.3,0,0,0,.322.065l2.913-1.188a.3.3,0,0,0,.178-.218l.278-1.425a.3.3,0,0,1,.082-.154l4.293-4.282ZM15.489.647l-4.3,4.292a2.36,2.36,0,0,0-.665,1.312L8.448,7.689a.852.852,0,0,0-.27,1.174.841.841,0,0,0,.132.162l2.14,2.136a.856.856,0,0,0,1.21.021.846.846,0,0,0,.129-.159l1.423-2.049A2.37,2.37,0,0,0,14.565,8.3l4.3-4.29A2.384,2.384,0,0,0,15.489.647Z" transform="translate(-0.594 0)"/><g transform="translate(0 -0.01)"><path class="b" d="M6.607,8.1a1.731,1.731,0,0,1,.754-1.073l1.233-.854L7.75,5.33A1.252,1.252,0,0,1,7.4,4.271,3.709,3.709,0,0,0,3.718.068c-.107,0-.212.007-.317.016l1.4,2.2a.411.411,0,0,1-.032.484l-.759.909a.412.412,0,0,1-.2.132L2.791,4.1a.413.413,0,0,1-.472-.192L.872,1.392A3.692,3.692,0,0,0,.011,4.07,3.735,3.735,0,0,0,2.9,7.4a3.685,3.685,0,0,0,1.277.063,1.272,1.272,0,0,1,1.065.348L6.8,9.364A1.73,1.73,0,0,1,6.607,8.1Z" transform="translate(0 -0.068)"/><path class="b" d="M38.569,36.025a3.74,3.74,0,0,0-1.044-.008,1.251,1.251,0,0,1-1.057-.341l-.945-.943-.856,1.233a1.745,1.745,0,0,1-1.465.8h-.031a1.735,1.735,0,0,1-.841-.232l1.648,1.645a1.257,1.257,0,0,1,.349,1.056A3.706,3.706,0,0,0,37.973,43.4a3.7,3.7,0,0,0,.6-.047l-1.585-2.5a.411.411,0,0,1,.032-.484l.759-.909a.412.412,0,0,1,.2-.132L39,39.04a.413.413,0,0,1,.472.192L41,41.9a3.684,3.684,0,0,0,.726-2.444A3.734,3.734,0,0,0,38.569,36.025Z" transform="translate(-22.731 -24.44)"/></g></g></g></g></svg>