<svg id="Layer_1" data-name="Layer 1" xmlns="http://www.w3.org/2000/svg" viewBox="0 0 294 314"><defs><style>.cls-1{fill:#202020;}</style></defs><path class="cls-1" d="M275.73,41.91H17.47A15.83,15.83,0,0,0,1.6,57.71V213.46a15.84,15.84,0,0,0,15.87,15.8H113v28.15H85.63a4.27,4.27,0,0,0-4.28,4.26v12.24H212.74V261.67a4.27,4.27,0,0,0-4.28-4.26H179.3V229.26h96.43a15.84,15.84,0,0,0,15.87-15.8V57.71A15.84,15.84,0,0,0,275.73,41.91Zm-5.44,158.47a13.51,13.51,0,0,1-13.54,13.48H36.44A13.52,13.52,0,0,1,22.9,200.38V67.51A13.51,13.51,0,0,1,36.44,54H256.75a13.5,13.5,0,0,1,13.54,13.47Z"/><path d="M210.92,125.92a6.62,6.62,0,0,0-9.32,0l-22.14,22L152.27,98.59c-.11-.2-.26-.37-.38-.55s-.18-.28-.28-.41a7,7,0,0,0-.76-.78l-.12-.11a6.6,6.6,0,0,0-7.41-.75h0a6.53,6.53,0,0,0-2.76,2.92l-29.49,53.91H75.35a6.56,6.56,0,1,0,0,13.12H115a6.57,6.57,0,0,0,6-3.95h0l25.46-46.55,25.59,46.45a6.62,6.62,0,0,0,8.95,2.6h0a7.34,7.34,0,0,0,.73-.51l.09-.06.44-.35c.18-.15.38-.28.55-.45l28-27.92A6.55,6.55,0,0,0,210.92,125.92Z"/></svg>