<svg id="Layer_1" data-name="Layer 1" xmlns="http://www.w3.org/2000/svg" viewBox="0 0 294 314"><defs><style>.cls-1{fill:#fff;}</style></defs><path class="cls-1" d="M275.77,38.64H17.51A15.84,15.84,0,0,0,1.64,54.44V210.2A15.83,15.83,0,0,0,17.51,226h95.55v28.16H85.67a4.27,4.27,0,0,0-4.28,4.26v12.23H212.78V258.41a4.27,4.27,0,0,0-4.28-4.26H179.34V226h96.43a15.83,15.83,0,0,0,15.87-15.79V54.44A15.84,15.84,0,0,0,275.77,38.64Zm-5.43,158.48A13.51,13.51,0,0,1,256.8,210.6H36.49A13.51,13.51,0,0,1,23,197.12V64.25A13.5,13.5,0,0,1,36.49,50.78H256.8a13.5,13.5,0,0,1,13.54,13.47Z"/><path class="cls-1" d="M211,122.66a6.62,6.62,0,0,0-9.32,0l-22.13,22-27.2-49.37c-.11-.2-.25-.36-.38-.55s-.17-.27-.27-.4a6.31,6.31,0,0,0-.77-.78l-.11-.11a6.58,6.58,0,0,0-7.41-.75h0a6.45,6.45,0,0,0-2.76,2.91l-29.49,53.92H75.4a6.56,6.56,0,1,0,0,13.12h39.67a6.6,6.6,0,0,0,6-4h0l25.46-46.55,25.59,46.45a6.6,6.6,0,0,0,8.94,2.59h0a6.39,6.39,0,0,0,.74-.5l.09-.06a5.12,5.12,0,0,0,.43-.36,4.61,4.61,0,0,0,.55-.44L211,131.94A6.53,6.53,0,0,0,211,122.66Z"/></svg>