<svg xmlns="http://www.w3.org/2000/svg" width="32" height="23.78" viewBox="0 0 32 23.78"><defs><style>.a{fill:#fff;}.b{fill:none;stroke:#fff;}</style></defs><g transform="translate(-7448.811 -2908.206)"><g transform="translate(7448.811 2908.206)"><g transform="translate(0 2.394)"><rect class="a" width="2.092" height="2.346" transform="translate(2.815 12.547)"/><rect class="a" width="2.092" height="2.346" transform="translate(2.815 9.526)"/><path class="a" d="M21.522,1.77H13.705a1.7,1.7,0,0,0-1.687,1.7h0V18.467c0,.028.007.053.008.081l11.175,0c0-.027.008-.053.008-.08v-15A1.7,1.7,0,0,0,21.522,1.77ZM15.564,17.054H13.471V14.63h2.093Zm0-3.368H13.471V11.263h2.093Zm0-3.368H13.471V7.894h2.093Zm0-3.367H13.471V4.527h2.093Zm3.094,10.1H16.566V14.63h2.092Zm0-3.368H16.566V11.263h2.092Zm0-3.368H16.566V7.894h2.092Zm0-3.367H16.566V4.527h2.092Zm3.1,10.1H19.662V14.63h2.094Zm0-3.368H19.662V11.263h2.094Zm0-3.368H19.662V7.894h2.094Zm0-3.367H19.662V4.527h2.094Z" transform="translate(-6.086 -1.77)"/><path class="a" d="M4.313,12.781V11.4H3.006v1.382H1.665a.408.408,0,0,0-.334.172L.078,14.712a.417.417,0,0,0,.092.578.4.4,0,0,0,.241.078h.6a1.411,1.411,0,0,0-.045.337v7.722H4.9V22.315H1.89V15.7a.463.463,0,0,1,.146-.337H4.9V12.779Z" transform="translate(0 -6.646)"/></g><g transform="translate(22.249 13.883)"><ellipse class="a" cx="1.816" cy="1.845" rx="1.816" ry="1.845" transform="translate(3.065 2.125)"/><g transform="translate(1.892 6.495)"><path class="a" d="M72.34,35.29a2.078,2.078,0,0,0-.555-1.037.725.725,0,0,0-.138-.113c-.067-.041-.138-.079-.212-.115a3.6,3.6,0,0,0-1.378-.36c-.027,0-.054,0-.08-.006s-.078,0-.117,0c-.054,0-.1,0-.155,0h-.7c-.054,0-.1,0-.155,0s-.079,0-.117,0-.054,0-.081.006a3.6,3.6,0,0,0-1.377.36c-.074.036-.145.075-.212.115a.73.73,0,0,0-.138.113,2.069,2.069,0,0,0-.554,1.037,4.261,4.261,0,0,0,5.968,0Z" transform="translate(-66.372 -33.649)"/></g><path class="a" d="M67.756,31.556a4.949,4.949,0,1,1,4.876-4.948A4.918,4.918,0,0,1,67.756,31.556Zm0-9.355a4.407,4.407,0,1,0,4.334,4.407A4.376,4.376,0,0,0,67.756,22.2Z" transform="translate(-62.88 -21.659)"/></g><path class="b" d="M18.072,8.783l3.2,1.823" transform="translate(0.522 5.11)"/><g transform="translate(22.248 0)"><ellipse class="a" cx="1.816" cy="1.845" rx="1.816" ry="1.845" transform="translate(3.065 2.125)"/><g transform="translate(1.892 6.495)"><path class="a" d="M72.34,35.29a2.078,2.078,0,0,0-.555-1.037.725.725,0,0,0-.138-.113c-.067-.041-.138-.079-.212-.115a3.6,3.6,0,0,0-1.377-.36c-.027,0-.054,0-.08-.006s-.078,0-.117,0c-.054,0-.1,0-.155,0h-.7c-.054,0-.1,0-.155,0s-.079,0-.117,0-.054,0-.081.006a3.6,3.6,0,0,0-1.377.36c-.074.036-.145.075-.212.115a.73.73,0,0,0-.138.113,2.069,2.069,0,0,0-.554,1.037,4.261,4.261,0,0,0,5.968,0Z" transform="translate(-66.372 -33.649)"/></g><path class="a" d="M67.756,31.556a4.949,4.949,0,1,1,4.876-4.948A4.918,4.918,0,0,1,67.756,31.556Zm0-9.355a4.407,4.407,0,1,0,4.334,4.407A4.376,4.376,0,0,0,67.756,22.2Z" transform="translate(-62.88 -21.659)"/></g><path class="b" d="M18.072,10.606l3.2-1.823" transform="translate(0.522 -0.72)"/></g></g></svg>