<svg xmlns="http://www.w3.org/2000/svg" width="56" height="36" viewBox="0 0 56 36"><g transform="translate(-308.483 -582.93)"><path d="M334.738,591.751l-6.637,5.14,6.637,5.14Z"/><rect width="11.456" height="4.805" transform="translate(333.409 594.436)"/><path d="M338.228,603.085l6.637,5.14-6.637,5.14Z"/><rect width="11.456" height="4.805" transform="translate(339.557 610.574) rotate(180)"/><ellipse cx="5.172" cy="5.069" rx="5.172" ry="5.069" transform="translate(311.278 582.93)"/><path d="M317.354,618.93h-1.809c-3.317,0-3.99-1.3-4.3-3.374-.139-.936-.178-1.884-.363-2.812l-2.314-11.156a4.369,4.369,0,0,1,1.834-4.549,9.651,9.651,0,0,1,5.139-1.367h1.809a9.644,9.644,0,0,1,5.138,1.367,4.37,4.37,0,0,1,1.835,4.549l-2.315,11.656c-.184.928-.191,1.381-.362,2.312C321.288,617.521,320.67,618.93,317.354,618.93Z"/><ellipse cx="5.172" cy="5.069" rx="5.172" ry="5.069" transform="translate(351.345 582.93)"/><path d="M357.421,618.93h-1.809c-3.316,0-3.989-.8-4.3-2.874-.138-.936-.178-1.884-.362-2.812l-2.315-11.656a4.37,4.37,0,0,1,1.835-4.549,9.647,9.647,0,0,1,5.138-1.367h1.809a9.651,9.651,0,0,1,5.139,1.367,4.369,4.369,0,0,1,1.834,4.549l-2.314,11.656c-.185.928-.191,1.381-.362,2.312C361.356,617.521,360.738,618.93,357.421,618.93Z"/></g></svg>