<svg xmlns="http://www.w3.org/2000/svg" width="65" height="48" viewBox="0 0 65 48"><g transform="translate(-99 -717.636)"><g transform="translate(99 717.636)"><g transform="translate(0 0)"><g transform="translate(0 4.905)"><rect width="4.286" height="4.806" transform="translate(5.766 25.703)"/><rect width="4.286" height="4.806" transform="translate(5.766 19.514)"/><path d="M1463.557,337.108h-16.014a3.482,3.482,0,0,0-3.456,3.483h0v30.722c0,.057.014.109.016.166H1467c0-.055.017-.109.017-.164V340.586A3.482,3.482,0,0,0,1463.557,337.108Zm-12.205,31.31h-4.288v-4.966h4.288Zm0-6.9h-4.288v-4.964h4.288Zm0-6.9h-4.288v-4.966h4.288Zm0-6.9h-4.288v-4.966h4.288Zm6.338,20.69H1453.4v-4.96h4.286Zm0-6.9H1453.4v-4.957h4.286Zm0-6.9H1453.4v-4.96h4.286Zm0-6.9H1453.4v-4.96h4.286Zm6.35,20.69h-4.294v-4.953h4.29Zm0-6.9h-4.294v-4.951h4.29Zm0-6.9h-4.294v-4.953h4.29Zm0-6.9h-4.294v-4.953h4.29Z" transform="translate(-1431.937 -337.108)"/><path d="M1446.991,344.691v-2.829h-2.677v2.831h-2.747a.841.841,0,0,0-.684.352l-2.567,3.6a.856.856,0,0,0,.189,1.184.826.826,0,0,0,.494.16h1.229a3.028,3.028,0,0,0-.092.69V366.5h8.059v-2.278h-6.166V350.671a.945.945,0,0,1,.3-.69h5.867v-5.293Z" transform="translate(-1438.157 -332.123)"/></g><g transform="translate(44.724 27.723)"><ellipse cx="3.72" cy="3.78" rx="3.72" ry="3.78" transform="translate(6.578 4.354)"/><g transform="translate(4.172 13.322)"><path d="M1474.524,358.446a4.254,4.254,0,0,0-1.137-2.124,1.47,1.47,0,0,0-.282-.231c-.137-.084-.283-.162-.435-.236a7.356,7.356,0,0,0-2.823-.737.728.728,0,0,1-.164-.012,1.546,1.546,0,0,0-.24,0h-2.309a.658.658,0,0,0-.166.012,7.357,7.357,0,0,0-2.821.737c-.152.074-.3.154-.434.236a1.526,1.526,0,0,0-.283.231,4.247,4.247,0,0,0-1.135,2.124,8.728,8.728,0,0,0,12.226,0Z" transform="translate(-1462.296 -355.099)"/></g><path d="M1470.546,368.872a10.138,10.138,0,1,1,9.989-10.288v.152A10.074,10.074,0,0,1,1470.546,368.872Zm0-19.164a9.028,9.028,0,1,0,8.879,9.176v-.148a8.964,8.964,0,0,0-8.879-9.03Z" transform="translate(-1460.259 -348.596)"/></g><rect width="2.048" height="7.545" transform="translate(37.223 28.894) rotate(-60.335)"/><g transform="translate(44.722 0)"><ellipse cx="3.72" cy="3.78" rx="3.72" ry="3.78" transform="translate(6.578 4.354)"/><g transform="translate(4.174 13.322)"><path d="M1474.522,344.563a4.253,4.253,0,0,0-1.137-2.124,1.469,1.469,0,0,0-.283-.231c-.137-.084-.283-.162-.434-.236a7.341,7.341,0,0,0-2.821-.737.728.728,0,0,1-.164-.012,1.554,1.554,0,0,0-.24,0h-2.309a.658.658,0,0,0-.166.012,7.36,7.36,0,0,0-2.821.737c-.152.074-.3.154-.434.236a1.525,1.525,0,0,0-.283.231,4.247,4.247,0,0,0-1.135,2.124,8.728,8.728,0,0,0,12.226,0Z" transform="translate(-1462.296 -341.216)"/></g><path d="M1470.545,354.989a10.138,10.138,0,1,1,9.989-10.288v.152A10.074,10.074,0,0,1,1470.545,354.989Zm0-19.164a9.028,9.028,0,1,0,8.879,9.175v-.147a8.964,8.964,0,0,0-8.879-9.03Z" transform="translate(-1460.258 -334.713)"/></g><rect width="7.545" height="2.048" transform="translate(37.222 19.101) rotate(-29.62)"/></g></g></g></svg>