<svg xmlns="http://www.w3.org/2000/svg" width="14.947" height="19.43" viewBox="0 0 14.947 19.43"><defs><style>.a{fill:#d1d1d1;}</style></defs><g transform="translate(-2684.96 -4214)"><path class="a" d="M134.313,308.88h-2.242v-.809c0-1.373-.388-3.675-2.989-3.675-2.7,0-2.989,2.57-2.989,3.675v.809H123.85v-.809c0-3.594,2.053-5.916,5.231-5.916s5.231,2.322,5.231,5.916Z" transform="translate(2563.352 3911.845)"/><path class="a" d="M134.878,307.744H124.415a2.242,2.242,0,0,0-2.242,2.242v7.473a2.242,2.242,0,0,0,2.242,2.242h10.463a2.242,2.242,0,0,0,2.242-2.242v-7.473A2.242,2.242,0,0,0,134.878,307.744Zm-4.233,6.04v2.274a1,1,0,1,1-2,0v-2.274a2,2,0,1,1,2,0Z" transform="translate(2562.787 3913.729)"/></g></svg>