<svg xmlns="http://www.w3.org/2000/svg" width="23.732" height="30.849" viewBox="0 0 23.732 30.849"><defs><style>.a{fill:#8b8b8b;}</style></defs><g transform="translate(-2685.986 -4139.734)"><path class="a" d="M140.462,312.832H136.9v-1.284c0-2.18-.616-5.835-4.746-5.835-4.284,0-4.746,4.08-4.746,5.835v1.284h-3.56v-1.284c0-5.706,3.26-9.393,8.306-9.393s8.306,3.687,8.306,9.393Z" transform="translate(2565.696 3837.579)"/><path class="a" d="M142.345,307.744H125.733a3.56,3.56,0,0,0-3.56,3.56V323.17a3.56,3.56,0,0,0,3.56,3.56h16.612a3.56,3.56,0,0,0,3.56-3.56V311.3A3.56,3.56,0,0,0,142.345,307.744Zm-6.72,9.59v3.611a1.586,1.586,0,1,1-3.171,0v-3.611a3.171,3.171,0,1,1,3.171,0Z" transform="translate(2563.813 3843.853)"/></g></svg>