<svg xmlns="http://www.w3.org/2000/svg" width="31.943" height="30.641" viewBox="0 0 31.943 30.641"><defs><style>.a{fill:#335ca5;}</style></defs><g transform="translate(0 0)"><path class="a" d="M123.85,312.76h3.536v-1.276c0-2.165.611-5.8,4.714-5.8,4.255,0,4.714,4.052,4.714,5.8v1.276h3.536v-1.276c0-5.667-3.238-9.329-8.25-9.329s-8.25,3.662-8.25,9.329Z" transform="translate(-123.85 -302.155)"/><path class="a" d="M125.709,307.744h16.5a3.536,3.536,0,0,1,3.536,3.536v11.786a3.536,3.536,0,0,1-3.536,3.536h-16.5a3.536,3.536,0,0,1-3.536-3.536V311.28A3.536,3.536,0,0,1,125.709,307.744Zm6.675,9.525v3.586a1.575,1.575,0,1,0,3.15,0V317.27a3.15,3.15,0,1,0-3.15,0Z" transform="translate(-113.801 -295.96)"/></g></svg>