<svg xmlns="http://www.w3.org/2000/svg" xmlns:xlink="http://www.w3.org/1999/xlink" width="112.516" height="112.516" viewBox="0 0 112.516 112.516"><defs><style>.a{fill:none;}.b{clip-path:url(#a);}.c{fill:#ececec;}.d{fill:#797979;}</style><clipPath id="a"><path class="a" d="M57.773,318.83a56.258,56.258,0,1,0,56.258-56.258A56.257,56.257,0,0,0,57.773,318.83" transform="translate(-57.773 -262.572)"/></clipPath></defs><g transform="translate(-57.773 -262.572)"><g class="b" transform="translate(57.773 262.572)"><rect class="c" width="135" height="112" transform="translate(-10.876 0.258)"/><g transform="translate(1.364 -1535.112)"><path class="d" d="M68.6,1608.444c-.623-.2-4.535-1.965-2.09-9.4h-.031a41.445,41.445,0,0,0,11.238-27.52c0-15.99-10.63-24.367-22.985-24.367S31.8,1555.538,31.8,1571.528a41.342,41.342,0,0,0,11.253,27.59c2.5,6.551-1.97,8.984-2.9,9.326-12.939,4.679-28.119,13.211-28.119,21.631v3.153c0,11.471,22.242,14.079,42.825,14.079,20.615,0,42.576-2.608,42.576-14.079v-3.153C97.431,1621.4,82.176,1612.936,68.6,1608.444Z" transform="translate(0 0)"/></g></g></g></svg>