<svg xmlns="http://www.w3.org/2000/svg" width="19.751" height="20" viewBox="0 0 19.751 20"><defs><style>.a{fill:#e3b23f;}</style></defs><g transform="translate(-121.628 -579.305)"><path class="a" d="M133.078,597.265c.514.513.941.917.428,1.432l-9.476,9.477a1.315,1.315,0,0,1-1.86,0h0a1.315,1.315,0,0,1,0-1.86l9.477-9.477c.513-.513.918-.086,1.431.428Z" transform="translate(-0.081 -9.254)"/><path class="a" d="M122.8,608.064c.513-.514.918-.942,1.431-.428l1.949,1.947c.512.513.291,1.126-.221,1.639l-.54.493c-.513.513-1.1.757-1.615.244l-1.948-1.948c-.513-.514-.086-.918.428-1.431Z" transform="translate(0 -14.826)"/><g transform="translate(129.605 579.305)"><path class="a" d="M144.669,591.078a6.459,6.459,0,0,1-4.488-2.068,6.726,6.726,0,0,1-2.043-3.976,5.017,5.017,0,0,1,1.554-4.15,5.083,5.083,0,0,1,3.635-1.579,6.46,6.46,0,0,1,4.49,2.068,6.716,6.716,0,0,1,2.041,3.975A5.007,5.007,0,0,1,148.3,589.5,5.086,5.086,0,0,1,144.669,591.078Zm-1.3-10.112a3.748,3.748,0,0,0-3.576,3.945,5.014,5.014,0,0,0,1.543,2.943,4.782,4.782,0,0,0,3.294,1.56,3.746,3.746,0,0,0,3.576-3.945,5.016,5.016,0,0,0-1.542-2.942A4.787,4.787,0,0,0,143.368,580.966Z" transform="translate(-138.111 -579.305)"/></g></g></svg>