<svg xmlns="http://www.w3.org/2000/svg" width="18.205" height="16.253" viewBox="0 0 18.205 16.253"><defs><style>.a{fill:#aaa;}</style></defs><path class="a" d="M99.969,1696.112l-7.143-12.37c-.873-1.513-2.3-1.513-3.175,0l-7.142,12.37c-.874,1.514-.159,2.748,1.587,2.748H98.382C100.128,1698.861,100.841,1697.626,99.969,1696.112Zm-9.711-8.861a1.37,1.37,0,0,1,1.962-.005,1.45,1.45,0,0,1,.383,1.029c0,.354-.533,2.962-.71,4.859H90.609c-.156-1.9-.734-4.5-.734-4.859A1.451,1.451,0,0,1,90.257,1687.251Zm1.944,9.02a1.375,1.375,0,0,1-1.926,0,1.282,1.282,0,0,1-.4-.953,1.366,1.366,0,0,1,2.732,0A1.283,1.283,0,0,1,92.2,1696.271Z" transform="translate(-82.136 -1682.607)"/></svg>