<svg xmlns="http://www.w3.org/2000/svg" width="18" height="18" viewBox="0 0 18 18"><defs><style>.a{fill:#909090;}</style></defs><path class="a" d="M449.259,623.441q.055-.247.167-.655l1.007-3.675c.01-.043.02-.086.028-.128a.658.658,0,0,0,.012-.12q0-.327-.208-.408a2.746,2.746,0,0,0-.757-.1v-.431q.459-.031,1.336-.132c.584-.066,1-.124,1.242-.172l.7-.135-1.271,4.658q-.159.6-.215.831a4.34,4.34,0,0,0-.144.767c0,.117.026.193.08.227a.313.313,0,0,0,.176.052q.248,0,.617-.423a6.512,6.512,0,0,0,.649-.887l.359.232a11.2,11.2,0,0,1-1.224,1.582,2.123,2.123,0,0,1-1.488.671,1.277,1.277,0,0,1-.8-.276,1,1,0,0,1-.356-.843A3.283,3.283,0,0,1,449.259,623.441Zm3.848-9.292a1.055,1.055,0,0,1,.32.775,1.071,1.071,0,0,1-.32.779,1.048,1.048,0,0,1-.775.323,1.1,1.1,0,0,1-1.1-1.1,1.047,1.047,0,0,1,.324-.775,1.069,1.069,0,0,1,.779-.32A1.057,1.057,0,0,1,453.107,614.149Z" transform="translate(-442.295 -610.51)"/><path class="a" d="M451.3,628.51a9,9,0,1,1,9-9A9.01,9.01,0,0,1,451.3,628.51Zm0-16.364a7.363,7.363,0,1,0,7.363,7.364A7.372,7.372,0,0,0,451.3,612.146Z" transform="translate(-442.295 -610.51)"/></svg>