<svg xmlns="http://www.w3.org/2000/svg" xmlns:xlink="http://www.w3.org/1999/xlink" width="353.968" height="135.653" viewBox="0 0 353.968 135.653"><defs><style>.a{opacity:0.805;}.b{fill:#e7eff7;}.c,.h{fill:#707070;}.c{opacity:0.374;}.d{fill:none;stroke:#415ea2;stroke-miterlimit:10;stroke-width:3px;}.e{fill:#415ea2;}.f{fill:#d3e4f4;}.g{fill:url(#e);}.h{opacity:0.46;}.i{filter:url(#c);}.j{filter:url(#a);}</style><filter id="a" x="0" y="0" width="296.727" height="84.145" filterUnits="userSpaceOnUse"><feOffset dx="3" dy="3" input="SourceAlpha"/><feGaussianBlur stdDeviation="2.5" result="b"/><feFlood flood-opacity="0.329"/><feComposite operator="in" in2="b"/><feComposite in="SourceGraphic"/></filter><filter id="c" x="37.907" y="42.311" width="316.061" height="93.341" filterUnits="userSpaceOnUse"><feOffset dx="3" dy="3" input="SourceAlpha"/><feGaussianBlur stdDeviation="2.5" result="d"/><feFlood flood-opacity="0.329"/><feComposite operator="in" in2="d"/><feComposite in="SourceGraphic"/></filter><linearGradient id="e" y1="0.5" x2="1" y2="0.5" gradientUnits="objectBoundingBox"><stop offset="0" stop-color="#c7cfd9"/><stop offset="1" stop-color="#ccd5de"/></linearGradient></defs><g transform="translate(-993.083 -532.372)"><g class="a" transform="translate(997.583 536.871)"><g class="j" transform="matrix(1, 0, 0, 1, -4.5, -4.5)"><rect class="b" width="281.727" height="69.145" transform="translate(4.5 4.5)"/></g><rect class="c" width="84.582" height="11.425" rx="4.199" transform="translate(74.473 18.649)"/><rect class="d" width="282.637" height="69.452"/><path class="e" d="M-77.895,14.62c-6.988-.932-6.894-3.448-6.894-4.752V7.725c2.515-2.236,3.726-5.963,3.726-10.156V-8.952c0-7.174-4.752-9.876-9.317-9.876s-9.317,2.7-9.317,9.876v6.522c0,4.193,1.212,8.013,3.727,10.249v2.236c0,1.4.093,3.634-6.894,4.566a9.345,9.345,0,0,0-8.013,7.546v3.727h41V22.166S-69.882,15.738-77.895,14.62Z" transform="translate(125.752 31.041)"/></g><g transform="translate(1035.49 579.182)"><g class="i" transform="matrix(1, 0, 0, 1, -42.41, -46.81)"><rect class="f" width="301.061" height="78.341" transform="translate(42.41 46.81)"/></g><rect class="g" width="154.555" height="9.569" rx="3.104" transform="translate(86.933 44.845)"/><rect class="h" width="95.832" height="12.944" rx="4.199" transform="translate(86.978 21.129)"/><rect class="d" width="302.093" height="78.689"/><path class="e" d="M-73.508,19.069c-7.917-1.056-7.811-3.907-7.811-5.384V11.257C-78.469,8.723-77.1,4.5-77.1-.25V-7.639c0-8.129-5.384-11.189-10.556-11.189S-98.21-15.767-98.21-7.639V-.25c0,4.751,1.373,9.079,4.223,11.612V13.9c0,1.584.106,4.117-7.811,5.173a10.588,10.588,0,0,0-9.079,8.55v4.223h46.448V27.619S-64.429,20.335-73.508,19.069Z" transform="translate(131.13 32.665)"/></g></g></svg>